<svg width="49" height="49" viewBox="0 0 49 49" fill="none" xmlns="http://www.w3.org/2000/svg">
    <ellipse cx="31.4326" cy="14.1683" rx="13.4226" ry="14.1683" fill="#E0E0E0"/>
    <path d="M26.9586 29.8281C27.6147 28.1443 27.0353 27.1511 25.4672 25.3539H37.3984C35.7057 27.0428 35.2559 28.0118 36.6527 29.8281C47.5791 30.3758 49.8535 32.0715 47.8382 37.2851H15.0274C13.2357 31.4298 15.721 29.7393 26.9586 29.8281Z" fill="#E0E0E0" stroke="#E0E0E0"/>
    <ellipse cx="17.4326" cy="24.5548" rx="13.4226" ry="14.1683" fill="white"/>
    <path d="M12.9586 40.2146C13.6147 38.5308 13.0353 37.5376 11.4672 35.7404H23.3984C21.7057 37.4292 21.2559 38.3983 22.6527 40.2146C33.5791 40.7623 35.8535 42.458 33.8382 47.6716H1.02736C-0.764314 41.8163 1.72105 40.1258 12.9586 40.2146Z" fill="white" stroke="white"/>
</svg>
