<svg width="63" height="50" viewBox="0 0 63 50" fill="none" xmlns="http://www.w3.org/2000/svg">
<path d="M12.4534 21.5061C8.62483 13.9341 5.69995 0.599976 5.69995 0.599976C5.69995 0.599976 14.3622 11.5545 17.8126 19.5878C20.5263 25.9061 23.7 36 23.7 36L21.3 37.2C21.3 37.2 14.0079 24.5804 12.4534 21.5061Z" fill="white"/>
<rect x="20.3999" y="39.106" width="5.4" height="0.6" transform="rotate(-27.6488 20.3999 39.106)" fill="white"/>
<path d="M22.2 40.5L26.1 38.4C26.1 38.4 28.2715 39.5492 29.1 40.8C30.1531 42.3901 28.887 44.194 29.5 46C30.2754 48.2844 33.5 50 33.5 50C33.5 50 26.5767 50.0461 24.3 47.1C22.646 44.9599 22.2 40.5 22.2 40.5Z" fill="white"/>
<path d="M3.49637 33.4285C7.36063 36.3972 15.9354 34.4137 15.9354 34.4137L10.7945 24.1846L5.65369 13.9555C5.65369 13.9555 -2.57103 28.7672 3.49637 33.4285Z" fill="white"/>
<path d="M14.557 6.31847C14.557 6.31847 25.2192 0.493883 34.7916 0.918473C42.5278 1.2616 48.1093 1.13011 53.8771 6.29718C61.985 13.5606 63.695 24.094 58.6781 33.7545C55.1127 40.6198 50.1531 48.2566 42.8594 45.6786C38.2863 44.0622 38.937 38.9161 35.0396 36.0288C31.045 33.0694 25.653 32.6728 25.6249 32.6708C25.6249 32.6708 23.0797 23.5222 20.9757 19.0157C18.5038 13.7214 14.566 6.33535 14.557 6.31847ZM49.7253 26.1789C47.5726 26.2494 45.8841 28.0521 45.9546 30.2048C46.0253 32.3573 47.8279 34.045 49.9804 33.9746C52.133 33.9041 53.8214 32.1022 53.7512 29.9497C53.6808 27.7969 51.8781 26.1085 49.7253 26.1789ZM52.3313 14.0873C50.1787 14.1577 48.4913 15.9596 48.5615 18.1121C48.6319 20.2648 50.4336 21.9533 52.5864 21.8829C54.7391 21.8124 56.4276 20.0098 56.3571 17.857C56.2864 15.7045 54.4839 14.0168 52.3313 14.0873ZM43.0614 5.98569C40.9087 6.05622 39.2212 7.85882 39.2916 10.0115C39.3621 12.1642 41.1638 13.8526 43.3165 13.7823C45.4692 13.7119 47.1577 11.9092 47.0872 9.75644C47.0168 7.60368 45.2141 5.91525 43.0614 5.98569ZM31.0089 4.5793C28.8562 4.64983 27.1687 6.45243 27.2392 8.60513C27.3097 10.7577 29.1114 12.4453 31.264 12.3749C33.4167 12.3045 35.1051 10.5027 35.0348 8.35004C34.9643 6.19728 33.1617 4.50885 31.0089 4.5793Z" fill="white"/>
</svg>
