<svg width="63" height="77" viewBox="0 0 63 77" fill="none" xmlns="http://www.w3.org/2000/svg">
    <g filter="url(#filter0_d_2006_807)">
        <path d="M10.8248 2.5H52.4915C52.4915 2.5 52.9681 26.5459 52.4915 28.3333C51.6053 31.6566 47.4206 34.0374 43.6957 35.5385C41.8678 36.2751 41.6332 39.3678 43.3488 40.3374C45.5113 41.5595 47.4098 42.8194 48.9082 43.8902C51.2544 45.5668 52.4915 48.3207 52.4915 51.2044V72.5H10.8248V51.2044C10.8248 48.3207 12.0619 45.5668 14.4081 43.8902C16.0156 42.7415 18.0835 41.3751 20.4438 40.0712C22.1232 39.1435 21.9669 36.2741 20.1917 35.5464C16.2388 33.926 11.5362 31.3961 10.8248 28.3333C9.56666 22.9167 10.8248 2.5 10.8248 2.5Z" fill="#F1EAF7"/>
    </g>
    <path d="M29.6399 57.1831C30.4393 56.099 32.06 56.099 32.8593 57.1831L40.4208 67.4381C41.3945 68.7585 40.4517 70.625 38.8111 70.625H23.6881C22.0475 70.625 21.1048 68.7585 22.0784 67.4381L29.6399 57.1831Z" fill="#FFD000"/>
    <rect x="30" y="34.167" width="2.5" height="24.1667" fill="#FFD000"/>
    <path d="M33.0409 34.7366C32.305 36.215 30.1958 36.215 29.4599 34.7366L23.6683 23.1001C23.0065 21.7705 23.9736 20.209 25.4587 20.209L37.042 20.209C38.5272 20.209 39.4943 21.7706 38.8325 23.1001L33.0409 34.7366Z" fill="#FFD000"/>
    <g filter="url(#filter1_d_2006_807)">
        <rect y="70" width="62.5" height="5" rx="2.5" fill="#5A189A"/>
    </g>
    <g filter="url(#filter2_d_2006_807)">
        <rect width="62.5" height="5" rx="2.5" fill="#5A189A"/>
    </g>
    <defs>
        <filter id="filter0_d_2006_807" x="10.2656" y="2.5" width="42.4375" height="72" filterUnits="userSpaceOnUse" color-interpolation-filters="sRGB">
            <feFlood flood-opacity="0" result="BackgroundImageFix"/>
            <feColorMatrix in="SourceAlpha" type="matrix" values="0 0 0 0 0 0 0 0 0 0 0 0 0 0 0 0 0 0 127 0" result="hardAlpha"/>
            <feOffset dy="2"/>
            <feComposite in2="hardAlpha" operator="out"/>
            <feColorMatrix type="matrix" values="0 0 0 0 0 0 0 0 0 0 0 0 0 0 0 0 0 0 0.25 0"/>
            <feBlend mode="normal" in2="BackgroundImageFix" result="effect1_dropShadow_2006_807"/>
            <feBlend mode="normal" in="SourceGraphic" in2="effect1_dropShadow_2006_807" result="shape"/>
        </filter>
        <filter id="filter1_d_2006_807" x="0" y="70" width="62.5" height="7" filterUnits="userSpaceOnUse" color-interpolation-filters="sRGB">
            <feFlood flood-opacity="0" result="BackgroundImageFix"/>
            <feColorMatrix in="SourceAlpha" type="matrix" values="0 0 0 0 0 0 0 0 0 0 0 0 0 0 0 0 0 0 127 0" result="hardAlpha"/>
            <feOffset dy="2"/>
            <feComposite in2="hardAlpha" operator="out"/>
            <feColorMatrix type="matrix" values="0 0 0 0 0 0 0 0 0 0 0 0 0 0 0 0 0 0 0.25 0"/>
            <feBlend mode="normal" in2="BackgroundImageFix" result="effect1_dropShadow_2006_807"/>
            <feBlend mode="normal" in="SourceGraphic" in2="effect1_dropShadow_2006_807" result="shape"/>
        </filter>
        <filter id="filter2_d_2006_807" x="0" y="0" width="62.5" height="7" filterUnits="userSpaceOnUse" color-interpolation-filters="sRGB">
            <feFlood flood-opacity="0" result="BackgroundImageFix"/>
            <feColorMatrix in="SourceAlpha" type="matrix" values="0 0 0 0 0 0 0 0 0 0 0 0 0 0 0 0 0 0 127 0" result="hardAlpha"/>
            <feOffset dy="2"/>
            <feComposite in2="hardAlpha" operator="out"/>
            <feColorMatrix type="matrix" values="0 0 0 0 0 0 0 0 0 0 0 0 0 0 0 0 0 0 0.25 0"/>
            <feBlend mode="normal" in2="BackgroundImageFix" result="effect1_dropShadow_2006_807"/>
            <feBlend mode="normal" in="SourceGraphic" in2="effect1_dropShadow_2006_807" result="shape"/>
        </filter>
    </defs>
</svg>
