<svg width="50" height="50" viewBox="0 0 50 50" fill="none" xmlns="http://www.w3.org/2000/svg">
    <path d="M22.5 37.5H27.5V22.5H22.5V37.5ZM25 17.5C25.7083 17.5 26.3025 17.26 26.7825 16.78C27.2625 16.3 27.5016 15.7067 27.5 15C27.4983 14.2933 27.2583 13.7 26.78 13.22C26.3017 12.74 25.7083 12.5 25 12.5C24.2917 12.5 23.6983 12.74 23.22 13.22C22.7417 13.7 22.5017 14.2933 22.5 15C22.4983 15.7067 22.7383 16.3008 23.22 16.7825C23.7017 17.2642 24.295 17.5033 25 17.5ZM25 50C21.5417 50 18.2917 49.3433 15.25 48.03C12.2083 46.7166 9.5625 44.9358 7.3125 42.6875C5.0625 40.4391 3.28167 37.7933 1.97 34.75C0.658336 31.7066 0.00166983 28.4566 3.16455e-06 25C-0.0016635 21.5433 0.655003 18.2933 1.97 15.25C3.285 12.2067 5.06583 9.56083 7.3125 7.3125C9.55916 5.06416 12.205 3.28333 15.25 1.97C18.295 0.656666 21.545 0 25 0C28.455 0 31.705 0.656666 34.75 1.97C37.795 3.28333 40.4408 5.06416 42.6875 7.3125C44.9341 9.56083 46.7158 12.2067 48.0325 15.25C49.3491 18.2933 50.005 21.5433 50 25C49.995 28.4566 49.3383 31.7066 48.03 34.75C46.7216 37.7933 44.9408 40.4391 42.6875 42.6875C40.4341 44.9358 37.7883 46.7175 34.75 48.0325C31.7116 49.3475 28.4617 50.0033 25 50Z" fill="white"/>
</svg>
