<svg width="50" height="78" viewBox="0 0 50 78" fill="none" xmlns="http://www.w3.org/2000/svg">
<rect x="9.5" y="3.5" width="31" height="69" rx="15.5" stroke="currentcolor" stroke-width="7"/>
<path d="M43 33C46.866 33 50 36.134 50 40V71C50 74.866 46.866 78 43 78H7C3.13401 78 1.36909e-07 74.866 0 71V40C0 36.134 3.13401 33 7 33H43ZM25 46C22.2386 46 20 48.2386 20 51C20 52.9752 21.1458 54.6818 22.8086 55.4941L21.4336 66.5H28.5664L27.1904 55.4941C28.8536 54.682 30 52.9755 30 51C30 48.2386 27.7614 46 25 46Z" fill="currentcolor"/>
</svg>
