<svg width="88" height="83" viewBox="0 0 88 83" fill="none" xmlns="http://www.w3.org/2000/svg">
<path d="M0 63.0001L14 63.0001C17.4921 63.1264 22.5551 56.5121 33 41.5001C40.7732 30.9044 45.305 19.9247 52.5 20.0001H66.5" stroke="#9D4EDD" stroke-width="10"/>
<path d="M42.8389 46.0742C45.4928 49.7724 47.6316 52.6023 49.4062 54.6758C50.8184 56.3256 51.8207 57.2818 52.5049 57.7891C52.6359 57.8861 52.7395 57.9532 52.8154 58H66.5V68H52.5V67.998C50.0679 68.0299 48.0388 66.9268 46.5488 65.8223C44.9754 64.6558 43.4041 63.0428 41.8086 61.1787C40.163 59.2561 38.3023 56.8339 36.1748 53.9209L42.8389 46.0742ZM14 15V15.002C20.3142 14.9625 24.5905 19.7709 27.5527 23.7744C28.4712 25.0158 29.3874 26.3655 30.3027 27.752L23.5508 35.7031C22.0737 33.4219 20.7787 31.4324 19.5137 29.7227C16.4766 25.618 14.9048 24.9912 14.0527 25H0V15H14Z" fill="#9D4EDD"/>
<path d="M85.6293 61.4571C86.5992 62.2571 86.5992 63.7429 85.6293 64.5429L69.7726 77.6213C68.4681 78.6973 66.5 77.7694 66.5 76.0784L66.5 49.9216C66.5 48.2306 68.4681 47.3027 69.7726 48.3787L85.6293 61.4571Z" fill="#5A189A"/>
<path d="M85.6293 18.4571C86.5992 19.2571 86.5992 20.7429 85.6293 21.5429L69.7726 34.6213C68.4681 35.6973 66.5 34.7694 66.5 33.0784L66.5 6.92157C66.5 5.23063 68.4681 4.30274 69.7726 5.37866L85.6293 18.4571Z" fill="#5A189A"/>
</svg>
