<svg width="26" height="25" viewBox="0 0 26 25" fill="none" xmlns="http://www.w3.org/2000/svg">
    <path d="M26 5.55555V22.2222C26 22.9861 25.7174 23.6403 25.1521 24.1847C24.5869 24.7292 23.9065 25.0009 23.1111 25H2.88889C2.09444 25 1.41459 24.7282 0.849333 24.1847C0.284074 23.6412 0.000962963 22.987 0 22.2222V2.77778C0 2.01389 0.283111 1.36019 0.849333 0.816667C1.41556 0.273148 2.09541 0.000925926 2.88889 0H20.2222L26 5.55555ZM13 20.8333C14.2037 20.8333 15.2269 20.4282 16.0694 19.6181C16.912 18.8079 17.3333 17.8241 17.3333 16.6667C17.3333 15.5093 16.912 14.5255 16.0694 13.7153C15.2269 12.9051 14.2037 12.5 13 12.5C11.7963 12.5 10.7731 12.9051 9.93056 13.7153C9.08796 14.5255 8.66667 15.5093 8.66667 16.6667C8.66667 17.8241 9.08796 18.8079 9.93056 19.6181C10.7731 20.4282 11.7963 20.8333 13 20.8333ZM4.33333 9.72222H17.3333V4.16667H4.33333V9.72222Z" fill="currentcolor" />
</svg>
