<svg width="40" height="40" viewBox="0 0 40 40" fill="none" xmlns="http://www.w3.org/2000/svg">
<path d="M35.5557 8.91016H4.44458L20.0001 40.0001L35.5557 8.91016Z" fill="#CECECE"/>
<path d="M4.44445 8.91016H0L20 40.0001L4.44445 8.91016Z" fill="#B4B4B4"/>
<path d="M4.44445 8.91017H0L2.22222 4.46387L4.44445 8.91017Z" fill="#E0E0E0"/>
<path d="M8.88908 0.0172119L2.22241 4.46358L4.44464 8.92089L8.88908 0.0172119Z" fill="#F2F2F2"/>
<path d="M31.1109 0.0172119L37.7776 4.46358L35.5554 8.92089L31.1109 0.0172119Z" fill="#F2F2F2"/>
<path d="M8.88903 0L4.44458 8.92094L20.0446 0H8.88903Z" fill="white"/>
<path d="M31.1107 0L35.5552 8.92094L19.9552 0H31.1107Z" fill="white"/>
<path d="M39.9996 8.91017H35.5552L37.7774 4.46387L39.9996 8.91017Z" fill="#E0E0E0"/>
<path d="M35.5557 8.91002H4.44458L20.0001 0.00292969L35.5557 8.91002Z" fill="#F0F0F0"/>
<path d="M35.5553 8.91016H39.9998L19.9997 40.0001L35.5553 8.91016Z" fill="#B4B4B4"/>
</svg>
