<svg width="50" height="44" viewBox="0 0 50 44" fill="none" xmlns="http://www.w3.org/2000/svg">
    <path d="M0 43.1818L25 0L50 43.1818H0ZM25 36.3636C25.6439 36.3636 26.1841 36.1455 26.6205 35.7091C27.0568 35.2727 27.2742 34.7333 27.2727 34.0909C27.2712 33.4485 27.053 32.9091 26.6182 32.4727C26.1833 32.0364 25.6439 31.8182 25 31.8182C24.3561 31.8182 23.8167 32.0364 23.3818 32.4727C22.947 32.9091 22.7288 33.4485 22.7273 34.0909C22.7258 34.7333 22.9439 35.2735 23.3818 35.7114C23.8197 36.1492 24.3591 36.3667 25 36.3636ZM22.7273 29.5455H27.2727V18.1818H22.7273V29.5455Z" fill="white"/>
</svg>
