<svg width="130" height="94" viewBox="0 0 130 94" fill="none" xmlns="http://www.w3.org/2000/svg">
<g filter="url(#filter0_d_3181_603)">
<g filter="url(#filter1_i_3181_603)">
<rect x="1.34766" y="1.56812" width="127.111" height="28.8889" rx="5" fill="#2C2C2C"/>
</g>
<rect y="30.457" width="130" height="28.8889" rx="5" fill="#1F1F1F"/>
<g filter="url(#filter2_i_3181_603)">
<rect x="1.34766" y="59.3459" width="127.111" height="28.8889" rx="5" fill="#2D2D2D"/>
</g>
<g filter="url(#filter3_i_3181_603)">
<rect x="36.2383" y="21.7903" width="57.7778" height="43.3333" rx="5" fill="#373737"/>
</g>
<rect x="38.2383" y="23.7903" width="53.7778" height="39.3333" rx="3" stroke="black" stroke-width="4"/>
<g filter="url(#filter4_i_3181_603)">
<rect x="48.8203" y="66.2173" width="32.3556" height="17.3333" rx="5" fill="#1F1F1F"/>
</g>
<rect x="50.3203" y="67.7173" width="29.3556" height="14.3333" rx="3.5" stroke="black" stroke-width="3"/>
<rect x="15.293" width="5.77778" height="89.5556" rx="2" fill="black"/>
<rect x="109.188" y="0.123535" width="5.77778" height="89.5556" rx="2" fill="black"/>
<path d="M43.4922 2C43.4922 0.895432 44.3876 0 45.4922 0H46.054C47.1586 0 48.054 0.895431 48.054 2V21.7903H43.4922V2Z" fill="#830101"/>
<path d="M50.0547 2C50.0547 0.895432 50.9501 0 52.0547 0H52.6165C53.7211 0 54.6165 0.895431 54.6165 2V21.7903H50.0547V2Z" fill="#5A189A"/>
</g>
<path d="M67.7253 40.3195V49.0595L65.4453 50.4395H61.2053V48.1595H65.2053V41.8795L61.2053 46.1195V42.6195L62.4253 41.2195H61.2853V38.9395H65.2053L67.7253 40.3195ZM56.3853 47.4995L60.3053 43.3395V46.7795L59.1653 48.1595H60.3053V50.4395H57.5253H56.1453L53.8653 49.0595V40.3195L56.3853 38.9395H60.3053V41.2195H56.3853V47.4995ZM76.1361 38.8995V50.4395L73.8561 50.4195V41.6395L69.7161 43.3595V40.7595L73.8561 38.8995H76.1361Z" fill="white"/>
<path d="M55.6559 75.2051C55.6676 75.2051 55.7203 75.2051 55.8141 75.2051H55.9723L56.148 75.3809V77.2793L55.9723 77.4609H55.6559L55.4742 77.2793V75.3809L55.6559 75.2051ZM55.9723 77.8184C55.9723 77.8066 55.9723 77.7539 55.9723 77.6602V77.502L56.148 77.3262H58.0465L58.2281 77.502V77.8184L58.0465 78H56.148L55.9723 77.8184ZM55.9723 72.498C55.9723 72.4824 55.9723 72.4297 55.9723 72.3398V72.1816L56.148 72H58.0465L58.2281 72.1816V72.498L58.0465 72.6738H56.148L55.9723 72.498ZM55.9723 75.1582C55.9723 75.1465 55.9723 75.0938 55.9723 75V74.8418L56.148 74.6602H58.0465L58.2281 74.8418V75.1582L58.0465 75.3398H56.148L55.9723 75.1582ZM55.6559 72.5391C55.6676 72.5391 55.7203 72.5391 55.8141 72.5391H55.9723L56.148 72.7207V74.6191L55.9723 74.7949H55.6559L55.4742 74.6191V72.7207L55.6559 72.5391ZM58.2281 75.2051C58.2398 75.2051 58.2926 75.2051 58.3863 75.2051H58.5445L58.7203 75.3809V77.2793L58.5445 77.4609H58.2281L58.0465 77.2793V75.3809L58.2281 75.2051ZM58.2281 72.5391C58.2398 72.5391 58.2926 72.5391 58.3863 72.5391H58.5445L58.7203 72.7207V74.6191L58.5445 74.7949H58.2281L58.0465 74.6191V72.7207L58.2281 72.5391ZM58.2281 72.498C58.2281 72.4824 58.2281 72.4297 58.2281 72.3398V72.1816L58.0465 72H56.148L55.9723 72.1816V72.498L56.148 72.6738H58.0465L58.2281 72.498ZM58.2281 75.1582C58.2281 75.1465 58.2281 75.0938 58.2281 75V74.8418L58.0465 74.6602H56.148L55.9723 74.8418V75.1582L56.148 75.3398H58.0465L58.2281 75.1582ZM58.2281 75.2051C58.2398 75.2051 58.2926 75.2051 58.3863 75.2051H58.5445L58.7203 75.3809V77.2793L58.5445 77.4609H58.2281L58.0465 77.2793V75.3809L58.2281 75.2051ZM55.9723 75.2051C55.9566 75.2051 55.9039 75.2051 55.8141 75.2051H55.6559L55.4742 75.3809V77.2793L55.6559 77.4609H55.9723L56.148 77.2793V75.3809L55.9723 75.2051ZM58.2281 72.5391C58.2398 72.5391 58.2926 72.5391 58.3863 72.5391H58.5445L58.7203 72.7207V74.6191L58.5445 74.7949H58.2281L58.0465 74.6191V72.7207L58.2281 72.5391ZM55.9723 72.5391C55.9566 72.5391 55.9039 72.5391 55.8141 72.5391H55.6559L55.4742 72.7207V74.6191L55.6559 74.7949H55.9723L56.148 74.6191V72.7207L55.9723 72.5391ZM58.2281 77.8184C58.2281 77.8066 58.2281 77.7539 58.2281 77.6602V77.502L58.0465 77.3262H56.148L55.9723 77.502V77.8184L56.148 78H58.0465L58.2281 77.8184ZM60.4559 75.2051C60.4676 75.2051 60.5203 75.2051 60.6141 75.2051H60.7723L60.948 75.3809V77.2793L60.7723 77.4609H60.4559L60.2742 77.2793V75.3809L60.4559 75.2051ZM60.7723 77.8184C60.7723 77.8066 60.7723 77.7539 60.7723 77.6602V77.502L60.948 77.3262H62.8465L63.0281 77.502V77.8184L62.8465 78H60.948L60.7723 77.8184ZM60.7723 72.498C60.7723 72.4824 60.7723 72.4297 60.7723 72.3398V72.1816L60.948 72H62.8465L63.0281 72.1816V72.498L62.8465 72.6738H60.948L60.7723 72.498ZM60.7723 75.1582C60.7723 75.1465 60.7723 75.0938 60.7723 75V74.8418L60.948 74.6602H62.8465L63.0281 74.8418V75.1582L62.8465 75.3398H60.948L60.7723 75.1582ZM60.4559 72.5391C60.4676 72.5391 60.5203 72.5391 60.6141 72.5391H60.7723L60.948 72.7207V74.6191L60.7723 74.7949H60.4559L60.2742 74.6191V72.7207L60.4559 72.5391ZM63.0281 75.2051C63.0398 75.2051 63.0926 75.2051 63.1863 75.2051H63.3445L63.5203 75.3809V77.2793L63.3445 77.4609H63.0281L62.8465 77.2793V75.3809L63.0281 75.2051ZM63.0281 72.5391C63.0398 72.5391 63.0926 72.5391 63.1863 72.5391H63.3445L63.5203 72.7207V74.6191L63.3445 74.7949H63.0281L62.8465 74.6191V72.7207L63.0281 72.5391ZM60.7723 72.498C60.7723 72.4824 60.7723 72.4297 60.7723 72.3398V72.1816L60.948 72H62.8465L63.0281 72.1816V72.498L62.8465 72.6738H60.948L60.7723 72.498ZM63.0281 75.1582C63.0281 75.1465 63.0281 75.0938 63.0281 75V74.8418L62.8465 74.6602H60.948L60.7723 74.8418V75.1582L60.948 75.3398H62.8465L63.0281 75.1582ZM63.0281 75.2051C63.0398 75.2051 63.0926 75.2051 63.1863 75.2051H63.3445L63.5203 75.3809V77.2793L63.3445 77.4609H63.0281L62.8465 77.2793V75.3809L63.0281 75.2051ZM60.4559 75.2051C60.4676 75.2051 60.5203 75.2051 60.6141 75.2051H60.7723L60.948 75.3809V77.2793L60.7723 77.4609H60.4559L60.2742 77.2793V75.3809L60.4559 75.2051ZM63.0281 72.5391C63.0398 72.5391 63.0926 72.5391 63.1863 72.5391H63.3445L63.5203 72.7207V74.6191L63.3445 74.7949H63.0281L62.8465 74.6191V72.7207L63.0281 72.5391ZM60.4559 72.5391C60.4676 72.5391 60.5203 72.5391 60.6141 72.5391H60.7723L60.948 72.7207V74.6191L60.7723 74.7949H60.4559L60.2742 74.6191V72.7207L60.4559 72.5391ZM60.7723 77.8184C60.7723 77.8066 60.7723 77.7539 60.7723 77.6602V77.502L60.948 77.3262H62.8465L63.0281 77.502V77.8184L62.8465 78H60.948L60.7723 77.8184ZM64.1293 77.676C64.1293 77.528 64.1653 77.424 64.2373 77.364C64.3093 77.304 64.3953 77.274 64.4953 77.274C64.5993 77.274 64.6873 77.304 64.7593 77.364C64.8353 77.424 64.8733 77.528 64.8733 77.676C64.8733 77.82 64.8353 77.924 64.7593 77.988C64.6873 78.052 64.5993 78.084 64.4953 78.084C64.3953 78.084 64.3093 78.052 64.2373 77.988C64.1653 77.924 64.1293 77.82 64.1293 77.676ZM64.1293 75.108C64.1293 74.956 64.1653 74.85 64.2373 74.79C64.3093 74.73 64.3953 74.7 64.4953 74.7C64.5993 74.7 64.6873 74.73 64.7593 74.79C64.8353 74.85 64.8733 74.956 64.8733 75.108C64.8733 75.252 64.8353 75.356 64.7593 75.42C64.6873 75.484 64.5993 75.516 64.4953 75.516C64.3953 75.516 64.3093 75.484 64.2373 75.42C64.1653 75.356 64.1293 75.252 64.1293 75.108ZM65.6613 75.2051C65.673 75.2051 65.7258 75.2051 65.8195 75.2051H65.9777L66.1535 75.3809V77.2793L65.9777 77.4609H65.6613L65.4797 77.2793V75.3809L65.6613 75.2051ZM65.9777 77.8184C65.9777 77.8066 65.9777 77.7539 65.9777 77.6602V77.502L66.1535 77.3262H68.052L68.2336 77.502V77.8184L68.052 78H66.1535L65.9777 77.8184ZM65.9777 72.498C65.9777 72.4824 65.9777 72.4297 65.9777 72.3398V72.1816L66.1535 72H68.052L68.2336 72.1816V72.498L68.052 72.6738H66.1535L65.9777 72.498ZM65.9777 75.1582C65.9777 75.1465 65.9777 75.0938 65.9777 75V74.8418L66.1535 74.6602H68.052L68.2336 74.8418V75.1582L68.052 75.3398H66.1535L65.9777 75.1582ZM65.6613 72.5391C65.673 72.5391 65.7258 72.5391 65.8195 72.5391H65.9777L66.1535 72.7207V74.6191L65.9777 74.7949H65.6613L65.4797 74.6191V72.7207L65.6613 72.5391ZM68.2336 75.2051C68.2453 75.2051 68.298 75.2051 68.3918 75.2051H68.55L68.7258 75.3809V77.2793L68.55 77.4609H68.2336L68.052 77.2793V75.3809L68.2336 75.2051ZM68.2336 72.5391C68.2453 72.5391 68.298 72.5391 68.3918 72.5391H68.55L68.7258 72.7207V74.6191L68.55 74.7949H68.2336L68.052 74.6191V72.7207L68.2336 72.5391ZM65.9777 72.498C65.9777 72.4824 65.9777 72.4297 65.9777 72.3398V72.1816L66.1535 72H68.052L68.2336 72.1816V72.498L68.052 72.6738H66.1535L65.9777 72.498ZM68.2336 75.1582C68.2336 75.1465 68.2336 75.0938 68.2336 75V74.8418L68.052 74.6602H66.1535L65.9777 74.8418V75.1582L66.1535 75.3398H68.052L68.2336 75.1582ZM68.2336 75.2051C68.2453 75.2051 68.298 75.2051 68.3918 75.2051H68.55L68.7258 75.3809V77.2793L68.55 77.4609H68.2336L68.052 77.2793V75.3809L68.2336 75.2051ZM65.6613 75.2051C65.673 75.2051 65.7258 75.2051 65.8195 75.2051H65.9777L66.1535 75.3809V77.2793L65.9777 77.4609H65.6613L65.4797 77.2793V75.3809L65.6613 75.2051ZM68.2336 72.5391C68.2453 72.5391 68.298 72.5391 68.3918 72.5391H68.55L68.7258 72.7207V74.6191L68.55 74.7949H68.2336L68.052 74.6191V72.7207L68.2336 72.5391ZM65.6613 72.5391C65.673 72.5391 65.7258 72.5391 65.8195 72.5391H65.9777L66.1535 72.7207V74.6191L65.9777 74.7949H65.6613L65.4797 74.6191V72.7207L65.6613 72.5391ZM65.9777 77.8184C65.9777 77.8066 65.9777 77.7539 65.9777 77.6602V77.502L66.1535 77.3262H68.052L68.2336 77.502V77.8184L68.052 78H66.1535L65.9777 77.8184ZM70.4613 75.2051C70.473 75.2051 70.5258 75.2051 70.6195 75.2051H70.7777L70.9535 75.3809V77.2793L70.7777 77.4609H70.4613L70.2797 77.2793V75.3809L70.4613 75.2051ZM70.7777 77.8184C70.7777 77.8066 70.7777 77.7539 70.7777 77.6602V77.502L70.9535 77.3262H72.852L73.0336 77.502V77.8184L72.852 78H70.9535L70.7777 77.8184ZM70.7777 72.498C70.7777 72.4824 70.7777 72.4297 70.7777 72.3398V72.1816L70.9535 72H72.852L73.0336 72.1816V72.498L72.852 72.6738H70.9535L70.7777 72.498ZM70.7777 75.1582C70.7777 75.1465 70.7777 75.0938 70.7777 75V74.8418L70.9535 74.6602H72.852L73.0336 74.8418V75.1582L72.852 75.3398H70.9535L70.7777 75.1582ZM70.4613 72.5391C70.473 72.5391 70.5258 72.5391 70.6195 72.5391H70.7777L70.9535 72.7207V74.6191L70.7777 74.7949H70.4613L70.2797 74.6191V72.7207L70.4613 72.5391ZM73.0336 75.2051C73.0453 75.2051 73.098 75.2051 73.1918 75.2051H73.35L73.5258 75.3809V77.2793L73.35 77.4609H73.0336L72.852 77.2793V75.3809L73.0336 75.2051ZM73.0336 72.5391C73.0453 72.5391 73.098 72.5391 73.1918 72.5391H73.35L73.5258 72.7207V74.6191L73.35 74.7949H73.0336L72.852 74.6191V72.7207L73.0336 72.5391ZM70.7777 72.498C70.7777 72.4824 70.7777 72.4297 70.7777 72.3398V72.1816L70.9535 72H72.852L73.0336 72.1816V72.498L72.852 72.6738H70.9535L70.7777 72.498ZM73.0336 75.1582C73.0336 75.1465 73.0336 75.0938 73.0336 75V74.8418L72.852 74.6602H70.9535L70.7777 74.8418V75.1582L70.9535 75.3398H72.852L73.0336 75.1582ZM73.0336 75.2051C73.0453 75.2051 73.098 75.2051 73.1918 75.2051H73.35L73.5258 75.3809V77.2793L73.35 77.4609H73.0336L72.852 77.2793V75.3809L73.0336 75.2051ZM70.4613 75.2051C70.473 75.2051 70.5258 75.2051 70.6195 75.2051H70.7777L70.9535 75.3809V77.2793L70.7777 77.4609H70.4613L70.2797 77.2793V75.3809L70.4613 75.2051ZM73.0336 72.5391C73.0453 72.5391 73.098 72.5391 73.1918 72.5391H73.35L73.5258 72.7207V74.6191L73.35 74.7949H73.0336L72.852 74.6191V72.7207L73.0336 72.5391ZM70.4613 72.5391C70.473 72.5391 70.5258 72.5391 70.6195 72.5391H70.7777L70.9535 72.7207V74.6191L70.7777 74.7949H70.4613L70.2797 74.6191V72.7207L70.4613 72.5391ZM70.7777 77.8184C70.7777 77.8066 70.7777 77.7539 70.7777 77.6602V77.502L70.9535 77.3262H72.852L73.0336 77.502V77.8184L72.852 78H70.9535L70.7777 77.8184Z" fill="#FF0505"/>
<defs>
<filter id="filter0_d_3181_603" x="0" y="0" width="130" height="93.6791" filterUnits="userSpaceOnUse" color-interpolation-filters="sRGB">
<feFlood flood-opacity="0" result="BackgroundImageFix"/>
<feColorMatrix in="SourceAlpha" type="matrix" values="0 0 0 0 0 0 0 0 0 0 0 0 0 0 0 0 0 0 127 0" result="hardAlpha"/>
<feOffset dy="4"/>
<feComposite in2="hardAlpha" operator="out"/>
<feColorMatrix type="matrix" values="0 0 0 0 0 0 0 0 0 0 0 0 0 0 0 0 0 0 0.25 0"/>
<feBlend mode="normal" in2="BackgroundImageFix" result="effect1_dropShadow_3181_603"/>
<feBlend mode="normal" in="SourceGraphic" in2="effect1_dropShadow_3181_603" result="shape"/>
</filter>
<filter id="filter1_i_3181_603" x="1.34766" y="1.56812" width="127.109" height="28.8889" filterUnits="userSpaceOnUse" color-interpolation-filters="sRGB">
<feFlood flood-opacity="0" result="BackgroundImageFix"/>
<feBlend mode="normal" in="SourceGraphic" in2="BackgroundImageFix" result="shape"/>
<feColorMatrix in="SourceAlpha" type="matrix" values="0 0 0 0 0 0 0 0 0 0 0 0 0 0 0 0 0 0 127 0" result="hardAlpha"/>
<feOffset dx="4" dy="4"/>
<feComposite in2="hardAlpha" operator="arithmetic" k2="-1" k3="1"/>
<feColorMatrix type="matrix" values="0 0 0 0 1 0 0 0 0 1 0 0 0 0 1 0 0 0 0.05 0"/>
<feBlend mode="normal" in2="shape" result="effect1_innerShadow_3181_603"/>
</filter>
<filter id="filter2_i_3181_603" x="1.34766" y="59.3459" width="127.109" height="28.8889" filterUnits="userSpaceOnUse" color-interpolation-filters="sRGB">
<feFlood flood-opacity="0" result="BackgroundImageFix"/>
<feBlend mode="normal" in="SourceGraphic" in2="BackgroundImageFix" result="shape"/>
<feColorMatrix in="SourceAlpha" type="matrix" values="0 0 0 0 0 0 0 0 0 0 0 0 0 0 0 0 0 0 127 0" result="hardAlpha"/>
<feOffset dx="-4" dy="-4"/>
<feComposite in2="hardAlpha" operator="arithmetic" k2="-1" k3="1"/>
<feColorMatrix type="matrix" values="0 0 0 0 1 0 0 0 0 1 0 0 0 0 1 0 0 0 0.05 0"/>
<feBlend mode="normal" in2="shape" result="effect1_innerShadow_3181_603"/>
</filter>
<filter id="filter3_i_3181_603" x="36.2383" y="21.7903" width="57.7773" height="43.3333" filterUnits="userSpaceOnUse" color-interpolation-filters="sRGB">
<feFlood flood-opacity="0" result="BackgroundImageFix"/>
<feBlend mode="normal" in="SourceGraphic" in2="BackgroundImageFix" result="shape"/>
<feColorMatrix in="SourceAlpha" type="matrix" values="0 0 0 0 0 0 0 0 0 0 0 0 0 0 0 0 0 0 127 0" result="hardAlpha"/>
<feOffset dx="2" dy="4"/>
<feComposite in2="hardAlpha" operator="arithmetic" k2="-1" k3="1"/>
<feColorMatrix type="matrix" values="0 0 0 0 0 0 0 0 0 0 0 0 0 0 0 0 0 0 0.25 0"/>
<feBlend mode="normal" in2="shape" result="effect1_innerShadow_3181_603"/>
</filter>
<filter id="filter4_i_3181_603" x="48.8203" y="66.2173" width="32.3555" height="17.3334" filterUnits="userSpaceOnUse" color-interpolation-filters="sRGB">
<feFlood flood-opacity="0" result="BackgroundImageFix"/>
<feBlend mode="normal" in="SourceGraphic" in2="BackgroundImageFix" result="shape"/>
<feColorMatrix in="SourceAlpha" type="matrix" values="0 0 0 0 0 0 0 0 0 0 0 0 0 0 0 0 0 0 127 0" result="hardAlpha"/>
<feOffset dx="2" dy="4"/>
<feComposite in2="hardAlpha" operator="arithmetic" k2="-1" k3="1"/>
<feColorMatrix type="matrix" values="0 0 0 0 0 0 0 0 0 0 0 0 0 0 0 0 0 0 0.25 0"/>
<feBlend mode="normal" in2="shape" result="effect1_innerShadow_3181_603"/>
</filter>
</defs>
</svg>
