<svg width="63" height="88" viewBox="0 0 63 88" fill="none" xmlns="http://www.w3.org/2000/svg">
<g filter="url(#filter0_d_3286_55)">
<path d="M60.6788 1.08655H2.252C1.56054 1.08655 1 1.64498 1 2.33384V81.3288C1 82.0177 1.56054 82.5761 2.252 82.5761H60.6788C61.3703 82.5761 61.9308 82.0177 61.9308 81.3288V2.33384C61.9308 1.64498 61.3703 1.08655 60.6788 1.08655Z" fill="#9D1133" stroke="black" stroke-width="2"/>
<path fill-rule="evenodd" clip-rule="evenodd" d="M16.6999 6.44815L14.1389 3.16541L10.8438 5.71678L13.4048 8.99956L16.6999 6.44815ZM15.7239 6.32625L14.0165 4.13776L11.8197 5.83868L13.5271 8.02717L15.7239 6.32625Z" fill="white" fill-opacity="0.05"/>
<path fill-rule="evenodd" clip-rule="evenodd" d="M24.8221 7.17787L26.143 3.23399L22.1841 1.91809L20.8633 5.86198L24.8221 7.17787ZM24.3824 6.30123L25.263 3.67199L22.6238 2.79472L21.7432 5.42397L24.3824 6.30123Z" fill="white" fill-opacity="0.05"/>
<path fill-rule="evenodd" clip-rule="evenodd" d="M8.30957 16.5648L10.857 13.2717L7.55132 10.7338L5.00391 14.027L8.30957 16.5648ZM8.18316 15.593L9.8815 13.3976L7.67768 11.7057L5.97943 13.9011L8.18316 15.593Z" fill="white" fill-opacity="0.05"/>
<path fill-rule="evenodd" clip-rule="evenodd" d="M7.78724 7.31072L6.99368 3.22894L2.89648 4.01948L3.69002 8.10129L7.78724 7.31072ZM6.9721 6.7622L6.44309 4.04099L3.71161 4.56801L4.24063 7.28922L6.9721 6.7622Z" fill="white" fill-opacity="0.05"/>
<path fill-rule="evenodd" clip-rule="evenodd" d="M19.1064 17.2574L18.4003 13.1597L14.2871 13.8632L14.9932 17.9609L19.1064 17.2574ZM18.3032 16.6917L17.8325 13.9599L15.0903 14.4289L15.5611 17.1607L18.3032 16.6917Z" fill="white" fill-opacity="0.05"/>
<path fill-rule="evenodd" clip-rule="evenodd" d="M36.8662 8.26088L36.16 4.16321L32.0469 4.86667L32.753 8.96435L36.8662 8.26088ZM36.063 7.69519L35.5922 4.96342L32.8501 5.43236L33.3208 8.16417L36.063 7.69519Z" fill="white" fill-opacity="0.05"/>
<path fill-rule="evenodd" clip-rule="evenodd" d="M13.2005 37.4438L14.4565 33.4789L10.4768 32.2276L9.2207 36.1924L13.2005 37.4438ZM12.7466 36.5744L13.584 33.9311L10.9307 33.097L10.0934 35.7401L12.7466 36.5744Z" fill="white" fill-opacity="0.05"/>
<path fill-rule="evenodd" clip-rule="evenodd" d="M10.4217 28.4548L14.5279 27.7117L13.782 23.621L9.67578 24.3642L10.4217 28.4548ZM10.9818 27.6492L13.7192 27.1537L13.2219 24.4267L10.4845 24.9221L10.9818 27.6492Z" fill="white" fill-opacity="0.05"/>
<path fill-rule="evenodd" clip-rule="evenodd" d="M2.25 25.7613L6.40173 26.1838L6.82582 22.0477L2.6741 21.6252L2.25 25.7613ZM3.01264 25.1424L5.78048 25.4241L6.06319 22.6666L3.29536 22.385L3.01264 25.1424Z" fill="white" fill-opacity="0.05"/>
<path fill-rule="evenodd" clip-rule="evenodd" d="M3.25064 38.9651L7.30225 37.9683L6.30161 33.9319L2.25 34.9288L3.25064 38.9651ZM3.75913 38.1263L6.4602 37.4616L5.79313 34.7707L3.09204 35.4354L3.75913 38.1263Z" fill="white" fill-opacity="0.05"/>
<path fill-rule="evenodd" clip-rule="evenodd" d="M27.1154 22.9269L30.1824 20.1073L27.3521 17.0518L24.2852 19.8714L27.1154 22.9269ZM27.1549 21.9477L29.1995 20.0679L27.3127 18.031L25.2681 19.9108L27.1549 21.9477Z" fill="white" fill-opacity="0.05"/>
<path fill-rule="evenodd" clip-rule="evenodd" d="M22.8633 13.6211L27.0149 14.0445L27.4399 9.90844L23.2882 9.48511L22.8633 13.6211ZM23.6261 13.0024L26.3938 13.2846L26.6771 10.5273L23.9094 10.245L23.6261 13.0024Z" fill="white" fill-opacity="0.05"/>
<path fill-rule="evenodd" clip-rule="evenodd" d="M35.6557 20.6955L39.2077 18.5129L37.0169 14.9742L33.4648 17.1568L35.6557 20.6955ZM35.8825 19.742L38.2506 18.2869L36.79 15.9278L34.422 17.3828L35.8825 19.742Z" fill="white" fill-opacity="0.05"/>
<path fill-rule="evenodd" clip-rule="evenodd" d="M23.0103 30.0211L23.2806 25.8722L19.116 25.603L18.8457 29.7519L23.0103 30.0211ZM22.3612 29.2847L22.5414 26.5188L19.765 26.3393L19.5848 29.1053L22.3612 29.2847Z" fill="white" fill-opacity="0.05"/>
<path fill-rule="evenodd" clip-rule="evenodd" d="M33.4913 27.6141L30.882 24.3693L27.625 26.9688L30.2343 30.2135L33.4913 27.6141ZM32.5137 27.5066L30.7741 25.3434L28.6027 27.0764L30.3423 29.2396L32.5137 27.5066Z" fill="white" fill-opacity="0.05"/>
<path fill-rule="evenodd" clip-rule="evenodd" d="M41.1613 31.7014L40.4074 27.6122L36.3027 28.3633L37.0566 32.4525L41.1613 31.7014ZM40.3515 31.1451L39.849 28.4189L37.1125 28.9196L37.6151 31.6458L40.3515 31.1451Z" fill="white" fill-opacity="0.05"/>
<path fill-rule="evenodd" clip-rule="evenodd" d="M37.9966 40.2674L39.574 36.4181L35.7103 34.8467L34.1328 38.6959L37.9966 40.2674ZM37.6155 39.3639L38.6672 36.7977L36.0913 35.7501L35.0397 38.3162L37.6155 39.3639Z" fill="white" fill-opacity="0.05"/>
<path fill-rule="evenodd" clip-rule="evenodd" d="M27.4041 37.6818L26.0457 33.7505L22.0996 35.1039L23.458 39.0351L27.4041 37.6818ZM26.52 37.2521L25.6144 34.6313L22.9837 35.5335L23.8893 38.1543L26.52 37.2521Z" fill="white" fill-opacity="0.05"/>
<path fill-rule="evenodd" clip-rule="evenodd" d="M17.1159 44.6985L14.5549 41.4156L11.2598 43.9672L13.8208 47.2496L17.1159 44.6985ZM16.1399 44.5763L14.4325 42.3881L12.2357 44.089L13.9431 46.2776L16.1399 44.5763Z" fill="white" fill-opacity="0.05"/>
<path fill-rule="evenodd" clip-rule="evenodd" d="M25.2401 45.4282L26.5609 41.4842L22.6021 40.1683L21.2812 44.1123L25.2401 45.4282ZM24.8004 44.5513L25.681 41.922L23.0418 41.045L22.1612 43.6741L24.8004 44.5513Z" fill="white" fill-opacity="0.05"/>
<path fill-rule="evenodd" clip-rule="evenodd" d="M8.72559 54.8153L11.273 51.5221L7.96733 48.9843L5.41992 52.2775L8.72559 54.8153ZM8.59918 53.8433L10.2975 51.648L8.0937 49.9559L6.39544 52.1515L8.59918 53.8433Z" fill="white" fill-opacity="0.05"/>
<path fill-rule="evenodd" clip-rule="evenodd" d="M8.20716 45.5612L7.4136 41.4792L3.31641 42.2696L4.10994 46.3515L8.20716 45.5612ZM7.39202 45.0123L6.86301 42.2912L4.13153 42.8184L4.66057 45.5395L7.39202 45.0123Z" fill="white" fill-opacity="0.05"/>
<path fill-rule="evenodd" clip-rule="evenodd" d="M19.5224 55.5075L18.8163 51.4102L14.7031 52.1136L15.4093 56.211L19.5224 55.5075ZM18.7192 54.9421L18.2485 52.2101L15.5063 52.6791L15.9771 55.411L18.7192 54.9421Z" fill="white" fill-opacity="0.05"/>
<path fill-rule="evenodd" clip-rule="evenodd" d="M37.2802 46.5112L36.5741 42.4134L32.4609 43.1169L33.1671 47.2146L37.2802 46.5112ZM36.477 45.9453L36.0063 43.2137L33.2641 43.6827L33.7349 46.4143L36.477 45.9453Z" fill="white" fill-opacity="0.05"/>
<path fill-rule="evenodd" clip-rule="evenodd" d="M13.6165 75.694L14.8726 71.7293L10.8928 70.4778L9.63672 74.4426L13.6165 75.694ZM13.1626 74.8246L14 72.1812L11.3467 71.3472L10.5094 73.9902L13.1626 74.8246Z" fill="white" fill-opacity="0.05"/>
<path fill-rule="evenodd" clip-rule="evenodd" d="M10.8397 66.7049L14.9458 65.9619L14.1999 61.8712L10.0938 62.6142L10.8397 66.7049ZM11.3998 65.8996L14.1371 65.404L13.6398 62.677L10.9025 63.1721L11.3998 65.8996Z" fill="white" fill-opacity="0.05"/>
<path fill-rule="evenodd" clip-rule="evenodd" d="M2.66602 64.0115L6.81774 64.4339L7.24184 60.2979L3.09011 59.8755L2.66602 64.0115ZM3.42865 63.3928L6.1965 63.6743L6.4792 60.917L3.71138 60.6351L3.42865 63.3928Z" fill="white" fill-opacity="0.05"/>
<path fill-rule="evenodd" clip-rule="evenodd" d="M3.66666 77.2153L7.71827 76.2183L6.71762 72.1821L2.66602 73.1791L3.66666 77.2153ZM4.17515 76.3763L6.87621 75.7119L6.20914 73.0211L3.50805 73.6855L4.17515 76.3763Z" fill="white" fill-opacity="0.05"/>
<path fill-rule="evenodd" clip-rule="evenodd" d="M27.5315 61.1772L30.5984 58.3575L27.7682 55.3021L24.7012 58.1218L27.5315 61.1772ZM27.5709 60.1981L29.6155 58.318L27.7287 56.2812L25.6841 58.1609L27.5709 60.1981Z" fill="white" fill-opacity="0.05"/>
<path fill-rule="evenodd" clip-rule="evenodd" d="M23.2832 51.8713L27.4348 52.2946L27.8599 48.1585L23.7081 47.7353L23.2832 51.8713ZM24.046 51.2527L26.8138 51.535L27.0971 48.7776L24.3293 48.4953L24.046 51.2527Z" fill="white" fill-opacity="0.05"/>
<path fill-rule="evenodd" clip-rule="evenodd" d="M36.0737 58.9458L39.6257 56.763L37.4348 53.2245L33.8828 55.4068L36.0737 58.9458ZM36.3005 57.992L38.6686 56.5369L37.208 54.1778L34.8399 55.633L36.3005 57.992Z" fill="white" fill-opacity="0.05"/>
<path fill-rule="evenodd" clip-rule="evenodd" d="M23.4263 68.2713L23.6966 64.1224L19.532 63.853L19.2617 68.0019L23.4263 68.2713ZM22.7773 67.535L22.9574 64.769L20.181 64.5893L20.0008 67.3554L22.7773 67.535Z" fill="white" fill-opacity="0.05"/>
<path fill-rule="evenodd" clip-rule="evenodd" d="M33.9073 65.8642L31.2981 62.6196L28.041 65.2189L30.6503 68.464L33.9073 65.8642ZM32.9297 65.7569L31.1901 63.5937L29.0187 65.3266L30.7583 67.4898L32.9297 65.7569Z" fill="white" fill-opacity="0.05"/>
<path fill-rule="evenodd" clip-rule="evenodd" d="M41.5774 69.9515L40.8234 65.8624L36.7188 66.6133L37.4726 70.7027L41.5774 69.9515ZM40.7676 69.3952L40.265 66.669L37.5285 67.17L38.0311 69.8962L40.7676 69.3952Z" fill="white" fill-opacity="0.05"/>
<path fill-rule="evenodd" clip-rule="evenodd" d="M38.4126 78.5175L39.99 74.6684L36.1263 73.0968L34.5488 76.9459L38.4126 78.5175ZM38.0315 77.6141L39.0832 75.048L36.5073 74.0003L35.4557 76.5663L38.0315 77.6141Z" fill="white" fill-opacity="0.05"/>
<path fill-rule="evenodd" clip-rule="evenodd" d="M27.8201 75.9318L26.4617 72.0008L22.5156 73.3541L23.874 77.2851L27.8201 75.9318ZM26.936 75.5024L26.0304 72.8814L23.3997 73.7836L24.3053 76.4046L26.936 75.5024Z" fill="white" fill-opacity="0.05"/>
<path fill-rule="evenodd" clip-rule="evenodd" d="M55.9283 6.86386L53.3671 3.58112L50.0723 6.13249L52.633 9.41527L55.9283 6.86386ZM54.9522 6.74196L53.2448 4.55346L51.048 6.25439L52.7553 8.44288L54.9522 6.74196Z" fill="white" fill-opacity="0.05"/>
<path fill-rule="evenodd" clip-rule="evenodd" d="M47.5401 16.9806L50.0875 13.6874L46.7818 11.1495L44.2344 14.4428L47.5401 16.9806ZM47.4136 16.0088L49.1118 13.8133L46.9082 12.1214L45.2097 14.3169L47.4136 16.0088Z" fill="white" fill-opacity="0.05"/>
<path fill-rule="evenodd" clip-rule="evenodd" d="M47.0177 7.72649L46.2243 3.64471L42.127 4.43527L42.9203 8.51706L47.0177 7.72649ZM46.2026 7.17797L45.6735 4.45676L42.942 4.98378L43.4712 7.705L46.2026 7.17797Z" fill="white" fill-opacity="0.05"/>
<path fill-rule="evenodd" clip-rule="evenodd" d="M58.3307 17.6732L57.6246 13.5755L53.5117 14.279L54.2179 18.3767L58.3307 17.6732ZM57.5277 17.1075L57.057 14.3757L54.3147 14.8447L54.7854 17.5765L57.5277 17.1075Z" fill="white" fill-opacity="0.05"/>
<path fill-rule="evenodd" clip-rule="evenodd" d="M52.427 37.8595L53.6831 33.8947L49.7034 32.6434L48.4473 36.6082L52.427 37.8595ZM51.9729 36.9902L52.8105 34.3469L50.1571 33.5127L49.3199 36.1559L51.9729 36.9902Z" fill="white" fill-opacity="0.05"/>
<path fill-rule="evenodd" clip-rule="evenodd" d="M49.654 28.8706L53.7601 28.1275L53.0144 24.0368L48.9082 24.7799L49.654 28.8706ZM50.214 28.0649L52.9518 27.5695L52.4543 24.8425L49.717 25.3379L50.214 28.0649Z" fill="white" fill-opacity="0.05"/>
<path fill-rule="evenodd" clip-rule="evenodd" d="M41.4785 26.1771L45.6302 26.5996L46.0542 22.4635L41.9025 22.041L41.4785 26.1771ZM42.241 25.5582L45.0092 25.8398L45.2917 23.0824L42.5239 22.8008L42.241 25.5582Z" fill="white" fill-opacity="0.05"/>
<path fill-rule="evenodd" clip-rule="evenodd" d="M42.4793 39.3808L46.5308 38.384L45.53 34.3476L41.4785 35.3445L42.4793 39.3808ZM42.9876 38.542L45.6886 37.8773L45.0217 35.1864L42.3207 35.8511L42.9876 38.542Z" fill="white" fill-opacity="0.05"/>
<path fill-rule="evenodd" clip-rule="evenodd" d="M58.4322 46.7773L55.871 43.4944L52.5762 46.0459L55.1369 49.3284L58.4322 46.7773ZM57.4561 46.655L55.7487 44.4669L53.5519 46.1677L55.2592 48.3563L57.4561 46.655Z" fill="white" fill-opacity="0.05"/>
<path fill-rule="evenodd" clip-rule="evenodd" d="M50.044 56.8941L52.5914 53.6008L49.2857 51.063L46.7383 54.3562L50.044 56.8941ZM49.9175 55.922L51.6157 53.7268L49.4121 52.0346L47.7136 54.2303L49.9175 55.922Z" fill="white" fill-opacity="0.05"/>
<path fill-rule="evenodd" clip-rule="evenodd" d="M49.5216 47.6399L48.7283 43.558L44.6309 44.3483L45.4242 48.4303L49.5216 47.6399ZM48.7065 47.0911L48.1774 44.37L45.4459 44.8972L45.9751 47.6183L48.7065 47.0911Z" fill="white" fill-opacity="0.05"/>
<path fill-rule="evenodd" clip-rule="evenodd" d="M60.8365 57.5864L60.1304 53.489L56.0176 54.1925L56.7237 58.2898L60.8365 57.5864ZM60.0336 57.0209L59.5628 54.2889L56.8205 54.7579L57.2913 57.4899L60.0336 57.0209Z" fill="white" fill-opacity="0.05"/>
<path fill-rule="evenodd" clip-rule="evenodd" d="M54.9328 77.7728L56.189 73.8081L52.2093 72.5566L50.9531 76.5214L54.9328 77.7728ZM54.4788 76.9034L55.3164 74.26L52.6629 73.426L51.8258 76.069L54.4788 76.9034Z" fill="white" fill-opacity="0.05"/>
<path fill-rule="evenodd" clip-rule="evenodd" d="M52.1579 68.7837L56.264 68.0408L55.5183 63.9501L51.4121 64.693L52.1579 68.7837ZM52.7179 67.9784L55.4557 67.4828L54.9582 64.7558L52.2209 65.251L52.7179 67.9784Z" fill="white" fill-opacity="0.05"/>
<path fill-rule="evenodd" clip-rule="evenodd" d="M43.9824 66.0903L48.1341 66.5127L48.5581 62.3767L44.4064 61.9543L43.9824 66.0903ZM44.7449 65.4716L47.5131 65.7531L47.7956 62.9958L45.0278 62.7139L44.7449 65.4716Z" fill="white" fill-opacity="0.05"/>
<path fill-rule="evenodd" clip-rule="evenodd" d="M44.9832 79.2942L49.0347 78.2972L48.0339 74.2609L43.9824 75.2579L44.9832 79.2942ZM45.4915 78.4551L48.1925 77.7908L47.5256 75.0999L44.8246 75.7643L45.4915 78.4551Z" fill="white" fill-opacity="0.05"/>
<g filter="url(#filter1_d_3286_55)">
<path d="M31.6696 57.4224C40.3129 57.4224 47.3196 50.442 47.3196 41.8313C47.3196 33.2206 40.3129 26.2402 31.6696 26.2402C23.0263 26.2402 16.0195 33.2206 16.0195 41.8313C16.0195 50.442 23.0263 57.4224 31.6696 57.4224Z" fill="black"/>
<path d="M32.089 21.0432H31.0457C29.8932 21.0432 28.959 21.9739 28.959 23.122V25.2008C28.959 26.3489 29.8932 27.2796 31.0457 27.2796H32.089C33.2414 27.2796 34.1757 26.3489 34.1757 25.2008V23.122C34.1757 21.9739 33.2414 21.0432 32.089 21.0432Z" fill="black"/>
<path d="M11.0137 41.4155V42.4549C11.0137 43.603 11.9479 44.5338 13.1003 44.5338H15.187C16.3395 44.5338 17.2737 43.603 17.2737 42.4549V41.4155C17.2737 40.2674 16.3395 39.3367 15.187 39.3367H13.1003C11.9479 39.3367 11.0137 40.2674 11.0137 41.4155Z" fill="black"/>
<path d="M45.8594 41.4155V42.4549C45.8594 43.603 46.7936 44.5338 47.946 44.5338H50.0327C51.1852 44.5338 52.1194 43.603 52.1194 42.4549V41.4155C52.1194 40.2674 51.1852 39.3367 50.0327 39.3367H47.946C46.7936 39.3367 45.8594 40.2674 45.8594 41.4155Z" fill="black"/>
<path d="M17.1918 26.8786L16.454 27.6136C15.6391 28.4254 15.6391 29.7416 16.454 30.5534L17.9295 32.0234C18.7444 32.8352 20.0656 32.8352 20.8805 32.0234L21.6183 31.2884C22.4332 30.4766 22.4332 29.1604 21.6183 28.3485L20.1428 26.8786C19.3279 26.0668 18.0067 26.0668 17.1918 26.8786Z" fill="black"/>
<path d="M20.7836 51.5199L20.0458 50.7849C19.2309 49.9731 17.9097 49.9731 17.0948 50.7849L15.6193 52.2549C14.8044 53.0667 14.8044 54.383 15.6193 55.1948L16.3571 55.9298C17.172 56.7416 18.4932 56.7416 19.3081 55.9298L20.7836 54.4598C21.5985 53.648 21.5985 52.3317 20.7836 51.5199Z" fill="black"/>
<path d="M47.0746 27.6135L46.3368 26.8786C45.5219 26.0667 44.2007 26.0667 43.3858 26.8786L41.9103 28.3485C41.0954 29.1603 41.0954 30.4766 41.9103 31.2884L42.6481 32.0234C43.463 32.8352 44.7842 32.8352 45.5991 32.0234L47.0746 30.5534C47.8895 29.7416 47.8895 28.4254 47.0746 27.6135Z" fill="black"/>
<path d="M42.6508 51.8244L41.913 52.5594C41.0981 53.3712 41.0981 54.6874 41.913 55.4992L43.3885 56.9692C44.2034 57.781 45.5246 57.781 46.3395 56.9692L47.0773 56.2342C47.8921 55.4224 47.8921 54.1062 47.0773 53.2943L45.6018 51.8244C44.7869 51.0126 43.4656 51.0126 42.6508 51.8244Z" fill="black"/>
<path d="M32.089 56.383H31.0457C29.8932 56.383 28.959 57.3137 28.959 58.4618V60.5406C28.959 61.6887 29.8932 62.6194 31.0457 62.6194H32.089C33.2414 62.6194 34.1757 61.6887 34.1757 60.5406V58.4618C34.1757 57.3137 33.2414 56.383 32.089 56.383Z" fill="black"/>
<path d="M21.0238 36.8599C20.9203 36.7777 20.8625 36.6524 20.883 36.5222C20.9805 35.9061 21.471 34.0194 23.9056 32.2897C26.2924 30.5941 28.2136 30.7073 28.869 30.815C29.0201 30.8399 29.1302 30.9597 29.1607 31.1092L29.3618 32.0928C29.4201 32.3783 29.1696 32.6609 28.879 32.6929C28.1908 32.7686 26.9459 33.0842 25.3076 34.2482C23.6211 35.4463 22.8014 36.5903 22.4369 37.2363C22.2941 37.4893 21.9364 37.5847 21.7086 37.4037L21.0238 36.8599Z" fill="white"/>
</g>
<g filter="url(#filter2_d_3286_55)">
<path d="M6.77924 5.86922V7.05789H3.08203V5.86922H6.77924ZM12.2164 4.53819H9.59479V5.69339C9.70684 5.57062 9.86368 5.47017 10.0653 5.39205C10.267 5.31393 10.4855 5.27484 10.7208 5.27484C11.1409 5.27484 11.4882 5.36972 11.7627 5.55948C12.0428 5.74923 12.2472 5.99478 12.3761 6.29612C12.5049 6.59747 12.5693 6.92397 12.5693 7.27554C12.5693 7.92849 12.3845 8.44749 12.0148 8.83257C11.6451 9.21204 11.1241 9.40179 10.4519 9.40179C10.0037 9.40179 9.6144 9.32646 9.28391 9.17578C8.95339 9.0195 8.69852 8.80467 8.51923 8.53118C8.33999 8.25774 8.24196 7.94242 8.22514 7.58528H9.62842C9.66202 7.75828 9.74323 7.90338 9.87206 8.02059C10.0009 8.13218 10.1774 8.18797 10.4015 8.18797C10.6647 8.18797 10.8608 8.10428 10.9896 7.93685C11.1185 7.76942 11.1829 7.5462 11.1829 7.26718C11.1829 6.99373 11.1157 6.78444 10.9813 6.63934C10.8468 6.49424 10.6507 6.42168 10.3931 6.42168C10.2026 6.42168 10.0458 6.46912 9.92252 6.564C9.79928 6.65331 9.71803 6.7733 9.6788 6.92397H8.29237V3.28254H12.2164V4.53819ZM13.3625 6.26266C13.3625 5.30274 13.5473 4.54655 13.9171 3.99408C14.2924 3.44159 14.8946 3.16534 15.7236 3.16534C16.5527 3.16534 17.1521 3.44159 17.5218 3.99408C17.8972 4.54655 18.0848 5.30274 18.0848 6.26266C18.0848 7.23367 17.8972 7.99543 17.5218 8.54794C17.1521 9.10045 16.5527 9.37668 15.7236 9.37668C14.8946 9.37668 14.2924 9.10045 13.9171 8.54794C13.5473 7.99543 13.3625 7.23367 13.3625 6.26266ZM16.6732 6.26266C16.6732 5.69901 16.6115 5.26649 16.4883 4.96514C16.365 4.65818 16.1102 4.50473 15.7236 4.50473C15.3371 4.50473 15.0822 4.65818 14.959 4.96514C14.8358 5.26649 14.7741 5.69901 14.7741 6.26266C14.7741 6.64212 14.7965 6.95744 14.8413 7.20856C14.8862 7.45411 14.9758 7.65505 15.1102 7.81129C15.2503 7.96196 15.4547 8.0373 15.7236 8.0373C15.9925 8.0373 16.1942 7.96196 16.3286 7.81129C16.4687 7.65505 16.5611 7.45411 16.6059 7.20856C16.6507 6.95744 16.6732 6.64212 16.6732 6.26266Z" fill="white"/>
</g>
<g filter="url(#filter3_d_3286_55)">
<path d="M56.54 77.3778V76.1892H60.2371V77.3778H56.54ZM51.1025 78.7087H53.7242V77.5533C53.6124 77.6764 53.4554 77.7765 53.2539 77.8547C53.0523 77.9329 52.8336 77.972 52.5982 77.972C52.1784 77.972 51.8308 77.8772 51.5566 77.6876C51.2765 77.4976 51.0721 77.2523 50.9431 76.9508C50.8141 76.6494 50.7499 76.323 50.7499 75.9713C50.7499 75.3186 50.9347 74.7993 51.3045 74.4143C51.6743 74.0347 52.1951 73.8451 52.8674 73.8451C53.3152 73.8451 53.7046 73.9203 54.0351 74.0713C54.3657 74.2272 54.6206 74.4421 54.8001 74.7157C54.9791 74.9893 55.0772 75.3044 55.0939 75.6616H53.6908C53.657 75.4886 53.5761 75.3435 53.4471 75.2263C53.3181 75.1148 53.1416 75.0587 52.9175 75.0587C52.6546 75.0587 52.4584 75.1427 52.3295 75.3098C52.2005 75.4774 52.1363 75.7006 52.1363 75.9796C52.1363 76.2532 52.2034 76.4623 52.3378 76.6074C52.4722 76.7525 52.6684 76.8253 52.9263 76.8253C53.1166 76.8253 53.2735 76.7779 53.3966 76.6831C53.5197 76.5937 53.6011 76.4736 53.6403 76.323H55.0267V79.9643H51.1025V78.7087ZM49.9565 76.9841C49.9565 77.9441 49.7716 78.7004 49.4023 79.2529C49.0267 79.8055 48.4245 80.0815 47.5957 80.0815C46.7664 80.0815 46.1671 79.8055 45.7974 79.2529C45.4222 78.7004 45.2344 77.9441 45.2344 76.9841C45.2344 76.0133 45.4222 75.2516 45.7974 74.6991C46.1671 74.1465 46.7664 73.87 47.5957 73.87C48.4245 73.87 49.0267 74.1465 49.4023 74.6991C49.7716 75.2516 49.9565 76.0133 49.9565 76.9841ZM46.6458 76.9841C46.6458 77.5479 46.7076 77.9803 46.8307 78.2817C46.9542 78.5885 47.2088 78.7424 47.5957 78.7424C47.9821 78.7424 48.2371 78.5885 48.3602 78.2817C48.4833 77.9803 48.5451 77.5479 48.5451 76.9841C48.5451 76.6049 48.5226 76.2894 48.4779 76.0382C48.4328 75.7929 48.3435 75.5917 48.2087 75.4358C48.0689 75.2849 47.8644 75.2096 47.5957 75.2096C47.3265 75.2096 47.1249 75.2849 46.9905 75.4358C46.8503 75.5917 46.7581 75.7929 46.7134 76.0382C46.6683 76.2894 46.6458 76.6049 46.6458 76.9841Z" fill="white"/>
</g>
</g>
<rect x="0.107422" width="62" height="83" rx="5" fill="black" fill-opacity="0.5"/>
<path d="M5.10742 18C5.10742 15.2386 7.346 13 10.1074 13H53.0032C55.7646 13 58.0032 15.2386 58.0032 18V18.8653C58.0032 21.6267 55.7646 23.8653 53.0032 23.8653H10.1074C7.346 23.8653 5.10742 21.6267 5.10742 18.8653V18Z" fill="#781930" fill-opacity="0.9"/>
<path d="M14.0727 16.035C14.0277 16.2596 13.9916 16.5291 13.9643 16.8436C13.9369 17.158 13.9233 17.4949 13.9233 17.8543C13.9233 17.9051 13.9233 17.9549 13.9233 18.0037C13.9252 18.0506 13.9272 18.0994 13.9291 18.1502C13.9311 18.201 13.932 18.2537 13.932 18.3084C13.934 18.3631 13.935 18.4217 13.935 18.4842C13.935 18.6151 13.9291 18.7547 13.9174 18.9031C13.9076 19.0516 13.8842 19.199 13.8471 19.3455C13.81 19.492 13.7572 19.6336 13.6889 19.7703C13.6205 19.9051 13.5287 20.0242 13.4135 20.1277C13.3002 20.2293 13.1596 20.3104 12.9916 20.3709C12.8236 20.4334 12.6225 20.4647 12.3881 20.4647C12.1674 20.4647 11.977 20.4393 11.8168 20.3885C11.6586 20.3397 11.5238 20.2723 11.4125 20.1863C11.3031 20.0984 11.2143 19.9959 11.1459 19.8787C11.0775 19.7615 11.0248 19.6356 10.9877 19.5008C10.9506 19.3641 10.9252 19.2225 10.9115 19.076C10.8998 18.9295 10.894 18.784 10.894 18.6395C10.894 18.575 10.894 18.5213 10.894 18.4783C10.8959 18.4334 10.8979 18.3934 10.8998 18.3582C10.9018 18.3211 10.9037 18.284 10.9057 18.2469C10.9076 18.2098 10.9096 18.1658 10.9115 18.1151C10.9135 18.0643 10.9145 18.0027 10.9145 17.9305C10.9164 17.8582 10.9174 17.7684 10.9174 17.6609C10.9174 17.5301 10.9145 17.3817 10.9086 17.2156C10.9047 17.0496 10.8949 16.8865 10.8793 16.7264C10.8637 16.5643 10.8412 16.4168 10.8119 16.284C10.7846 16.1492 10.7475 16.0486 10.7006 15.9822C10.8979 16.0174 11.0824 16.0408 11.2543 16.0526C11.4281 16.0643 11.5883 16.0701 11.7348 16.0701C11.8285 16.0701 11.9135 16.0682 11.9897 16.0643C12.0658 16.0604 12.1313 16.0565 12.1859 16.0526C12.2504 16.0467 12.3061 16.0408 12.3529 16.035C12.3275 16.1561 12.3022 16.2918 12.2768 16.4422C12.2514 16.5926 12.2289 16.7537 12.2094 16.9256C12.1899 17.0975 12.1733 17.2781 12.1596 17.4676C12.1479 17.657 12.142 17.8494 12.142 18.0447C12.142 18.2889 12.1459 18.4871 12.1537 18.6395C12.1635 18.7918 12.1781 18.9109 12.1977 18.9969C12.2172 19.0809 12.2426 19.1385 12.2738 19.1697C12.3051 19.201 12.3432 19.2166 12.3881 19.2166C12.4486 19.2166 12.4994 19.1981 12.5404 19.1609C12.5834 19.1219 12.6186 19.0574 12.6459 18.9676C12.6752 18.8758 12.6957 18.7557 12.7074 18.6072C12.7211 18.4588 12.7289 18.2733 12.7309 18.0506C12.727 17.7322 12.7172 17.4354 12.7016 17.16C12.6957 17.0428 12.6869 16.9246 12.6752 16.8055C12.6654 16.6863 12.6527 16.574 12.6371 16.4686C12.6234 16.3631 12.6068 16.2684 12.5873 16.1844C12.5678 16.0984 12.5453 16.0311 12.5199 15.9822C12.7152 16.0174 12.8959 16.0408 13.0619 16.0526C13.2279 16.0643 13.3774 16.0701 13.5102 16.0701C13.5981 16.0701 13.6762 16.0682 13.7445 16.0643C13.8149 16.0604 13.8744 16.0565 13.9233 16.0526C13.9799 16.0467 14.0297 16.0408 14.0727 16.035ZM15.6635 20.2479C15.6303 20.2459 15.5912 20.243 15.5463 20.2391C15.5072 20.2371 15.4604 20.2352 15.4057 20.2332C15.3529 20.2313 15.2924 20.2303 15.224 20.2303C15.0971 20.2303 14.9506 20.2361 14.7846 20.2479C14.6205 20.2576 14.4418 20.2772 14.2484 20.3065C14.2758 20.2518 14.3002 20.1766 14.3217 20.0809C14.3432 19.9832 14.3617 19.8738 14.3774 19.7527C14.393 19.6297 14.4057 19.4998 14.4154 19.3631C14.4272 19.2244 14.4359 19.0858 14.4418 18.9471C14.4496 18.8084 14.4545 18.6746 14.4565 18.5457C14.4604 18.4149 14.4633 18.2977 14.4652 18.1942C14.4672 18.0887 14.4682 17.9998 14.4682 17.9276C14.4682 17.8553 14.4682 17.8084 14.4682 17.7869C14.4643 17.4608 14.4555 17.158 14.4418 16.8787C14.4359 16.7615 14.4291 16.6434 14.4213 16.5242C14.4135 16.4051 14.4037 16.2938 14.392 16.1902C14.3803 16.0867 14.3666 15.9959 14.351 15.9178C14.3373 15.8397 14.3207 15.7811 14.3012 15.742C14.4594 15.7693 14.6059 15.7879 14.7406 15.7977C14.8754 15.8074 14.9965 15.8123 15.1039 15.8123C15.1742 15.8123 15.2377 15.8113 15.2943 15.8094C15.351 15.8055 15.3988 15.8016 15.4379 15.7977C15.4848 15.7938 15.5258 15.7889 15.5609 15.783C15.5434 15.8709 15.5268 15.9822 15.5111 16.117C15.4975 16.2518 15.4848 16.4031 15.4731 16.5711C15.4633 16.7391 15.4555 16.9197 15.4496 17.1131C15.4438 17.3065 15.4408 17.5057 15.4408 17.7108C15.4408 17.9451 15.4447 18.1815 15.4525 18.4197C15.4604 18.658 15.4731 18.8885 15.4906 19.1111C15.5082 19.3338 15.5307 19.5428 15.558 19.7381C15.5873 19.9315 15.6225 20.1014 15.6635 20.2479ZM18.2006 16.7029C18.185 16.7908 18.1733 16.8768 18.1654 16.9608C18.1596 17.0447 18.1567 17.1307 18.1567 17.2186C18.1567 17.3026 18.1596 17.3875 18.1654 17.4734C18.1733 17.5574 18.185 17.6424 18.2006 17.7283C18.1068 17.6795 18.0004 17.6434 17.8813 17.6199C17.7641 17.5965 17.644 17.5779 17.5209 17.5643V17.8162C17.5209 18.0369 17.5248 18.2606 17.5326 18.4871C17.5404 18.7117 17.5531 18.9305 17.5707 19.1434C17.5883 19.3543 17.6108 19.5545 17.6381 19.744C17.6674 19.9334 17.7025 20.1014 17.7436 20.2479C17.7104 20.2459 17.6713 20.243 17.6264 20.2391C17.5873 20.2371 17.5414 20.2352 17.4887 20.2332C17.4359 20.2313 17.3754 20.2303 17.307 20.2303C17.1801 20.2303 17.0336 20.2361 16.8676 20.2479C16.7016 20.2576 16.5219 20.2772 16.3285 20.3065C16.3949 19.9256 16.4418 19.5301 16.4692 19.1199C16.4984 18.7078 16.5131 18.3055 16.5131 17.9129V17.5643C16.3803 17.574 16.2484 17.5897 16.1176 17.6111C15.9887 17.6307 15.8666 17.6551 15.7514 17.6844C15.7592 17.6629 15.766 17.6346 15.7719 17.5994C15.7777 17.5643 15.7817 17.5281 15.7836 17.491C15.7875 17.4539 15.7895 17.4178 15.7895 17.3826C15.7914 17.3475 15.7924 17.3182 15.7924 17.2947C15.7924 17.1951 15.7885 17.0965 15.7807 16.9988C15.7729 16.9012 15.7631 16.8026 15.7514 16.7029C15.8451 16.742 15.9565 16.7742 16.0854 16.7996C16.2143 16.8231 16.3451 16.8406 16.4779 16.8524C16.4662 16.6824 16.4525 16.5252 16.4369 16.3807C16.4213 16.2361 16.4027 16.1053 16.3813 15.9881C16.5395 16.0154 16.6859 16.034 16.8207 16.0438C16.9555 16.0535 17.0775 16.0584 17.1869 16.0584C17.2572 16.0584 17.3197 16.0574 17.3744 16.0555C17.4311 16.0516 17.4789 16.0477 17.518 16.0438C17.5649 16.0399 17.6059 16.035 17.641 16.0291C17.6195 16.1229 17.601 16.2401 17.5854 16.3807C17.5717 16.5193 17.558 16.6746 17.5443 16.8465C17.6733 16.8328 17.7943 16.8143 17.9076 16.7908C18.0229 16.7674 18.1205 16.7381 18.2006 16.7029ZM19.9408 17.6024C19.8803 17.6024 19.8256 17.6199 19.7768 17.6551C19.7279 17.6883 19.684 17.7361 19.6449 17.7986C19.6078 17.8592 19.5746 17.9324 19.5453 18.0184C19.518 18.1043 19.4955 18.199 19.4779 18.3026C19.4779 18.4686 19.4818 18.6365 19.4897 18.8065C19.4975 18.9764 19.5102 19.1443 19.5277 19.3104C19.5453 19.4764 19.5678 19.6385 19.5951 19.7967C19.6244 19.9549 19.6596 20.1053 19.7006 20.2479C19.6693 20.2459 19.6332 20.243 19.5922 20.2391C19.557 20.2371 19.5141 20.2352 19.4633 20.2332C19.4145 20.2313 19.3578 20.2303 19.2934 20.2303C19.1723 20.2303 19.0317 20.2361 18.8715 20.2479C18.7133 20.2576 18.5375 20.2772 18.3442 20.3065C18.3676 20.1971 18.3881 20.0633 18.4057 19.9051C18.4233 19.7469 18.4379 19.575 18.4496 19.3895C18.4613 19.2039 18.4701 19.0106 18.476 18.8094C18.4838 18.6063 18.4877 18.4061 18.4877 18.2088C18.4877 18.0623 18.4858 17.9188 18.4818 17.7781C18.4779 17.6375 18.4721 17.5047 18.4643 17.3797C18.4584 17.2547 18.4496 17.1395 18.4379 17.034C18.4262 16.9285 18.4125 16.8377 18.3969 16.7615C18.5551 16.7889 18.6986 16.8084 18.8275 16.8201C18.9584 16.8299 19.0756 16.8348 19.1791 16.8348C19.2455 16.8348 19.3041 16.8338 19.3549 16.8318C19.4057 16.8279 19.4496 16.824 19.4867 16.8201C19.5277 16.8143 19.5649 16.8084 19.5981 16.8026C19.5746 16.9002 19.557 17.0086 19.5453 17.1277C19.6469 17.0047 19.7572 16.9139 19.8764 16.8553C19.9975 16.7967 20.1108 16.7674 20.2162 16.7674C20.392 16.7674 20.5404 16.7996 20.6615 16.8641C20.7826 16.9266 20.8803 17.0096 20.9545 17.1131C21.0287 17.2147 21.0824 17.3309 21.1156 17.4617C21.1488 17.5926 21.1654 17.7254 21.1654 17.8602C21.1654 17.991 21.1469 18.119 21.1098 18.244C21.0727 18.369 21.019 18.4813 20.9486 18.5809C20.8783 18.6785 20.7914 18.7576 20.6879 18.8182C20.5844 18.8787 20.4672 18.909 20.3363 18.909C20.2211 18.909 20.1225 18.8895 20.0404 18.8504C19.9604 18.8113 19.894 18.7606 19.8412 18.6981C19.7885 18.6356 19.7494 18.5672 19.724 18.493C19.7006 18.4168 19.6889 18.3416 19.6889 18.2674C19.6889 18.1893 19.6996 18.1131 19.7211 18.0389C19.7445 17.9647 19.7777 17.8973 19.8207 17.8367C19.8344 17.8797 19.851 17.9129 19.8705 17.9363C19.892 17.9578 19.9135 17.9734 19.935 17.9832C19.9584 17.9949 19.9838 18.0018 20.0111 18.0037C20.0834 18.0037 20.1371 17.9871 20.1723 17.9539C20.2094 17.9207 20.2279 17.8817 20.2279 17.8367C20.2279 17.8152 20.224 17.7908 20.2162 17.7635C20.2084 17.7361 20.1938 17.7108 20.1723 17.6873C20.1527 17.6639 20.1244 17.6443 20.0873 17.6287C20.0502 17.6111 20.0014 17.6024 19.9408 17.6024ZM24.3383 20.3006C24.3012 20.2967 24.2582 20.2928 24.2094 20.2889C24.1684 20.285 24.1186 20.282 24.06 20.2801C24.0033 20.2781 23.9408 20.2772 23.8725 20.2772C23.7748 20.2772 23.6674 20.2811 23.5502 20.2889C23.435 20.2967 23.3158 20.3113 23.1928 20.3328L23.2045 19.5096C23.1303 19.8006 23.0209 20.0252 22.8764 20.1834C22.7338 20.3416 22.5658 20.4207 22.3725 20.4207C22.3119 20.4207 22.2436 20.4129 22.1674 20.3973C22.0912 20.3817 22.0131 20.3514 21.933 20.3065C21.8549 20.2635 21.7777 20.2029 21.7016 20.1248C21.6274 20.0467 21.5609 19.9461 21.5024 19.8231C21.4438 19.6981 21.3969 19.5477 21.3617 19.3719C21.3266 19.1942 21.309 18.9842 21.309 18.742C21.309 18.4139 21.3422 18.1336 21.4086 17.9012C21.475 17.6668 21.56 17.4754 21.6635 17.327C21.767 17.1785 21.8813 17.0701 22.0063 17.0018C22.1313 16.9334 22.2533 16.8992 22.3725 16.8992C22.474 16.8992 22.5658 16.9139 22.6479 16.9432C22.7318 16.9705 22.8061 17.0067 22.8705 17.0516C22.935 17.0945 22.9906 17.1434 23.0375 17.1981C23.0844 17.2527 23.1225 17.3074 23.1518 17.3621C23.1459 17.2957 23.1371 17.2254 23.1254 17.1512C23.1137 17.075 23.1 16.9969 23.0844 16.9168C23.2113 16.9422 23.3402 16.9588 23.4711 16.9666C23.602 16.9744 23.7231 16.9783 23.8344 16.9783C23.9672 16.9783 24.0746 16.9754 24.1567 16.9695C24.2035 16.9676 24.2465 16.9647 24.2856 16.9608C24.2641 17.0584 24.2445 17.1678 24.227 17.2889C24.2094 17.41 24.1938 17.5399 24.1801 17.6785C24.1684 17.8152 24.1586 17.9598 24.1508 18.1121C24.1449 18.2625 24.142 18.4168 24.142 18.575C24.142 18.8699 24.1567 19.1658 24.1859 19.4627C24.2152 19.7596 24.266 20.0389 24.3383 20.3006ZM23.1342 18.6219V18.1473C23.1342 18.0945 23.1313 18.0408 23.1254 17.9861C23.1195 17.9315 23.1059 17.8817 23.0844 17.8367C23.0649 17.7918 23.0356 17.7557 22.9965 17.7283C22.9574 17.699 22.9047 17.6844 22.8383 17.6844C22.768 17.6844 22.7094 17.7088 22.6625 17.7576C22.6176 17.8065 22.5805 17.8738 22.5512 17.9598C22.5238 18.0438 22.5043 18.1443 22.4926 18.2615C22.4828 18.3768 22.4779 18.5027 22.4779 18.6395C22.4779 18.7176 22.4828 18.7967 22.4926 18.8768C22.5043 18.9568 22.5229 19.0301 22.5483 19.0965C22.5736 19.1609 22.6078 19.2137 22.6508 19.2547C22.6938 19.2957 22.7465 19.3162 22.809 19.3162C22.8793 19.3162 22.9359 19.2918 22.9789 19.243C23.0219 19.1942 23.0541 19.1336 23.0756 19.0613C23.099 18.9891 23.1147 18.9139 23.1225 18.8358C23.1303 18.7557 23.1342 18.6844 23.1342 18.6219ZM27.1244 20.242C27.0912 20.2381 27.0502 20.2342 27.0014 20.2303C26.9604 20.2264 26.9096 20.2234 26.849 20.2215C26.7904 20.2195 26.724 20.2186 26.6498 20.2186C26.5053 20.2186 26.3334 20.2254 26.1342 20.2391C25.935 20.2527 25.7133 20.2791 25.4692 20.3182C25.5727 19.8826 25.644 19.4559 25.683 19.0379C25.724 18.6199 25.7445 18.2176 25.7445 17.8309C25.7445 17.4793 25.7309 17.1492 25.7035 16.8406C25.6762 16.5301 25.64 16.244 25.5951 15.9822C25.7904 16.0174 25.9652 16.0408 26.1195 16.0526C26.2758 16.0643 26.4106 16.0701 26.5238 16.0701C26.602 16.0701 26.6703 16.0682 26.7289 16.0643C26.7895 16.0604 26.8393 16.0565 26.8783 16.0526C26.9252 16.0467 26.9652 16.0408 26.9984 16.035C27.0649 16.4178 27.1479 16.7967 27.2475 17.1717C27.3471 17.5447 27.4701 17.9197 27.6166 18.2967C27.7397 17.9158 27.8373 17.535 27.9096 17.1541C27.9818 16.7713 28.0307 16.3807 28.0561 15.9822L28.0795 16.035L28.0561 15.9822C28.2514 16.0174 28.4291 16.0408 28.5893 16.0526C28.7494 16.0643 28.891 16.0701 29.0141 16.0701C29.0961 16.0701 29.1684 16.0682 29.2309 16.0643C29.2934 16.0604 29.3471 16.0565 29.392 16.0526C29.4428 16.0467 29.4867 16.0408 29.5238 16.035C29.4828 16.2303 29.4516 16.4617 29.4301 16.7293C29.4086 16.9949 29.3979 17.2801 29.3979 17.5848C29.3979 17.8016 29.4037 18.0252 29.4154 18.2557C29.4272 18.4842 29.4447 18.7127 29.4682 18.9412C29.4936 19.1678 29.5258 19.3914 29.5649 19.6121C29.6039 19.8328 29.6508 20.0428 29.7055 20.242C29.6664 20.2381 29.6215 20.2342 29.5707 20.2303C29.5258 20.2264 29.4731 20.2234 29.4125 20.2215C29.352 20.2195 29.2817 20.2186 29.2016 20.2186C29.0492 20.2186 28.8695 20.2254 28.6625 20.2391C28.4574 20.2527 28.2328 20.2791 27.9887 20.3182C28.0375 20.2205 28.0775 20.0955 28.1088 19.9432C28.142 19.7908 28.1684 19.6287 28.1879 19.4568C28.2094 19.285 28.225 19.1141 28.2348 18.9442C28.2465 18.7723 28.2543 18.619 28.2582 18.4842C28.2016 18.6053 28.1469 18.7283 28.0942 18.8533C28.0414 18.9783 27.9867 19.1121 27.9301 19.2547C27.8754 19.3953 27.8178 19.5477 27.7572 19.7117C27.6967 19.8758 27.6303 20.0584 27.558 20.2596C27.4838 20.0584 27.4164 19.8758 27.3559 19.7117C27.2953 19.5477 27.2377 19.3953 27.183 19.2547C27.1303 19.1141 27.0775 18.9813 27.0248 18.8563C26.974 18.7293 26.9213 18.6033 26.8666 18.4783C26.8842 18.7869 26.9135 19.0916 26.9545 19.3924C26.9955 19.6912 27.0522 19.9744 27.1244 20.242ZM32.9457 20.3006C32.9086 20.2967 32.8656 20.2928 32.8168 20.2889C32.7758 20.285 32.726 20.282 32.6674 20.2801C32.6108 20.2781 32.5483 20.2772 32.4799 20.2772C32.3822 20.2772 32.2748 20.2811 32.1576 20.2889C32.0424 20.2967 31.9233 20.3113 31.8002 20.3328L31.8119 19.5096C31.7377 19.8006 31.6283 20.0252 31.4838 20.1834C31.3412 20.3416 31.1733 20.4207 30.9799 20.4207C30.9193 20.4207 30.851 20.4129 30.7748 20.3973C30.6986 20.3817 30.6205 20.3514 30.5404 20.3065C30.4623 20.2635 30.3852 20.2029 30.309 20.1248C30.2348 20.0467 30.1684 19.9461 30.1098 19.8231C30.0512 19.6981 30.0043 19.5477 29.9692 19.3719C29.934 19.1942 29.9164 18.9842 29.9164 18.742C29.9164 18.4139 29.9496 18.1336 30.016 17.9012C30.0824 17.6668 30.1674 17.4754 30.2709 17.327C30.3744 17.1785 30.4887 17.0701 30.6137 17.0018C30.7387 16.9334 30.8608 16.8992 30.9799 16.8992C31.0815 16.8992 31.1733 16.9139 31.2553 16.9432C31.3393 16.9705 31.4135 17.0067 31.4779 17.0516C31.5424 17.0945 31.5981 17.1434 31.6449 17.1981C31.6918 17.2527 31.7299 17.3074 31.7592 17.3621C31.7533 17.2957 31.7445 17.2254 31.7328 17.1512C31.7211 17.075 31.7074 16.9969 31.6918 16.9168C31.8188 16.9422 31.9477 16.9588 32.0785 16.9666C32.2094 16.9744 32.3305 16.9783 32.4418 16.9783C32.5746 16.9783 32.682 16.9754 32.7641 16.9695C32.8109 16.9676 32.8539 16.9647 32.893 16.9608C32.8715 17.0584 32.852 17.1678 32.8344 17.2889C32.8168 17.41 32.8012 17.5399 32.7875 17.6785C32.7758 17.8152 32.766 17.9598 32.7582 18.1121C32.7524 18.2625 32.7494 18.4168 32.7494 18.575C32.7494 18.8699 32.7641 19.1658 32.7934 19.4627C32.8227 19.7596 32.8734 20.0389 32.9457 20.3006ZM31.7416 18.6219V18.1473C31.7416 18.0945 31.7387 18.0408 31.7328 17.9861C31.727 17.9315 31.7133 17.8817 31.6918 17.8367C31.6723 17.7918 31.643 17.7557 31.6039 17.7283C31.5649 17.699 31.5121 17.6844 31.4457 17.6844C31.3754 17.6844 31.3168 17.7088 31.2699 17.7576C31.225 17.8065 31.1879 17.8738 31.1586 17.9598C31.1313 18.0438 31.1117 18.1443 31.1 18.2615C31.0902 18.3768 31.0854 18.5027 31.0854 18.6395C31.0854 18.7176 31.0902 18.7967 31.1 18.8768C31.1117 18.9568 31.1303 19.0301 31.1557 19.0965C31.1811 19.1609 31.2152 19.2137 31.2582 19.2547C31.3012 19.2957 31.3539 19.3162 31.4164 19.3162C31.4867 19.3162 31.5434 19.2918 31.5863 19.243C31.6293 19.1942 31.6615 19.1336 31.683 19.0613C31.7065 18.9891 31.7221 18.9139 31.7299 18.8358C31.7377 18.7557 31.7416 18.6844 31.7416 18.6219ZM36.2387 20.3182C36.1781 20.3084 36.1117 20.3016 36.0395 20.2977C35.9672 20.2957 35.892 20.2947 35.8139 20.2947C35.7201 20.2947 35.6244 20.2967 35.5268 20.3006C35.4311 20.3065 35.3373 20.3133 35.2455 20.3211C35.1537 20.3289 35.0668 20.3377 34.9848 20.3475C34.9027 20.3572 34.8315 20.366 34.7709 20.3738C34.8549 20.0906 34.9193 19.7879 34.9643 19.4656C35.0111 19.1434 35.0346 18.7859 35.0346 18.3934C35.0346 18.3641 35.0336 18.325 35.0317 18.2762C35.0317 18.2274 35.0297 18.1746 35.0258 18.118C35.0219 18.0613 35.015 18.0047 35.0053 17.9481C34.9975 17.8895 34.9848 17.8367 34.9672 17.7899C34.9516 17.743 34.9311 17.7049 34.9057 17.6756C34.8803 17.6463 34.849 17.6317 34.8119 17.6317C34.7572 17.6317 34.7035 17.6512 34.6508 17.6902C34.6 17.7293 34.5541 17.7811 34.5131 17.8455C34.474 17.91 34.4418 17.9842 34.4164 18.0682C34.393 18.1522 34.3813 18.2391 34.3813 18.3289C34.3813 18.491 34.3852 18.6561 34.393 18.824C34.4008 18.9901 34.4135 19.1551 34.4311 19.3192C34.4486 19.4832 34.4711 19.6443 34.4984 19.8026C34.5258 19.9588 34.56 20.1072 34.601 20.2479C34.5678 20.2459 34.5287 20.243 34.4838 20.2391C34.4447 20.2371 34.3988 20.2352 34.3461 20.2332C34.2934 20.2313 34.2328 20.2303 34.1645 20.2303C34.0375 20.2303 33.891 20.2361 33.725 20.2479C33.559 20.2576 33.3793 20.2772 33.1859 20.3065C33.2094 20.1971 33.2299 20.0633 33.2475 19.9051C33.265 19.7469 33.2797 19.575 33.2914 19.3895C33.3031 19.2039 33.3119 19.0106 33.3178 18.8094C33.3256 18.6063 33.3295 18.4061 33.3295 18.2088C33.3295 18.0623 33.3275 17.9188 33.3236 17.7781C33.3197 17.6375 33.3139 17.5047 33.3061 17.3797C33.3002 17.2547 33.2914 17.1395 33.2797 17.034C33.268 16.9285 33.2543 16.8377 33.2387 16.7615C33.3969 16.7889 33.5434 16.8084 33.6781 16.8201C33.8129 16.8299 33.935 16.8348 34.0443 16.8348C34.1147 16.8348 34.1772 16.8338 34.2318 16.8318C34.2885 16.8279 34.3363 16.824 34.3754 16.8201C34.4223 16.8143 34.4633 16.8084 34.4984 16.8026C34.4867 16.8631 34.475 16.9276 34.4633 16.9959C34.4535 17.0643 34.4438 17.1385 34.434 17.2186C34.4984 17.1365 34.5668 17.0652 34.6391 17.0047C34.7113 16.9422 34.7836 16.8904 34.8559 16.8494C34.9301 16.8084 35.0033 16.7781 35.0756 16.7586C35.1479 16.7371 35.2162 16.7264 35.2807 16.7264C35.4213 16.7264 35.5424 16.7557 35.644 16.8143C35.7475 16.8709 35.8324 16.9608 35.8988 17.0838C35.9672 17.2068 36.018 17.3641 36.0512 17.5555C36.0844 17.7469 36.101 17.9764 36.101 18.244C36.101 18.4276 36.101 18.6141 36.101 18.8035C36.1029 18.993 36.1078 19.1785 36.1156 19.3602C36.1234 19.5418 36.1371 19.7147 36.1567 19.8787C36.1762 20.0408 36.2035 20.1873 36.2387 20.3182ZM39.4438 16.8934C39.4223 16.9754 39.4037 17.076 39.3881 17.1951C39.3744 17.3123 39.3617 17.4412 39.35 17.5818C39.3383 17.7205 39.3285 17.8651 39.3207 18.0154C39.3149 18.1658 39.309 18.3133 39.3031 18.4578C39.2914 18.7977 39.2846 19.158 39.2826 19.5389C39.2826 19.7381 39.2699 19.9334 39.2445 20.1248C39.2211 20.3143 39.182 20.493 39.1274 20.6609C39.0746 20.8289 39.0053 20.9842 38.9193 21.1268C38.8334 21.2693 38.7289 21.3914 38.6059 21.493C38.4848 21.5945 38.3442 21.6736 38.184 21.7303C38.0238 21.7889 37.8422 21.8182 37.6391 21.8182C37.4496 21.8182 37.2856 21.7986 37.1469 21.7596C37.0082 21.7205 36.893 21.6649 36.8012 21.5926C36.7113 21.5223 36.644 21.4373 36.599 21.3377C36.5561 21.2401 36.5346 21.1307 36.5346 21.0096C36.5346 20.8904 36.5551 20.783 36.5961 20.6873C36.6371 20.5916 36.6908 20.5096 36.7572 20.4412C36.8236 20.3748 36.8979 20.324 36.9799 20.2889C37.0639 20.2537 37.1488 20.2361 37.2348 20.2361C37.3461 20.2361 37.4506 20.2674 37.5483 20.3299C37.6459 20.3924 37.7201 20.491 37.7709 20.6258C37.7475 20.6102 37.7192 20.6024 37.6859 20.6024C37.641 20.6024 37.599 20.6199 37.56 20.6551C37.5209 20.6922 37.5014 20.7361 37.5014 20.7869C37.5014 20.8162 37.5063 20.8406 37.516 20.8602C37.5277 20.8817 37.5424 20.8983 37.56 20.91C37.5775 20.9217 37.5961 20.9295 37.6156 20.9334C37.6371 20.9393 37.6567 20.9422 37.6742 20.9422C37.6957 20.9422 37.725 20.9383 37.7621 20.9305C37.8012 20.9246 37.8432 20.9061 37.8881 20.8748C37.933 20.8436 37.9779 20.7957 38.0229 20.7313C38.0678 20.6668 38.1088 20.5779 38.1459 20.4647C38.183 20.3514 38.2123 20.2078 38.2338 20.034C38.2572 19.8602 38.269 19.6492 38.269 19.4012C38.2299 19.575 38.1811 19.7117 38.1225 19.8113C38.0639 19.9109 38.0014 19.9861 37.935 20.0369C37.8686 20.0858 37.8002 20.116 37.7299 20.1277C37.6615 20.1395 37.5971 20.1453 37.5365 20.1453C37.4897 20.1453 37.4301 20.1375 37.3578 20.1219C37.2856 20.1043 37.2084 20.075 37.1264 20.034C37.0463 19.991 36.9643 19.9334 36.8803 19.8611C36.7983 19.7869 36.724 19.6942 36.6576 19.5828C36.5912 19.4695 36.5365 19.3348 36.4936 19.1785C36.4525 19.0203 36.432 18.8348 36.432 18.6219C36.432 18.2938 36.4652 18.0164 36.5317 17.7899C36.6 17.5633 36.6869 17.3807 36.7924 17.242C36.8998 17.1014 37.018 17.0008 37.1469 16.9402C37.2758 16.8777 37.4018 16.8465 37.5248 16.8465C37.6127 16.8465 37.6928 16.8611 37.765 16.8904C37.8373 16.9178 37.9027 16.9549 37.9613 17.0018C38.0199 17.0486 38.0717 17.1014 38.1166 17.16C38.1615 17.2166 38.2016 17.2742 38.2367 17.3328C38.225 17.2469 38.2104 17.1609 38.1928 17.075C38.1772 16.9891 38.1586 16.9022 38.1371 16.8143C38.1859 16.8358 38.2465 16.8553 38.3188 16.8729C38.3813 16.8885 38.4594 16.9022 38.5531 16.9139C38.6469 16.9236 38.7602 16.9285 38.893 16.9285C39.0492 16.9285 39.2328 16.9168 39.4438 16.8934ZM38.1957 18.3641C38.1957 18.3094 38.1918 18.244 38.184 18.1678C38.1762 18.0897 38.1615 18.0154 38.14 17.9451C38.1186 17.8729 38.0883 17.8113 38.0492 17.7606C38.0121 17.7098 37.9633 17.6844 37.9027 17.6844C37.8578 17.6844 37.8168 17.7108 37.7797 17.7635C37.7426 17.8143 37.7104 17.8768 37.683 17.951C37.6576 18.0233 37.6371 18.0984 37.6215 18.1766C37.6078 18.2547 37.601 18.3211 37.601 18.3758C37.601 18.4695 37.6059 18.5652 37.6156 18.6629C37.6254 18.7606 37.641 18.8494 37.6625 18.9295C37.6859 19.0076 37.7143 19.0721 37.7475 19.1229C37.7826 19.1736 37.8236 19.199 37.8705 19.199C37.9213 19.199 37.9662 19.1873 38.0053 19.1639C38.0463 19.1385 38.0805 19.1053 38.1078 19.0643C38.1371 19.0213 38.1586 18.9725 38.1723 18.9178C38.1879 18.8631 38.1957 18.8045 38.1957 18.742V18.3641ZM42.4496 18.5486C42.4496 18.6619 42.4408 18.7869 42.4233 18.9236C42.4057 19.0584 42.3764 19.1951 42.3354 19.3338C42.2943 19.4705 42.2387 19.6043 42.1684 19.7352C42.0981 19.8641 42.0102 19.9783 41.9047 20.0779C41.8012 20.1776 41.6772 20.2576 41.5326 20.3182C41.3881 20.3787 41.2201 20.409 41.0287 20.409C40.8373 20.409 40.6693 20.3807 40.5248 20.324C40.3822 20.2674 40.2592 20.1922 40.1557 20.0984C40.0541 20.0027 39.9701 19.8934 39.9037 19.7703C39.8373 19.6453 39.7846 19.5145 39.7455 19.3777C39.7065 19.241 39.6791 19.1033 39.6635 18.9647C39.6498 18.824 39.643 18.6912 39.643 18.5662C39.643 18.3455 39.6723 18.1297 39.7309 17.9188C39.7895 17.7059 39.8783 17.5164 39.9975 17.3504C40.1186 17.1844 40.269 17.0506 40.4486 16.949C40.6303 16.8475 40.8432 16.7967 41.0873 16.7967C41.2514 16.7967 41.3988 16.8221 41.5297 16.8729C41.6606 16.9217 41.7768 16.9891 41.8783 17.075C41.9799 17.1609 42.0658 17.2615 42.1361 17.3768C42.2084 17.492 42.268 17.6141 42.3149 17.743C42.3617 17.8719 42.3959 18.0057 42.4174 18.1443C42.4389 18.283 42.4496 18.4178 42.4496 18.5486ZM41.4301 18.6453C41.4301 18.6004 41.4281 18.5447 41.4242 18.4783C41.4223 18.41 41.4164 18.3387 41.4067 18.2645C41.3969 18.1902 41.3832 18.116 41.3656 18.0418C41.35 17.9676 41.3285 17.9012 41.3012 17.8426C41.2738 17.784 41.2397 17.7361 41.1986 17.699C41.1596 17.6619 41.1127 17.6434 41.058 17.6434C41.0053 17.6434 40.9594 17.6609 40.9203 17.6961C40.8813 17.7313 40.8471 17.7772 40.8178 17.8338C40.7904 17.8904 40.767 17.9549 40.7475 18.0272C40.7299 18.0975 40.7152 18.1688 40.7035 18.241C40.6938 18.3113 40.6859 18.3797 40.6801 18.4461C40.6762 18.5106 40.6742 18.5652 40.6742 18.6102C40.6742 18.6746 40.6791 18.7527 40.6889 18.8445C40.6986 18.9363 40.7172 19.0242 40.7445 19.1082C40.7719 19.1922 40.809 19.2645 40.8559 19.325C40.9047 19.3836 40.9682 19.4129 41.0463 19.4129C41.1205 19.4129 41.182 19.3856 41.2309 19.3309C41.2817 19.2762 41.3217 19.2098 41.351 19.1317C41.3803 19.0516 41.4008 18.9676 41.4125 18.8797C41.4242 18.7918 41.4301 18.7137 41.4301 18.6453ZM46.935 18.0565C46.7748 18.4529 46.6947 18.8377 46.6947 19.2108C46.6947 19.3904 46.7113 19.5721 46.7445 19.7557C46.7777 19.9373 46.8295 20.1229 46.8998 20.3123C46.7885 20.285 46.685 20.2645 46.5893 20.2508C46.4936 20.2371 46.3988 20.2303 46.3051 20.2303C46.2055 20.2303 46.1039 20.2391 46.0004 20.2567C45.8969 20.2742 45.7846 20.3016 45.6635 20.3387L45.7836 19.8699C45.7445 19.9324 45.6977 19.9969 45.643 20.0633C45.5883 20.1277 45.5229 20.1863 45.4467 20.2391C45.3725 20.2918 45.2865 20.3348 45.1889 20.368C45.0932 20.4031 44.9828 20.4207 44.8578 20.4207C44.6703 20.4207 44.4975 20.3758 44.3393 20.2859C44.183 20.1961 44.0483 20.0662 43.935 19.8963C43.8217 19.7264 43.7328 19.5184 43.6684 19.2723C43.6059 19.0242 43.5746 18.743 43.5746 18.4285C43.5746 18.2195 43.5942 18.0125 43.6332 17.8074C43.6723 17.6004 43.7289 17.4041 43.8031 17.2186C43.8774 17.0311 43.9692 16.8582 44.0785 16.7C44.1879 16.5399 44.3119 16.4022 44.4506 16.2869C44.5893 16.1697 44.7426 16.0789 44.9106 16.0145C45.0805 15.9481 45.2631 15.9149 45.4584 15.9149C45.6361 15.9149 45.7914 15.9334 45.9242 15.9705C46.057 16.0057 46.1723 16.0535 46.2699 16.1141C46.3676 16.1727 46.4477 16.241 46.5102 16.3192C46.5746 16.3953 46.6254 16.4754 46.6625 16.5594C46.6996 16.6434 46.726 16.7274 46.7416 16.8113C46.7572 16.8934 46.765 16.9705 46.765 17.0428C46.765 17.1463 46.7465 17.2459 46.7094 17.3416C46.6742 17.4373 46.6244 17.5213 46.56 17.5936C46.4955 17.6658 46.4193 17.7234 46.3315 17.7664C46.2436 17.8094 46.1469 17.8309 46.0414 17.8309C45.932 17.8309 45.8373 17.8143 45.7572 17.7811C45.6772 17.7479 45.6108 17.7049 45.558 17.6522C45.5053 17.5975 45.4652 17.5369 45.4379 17.4705C45.4125 17.4041 45.3998 17.3377 45.3998 17.2713C45.3998 17.2147 45.4096 17.157 45.4291 17.0984C45.4486 17.0399 45.476 16.9852 45.5111 16.9344C45.5229 16.9754 45.5395 17.0076 45.5609 17.0311C45.5824 17.0526 45.6039 17.0682 45.6254 17.0779C45.6488 17.0897 45.6752 17.0965 45.7045 17.0984C45.7709 17.0984 45.8178 17.0818 45.8451 17.0486C45.8744 17.0154 45.8891 16.9774 45.8891 16.9344C45.8891 16.9149 45.8842 16.8953 45.8744 16.8758C45.8666 16.8543 45.8539 16.8348 45.8363 16.8172C45.8188 16.7996 45.7953 16.785 45.766 16.7733C45.7387 16.7615 45.7045 16.7557 45.6635 16.7557C45.6361 16.7557 45.5981 16.7615 45.5492 16.7733C45.5024 16.783 45.4506 16.8035 45.394 16.8348C45.3393 16.866 45.2836 16.9109 45.227 16.9695C45.1703 17.0262 45.1186 17.1024 45.0717 17.1981C45.0248 17.2938 44.9867 17.4109 44.9574 17.5496C44.9281 17.6883 44.9135 17.8533 44.9135 18.0447C44.9135 18.2029 44.9262 18.3416 44.9516 18.4608C44.9789 18.5799 45.016 18.6795 45.0629 18.7596C45.1098 18.8397 45.1654 18.9002 45.2299 18.9412C45.2943 18.9803 45.3647 18.9998 45.4408 18.9998C45.5131 18.9998 45.5727 18.9813 45.6195 18.9442C45.6664 18.907 45.7035 18.8621 45.7309 18.8094C45.7582 18.7567 45.7768 18.702 45.7865 18.6453C45.7963 18.5887 45.8012 18.5408 45.8012 18.5018C45.8012 18.4998 45.7992 18.4861 45.7953 18.4608C45.7934 18.4354 45.7846 18.4061 45.769 18.3729C45.7533 18.3397 45.7279 18.3055 45.6928 18.2703C45.6576 18.2352 45.6078 18.2059 45.5434 18.1824C45.7738 18.1824 46.0053 18.1727 46.2377 18.1531C46.4701 18.1317 46.7025 18.0994 46.935 18.0565ZM49.7709 16.8817C49.7533 16.9695 49.7367 17.0721 49.7211 17.1893C49.7074 17.3065 49.6947 17.4334 49.683 17.5701C49.6733 17.7049 49.6654 17.8465 49.6596 17.9949C49.6537 18.1414 49.6508 18.2879 49.6508 18.4344C49.6508 18.4832 49.6518 18.532 49.6537 18.5809C49.6557 18.6277 49.6567 18.6736 49.6567 18.7186C49.6567 18.8143 49.6508 18.9227 49.6391 19.0438C49.6293 19.1649 49.6078 19.2889 49.5746 19.4158C49.5434 19.5408 49.4994 19.6639 49.4428 19.785C49.3861 19.9061 49.3109 20.0135 49.2172 20.1072C49.1254 20.201 49.0131 20.2762 48.8803 20.3328C48.7475 20.3914 48.5902 20.4207 48.4086 20.4207C48.2524 20.4207 48.1137 20.4002 47.9926 20.3592C47.8734 20.3182 47.769 20.2625 47.6791 20.1922C47.5912 20.1199 47.517 20.035 47.4565 19.9373C47.3959 19.8397 47.3471 19.7352 47.31 19.6238C47.2729 19.5106 47.2455 19.3924 47.2279 19.2693C47.2123 19.1463 47.2045 19.0242 47.2045 18.9031C47.2045 18.8738 47.2045 18.8563 47.2045 18.8504C47.2065 18.8426 47.2074 18.8377 47.2074 18.8358C47.2074 18.8338 47.2084 18.8309 47.2104 18.827C47.2123 18.8211 47.2133 18.8055 47.2133 18.7801C47.2133 18.7547 47.2133 18.7147 47.2133 18.66C47.2152 18.6053 47.2162 18.5281 47.2162 18.4285C47.2162 18.3113 47.2143 18.1795 47.2104 18.033C47.2065 17.8846 47.1977 17.7401 47.184 17.5994C47.1723 17.4568 47.1547 17.3279 47.1313 17.2127C47.1078 17.0975 47.0775 17.0135 47.0404 16.9608C47.1986 16.9881 47.3471 17.0067 47.4858 17.0164C47.6264 17.0262 47.7543 17.0311 47.8695 17.0311C47.9457 17.0311 48.0141 17.0301 48.0746 17.0281C48.1371 17.0242 48.1908 17.0203 48.2358 17.0164C48.2865 17.0125 48.3324 17.0076 48.3734 17.0018C48.3344 17.1932 48.2963 17.4109 48.2592 17.6551C48.224 17.8973 48.2065 18.1756 48.2065 18.4901C48.2065 18.5623 48.2094 18.6375 48.2152 18.7156C48.2231 18.7938 48.2358 18.866 48.2533 18.9324C48.2709 18.9969 48.2943 19.0506 48.3236 19.0936C48.3549 19.1346 48.394 19.1551 48.4408 19.1551C48.4994 19.1551 48.5453 19.1356 48.5785 19.0965C48.6117 19.0574 48.6361 19.0067 48.6518 18.9442C48.6693 18.8797 48.6791 18.8084 48.6811 18.7303C48.685 18.6522 48.6869 18.574 48.6869 18.4959C48.685 18.242 48.6772 18.0047 48.6635 17.784C48.6576 17.6902 48.6498 17.5955 48.64 17.4998C48.6322 17.4041 48.6225 17.3143 48.6108 17.2303C48.599 17.1443 48.5854 17.0682 48.5697 17.0018C48.5541 16.9334 48.5365 16.8797 48.517 16.8406C48.6752 16.868 48.8217 16.8865 48.9565 16.8963C49.0912 16.9061 49.2113 16.9109 49.3168 16.9109C49.3871 16.9109 49.4496 16.91 49.5043 16.908C49.5609 16.9041 49.6088 16.9002 49.6479 16.8963C49.6947 16.8924 49.7358 16.8875 49.7709 16.8817ZM52.894 16.8934C52.8725 16.9754 52.8539 17.074 52.8383 17.1893C52.8246 17.3045 52.8119 17.4285 52.8002 17.5613C52.7885 17.6942 52.7787 17.8328 52.7709 17.9774C52.765 18.1219 52.7592 18.2625 52.7533 18.3992C52.7416 18.7215 52.7348 19.0613 52.7328 19.4188C52.7328 19.618 52.7201 19.8143 52.6947 20.0076C52.6713 20.201 52.6322 20.3836 52.5775 20.5555C52.5248 20.7293 52.4555 20.8895 52.3695 21.0359C52.2856 21.1844 52.182 21.3113 52.059 21.4168C51.9379 21.5242 51.7963 21.6082 51.6342 21.6688C51.474 21.7293 51.2924 21.7596 51.0893 21.7596C50.8998 21.7596 50.7358 21.7401 50.5971 21.701C50.4584 21.6619 50.3432 21.6063 50.2514 21.534C50.1615 21.4637 50.0942 21.3787 50.0492 21.2791C50.0063 21.1795 49.9848 21.0701 49.9848 20.951C49.9848 20.8318 50.0053 20.7234 50.0463 20.6258C50.0873 20.5301 50.141 20.449 50.2074 20.3826C50.2738 20.3162 50.349 20.2654 50.433 20.2303C50.517 20.1932 50.602 20.1746 50.6879 20.1746C50.7973 20.1746 50.9008 20.2059 50.9984 20.2684C51.0961 20.3309 51.1703 20.4295 51.2211 20.5643C51.2094 20.5545 51.1957 20.5477 51.1801 20.5438C51.1664 20.5418 51.1518 20.5408 51.1361 20.5408C51.1147 20.5408 51.0922 20.5457 51.0688 20.5555C51.0473 20.5652 51.0277 20.5789 51.0102 20.5965C50.9926 20.6141 50.9779 20.6336 50.9662 20.6551C50.9565 20.6785 50.9516 20.7029 50.9516 20.7283C50.9516 20.7576 50.9574 20.782 50.9692 20.8016C50.9809 20.8231 50.9945 20.8397 51.0102 20.8514C51.0277 20.8631 51.0463 20.8709 51.0658 20.8748C51.0873 20.8807 51.1068 20.8836 51.1244 20.8836C51.1518 20.8836 51.1859 20.8777 51.227 20.866C51.268 20.8543 51.31 20.8299 51.3529 20.7928C51.3979 20.7557 51.4418 20.7039 51.4848 20.6375C51.5297 20.5711 51.5688 20.4822 51.602 20.3709C51.6371 20.2615 51.6645 20.1277 51.684 19.9695C51.7055 19.8113 51.7152 19.6219 51.7133 19.4012C51.6625 19.5379 51.6088 19.6492 51.5522 19.7352C51.4975 19.8192 51.4389 19.8846 51.3764 19.9315C51.3158 19.9783 51.2514 20.0096 51.183 20.0252C51.1166 20.0408 51.0453 20.0486 50.9692 20.0486C50.8734 20.0486 50.7729 20.032 50.6674 19.9988C50.5639 19.9637 50.4682 19.9031 50.3803 19.8172C50.2943 19.7293 50.2231 19.6102 50.1664 19.4598C50.1098 19.3094 50.0815 19.118 50.0815 18.8856C50.0815 18.8543 50.0815 18.8328 50.0815 18.8211C50.0834 18.8074 50.0844 18.7977 50.0844 18.7918C50.0844 18.784 50.0854 18.7752 50.0873 18.7654C50.0893 18.7557 50.0902 18.7371 50.0902 18.7098C50.0902 18.6805 50.0902 18.6395 50.0902 18.5867C50.0922 18.534 50.0932 18.4598 50.0932 18.3641C50.0932 18.2527 50.0912 18.1268 50.0873 17.9861C50.0834 17.8455 50.0746 17.7078 50.0609 17.5731C50.0492 17.4383 50.0317 17.3162 50.0082 17.2068C49.9848 17.0955 49.9545 17.0135 49.9174 16.9608C50.0756 16.9881 50.224 17.0067 50.3627 17.0164C50.5033 17.0262 50.6313 17.0311 50.7465 17.0311C50.8227 17.0311 50.891 17.0301 50.9516 17.0281C51.0141 17.0242 51.0678 17.0203 51.1127 17.0164C51.1635 17.0125 51.2094 17.0076 51.2504 17.0018C51.2348 17.035 51.2172 17.0984 51.1977 17.1922C51.1801 17.2859 51.1625 17.3983 51.1449 17.5291C51.1274 17.66 51.1127 17.8035 51.101 17.9598C51.0893 18.1141 51.0834 18.2703 51.0834 18.4285C51.0834 18.5477 51.0922 18.6492 51.1098 18.7332C51.1274 18.8172 51.1508 18.8865 51.1801 18.9412C51.2113 18.994 51.2465 19.033 51.2856 19.0584C51.3266 19.0838 51.3705 19.0965 51.4174 19.0965C51.4916 19.0965 51.5502 19.0662 51.5932 19.0057C51.6381 18.9451 51.6762 18.869 51.7074 18.7772C51.7035 18.6561 51.6967 18.5145 51.6869 18.3524C51.6772 18.1902 51.6635 18.0213 51.6459 17.8455C51.6303 17.6697 51.6088 17.493 51.5815 17.3152C51.5561 17.1356 51.5238 16.9686 51.4848 16.8143C51.5453 16.8358 51.6176 16.8553 51.7016 16.8729C51.7738 16.8885 51.8617 16.9022 51.9652 16.9139C52.0688 16.9236 52.1908 16.9285 52.3315 16.9285C52.4975 16.9285 52.685 16.9168 52.894 16.8934Z" fill="white" fill-opacity="0.9"/>
<path d="M5.10742 31C5.10742 28.2386 7.346 26 10.1074 26H53.0032C55.7646 26 58.0032 28.2386 58.0032 31V31.8653C58.0032 34.6267 55.7646 36.8653 53.0032 36.8653H10.1074C7.346 36.8653 5.10742 34.6267 5.10742 31.8653V31Z" fill="#781930" fill-opacity="0.9"/>
<path d="M24.1215 33.3622C23.9887 33.3524 23.8666 33.3456 23.7553 33.3417C23.644 33.3397 23.5395 33.3387 23.4418 33.3387C23.2641 33.3387 23.1137 33.3436 22.9906 33.3534C22.8695 33.3632 22.7709 33.3739 22.6947 33.3856C22.6049 33.3993 22.5326 33.4149 22.4779 33.4325C22.4858 33.3719 22.4936 33.3143 22.5014 33.2596C22.5092 33.203 22.515 33.1473 22.519 33.0927C22.5248 33.038 22.5287 32.9833 22.5307 32.9286C22.5346 32.8739 22.5365 32.8163 22.5365 32.7557C22.5365 32.5389 22.5277 32.3583 22.5102 32.2137C22.4945 32.0673 22.4711 31.9462 22.4399 31.8505C22.4086 31.7548 22.3705 31.6766 22.3256 31.6161C22.2807 31.5555 22.2309 31.5018 22.1762 31.455C22.1723 31.5428 22.1693 31.6278 22.1674 31.7098C22.1654 31.7919 22.1645 31.8788 22.1645 31.9706C22.1645 32.0624 22.1664 32.1571 22.1703 32.2548C22.1742 32.3524 22.1811 32.4569 22.1908 32.5682C22.2006 32.6776 22.2152 32.7948 22.2348 32.9198C22.2543 33.0428 22.2787 33.1757 22.308 33.3182C22.2338 33.3124 22.1508 33.3055 22.059 33.2977C21.9809 33.2938 21.8881 33.2889 21.7807 33.2831C21.6733 33.2792 21.5551 33.2772 21.4262 33.2772C21.2973 33.2772 21.1606 33.2802 21.016 33.286C20.8715 33.2919 20.7201 33.3026 20.5619 33.3182C20.6088 33.2596 20.6508 33.1835 20.6879 33.0897C20.727 32.996 20.7611 32.8934 20.7904 32.7821C20.8197 32.6688 20.8442 32.5507 20.8637 32.4276C20.8852 32.3046 20.9037 32.1835 20.9193 32.0643C20.9545 31.785 20.9779 31.4872 20.9897 31.1708C20.9897 31.0048 20.9877 30.8339 20.9838 30.6581C20.9799 30.4823 20.9701 30.3075 20.9545 30.1337C20.9389 29.9579 20.9154 29.785 20.8842 29.6151C20.8549 29.4452 20.8139 29.2841 20.7611 29.1317C20.8432 29.1376 20.9242 29.1434 21.0043 29.1493C21.0844 29.1532 21.1654 29.1552 21.2475 29.1552C21.6322 29.1552 22.0102 29.1151 22.3813 29.035C22.2953 29.2889 22.2338 29.5409 22.1967 29.7909C22.1596 30.0389 22.141 30.287 22.141 30.535C22.141 30.5956 22.141 30.6561 22.141 30.7167C22.143 30.7753 22.1469 30.8348 22.1527 30.8954C22.3188 30.6844 22.4457 30.4774 22.5336 30.2743C22.6234 30.0712 22.6684 29.8719 22.6684 29.6766C22.6684 29.577 22.6567 29.4803 22.6332 29.3866C22.6117 29.2909 22.5756 29.1962 22.5248 29.1024C22.6225 29.1122 22.7192 29.12 22.8149 29.1259C22.9125 29.1298 23.0102 29.1317 23.1078 29.1317C23.2758 29.1317 23.4438 29.1239 23.6117 29.1083C23.7797 29.0927 23.9496 29.0682 24.1215 29.035C24.0883 29.0858 24.058 29.1405 24.0307 29.1991C24.0033 29.2557 23.9779 29.3153 23.9545 29.3778C23.933 29.4384 23.9125 29.4999 23.893 29.5624C23.8754 29.6249 23.8598 29.6844 23.8461 29.7411C23.8129 29.8759 23.7865 30.0126 23.767 30.1512C23.7455 30.288 23.7094 30.4178 23.6586 30.5409C23.6371 30.5936 23.6108 30.6483 23.5795 30.705C23.5483 30.7596 23.5121 30.8134 23.4711 30.8661C23.4301 30.9169 23.3832 30.9657 23.3305 31.0126C23.2797 31.0575 23.2211 31.0966 23.1547 31.1298C23.2914 31.1864 23.3959 31.2567 23.4682 31.3407C23.5424 31.4247 23.5981 31.5204 23.6352 31.6278C23.6723 31.7333 23.6986 31.8495 23.7143 31.9764C23.7299 32.1014 23.7494 32.2333 23.7729 32.3719C23.7943 32.4891 23.8217 32.6063 23.8549 32.7235C23.8822 32.8231 23.9174 32.9305 23.9604 33.0458C24.0053 33.161 24.059 33.2665 24.1215 33.3622ZM25.642 33.2479C25.6088 33.246 25.5697 33.243 25.5248 33.2391C25.4858 33.2372 25.4399 33.2352 25.3871 33.2333C25.3344 33.2313 25.2738 33.2303 25.2055 33.2303C25.0785 33.2303 24.932 33.2362 24.766 33.2479C24.6 33.2577 24.4203 33.2772 24.227 33.3065C24.2641 33.2323 24.2953 33.1395 24.3207 33.0282C24.3461 32.9149 24.3666 32.7948 24.3822 32.6678C24.3998 32.5389 24.4125 32.4091 24.4203 32.2782C24.4301 32.1473 24.4369 32.0272 24.4408 31.9178C24.4447 31.8085 24.4467 31.7157 24.4467 31.6395C24.4486 31.5634 24.4496 31.5155 24.4496 31.496C24.4457 31.2421 24.4369 31.0048 24.4233 30.7841C24.4174 30.6903 24.4096 30.5956 24.3998 30.4999C24.392 30.4042 24.3822 30.3143 24.3705 30.2303C24.3588 30.1444 24.3451 30.0682 24.3295 30.0018C24.3158 29.9335 24.2992 29.8798 24.2797 29.8407C24.4379 29.868 24.5844 29.8866 24.7192 29.8964C24.8539 29.9061 24.976 29.911 25.0854 29.911C25.1557 29.911 25.2182 29.91 25.2729 29.9081C25.3295 29.9042 25.3774 29.9003 25.4164 29.8964C25.4633 29.8925 25.5043 29.8876 25.5395 29.8817C25.5043 30.0575 25.475 30.2694 25.4516 30.5175C25.4301 30.7655 25.4193 31.0311 25.4193 31.3143C25.4193 31.4764 25.4233 31.6405 25.4311 31.8065C25.4389 31.9725 25.4516 32.1385 25.4692 32.3046C25.4867 32.4686 25.5092 32.6307 25.5365 32.7909C25.5658 32.9491 25.601 33.1014 25.642 33.2479ZM24.2973 29.0585C24.2973 28.9686 24.3139 28.8846 24.3471 28.8065C24.3822 28.7264 24.4291 28.6571 24.4877 28.5985C24.5483 28.538 24.6186 28.4911 24.6986 28.4579C24.7787 28.4227 24.8637 28.4052 24.9535 28.4052C25.0434 28.4052 25.1274 28.4227 25.2055 28.4579C25.2856 28.4911 25.3549 28.538 25.4135 28.5985C25.474 28.6571 25.5209 28.7264 25.5541 28.8065C25.5893 28.8846 25.6068 28.9686 25.6068 29.0585C25.6068 29.1483 25.5893 29.2333 25.5541 29.3134C25.5209 29.3934 25.474 29.4637 25.4135 29.5243C25.3549 29.5829 25.2856 29.6298 25.2055 29.6649C25.1274 29.6981 25.0434 29.7147 24.9535 29.7147C24.8637 29.7147 24.7787 29.6981 24.6986 29.6649C24.6186 29.6298 24.5483 29.5829 24.4877 29.5243C24.4291 29.4637 24.3822 29.3934 24.3471 29.3134C24.3139 29.2333 24.2973 29.1483 24.2973 29.0585ZM28.9145 33.3182C28.8539 33.3085 28.7875 33.3016 28.7152 33.2977C28.643 33.2958 28.5678 33.2948 28.4897 33.2948C28.3959 33.2948 28.3002 33.2968 28.2025 33.3007C28.1068 33.3065 28.0131 33.3134 27.9213 33.3212C27.8295 33.329 27.7426 33.3378 27.6606 33.3475C27.5785 33.3573 27.5072 33.3661 27.4467 33.3739C27.5307 33.0907 27.5951 32.788 27.64 32.4657C27.6869 32.1434 27.7104 31.786 27.7104 31.3934C27.7104 31.3641 27.7094 31.3251 27.7074 31.2762C27.7074 31.2274 27.7055 31.1747 27.7016 31.118C27.6977 31.0614 27.6908 31.0048 27.6811 30.9481C27.6733 30.8895 27.6606 30.8368 27.643 30.7899C27.6274 30.743 27.6068 30.705 27.5815 30.6757C27.5561 30.6464 27.5248 30.6317 27.4877 30.6317C27.433 30.6317 27.3793 30.6512 27.3266 30.6903C27.2758 30.7294 27.2299 30.7811 27.1889 30.8456C27.1498 30.91 27.1176 30.9843 27.0922 31.0682C27.0688 31.1522 27.057 31.2391 27.057 31.329C27.057 31.4911 27.0609 31.6561 27.0688 31.8241C27.0766 31.9901 27.0893 32.1552 27.1068 32.3192C27.1244 32.4833 27.1469 32.6444 27.1742 32.8026C27.2016 32.9589 27.2358 33.1073 27.2768 33.2479C27.2436 33.246 27.2045 33.243 27.1596 33.2391C27.1205 33.2372 27.0746 33.2352 27.0219 33.2333C26.9692 33.2313 26.9086 33.2303 26.8402 33.2303C26.7133 33.2303 26.5668 33.2362 26.4008 33.2479C26.2348 33.2577 26.0551 33.2772 25.8617 33.3065C25.8852 33.1971 25.9057 33.0634 25.9233 32.9052C25.9408 32.7469 25.9555 32.5751 25.9672 32.3895C25.9789 32.204 25.9877 32.0106 25.9936 31.8094C26.0014 31.6063 26.0053 31.4061 26.0053 31.2089C26.0053 31.0624 26.0033 30.9188 25.9994 30.7782C25.9955 30.6376 25.9897 30.5048 25.9818 30.3798C25.976 30.2548 25.9672 30.1395 25.9555 30.0341C25.9438 29.9286 25.9301 29.8378 25.9145 29.7616C26.0727 29.7889 26.2192 29.8085 26.3539 29.8202C26.4887 29.83 26.6108 29.8348 26.7201 29.8348C26.7904 29.8348 26.8529 29.8339 26.9076 29.8319C26.9643 29.828 27.0121 29.8241 27.0512 29.8202C27.0981 29.8143 27.1391 29.8085 27.1742 29.8026C27.1625 29.8632 27.1508 29.9276 27.1391 29.996C27.1293 30.0643 27.1195 30.1385 27.1098 30.2186C27.1742 30.1366 27.2426 30.0653 27.3149 30.0048C27.3871 29.9423 27.4594 29.8905 27.5317 29.8495C27.6059 29.8085 27.6791 29.7782 27.7514 29.7587C27.8236 29.7372 27.892 29.7264 27.9565 29.7264C28.0971 29.7264 28.2182 29.7557 28.3197 29.8143C28.4233 29.871 28.5082 29.9608 28.5746 30.0839C28.643 30.2069 28.6938 30.3641 28.727 30.5555C28.7602 30.7469 28.7768 30.9764 28.7768 31.244C28.7768 31.4276 28.7768 31.6141 28.7768 31.8036C28.7787 31.993 28.7836 32.1786 28.7914 32.3602C28.7992 32.5419 28.8129 32.7147 28.8324 32.8788C28.852 33.0409 28.8793 33.1874 28.9145 33.3182ZM32.1195 29.8934C32.0981 29.9755 32.0795 30.076 32.0639 30.1952C32.0502 30.3124 32.0375 30.4413 32.0258 30.5819C32.0141 30.7206 32.0043 30.8651 31.9965 31.0155C31.9906 31.1659 31.9848 31.3134 31.9789 31.4579C31.9672 31.7977 31.9604 32.1581 31.9584 32.5389C31.9584 32.7382 31.9457 32.9335 31.9203 33.1249C31.8969 33.3143 31.8578 33.493 31.8031 33.661C31.7504 33.829 31.6811 33.9843 31.5951 34.1268C31.5092 34.2694 31.4047 34.3915 31.2817 34.493C31.1606 34.5946 31.0199 34.6737 30.8598 34.7303C30.6996 34.7889 30.518 34.8182 30.3149 34.8182C30.1254 34.8182 29.9613 34.7987 29.8227 34.7596C29.684 34.7206 29.5688 34.6649 29.477 34.5927C29.3871 34.5223 29.3197 34.4374 29.2748 34.3378C29.2318 34.2401 29.2104 34.1307 29.2104 34.0096C29.2104 33.8905 29.2309 33.7831 29.2719 33.6874C29.3129 33.5917 29.3666 33.5096 29.433 33.4413C29.4994 33.3749 29.5736 33.3241 29.6557 33.2889C29.7397 33.2538 29.8246 33.2362 29.9106 33.2362C30.0219 33.2362 30.1264 33.2675 30.224 33.33C30.3217 33.3925 30.3959 33.4911 30.4467 33.6259C30.4233 33.6102 30.3949 33.6024 30.3617 33.6024C30.3168 33.6024 30.2748 33.62 30.2358 33.6552C30.1967 33.6923 30.1772 33.7362 30.1772 33.787C30.1772 33.8163 30.182 33.8407 30.1918 33.8602C30.2035 33.8817 30.2182 33.8983 30.2358 33.91C30.2533 33.9218 30.2719 33.9296 30.2914 33.9335C30.3129 33.9393 30.3324 33.9423 30.35 33.9423C30.3715 33.9423 30.4008 33.9384 30.4379 33.9305C30.477 33.9247 30.519 33.9061 30.5639 33.8749C30.6088 33.8436 30.6537 33.7958 30.6986 33.7313C30.7436 33.6669 30.7846 33.578 30.8217 33.4647C30.8588 33.3514 30.8881 33.2079 30.9096 33.0341C30.933 32.8602 30.9447 32.6493 30.9447 32.4012C30.9057 32.5751 30.8568 32.7118 30.7983 32.8114C30.7397 32.911 30.6772 32.9862 30.6108 33.037C30.5443 33.0858 30.476 33.1161 30.4057 33.1278C30.3373 33.1395 30.2729 33.1454 30.2123 33.1454C30.1654 33.1454 30.1059 33.1376 30.0336 33.1219C29.9613 33.1044 29.8842 33.0751 29.8022 33.0341C29.7221 32.9911 29.64 32.9335 29.5561 32.8612C29.474 32.787 29.3998 32.6942 29.3334 32.5829C29.267 32.4696 29.2123 32.3348 29.1693 32.1786C29.1283 32.0204 29.1078 31.8348 29.1078 31.6219C29.1078 31.2938 29.141 31.0165 29.2074 30.7899C29.2758 30.5634 29.3627 30.3807 29.4682 30.2421C29.5756 30.1014 29.6938 30.0009 29.8227 29.9403C29.9516 29.8778 30.0775 29.8466 30.2006 29.8466C30.2885 29.8466 30.3686 29.8612 30.4408 29.8905C30.5131 29.9178 30.5785 29.955 30.6371 30.0018C30.6957 30.0487 30.7475 30.1014 30.7924 30.16C30.8373 30.2167 30.8774 30.2743 30.9125 30.3329C30.9008 30.2469 30.8861 30.161 30.8686 30.0751C30.8529 29.9891 30.8344 29.9022 30.8129 29.8143C30.8617 29.8358 30.9223 29.8553 30.9945 29.8729C31.057 29.8885 31.1352 29.9022 31.2289 29.9139C31.3227 29.9237 31.4359 29.9286 31.5688 29.9286C31.725 29.9286 31.9086 29.9169 32.1195 29.8934ZM30.8715 31.3641C30.8715 31.3094 30.8676 31.244 30.8598 31.1678C30.852 31.0897 30.8373 31.0155 30.8158 30.9452C30.7943 30.8729 30.7641 30.8114 30.725 30.7606C30.6879 30.7098 30.6391 30.6844 30.5785 30.6844C30.5336 30.6844 30.4926 30.7108 30.4555 30.7635C30.4184 30.8143 30.3861 30.8768 30.3588 30.951C30.3334 31.0233 30.3129 31.0985 30.2973 31.1766C30.2836 31.2548 30.2768 31.3212 30.2768 31.3759C30.2768 31.4696 30.2817 31.5653 30.2914 31.663C30.3012 31.7606 30.3168 31.8495 30.3383 31.9296C30.3617 32.0077 30.39 32.0721 30.4233 32.1229C30.4584 32.1737 30.4994 32.1991 30.5463 32.1991C30.5971 32.1991 30.642 32.1874 30.6811 32.1639C30.7221 32.1385 30.7563 32.1053 30.7836 32.0643C30.8129 32.0214 30.8344 31.9725 30.8481 31.9178C30.8637 31.8632 30.8715 31.8046 30.8715 31.7421V31.3641ZM36.7426 31.1825C36.7426 31.5009 36.7074 31.7743 36.6371 32.0028C36.5668 32.2313 36.474 32.4257 36.3588 32.5858C36.2436 32.744 36.1127 32.8719 35.9662 32.9696C35.8197 33.0653 35.6703 33.1405 35.518 33.1952C35.3676 33.2479 35.2201 33.2831 35.0756 33.3007C34.9311 33.3182 34.8031 33.327 34.6918 33.327C34.5024 33.327 34.3402 33.3202 34.2055 33.3065C34.0727 33.2948 33.9623 33.2889 33.8744 33.2889C33.7748 33.2889 33.6645 33.2909 33.5434 33.2948C33.4223 33.2987 33.2943 33.3065 33.1596 33.3182C33.2123 33.2225 33.2582 33.1161 33.2973 32.9989C33.3383 32.8798 33.3734 32.7557 33.4027 32.6268C33.432 32.4979 33.4565 32.368 33.476 32.2372C33.4975 32.1044 33.515 31.9764 33.5287 31.8534C33.56 31.5643 33.5775 31.2675 33.5815 30.9628C33.5775 30.66 33.5629 30.3759 33.5375 30.1102C33.5258 29.9969 33.5111 29.8837 33.4936 29.7704C33.4779 29.6552 33.4584 29.5468 33.435 29.4452C33.4115 29.3417 33.3832 29.2489 33.35 29.1669C33.3188 29.0848 33.2817 29.0194 33.2387 28.9706C33.3832 28.994 33.5199 29.0096 33.6488 29.0175C33.7797 29.0253 33.8949 29.0292 33.9945 29.0292C34.059 29.0292 34.1215 29.0272 34.182 29.0233C34.2426 29.0194 34.3051 29.0155 34.3695 29.0116C34.434 29.0077 34.5024 29.0038 34.5746 28.9999C34.6488 28.996 34.7318 28.994 34.8236 28.994C34.9565 28.994 35.0961 29.0038 35.2426 29.0233C35.391 29.0409 35.5356 29.077 35.6762 29.1317C35.8188 29.1864 35.9545 29.2635 36.0834 29.3632C36.2123 29.4628 36.3256 29.5936 36.4233 29.7557C36.5209 29.9178 36.5981 30.1161 36.6547 30.3505C36.7133 30.5829 36.7426 30.8602 36.7426 31.1825ZM35.31 31.118C35.31 30.8895 35.3031 30.6991 35.2895 30.5468C35.2758 30.3944 35.2553 30.2723 35.2279 30.1805C35.2025 30.0868 35.1703 30.0204 35.1313 29.9813C35.0922 29.9423 35.0473 29.9227 34.9965 29.9227C34.9516 29.9227 34.9106 29.9462 34.8734 29.993C34.8383 30.038 34.808 30.1112 34.7826 30.2128C34.7572 30.3143 34.7377 30.4452 34.724 30.6053C34.7104 30.7635 34.7035 30.9559 34.7035 31.1825C34.7035 31.4208 34.7094 31.62 34.7211 31.7802C34.7348 31.9384 34.7533 32.0653 34.7768 32.161C34.8022 32.2567 34.8324 32.3251 34.8676 32.3661C34.9047 32.4052 34.9477 32.4247 34.9965 32.4247C35.0922 32.4247 35.1684 32.3202 35.225 32.1112C35.2817 31.9022 35.31 31.5712 35.31 31.118ZM39.7895 31.5487C39.7895 31.662 39.7807 31.787 39.7631 31.9237C39.7455 32.0585 39.7162 32.1952 39.6752 32.3339C39.6342 32.4706 39.5785 32.6044 39.5082 32.7352C39.4379 32.8641 39.35 32.9784 39.2445 33.078C39.141 33.1776 39.017 33.2577 38.8725 33.3182C38.7279 33.3788 38.56 33.4091 38.3686 33.4091C38.1772 33.4091 38.0092 33.3807 37.8647 33.3241C37.7221 33.2675 37.599 33.1923 37.4955 33.0985C37.394 33.0028 37.31 32.8934 37.2436 32.7704C37.1772 32.6454 37.1244 32.5145 37.0854 32.3778C37.0463 32.2411 37.019 32.1034 37.0033 31.9647C36.9897 31.8241 36.9828 31.6913 36.9828 31.5663C36.9828 31.3456 37.0121 31.1298 37.0707 30.9188C37.1293 30.7059 37.2182 30.5165 37.3373 30.3505C37.4584 30.1844 37.6088 30.0507 37.7885 29.9491C37.9701 29.8475 38.183 29.7968 38.4272 29.7968C38.5912 29.7968 38.7387 29.8221 38.8695 29.8729C39.0004 29.9218 39.1166 29.9891 39.2182 30.0751C39.3197 30.161 39.4057 30.2616 39.476 30.3768C39.5483 30.4921 39.6078 30.6141 39.6547 30.743C39.7016 30.8719 39.7358 31.0057 39.7572 31.1444C39.7787 31.2831 39.7895 31.4178 39.7895 31.5487ZM38.7699 31.6454C38.7699 31.6005 38.768 31.5448 38.7641 31.4784C38.7621 31.41 38.7563 31.3387 38.7465 31.2645C38.7367 31.1903 38.7231 31.1161 38.7055 31.0419C38.6899 30.9677 38.6684 30.9012 38.641 30.8427C38.6137 30.7841 38.5795 30.7362 38.5385 30.6991C38.4994 30.662 38.4525 30.6434 38.3979 30.6434C38.3451 30.6434 38.2992 30.661 38.2602 30.6962C38.2211 30.7313 38.1869 30.7772 38.1576 30.8339C38.1303 30.8905 38.1068 30.955 38.0873 31.0272C38.0697 31.0975 38.0551 31.1688 38.0434 31.2411C38.0336 31.3114 38.0258 31.3798 38.0199 31.4462C38.016 31.5106 38.0141 31.5653 38.0141 31.6102C38.0141 31.6747 38.019 31.7528 38.0287 31.8446C38.0385 31.9364 38.057 32.0243 38.0844 32.1083C38.1117 32.1923 38.1488 32.2645 38.1957 32.3251C38.2445 32.3837 38.308 32.413 38.3861 32.413C38.4604 32.413 38.5219 32.3856 38.5707 32.3309C38.6215 32.2762 38.6615 32.2098 38.6908 32.1317C38.7201 32.0516 38.7406 31.9677 38.7524 31.8798C38.7641 31.7919 38.7699 31.7137 38.7699 31.6454ZM43.0297 29.8934C43.0082 29.9755 42.9897 30.076 42.974 30.1952C42.9604 30.3124 42.9477 30.4413 42.9359 30.5819C42.9242 30.7206 42.9145 30.8651 42.9067 31.0155C42.9008 31.1659 42.8949 31.3134 42.8891 31.4579C42.8774 31.7977 42.8705 32.1581 42.8686 32.5389C42.8686 32.7382 42.8559 32.9335 42.8305 33.1249C42.807 33.3143 42.768 33.493 42.7133 33.661C42.6606 33.829 42.5912 33.9843 42.5053 34.1268C42.4193 34.2694 42.3149 34.3915 42.1918 34.493C42.0707 34.5946 41.9301 34.6737 41.7699 34.7303C41.6098 34.7889 41.4281 34.8182 41.225 34.8182C41.0356 34.8182 40.8715 34.7987 40.7328 34.7596C40.5942 34.7206 40.4789 34.6649 40.3871 34.5927C40.2973 34.5223 40.2299 34.4374 40.185 34.3378C40.142 34.2401 40.1205 34.1307 40.1205 34.0096C40.1205 33.8905 40.141 33.7831 40.182 33.6874C40.2231 33.5917 40.2768 33.5096 40.3432 33.4413C40.4096 33.3749 40.4838 33.3241 40.5658 33.2889C40.6498 33.2538 40.7348 33.2362 40.8207 33.2362C40.932 33.2362 41.0365 33.2675 41.1342 33.33C41.2318 33.3925 41.3061 33.4911 41.3568 33.6259C41.3334 33.6102 41.3051 33.6024 41.2719 33.6024C41.227 33.6024 41.185 33.62 41.1459 33.6552C41.1068 33.6923 41.0873 33.7362 41.0873 33.787C41.0873 33.8163 41.0922 33.8407 41.102 33.8602C41.1137 33.8817 41.1283 33.8983 41.1459 33.91C41.1635 33.9218 41.182 33.9296 41.2016 33.9335C41.2231 33.9393 41.2426 33.9423 41.2602 33.9423C41.2817 33.9423 41.3109 33.9384 41.3481 33.9305C41.3871 33.9247 41.4291 33.9061 41.474 33.8749C41.519 33.8436 41.5639 33.7958 41.6088 33.7313C41.6537 33.6669 41.6947 33.578 41.7318 33.4647C41.769 33.3514 41.7983 33.2079 41.8197 33.0341C41.8432 32.8602 41.8549 32.6493 41.8549 32.4012C41.8158 32.5751 41.767 32.7118 41.7084 32.8114C41.6498 32.911 41.5873 32.9862 41.5209 33.037C41.4545 33.0858 41.3861 33.1161 41.3158 33.1278C41.2475 33.1395 41.183 33.1454 41.1225 33.1454C41.0756 33.1454 41.016 33.1376 40.9438 33.1219C40.8715 33.1044 40.7943 33.0751 40.7123 33.0341C40.6322 32.9911 40.5502 32.9335 40.4662 32.8612C40.3842 32.787 40.31 32.6942 40.2436 32.5829C40.1772 32.4696 40.1225 32.3348 40.0795 32.1786C40.0385 32.0204 40.018 31.8348 40.018 31.6219C40.018 31.2938 40.0512 31.0165 40.1176 30.7899C40.1859 30.5634 40.2729 30.3807 40.3783 30.2421C40.4858 30.1014 40.6039 30.0009 40.7328 29.9403C40.8617 29.8778 40.9877 29.8466 41.1108 29.8466C41.1986 29.8466 41.2787 29.8612 41.351 29.8905C41.4233 29.9178 41.4887 29.955 41.5473 30.0018C41.6059 30.0487 41.6576 30.1014 41.7025 30.16C41.7475 30.2167 41.7875 30.2743 41.8227 30.3329C41.8109 30.2469 41.7963 30.161 41.7787 30.0751C41.7631 29.9891 41.7445 29.9022 41.7231 29.8143C41.7719 29.8358 41.8324 29.8553 41.9047 29.8729C41.9672 29.8885 42.0453 29.9022 42.1391 29.9139C42.2328 29.9237 42.3461 29.9286 42.4789 29.9286C42.6352 29.9286 42.8188 29.9169 43.0297 29.8934ZM41.7817 31.3641C41.7817 31.3094 41.7777 31.244 41.7699 31.1678C41.7621 31.0897 41.7475 31.0155 41.726 30.9452C41.7045 30.8729 41.6742 30.8114 41.6352 30.7606C41.5981 30.7098 41.5492 30.6844 41.4887 30.6844C41.4438 30.6844 41.4027 30.7108 41.3656 30.7635C41.3285 30.8143 41.2963 30.8768 41.269 30.951C41.2436 31.0233 41.2231 31.0985 41.2074 31.1766C41.1938 31.2548 41.1869 31.3212 41.1869 31.3759C41.1869 31.4696 41.1918 31.5653 41.2016 31.663C41.2113 31.7606 41.227 31.8495 41.2484 31.9296C41.2719 32.0077 41.3002 32.0721 41.3334 32.1229C41.3686 32.1737 41.4096 32.1991 41.4565 32.1991C41.5072 32.1991 41.5522 32.1874 41.5912 32.1639C41.6322 32.1385 41.6664 32.1053 41.6938 32.0643C41.7231 32.0214 41.7445 31.9725 41.7582 31.9178C41.7738 31.8632 41.7817 31.8046 41.7817 31.7421V31.3641Z" fill="white" fill-opacity="0.9"/>
<defs>
<filter id="filter0_d_3286_55" x="0" y="0.0865479" width="62.9316" height="87.4896" filterUnits="userSpaceOnUse" color-interpolation-filters="sRGB">
<feFlood flood-opacity="0" result="BackgroundImageFix"/>
<feColorMatrix in="SourceAlpha" type="matrix" values="0 0 0 0 0 0 0 0 0 0 0 0 0 0 0 0 0 0 127 0" result="hardAlpha"/>
<feOffset dy="4"/>
<feComposite in2="hardAlpha" operator="out"/>
<feColorMatrix type="matrix" values="0 0 0 0 0 0 0 0 0 0 0 0 0 0 0 0 0 0 0.25 0"/>
<feBlend mode="normal" in2="BackgroundImageFix" result="effect1_dropShadow_3286_55"/>
<feBlend mode="normal" in="SourceGraphic" in2="effect1_dropShadow_3286_55" result="shape"/>
</filter>
<filter id="filter1_d_3286_55" x="11.0137" y="21.0432" width="41.1055" height="43.5763" filterUnits="userSpaceOnUse" color-interpolation-filters="sRGB">
<feFlood flood-opacity="0" result="BackgroundImageFix"/>
<feColorMatrix in="SourceAlpha" type="matrix" values="0 0 0 0 0 0 0 0 0 0 0 0 0 0 0 0 0 0 127 0" result="hardAlpha"/>
<feOffset dy="2"/>
<feComposite in2="hardAlpha" operator="out"/>
<feColorMatrix type="matrix" values="0 0 0 0 0 0 0 0 0 0 0 0 0 0 0 0 0 0 0.25 0"/>
<feBlend mode="normal" in2="BackgroundImageFix" result="effect1_dropShadow_3286_55"/>
<feBlend mode="normal" in="SourceGraphic" in2="effect1_dropShadow_3286_55" result="shape"/>
</filter>
<filter id="filter2_d_3286_55" x="3.08203" y="3.16534" width="15.002" height="7.23645" filterUnits="userSpaceOnUse" color-interpolation-filters="sRGB">
<feFlood flood-opacity="0" result="BackgroundImageFix"/>
<feColorMatrix in="SourceAlpha" type="matrix" values="0 0 0 0 0 0 0 0 0 0 0 0 0 0 0 0 0 0 127 0" result="hardAlpha"/>
<feOffset dy="1"/>
<feComposite in2="hardAlpha" operator="out"/>
<feColorMatrix type="matrix" values="0 0 0 0 0 0 0 0 0 0 0 0 0 0 0 0 0 0 0.25 0"/>
<feBlend mode="normal" in2="BackgroundImageFix" result="effect1_dropShadow_3286_55"/>
<feBlend mode="normal" in="SourceGraphic" in2="effect1_dropShadow_3286_55" result="shape"/>
</filter>
<filter id="filter3_d_3286_55" x="45.2344" y="72.8451" width="15.002" height="7.23645" filterUnits="userSpaceOnUse" color-interpolation-filters="sRGB">
<feFlood flood-opacity="0" result="BackgroundImageFix"/>
<feColorMatrix in="SourceAlpha" type="matrix" values="0 0 0 0 0 0 0 0 0 0 0 0 0 0 0 0 0 0 127 0" result="hardAlpha"/>
<feOffset dy="-1"/>
<feComposite in2="hardAlpha" operator="out"/>
<feColorMatrix type="matrix" values="0 0 0 0 0 0 0 0 0 0 0 0 0 0 0 0 0 0 0.25 0"/>
<feBlend mode="normal" in2="BackgroundImageFix" result="effect1_dropShadow_3286_55"/>
<feBlend mode="normal" in="SourceGraphic" in2="effect1_dropShadow_3286_55" result="shape"/>
</filter>
</defs>
</svg>
