<svg width="62" height="86" viewBox="0 0 62 86" fill="none" xmlns="http://www.w3.org/2000/svg">
<g filter="url(#filter0_d_3277_147)">
<path d="M59.7671 1H2.23288C1.55198 1 1 1.54822 1 2.22449V79.7755C1 80.4518 1.55198 81 2.23288 81H59.7671C60.448 81 61 80.4518 61 79.7755V2.22449C61 1.54822 60.448 1 59.7671 1Z" fill="#B87DE8" stroke="#5A189A" stroke-width="2"/>
<path fill-rule="evenodd" clip-rule="evenodd" d="M16.549 6.34601L14.0224 3.1088L10.7715 5.62478L13.2981 8.86203L16.549 6.34601ZM15.5861 6.22579L13.9016 4.06766L11.7344 5.74499L13.4189 7.90313L15.5861 6.22579Z" fill="white" fill-opacity="0.05"/>
<path fill-rule="evenodd" clip-rule="evenodd" d="M24.5639 7.06561L25.867 3.17643L21.9613 1.87878L20.6582 5.76797L24.5639 7.06561ZM24.1301 6.20113L24.9989 3.60836L22.3951 2.74325L21.5263 5.33604L24.1301 6.20113Z" fill="white" fill-opacity="0.05"/>
<path fill-rule="evenodd" clip-rule="evenodd" d="M8.27302 16.3224L10.7862 13.0749L7.52494 10.5722L5.01172 13.8198L8.27302 16.3224ZM8.14831 15.3641L9.82386 13.1991L7.64961 11.5306L5.97415 13.6956L8.14831 15.3641Z" fill="white" fill-opacity="0.05"/>
<path fill-rule="evenodd" clip-rule="evenodd" d="M7.76066 7.19658L6.97775 3.17142L2.93555 3.95099L3.71843 7.97619L7.76066 7.19658ZM6.95647 6.65567L6.43455 3.97221L3.73973 4.49191L4.26165 7.17538L6.95647 6.65567Z" fill="white" fill-opacity="0.05"/>
<path fill-rule="evenodd" clip-rule="evenodd" d="M18.9226 17.0054L18.2259 12.9645L14.168 13.6582L14.8646 17.6991L18.9226 17.0054ZM18.1302 16.4475L17.6657 13.7536L14.9604 14.2161L15.4248 16.91L18.1302 16.4475Z" fill="white" fill-opacity="0.05"/>
<path fill-rule="evenodd" clip-rule="evenodd" d="M36.448 8.13358L35.7513 4.09274L31.6934 4.78645L32.39 8.82729L36.448 8.13358ZM35.6556 7.57574L35.1911 4.88186L32.4858 5.34429L32.9502 8.03821L35.6556 7.57574Z" fill="white" fill-opacity="0.05"/>
<path fill-rule="evenodd" clip-rule="evenodd" d="M13.0983 36.9117L14.3374 33.0018L10.4111 31.7679L9.17188 35.6777L13.0983 36.9117ZM12.6504 36.0544L13.4766 33.4478L10.859 32.6252L10.0329 35.2317L12.6504 36.0544Z" fill="white" fill-opacity="0.05"/>
<path fill-rule="evenodd" clip-rule="evenodd" d="M10.359 28.0474L14.41 27.3147L13.6741 23.2807L9.62305 24.0135L10.359 28.0474ZM10.9115 27.253L13.6122 26.7644L13.1216 24.0752L10.4209 24.5637L10.9115 27.253Z" fill="white" fill-opacity="0.05"/>
<path fill-rule="evenodd" clip-rule="evenodd" d="M2.29492 25.3913L6.39093 25.808L6.80934 21.7292L2.71333 21.3126L2.29492 25.3913ZM3.04732 24.781L5.77803 25.0587L6.05693 22.3396L3.32626 22.0618L3.04732 24.781Z" fill="white" fill-opacity="0.05"/>
<path fill-rule="evenodd" clip-rule="evenodd" d="M3.28214 38.4119L7.27937 37.4289L6.29216 33.4485L2.29492 34.4316L3.28214 38.4119ZM3.7838 37.5847L6.44862 36.9293L5.7905 34.2757L3.12566 34.9311L3.7838 37.5847Z" fill="white" fill-opacity="0.05"/>
<path fill-rule="evenodd" clip-rule="evenodd" d="M26.8255 22.5962L29.8513 19.8157L27.059 16.8026L24.0332 19.5832L26.8255 22.5962ZM26.8644 21.6306L28.8816 19.7769L27.0201 17.7683L25.0029 19.6219L26.8644 21.6306Z" fill="white" fill-opacity="0.05"/>
<path fill-rule="evenodd" clip-rule="evenodd" d="M22.6348 13.4194L26.7307 13.837L27.15 9.75825L23.054 9.34079L22.6348 13.4194ZM23.3873 12.8093L26.118 13.0875L26.3974 10.3685L23.6668 10.0902L23.3873 12.8093Z" fill="white" fill-opacity="0.05"/>
<path fill-rule="evenodd" clip-rule="evenodd" d="M35.2552 20.3957L38.7595 18.2434L36.5981 14.7538L33.0938 16.9062L35.2552 20.3957ZM35.479 19.4554L37.8153 18.0205L36.3743 15.6941L34.038 17.129L35.479 19.4554Z" fill="white" fill-opacity="0.05"/>
<path fill-rule="evenodd" clip-rule="evenodd" d="M22.7767 29.5921L23.0433 25.5007L18.9346 25.2352L18.668 29.3266L22.7767 29.5921ZM22.1363 28.8659L22.314 26.1383L19.5749 25.9613L19.3971 28.6889L22.1363 28.8659Z" fill="white" fill-opacity="0.05"/>
<path fill-rule="evenodd" clip-rule="evenodd" d="M33.1157 27.2184L30.5415 24.0186L27.3281 26.582L29.9024 29.7817L33.1157 27.2184ZM32.1512 27.1123L30.435 24.9791L28.2927 26.6881L30.0089 28.8213L32.1512 27.1123Z" fill="white" fill-opacity="0.05"/>
<path fill-rule="evenodd" clip-rule="evenodd" d="M40.686 31.249L39.9421 27.2165L35.8926 27.9571L36.6363 31.9897L40.686 31.249ZM39.8871 30.7004L39.3912 28.012L36.6915 28.5058L37.1873 31.1941L39.8871 30.7004Z" fill="white" fill-opacity="0.05"/>
<path fill-rule="evenodd" clip-rule="evenodd" d="M37.5619 39.6961L39.1182 35.9003L35.3063 34.3506L33.75 38.1464L37.5619 39.6961ZM37.1859 38.8052L38.2235 36.2746L35.6822 35.2415L34.6447 37.772L37.1859 38.8052Z" fill="white" fill-opacity="0.05"/>
<path fill-rule="evenodd" clip-rule="evenodd" d="M27.1103 37.1465L25.7701 33.2698L21.877 34.6043L23.2171 38.481L27.1103 37.1465ZM26.238 36.7228L25.3446 34.1383L22.7492 35.028L23.6426 37.6125L26.238 36.7228Z" fill="white" fill-opacity="0.05"/>
<path fill-rule="evenodd" clip-rule="evenodd" d="M16.9611 44.0658L14.4345 40.8285L11.1836 43.3446L13.7102 46.5815L16.9611 44.0658ZM15.9982 43.9453L14.3138 41.7874L12.1465 43.4647L13.831 45.623L15.9982 43.9453Z" fill="white" fill-opacity="0.05"/>
<path fill-rule="evenodd" clip-rule="evenodd" d="M24.9741 44.7853L26.2772 40.8961L22.3715 39.5985L21.0684 43.4877L24.9741 44.7853ZM24.5403 43.9207L25.409 41.3278L22.8053 40.463L21.9365 43.0556L24.5403 43.9207Z" fill="white" fill-opacity="0.05"/>
<path fill-rule="evenodd" clip-rule="evenodd" d="M8.68708 54.0423L11.2003 50.7947L7.939 48.2921L5.42578 51.5397L8.68708 54.0423ZM8.56237 53.0837L10.2379 50.9189L8.06368 49.2502L6.38821 51.4154L8.56237 53.0837Z" fill="white" fill-opacity="0.05"/>
<path fill-rule="evenodd" clip-rule="evenodd" d="M8.17082 44.9165L7.38791 40.8911L3.3457 41.6705L4.12859 45.6959L8.17082 44.9165ZM7.36662 44.3753L6.84471 41.6918L4.14989 42.2117L4.67182 44.8951L7.36662 44.3753Z" fill="white" fill-opacity="0.05"/>
<path fill-rule="evenodd" clip-rule="evenodd" d="M19.3347 54.7249L18.638 50.6844L14.5801 51.3781L15.2767 55.4186L19.3347 54.7249ZM18.5423 54.1673L18.0778 51.4732L15.3725 51.9357L15.8369 54.6298L18.5423 54.1673Z" fill="white" fill-opacity="0.05"/>
<path fill-rule="evenodd" clip-rule="evenodd" d="M36.8581 45.8533L36.1615 41.8124L32.1035 42.5061L32.8002 46.547L36.8581 45.8533ZM36.0657 45.2953L35.6013 42.6016L32.8959 43.0641L33.3604 45.7578L36.0657 45.2953Z" fill="white" fill-opacity="0.05"/>
<path fill-rule="evenodd" clip-rule="evenodd" d="M13.5085 74.6314L14.7476 70.7217L10.8212 69.4876L9.58203 73.3973L13.5085 74.6314ZM13.0606 73.7741L13.8867 71.1674L11.2691 70.3449L10.443 72.9513L13.0606 73.7741Z" fill="white" fill-opacity="0.05"/>
<path fill-rule="evenodd" clip-rule="evenodd" d="M10.7711 65.767L14.8221 65.0344L14.0862 61.0004L10.0352 61.7331L10.7711 65.767ZM11.3236 64.9729L14.0243 64.4841L13.5337 61.795L10.833 62.2833L11.3236 64.9729Z" fill="white" fill-opacity="0.05"/>
<path fill-rule="evenodd" clip-rule="evenodd" d="M2.70703 63.1109L6.80304 63.5275L7.22145 59.4488L3.12544 59.0323L2.70703 63.1109ZM3.45943 62.5009L6.19014 62.7784L6.46904 60.0593L3.73837 59.7814L3.45943 62.5009Z" fill="white" fill-opacity="0.05"/>
<path fill-rule="evenodd" clip-rule="evenodd" d="M3.69425 76.1316L7.69148 75.1485L6.70427 71.1682L2.70703 72.1514L3.69425 76.1316ZM4.19591 75.3043L6.86073 74.6491L6.20261 71.9956L3.53777 72.6508L4.19591 75.3043Z" fill="white" fill-opacity="0.05"/>
<path fill-rule="evenodd" clip-rule="evenodd" d="M27.2376 60.316L30.2634 57.5354L27.4711 54.5223L24.4453 57.3029L27.2376 60.316ZM27.2766 59.3504L29.2937 57.4964L27.4322 55.4879L25.415 57.3414L27.2766 59.3504Z" fill="white" fill-opacity="0.05"/>
<path fill-rule="evenodd" clip-rule="evenodd" d="M23.0449 51.1391L27.1408 51.5565L27.5602 47.4779L23.4641 47.0605L23.0449 51.1391ZM23.7975 50.5291L26.5281 50.8074L26.8076 48.0883L24.077 47.81L23.7975 50.5291Z" fill="white" fill-opacity="0.05"/>
<path fill-rule="evenodd" clip-rule="evenodd" d="M35.6653 58.1155L39.1697 55.963L37.0083 52.4735L33.5039 54.6256L35.6653 58.1155ZM35.8892 57.1749L38.2254 55.74L36.7844 53.4136L34.4482 54.8486L35.8892 57.1749Z" fill="white" fill-opacity="0.05"/>
<path fill-rule="evenodd" clip-rule="evenodd" d="M23.1888 67.3117L23.4554 63.2204L19.3467 62.9547L19.0801 67.046L23.1888 67.3117ZM22.5484 66.5856L22.7261 63.8579L19.987 63.6808L19.8093 66.4085L22.5484 66.5856Z" fill="white" fill-opacity="0.05"/>
<path fill-rule="evenodd" clip-rule="evenodd" d="M33.5259 64.9379L30.9516 61.7383L27.7383 64.3016L30.3125 67.5016L33.5259 64.9379ZM32.5614 64.8321L30.8451 62.6989L28.7029 64.4078L30.4191 66.541L32.5614 64.8321Z" fill="white" fill-opacity="0.05"/>
<path fill-rule="evenodd" clip-rule="evenodd" d="M41.0961 68.9685L40.3523 64.9362L36.3027 65.6766L37.0465 69.7094L41.0961 68.9685ZM40.2972 68.4199L39.8014 65.7316L37.1017 66.2256L37.5975 68.914L40.2972 68.4199Z" fill="white" fill-opacity="0.05"/>
<path fill-rule="evenodd" clip-rule="evenodd" d="M37.974 77.4158L39.5303 73.6201L35.7184 72.0703L34.1621 75.866L37.974 77.4158ZM37.598 76.5249L38.6356 73.9944L36.0943 72.9612L35.0568 75.4917L37.598 76.5249Z" fill="white" fill-opacity="0.05"/>
<path fill-rule="evenodd" clip-rule="evenodd" d="M27.5243 74.866L26.1841 70.9894L22.291 72.324L23.6312 76.2005L27.5243 74.866ZM26.6521 74.4424L25.7586 71.8578L23.1632 72.7475L24.0567 75.3321L26.6521 74.4424Z" fill="white" fill-opacity="0.05"/>
<path fill-rule="evenodd" clip-rule="evenodd" d="M55.254 6.75601L52.7272 3.5188L49.4766 6.03478L52.003 9.27204L55.254 6.75601ZM54.291 6.6358L52.6066 4.47766L50.4392 6.15499L52.1236 8.31314L54.291 6.6358Z" fill="white" fill-opacity="0.05"/>
<path fill-rule="evenodd" clip-rule="evenodd" d="M46.9781 16.7324L49.4914 13.4849L46.23 10.9822L43.7168 14.2298L46.9781 16.7324ZM46.8534 15.7741L48.5287 13.6091L46.3548 11.9406L44.679 14.1056L46.8534 15.7741Z" fill="white" fill-opacity="0.05"/>
<path fill-rule="evenodd" clip-rule="evenodd" d="M46.4618 7.60658L45.6791 3.58142L41.6367 4.36101L42.4194 8.38619L46.4618 7.60658ZM45.6577 7.06567L45.1356 4.38221L42.4408 4.90192L42.9629 7.58539L45.6577 7.06567Z" fill="white" fill-opacity="0.05"/>
<path fill-rule="evenodd" clip-rule="evenodd" d="M57.6254 17.4154L56.9287 13.3745L52.8711 14.0682L53.5678 18.1091L57.6254 17.4154ZM56.8332 16.8575L56.3688 14.1636L53.6633 14.6261L54.1277 17.32L56.8332 16.8575Z" fill="white" fill-opacity="0.05"/>
<path fill-rule="evenodd" clip-rule="evenodd" d="M51.7993 37.3217L53.0387 33.4118L49.1124 32.1779L47.873 36.0877L51.7993 37.3217ZM51.3514 36.4644L52.1777 33.8578L49.5599 33.0352L48.734 35.6417L51.3514 36.4644Z" fill="white" fill-opacity="0.05"/>
<path fill-rule="evenodd" clip-rule="evenodd" d="M49.0619 28.4574L53.113 27.7247L52.3772 23.6907L48.3262 24.4235L49.0619 28.4574ZM49.6145 27.663L52.3155 27.1744L51.8247 24.4852L49.1241 24.9737L49.6145 27.663Z" fill="white" fill-opacity="0.05"/>
<path fill-rule="evenodd" clip-rule="evenodd" d="M40.9961 25.8013L45.092 26.218L45.5103 22.1392L41.4144 21.7226L40.9961 25.8013ZM41.7483 25.191L44.4794 25.4687L44.7581 22.7496L42.0275 22.4718L41.7483 25.191Z" fill="white" fill-opacity="0.05"/>
<path fill-rule="evenodd" clip-rule="evenodd" d="M41.9834 38.8219L45.9805 37.8389L44.9932 33.8585L40.9961 34.8416L41.9834 38.8219ZM42.4849 37.9947L45.1497 37.3393L44.4917 34.6857L41.827 35.3412L42.4849 37.9947Z" fill="white" fill-opacity="0.05"/>
<path fill-rule="evenodd" clip-rule="evenodd" d="M57.7247 46.1158L55.1979 42.8784L51.9473 45.3946L54.4737 48.6315L57.7247 46.1158ZM56.7617 45.9952L55.0773 43.8374L52.9099 45.5147L54.5943 47.6729L56.7617 45.9952Z" fill="white" fill-opacity="0.05"/>
<path fill-rule="evenodd" clip-rule="evenodd" d="M49.4488 56.0922L51.9621 52.8447L48.7007 50.342L46.1875 53.5896L49.4488 56.0922ZM49.3241 55.1337L50.9994 52.9689L48.8255 51.3002L47.1497 53.4654L49.3241 55.1337Z" fill="white" fill-opacity="0.05"/>
<path fill-rule="evenodd" clip-rule="evenodd" d="M48.9325 46.9665L48.1498 42.9411L44.1074 43.7205L44.8901 47.7459L48.9325 46.9665ZM48.1284 46.4253L47.6063 43.7419L44.9115 44.2617L45.4336 46.9452L48.1284 46.4253Z" fill="white" fill-opacity="0.05"/>
<path fill-rule="evenodd" clip-rule="evenodd" d="M60.0961 56.7749L59.3994 52.7344L55.3418 53.4281L56.0385 57.4686L60.0961 56.7749ZM59.3039 56.2173L58.8395 53.5232L56.134 53.9857L56.5984 56.6798L59.3039 56.2173Z" fill="white" fill-opacity="0.05"/>
<path fill-rule="evenodd" clip-rule="evenodd" d="M54.27 76.6814L55.5094 72.7717L51.5831 71.5376L50.3438 75.4473L54.27 76.6814ZM53.8221 75.8241L54.6484 73.2173L52.0306 72.3949L51.2047 75.0012L53.8221 75.8241Z" fill="white" fill-opacity="0.05"/>
<path fill-rule="evenodd" clip-rule="evenodd" d="M51.5326 67.817L55.5837 67.0843L54.8479 63.0504L50.7969 63.783L51.5326 67.817ZM52.0852 67.0228L54.7862 66.5341L54.2954 63.8449L51.5948 64.3332L52.0852 67.0228Z" fill="white" fill-opacity="0.05"/>
<path fill-rule="evenodd" clip-rule="evenodd" d="M43.4668 65.1609L47.5627 65.5775L47.981 61.4988L43.8851 61.0823L43.4668 65.1609ZM44.219 64.5508L46.9501 64.8284L47.2288 62.1093L44.4982 61.8313L44.219 64.5508Z" fill="white" fill-opacity="0.05"/>
<path fill-rule="evenodd" clip-rule="evenodd" d="M44.4541 78.1816L48.4512 77.1984L47.4639 73.2182L43.4668 74.2014L44.4541 78.1816ZM44.9556 77.3542L47.6204 76.6991L46.9624 74.0456L44.2977 74.7007L44.9556 77.3542Z" fill="white" fill-opacity="0.05"/>
<g filter="url(#filter1_d_3277_147)">
<path d="M23.0773 43.1473H19.6385V46.6504H16.4368V43.1473H12.998V40.1363H16.4368V36.6136H19.6385V40.1363H23.0773V43.1473ZM35.2896 37.086H29.1234V39.8018C29.3869 39.5131 29.7559 39.277 30.2302 39.0933C30.7045 38.9096 31.2183 38.8178 31.7717 38.8178C32.7599 38.8178 33.5768 39.0408 34.2224 39.4869C34.8811 39.933 35.362 40.5102 35.6651 41.2187C35.9681 41.9272 36.1196 42.6947 36.1196 43.5213C36.1196 45.0563 35.6848 46.2764 34.8152 47.1817C33.9457 48.0739 32.7203 48.5199 31.1393 48.5199C30.0852 48.5199 29.1696 48.3428 28.3922 47.9886C27.6148 47.6212 27.0154 47.1161 26.5937 46.4732C26.1721 45.8304 25.9416 45.0891 25.902 44.2494H29.2025C29.2815 44.6561 29.4726 44.9972 29.7756 45.2728C30.0787 45.5352 30.4937 45.6664 31.0207 45.6664C31.64 45.6664 32.1011 45.4696 32.4041 45.076C32.7072 44.6824 32.8587 44.1576 32.8587 43.5016C32.8587 42.8587 32.7006 42.3667 32.3844 42.0256C32.0682 41.6845 31.607 41.5139 31.0009 41.5139C30.553 41.5139 30.1841 41.6254 29.8942 41.8485C29.6043 42.0584 29.4133 42.3405 29.3211 42.6947H26.0601V34.134H35.2896V37.086ZM37.9851 41.14C37.9851 38.8834 38.4199 37.1056 39.2895 35.8068C40.1722 34.5079 41.5884 33.8585 43.5384 33.8585C45.4884 33.8585 46.8982 34.5079 47.7677 35.8068C48.6505 37.1056 49.0919 38.8834 49.0919 41.14C49.0919 43.4229 48.6505 45.2137 47.7677 46.5126C46.8982 47.8115 45.4884 48.4609 43.5384 48.4609C41.5884 48.4609 40.1722 47.8115 39.2895 46.5126C38.4199 45.2137 37.9851 43.4229 37.9851 41.14ZM45.7717 41.14C45.7717 39.8149 45.6267 38.7981 45.3369 38.0896C45.047 37.368 44.4475 37.0072 43.5384 37.0072C42.6293 37.0072 42.0298 37.368 41.74 38.0896C41.4501 38.7981 41.3053 39.8149 41.3053 41.14C41.3053 42.0322 41.358 42.7734 41.4633 43.3638C41.5687 43.9411 41.7795 44.4134 42.0957 44.7808C42.4251 45.135 42.906 45.3121 43.5384 45.3121C44.1708 45.3121 44.6451 45.135 44.9614 44.7808C45.2907 44.4134 45.5081 43.9411 45.6135 43.3638C45.7189 42.7734 45.7717 42.0322 45.7717 41.14Z" fill="white"/>
</g>
<g filter="url(#filter2_d_3277_147)">
<path d="M7.34508 7.0051H5.90261V8.47444H4.55966V7.0051H3.11719V5.74206H4.55966V4.26443H5.90261V5.74206H7.34508V7.0051ZM12.4677 4.46254H9.88119V5.60172C9.99174 5.48065 10.1465 5.38159 10.3454 5.30455C10.5444 5.22751 10.7599 5.18897 10.9921 5.18897C11.4065 5.18897 11.7492 5.28254 12.02 5.46966C12.2963 5.65678 12.498 5.89892 12.6252 6.19609C12.7523 6.49326 12.8158 6.81523 12.8158 7.16192C12.8158 7.80582 12.6335 8.31762 12.2687 8.69736C11.904 9.07156 11.3899 9.25868 10.7268 9.25868C10.2847 9.25868 9.90054 9.18439 9.57445 9.03581C9.2484 8.88169 8.99695 8.66985 8.82007 8.40015C8.64323 8.1305 8.54652 7.81955 8.52992 7.46737H9.91434C9.94752 7.63797 10.0276 7.78105 10.1547 7.89663C10.2819 8.00668 10.456 8.0617 10.677 8.0617C10.9368 8.0617 11.1302 7.97917 11.2573 7.81406C11.3844 7.64895 11.448 7.42883 11.448 7.15368C11.448 6.88402 11.3817 6.67763 11.249 6.53454C11.1164 6.39145 10.923 6.31991 10.6688 6.31991C10.4808 6.31991 10.3261 6.36669 10.2045 6.46025C10.0829 6.54832 10.0028 6.66664 9.96407 6.81523H8.59625V3.2243H12.4677V4.46254ZM13.5983 6.16309C13.5983 5.21649 13.7807 4.47078 14.1455 3.92598C14.5158 3.38115 15.1099 3.10873 15.9278 3.10873C16.7457 3.10873 17.3371 3.38115 17.7019 3.92598C18.0721 4.47078 18.2573 5.21649 18.2573 6.16309C18.2573 7.12063 18.0721 7.87183 17.7019 8.41667C17.3371 8.96152 16.7457 9.23392 15.9278 9.23392C15.1099 9.23392 14.5158 8.96152 14.1455 8.41667C13.7807 7.87183 13.5983 7.12063 13.5983 6.16309ZM16.8646 6.16309C16.8646 5.60725 16.8038 5.18073 16.6822 4.88357C16.5606 4.58087 16.3091 4.42954 15.9278 4.42954C15.5465 4.42954 15.295 4.58087 15.1734 4.88357C15.0518 5.18073 14.9911 5.60725 14.9911 6.16309C14.9911 6.53729 15.0132 6.84823 15.0573 7.09587C15.1016 7.33801 15.19 7.53616 15.3226 7.69024C15.4608 7.83882 15.6625 7.91311 15.9278 7.91311C16.1931 7.91311 16.3921 7.83882 16.5247 7.69024C16.6629 7.53616 16.754 7.33801 16.7982 7.09587C16.8425 6.84823 16.8646 6.53729 16.8646 6.16309Z" fill="white"/>
</g>
<g filter="url(#filter3_d_3277_147)">
<path d="M55.2032 75.0619H56.6455V73.5924H57.9886V75.0619H59.4309V76.3246H57.9886V77.8023H56.6455V76.3246H55.2032V75.0619ZM50.0808 77.6042H52.6669V76.4649C52.5566 76.5862 52.4018 76.685 52.2029 76.7621C52.004 76.8392 51.7883 76.8777 51.5561 76.8777C51.1419 76.8777 50.7989 76.7843 50.5284 76.5973C50.2521 76.4099 50.0503 76.168 49.9231 75.8708C49.7959 75.5735 49.7325 75.2517 49.7325 74.9048C49.7325 74.2611 49.9149 73.749 50.2797 73.3694C50.6445 72.9951 51.1583 72.8081 51.8216 72.8081C52.2638 72.8081 52.6476 72.8823 52.9737 73.0311C53.2998 73.1849 53.5513 73.3969 53.7284 73.6666C53.905 73.9364 54.0018 74.2472 54.0182 74.5994H52.634C52.6006 74.4288 52.5208 74.2857 52.3935 74.1701C52.2663 74.0602 52.0921 74.0049 51.871 74.0049C51.6116 74.0049 51.4181 74.0877 51.2909 74.2525C51.1637 74.4177 51.1003 74.6379 51.1003 74.913C51.1003 75.1828 51.1666 75.389 51.2991 75.5321C51.4317 75.6752 51.6252 75.747 51.8797 75.747C52.0674 75.747 52.2222 75.7002 52.3437 75.6067C52.4652 75.5186 52.5455 75.4001 52.5842 75.2517H53.9519V78.8424H50.0808V77.6042ZM48.9498 75.9036C48.9498 76.8503 48.7674 77.596 48.403 78.1409C48.0324 78.6858 47.4383 78.9581 46.6206 78.9581C45.8025 78.9581 45.2112 78.6858 44.8464 78.1409C44.4763 77.596 44.291 76.8503 44.291 75.9036C44.291 74.9462 44.4763 74.1951 44.8464 73.6502C45.2112 73.1054 45.8025 72.8327 46.6206 72.8327C47.4383 72.8327 48.0324 73.1054 48.403 73.6502C48.7674 74.1951 48.9498 74.9462 48.9498 75.9036ZM45.6835 75.9036C45.6835 76.4595 45.7444 76.8859 45.8659 77.1832C45.9878 77.4858 46.2389 77.6375 46.6206 77.6375C47.0019 77.6375 47.2534 77.4858 47.3749 77.1832C47.4964 76.8859 47.5573 76.4595 47.5573 75.9036C47.5573 75.5297 47.5351 75.2185 47.491 74.9708C47.4465 74.7289 47.3584 74.5305 47.2254 74.3768C47.0875 74.2279 46.8858 74.1537 46.6206 74.1537C46.355 74.1537 46.1562 74.2279 46.0236 74.3768C45.8852 74.5305 45.7943 74.7289 45.7502 74.9708C45.7057 75.2185 45.6835 75.5297 45.6835 75.9036Z" fill="white"/>
</g>
</g>
<rect width="62" height="82" rx="2" fill="black" fill-opacity="0.5"/>
<path d="M5 18C5 15.2386 7.23858 13 10 13H52C54.7614 13 57 15.2386 57 18V19C57 21.7614 54.7614 24 52 24H10C7.23858 24 5 21.7614 5 19V18Z" fill="#2D0C4D" fill-opacity="0.8"/>
<path d="M13.4593 16.0593C13.4144 16.2839 13.3782 16.5534 13.3509 16.8679C13.3235 17.1823 13.3099 17.5192 13.3099 17.8786C13.3099 17.9294 13.3099 17.9792 13.3099 18.028C13.3118 18.0749 13.3138 18.1237 13.3157 18.1745C13.3177 18.2253 13.3187 18.278 13.3187 18.3327C13.3206 18.3874 13.3216 18.446 13.3216 18.5085C13.3216 18.6393 13.3157 18.779 13.304 18.9274C13.2942 19.0759 13.2708 19.2233 13.2337 19.3698C13.1966 19.5163 13.1439 19.6579 13.0755 19.7946C13.0071 19.9294 12.9153 20.0485 12.8001 20.152C12.6868 20.2536 12.5462 20.3347 12.3782 20.3952C12.2103 20.4577 12.0091 20.489 11.7747 20.489C11.554 20.489 11.3636 20.4636 11.2034 20.4128C11.0452 20.364 10.9105 20.2966 10.7991 20.2106C10.6898 20.1227 10.6009 20.0202 10.5325 19.903C10.4642 19.7858 10.4114 19.6599 10.3743 19.5251C10.3372 19.3884 10.3118 19.2468 10.2982 19.1003C10.2864 18.9538 10.2806 18.8083 10.2806 18.6638C10.2806 18.5993 10.2806 18.5456 10.2806 18.5026C10.2825 18.4577 10.2845 18.4177 10.2864 18.3825C10.2884 18.3454 10.2903 18.3083 10.2923 18.2712C10.2942 18.2341 10.2962 18.1901 10.2982 18.1393C10.3001 18.0886 10.3011 18.027 10.3011 17.9548C10.303 17.8825 10.304 17.7927 10.304 17.6852C10.304 17.5544 10.3011 17.4059 10.2952 17.2399C10.2913 17.0739 10.2816 16.9108 10.2659 16.7507C10.2503 16.5886 10.2278 16.4411 10.1985 16.3083C10.1712 16.1735 10.1341 16.0729 10.0872 16.0065C10.2845 16.0417 10.4691 16.0651 10.6409 16.0768C10.8148 16.0886 10.9749 16.0944 11.1214 16.0944C11.2151 16.0944 11.3001 16.0925 11.3763 16.0886C11.4525 16.0847 11.5179 16.0807 11.5726 16.0768C11.637 16.071 11.6927 16.0651 11.7396 16.0593C11.7142 16.1804 11.6888 16.3161 11.6634 16.4665C11.638 16.6169 11.6155 16.778 11.596 16.9499C11.5765 17.1218 11.5599 17.3024 11.5462 17.4919C11.5345 17.6813 11.5286 17.8737 11.5286 18.069C11.5286 18.3132 11.5325 18.5114 11.5403 18.6638C11.5501 18.8161 11.5648 18.9352 11.5843 19.0212C11.6038 19.1052 11.6292 19.1628 11.6605 19.194C11.6917 19.2253 11.7298 19.2409 11.7747 19.2409C11.8353 19.2409 11.886 19.2224 11.9271 19.1852C11.97 19.1462 12.0052 19.0817 12.0325 18.9919C12.0618 18.9001 12.0823 18.78 12.0941 18.6315C12.1077 18.4831 12.1155 18.2975 12.1175 18.0749C12.1136 17.7565 12.1038 17.4597 12.0882 17.1843C12.0823 17.0671 12.0735 16.9489 12.0618 16.8298C12.0521 16.7106 12.0394 16.5983 12.0237 16.4929C12.0101 16.3874 11.9935 16.2927 11.9739 16.2087C11.9544 16.1227 11.9319 16.0554 11.9066 16.0065C12.1019 16.0417 12.2825 16.0651 12.4485 16.0768C12.6146 16.0886 12.764 16.0944 12.8968 16.0944C12.9847 16.0944 13.0628 16.0925 13.1312 16.0886C13.2015 16.0847 13.261 16.0807 13.3099 16.0768C13.3665 16.071 13.4163 16.0651 13.4593 16.0593ZM15.0501 20.2722C15.0169 20.2702 14.9778 20.2673 14.9329 20.2634C14.8939 20.2614 14.847 20.2595 14.7923 20.2575C14.7396 20.2556 14.679 20.2546 14.6107 20.2546C14.4837 20.2546 14.3372 20.2604 14.1712 20.2722C14.0071 20.2819 13.8284 20.3015 13.6351 20.3307C13.6624 20.2761 13.6868 20.2009 13.7083 20.1052C13.7298 20.0075 13.7484 19.8981 13.764 19.777C13.7796 19.654 13.7923 19.5241 13.8021 19.3874C13.8138 19.2487 13.8226 19.11 13.8284 18.9714C13.8362 18.8327 13.8411 18.6989 13.8431 18.57C13.847 18.4391 13.8499 18.322 13.8519 18.2184C13.8538 18.113 13.8548 18.0241 13.8548 17.9518C13.8548 17.8796 13.8548 17.8327 13.8548 17.8112C13.8509 17.485 13.8421 17.1823 13.8284 16.903C13.8226 16.7858 13.8157 16.6677 13.8079 16.5485C13.8001 16.4294 13.7903 16.3181 13.7786 16.2145C13.7669 16.111 13.7532 16.0202 13.7376 15.9421C13.7239 15.864 13.7073 15.8054 13.6878 15.7663C13.846 15.7936 13.9925 15.8122 14.1273 15.822C14.262 15.8317 14.3831 15.8366 14.4905 15.8366C14.5609 15.8366 14.6243 15.8356 14.681 15.8337C14.7376 15.8298 14.7855 15.8259 14.8245 15.822C14.8714 15.8181 14.9124 15.8132 14.9476 15.8073C14.93 15.8952 14.9134 16.0065 14.8978 16.1413C14.8841 16.2761 14.8714 16.4274 14.8597 16.5954C14.8499 16.7634 14.8421 16.944 14.8362 17.1374C14.8304 17.3307 14.8275 17.53 14.8275 17.735C14.8275 17.9694 14.8314 18.2057 14.8392 18.444C14.847 18.6823 14.8597 18.9128 14.8773 19.1354C14.8948 19.3581 14.9173 19.5671 14.9446 19.7624C14.9739 19.9557 15.0091 20.1257 15.0501 20.2722ZM17.5872 16.7272C17.5716 16.8151 17.5599 16.9011 17.5521 16.985C17.5462 17.069 17.5433 17.155 17.5433 17.2429C17.5433 17.3268 17.5462 17.4118 17.5521 17.4977C17.5599 17.5817 17.5716 17.6667 17.5872 17.7526C17.4935 17.7038 17.387 17.6677 17.2679 17.6442C17.1507 17.6208 17.0306 17.6022 16.9075 17.5886V17.8405C16.9075 18.0612 16.9114 18.2849 16.9192 18.5114C16.9271 18.736 16.9398 18.9548 16.9573 19.1677C16.9749 19.3786 16.9974 19.5788 17.0247 19.7682C17.054 19.9577 17.0892 20.1257 17.1302 20.2722C17.097 20.2702 17.0579 20.2673 17.013 20.2634C16.9739 20.2614 16.928 20.2595 16.8753 20.2575C16.8226 20.2556 16.762 20.2546 16.6937 20.2546C16.5667 20.2546 16.4202 20.2604 16.2542 20.2722C16.0882 20.2819 15.9085 20.3015 15.7151 20.3307C15.7816 19.9499 15.8284 19.5544 15.8558 19.1442C15.8851 18.7321 15.8997 18.3298 15.8997 17.9372V17.5886C15.7669 17.5983 15.6351 17.614 15.5042 17.6354C15.3753 17.655 15.2532 17.6794 15.138 17.7087C15.1458 17.6872 15.1526 17.6589 15.1585 17.6237C15.1644 17.5886 15.1683 17.5524 15.1702 17.5153C15.1741 17.4782 15.1761 17.4421 15.1761 17.4069C15.178 17.3718 15.179 17.3425 15.179 17.319C15.179 17.2194 15.1751 17.1208 15.1673 17.0231C15.1595 16.9255 15.1497 16.8268 15.138 16.7272C15.2317 16.7663 15.3431 16.7985 15.472 16.8239C15.6009 16.8474 15.7317 16.8649 15.8646 16.8766C15.8528 16.7067 15.8392 16.5495 15.8235 16.405C15.8079 16.2604 15.7894 16.1296 15.7679 16.0124C15.9261 16.0397 16.0726 16.0583 16.2073 16.0681C16.3421 16.0778 16.4642 16.0827 16.5735 16.0827C16.6439 16.0827 16.7064 16.0817 16.761 16.0798C16.8177 16.0759 16.8655 16.072 16.9046 16.0681C16.9515 16.0641 16.9925 16.0593 17.0276 16.0534C17.0062 16.1472 16.9876 16.2643 16.972 16.405C16.9583 16.5436 16.9446 16.6989 16.931 16.8708C17.0599 16.8571 17.181 16.8386 17.2942 16.8151C17.4095 16.7917 17.5071 16.7624 17.5872 16.7272ZM19.3275 17.6266C19.2669 17.6266 19.2122 17.6442 19.1634 17.6794C19.1146 17.7126 19.0706 17.7604 19.0316 17.8229C18.9944 17.8835 18.9612 17.9567 18.9319 18.0427C18.9046 18.1286 18.8821 18.2233 18.8646 18.3268C18.8646 18.4929 18.8685 18.6608 18.8763 18.8307C18.8841 19.0007 18.8968 19.1686 18.9144 19.3347C18.9319 19.5007 18.9544 19.6628 18.9817 19.821C19.011 19.9792 19.0462 20.1296 19.0872 20.2722C19.056 20.2702 19.0198 20.2673 18.9788 20.2634C18.9437 20.2614 18.9007 20.2595 18.8499 20.2575C18.8011 20.2556 18.7444 20.2546 18.68 20.2546C18.5589 20.2546 18.4183 20.2604 18.2581 20.2722C18.0999 20.2819 17.9241 20.3015 17.7308 20.3307C17.7542 20.2214 17.7747 20.0876 17.7923 19.9294C17.8099 19.7712 17.8245 19.5993 17.8362 19.4138C17.848 19.2282 17.8567 19.0349 17.8626 18.8337C17.8704 18.6306 17.8743 18.4304 17.8743 18.2331C17.8743 18.0866 17.8724 17.9431 17.8685 17.8024C17.8646 17.6618 17.8587 17.529 17.8509 17.404C17.845 17.279 17.8362 17.1638 17.8245 17.0583C17.8128 16.9528 17.7991 16.862 17.7835 16.7858C17.9417 16.8132 18.0853 16.8327 18.2142 16.8444C18.345 16.8542 18.4622 16.8591 18.5657 16.8591C18.6321 16.8591 18.6907 16.8581 18.7415 16.8561C18.7923 16.8522 18.8362 16.8483 18.8734 16.8444C18.9144 16.8386 18.9515 16.8327 18.9847 16.8268C18.9612 16.9245 18.9437 17.0329 18.9319 17.152C19.0335 17.029 19.1439 16.9382 19.263 16.8796C19.3841 16.821 19.4974 16.7917 19.6028 16.7917C19.7786 16.7917 19.9271 16.8239 20.0482 16.8884C20.1692 16.9509 20.2669 17.0339 20.3411 17.1374C20.4153 17.239 20.4691 17.3552 20.5023 17.486C20.5355 17.6169 20.5521 17.7497 20.5521 17.8845C20.5521 18.0153 20.5335 18.1432 20.4964 18.2682C20.4593 18.3932 20.4056 18.5056 20.3353 18.6052C20.265 18.7028 20.178 18.7819 20.0745 18.8425C19.971 18.903 19.8538 18.9333 19.723 18.9333C19.6077 18.9333 19.5091 18.9138 19.4271 18.8747C19.347 18.8356 19.2806 18.7849 19.2278 18.7224C19.1751 18.6599 19.136 18.5915 19.1107 18.5173C19.0872 18.4411 19.0755 18.3659 19.0755 18.2917C19.0755 18.2136 19.0862 18.1374 19.1077 18.0632C19.1312 17.989 19.1644 17.9216 19.2073 17.861C19.221 17.904 19.2376 17.9372 19.2571 17.9606C19.2786 17.9821 19.3001 17.9977 19.3216 18.0075C19.345 18.0192 19.3704 18.0261 19.3978 18.028C19.47 18.028 19.5237 18.0114 19.5589 17.9782C19.596 17.945 19.6146 17.9059 19.6146 17.861C19.6146 17.8395 19.6107 17.8151 19.6028 17.7878C19.595 17.7604 19.5804 17.735 19.5589 17.7116C19.5394 17.6882 19.511 17.6686 19.4739 17.653C19.4368 17.6354 19.388 17.6266 19.3275 17.6266ZM23.7249 20.3249C23.6878 20.321 23.6448 20.3171 23.596 20.3132C23.555 20.3093 23.5052 20.3063 23.4466 20.3044C23.39 20.3024 23.3275 20.3015 23.2591 20.3015C23.1614 20.3015 23.054 20.3054 22.9368 20.3132C22.8216 20.321 22.7025 20.3356 22.5794 20.3571L22.5911 19.5339C22.5169 19.8249 22.4075 20.0495 22.263 20.2077C22.1204 20.3659 21.9525 20.445 21.7591 20.445C21.6985 20.445 21.6302 20.4372 21.554 20.4216C21.4778 20.4059 21.3997 20.3757 21.3196 20.3307C21.2415 20.2878 21.1644 20.2272 21.0882 20.1491C21.014 20.071 20.9476 19.9704 20.889 19.8474C20.8304 19.7224 20.7835 19.572 20.7484 19.3962C20.7132 19.2184 20.6956 19.0085 20.6956 18.7663C20.6956 18.4382 20.7288 18.1579 20.7952 17.9255C20.8616 17.6911 20.9466 17.4997 21.0501 17.3513C21.1536 17.2028 21.2679 17.0944 21.3929 17.0261C21.5179 16.9577 21.64 16.9235 21.7591 16.9235C21.8607 16.9235 21.9525 16.9382 22.0345 16.9675C22.1185 16.9948 22.1927 17.0309 22.2571 17.0759C22.3216 17.1188 22.3773 17.1677 22.4241 17.2224C22.471 17.277 22.5091 17.3317 22.5384 17.3864C22.5325 17.32 22.5237 17.2497 22.512 17.1755C22.5003 17.0993 22.4866 17.0212 22.471 16.9411C22.598 16.9665 22.7269 16.9831 22.8577 16.9909C22.9886 16.9987 23.1097 17.0026 23.221 17.0026C23.3538 17.0026 23.4612 16.9997 23.5433 16.9938C23.5901 16.9919 23.6331 16.989 23.6722 16.985C23.6507 17.0827 23.6312 17.1921 23.6136 17.3132C23.596 17.4343 23.5804 17.5641 23.5667 17.7028C23.555 17.8395 23.5452 17.9841 23.5374 18.1364C23.5316 18.2868 23.5286 18.4411 23.5286 18.5993C23.5286 18.8942 23.5433 19.1901 23.5726 19.487C23.6019 19.7839 23.6526 20.0632 23.7249 20.3249ZM22.5208 18.6462V18.1716C22.5208 18.1188 22.5179 18.0651 22.512 18.0104C22.5062 17.9557 22.4925 17.9059 22.471 17.861C22.4515 17.8161 22.4222 17.78 22.3831 17.7526C22.3441 17.7233 22.2913 17.7087 22.2249 17.7087C22.1546 17.7087 22.096 17.7331 22.0491 17.7819C22.0042 17.8307 21.9671 17.8981 21.9378 17.9841C21.9105 18.0681 21.8909 18.1686 21.8792 18.2858C21.8694 18.4011 21.8646 18.527 21.8646 18.6638C21.8646 18.7419 21.8694 18.821 21.8792 18.9011C21.8909 18.9811 21.9095 19.0544 21.9349 19.1208C21.9603 19.1852 21.9944 19.238 22.0374 19.279C22.0804 19.32 22.1331 19.3405 22.1956 19.3405C22.2659 19.3405 22.3226 19.3161 22.3655 19.2673C22.4085 19.2184 22.4407 19.1579 22.4622 19.0856C22.4857 19.0134 22.5013 18.9382 22.5091 18.86C22.5169 18.78 22.5208 18.7087 22.5208 18.6462ZM26.511 20.2663C26.4778 20.2624 26.4368 20.2585 26.388 20.2546C26.347 20.2507 26.2962 20.2477 26.2357 20.2458C26.1771 20.2438 26.1107 20.2429 26.0364 20.2429C25.8919 20.2429 25.72 20.2497 25.5208 20.2634C25.3216 20.277 25.0999 20.3034 24.8558 20.3425C24.9593 19.9069 25.0306 19.4802 25.0696 19.0622C25.1107 18.6442 25.1312 18.2419 25.1312 17.8552C25.1312 17.5036 25.1175 17.1735 25.0901 16.8649C25.0628 16.5544 25.0267 16.2682 24.9817 16.0065C25.1771 16.0417 25.3519 16.0651 25.5062 16.0768C25.6624 16.0886 25.7972 16.0944 25.9105 16.0944C25.9886 16.0944 26.0569 16.0925 26.1155 16.0886C26.1761 16.0847 26.2259 16.0807 26.265 16.0768C26.3118 16.071 26.3519 16.0651 26.3851 16.0593C26.4515 16.4421 26.5345 16.821 26.6341 17.196C26.7337 17.569 26.8567 17.944 27.0032 18.321C27.1263 17.9401 27.2239 17.5593 27.2962 17.1784C27.3685 16.7956 27.4173 16.405 27.4427 16.0065L27.4661 16.0593L27.4427 16.0065C27.638 16.0417 27.8157 16.0651 27.9759 16.0768C28.136 16.0886 28.2776 16.0944 28.4007 16.0944C28.4827 16.0944 28.555 16.0925 28.6175 16.0886C28.68 16.0847 28.7337 16.0807 28.7786 16.0768C28.8294 16.071 28.8734 16.0651 28.9105 16.0593C28.8694 16.2546 28.8382 16.486 28.8167 16.7536C28.7952 17.0192 28.7845 17.3044 28.7845 17.6091C28.7845 17.8259 28.7903 18.0495 28.8021 18.28C28.8138 18.5085 28.8314 18.737 28.8548 18.9655C28.8802 19.1921 28.9124 19.4157 28.9515 19.6364C28.9905 19.8571 29.0374 20.0671 29.0921 20.2663C29.053 20.2624 29.0081 20.2585 28.9573 20.2546C28.9124 20.2507 28.8597 20.2477 28.7991 20.2458C28.7386 20.2438 28.6683 20.2429 28.5882 20.2429C28.4359 20.2429 28.2562 20.2497 28.0491 20.2634C27.8441 20.277 27.6194 20.3034 27.3753 20.3425C27.4241 20.2448 27.4642 20.1198 27.4954 19.9675C27.5286 19.8151 27.555 19.653 27.5745 19.4811C27.596 19.3093 27.6116 19.1384 27.6214 18.9684C27.6331 18.7966 27.6409 18.6432 27.6448 18.5085C27.5882 18.6296 27.5335 18.7526 27.4808 18.8776C27.428 19.0026 27.3734 19.1364 27.3167 19.279C27.262 19.4196 27.2044 19.572 27.1439 19.736C27.0833 19.9001 27.0169 20.0827 26.9446 20.2839C26.8704 20.0827 26.803 19.9001 26.7425 19.736C26.6819 19.572 26.6243 19.4196 26.5696 19.279C26.5169 19.1384 26.4642 19.0056 26.4114 18.8806C26.3607 18.7536 26.3079 18.6276 26.2532 18.5026C26.2708 18.8112 26.3001 19.1159 26.3411 19.4167C26.3821 19.7155 26.4388 19.9987 26.511 20.2663ZM32.3323 20.3249C32.2952 20.321 32.2523 20.3171 32.2034 20.3132C32.1624 20.3093 32.1126 20.3063 32.054 20.3044C31.9974 20.3024 31.9349 20.3015 31.8665 20.3015C31.7689 20.3015 31.6614 20.3054 31.5442 20.3132C31.429 20.321 31.3099 20.3356 31.1868 20.3571L31.1985 19.5339C31.1243 19.8249 31.015 20.0495 30.8704 20.2077C30.7278 20.3659 30.5599 20.445 30.3665 20.445C30.306 20.445 30.2376 20.4372 30.1614 20.4216C30.0853 20.4059 30.0071 20.3757 29.9271 20.3307C29.8489 20.2878 29.7718 20.2272 29.6956 20.1491C29.6214 20.071 29.555 19.9704 29.4964 19.8474C29.4378 19.7224 29.3909 19.572 29.3558 19.3962C29.3206 19.2184 29.303 19.0085 29.303 18.7663C29.303 18.4382 29.3362 18.1579 29.4026 17.9255C29.4691 17.6911 29.554 17.4997 29.6575 17.3513C29.761 17.2028 29.8753 17.0944 30.0003 17.0261C30.1253 16.9577 30.2474 16.9235 30.3665 16.9235C30.4681 16.9235 30.5599 16.9382 30.6419 16.9675C30.7259 16.9948 30.8001 17.0309 30.8646 17.0759C30.929 17.1188 30.9847 17.1677 31.0316 17.2224C31.0784 17.277 31.1165 17.3317 31.1458 17.3864C31.14 17.32 31.1312 17.2497 31.1194 17.1755C31.1077 17.0993 31.0941 17.0212 31.0784 16.9411C31.2054 16.9665 31.3343 16.9831 31.4651 16.9909C31.596 16.9987 31.7171 17.0026 31.8284 17.0026C31.9612 17.0026 32.0687 16.9997 32.1507 16.9938C32.1976 16.9919 32.2405 16.989 32.2796 16.985C32.2581 17.0827 32.2386 17.1921 32.221 17.3132C32.2034 17.4343 32.1878 17.5641 32.1741 17.7028C32.1624 17.8395 32.1526 17.9841 32.1448 18.1364C32.139 18.2868 32.136 18.4411 32.136 18.5993C32.136 18.8942 32.1507 19.1901 32.18 19.487C32.2093 19.7839 32.2601 20.0632 32.3323 20.3249ZM31.1282 18.6462V18.1716C31.1282 18.1188 31.1253 18.0651 31.1194 18.0104C31.1136 17.9557 31.0999 17.9059 31.0784 17.861C31.0589 17.8161 31.0296 17.78 30.9905 17.7526C30.9515 17.7233 30.8987 17.7087 30.8323 17.7087C30.762 17.7087 30.7034 17.7331 30.6566 17.7819C30.6116 17.8307 30.5745 17.8981 30.5452 17.9841C30.5179 18.0681 30.4984 18.1686 30.4866 18.2858C30.4769 18.4011 30.472 18.527 30.472 18.6638C30.472 18.7419 30.4769 18.821 30.4866 18.9011C30.4984 18.9811 30.5169 19.0544 30.5423 19.1208C30.5677 19.1852 30.6019 19.238 30.6448 19.279C30.6878 19.32 30.7405 19.3405 30.803 19.3405C30.8734 19.3405 30.93 19.3161 30.973 19.2673C31.0159 19.2184 31.0482 19.1579 31.0696 19.0856C31.0931 19.0134 31.1087 18.9382 31.1165 18.86C31.1243 18.78 31.1282 18.7087 31.1282 18.6462ZM35.6253 20.3425C35.5648 20.3327 35.4984 20.3259 35.4261 20.322C35.3538 20.32 35.2786 20.319 35.2005 20.319C35.1067 20.319 35.011 20.321 34.9134 20.3249C34.8177 20.3307 34.7239 20.3376 34.6321 20.3454C34.5403 20.3532 34.4534 20.362 34.3714 20.3718C34.2894 20.3815 34.2181 20.3903 34.1575 20.3981C34.2415 20.1149 34.306 19.8122 34.3509 19.4899C34.3978 19.1677 34.4212 18.8102 34.4212 18.4177C34.4212 18.3884 34.4202 18.3493 34.4183 18.3005C34.4183 18.2516 34.4163 18.1989 34.4124 18.1423C34.4085 18.0856 34.4017 18.029 34.3919 17.9724C34.3841 17.9138 34.3714 17.861 34.3538 17.8141C34.3382 17.7673 34.3177 17.7292 34.2923 17.6999C34.2669 17.6706 34.2357 17.6559 34.1985 17.6559C34.1439 17.6559 34.0901 17.6755 34.0374 17.7145C33.9866 17.7536 33.9407 17.8054 33.8997 17.8698C33.8607 17.9343 33.8284 18.0085 33.803 18.0925C33.7796 18.1765 33.7679 18.2634 33.7679 18.3532C33.7679 18.5153 33.7718 18.6804 33.7796 18.8483C33.7874 19.0143 33.8001 19.1794 33.8177 19.3434C33.8353 19.5075 33.8577 19.6686 33.8851 19.8268C33.9124 19.9831 33.9466 20.1315 33.9876 20.2722C33.9544 20.2702 33.9153 20.2673 33.8704 20.2634C33.8314 20.2614 33.7855 20.2595 33.7327 20.2575C33.68 20.2556 33.6194 20.2546 33.5511 20.2546C33.4241 20.2546 33.2776 20.2604 33.1116 20.2722C32.9456 20.2819 32.7659 20.3015 32.5726 20.3307C32.596 20.2214 32.6165 20.0876 32.6341 19.9294C32.6517 19.7712 32.6663 19.5993 32.678 19.4138C32.6898 19.2282 32.6985 19.0349 32.7044 18.8337C32.7122 18.6306 32.7161 18.4304 32.7161 18.2331C32.7161 18.0866 32.7142 17.9431 32.7103 17.8024C32.7064 17.6618 32.7005 17.529 32.6927 17.404C32.6868 17.279 32.678 17.1638 32.6663 17.0583C32.6546 16.9528 32.6409 16.862 32.6253 16.7858C32.7835 16.8132 32.93 16.8327 33.0648 16.8444C33.1995 16.8542 33.3216 16.8591 33.431 16.8591C33.5013 16.8591 33.5638 16.8581 33.6185 16.8561C33.6751 16.8522 33.723 16.8483 33.762 16.8444C33.8089 16.8386 33.8499 16.8327 33.8851 16.8268C33.8734 16.8874 33.8616 16.9518 33.8499 17.0202C33.8401 17.0886 33.8304 17.1628 33.8206 17.2429C33.8851 17.1608 33.9534 17.0895 34.0257 17.029C34.098 16.9665 34.1702 16.9147 34.2425 16.8737C34.3167 16.8327 34.39 16.8024 34.4622 16.7829C34.5345 16.7614 34.6028 16.7507 34.6673 16.7507C34.8079 16.7507 34.929 16.78 35.0306 16.8386C35.1341 16.8952 35.2191 16.985 35.2855 17.1081C35.3538 17.2311 35.4046 17.3884 35.4378 17.5798C35.471 17.7712 35.4876 18.0007 35.4876 18.2682C35.4876 18.4518 35.4876 18.6384 35.4876 18.8278C35.4896 19.0173 35.4944 19.2028 35.5023 19.3845C35.5101 19.5661 35.5237 19.739 35.5433 19.903C35.5628 20.0651 35.5901 20.2116 35.6253 20.3425ZM38.8304 16.9177C38.8089 16.9997 38.7903 17.1003 38.7747 17.2194C38.761 17.3366 38.7484 17.4655 38.7366 17.6061C38.7249 17.7448 38.7151 17.8893 38.7073 18.0397C38.7015 18.1901 38.6956 18.3376 38.6898 18.4821C38.678 18.822 38.6712 19.1823 38.6692 19.5632C38.6692 19.7624 38.6566 19.9577 38.6312 20.1491C38.6077 20.3386 38.5687 20.5173 38.514 20.6852C38.4612 20.8532 38.3919 21.0085 38.306 21.1511C38.22 21.2936 38.1155 21.4157 37.9925 21.5173C37.8714 21.6188 37.7308 21.6979 37.5706 21.7546C37.4105 21.8132 37.2288 21.8425 37.0257 21.8425C36.8362 21.8425 36.6722 21.8229 36.5335 21.7839C36.3948 21.7448 36.2796 21.6891 36.1878 21.6169C36.098 21.5466 36.0306 21.4616 35.9857 21.362C35.9427 21.2643 35.9212 21.155 35.9212 21.0339C35.9212 20.9147 35.9417 20.8073 35.9827 20.7116C36.0237 20.6159 36.0775 20.5339 36.1439 20.4655C36.2103 20.3991 36.2845 20.3483 36.3665 20.3132C36.4505 20.278 36.5355 20.2604 36.6214 20.2604C36.7327 20.2604 36.8372 20.2917 36.9349 20.3542C37.0325 20.4167 37.1067 20.5153 37.1575 20.6501C37.1341 20.6345 37.1058 20.6266 37.0726 20.6266C37.0276 20.6266 36.9857 20.6442 36.9466 20.6794C36.9075 20.7165 36.888 20.7604 36.888 20.8112C36.888 20.8405 36.8929 20.8649 36.9026 20.8845C36.9144 20.9059 36.929 20.9225 36.9466 20.9343C36.9642 20.946 36.9827 20.9538 37.0023 20.9577C37.0237 20.9636 37.0433 20.9665 37.0609 20.9665C37.0823 20.9665 37.1116 20.9626 37.1487 20.9548C37.1878 20.9489 37.2298 20.9304 37.2747 20.8991C37.3196 20.8679 37.3646 20.82 37.4095 20.7556C37.4544 20.6911 37.4954 20.6022 37.5325 20.489C37.5696 20.3757 37.5989 20.2321 37.6204 20.0583C37.6439 19.8845 37.6556 19.6735 37.6556 19.4255C37.6165 19.5993 37.5677 19.736 37.5091 19.8356C37.4505 19.9352 37.388 20.0104 37.3216 20.0612C37.2552 20.11 37.1868 20.1403 37.1165 20.152C37.0482 20.1638 36.9837 20.1696 36.9232 20.1696C36.8763 20.1696 36.8167 20.1618 36.7444 20.1462C36.6722 20.1286 36.595 20.0993 36.513 20.0583C36.4329 20.0153 36.3509 19.9577 36.2669 19.8854C36.1849 19.8112 36.1107 19.7184 36.0442 19.6071C35.9778 19.4938 35.9232 19.3591 35.8802 19.2028C35.8392 19.0446 35.8187 18.8591 35.8187 18.6462C35.8187 18.3181 35.8519 18.0407 35.9183 17.8141C35.9866 17.5876 36.0735 17.405 36.179 17.2663C36.2864 17.1257 36.4046 17.0251 36.5335 16.9645C36.6624 16.902 36.7884 16.8708 36.9114 16.8708C36.9993 16.8708 37.0794 16.8854 37.1517 16.9147C37.2239 16.9421 37.2894 16.9792 37.348 17.0261C37.4066 17.0729 37.4583 17.1257 37.5032 17.1843C37.5482 17.2409 37.5882 17.2985 37.6234 17.3571C37.6116 17.2712 37.597 17.1852 37.5794 17.0993C37.5638 17.0134 37.5452 16.9265 37.5237 16.8386C37.5726 16.86 37.6331 16.8796 37.7054 16.8972C37.7679 16.9128 37.846 16.9265 37.9398 16.9382C38.0335 16.9479 38.1468 16.9528 38.2796 16.9528C38.4359 16.9528 38.6194 16.9411 38.8304 16.9177ZM37.5823 18.3884C37.5823 18.3337 37.5784 18.2682 37.5706 18.1921C37.5628 18.114 37.5482 18.0397 37.5267 17.9694C37.5052 17.8972 37.4749 17.8356 37.4359 17.7849C37.3987 17.7341 37.3499 17.7087 37.2894 17.7087C37.2444 17.7087 37.2034 17.735 37.1663 17.7878C37.1292 17.8386 37.097 17.9011 37.0696 17.9753C37.0442 18.0475 37.0237 18.1227 37.0081 18.2009C36.9944 18.279 36.9876 18.3454 36.9876 18.4001C36.9876 18.4938 36.9925 18.5895 37.0023 18.6872C37.012 18.7849 37.0276 18.8737 37.0491 18.9538C37.0726 19.0319 37.1009 19.0964 37.1341 19.1472C37.1692 19.1979 37.2103 19.2233 37.2571 19.2233C37.3079 19.2233 37.3528 19.2116 37.3919 19.1882C37.4329 19.1628 37.4671 19.1296 37.4944 19.0886C37.5237 19.0456 37.5452 18.9968 37.5589 18.9421C37.5745 18.8874 37.5823 18.8288 37.5823 18.7663V18.3884ZM41.8362 18.5729C41.8362 18.6862 41.8275 18.8112 41.8099 18.9479C41.7923 19.0827 41.763 19.2194 41.722 19.3581C41.681 19.4948 41.6253 19.6286 41.555 19.7595C41.4847 19.8884 41.3968 20.0026 41.2913 20.1022C41.1878 20.2018 41.0638 20.2819 40.9192 20.3425C40.7747 20.403 40.6067 20.4333 40.4153 20.4333C40.2239 20.4333 40.056 20.405 39.9114 20.3483C39.7689 20.2917 39.6458 20.2165 39.5423 20.1227C39.4407 20.027 39.3567 19.9177 39.2903 19.7946C39.2239 19.6696 39.1712 19.5388 39.1321 19.402C39.0931 19.2653 39.0657 19.1276 39.0501 18.989C39.0364 18.8483 39.0296 18.7155 39.0296 18.5905C39.0296 18.3698 39.0589 18.154 39.1175 17.9431C39.1761 17.7302 39.265 17.5407 39.3841 17.3747C39.5052 17.2087 39.6556 17.0749 39.8353 16.9733C40.0169 16.8718 40.2298 16.821 40.4739 16.821C40.638 16.821 40.7855 16.8464 40.9163 16.8972C41.0472 16.946 41.1634 17.0134 41.265 17.0993C41.3665 17.1852 41.4525 17.2858 41.5228 17.4011C41.595 17.5163 41.6546 17.6384 41.7015 17.7673C41.7484 17.8962 41.7825 18.03 41.804 18.1686C41.8255 18.3073 41.8362 18.4421 41.8362 18.5729ZM40.8167 18.6696C40.8167 18.6247 40.8148 18.569 40.8109 18.5026C40.8089 18.4343 40.803 18.363 40.7933 18.2888C40.7835 18.2145 40.7698 18.1403 40.7523 18.0661C40.7366 17.9919 40.7151 17.9255 40.6878 17.8669C40.6605 17.8083 40.6263 17.7604 40.5853 17.7233C40.5462 17.6862 40.4993 17.6677 40.4446 17.6677C40.3919 17.6677 40.346 17.6852 40.3069 17.7204C40.2679 17.7556 40.2337 17.8015 40.2044 17.8581C40.1771 17.9147 40.1536 17.9792 40.1341 18.0515C40.1165 18.1218 40.1019 18.1931 40.0901 18.2653C40.0804 18.3356 40.0726 18.404 40.0667 18.4704C40.0628 18.5349 40.0609 18.5895 40.0609 18.6345C40.0609 18.6989 40.0657 18.777 40.0755 18.8688C40.0853 18.9606 40.1038 19.0485 40.1312 19.1325C40.1585 19.2165 40.1956 19.2888 40.2425 19.3493C40.2913 19.4079 40.3548 19.4372 40.4329 19.4372C40.5071 19.4372 40.5687 19.4099 40.6175 19.3552C40.6683 19.3005 40.7083 19.2341 40.7376 19.1559C40.7669 19.0759 40.7874 18.9919 40.7991 18.904C40.8109 18.8161 40.8167 18.738 40.8167 18.6696ZM46.3216 18.0807C46.1614 18.4772 46.0814 18.862 46.0814 19.235C46.0814 19.4147 46.098 19.5964 46.1312 19.78C46.1644 19.9616 46.2161 20.1472 46.2864 20.3366C46.1751 20.3093 46.0716 20.2888 45.9759 20.2751C45.8802 20.2614 45.7855 20.2546 45.6917 20.2546C45.5921 20.2546 45.4905 20.2634 45.387 20.2809C45.2835 20.2985 45.1712 20.3259 45.0501 20.363L45.1702 19.8942C45.1312 19.9567 45.0843 20.0212 45.0296 20.0876C44.9749 20.152 44.9095 20.2106 44.8333 20.2634C44.7591 20.3161 44.6732 20.3591 44.5755 20.3923C44.4798 20.4274 44.3694 20.445 44.2444 20.445C44.0569 20.445 43.8841 20.4001 43.7259 20.3102C43.5696 20.2204 43.4349 20.0905 43.3216 19.9206C43.2083 19.7507 43.1194 19.5427 43.055 19.2966C42.9925 19.0485 42.9612 18.7673 42.9612 18.4528C42.9612 18.2438 42.9808 18.0368 43.0198 17.8317C43.0589 17.6247 43.1155 17.4284 43.1898 17.2429C43.264 17.0554 43.3558 16.8825 43.4651 16.7243C43.5745 16.5641 43.6985 16.4265 43.8372 16.3112C43.9759 16.194 44.1292 16.1032 44.2972 16.0388C44.4671 15.9724 44.6497 15.9391 44.845 15.9391C45.0228 15.9391 45.178 15.9577 45.3109 15.9948C45.4437 16.03 45.5589 16.0778 45.6566 16.1384C45.7542 16.197 45.8343 16.2653 45.8968 16.3434C45.9612 16.4196 46.012 16.4997 46.0491 16.5837C46.0862 16.6677 46.1126 16.7516 46.1282 16.8356C46.1439 16.9177 46.1517 16.9948 46.1517 17.0671C46.1517 17.1706 46.1331 17.2702 46.096 17.3659C46.0609 17.4616 46.011 17.5456 45.9466 17.6179C45.8821 17.6901 45.806 17.7477 45.7181 17.7907C45.6302 17.8337 45.5335 17.8552 45.428 17.8552C45.3187 17.8552 45.2239 17.8386 45.1439 17.8054C45.0638 17.7722 44.9974 17.7292 44.9446 17.6765C44.8919 17.6218 44.8519 17.5612 44.8245 17.4948C44.7991 17.4284 44.7864 17.362 44.7864 17.2956C44.7864 17.239 44.7962 17.1813 44.8157 17.1227C44.8353 17.0641 44.8626 17.0095 44.8978 16.9587C44.9095 16.9997 44.9261 17.0319 44.9476 17.0554C44.9691 17.0768 44.9905 17.0925 45.012 17.1022C45.0355 17.114 45.0618 17.1208 45.0911 17.1227C45.1575 17.1227 45.2044 17.1061 45.2318 17.0729C45.261 17.0397 45.2757 17.0016 45.2757 16.9587C45.2757 16.9391 45.2708 16.9196 45.261 16.9001C45.2532 16.8786 45.2405 16.8591 45.223 16.8415C45.2054 16.8239 45.1819 16.8093 45.1526 16.7975C45.1253 16.7858 45.0911 16.78 45.0501 16.78C45.0228 16.78 44.9847 16.7858 44.9359 16.7975C44.889 16.8073 44.8372 16.8278 44.7806 16.8591C44.7259 16.8903 44.6702 16.9352 44.6136 16.9938C44.5569 17.0505 44.5052 17.1266 44.4583 17.2224C44.4114 17.3181 44.3734 17.4352 44.3441 17.5739C44.3148 17.7126 44.3001 17.8776 44.3001 18.069C44.3001 18.2272 44.3128 18.3659 44.3382 18.485C44.3655 18.6042 44.4026 18.7038 44.4495 18.7839C44.4964 18.864 44.5521 18.9245 44.6165 18.9655C44.681 19.0046 44.7513 19.0241 44.8275 19.0241C44.8997 19.0241 44.9593 19.0056 45.0062 18.9684C45.053 18.9313 45.0901 18.8864 45.1175 18.8337C45.1448 18.7809 45.1634 18.7263 45.1732 18.6696C45.1829 18.613 45.1878 18.5651 45.1878 18.5261C45.1878 18.5241 45.1859 18.5104 45.1819 18.485C45.18 18.4597 45.1712 18.4304 45.1556 18.3972C45.14 18.364 45.1146 18.3298 45.0794 18.2946C45.0443 18.2595 44.9944 18.2302 44.93 18.2067C45.1605 18.2067 45.3919 18.197 45.6243 18.1774C45.8568 18.1559 46.0892 18.1237 46.3216 18.0807ZM49.1575 16.9059C49.14 16.9938 49.1234 17.0964 49.1077 17.2136C49.0941 17.3307 49.0814 17.4577 49.0696 17.5944C49.0599 17.7292 49.0521 17.8708 49.0462 18.0192C49.0403 18.1657 49.0374 18.3122 49.0374 18.4587C49.0374 18.5075 49.0384 18.5563 49.0403 18.6052C49.0423 18.652 49.0433 18.6979 49.0433 18.7429C49.0433 18.8386 49.0374 18.947 49.0257 19.0681C49.0159 19.1891 48.9944 19.3132 48.9612 19.4401C48.93 19.5651 48.886 19.6882 48.8294 19.8093C48.7728 19.9304 48.6976 20.0378 48.6038 20.1315C48.512 20.2253 48.3997 20.3005 48.2669 20.3571C48.1341 20.4157 47.9769 20.445 47.7952 20.445C47.639 20.445 47.5003 20.4245 47.3792 20.3835C47.2601 20.3425 47.1556 20.2868 47.0657 20.2165C46.9778 20.1442 46.9036 20.0593 46.8431 19.9616C46.7825 19.864 46.7337 19.7595 46.6966 19.6481C46.6595 19.5349 46.6321 19.4167 46.6146 19.2936C46.5989 19.1706 46.5911 19.0485 46.5911 18.9274C46.5911 18.8981 46.5911 18.8806 46.5911 18.8747C46.5931 18.8669 46.5941 18.862 46.5941 18.86C46.5941 18.8581 46.595 18.8552 46.597 18.8513C46.5989 18.8454 46.5999 18.8298 46.5999 18.8044C46.5999 18.779 46.5999 18.739 46.5999 18.6843C46.6019 18.6296 46.6028 18.5524 46.6028 18.4528C46.6028 18.3356 46.6009 18.2038 46.597 18.0573C46.5931 17.9089 46.5843 17.7643 46.5706 17.6237C46.5589 17.4811 46.5413 17.3522 46.5179 17.237C46.4944 17.1218 46.4642 17.0378 46.4271 16.985C46.5853 17.0124 46.7337 17.0309 46.8724 17.0407C47.013 17.0505 47.1409 17.0554 47.2562 17.0554C47.3323 17.0554 47.4007 17.0544 47.4612 17.0524C47.5237 17.0485 47.5775 17.0446 47.6224 17.0407C47.6732 17.0368 47.7191 17.0319 47.7601 17.0261C47.721 17.2175 47.6829 17.4352 47.6458 17.6794C47.6107 17.9216 47.5931 18.1999 47.5931 18.5143C47.5931 18.5866 47.596 18.6618 47.6019 18.7399C47.6097 18.8181 47.6224 18.8903 47.64 18.9567C47.6575 19.0212 47.681 19.0749 47.7103 19.1179C47.7415 19.1589 47.7806 19.1794 47.8275 19.1794C47.886 19.1794 47.9319 19.1599 47.9651 19.1208C47.9984 19.0817 48.0228 19.0309 48.0384 18.9684C48.056 18.904 48.0657 18.8327 48.0677 18.7546C48.0716 18.6765 48.0735 18.5983 48.0735 18.5202C48.0716 18.2663 48.0638 18.029 48.0501 17.8083C48.0443 17.7145 48.0364 17.6198 48.0267 17.5241C48.0189 17.4284 48.0091 17.3386 47.9974 17.2546C47.9857 17.1686 47.972 17.0925 47.9564 17.0261C47.9407 16.9577 47.9232 16.904 47.9036 16.8649C48.0618 16.8923 48.2083 16.9108 48.3431 16.9206C48.4778 16.9304 48.598 16.9352 48.7034 16.9352C48.7737 16.9352 48.8362 16.9343 48.8909 16.9323C48.9476 16.9284 48.9954 16.9245 49.0345 16.9206C49.0814 16.9167 49.1224 16.9118 49.1575 16.9059ZM52.2806 16.9177C52.2591 16.9997 52.2405 17.0983 52.2249 17.2136C52.2112 17.3288 52.1985 17.4528 52.1868 17.5856C52.1751 17.7184 52.1653 17.8571 52.1575 18.0016C52.1517 18.1462 52.1458 18.2868 52.14 18.4235C52.1282 18.7458 52.1214 19.0856 52.1194 19.4431C52.1194 19.6423 52.1068 19.8386 52.0814 20.0319C52.0579 20.2253 52.0189 20.4079 51.9642 20.5798C51.9114 20.7536 51.8421 20.9138 51.7562 21.0602C51.6722 21.2087 51.5687 21.3356 51.4456 21.4411C51.3245 21.5485 51.1829 21.6325 51.0208 21.6931C50.8607 21.7536 50.679 21.7839 50.4759 21.7839C50.2864 21.7839 50.1224 21.7643 49.9837 21.7253C49.845 21.6862 49.7298 21.6306 49.638 21.5583C49.5482 21.488 49.4808 21.403 49.4359 21.3034C49.3929 21.2038 49.3714 21.0944 49.3714 20.9753C49.3714 20.8561 49.3919 20.7477 49.4329 20.6501C49.4739 20.5544 49.5276 20.4733 49.5941 20.4069C49.6605 20.3405 49.7357 20.2897 49.8196 20.2546C49.9036 20.2175 49.9886 20.1989 50.0745 20.1989C50.1839 20.1989 50.2874 20.2302 50.3851 20.2927C50.4827 20.3552 50.5569 20.4538 50.6077 20.5886C50.596 20.5788 50.5823 20.572 50.5667 20.5681C50.553 20.5661 50.5384 20.5651 50.5228 20.5651C50.5013 20.5651 50.4788 20.57 50.4554 20.5798C50.4339 20.5895 50.4144 20.6032 50.3968 20.6208C50.3792 20.6384 50.3646 20.6579 50.3528 20.6794C50.3431 20.7028 50.3382 20.7272 50.3382 20.7526C50.3382 20.7819 50.3441 20.8063 50.3558 20.8259C50.3675 20.8474 50.3812 20.864 50.3968 20.8757C50.4144 20.8874 50.4329 20.8952 50.4525 20.8991C50.4739 20.905 50.4935 20.9079 50.511 20.9079C50.5384 20.9079 50.5726 20.902 50.6136 20.8903C50.6546 20.8786 50.6966 20.8542 50.7396 20.8171C50.7845 20.78 50.8284 20.7282 50.8714 20.6618C50.9163 20.5954 50.9554 20.5065 50.9886 20.3952C51.0237 20.2858 51.0511 20.152 51.0706 19.9938C51.0921 19.8356 51.1019 19.6462 51.0999 19.4255C51.0491 19.5622 50.9954 19.6735 50.9388 19.7595C50.8841 19.8434 50.8255 19.9089 50.763 19.9557C50.7025 20.0026 50.638 20.0339 50.5696 20.0495C50.5032 20.0651 50.4319 20.0729 50.3558 20.0729C50.2601 20.0729 50.1595 20.0563 50.054 20.0231C49.9505 19.988 49.8548 19.9274 49.7669 19.8415C49.681 19.7536 49.6097 19.6345 49.553 19.4841C49.4964 19.3337 49.4681 19.1423 49.4681 18.9099C49.4681 18.8786 49.4681 18.8571 49.4681 18.8454C49.47 18.8317 49.471 18.822 49.471 18.8161C49.471 18.8083 49.472 18.7995 49.4739 18.7897C49.4759 18.78 49.4769 18.7614 49.4769 18.7341C49.4769 18.7048 49.4769 18.6638 49.4769 18.611C49.4788 18.5583 49.4798 18.4841 49.4798 18.3884C49.4798 18.277 49.4778 18.1511 49.4739 18.0104C49.47 17.8698 49.4612 17.7321 49.4476 17.5974C49.4359 17.4626 49.4183 17.3405 49.3948 17.2311C49.3714 17.1198 49.3411 17.0378 49.304 16.985C49.4622 17.0124 49.6107 17.0309 49.7493 17.0407C49.89 17.0505 50.0179 17.0554 50.1331 17.0554C50.2093 17.0554 50.2776 17.0544 50.3382 17.0524C50.4007 17.0485 50.4544 17.0446 50.4993 17.0407C50.5501 17.0368 50.596 17.0319 50.637 17.0261C50.6214 17.0593 50.6038 17.1227 50.5843 17.2165C50.5667 17.3102 50.5491 17.4225 50.5316 17.5534C50.514 17.6843 50.4993 17.8278 50.4876 17.9841C50.4759 18.1384 50.47 18.2946 50.47 18.4528C50.47 18.572 50.4788 18.6735 50.4964 18.7575C50.514 18.8415 50.5374 18.9108 50.5667 18.9655C50.598 19.0182 50.6331 19.0573 50.6722 19.0827C50.7132 19.1081 50.7571 19.1208 50.804 19.1208C50.8782 19.1208 50.9368 19.0905 50.9798 19.03C51.0247 18.9694 51.0628 18.8932 51.0941 18.8015C51.0901 18.6804 51.0833 18.5388 51.0735 18.3766C51.0638 18.2145 51.0501 18.0456 51.0325 17.8698C51.0169 17.694 50.9954 17.5173 50.9681 17.3395C50.9427 17.1599 50.9105 16.9929 50.8714 16.8386C50.9319 16.86 51.0042 16.8796 51.0882 16.8972C51.1605 16.9128 51.2484 16.9265 51.3519 16.9382C51.4554 16.9479 51.5775 16.9528 51.7181 16.9528C51.8841 16.9528 52.0716 16.9411 52.2806 16.9177Z" fill="white" fill-opacity="0.8"/>
<path d="M5 31C5 28.2386 7.23858 26 10 26H52C54.7614 26 57 28.2386 57 31V32C57 34.7614 54.7614 37 52 37H10C7.23858 37 5 34.7614 5 32V31Z" fill="#2D0C4D" fill-opacity="0.8"/>
<path d="M23.5081 33.3864C23.3753 33.3766 23.2532 33.3698 23.1419 33.3659C23.0306 33.364 22.9261 33.363 22.8284 33.363C22.6507 33.363 22.5003 33.3679 22.3773 33.3776C22.2562 33.3874 22.1575 33.3981 22.0814 33.4099C21.9915 33.4235 21.9192 33.4391 21.8646 33.4567C21.8724 33.3962 21.8802 33.3386 21.888 33.2839C21.8958 33.2272 21.9017 33.1716 21.9056 33.1169C21.9114 33.0622 21.9153 33.0075 21.9173 32.9528C21.9212 32.8981 21.9232 32.8405 21.9232 32.78C21.9232 32.5632 21.9144 32.3825 21.8968 32.238C21.8812 32.0915 21.8577 31.9704 21.8265 31.8747C21.7952 31.779 21.7571 31.7009 21.7122 31.6403C21.6673 31.5798 21.6175 31.5261 21.5628 31.4792C21.5589 31.5671 21.556 31.652 21.554 31.7341C21.5521 31.8161 21.5511 31.903 21.5511 31.9948C21.5511 32.0866 21.553 32.1813 21.5569 32.279C21.5609 32.3766 21.5677 32.4811 21.5775 32.5925C21.5872 32.7018 21.6019 32.819 21.6214 32.944C21.6409 33.0671 21.6653 33.1999 21.6946 33.3425C21.6204 33.3366 21.5374 33.3298 21.4456 33.322C21.3675 33.3181 21.2747 33.3132 21.1673 33.3073C21.0599 33.3034 20.9417 33.3015 20.8128 33.3015C20.6839 33.3015 20.5472 33.3044 20.4026 33.3102C20.2581 33.3161 20.1067 33.3268 19.9485 33.3425C19.9954 33.2839 20.0374 33.2077 20.0745 33.114C20.1136 33.0202 20.1478 32.9177 20.1771 32.8063C20.2064 32.6931 20.2308 32.5749 20.2503 32.4518C20.2718 32.3288 20.2903 32.2077 20.306 32.0886C20.3411 31.8093 20.3646 31.5114 20.3763 31.195C20.3763 31.029 20.3743 30.8581 20.3704 30.6823C20.3665 30.5065 20.3567 30.3317 20.3411 30.1579C20.3255 29.9821 20.3021 29.8093 20.2708 29.6393C20.2415 29.4694 20.2005 29.3083 20.1478 29.1559C20.2298 29.1618 20.3109 29.1677 20.3909 29.1735C20.471 29.1774 20.5521 29.1794 20.6341 29.1794C21.0189 29.1794 21.3968 29.1393 21.7679 29.0593C21.6819 29.3132 21.6204 29.5651 21.5833 29.8151C21.5462 30.0632 21.5276 30.3112 21.5276 30.5593C21.5276 30.6198 21.5276 30.6804 21.5276 30.7409C21.5296 30.7995 21.5335 30.8591 21.5394 30.9196C21.7054 30.7087 21.8323 30.5016 21.9202 30.2985C22.0101 30.0954 22.055 29.8962 22.055 29.7009C22.055 29.6013 22.0433 29.5046 22.0198 29.4108C21.9984 29.3151 21.9622 29.2204 21.9114 29.1266C22.0091 29.1364 22.1058 29.1442 22.2015 29.1501C22.2991 29.154 22.3968 29.1559 22.4944 29.1559C22.6624 29.1559 22.8304 29.1481 22.9984 29.1325C23.1663 29.1169 23.3362 29.0925 23.5081 29.0593C23.4749 29.11 23.4446 29.1647 23.4173 29.2233C23.39 29.28 23.3646 29.3395 23.3411 29.402C23.3196 29.4626 23.2991 29.5241 23.2796 29.5866C23.262 29.6491 23.2464 29.7087 23.2327 29.7653C23.1995 29.9001 23.1732 30.0368 23.1536 30.1755C23.1321 30.3122 23.096 30.4421 23.0452 30.5651C23.0237 30.6179 22.9974 30.6725 22.9661 30.7292C22.9349 30.7839 22.8987 30.8376 22.8577 30.8903C22.8167 30.9411 22.7698 30.9899 22.7171 31.0368C22.6663 31.0817 22.6077 31.1208 22.5413 31.154C22.678 31.2106 22.7825 31.2809 22.8548 31.3649C22.929 31.4489 22.9847 31.5446 23.0218 31.652C23.0589 31.7575 23.0853 31.8737 23.1009 32.0007C23.1165 32.1257 23.136 32.2575 23.1595 32.3962C23.181 32.5134 23.2083 32.6306 23.2415 32.7477C23.2689 32.8474 23.304 32.9548 23.347 33.07C23.3919 33.1852 23.4456 33.2907 23.5081 33.3864ZM25.0286 33.2722C24.9954 33.2702 24.9564 33.2673 24.9114 33.2634C24.8724 33.2614 24.8265 33.2595 24.7737 33.2575C24.721 33.2556 24.6605 33.2546 24.5921 33.2546C24.4651 33.2546 24.3187 33.2604 24.1526 33.2722C23.9866 33.2819 23.8069 33.3015 23.6136 33.3307C23.6507 33.2565 23.6819 33.1638 23.7073 33.0524C23.7327 32.9391 23.7532 32.819 23.7689 32.6921C23.7864 32.5632 23.7991 32.4333 23.8069 32.3024C23.8167 32.1716 23.8235 32.0515 23.8275 31.9421C23.8314 31.8327 23.8333 31.7399 23.8333 31.6638C23.8353 31.5876 23.8362 31.5397 23.8362 31.5202C23.8323 31.2663 23.8235 31.029 23.8099 30.8083C23.804 30.7145 23.7962 30.6198 23.7864 30.5241C23.7786 30.4284 23.7689 30.3386 23.7571 30.2546C23.7454 30.1686 23.7317 30.0925 23.7161 30.0261C23.7025 29.9577 23.6859 29.904 23.6663 29.8649C23.8245 29.8923 23.971 29.9108 24.1058 29.9206C24.2405 29.9304 24.3626 29.9352 24.472 29.9352C24.5423 29.9352 24.6048 29.9343 24.6595 29.9323C24.7161 29.9284 24.764 29.9245 24.803 29.9206C24.8499 29.9167 24.8909 29.9118 24.9261 29.9059C24.8909 30.0817 24.8616 30.2936 24.8382 30.5417C24.8167 30.7897 24.806 31.0554 24.806 31.3386C24.806 31.5007 24.8099 31.6647 24.8177 31.8307C24.8255 31.9968 24.8382 32.1628 24.8558 32.3288C24.8734 32.4929 24.8958 32.655 24.9232 32.8151C24.9525 32.9733 24.9876 33.1257 25.0286 33.2722ZM23.6839 29.0827C23.6839 28.9929 23.7005 28.9089 23.7337 28.8307C23.7689 28.7507 23.8157 28.6813 23.8743 28.6227C23.9349 28.5622 24.0052 28.5153 24.0853 28.4821C24.1653 28.447 24.2503 28.4294 24.3401 28.4294C24.43 28.4294 24.514 28.447 24.5921 28.4821C24.6722 28.5153 24.7415 28.5622 24.8001 28.6227C24.8607 28.6813 24.9075 28.7507 24.9407 28.8307C24.9759 28.9089 24.9935 28.9929 24.9935 29.0827C24.9935 29.1725 24.9759 29.2575 24.9407 29.3376C24.9075 29.4177 24.8607 29.488 24.8001 29.5485C24.7415 29.6071 24.6722 29.654 24.5921 29.6891C24.514 29.7224 24.43 29.739 24.3401 29.739C24.2503 29.739 24.1653 29.7224 24.0853 29.6891C24.0052 29.654 23.9349 29.6071 23.8743 29.5485C23.8157 29.488 23.7689 29.4177 23.7337 29.3376C23.7005 29.2575 23.6839 29.1725 23.6839 29.0827ZM28.3011 33.3425C28.2405 33.3327 28.1741 33.3259 28.1019 33.322C28.0296 33.32 27.9544 33.319 27.8763 33.319C27.7825 33.319 27.6868 33.321 27.5892 33.3249C27.4935 33.3307 27.3997 33.3376 27.3079 33.3454C27.2161 33.3532 27.1292 33.362 27.0472 33.3718C26.9651 33.3815 26.8939 33.3903 26.8333 33.3981C26.9173 33.1149 26.9817 32.8122 27.0267 32.4899C27.0735 32.1677 27.097 31.8102 27.097 31.4177C27.097 31.3884 27.096 31.3493 27.0941 31.3005C27.0941 31.2516 27.0921 31.1989 27.0882 31.1423C27.0843 31.0856 27.0775 31.029 27.0677 30.9724C27.0599 30.9138 27.0472 30.861 27.0296 30.8141C27.014 30.7673 26.9935 30.7292 26.9681 30.6999C26.9427 30.6706 26.9114 30.6559 26.8743 30.6559C26.8196 30.6559 26.7659 30.6755 26.7132 30.7145C26.6624 30.7536 26.6165 30.8054 26.5755 30.8698C26.5364 30.9343 26.5042 31.0085 26.4788 31.0925C26.4554 31.1765 26.4437 31.2634 26.4437 31.3532C26.4437 31.5153 26.4476 31.6804 26.4554 31.8483C26.4632 32.0143 26.4759 32.1794 26.4935 32.3434C26.511 32.5075 26.5335 32.6686 26.5609 32.8268C26.5882 32.9831 26.6224 33.1315 26.6634 33.2722C26.6302 33.2702 26.5911 33.2673 26.5462 33.2634C26.5071 33.2614 26.4612 33.2595 26.4085 33.2575C26.3558 33.2556 26.2952 33.2546 26.2269 33.2546C26.0999 33.2546 25.9534 33.2604 25.7874 33.2722C25.6214 33.2819 25.4417 33.3015 25.2484 33.3307C25.2718 33.2214 25.2923 33.0876 25.3099 32.9294C25.3275 32.7712 25.3421 32.5993 25.3538 32.4138C25.3655 32.2282 25.3743 32.0349 25.3802 31.8337C25.388 31.6306 25.3919 31.4304 25.3919 31.2331C25.3919 31.0866 25.39 30.9431 25.386 30.8024C25.3821 30.6618 25.3763 30.529 25.3685 30.404C25.3626 30.279 25.3538 30.1638 25.3421 30.0583C25.3304 29.9528 25.3167 29.862 25.3011 29.7858C25.4593 29.8132 25.6058 29.8327 25.7405 29.8444C25.8753 29.8542 25.9974 29.8591 26.1067 29.8591C26.1771 29.8591 26.2396 29.8581 26.2942 29.8561C26.3509 29.8522 26.3987 29.8483 26.4378 29.8444C26.4847 29.8386 26.5257 29.8327 26.5609 29.8268C26.5491 29.8874 26.5374 29.9518 26.5257 30.0202C26.5159 30.0886 26.5062 30.1628 26.4964 30.2429C26.5609 30.1608 26.6292 30.0895 26.7015 30.029C26.7737 29.9665 26.846 29.9147 26.9183 29.8737C26.9925 29.8327 27.0657 29.8024 27.138 29.7829C27.2103 29.7614 27.2786 29.7507 27.3431 29.7507C27.4837 29.7507 27.6048 29.78 27.7064 29.8386C27.8099 29.8952 27.8948 29.985 27.9612 30.1081C28.0296 30.2311 28.0804 30.3884 28.1136 30.5798C28.1468 30.7712 28.1634 31.0007 28.1634 31.2682C28.1634 31.4518 28.1634 31.6384 28.1634 31.8278C28.1653 32.0173 28.1702 32.2028 28.178 32.3845C28.1859 32.5661 28.1995 32.739 28.2191 32.903C28.2386 33.0651 28.2659 33.2116 28.3011 33.3425ZM31.5062 29.9177C31.4847 29.9997 31.4661 30.1003 31.4505 30.2194C31.4368 30.3366 31.4241 30.4655 31.4124 30.6061C31.4007 30.7448 31.3909 30.8893 31.3831 31.0397C31.3773 31.1901 31.3714 31.3376 31.3655 31.4821C31.3538 31.822 31.347 32.1823 31.345 32.5632C31.345 32.7624 31.3323 32.9577 31.3069 33.1491C31.2835 33.3386 31.2444 33.5173 31.1898 33.6852C31.137 33.8532 31.0677 34.0085 30.9817 34.1511C30.8958 34.2936 30.7913 34.4157 30.6683 34.5173C30.5472 34.6188 30.4066 34.6979 30.2464 34.7546C30.0862 34.8132 29.9046 34.8425 29.7015 34.8425C29.512 34.8425 29.348 34.8229 29.2093 34.7839C29.0706 34.7448 28.9554 34.6891 28.8636 34.6169C28.7737 34.5466 28.7064 34.4616 28.6614 34.362C28.6185 34.2643 28.597 34.155 28.597 34.0339C28.597 33.9147 28.6175 33.8073 28.6585 33.7116C28.6995 33.6159 28.7532 33.5339 28.8196 33.4655C28.886 33.3991 28.9603 33.3483 29.0423 33.3132C29.1263 33.278 29.2112 33.2604 29.2972 33.2604C29.4085 33.2604 29.513 33.2917 29.6107 33.3542C29.7083 33.4167 29.7825 33.5153 29.8333 33.6501C29.8099 33.6345 29.7816 33.6266 29.7484 33.6266C29.7034 33.6266 29.6614 33.6442 29.6224 33.6794C29.5833 33.7165 29.5638 33.7604 29.5638 33.8112C29.5638 33.8405 29.5687 33.8649 29.5784 33.8845C29.5901 33.9059 29.6048 33.9225 29.6224 33.9343C29.64 33.946 29.6585 33.9538 29.678 33.9577C29.6995 33.9636 29.7191 33.9665 29.7366 33.9665C29.7581 33.9665 29.7874 33.9626 29.8245 33.9548C29.8636 33.9489 29.9056 33.9304 29.9505 33.8991C29.9954 33.8679 30.0403 33.82 30.0853 33.7556C30.1302 33.6911 30.1712 33.6022 30.2083 33.489C30.2454 33.3757 30.2747 33.2321 30.2962 33.0583C30.3196 32.8845 30.3314 32.6735 30.3314 32.4255C30.2923 32.5993 30.2435 32.736 30.1849 32.8356C30.1263 32.9352 30.0638 33.0104 29.9974 33.0612C29.931 33.11 29.8626 33.1403 29.7923 33.152C29.7239 33.1638 29.6595 33.1696 29.5989 33.1696C29.5521 33.1696 29.4925 33.1618 29.4202 33.1462C29.348 33.1286 29.2708 33.0993 29.1888 33.0583C29.1087 33.0153 29.0267 32.9577 28.9427 32.8854C28.8607 32.8112 28.7864 32.7184 28.72 32.6071C28.6536 32.4938 28.5989 32.3591 28.556 32.2028C28.515 32.0446 28.4944 31.8591 28.4944 31.6462C28.4944 31.3181 28.5276 31.0407 28.5941 30.8141C28.6624 30.5876 28.7493 30.405 28.8548 30.2663C28.9622 30.1257 29.0804 30.0251 29.2093 29.9645C29.3382 29.902 29.4642 29.8708 29.5872 29.8708C29.6751 29.8708 29.7552 29.8854 29.8275 29.9147C29.8997 29.9421 29.9651 29.9792 30.0237 30.0261C30.0823 30.0729 30.1341 30.1257 30.179 30.1843C30.2239 30.2409 30.264 30.2985 30.2991 30.3571C30.2874 30.2712 30.2728 30.1852 30.2552 30.0993C30.2396 30.0134 30.221 29.9265 30.1995 29.8386C30.2484 29.86 30.3089 29.8796 30.3812 29.8972C30.4437 29.9128 30.5218 29.9265 30.6155 29.9382C30.7093 29.9479 30.8226 29.9528 30.9554 29.9528C31.1116 29.9528 31.2952 29.9411 31.5062 29.9177ZM30.2581 31.3884C30.2581 31.3337 30.2542 31.2682 30.2464 31.1921C30.2386 31.114 30.2239 31.0397 30.2025 30.9694C30.181 30.8972 30.1507 30.8356 30.1116 30.7849C30.0745 30.7341 30.0257 30.7087 29.9651 30.7087C29.9202 30.7087 29.8792 30.735 29.8421 30.7878C29.805 30.8386 29.7728 30.9011 29.7454 30.9753C29.72 31.0475 29.6995 31.1227 29.6839 31.2009C29.6702 31.279 29.6634 31.3454 29.6634 31.4001C29.6634 31.4938 29.6683 31.5895 29.678 31.6872C29.6878 31.7849 29.7034 31.8737 29.7249 31.9538C29.7484 32.0319 29.7767 32.0964 29.8099 32.1472C29.845 32.1979 29.886 32.2233 29.9329 32.2233C29.9837 32.2233 30.0286 32.2116 30.0677 32.1882C30.1087 32.1628 30.1429 32.1296 30.1702 32.0886C30.1995 32.0456 30.221 31.9968 30.2347 31.9421C30.2503 31.8874 30.2581 31.8288 30.2581 31.7663V31.3884ZM36.1292 31.2067C36.1292 31.5251 36.0941 31.7985 36.0237 32.027C35.9534 32.2556 35.8607 32.4499 35.7454 32.61C35.6302 32.7682 35.4993 32.8962 35.3528 32.9938C35.2064 33.0895 35.0569 33.1647 34.9046 33.2194C34.7542 33.2722 34.6067 33.3073 34.4622 33.3249C34.3177 33.3425 34.1898 33.3513 34.0784 33.3513C33.889 33.3513 33.7269 33.3444 33.5921 33.3307C33.4593 33.319 33.3489 33.3132 33.261 33.3132C33.1614 33.3132 33.0511 33.3151 32.93 33.319C32.8089 33.3229 32.681 33.3307 32.5462 33.3425C32.5989 33.2468 32.6448 33.1403 32.6839 33.0231C32.7249 32.904 32.7601 32.78 32.7894 32.6511C32.8187 32.5222 32.8431 32.3923 32.8626 32.2614C32.8841 32.1286 32.9017 32.0007 32.9153 31.8776C32.9466 31.5886 32.9642 31.2917 32.9681 30.987C32.9642 30.6843 32.9495 30.4001 32.9241 30.1345C32.9124 30.0212 32.8978 29.9079 32.8802 29.7946C32.8646 29.6794 32.845 29.571 32.8216 29.4694C32.7982 29.3659 32.7698 29.2731 32.7366 29.1911C32.7054 29.1091 32.6683 29.0436 32.6253 28.9948C32.7698 29.0182 32.9066 29.0339 33.0355 29.0417C33.1663 29.0495 33.2816 29.0534 33.3812 29.0534C33.4456 29.0534 33.5081 29.0515 33.5687 29.0475C33.6292 29.0436 33.6917 29.0397 33.7562 29.0358C33.8206 29.0319 33.889 29.028 33.9612 29.0241C34.0355 29.0202 34.1185 29.0182 34.2103 29.0182C34.3431 29.0182 34.4827 29.028 34.6292 29.0475C34.7776 29.0651 34.9222 29.1013 35.0628 29.1559C35.2054 29.2106 35.3411 29.2878 35.47 29.3874C35.5989 29.487 35.7122 29.6179 35.8099 29.78C35.9075 29.9421 35.9847 30.1403 36.0413 30.3747C36.0999 30.6071 36.1292 30.8845 36.1292 31.2067ZM34.6966 31.1423C34.6966 30.9138 34.6898 30.7233 34.6761 30.571C34.6624 30.4186 34.6419 30.2966 34.6146 30.2048C34.5892 30.111 34.5569 30.0446 34.5179 30.0056C34.4788 29.9665 34.4339 29.947 34.3831 29.947C34.3382 29.947 34.2972 29.9704 34.2601 30.0173C34.2249 30.0622 34.1946 30.1354 34.1692 30.237C34.1439 30.3386 34.1243 30.4694 34.1107 30.6296C34.097 30.7878 34.0901 30.9802 34.0901 31.2067C34.0901 31.445 34.096 31.6442 34.1077 31.8044C34.1214 31.9626 34.14 32.0895 34.1634 32.1852C34.1888 32.2809 34.2191 32.3493 34.2542 32.3903C34.2913 32.4294 34.3343 32.4489 34.3831 32.4489C34.4788 32.4489 34.555 32.3444 34.6116 32.1354C34.6683 31.9265 34.6966 31.5954 34.6966 31.1423ZM39.1761 31.5729C39.1761 31.6862 39.1673 31.8112 39.1497 31.9479C39.1321 32.0827 39.1028 32.2194 39.0618 32.3581C39.0208 32.4948 38.9651 32.6286 38.8948 32.7595C38.8245 32.8884 38.7366 33.0026 38.6312 33.1022C38.5276 33.2018 38.4036 33.2819 38.2591 33.3425C38.1146 33.403 37.9466 33.4333 37.7552 33.4333C37.5638 33.4333 37.3958 33.405 37.2513 33.3483C37.1087 33.2917 36.9857 33.2165 36.8821 33.1227C36.7806 33.027 36.6966 32.9177 36.6302 32.7946C36.5638 32.6696 36.511 32.5388 36.472 32.402C36.4329 32.2653 36.4056 32.1276 36.39 31.989C36.3763 31.8483 36.3694 31.7155 36.3694 31.5905C36.3694 31.3698 36.3987 31.154 36.4573 30.9431C36.5159 30.7302 36.6048 30.5407 36.7239 30.3747C36.845 30.2087 36.9954 30.0749 37.1751 29.9733C37.3567 29.8718 37.5696 29.821 37.8138 29.821C37.9778 29.821 38.1253 29.8464 38.2562 29.8972C38.387 29.946 38.5032 30.0134 38.6048 30.0993C38.7064 30.1852 38.7923 30.2858 38.8626 30.4011C38.9349 30.5163 38.9944 30.6384 39.0413 30.7673C39.0882 30.8962 39.1224 31.03 39.1439 31.1686C39.1653 31.3073 39.1761 31.4421 39.1761 31.5729ZM38.1566 31.6696C38.1566 31.6247 38.1546 31.569 38.1507 31.5026C38.1487 31.4343 38.1429 31.363 38.1331 31.2888C38.1234 31.2145 38.1097 31.1403 38.0921 31.0661C38.0765 30.9919 38.055 30.9255 38.0276 30.8669C38.0003 30.8083 37.9661 30.7604 37.9251 30.7233C37.886 30.6862 37.8392 30.6677 37.7845 30.6677C37.7317 30.6677 37.6859 30.6852 37.6468 30.7204C37.6077 30.7556 37.5735 30.8015 37.5442 30.8581C37.5169 30.9147 37.4935 30.9792 37.4739 31.0515C37.4564 31.1218 37.4417 31.1931 37.43 31.2653C37.4202 31.3356 37.4124 31.404 37.4066 31.4704C37.4026 31.5349 37.4007 31.5895 37.4007 31.6345C37.4007 31.6989 37.4056 31.777 37.4153 31.8688C37.4251 31.9606 37.4437 32.0485 37.471 32.1325C37.4984 32.2165 37.5355 32.2888 37.5823 32.3493C37.6312 32.4079 37.6946 32.4372 37.7728 32.4372C37.847 32.4372 37.9085 32.4099 37.9573 32.3552C38.0081 32.3005 38.0482 32.2341 38.0775 32.1559C38.1067 32.0759 38.1273 31.9919 38.139 31.904C38.1507 31.8161 38.1566 31.738 38.1566 31.6696ZM42.4163 29.9177C42.3948 29.9997 42.3763 30.1003 42.3607 30.2194C42.347 30.3366 42.3343 30.4655 42.3226 30.6061C42.3109 30.7448 42.3011 30.8893 42.2933 31.0397C42.2874 31.1901 42.2816 31.3376 42.2757 31.4821C42.264 31.822 42.2571 32.1823 42.2552 32.5632C42.2552 32.7624 42.2425 32.9577 42.2171 33.1491C42.1937 33.3386 42.1546 33.5173 42.0999 33.6852C42.0472 33.8532 41.9778 34.0085 41.8919 34.1511C41.806 34.2936 41.7015 34.4157 41.5784 34.5173C41.4573 34.6188 41.3167 34.6979 41.1566 34.7546C40.9964 34.8132 40.8148 34.8425 40.6116 34.8425C40.4222 34.8425 40.2581 34.8229 40.1194 34.7839C39.9808 34.7448 39.8655 34.6891 39.7737 34.6169C39.6839 34.5466 39.6165 34.4616 39.5716 34.362C39.5286 34.2643 39.5071 34.155 39.5071 34.0339C39.5071 33.9147 39.5276 33.8073 39.5687 33.7116C39.6097 33.6159 39.6634 33.5339 39.7298 33.4655C39.7962 33.3991 39.8704 33.3483 39.9525 33.3132C40.0364 33.278 40.1214 33.2604 40.2073 33.2604C40.3187 33.2604 40.4232 33.2917 40.5208 33.3542C40.6185 33.4167 40.6927 33.5153 40.7435 33.6501C40.72 33.6345 40.6917 33.6266 40.6585 33.6266C40.6136 33.6266 40.5716 33.6442 40.5325 33.6794C40.4935 33.7165 40.4739 33.7604 40.4739 33.8112C40.4739 33.8405 40.4788 33.8649 40.4886 33.8845C40.5003 33.9059 40.515 33.9225 40.5325 33.9343C40.5501 33.946 40.5687 33.9538 40.5882 33.9577C40.6097 33.9636 40.6292 33.9665 40.6468 33.9665C40.6683 33.9665 40.6976 33.9626 40.7347 33.9548C40.7737 33.9489 40.8157 33.9304 40.8607 33.8991C40.9056 33.8679 40.9505 33.82 40.9954 33.7556C41.0403 33.6911 41.0814 33.6022 41.1185 33.489C41.1556 33.3757 41.1849 33.2321 41.2064 33.0583C41.2298 32.8845 41.2415 32.6735 41.2415 32.4255C41.2025 32.5993 41.1536 32.736 41.095 32.8356C41.0364 32.9352 40.9739 33.0104 40.9075 33.0612C40.8411 33.11 40.7728 33.1403 40.7025 33.152C40.6341 33.1638 40.5696 33.1696 40.5091 33.1696C40.4622 33.1696 40.4026 33.1618 40.3304 33.1462C40.2581 33.1286 40.181 33.0993 40.0989 33.0583C40.0189 33.0153 39.9368 32.9577 39.8528 32.8854C39.7708 32.8112 39.6966 32.7184 39.6302 32.6071C39.5638 32.4938 39.5091 32.3591 39.4661 32.2028C39.4251 32.0446 39.4046 31.8591 39.4046 31.6462C39.4046 31.3181 39.4378 31.0407 39.5042 30.8141C39.5726 30.5876 39.6595 30.405 39.765 30.2663C39.8724 30.1257 39.9905 30.0251 40.1194 29.9645C40.2484 29.902 40.3743 29.8708 40.4974 29.8708C40.5853 29.8708 40.6653 29.8854 40.7376 29.9147C40.8099 29.9421 40.8753 29.9792 40.9339 30.0261C40.9925 30.0729 41.0442 30.1257 41.0892 30.1843C41.1341 30.2409 41.1741 30.2985 41.2093 30.3571C41.1976 30.2712 41.1829 30.1852 41.1653 30.0993C41.1497 30.0134 41.1312 29.9265 41.1097 29.8386C41.1585 29.86 41.2191 29.8796 41.2913 29.8972C41.3538 29.9128 41.4319 29.9265 41.5257 29.9382C41.6194 29.9479 41.7327 29.9528 41.8655 29.9528C42.0218 29.9528 42.2054 29.9411 42.4163 29.9177ZM41.1683 31.3884C41.1683 31.3337 41.1644 31.2682 41.1566 31.1921C41.1487 31.114 41.1341 31.0397 41.1126 30.9694C41.0911 30.8972 41.0609 30.8356 41.0218 30.7849C40.9847 30.7341 40.9359 30.7087 40.8753 30.7087C40.8304 30.7087 40.7894 30.735 40.7523 30.7878C40.7151 30.8386 40.6829 30.9011 40.6556 30.9753C40.6302 31.0475 40.6097 31.1227 40.5941 31.2009C40.5804 31.279 40.5735 31.3454 40.5735 31.4001C40.5735 31.4938 40.5784 31.5895 40.5882 31.6872C40.598 31.7849 40.6136 31.8737 40.6351 31.9538C40.6585 32.0319 40.6868 32.0964 40.72 32.1472C40.7552 32.1979 40.7962 32.2233 40.8431 32.2233C40.8939 32.2233 40.9388 32.2116 40.9778 32.1882C41.0189 32.1628 41.053 32.1296 41.0804 32.0886C41.1097 32.0456 41.1312 31.9968 41.1448 31.9421C41.1605 31.8874 41.1683 31.8288 41.1683 31.7663V31.3884Z" fill="white" fill-opacity="0.8"/>
<defs>
<filter id="filter0_d_3277_147" x="0" y="0" width="62" height="86" filterUnits="userSpaceOnUse" color-interpolation-filters="sRGB">
<feFlood flood-opacity="0" result="BackgroundImageFix"/>
<feColorMatrix in="SourceAlpha" type="matrix" values="0 0 0 0 0 0 0 0 0 0 0 0 0 0 0 0 0 0 127 0" result="hardAlpha"/>
<feOffset dy="4"/>
<feComposite in2="hardAlpha" operator="out"/>
<feColorMatrix type="matrix" values="0 0 0 0 0 0 0 0 0 0 0 0 0 0 0 0 0 0 0.25 0"/>
<feBlend mode="normal" in2="BackgroundImageFix" result="effect1_dropShadow_3277_147"/>
<feBlend mode="normal" in="SourceGraphic" in2="effect1_dropShadow_3277_147" result="shape"/>
</filter>
<filter id="filter1_d_3277_147" x="12.998" y="33.8585" width="36.0938" height="16.6615" filterUnits="userSpaceOnUse" color-interpolation-filters="sRGB">
<feFlood flood-opacity="0" result="BackgroundImageFix"/>
<feColorMatrix in="SourceAlpha" type="matrix" values="0 0 0 0 0 0 0 0 0 0 0 0 0 0 0 0 0 0 127 0" result="hardAlpha"/>
<feOffset dy="2"/>
<feComposite in2="hardAlpha" operator="out"/>
<feColorMatrix type="matrix" values="0 0 0 0 0 0 0 0 0 0 0 0 0 0 0 0 0 0 0.25 0"/>
<feBlend mode="normal" in2="BackgroundImageFix" result="effect1_dropShadow_3277_147"/>
<feBlend mode="normal" in="SourceGraphic" in2="effect1_dropShadow_3277_147" result="shape"/>
</filter>
<filter id="filter2_d_3277_147" x="3.11719" y="3.10873" width="15.1406" height="7.14996" filterUnits="userSpaceOnUse" color-interpolation-filters="sRGB">
<feFlood flood-opacity="0" result="BackgroundImageFix"/>
<feColorMatrix in="SourceAlpha" type="matrix" values="0 0 0 0 0 0 0 0 0 0 0 0 0 0 0 0 0 0 127 0" result="hardAlpha"/>
<feOffset dy="1"/>
<feComposite in2="hardAlpha" operator="out"/>
<feColorMatrix type="matrix" values="0 0 0 0 0 0 0 0 0 0 0 0 0 0 0 0 0 0 0.25 0"/>
<feBlend mode="normal" in2="BackgroundImageFix" result="effect1_dropShadow_3277_147"/>
<feBlend mode="normal" in="SourceGraphic" in2="effect1_dropShadow_3277_147" result="shape"/>
</filter>
<filter id="filter3_d_3277_147" x="44.291" y="71.8081" width="15.1406" height="7.14996" filterUnits="userSpaceOnUse" color-interpolation-filters="sRGB">
<feFlood flood-opacity="0" result="BackgroundImageFix"/>
<feColorMatrix in="SourceAlpha" type="matrix" values="0 0 0 0 0 0 0 0 0 0 0 0 0 0 0 0 0 0 127 0" result="hardAlpha"/>
<feOffset dy="-1"/>
<feComposite in2="hardAlpha" operator="out"/>
<feColorMatrix type="matrix" values="0 0 0 0 0 0 0 0 0 0 0 0 0 0 0 0 0 0 0.25 0"/>
<feBlend mode="normal" in2="BackgroundImageFix" result="effect1_dropShadow_3277_147"/>
<feBlend mode="normal" in="SourceGraphic" in2="effect1_dropShadow_3277_147" result="shape"/>
</filter>
</defs>
</svg>
