<svg width="150" height="201" viewBox="0 0 150 201" fill="none" xmlns="http://www.w3.org/2000/svg">
<rect width="150" height="201" rx="5" fill="#FFCC6A" fill-opacity="0.9"/>
<rect x="28" y="7" width="94" height="98" rx="15" fill="#FFE4AF"/>
<path d="M59.9684 50.6098C61.4468 51.9368 40.7738 45.5752 36.9753 34.0681C34.2981 25.9581 37.2227 19.4623 44.6397 19.8896C50.1379 20.2063 55.1528 28.5583 55.1609 30.1097" stroke="#D9AA4D" stroke-width="5" stroke-linecap="round"/>
<path d="M91.0316 50.6098C89.5532 51.9368 110.226 45.5752 114.025 34.0681C116.702 25.9581 113.777 19.4623 106.36 19.8896C100.862 20.2063 95.8472 28.5583 95.8391 30.1097" stroke="#D9AA4D" stroke-width="5" stroke-linecap="round"/>
<rect x="48.0234" y="86.8491" width="54.9576" height="13.7394" rx="1" fill="#412301"/>
<path d="M54.8857 86.8491C54.8857 84.0035 57.1925 81.6968 60.038 81.6968H90.9516C93.7972 81.6968 96.1039 84.0035 96.1039 86.8491H54.8857Z" fill="#D9AA4D"/>
<path d="M65.1975 78.2626C68.6324 78.2626 69.4911 73.1104 69.4911 73.1104H75.5021H81.5131C81.5131 73.1104 82.3718 78.2626 85.8066 78.2626C89.2415 78.2626 89.2415 81.6975 89.2415 81.6975H61.7627C61.7627 81.6975 61.7627 78.2626 65.1975 78.2626Z" fill="#FFCC66"/>
<path d="M84.083 62.8057C80.6482 62.8057 81.5069 67.958 81.5069 67.958H75.4959H69.4849C69.4849 67.958 70.3436 62.8057 66.9088 62.8057H84.083Z" fill="#FFCC66"/>
<rect x="66.917" y="67.958" width="17.1742" height="5.15227" rx="2.57614" fill="#D9AA4D"/>
<path d="M49.7441 13H101.267L98.1653 44.0159C97.0011 55.6574 87.2051 64.5227 75.5055 64.5227C63.806 64.5227 54.0099 55.6574 52.8457 44.0159L49.7441 13Z" fill="#FFCC66"/>
<path d="M62.7305 30.9688C62.5039 31.4375 62.3359 31.9609 62.2266 32.5391C62.125 33.1172 62.0625 33.6875 62.0391 34.25C62.3281 34.2266 62.625 34.1992 62.9297 34.168C63.2422 34.1289 63.543 34.082 63.832 34.0273C64.1289 33.9727 64.4062 33.9102 64.6641 33.8398C64.9219 33.7617 65.1523 33.6758 65.3555 33.582C65.293 33.9336 65.2461 34.2773 65.2148 34.6133C65.1914 34.9492 65.1797 35.293 65.1797 35.6445C65.1797 35.9805 65.1914 36.3203 65.2148 36.6641C65.2461 37.0078 65.293 37.3477 65.3555 37.6836C65.1289 37.5664 64.8828 37.4648 64.6172 37.3789C64.3516 37.293 64.0742 37.2227 63.7852 37.168C63.5039 37.1133 63.2148 37.0703 62.918 37.0391C62.6289 37.0078 62.3438 36.9844 62.0625 36.9688C62.1016 37.5312 62.1602 38.0938 62.2383 38.6562C62.3242 39.2188 62.4414 39.7656 62.5898 40.2969C62.4961 40.2656 62.3789 40.2383 62.2383 40.2148C62.0977 40.1914 61.9492 40.1758 61.793 40.168C61.6445 40.1523 61.5 40.1445 61.3594 40.1445C61.2188 40.1367 61.1016 40.1328 61.0078 40.1328C60.6094 40.1328 60.2148 40.1484 59.8242 40.1797C59.4414 40.2109 59.0508 40.25 58.6523 40.2969C58.832 39.8672 58.9727 39.3594 59.0742 38.7734C59.1758 38.1797 59.25 37.5938 59.2969 37.0156C58.7422 37.0547 58.1875 37.1133 57.6328 37.1914C57.0859 37.2617 56.5547 37.3711 56.0391 37.5195C56.0703 37.4258 56.0977 37.3086 56.1211 37.168C56.1445 37.0273 56.1602 36.8828 56.168 36.7344C56.1836 36.5859 56.1914 36.4414 56.1914 36.3008C56.1992 36.1602 56.2031 36.0469 56.2031 35.9609C56.2031 35.5625 56.1875 35.168 56.1562 34.7773C56.125 34.3789 56.0859 33.9805 56.0391 33.582C56.4766 33.7617 56.9844 33.9023 57.5625 34.0039C58.1406 34.1055 58.7188 34.1797 59.2969 34.2266C59.2812 33.9375 59.2539 33.6445 59.2148 33.3477C59.1836 33.0508 59.1406 32.7617 59.0859 32.4805C59.0391 32.1914 58.9766 31.918 58.8984 31.6602C58.8281 31.4023 58.7461 31.1719 58.6523 30.9688C58.9883 31.0391 59.3281 31.0898 59.6719 31.1211C60.0156 31.1445 60.3555 31.1562 60.6914 31.1562C61.043 31.1562 61.3867 31.1445 61.7227 31.1211C62.0586 31.0898 62.3945 31.0391 62.7305 30.9688ZM71.9414 31.7773C72.1758 31.7852 72.5156 31.8086 72.9609 31.8477C73.4141 31.8867 73.9062 31.9766 74.4375 32.1172C74.9688 32.2578 75.5117 32.4648 76.0664 32.7383C76.6211 33.0039 77.125 33.375 77.5781 33.8516C78.0312 34.3203 78.4023 34.9102 78.6914 35.6211C78.9805 36.3242 79.125 37.1797 79.125 38.1875C79.125 39.1172 78.9844 39.9648 78.7031 40.7305C78.4297 41.4883 78.0117 42.1367 77.4492 42.6758C76.8945 43.2148 76.1914 43.6289 75.3398 43.918C74.4961 44.2148 73.5 44.3633 72.3516 44.3633C71.3438 44.3633 70.4648 44.2188 69.7148 43.9297C68.9648 43.6484 68.3398 43.2695 67.8398 42.793C67.3398 42.3164 66.9648 41.7734 66.7148 41.1641C66.4727 40.5469 66.3516 39.9141 66.3516 39.2656C66.3516 38.7891 66.4297 38.375 66.5859 38.0234C66.7422 37.6641 66.957 37.3672 67.2305 37.1328C67.5117 36.8906 67.8359 36.7109 68.2031 36.5938C68.5781 36.4766 68.9766 36.418 69.3984 36.418C69.7266 36.418 70.0469 36.4531 70.3594 36.5234C70.6797 36.5938 70.9766 36.6992 71.25 36.8398C71.5312 36.9727 71.7812 37.1367 72 37.332C72.2266 37.5273 72.4062 37.75 72.5391 38C72.375 37.9531 72.2344 37.9297 72.1172 37.9297C72.0078 37.9297 71.8984 37.957 71.7891 38.0117C71.6875 38.0586 71.5938 38.125 71.5078 38.2109C71.4219 38.2969 71.3516 38.3984 71.2969 38.5156C71.25 38.625 71.2266 38.7422 71.2266 38.8672C71.2266 39 71.25 39.1406 71.2969 39.2891C71.3516 39.4297 71.4297 39.5586 71.5312 39.6758C71.6406 39.793 71.7734 39.8906 71.9297 39.9688C72.0938 40.0469 72.2812 40.0859 72.4922 40.0859C73 40.0859 73.375 39.9297 73.6172 39.6172C73.8594 39.2969 73.9805 38.8789 73.9805 38.3633C73.9805 37.9102 73.8672 37.5117 73.6406 37.168C73.4141 36.8164 73.1172 36.5234 72.75 36.2891C72.3828 36.0469 71.9648 35.8594 71.4961 35.7266C71.0273 35.5859 70.5508 35.4961 70.0664 35.457C69.5898 35.4102 69.1211 35.4141 68.6602 35.4688C68.1992 35.5156 67.7969 35.6055 67.4531 35.7383C67.4531 35.7148 67.4492 35.5859 67.4414 35.3516C67.4414 35.1172 67.4375 34.8164 67.4297 34.4492C67.4219 34.0742 67.4102 33.6484 67.3945 33.1719C67.3789 32.6953 67.3555 32.2031 67.3242 31.6953C67.3008 31.1797 67.2695 30.6641 67.2305 30.1484C67.1914 29.625 67.1406 29.1367 67.0781 28.6836C67.0234 28.2227 66.957 27.8125 66.8789 27.4531C66.8086 27.0859 66.7227 26.8008 66.6211 26.5977C67.3711 26.7539 68.1328 26.8672 68.9062 26.9375C69.6797 27 70.4453 27.0312 71.2031 27.0312C72.0703 27.0312 72.9141 27.0039 73.7344 26.9492C74.5625 26.8867 75.3008 26.8164 75.9492 26.7383C76.707 26.6523 77.4219 26.5508 78.0938 26.4336V32.6445C77.6719 32.2852 77.2383 31.9844 76.793 31.7422C76.3555 31.4922 75.9219 31.293 75.4922 31.1445C75.0703 30.9961 74.6641 30.8906 74.2734 30.8281C73.8828 30.7578 73.5312 30.7227 73.2188 30.7227H72.0352L71.9414 31.7773ZM93.7617 35.5039C93.7617 36.1914 93.7031 36.8828 93.5859 37.5781C93.4766 38.2656 93.3047 38.9297 93.0703 39.5703C92.8438 40.2031 92.5469 40.7969 92.1797 41.3516C91.8203 41.8984 91.3906 42.375 90.8906 42.7812C90.3984 43.1875 89.832 43.5078 89.1914 43.7422C88.5508 43.9766 87.8359 44.0938 87.0469 44.0938C86.2578 44.0938 85.5469 43.9883 84.9141 43.7773C84.2812 43.5664 83.7148 43.2734 83.2148 42.8984C82.7148 42.5156 82.2852 42.0586 81.9258 41.5273C81.5664 40.9961 81.2695 40.4141 81.0352 39.7812C80.8008 39.1406 80.625 38.4609 80.5078 37.7422C80.3984 37.0156 80.3438 36.2695 80.3438 35.5039C80.3438 34.1211 80.5156 32.8633 80.8594 31.7305C81.2109 30.5898 81.6875 29.6133 82.2891 28.8008C82.8984 27.9883 83.6094 27.3594 84.4219 26.9141C85.2422 26.4609 86.1172 26.2344 87.0469 26.2344C88.0859 26.2344 89.0195 26.4375 89.8477 26.8438C90.6758 27.25 91.3789 27.8477 91.957 28.6367C92.5352 29.418 92.9805 30.3867 93.293 31.543C93.6055 32.6914 93.7617 34.0117 93.7617 35.5039ZM89.0156 34.9766C89.0156 34.3047 88.9648 33.7031 88.8633 33.1719C88.7695 32.6406 88.6328 32.1914 88.4531 31.8242C88.2812 31.4492 88.0664 31.1641 87.8086 30.9688C87.5586 30.7734 87.2773 30.6758 86.9648 30.6758C86.668 30.6758 86.3945 30.8008 86.1445 31.0508C85.9023 31.293 85.6914 31.6172 85.5117 32.0234C85.3398 32.4219 85.2031 32.8789 85.1016 33.3945C85 33.9102 84.9492 34.4375 84.9492 34.9766C84.9492 35.6016 84.9883 36.168 85.0664 36.6758C85.1523 37.1836 85.2773 37.6172 85.4414 37.9766C85.6055 38.3359 85.8125 38.6133 86.0625 38.8086C86.3203 39.0039 86.6211 39.1016 86.9648 39.1016C87.3164 39.1016 87.6172 39.0078 87.8672 38.8203C88.125 38.625 88.3398 38.3516 88.5117 38C88.6836 37.6406 88.8086 37.207 88.8867 36.6992C88.9727 36.1836 89.0156 35.6094 89.0156 34.9766Z" fill="white"/>
<rect x="10" y="115" width="130" height="20.6667" rx="7" fill="#FFE4AF"/>
<path d="M30.6079 119.438C30.4956 120 30.4053 120.674 30.3369 121.46C30.2686 122.246 30.2344 123.088 30.2344 123.987C30.2344 124.114 30.2344 124.238 30.2344 124.36C30.2393 124.478 30.2441 124.6 30.249 124.727C30.2539 124.854 30.2563 124.985 30.2563 125.122C30.2612 125.259 30.2637 125.405 30.2637 125.562C30.2637 125.889 30.249 126.238 30.2197 126.609C30.1953 126.98 30.1367 127.349 30.0439 127.715C29.9512 128.081 29.8193 128.435 29.6484 128.777C29.4775 129.114 29.248 129.412 28.96 129.67C28.6768 129.924 28.3252 130.127 27.9053 130.278C27.4854 130.435 26.9824 130.513 26.3965 130.513C25.8447 130.513 25.3687 130.449 24.9683 130.322C24.5728 130.2 24.2358 130.032 23.9575 129.817C23.6841 129.597 23.4619 129.341 23.291 129.048C23.1201 128.755 22.9883 128.44 22.8955 128.103C22.8027 127.761 22.7393 127.407 22.7051 127.041C22.6758 126.675 22.6611 126.311 22.6611 125.95C22.6611 125.789 22.6611 125.654 22.6611 125.547C22.666 125.435 22.6709 125.334 22.6758 125.247C22.6807 125.154 22.6855 125.061 22.6904 124.968C22.6953 124.875 22.7002 124.766 22.7051 124.639C22.71 124.512 22.7124 124.358 22.7124 124.177C22.7173 123.997 22.7197 123.772 22.7197 123.503C22.7197 123.176 22.7124 122.805 22.6978 122.39C22.688 121.975 22.6636 121.567 22.6245 121.167C22.5854 120.762 22.5293 120.393 22.4561 120.061C22.3877 119.724 22.2949 119.473 22.1777 119.307C22.6709 119.395 23.1323 119.453 23.562 119.482C23.9966 119.512 24.397 119.526 24.7632 119.526C24.9976 119.526 25.21 119.521 25.4004 119.512C25.5908 119.502 25.7544 119.492 25.8911 119.482C26.0522 119.468 26.1914 119.453 26.3086 119.438C26.2451 119.741 26.1816 120.081 26.1182 120.457C26.0547 120.833 25.9985 121.235 25.9497 121.665C25.9009 122.095 25.8594 122.546 25.8252 123.02C25.7959 123.494 25.7812 123.975 25.7812 124.463C25.7812 125.073 25.791 125.569 25.8105 125.95C25.835 126.331 25.8716 126.628 25.9204 126.843C25.9692 127.053 26.0327 127.197 26.1108 127.275C26.189 127.354 26.2842 127.393 26.3965 127.393C26.5479 127.393 26.6748 127.346 26.7773 127.253C26.8848 127.156 26.9727 126.995 27.041 126.77C27.1143 126.541 27.1655 126.24 27.1948 125.869C27.229 125.498 27.2485 125.034 27.2534 124.478C27.2437 123.682 27.2192 122.939 27.1802 122.251C27.1655 121.958 27.1436 121.663 27.1143 121.365C27.0898 121.067 27.0581 120.786 27.019 120.522C26.9849 120.259 26.9434 120.022 26.8945 119.812C26.8457 119.597 26.7896 119.429 26.7261 119.307C27.2144 119.395 27.666 119.453 28.0811 119.482C28.4961 119.512 28.8696 119.526 29.2017 119.526C29.4214 119.526 29.6167 119.521 29.7876 119.512C29.9634 119.502 30.1123 119.492 30.2344 119.482C30.376 119.468 30.5005 119.453 30.6079 119.438ZM34.585 129.971C34.502 129.966 34.4043 129.958 34.292 129.949C34.1943 129.944 34.0771 129.939 33.9404 129.934C33.8086 129.929 33.6572 129.927 33.4863 129.927C33.1689 129.927 32.8027 129.941 32.3877 129.971C31.9775 129.995 31.5308 130.044 31.0474 130.117C31.1157 129.98 31.1768 129.792 31.2305 129.553C31.2842 129.309 31.3306 129.036 31.3696 128.733C31.4087 128.425 31.4404 128.101 31.4648 127.759C31.4941 127.412 31.5161 127.065 31.5308 126.719C31.5503 126.372 31.5625 126.038 31.5674 125.715C31.5771 125.388 31.5845 125.095 31.5894 124.836C31.5942 124.573 31.5967 124.351 31.5967 124.17C31.5967 123.989 31.5967 123.872 31.5967 123.818C31.5869 123.003 31.5649 122.246 31.5308 121.548C31.5161 121.255 31.499 120.959 31.4795 120.662C31.46 120.364 31.4355 120.085 31.4062 119.827C31.377 119.568 31.3428 119.341 31.3037 119.146C31.2695 118.95 31.228 118.804 31.1792 118.706C31.5747 118.774 31.9409 118.821 32.2778 118.845C32.6147 118.87 32.9175 118.882 33.186 118.882C33.3618 118.882 33.5205 118.879 33.6621 118.875C33.8037 118.865 33.9233 118.855 34.021 118.845C34.1382 118.835 34.2407 118.823 34.3286 118.809C34.2847 119.028 34.2432 119.307 34.2041 119.644C34.1699 119.98 34.1382 120.359 34.1089 120.779C34.0845 121.199 34.0649 121.65 34.0503 122.134C34.0356 122.617 34.0283 123.115 34.0283 123.628C34.0283 124.214 34.0381 124.805 34.0576 125.4C34.0771 125.996 34.1089 126.572 34.1528 127.129C34.1968 127.686 34.2529 128.208 34.3213 128.696C34.3945 129.18 34.4824 129.604 34.585 129.971ZM40.9277 121.108C40.8887 121.328 40.8594 121.543 40.8398 121.753C40.8252 121.963 40.8179 122.178 40.8179 122.397C40.8179 122.607 40.8252 122.82 40.8398 123.035C40.8594 123.245 40.8887 123.457 40.9277 123.672C40.6934 123.55 40.4272 123.459 40.1294 123.401C39.8364 123.342 39.5361 123.296 39.2285 123.262V123.892C39.2285 124.443 39.2383 125.002 39.2578 125.569C39.2773 126.13 39.3091 126.677 39.353 127.209C39.397 127.737 39.4531 128.237 39.5215 128.711C39.5947 129.185 39.6826 129.604 39.7852 129.971C39.7021 129.966 39.6045 129.958 39.4922 129.949C39.3945 129.944 39.2798 129.939 39.1479 129.934C39.0161 129.929 38.8647 129.927 38.6938 129.927C38.3765 129.927 38.0103 129.941 37.5952 129.971C37.1802 129.995 36.731 130.044 36.2476 130.117C36.4136 129.165 36.5308 128.176 36.5991 127.151C36.6724 126.121 36.709 125.115 36.709 124.133V123.262C36.377 123.286 36.0474 123.325 35.7202 123.379C35.3979 123.428 35.0928 123.489 34.8047 123.562C34.8242 123.508 34.8413 123.438 34.856 123.35C34.8706 123.262 34.8804 123.171 34.8853 123.079C34.895 122.986 34.8999 122.896 34.8999 122.808C34.9048 122.72 34.9072 122.646 34.9072 122.588C34.9072 122.339 34.8975 122.092 34.8779 121.848C34.8584 121.604 34.834 121.357 34.8047 121.108C35.0391 121.206 35.3174 121.287 35.6396 121.35C35.9619 121.409 36.2891 121.453 36.6211 121.482C36.5918 121.057 36.5576 120.664 36.5186 120.303C36.4795 119.941 36.4331 119.614 36.3794 119.321C36.7749 119.39 37.1411 119.436 37.478 119.46C37.8149 119.485 38.1201 119.497 38.3936 119.497C38.5693 119.497 38.7256 119.495 38.8623 119.49C39.0039 119.48 39.1235 119.47 39.2212 119.46C39.3384 119.451 39.4409 119.438 39.5288 119.424C39.4751 119.658 39.4287 119.951 39.3896 120.303C39.3555 120.649 39.3213 121.038 39.2871 121.467C39.6094 121.433 39.9121 121.387 40.1953 121.328C40.4834 121.27 40.7275 121.196 40.9277 121.108ZM45.2783 123.357C45.127 123.357 44.9902 123.401 44.8682 123.489C44.7461 123.572 44.6362 123.691 44.5386 123.848C44.4458 123.999 44.3628 124.182 44.2896 124.397C44.2212 124.612 44.165 124.849 44.1211 125.107C44.1211 125.522 44.1309 125.942 44.1504 126.367C44.1699 126.792 44.2017 127.212 44.2456 127.627C44.2896 128.042 44.3457 128.447 44.4141 128.843C44.4873 129.238 44.5752 129.614 44.6777 129.971C44.5996 129.966 44.5093 129.958 44.4067 129.949C44.3188 129.944 44.2114 129.939 44.0845 129.934C43.9624 129.929 43.8208 129.927 43.6597 129.927C43.3569 129.927 43.0054 129.941 42.605 129.971C42.2095 129.995 41.77 130.044 41.2866 130.117C41.3452 129.844 41.3965 129.509 41.4404 129.114C41.4844 128.718 41.521 128.289 41.5503 127.825C41.5796 127.361 41.6016 126.877 41.6162 126.375C41.6357 125.867 41.6455 125.366 41.6455 124.873C41.6455 124.507 41.6406 124.148 41.6309 123.796C41.6211 123.445 41.6064 123.113 41.5869 122.8C41.5723 122.488 41.5503 122.2 41.521 121.936C41.4917 121.672 41.4575 121.445 41.4185 121.255C41.814 121.323 42.1729 121.372 42.4951 121.401C42.8223 121.426 43.1152 121.438 43.374 121.438C43.54 121.438 43.6865 121.436 43.8135 121.431C43.9404 121.421 44.0503 121.411 44.1431 121.401C44.2456 121.387 44.3384 121.372 44.4214 121.357C44.3628 121.602 44.3188 121.873 44.2896 122.17C44.5435 121.863 44.8193 121.636 45.1172 121.489C45.4199 121.343 45.7031 121.27 45.9668 121.27C46.4062 121.27 46.7773 121.35 47.0801 121.511C47.3828 121.667 47.627 121.875 47.8125 122.134C47.998 122.388 48.1323 122.678 48.2153 123.005C48.2983 123.333 48.3398 123.665 48.3398 124.001C48.3398 124.329 48.2935 124.648 48.2007 124.961C48.1079 125.273 47.9736 125.554 47.7979 125.803C47.6221 126.047 47.4048 126.245 47.146 126.396C46.8872 126.548 46.5942 126.624 46.2671 126.624C45.979 126.624 45.7324 126.575 45.5273 126.477C45.3271 126.379 45.1611 126.252 45.0293 126.096C44.8975 125.94 44.7998 125.769 44.7363 125.583C44.6777 125.393 44.6484 125.205 44.6484 125.02C44.6484 124.824 44.6753 124.634 44.729 124.448C44.7876 124.263 44.8706 124.094 44.978 123.943C45.0122 124.05 45.0537 124.133 45.1025 124.192C45.1562 124.246 45.21 124.285 45.2637 124.309C45.3223 124.338 45.3857 124.355 45.4541 124.36C45.6348 124.36 45.769 124.319 45.8569 124.236C45.9497 124.153 45.9961 124.055 45.9961 123.943C45.9961 123.889 45.9863 123.828 45.9668 123.76C45.9473 123.691 45.9106 123.628 45.8569 123.569C45.8081 123.511 45.7373 123.462 45.6445 123.423C45.5518 123.379 45.4297 123.357 45.2783 123.357ZM56.272 130.103C56.1792 130.093 56.0718 130.083 55.9497 130.073C55.8472 130.063 55.7227 130.056 55.5762 130.051C55.4346 130.046 55.2783 130.044 55.1074 130.044C54.8633 130.044 54.5947 130.054 54.3018 130.073C54.0137 130.093 53.7158 130.129 53.4082 130.183L53.4375 128.125C53.252 128.853 52.9785 129.414 52.6172 129.81C52.2607 130.205 51.8408 130.403 51.3574 130.403C51.2061 130.403 51.0352 130.383 50.8447 130.344C50.6543 130.305 50.459 130.229 50.2588 130.117C50.0635 130.01 49.8706 129.858 49.6802 129.663C49.4946 129.468 49.3286 129.216 49.1821 128.909C49.0356 128.596 48.9185 128.22 48.8306 127.781C48.7427 127.336 48.6987 126.812 48.6987 126.206C48.6987 125.386 48.7817 124.685 48.9478 124.104C49.1138 123.518 49.3262 123.04 49.585 122.668C49.8438 122.297 50.1294 122.026 50.4419 121.855C50.7544 121.685 51.0596 121.599 51.3574 121.599C51.6113 121.599 51.8408 121.636 52.0459 121.709C52.2559 121.777 52.4414 121.868 52.6025 121.98C52.7637 122.087 52.9028 122.209 53.02 122.346C53.1372 122.483 53.2324 122.62 53.3057 122.756C53.291 122.59 53.269 122.415 53.2397 122.229C53.2104 122.039 53.1763 121.843 53.1372 121.643C53.4546 121.707 53.7769 121.748 54.104 121.768C54.4312 121.787 54.7339 121.797 55.0122 121.797C55.3442 121.797 55.6128 121.79 55.8179 121.775C55.9351 121.77 56.0425 121.763 56.1401 121.753C56.0864 121.997 56.0376 122.271 55.9937 122.573C55.9497 122.876 55.9106 123.201 55.8765 123.547C55.8472 123.889 55.8228 124.25 55.8032 124.631C55.7886 125.007 55.7812 125.393 55.7812 125.789C55.7812 126.526 55.8179 127.266 55.8911 128.008C55.9644 128.75 56.0913 129.448 56.272 130.103ZM53.2617 125.906V124.719C53.2617 124.587 53.2544 124.453 53.2397 124.316C53.2251 124.18 53.1909 124.055 53.1372 123.943C53.0884 123.831 53.0151 123.74 52.9175 123.672C52.8198 123.599 52.688 123.562 52.522 123.562C52.3462 123.562 52.1997 123.623 52.0825 123.745C51.9702 123.867 51.8774 124.036 51.8042 124.25C51.7358 124.46 51.687 124.712 51.6577 125.005C51.6333 125.293 51.6211 125.608 51.6211 125.95C51.6211 126.145 51.6333 126.343 51.6577 126.543C51.687 126.743 51.7334 126.926 51.7969 127.092C51.8604 127.253 51.9458 127.385 52.0532 127.488C52.1606 127.59 52.2925 127.642 52.4487 127.642C52.6245 127.642 52.7661 127.581 52.8735 127.458C52.981 127.336 53.0615 127.185 53.1152 127.004C53.1738 126.824 53.2129 126.636 53.2324 126.44C53.252 126.24 53.2617 126.062 53.2617 125.906ZM63.2373 129.956C63.1543 129.946 63.0518 129.937 62.9297 129.927C62.8271 129.917 62.7002 129.91 62.5488 129.905C62.4023 129.9 62.2363 129.897 62.0508 129.897C61.6895 129.897 61.2598 129.915 60.7617 129.949C60.2637 129.983 59.7095 130.049 59.0991 130.146C59.3579 129.058 59.5361 127.991 59.6338 126.946C59.7363 125.901 59.7876 124.895 59.7876 123.928C59.7876 123.049 59.7534 122.224 59.6851 121.453C59.6167 120.676 59.5264 119.961 59.4141 119.307C59.9023 119.395 60.3394 119.453 60.7251 119.482C61.1157 119.512 61.4526 119.526 61.7358 119.526C61.9312 119.526 62.1021 119.521 62.2485 119.512C62.3999 119.502 62.5244 119.492 62.6221 119.482C62.7393 119.468 62.8394 119.453 62.9224 119.438C63.0884 120.396 63.2959 121.343 63.5449 122.28C63.7939 123.213 64.1016 124.15 64.4678 125.093C64.7754 124.141 65.0195 123.188 65.2002 122.236C65.3809 121.279 65.5029 120.303 65.5664 119.307L65.625 119.438L65.5664 119.307C66.0547 119.395 66.499 119.453 66.8994 119.482C67.2998 119.512 67.6538 119.526 67.9614 119.526C68.1665 119.526 68.3472 119.521 68.5034 119.512C68.6597 119.502 68.7939 119.492 68.9062 119.482C69.0332 119.468 69.1431 119.453 69.2358 119.438C69.1333 119.927 69.0552 120.505 69.0015 121.174C68.9478 121.838 68.9209 122.551 68.9209 123.313C68.9209 123.855 68.9355 124.414 68.9648 124.99C68.9941 125.562 69.0381 126.133 69.0967 126.704C69.1602 127.271 69.2407 127.83 69.3384 128.381C69.436 128.933 69.5532 129.458 69.6899 129.956C69.5923 129.946 69.48 129.937 69.353 129.927C69.2407 129.917 69.1089 129.91 68.9575 129.905C68.8062 129.9 68.6304 129.897 68.4302 129.897C68.0493 129.897 67.6001 129.915 67.0825 129.949C66.5698 129.983 66.0083 130.049 65.3979 130.146C65.52 129.902 65.6201 129.59 65.6982 129.209C65.7812 128.828 65.8472 128.423 65.896 127.993C65.9497 127.563 65.9888 127.136 66.0132 126.711C66.0425 126.282 66.062 125.898 66.0718 125.562C65.9302 125.864 65.7935 126.172 65.6616 126.484C65.5298 126.797 65.3931 127.131 65.2515 127.488C65.1147 127.839 64.9707 128.22 64.8193 128.63C64.668 129.041 64.502 129.497 64.3213 130C64.1357 129.497 63.9673 129.041 63.8159 128.63C63.6646 128.22 63.5205 127.839 63.3838 127.488C63.252 127.136 63.1201 126.804 62.9883 126.492C62.8613 126.174 62.7295 125.859 62.5928 125.547C62.6367 126.318 62.71 127.08 62.8125 127.832C62.915 128.579 63.0566 129.287 63.2373 129.956ZM77.7905 130.103C77.6978 130.093 77.5903 130.083 77.4683 130.073C77.3657 130.063 77.2412 130.056 77.0947 130.051C76.9531 130.046 76.7969 130.044 76.626 130.044C76.3818 130.044 76.1133 130.054 75.8203 130.073C75.5322 130.093 75.2344 130.129 74.9268 130.183L74.9561 128.125C74.7705 128.853 74.4971 129.414 74.1357 129.81C73.7793 130.205 73.3594 130.403 72.876 130.403C72.7246 130.403 72.5537 130.383 72.3633 130.344C72.1729 130.305 71.9775 130.229 71.7773 130.117C71.582 130.01 71.3892 129.858 71.1987 129.663C71.0132 129.468 70.8472 129.216 70.7007 128.909C70.5542 128.596 70.437 128.22 70.3491 127.781C70.2612 127.336 70.2173 126.812 70.2173 126.206C70.2173 125.386 70.3003 124.685 70.4663 124.104C70.6323 123.518 70.8447 123.04 71.1035 122.668C71.3623 122.297 71.6479 122.026 71.9604 121.855C72.2729 121.685 72.5781 121.599 72.876 121.599C73.1299 121.599 73.3594 121.636 73.5645 121.709C73.7744 121.777 73.96 121.868 74.1211 121.98C74.2822 122.087 74.4214 122.209 74.5386 122.346C74.6558 122.483 74.751 122.62 74.8242 122.756C74.8096 122.59 74.7876 122.415 74.7583 122.229C74.729 122.039 74.6948 121.843 74.6558 121.643C74.9731 121.707 75.2954 121.748 75.6226 121.768C75.9497 121.787 76.2524 121.797 76.5308 121.797C76.8628 121.797 77.1313 121.79 77.3364 121.775C77.4536 121.77 77.561 121.763 77.6587 121.753C77.605 121.997 77.5562 122.271 77.5122 122.573C77.4683 122.876 77.4292 123.201 77.395 123.547C77.3657 123.889 77.3413 124.25 77.3218 124.631C77.3071 125.007 77.2998 125.393 77.2998 125.789C77.2998 126.526 77.3364 127.266 77.4097 128.008C77.4829 128.75 77.6099 129.448 77.7905 130.103ZM74.7803 125.906V124.719C74.7803 124.587 74.7729 124.453 74.7583 124.316C74.7437 124.18 74.7095 124.055 74.6558 123.943C74.6069 123.831 74.5337 123.74 74.436 123.672C74.3384 123.599 74.2065 123.562 74.0405 123.562C73.8647 123.562 73.7183 123.623 73.6011 123.745C73.4888 123.867 73.396 124.036 73.3228 124.25C73.2544 124.46 73.2056 124.712 73.1763 125.005C73.1519 125.293 73.1396 125.608 73.1396 125.95C73.1396 126.145 73.1519 126.343 73.1763 126.543C73.2056 126.743 73.252 126.926 73.3154 127.092C73.3789 127.253 73.4644 127.385 73.5718 127.488C73.6792 127.59 73.811 127.642 73.9673 127.642C74.1431 127.642 74.2847 127.581 74.3921 127.458C74.4995 127.336 74.5801 127.185 74.6338 127.004C74.6924 126.824 74.7314 126.636 74.751 126.44C74.7705 126.24 74.7803 126.062 74.7803 125.906ZM86.0229 130.146C85.8716 130.122 85.7056 130.105 85.5249 130.095C85.3442 130.09 85.1562 130.088 84.9609 130.088C84.7266 130.088 84.4873 130.093 84.2432 130.103C84.0039 130.117 83.7695 130.134 83.54 130.154C83.3105 130.173 83.0933 130.195 82.8882 130.22C82.6831 130.244 82.5049 130.266 82.3535 130.286C82.5635 129.578 82.7246 128.821 82.8369 128.015C82.9541 127.209 83.0127 126.316 83.0127 125.334C83.0127 125.261 83.0103 125.164 83.0054 125.042C83.0054 124.919 83.0005 124.788 82.9907 124.646C82.981 124.504 82.9639 124.363 82.9395 124.221C82.9199 124.075 82.8882 123.943 82.8442 123.826C82.8052 123.708 82.7539 123.613 82.6904 123.54C82.627 123.467 82.5488 123.43 82.4561 123.43C82.3193 123.43 82.1851 123.479 82.0532 123.577C81.9263 123.674 81.8115 123.804 81.709 123.965C81.6113 124.126 81.5308 124.312 81.4673 124.521C81.4087 124.731 81.3794 124.949 81.3794 125.173C81.3794 125.579 81.3892 125.991 81.4087 126.411C81.4282 126.826 81.46 127.239 81.5039 127.649C81.5479 128.059 81.604 128.462 81.6724 128.857C81.7407 129.248 81.8262 129.619 81.9287 129.971C81.8457 129.966 81.748 129.958 81.6357 129.949C81.5381 129.944 81.4233 129.939 81.2915 129.934C81.1597 129.929 81.0083 129.927 80.8374 129.927C80.52 129.927 80.1538 129.941 79.7388 129.971C79.3237 129.995 78.8745 130.044 78.3911 130.117C78.4497 129.844 78.501 129.509 78.5449 129.114C78.5889 128.718 78.6255 128.289 78.6548 127.825C78.6841 127.361 78.7061 126.877 78.7207 126.375C78.7402 125.867 78.75 125.366 78.75 124.873C78.75 124.507 78.7451 124.148 78.7354 123.796C78.7256 123.445 78.7109 123.113 78.6914 122.8C78.6768 122.488 78.6548 122.2 78.6255 121.936C78.5962 121.672 78.562 121.445 78.5229 121.255C78.9185 121.323 79.2847 121.372 79.6216 121.401C79.9585 121.426 80.2637 121.438 80.5371 121.438C80.7129 121.438 80.8691 121.436 81.0059 121.431C81.1475 121.421 81.2671 121.411 81.3647 121.401C81.4819 121.387 81.5845 121.372 81.6724 121.357C81.6431 121.509 81.6138 121.67 81.5845 121.841C81.5601 122.012 81.5356 122.197 81.5112 122.397C81.6724 122.192 81.8433 122.014 82.0239 121.863C82.2046 121.707 82.3853 121.577 82.5659 121.475C82.7515 121.372 82.9346 121.296 83.1152 121.248C83.2959 121.194 83.4668 121.167 83.6279 121.167C83.9795 121.167 84.2822 121.24 84.5361 121.387C84.7949 121.528 85.0073 121.753 85.1733 122.061C85.3442 122.368 85.4712 122.761 85.5542 123.24C85.6372 123.718 85.6787 124.292 85.6787 124.961C85.6787 125.42 85.6787 125.886 85.6787 126.36C85.6836 126.833 85.6958 127.297 85.7153 127.751C85.7349 128.206 85.769 128.638 85.8179 129.048C85.8667 129.453 85.9351 129.819 86.0229 130.146ZM94.0356 121.584C93.9819 121.79 93.9355 122.041 93.8965 122.339C93.8623 122.632 93.8306 122.954 93.8013 123.306C93.772 123.652 93.7476 124.014 93.728 124.39C93.7134 124.766 93.6987 125.134 93.6841 125.496C93.6548 126.345 93.6377 127.246 93.6328 128.198C93.6328 128.696 93.6011 129.185 93.5376 129.663C93.479 130.137 93.3813 130.583 93.2446 131.003C93.1128 131.423 92.9395 131.812 92.7246 132.168C92.5098 132.524 92.2485 132.83 91.9409 133.083C91.6382 133.337 91.2866 133.535 90.8862 133.677C90.4858 133.823 90.0317 133.896 89.5239 133.896C89.0503 133.896 88.6401 133.848 88.2935 133.75C87.9468 133.652 87.6587 133.513 87.4292 133.333C87.2046 133.157 87.0361 132.944 86.9238 132.695C86.8164 132.451 86.7627 132.178 86.7627 131.875C86.7627 131.577 86.814 131.309 86.9165 131.069C87.019 130.83 87.1533 130.625 87.3193 130.454C87.4854 130.288 87.6709 130.161 87.876 130.073C88.0859 129.985 88.2983 129.941 88.5132 129.941C88.7915 129.941 89.0527 130.02 89.2969 130.176C89.541 130.332 89.7266 130.579 89.8535 130.916C89.7949 130.876 89.7241 130.857 89.6411 130.857C89.5288 130.857 89.4238 130.901 89.3262 130.989C89.2285 131.082 89.1797 131.191 89.1797 131.318C89.1797 131.392 89.1919 131.453 89.2163 131.501C89.2456 131.555 89.2822 131.597 89.3262 131.626C89.3701 131.655 89.4165 131.675 89.4653 131.685C89.519 131.699 89.5679 131.707 89.6118 131.707C89.6655 131.707 89.7388 131.697 89.8315 131.677C89.9292 131.663 90.0342 131.616 90.1465 131.538C90.2588 131.46 90.3711 131.34 90.4834 131.179C90.5957 131.018 90.6982 130.796 90.791 130.513C90.8838 130.229 90.957 129.871 91.0107 129.436C91.0693 129.001 91.0986 128.474 91.0986 127.854C91.001 128.289 90.8789 128.63 90.7324 128.879C90.5859 129.128 90.4297 129.316 90.2637 129.443C90.0977 129.565 89.9268 129.641 89.751 129.67C89.5801 129.7 89.4189 129.714 89.2676 129.714C89.1504 129.714 89.0015 129.695 88.8208 129.656C88.6401 129.612 88.4473 129.539 88.2422 129.436C88.042 129.329 87.8369 129.185 87.627 129.004C87.4219 128.818 87.2363 128.586 87.0703 128.308C86.9043 128.025 86.7676 127.688 86.6602 127.297C86.5576 126.902 86.5063 126.438 86.5063 125.906C86.5063 125.085 86.5894 124.392 86.7554 123.826C86.9263 123.259 87.1436 122.803 87.4072 122.456C87.6758 122.104 87.9712 121.853 88.2935 121.702C88.6157 121.545 88.9307 121.467 89.2383 121.467C89.458 121.467 89.6582 121.504 89.8389 121.577C90.0195 121.646 90.1831 121.738 90.3296 121.855C90.4761 121.973 90.6055 122.104 90.7178 122.251C90.8301 122.393 90.9302 122.537 91.0181 122.683C90.9888 122.468 90.9521 122.253 90.9082 122.039C90.8691 121.824 90.8228 121.606 90.769 121.387C90.8911 121.44 91.0425 121.489 91.2231 121.533C91.3794 121.572 91.5747 121.606 91.8091 121.636C92.0435 121.66 92.3267 121.672 92.6587 121.672C93.0493 121.672 93.5083 121.643 94.0356 121.584ZM90.9155 125.261C90.9155 125.125 90.9058 124.961 90.8862 124.771C90.8667 124.575 90.8301 124.39 90.7764 124.214C90.7227 124.033 90.647 123.879 90.5493 123.752C90.4565 123.625 90.3345 123.562 90.1831 123.562C90.0708 123.562 89.9683 123.628 89.8755 123.76C89.7827 123.887 89.7021 124.043 89.6338 124.229C89.5703 124.409 89.519 124.597 89.48 124.792C89.4458 124.988 89.4287 125.154 89.4287 125.291C89.4287 125.525 89.4409 125.764 89.4653 126.008C89.4897 126.252 89.5288 126.475 89.5825 126.675C89.6411 126.87 89.7119 127.031 89.7949 127.158C89.8828 127.285 89.9854 127.349 90.1025 127.349C90.2295 127.349 90.3418 127.319 90.4395 127.261C90.542 127.197 90.6274 127.114 90.6958 127.012C90.769 126.904 90.8228 126.782 90.8569 126.646C90.896 126.509 90.9155 126.362 90.9155 126.206V125.261ZM101.55 125.723C101.55 126.006 101.528 126.318 101.484 126.66C101.44 126.997 101.367 127.339 101.265 127.686C101.162 128.027 101.023 128.362 100.847 128.689C100.671 129.011 100.452 129.297 100.188 129.546C99.9292 129.795 99.6191 129.995 99.2578 130.146C98.8965 130.298 98.4766 130.374 97.998 130.374C97.5195 130.374 97.0996 130.303 96.7383 130.161C96.3818 130.02 96.0742 129.832 95.8154 129.597C95.5615 129.358 95.3516 129.084 95.1855 128.777C95.0195 128.464 94.8877 128.137 94.79 127.795C94.6924 127.454 94.624 127.109 94.585 126.763C94.5508 126.411 94.5337 126.079 94.5337 125.767C94.5337 125.215 94.6069 124.675 94.7534 124.148C94.8999 123.616 95.1221 123.142 95.4199 122.727C95.7227 122.312 96.0986 121.978 96.5479 121.724C97.002 121.47 97.5342 121.343 98.1445 121.343C98.5547 121.343 98.9233 121.406 99.2505 121.533C99.5776 121.655 99.8682 121.824 100.122 122.039C100.376 122.253 100.591 122.505 100.767 122.793C100.947 123.081 101.096 123.386 101.213 123.708C101.331 124.031 101.416 124.365 101.47 124.712C101.523 125.059 101.55 125.396 101.55 125.723ZM99.0015 125.964C99.0015 125.852 98.9966 125.713 98.9868 125.547C98.9819 125.376 98.9673 125.198 98.9429 125.012C98.9185 124.827 98.8843 124.641 98.8403 124.456C98.8013 124.27 98.7476 124.104 98.6792 123.958C98.6108 123.811 98.5254 123.691 98.4229 123.599C98.3252 123.506 98.208 123.459 98.0713 123.459C97.9395 123.459 97.8247 123.503 97.7271 123.591C97.6294 123.679 97.5439 123.794 97.4707 123.936C97.4023 124.077 97.3438 124.238 97.2949 124.419C97.251 124.595 97.2144 124.773 97.1851 124.954C97.1606 125.129 97.1411 125.3 97.1265 125.466C97.1167 125.627 97.1118 125.764 97.1118 125.876C97.1118 126.038 97.124 126.233 97.1484 126.462C97.1729 126.692 97.2192 126.912 97.2876 127.122C97.356 127.332 97.4487 127.512 97.5659 127.664C97.688 127.81 97.8467 127.883 98.042 127.883C98.2275 127.883 98.3813 127.815 98.5034 127.678C98.6304 127.542 98.7305 127.375 98.8037 127.18C98.877 126.98 98.9282 126.77 98.9575 126.55C98.9868 126.331 99.0015 126.135 99.0015 125.964ZM112.764 124.492C112.363 125.483 112.163 126.445 112.163 127.378C112.163 127.827 112.205 128.281 112.288 128.74C112.371 129.194 112.5 129.658 112.676 130.132C112.397 130.063 112.139 130.012 111.899 129.978C111.66 129.944 111.423 129.927 111.189 129.927C110.94 129.927 110.686 129.949 110.427 129.993C110.168 130.037 109.888 130.105 109.585 130.198L109.885 129.026C109.788 129.182 109.67 129.343 109.534 129.509C109.397 129.67 109.233 129.817 109.043 129.949C108.857 130.081 108.643 130.188 108.398 130.271C108.159 130.359 107.883 130.403 107.571 130.403C107.102 130.403 106.67 130.291 106.274 130.066C105.884 129.841 105.547 129.517 105.264 129.092C104.98 128.667 104.758 128.147 104.597 127.532C104.441 126.912 104.363 126.208 104.363 125.422C104.363 124.9 104.412 124.382 104.509 123.87C104.607 123.352 104.749 122.861 104.934 122.397C105.12 121.929 105.349 121.497 105.623 121.101C105.896 120.701 106.206 120.356 106.553 120.068C106.899 119.775 107.283 119.548 107.703 119.387C108.127 119.221 108.584 119.138 109.072 119.138C109.517 119.138 109.905 119.185 110.237 119.277C110.569 119.365 110.857 119.485 111.101 119.636C111.345 119.783 111.545 119.954 111.702 120.149C111.863 120.339 111.99 120.54 112.083 120.75C112.175 120.959 112.241 121.169 112.28 121.379C112.319 121.584 112.339 121.777 112.339 121.958C112.339 122.217 112.292 122.466 112.2 122.705C112.112 122.944 111.987 123.154 111.826 123.335C111.665 123.516 111.475 123.66 111.255 123.767C111.035 123.875 110.793 123.928 110.53 123.928C110.256 123.928 110.02 123.887 109.819 123.804C109.619 123.721 109.453 123.613 109.321 123.481C109.189 123.345 109.089 123.193 109.021 123.027C108.958 122.861 108.926 122.695 108.926 122.529C108.926 122.388 108.95 122.244 108.999 122.097C109.048 121.951 109.116 121.814 109.204 121.687C109.233 121.79 109.275 121.87 109.329 121.929C109.382 121.982 109.436 122.021 109.49 122.046C109.548 122.075 109.614 122.092 109.688 122.097C109.854 122.097 109.971 122.056 110.039 121.973C110.112 121.89 110.149 121.794 110.149 121.687C110.149 121.638 110.137 121.589 110.112 121.541C110.093 121.487 110.061 121.438 110.017 121.394C109.973 121.35 109.915 121.313 109.841 121.284C109.773 121.255 109.688 121.24 109.585 121.24C109.517 121.24 109.421 121.255 109.299 121.284C109.182 121.309 109.053 121.36 108.911 121.438C108.774 121.516 108.635 121.628 108.494 121.775C108.352 121.917 108.223 122.107 108.105 122.346C107.988 122.585 107.893 122.878 107.82 123.225C107.747 123.572 107.71 123.984 107.71 124.463C107.71 124.858 107.742 125.205 107.805 125.503C107.874 125.801 107.966 126.05 108.083 126.25C108.201 126.45 108.34 126.602 108.501 126.704C108.662 126.802 108.838 126.851 109.028 126.851C109.209 126.851 109.358 126.804 109.475 126.711C109.592 126.619 109.685 126.506 109.753 126.375C109.822 126.243 109.868 126.106 109.893 125.964C109.917 125.823 109.929 125.703 109.929 125.605C109.929 125.601 109.924 125.566 109.915 125.503C109.91 125.439 109.888 125.366 109.849 125.283C109.81 125.2 109.746 125.115 109.658 125.027C109.57 124.939 109.446 124.866 109.285 124.807C109.861 124.807 110.439 124.783 111.021 124.734C111.602 124.68 112.183 124.6 112.764 124.492ZM119.854 121.555C119.81 121.775 119.768 122.031 119.729 122.324C119.695 122.617 119.663 122.935 119.634 123.276C119.609 123.613 119.59 123.967 119.575 124.338C119.561 124.705 119.553 125.071 119.553 125.437C119.553 125.559 119.556 125.681 119.561 125.803C119.565 125.92 119.568 126.035 119.568 126.147C119.568 126.387 119.553 126.658 119.524 126.96C119.5 127.263 119.446 127.573 119.363 127.891C119.285 128.203 119.175 128.511 119.033 128.813C118.892 129.116 118.704 129.385 118.469 129.619C118.24 129.854 117.959 130.042 117.627 130.183C117.295 130.33 116.902 130.403 116.448 130.403C116.057 130.403 115.71 130.352 115.408 130.249C115.11 130.146 114.849 130.007 114.624 129.832C114.404 129.651 114.219 129.438 114.067 129.194C113.916 128.95 113.794 128.689 113.701 128.411C113.608 128.127 113.54 127.832 113.496 127.524C113.457 127.217 113.438 126.912 113.438 126.609C113.438 126.536 113.438 126.492 113.438 126.477C113.442 126.458 113.445 126.445 113.445 126.44C113.445 126.436 113.447 126.428 113.452 126.418C113.457 126.404 113.459 126.365 113.459 126.301C113.459 126.238 113.459 126.138 113.459 126.001C113.464 125.864 113.467 125.671 113.467 125.422C113.467 125.129 113.462 124.8 113.452 124.434C113.442 124.062 113.42 123.701 113.386 123.35C113.357 122.993 113.313 122.671 113.254 122.383C113.196 122.095 113.12 121.885 113.027 121.753C113.423 121.821 113.794 121.868 114.141 121.892C114.492 121.917 114.812 121.929 115.1 121.929C115.291 121.929 115.461 121.926 115.613 121.921C115.769 121.912 115.903 121.902 116.016 121.892C116.143 121.882 116.257 121.87 116.36 121.855C116.262 122.334 116.167 122.878 116.074 123.489C115.986 124.094 115.942 124.79 115.942 125.576C115.942 125.757 115.95 125.945 115.964 126.14C115.984 126.335 116.016 126.516 116.06 126.682C116.104 126.843 116.162 126.978 116.235 127.085C116.313 127.188 116.411 127.239 116.528 127.239C116.675 127.239 116.79 127.19 116.873 127.092C116.956 126.995 117.017 126.868 117.056 126.711C117.1 126.55 117.124 126.372 117.129 126.177C117.139 125.981 117.144 125.786 117.144 125.591C117.139 124.956 117.119 124.363 117.085 123.811C117.07 123.577 117.051 123.34 117.026 123.101C117.007 122.861 116.982 122.637 116.953 122.427C116.924 122.212 116.89 122.021 116.851 121.855C116.812 121.685 116.768 121.55 116.719 121.453C117.114 121.521 117.48 121.567 117.817 121.592C118.154 121.616 118.455 121.628 118.718 121.628C118.894 121.628 119.05 121.626 119.187 121.621C119.329 121.611 119.448 121.602 119.546 121.592C119.663 121.582 119.766 121.57 119.854 121.555ZM127.661 121.584C127.607 121.79 127.561 122.036 127.522 122.324C127.488 122.612 127.456 122.922 127.427 123.254C127.397 123.586 127.373 123.933 127.354 124.294C127.339 124.656 127.324 125.007 127.31 125.349C127.28 126.155 127.263 127.004 127.258 127.898C127.258 128.396 127.227 128.887 127.163 129.37C127.104 129.854 127.007 130.31 126.87 130.74C126.738 131.174 126.565 131.575 126.35 131.941C126.14 132.312 125.881 132.629 125.574 132.893C125.271 133.162 124.917 133.372 124.512 133.523C124.111 133.674 123.657 133.75 123.149 133.75C122.676 133.75 122.266 133.701 121.919 133.604C121.572 133.506 121.284 133.367 121.055 133.186C120.83 133.01 120.662 132.798 120.549 132.549C120.442 132.3 120.388 132.026 120.388 131.729C120.388 131.431 120.439 131.16 120.542 130.916C120.645 130.676 120.779 130.474 120.945 130.308C121.111 130.142 121.299 130.015 121.509 129.927C121.719 129.834 121.931 129.788 122.146 129.788C122.419 129.788 122.678 129.866 122.922 130.022C123.167 130.178 123.352 130.425 123.479 130.762C123.45 130.737 123.416 130.72 123.376 130.71C123.342 130.706 123.306 130.703 123.267 130.703C123.213 130.703 123.157 130.715 123.098 130.74C123.044 130.764 122.996 130.798 122.952 130.842C122.908 130.886 122.871 130.935 122.842 130.989C122.817 131.047 122.805 131.108 122.805 131.172C122.805 131.245 122.82 131.306 122.849 131.355C122.878 131.409 122.913 131.45 122.952 131.479C122.996 131.509 123.042 131.528 123.091 131.538C123.145 131.553 123.193 131.56 123.237 131.56C123.306 131.56 123.391 131.545 123.494 131.516C123.596 131.487 123.701 131.426 123.809 131.333C123.921 131.24 124.031 131.111 124.138 130.945C124.25 130.779 124.348 130.557 124.431 130.278C124.519 130.005 124.587 129.67 124.636 129.275C124.69 128.879 124.714 128.406 124.709 127.854C124.583 128.196 124.448 128.474 124.307 128.689C124.17 128.899 124.023 129.062 123.867 129.18C123.716 129.297 123.555 129.375 123.384 129.414C123.218 129.453 123.04 129.473 122.849 129.473C122.61 129.473 122.358 129.431 122.095 129.348C121.836 129.26 121.597 129.109 121.377 128.894C121.162 128.674 120.984 128.376 120.842 128C120.701 127.625 120.63 127.146 120.63 126.565C120.63 126.487 120.63 126.433 120.63 126.404C120.635 126.37 120.637 126.345 120.637 126.331C120.637 126.311 120.64 126.289 120.645 126.265C120.649 126.24 120.652 126.194 120.652 126.125C120.652 126.052 120.652 125.95 120.652 125.818C120.657 125.686 120.659 125.5 120.659 125.261C120.659 124.983 120.654 124.668 120.645 124.316C120.635 123.965 120.613 123.621 120.579 123.284C120.549 122.947 120.505 122.642 120.447 122.368C120.388 122.09 120.312 121.885 120.22 121.753C120.615 121.821 120.986 121.868 121.333 121.892C121.685 121.917 122.004 121.929 122.292 121.929C122.483 121.929 122.654 121.926 122.805 121.921C122.961 121.912 123.096 121.902 123.208 121.892C123.335 121.882 123.45 121.87 123.552 121.855C123.513 121.938 123.469 122.097 123.42 122.332C123.376 122.566 123.333 122.847 123.289 123.174C123.245 123.501 123.208 123.86 123.179 124.25C123.149 124.636 123.135 125.027 123.135 125.422C123.135 125.72 123.157 125.974 123.201 126.184C123.245 126.394 123.303 126.567 123.376 126.704C123.455 126.836 123.542 126.934 123.64 126.997C123.743 127.061 123.853 127.092 123.97 127.092C124.155 127.092 124.302 127.017 124.409 126.865C124.521 126.714 124.617 126.523 124.695 126.294C124.685 125.991 124.668 125.637 124.644 125.232C124.619 124.827 124.585 124.404 124.541 123.965C124.502 123.525 124.448 123.083 124.38 122.639C124.316 122.19 124.236 121.772 124.138 121.387C124.29 121.44 124.47 121.489 124.68 121.533C124.861 121.572 125.081 121.606 125.339 121.636C125.598 121.66 125.903 121.672 126.255 121.672C126.67 121.672 127.139 121.643 127.661 121.584Z" fill="black" fill-opacity="0.8"/>
<rect x="10" y="139.667" width="130" height="20.6667" rx="7" fill="#FFE4AF"/>
<path d="M30.6079 144.105C30.4956 144.667 30.4053 145.34 30.3369 146.126C30.2686 146.913 30.2344 147.755 30.2344 148.653C30.2344 148.78 30.2344 148.905 30.2344 149.027C30.2393 149.144 30.2441 149.266 30.249 149.393C30.2539 149.52 30.2563 149.652 30.2563 149.789C30.2612 149.925 30.2637 150.072 30.2637 150.228C30.2637 150.555 30.249 150.904 30.2197 151.275C30.1953 151.646 30.1367 152.015 30.0439 152.381C29.9512 152.748 29.8193 153.102 29.6484 153.443C29.4775 153.78 29.248 154.078 28.96 154.337C28.6768 154.591 28.3252 154.793 27.9053 154.945C27.4854 155.101 26.9824 155.179 26.3965 155.179C25.8447 155.179 25.3687 155.116 24.9683 154.989C24.5728 154.867 24.2358 154.698 23.9575 154.483C23.6841 154.264 23.4619 154.007 23.291 153.714C23.1201 153.421 22.9883 153.106 22.8955 152.77C22.8027 152.428 22.7393 152.074 22.7051 151.708C22.6758 151.341 22.6611 150.978 22.6611 150.616C22.6611 150.455 22.6611 150.321 22.6611 150.213C22.666 150.101 22.6709 150.001 22.6758 149.913C22.6807 149.82 22.6855 149.728 22.6904 149.635C22.6953 149.542 22.7002 149.432 22.7051 149.305C22.71 149.178 22.7124 149.024 22.7124 148.844C22.7173 148.663 22.7197 148.438 22.7197 148.17C22.7197 147.843 22.7124 147.472 22.6978 147.057C22.688 146.642 22.6636 146.234 22.6245 145.833C22.5854 145.428 22.5293 145.06 22.4561 144.728C22.3877 144.391 22.2949 144.139 22.1777 143.973C22.6709 144.061 23.1323 144.12 23.562 144.149C23.9966 144.178 24.397 144.193 24.7632 144.193C24.9976 144.193 25.21 144.188 25.4004 144.178C25.5908 144.168 25.7544 144.159 25.8911 144.149C26.0522 144.134 26.1914 144.12 26.3086 144.105C26.2451 144.408 26.1816 144.747 26.1182 145.123C26.0547 145.499 25.9985 145.902 25.9497 146.332C25.9009 146.761 25.8594 147.213 25.8252 147.687C25.7959 148.16 25.7812 148.641 25.7812 149.129C25.7812 149.74 25.791 150.235 25.8105 150.616C25.835 150.997 25.8716 151.295 25.9204 151.51C25.9692 151.72 26.0327 151.864 26.1108 151.942C26.189 152.02 26.2842 152.059 26.3965 152.059C26.5479 152.059 26.6748 152.013 26.7773 151.92C26.8848 151.822 26.9727 151.661 27.041 151.437C27.1143 151.207 27.1655 150.907 27.1948 150.536C27.229 150.165 27.2485 149.701 27.2534 149.144C27.2437 148.348 27.2192 147.606 27.1802 146.917C27.1655 146.625 27.1436 146.329 27.1143 146.031C27.0898 145.733 27.0581 145.453 27.019 145.189C26.9849 144.925 26.9434 144.688 26.8945 144.479C26.8457 144.264 26.7896 144.095 26.7261 143.973C27.2144 144.061 27.666 144.12 28.0811 144.149C28.4961 144.178 28.8696 144.193 29.2017 144.193C29.4214 144.193 29.6167 144.188 29.7876 144.178C29.9634 144.168 30.1123 144.159 30.2344 144.149C30.376 144.134 30.5005 144.12 30.6079 144.105ZM34.585 154.637C34.502 154.632 34.4043 154.625 34.292 154.615C34.1943 154.61 34.0771 154.605 33.9404 154.601C33.8086 154.596 33.6572 154.593 33.4863 154.593C33.1689 154.593 32.8027 154.608 32.3877 154.637C31.9775 154.662 31.5308 154.71 31.0474 154.784C31.1157 154.647 31.1768 154.459 31.2305 154.22C31.2842 153.976 31.3306 153.702 31.3696 153.399C31.4087 153.092 31.4404 152.767 31.4648 152.425C31.4941 152.079 31.5161 151.732 31.5308 151.385C31.5503 151.039 31.5625 150.704 31.5674 150.382C31.5771 150.055 31.5845 149.762 31.5894 149.503C31.5942 149.239 31.5967 149.017 31.5967 148.836C31.5967 148.656 31.5967 148.539 31.5967 148.485C31.5869 147.669 31.5649 146.913 31.5308 146.214C31.5161 145.921 31.499 145.626 31.4795 145.328C31.46 145.03 31.4355 144.752 31.4062 144.493C31.377 144.234 31.3428 144.007 31.3037 143.812C31.2695 143.617 31.228 143.47 31.1792 143.373C31.5747 143.441 31.9409 143.487 32.2778 143.512C32.6147 143.536 32.9175 143.548 33.186 143.548C33.3618 143.548 33.5205 143.546 33.6621 143.541C33.8037 143.531 33.9233 143.521 34.021 143.512C34.1382 143.502 34.2407 143.49 34.3286 143.475C34.2847 143.695 34.2432 143.973 34.2041 144.31C34.1699 144.647 34.1382 145.025 34.1089 145.445C34.0845 145.865 34.0649 146.317 34.0503 146.8C34.0356 147.284 34.0283 147.782 34.0283 148.294C34.0283 148.88 34.0381 149.471 34.0576 150.067C34.0771 150.663 34.1089 151.239 34.1528 151.795C34.1968 152.352 34.2529 152.875 34.3213 153.363C34.3945 153.846 34.4824 154.271 34.585 154.637ZM40.9277 145.775C40.8887 145.995 40.8594 146.209 40.8398 146.419C40.8252 146.629 40.8179 146.844 40.8179 147.064C40.8179 147.274 40.8252 147.486 40.8398 147.701C40.8594 147.911 40.8887 148.124 40.9277 148.338C40.6934 148.216 40.4272 148.126 40.1294 148.067C39.8364 148.009 39.5361 147.962 39.2285 147.928V148.558C39.2285 149.11 39.2383 149.669 39.2578 150.235C39.2773 150.797 39.3091 151.344 39.353 151.876C39.397 152.403 39.4531 152.904 39.5215 153.377C39.5947 153.851 39.6826 154.271 39.7852 154.637C39.7021 154.632 39.6045 154.625 39.4922 154.615C39.3945 154.61 39.2798 154.605 39.1479 154.601C39.0161 154.596 38.8647 154.593 38.6938 154.593C38.3765 154.593 38.0103 154.608 37.5952 154.637C37.1802 154.662 36.731 154.71 36.2476 154.784C36.4136 153.832 36.5308 152.843 36.5991 151.817C36.6724 150.787 36.709 149.781 36.709 148.8V147.928C36.377 147.953 36.0474 147.992 35.7202 148.045C35.3979 148.094 35.0928 148.155 34.8047 148.229C34.8242 148.175 34.8413 148.104 34.856 148.016C34.8706 147.928 34.8804 147.838 34.8853 147.745C34.895 147.652 34.8999 147.562 34.8999 147.474C34.9048 147.386 34.9072 147.313 34.9072 147.254C34.9072 147.005 34.8975 146.759 34.8779 146.515C34.8584 146.271 34.834 146.024 34.8047 145.775C35.0391 145.873 35.3174 145.953 35.6396 146.017C35.9619 146.075 36.2891 146.119 36.6211 146.148C36.5918 145.724 36.5576 145.331 36.5186 144.969C36.4795 144.608 36.4331 144.281 36.3794 143.988C36.7749 144.056 37.1411 144.103 37.478 144.127C37.8149 144.151 38.1201 144.164 38.3936 144.164C38.5693 144.164 38.7256 144.161 38.8623 144.156C39.0039 144.146 39.1235 144.137 39.2212 144.127C39.3384 144.117 39.4409 144.105 39.5288 144.09C39.4751 144.325 39.4287 144.618 39.3896 144.969C39.3555 145.316 39.3213 145.704 39.2871 146.134C39.6094 146.1 39.9121 146.053 40.1953 145.995C40.4834 145.936 40.7275 145.863 40.9277 145.775ZM45.2783 148.023C45.127 148.023 44.9902 148.067 44.8682 148.155C44.7461 148.238 44.6362 148.358 44.5386 148.514C44.4458 148.666 44.3628 148.849 44.2896 149.063C44.2212 149.278 44.165 149.515 44.1211 149.774C44.1211 150.189 44.1309 150.609 44.1504 151.034C44.1699 151.458 44.2017 151.878 44.2456 152.293C44.2896 152.708 44.3457 153.114 44.4141 153.509C44.4873 153.905 44.5752 154.281 44.6777 154.637C44.5996 154.632 44.5093 154.625 44.4067 154.615C44.3188 154.61 44.2114 154.605 44.0845 154.601C43.9624 154.596 43.8208 154.593 43.6597 154.593C43.3569 154.593 43.0054 154.608 42.605 154.637C42.2095 154.662 41.77 154.71 41.2866 154.784C41.3452 154.51 41.3965 154.176 41.4404 153.78C41.4844 153.385 41.521 152.955 41.5503 152.491C41.5796 152.027 41.6016 151.544 41.6162 151.041C41.6357 150.533 41.6455 150.033 41.6455 149.54C41.6455 149.173 41.6406 148.814 41.6309 148.463C41.6211 148.111 41.6064 147.779 41.5869 147.467C41.5723 147.154 41.5503 146.866 41.521 146.603C41.4917 146.339 41.4575 146.112 41.4185 145.921C41.814 145.99 42.1729 146.039 42.4951 146.068C42.8223 146.092 43.1152 146.104 43.374 146.104C43.54 146.104 43.6865 146.102 43.8135 146.097C43.9404 146.087 44.0503 146.078 44.1431 146.068C44.2456 146.053 44.3384 146.039 44.4214 146.024C44.3628 146.268 44.3188 146.539 44.2896 146.837C44.5435 146.529 44.8193 146.302 45.1172 146.156C45.4199 146.009 45.7031 145.936 45.9668 145.936C46.4062 145.936 46.7773 146.017 47.0801 146.178C47.3828 146.334 47.627 146.542 47.8125 146.8C47.998 147.054 48.1323 147.345 48.2153 147.672C48.2983 147.999 48.3398 148.331 48.3398 148.668C48.3398 148.995 48.2935 149.315 48.2007 149.627C48.1079 149.94 47.9736 150.221 47.7979 150.47C47.6221 150.714 47.4048 150.912 47.146 151.063C46.8872 151.214 46.5942 151.29 46.2671 151.29C45.979 151.29 45.7324 151.241 45.5273 151.144C45.3271 151.046 45.1611 150.919 45.0293 150.763C44.8975 150.606 44.7998 150.436 44.7363 150.25C44.6777 150.06 44.6484 149.872 44.6484 149.686C44.6484 149.491 44.6753 149.3 44.729 149.115C44.7876 148.929 44.8706 148.761 44.978 148.609C45.0122 148.717 45.0537 148.8 45.1025 148.858C45.1562 148.912 45.21 148.951 45.2637 148.976C45.3223 149.005 45.3857 149.022 45.4541 149.027C45.6348 149.027 45.769 148.985 45.8569 148.902C45.9497 148.819 45.9961 148.722 45.9961 148.609C45.9961 148.556 45.9863 148.495 45.9668 148.426C45.9473 148.358 45.9106 148.294 45.8569 148.236C45.8081 148.177 45.7373 148.128 45.6445 148.089C45.5518 148.045 45.4297 148.023 45.2783 148.023ZM56.272 154.769C56.1792 154.759 56.0718 154.75 55.9497 154.74C55.8472 154.73 55.7227 154.723 55.5762 154.718C55.4346 154.713 55.2783 154.71 55.1074 154.71C54.8633 154.71 54.5947 154.72 54.3018 154.74C54.0137 154.759 53.7158 154.796 53.4082 154.85L53.4375 152.792C53.252 153.519 52.9785 154.081 52.6172 154.476C52.2607 154.872 51.8408 155.069 51.3574 155.069C51.2061 155.069 51.0352 155.05 50.8447 155.011C50.6543 154.972 50.459 154.896 50.2588 154.784C50.0635 154.676 49.8706 154.525 49.6802 154.33C49.4946 154.134 49.3286 153.883 49.1821 153.575C49.0356 153.263 48.9185 152.887 48.8306 152.447C48.7427 152.003 48.6987 151.478 48.6987 150.873C48.6987 150.052 48.7817 149.352 48.9478 148.771C49.1138 148.185 49.3262 147.706 49.585 147.335C49.8438 146.964 50.1294 146.693 50.4419 146.522C50.7544 146.351 51.0596 146.266 51.3574 146.266C51.6113 146.266 51.8408 146.302 52.0459 146.375C52.2559 146.444 52.4414 146.534 52.6025 146.646C52.7637 146.754 52.9028 146.876 53.02 147.013C53.1372 147.149 53.2324 147.286 53.3057 147.423C53.291 147.257 53.269 147.081 53.2397 146.896C53.2104 146.705 53.1763 146.51 53.1372 146.31C53.4546 146.373 53.7769 146.415 54.104 146.434C54.4312 146.454 54.7339 146.463 55.0122 146.463C55.3442 146.463 55.6128 146.456 55.8179 146.441C55.9351 146.437 56.0425 146.429 56.1401 146.419C56.0864 146.664 56.0376 146.937 55.9937 147.24C55.9497 147.542 55.9106 147.867 55.8765 148.214C55.8472 148.556 55.8228 148.917 55.8032 149.298C55.7886 149.674 55.7812 150.06 55.7812 150.455C55.7812 151.192 55.8179 151.932 55.8911 152.674C55.9644 153.417 56.0913 154.115 56.272 154.769ZM53.2617 150.572V149.386C53.2617 149.254 53.2544 149.12 53.2397 148.983C53.2251 148.846 53.1909 148.722 53.1372 148.609C53.0884 148.497 53.0151 148.407 52.9175 148.338C52.8198 148.265 52.688 148.229 52.522 148.229C52.3462 148.229 52.1997 148.29 52.0825 148.412C51.9702 148.534 51.8774 148.702 51.8042 148.917C51.7358 149.127 51.687 149.378 51.6577 149.671C51.6333 149.959 51.6211 150.274 51.6211 150.616C51.6211 150.812 51.6333 151.009 51.6577 151.209C51.687 151.41 51.7334 151.593 51.7969 151.759C51.8604 151.92 51.9458 152.052 52.0532 152.154C52.1606 152.257 52.2925 152.308 52.4487 152.308C52.6245 152.308 52.7661 152.247 52.8735 152.125C52.981 152.003 53.0615 151.852 53.1152 151.671C53.1738 151.49 53.2129 151.302 53.2324 151.107C53.252 150.907 53.2617 150.729 53.2617 150.572ZM63.2373 154.623C63.1543 154.613 63.0518 154.603 62.9297 154.593C62.8271 154.583 62.7002 154.576 62.5488 154.571C62.4023 154.566 62.2363 154.564 62.0508 154.564C61.6895 154.564 61.2598 154.581 60.7617 154.615C60.2637 154.649 59.7095 154.715 59.0991 154.813C59.3579 153.724 59.5361 152.657 59.6338 151.612C59.7363 150.567 59.7876 149.562 59.7876 148.595C59.7876 147.716 59.7534 146.891 59.6851 146.119C59.6167 145.343 59.5264 144.627 59.4141 143.973C59.9023 144.061 60.3394 144.12 60.7251 144.149C61.1157 144.178 61.4526 144.193 61.7358 144.193C61.9312 144.193 62.1021 144.188 62.2485 144.178C62.3999 144.168 62.5244 144.159 62.6221 144.149C62.7393 144.134 62.8394 144.12 62.9224 144.105C63.0884 145.062 63.2959 146.009 63.5449 146.947C63.7939 147.879 64.1016 148.817 64.4678 149.759C64.7754 148.807 65.0195 147.855 65.2002 146.903C65.3809 145.946 65.5029 144.969 65.5664 143.973L65.625 144.105L65.5664 143.973C66.0547 144.061 66.499 144.12 66.8994 144.149C67.2998 144.178 67.6538 144.193 67.9614 144.193C68.1665 144.193 68.3472 144.188 68.5034 144.178C68.6597 144.168 68.7939 144.159 68.9062 144.149C69.0332 144.134 69.1431 144.12 69.2358 144.105C69.1333 144.593 69.0552 145.172 69.0015 145.841C68.9478 146.505 68.9209 147.218 68.9209 147.979C68.9209 148.521 68.9355 149.081 68.9648 149.657C68.9941 150.228 69.0381 150.799 69.0967 151.371C69.1602 151.937 69.2407 152.496 69.3384 153.048C69.436 153.6 69.5532 154.125 69.6899 154.623C69.5923 154.613 69.48 154.603 69.353 154.593C69.2407 154.583 69.1089 154.576 68.9575 154.571C68.8062 154.566 68.6304 154.564 68.4302 154.564C68.0493 154.564 67.6001 154.581 67.0825 154.615C66.5698 154.649 66.0083 154.715 65.3979 154.813C65.52 154.569 65.6201 154.256 65.6982 153.875C65.7812 153.495 65.8472 153.089 65.896 152.66C65.9497 152.23 65.9888 151.803 66.0132 151.378C66.0425 150.948 66.062 150.565 66.0718 150.228C65.9302 150.531 65.7935 150.838 65.6616 151.151C65.5298 151.463 65.3931 151.798 65.2515 152.154C65.1147 152.506 64.9707 152.887 64.8193 153.297C64.668 153.707 64.502 154.164 64.3213 154.667C64.1357 154.164 63.9673 153.707 63.8159 153.297C63.6646 152.887 63.5205 152.506 63.3838 152.154C63.252 151.803 63.1201 151.471 62.9883 151.158C62.8613 150.841 62.7295 150.526 62.5928 150.213C62.6367 150.985 62.71 151.747 62.8125 152.499C62.915 153.246 63.0566 153.954 63.2373 154.623ZM77.7905 154.769C77.6978 154.759 77.5903 154.75 77.4683 154.74C77.3657 154.73 77.2412 154.723 77.0947 154.718C76.9531 154.713 76.7969 154.71 76.626 154.71C76.3818 154.71 76.1133 154.72 75.8203 154.74C75.5322 154.759 75.2344 154.796 74.9268 154.85L74.9561 152.792C74.7705 153.519 74.4971 154.081 74.1357 154.476C73.7793 154.872 73.3594 155.069 72.876 155.069C72.7246 155.069 72.5537 155.05 72.3633 155.011C72.1729 154.972 71.9775 154.896 71.7773 154.784C71.582 154.676 71.3892 154.525 71.1987 154.33C71.0132 154.134 70.8472 153.883 70.7007 153.575C70.5542 153.263 70.437 152.887 70.3491 152.447C70.2612 152.003 70.2173 151.478 70.2173 150.873C70.2173 150.052 70.3003 149.352 70.4663 148.771C70.6323 148.185 70.8447 147.706 71.1035 147.335C71.3623 146.964 71.6479 146.693 71.9604 146.522C72.2729 146.351 72.5781 146.266 72.876 146.266C73.1299 146.266 73.3594 146.302 73.5645 146.375C73.7744 146.444 73.96 146.534 74.1211 146.646C74.2822 146.754 74.4214 146.876 74.5386 147.013C74.6558 147.149 74.751 147.286 74.8242 147.423C74.8096 147.257 74.7876 147.081 74.7583 146.896C74.729 146.705 74.6948 146.51 74.6558 146.31C74.9731 146.373 75.2954 146.415 75.6226 146.434C75.9497 146.454 76.2524 146.463 76.5308 146.463C76.8628 146.463 77.1313 146.456 77.3364 146.441C77.4536 146.437 77.561 146.429 77.6587 146.419C77.605 146.664 77.5562 146.937 77.5122 147.24C77.4683 147.542 77.4292 147.867 77.395 148.214C77.3657 148.556 77.3413 148.917 77.3218 149.298C77.3071 149.674 77.2998 150.06 77.2998 150.455C77.2998 151.192 77.3364 151.932 77.4097 152.674C77.4829 153.417 77.6099 154.115 77.7905 154.769ZM74.7803 150.572V149.386C74.7803 149.254 74.7729 149.12 74.7583 148.983C74.7437 148.846 74.7095 148.722 74.6558 148.609C74.6069 148.497 74.5337 148.407 74.436 148.338C74.3384 148.265 74.2065 148.229 74.0405 148.229C73.8647 148.229 73.7183 148.29 73.6011 148.412C73.4888 148.534 73.396 148.702 73.3228 148.917C73.2544 149.127 73.2056 149.378 73.1763 149.671C73.1519 149.959 73.1396 150.274 73.1396 150.616C73.1396 150.812 73.1519 151.009 73.1763 151.209C73.2056 151.41 73.252 151.593 73.3154 151.759C73.3789 151.92 73.4644 152.052 73.5718 152.154C73.6792 152.257 73.811 152.308 73.9673 152.308C74.1431 152.308 74.2847 152.247 74.3921 152.125C74.4995 152.003 74.5801 151.852 74.6338 151.671C74.6924 151.49 74.7314 151.302 74.751 151.107C74.7705 150.907 74.7803 150.729 74.7803 150.572ZM86.0229 154.813C85.8716 154.789 85.7056 154.771 85.5249 154.762C85.3442 154.757 85.1562 154.754 84.9609 154.754C84.7266 154.754 84.4873 154.759 84.2432 154.769C84.0039 154.784 83.7695 154.801 83.54 154.82C83.3105 154.84 83.0933 154.862 82.8882 154.886C82.6831 154.911 82.5049 154.933 82.3535 154.952C82.5635 154.244 82.7246 153.487 82.8369 152.682C82.9541 151.876 83.0127 150.982 83.0127 150.001C83.0127 149.928 83.0103 149.83 83.0054 149.708C83.0054 149.586 83.0005 149.454 82.9907 149.312C82.981 149.171 82.9639 149.029 82.9395 148.888C82.9199 148.741 82.8882 148.609 82.8442 148.492C82.8052 148.375 82.7539 148.28 82.6904 148.207C82.627 148.133 82.5488 148.097 82.4561 148.097C82.3193 148.097 82.1851 148.146 82.0532 148.243C81.9263 148.341 81.8115 148.47 81.709 148.631C81.6113 148.792 81.5308 148.978 81.4673 149.188C81.4087 149.398 81.3794 149.615 81.3794 149.84C81.3794 150.245 81.3892 150.658 81.4087 151.078C81.4282 151.493 81.46 151.905 81.5039 152.315C81.5479 152.726 81.604 153.128 81.6724 153.524C81.7407 153.915 81.8262 154.286 81.9287 154.637C81.8457 154.632 81.748 154.625 81.6357 154.615C81.5381 154.61 81.4233 154.605 81.2915 154.601C81.1597 154.596 81.0083 154.593 80.8374 154.593C80.52 154.593 80.1538 154.608 79.7388 154.637C79.3237 154.662 78.8745 154.71 78.3911 154.784C78.4497 154.51 78.501 154.176 78.5449 153.78C78.5889 153.385 78.6255 152.955 78.6548 152.491C78.6841 152.027 78.7061 151.544 78.7207 151.041C78.7402 150.533 78.75 150.033 78.75 149.54C78.75 149.173 78.7451 148.814 78.7354 148.463C78.7256 148.111 78.7109 147.779 78.6914 147.467C78.6768 147.154 78.6548 146.866 78.6255 146.603C78.5962 146.339 78.562 146.112 78.5229 145.921C78.9185 145.99 79.2847 146.039 79.6216 146.068C79.9585 146.092 80.2637 146.104 80.5371 146.104C80.7129 146.104 80.8691 146.102 81.0059 146.097C81.1475 146.087 81.2671 146.078 81.3647 146.068C81.4819 146.053 81.5845 146.039 81.6724 146.024C81.6431 146.175 81.6138 146.336 81.5845 146.507C81.5601 146.678 81.5356 146.864 81.5112 147.064C81.6724 146.859 81.8433 146.681 82.0239 146.529C82.2046 146.373 82.3853 146.244 82.5659 146.141C82.7515 146.039 82.9346 145.963 83.1152 145.914C83.2959 145.86 83.4668 145.833 83.6279 145.833C83.9795 145.833 84.2822 145.907 84.5361 146.053C84.7949 146.195 85.0073 146.419 85.1733 146.727C85.3442 147.035 85.4712 147.428 85.5542 147.906C85.6372 148.385 85.6787 148.958 85.6787 149.627C85.6787 150.086 85.6787 150.553 85.6787 151.026C85.6836 151.5 85.6958 151.964 85.7153 152.418C85.7349 152.872 85.769 153.304 85.8179 153.714C85.8667 154.12 85.9351 154.486 86.0229 154.813ZM94.0356 146.251C93.9819 146.456 93.9355 146.708 93.8965 147.005C93.8623 147.298 93.8306 147.621 93.8013 147.972C93.772 148.319 93.7476 148.68 93.728 149.056C93.7134 149.432 93.6987 149.801 93.6841 150.162C93.6548 151.012 93.6377 151.913 93.6328 152.865C93.6328 153.363 93.6011 153.851 93.5376 154.33C93.479 154.803 93.3813 155.25 93.2446 155.67C93.1128 156.09 92.9395 156.478 92.7246 156.834C92.5098 157.191 92.2485 157.496 91.9409 157.75C91.6382 158.004 91.2866 158.202 90.8862 158.343C90.4858 158.49 90.0317 158.563 89.5239 158.563C89.0503 158.563 88.6401 158.514 88.2935 158.417C87.9468 158.319 87.6587 158.18 87.4292 157.999C87.2046 157.823 87.0361 157.611 86.9238 157.362C86.8164 157.118 86.7627 156.844 86.7627 156.542C86.7627 156.244 86.814 155.975 86.9165 155.736C87.019 155.497 87.1533 155.292 87.3193 155.121C87.4854 154.955 87.6709 154.828 87.876 154.74C88.0859 154.652 88.2983 154.608 88.5132 154.608C88.7915 154.608 89.0527 154.686 89.2969 154.842C89.541 154.999 89.7266 155.245 89.8535 155.582C89.7949 155.543 89.7241 155.523 89.6411 155.523C89.5288 155.523 89.4238 155.567 89.3262 155.655C89.2285 155.748 89.1797 155.858 89.1797 155.985C89.1797 156.058 89.1919 156.119 89.2163 156.168C89.2456 156.222 89.2822 156.263 89.3262 156.292C89.3701 156.322 89.4165 156.341 89.4653 156.351C89.519 156.366 89.5679 156.373 89.6118 156.373C89.6655 156.373 89.7388 156.363 89.8315 156.344C89.9292 156.329 90.0342 156.283 90.1465 156.205C90.2588 156.126 90.3711 156.007 90.4834 155.846C90.5957 155.685 90.6982 155.462 90.791 155.179C90.8838 154.896 90.957 154.537 91.0107 154.103C91.0693 153.668 91.0986 153.141 91.0986 152.521C91.001 152.955 90.8789 153.297 90.7324 153.546C90.5859 153.795 90.4297 153.983 90.2637 154.11C90.0977 154.232 89.9268 154.308 89.751 154.337C89.5801 154.366 89.4189 154.381 89.2676 154.381C89.1504 154.381 89.0015 154.361 88.8208 154.322C88.6401 154.278 88.4473 154.205 88.2422 154.103C88.042 153.995 87.8369 153.851 87.627 153.67C87.4219 153.485 87.2363 153.253 87.0703 152.975C86.9043 152.691 86.7676 152.354 86.6602 151.964C86.5576 151.568 86.5063 151.104 86.5063 150.572C86.5063 149.752 86.5894 149.059 86.7554 148.492C86.9263 147.926 87.1436 147.469 87.4072 147.123C87.6758 146.771 87.9712 146.52 88.2935 146.368C88.6157 146.212 88.9307 146.134 89.2383 146.134C89.458 146.134 89.6582 146.17 89.8389 146.244C90.0195 146.312 90.1831 146.405 90.3296 146.522C90.4761 146.639 90.6055 146.771 90.7178 146.917C90.8301 147.059 90.9302 147.203 91.0181 147.35C90.9888 147.135 90.9521 146.92 90.9082 146.705C90.8691 146.49 90.8228 146.273 90.769 146.053C90.8911 146.107 91.0425 146.156 91.2231 146.2C91.3794 146.239 91.5747 146.273 91.8091 146.302C92.0435 146.327 92.3267 146.339 92.6587 146.339C93.0493 146.339 93.5083 146.31 94.0356 146.251ZM90.9155 149.928C90.9155 149.791 90.9058 149.627 90.8862 149.437C90.8667 149.242 90.8301 149.056 90.7764 148.88C90.7227 148.7 90.647 148.546 90.5493 148.419C90.4565 148.292 90.3345 148.229 90.1831 148.229C90.0708 148.229 89.9683 148.294 89.8755 148.426C89.7827 148.553 89.7021 148.709 89.6338 148.895C89.5703 149.076 89.519 149.264 89.48 149.459C89.4458 149.654 89.4287 149.82 89.4287 149.957C89.4287 150.191 89.4409 150.431 89.4653 150.675C89.4897 150.919 89.5288 151.141 89.5825 151.341C89.6411 151.537 89.7119 151.698 89.7949 151.825C89.8828 151.952 89.9854 152.015 90.1025 152.015C90.2295 152.015 90.3418 151.986 90.4395 151.927C90.542 151.864 90.6274 151.781 90.6958 151.678C90.769 151.571 90.8228 151.449 90.8569 151.312C90.896 151.175 90.9155 151.029 90.9155 150.873V149.928ZM101.55 150.389C101.55 150.672 101.528 150.985 101.484 151.327C101.44 151.664 101.367 152.005 101.265 152.352C101.162 152.694 101.023 153.028 100.847 153.355C100.671 153.678 100.452 153.963 100.188 154.212C99.9292 154.461 99.6191 154.662 99.2578 154.813C98.8965 154.964 98.4766 155.04 97.998 155.04C97.5195 155.04 97.0996 154.969 96.7383 154.828C96.3818 154.686 96.0742 154.498 95.8154 154.264C95.5615 154.024 95.3516 153.751 95.1855 153.443C95.0195 153.131 94.8877 152.804 94.79 152.462C94.6924 152.12 94.624 151.776 94.585 151.429C94.5508 151.078 94.5337 150.746 94.5337 150.433C94.5337 149.881 94.6069 149.342 94.7534 148.814C94.8999 148.282 95.1221 147.809 95.4199 147.394C95.7227 146.979 96.0986 146.644 96.5479 146.39C97.002 146.136 97.5342 146.009 98.1445 146.009C98.5547 146.009 98.9233 146.073 99.2505 146.2C99.5776 146.322 99.8682 146.49 100.122 146.705C100.376 146.92 100.591 147.171 100.767 147.459C100.947 147.748 101.096 148.053 101.213 148.375C101.331 148.697 101.416 149.032 101.47 149.378C101.523 149.725 101.55 150.062 101.55 150.389ZM99.0015 150.631C99.0015 150.519 98.9966 150.379 98.9868 150.213C98.9819 150.042 98.9673 149.864 98.9429 149.679C98.9185 149.493 98.8843 149.308 98.8403 149.122C98.8013 148.937 98.7476 148.771 98.6792 148.624C98.6108 148.478 98.5254 148.358 98.4229 148.265C98.3252 148.172 98.208 148.126 98.0713 148.126C97.9395 148.126 97.8247 148.17 97.7271 148.258C97.6294 148.346 97.5439 148.46 97.4707 148.602C97.4023 148.744 97.3438 148.905 97.2949 149.085C97.251 149.261 97.2144 149.439 97.1851 149.62C97.1606 149.796 97.1411 149.967 97.1265 150.133C97.1167 150.294 97.1118 150.431 97.1118 150.543C97.1118 150.704 97.124 150.899 97.1484 151.129C97.1729 151.358 97.2192 151.578 97.2876 151.788C97.356 151.998 97.4487 152.179 97.5659 152.33C97.688 152.477 97.8467 152.55 98.042 152.55C98.2275 152.55 98.3813 152.481 98.5034 152.345C98.6304 152.208 98.7305 152.042 98.8037 151.847C98.877 151.646 98.9282 151.437 98.9575 151.217C98.9868 150.997 99.0015 150.802 99.0015 150.631ZM112.764 149.159C112.363 150.15 112.163 151.112 112.163 152.044C112.163 152.494 112.205 152.948 112.288 153.407C112.371 153.861 112.5 154.325 112.676 154.798C112.397 154.73 112.139 154.679 111.899 154.645C111.66 154.61 111.423 154.593 111.189 154.593C110.94 154.593 110.686 154.615 110.427 154.659C110.168 154.703 109.888 154.771 109.585 154.864L109.885 153.692C109.788 153.849 109.67 154.01 109.534 154.176C109.397 154.337 109.233 154.483 109.043 154.615C108.857 154.747 108.643 154.854 108.398 154.938C108.159 155.025 107.883 155.069 107.571 155.069C107.102 155.069 106.67 154.957 106.274 154.732C105.884 154.508 105.547 154.183 105.264 153.758C104.98 153.333 104.758 152.813 104.597 152.198C104.441 151.578 104.363 150.875 104.363 150.089C104.363 149.566 104.412 149.049 104.509 148.536C104.607 148.019 104.749 147.528 104.934 147.064C105.12 146.595 105.349 146.163 105.623 145.768C105.896 145.367 106.206 145.023 106.553 144.735C106.899 144.442 107.283 144.215 107.703 144.054C108.127 143.888 108.584 143.805 109.072 143.805C109.517 143.805 109.905 143.851 110.237 143.944C110.569 144.032 110.857 144.151 111.101 144.303C111.345 144.449 111.545 144.62 111.702 144.815C111.863 145.006 111.99 145.206 112.083 145.416C112.175 145.626 112.241 145.836 112.28 146.046C112.319 146.251 112.339 146.444 112.339 146.625C112.339 146.883 112.292 147.132 112.2 147.372C112.112 147.611 111.987 147.821 111.826 148.001C111.665 148.182 111.475 148.326 111.255 148.434C111.035 148.541 110.793 148.595 110.53 148.595C110.256 148.595 110.02 148.553 109.819 148.47C109.619 148.387 109.453 148.28 109.321 148.148C109.189 148.011 109.089 147.86 109.021 147.694C108.958 147.528 108.926 147.362 108.926 147.196C108.926 147.054 108.95 146.91 108.999 146.764C109.048 146.617 109.116 146.48 109.204 146.354C109.233 146.456 109.275 146.537 109.329 146.595C109.382 146.649 109.436 146.688 109.49 146.712C109.548 146.742 109.614 146.759 109.688 146.764C109.854 146.764 109.971 146.722 110.039 146.639C110.112 146.556 110.149 146.461 110.149 146.354C110.149 146.305 110.137 146.256 110.112 146.207C110.093 146.153 110.061 146.104 110.017 146.061C109.973 146.017 109.915 145.98 109.841 145.951C109.773 145.921 109.688 145.907 109.585 145.907C109.517 145.907 109.421 145.921 109.299 145.951C109.182 145.975 109.053 146.026 108.911 146.104C108.774 146.183 108.635 146.295 108.494 146.441C108.352 146.583 108.223 146.773 108.105 147.013C107.988 147.252 107.893 147.545 107.82 147.892C107.747 148.238 107.71 148.651 107.71 149.129C107.71 149.525 107.742 149.872 107.805 150.169C107.874 150.467 107.966 150.716 108.083 150.917C108.201 151.117 108.34 151.268 108.501 151.371C108.662 151.468 108.838 151.517 109.028 151.517C109.209 151.517 109.358 151.471 109.475 151.378C109.592 151.285 109.685 151.173 109.753 151.041C109.822 150.909 109.868 150.772 109.893 150.631C109.917 150.489 109.929 150.37 109.929 150.272C109.929 150.267 109.924 150.233 109.915 150.169C109.91 150.106 109.888 150.033 109.849 149.95C109.81 149.867 109.746 149.781 109.658 149.693C109.57 149.605 109.446 149.532 109.285 149.474C109.861 149.474 110.439 149.449 111.021 149.4C111.602 149.347 112.183 149.266 112.764 149.159ZM119.854 146.222C119.81 146.441 119.768 146.698 119.729 146.991C119.695 147.284 119.663 147.601 119.634 147.943C119.609 148.28 119.59 148.634 119.575 149.005C119.561 149.371 119.553 149.737 119.553 150.104C119.553 150.226 119.556 150.348 119.561 150.47C119.565 150.587 119.568 150.702 119.568 150.814C119.568 151.053 119.553 151.324 119.524 151.627C119.5 151.93 119.446 152.24 119.363 152.557C119.285 152.87 119.175 153.177 119.033 153.48C118.892 153.783 118.704 154.051 118.469 154.286C118.24 154.52 117.959 154.708 117.627 154.85C117.295 154.996 116.902 155.069 116.448 155.069C116.057 155.069 115.71 155.018 115.408 154.916C115.11 154.813 114.849 154.674 114.624 154.498C114.404 154.317 114.219 154.105 114.067 153.861C113.916 153.617 113.794 153.355 113.701 153.077C113.608 152.794 113.54 152.499 113.496 152.191C113.457 151.883 113.438 151.578 113.438 151.275C113.438 151.202 113.438 151.158 113.438 151.144C113.442 151.124 113.445 151.112 113.445 151.107C113.445 151.102 113.447 151.095 113.452 151.085C113.457 151.07 113.459 151.031 113.459 150.968C113.459 150.904 113.459 150.804 113.459 150.667C113.464 150.531 113.467 150.338 113.467 150.089C113.467 149.796 113.462 149.466 113.452 149.1C113.442 148.729 113.42 148.368 113.386 148.016C113.357 147.66 113.313 147.337 113.254 147.049C113.196 146.761 113.12 146.551 113.027 146.419C113.423 146.488 113.794 146.534 114.141 146.559C114.492 146.583 114.812 146.595 115.1 146.595C115.291 146.595 115.461 146.593 115.613 146.588C115.769 146.578 115.903 146.568 116.016 146.559C116.143 146.549 116.257 146.537 116.36 146.522C116.262 147 116.167 147.545 116.074 148.155C115.986 148.761 115.942 149.457 115.942 150.243C115.942 150.423 115.95 150.611 115.964 150.807C115.984 151.002 116.016 151.183 116.06 151.349C116.104 151.51 116.162 151.644 116.235 151.751C116.313 151.854 116.411 151.905 116.528 151.905C116.675 151.905 116.79 151.856 116.873 151.759C116.956 151.661 117.017 151.534 117.056 151.378C117.1 151.217 117.124 151.039 117.129 150.843C117.139 150.648 117.144 150.453 117.144 150.257C117.139 149.623 117.119 149.029 117.085 148.478C117.07 148.243 117.051 148.006 117.026 147.767C117.007 147.528 116.982 147.303 116.953 147.093C116.924 146.878 116.89 146.688 116.851 146.522C116.812 146.351 116.768 146.217 116.719 146.119C117.114 146.188 117.48 146.234 117.817 146.258C118.154 146.283 118.455 146.295 118.718 146.295C118.894 146.295 119.05 146.292 119.187 146.288C119.329 146.278 119.448 146.268 119.546 146.258C119.663 146.249 119.766 146.236 119.854 146.222ZM127.661 146.251C127.607 146.456 127.561 146.703 127.522 146.991C127.488 147.279 127.456 147.589 127.427 147.921C127.397 148.253 127.373 148.6 127.354 148.961C127.339 149.322 127.324 149.674 127.31 150.016C127.28 150.821 127.263 151.671 127.258 152.564C127.258 153.062 127.227 153.553 127.163 154.037C127.104 154.52 127.007 154.977 126.87 155.406C126.738 155.841 126.565 156.241 126.35 156.607C126.14 156.979 125.881 157.296 125.574 157.56C125.271 157.828 124.917 158.038 124.512 158.189C124.111 158.341 123.657 158.417 123.149 158.417C122.676 158.417 122.266 158.368 121.919 158.27C121.572 158.172 121.284 158.033 121.055 157.853C120.83 157.677 120.662 157.464 120.549 157.215C120.442 156.966 120.388 156.693 120.388 156.395C120.388 156.097 120.439 155.826 120.542 155.582C120.645 155.343 120.779 155.14 120.945 154.974C121.111 154.808 121.299 154.681 121.509 154.593C121.719 154.5 121.931 154.454 122.146 154.454C122.419 154.454 122.678 154.532 122.922 154.688C123.167 154.845 123.352 155.091 123.479 155.428C123.45 155.404 123.416 155.387 123.376 155.377C123.342 155.372 123.306 155.37 123.267 155.37C123.213 155.37 123.157 155.382 123.098 155.406C123.044 155.431 122.996 155.465 122.952 155.509C122.908 155.553 122.871 155.602 122.842 155.655C122.817 155.714 122.805 155.775 122.805 155.838C122.805 155.912 122.82 155.973 122.849 156.021C122.878 156.075 122.913 156.117 122.952 156.146C122.996 156.175 123.042 156.195 123.091 156.205C123.145 156.219 123.193 156.227 123.237 156.227C123.306 156.227 123.391 156.212 123.494 156.183C123.596 156.153 123.701 156.092 123.809 156C123.921 155.907 124.031 155.777 124.138 155.611C124.25 155.445 124.348 155.223 124.431 154.945C124.519 154.671 124.587 154.337 124.636 153.941C124.69 153.546 124.714 153.072 124.709 152.521C124.583 152.862 124.448 153.141 124.307 153.355C124.17 153.565 124.023 153.729 123.867 153.846C123.716 153.963 123.555 154.042 123.384 154.081C123.218 154.12 123.04 154.139 122.849 154.139C122.61 154.139 122.358 154.098 122.095 154.015C121.836 153.927 121.597 153.775 121.377 153.561C121.162 153.341 120.984 153.043 120.842 152.667C120.701 152.291 120.63 151.812 120.63 151.231C120.63 151.153 120.63 151.1 120.63 151.07C120.635 151.036 120.637 151.012 120.637 150.997C120.637 150.978 120.64 150.956 120.645 150.931C120.649 150.907 120.652 150.86 120.652 150.792C120.652 150.719 120.652 150.616 120.652 150.484C120.657 150.353 120.659 150.167 120.659 149.928C120.659 149.649 120.654 149.334 120.645 148.983C120.635 148.631 120.613 148.287 120.579 147.95C120.549 147.613 120.505 147.308 120.447 147.035C120.388 146.756 120.312 146.551 120.22 146.419C120.615 146.488 120.986 146.534 121.333 146.559C121.685 146.583 122.004 146.595 122.292 146.595C122.483 146.595 122.654 146.593 122.805 146.588C122.961 146.578 123.096 146.568 123.208 146.559C123.335 146.549 123.45 146.537 123.552 146.522C123.513 146.605 123.469 146.764 123.42 146.998C123.376 147.232 123.333 147.513 123.289 147.84C123.245 148.167 123.208 148.526 123.179 148.917C123.149 149.303 123.135 149.693 123.135 150.089C123.135 150.387 123.157 150.641 123.201 150.851C123.245 151.061 123.303 151.234 123.376 151.371C123.455 151.502 123.542 151.6 123.64 151.664C123.743 151.727 123.853 151.759 123.97 151.759C124.155 151.759 124.302 151.683 124.409 151.532C124.521 151.38 124.617 151.19 124.695 150.96C124.685 150.658 124.668 150.304 124.644 149.898C124.619 149.493 124.585 149.071 124.541 148.631C124.502 148.192 124.448 147.75 124.38 147.306C124.316 146.856 124.236 146.439 124.138 146.053C124.29 146.107 124.47 146.156 124.68 146.2C124.861 146.239 125.081 146.273 125.339 146.302C125.598 146.327 125.903 146.339 126.255 146.339C126.67 146.339 127.139 146.31 127.661 146.251Z" fill="black" fill-opacity="0.8"/>
</svg>
