<svg width="176" height="230" viewBox="0 0 176 230" fill="none" xmlns="http://www.w3.org/2000/svg">
    <path d="M52 218.5L38 217C39.4992 199.271 40.6349 189.317 44 171.5C45.4195 165.757 46.5111 162.484 47 156.5C49.3393 148.71 51 145.5 54 142C56.3969 139.204 55.47 139.49 64.5 132C70.3891 130.428 74.6319 126.96 76.5 124C78.3681 121.04 80.844 115.125 80 112.5H93C87.9284 116.069 91.6994 126.945 109.5 135C118.613 140.427 121.987 142.299 124.759 149.303C125.652 156.99 127.809 161.796 128.497 168.3C129.659 173.264 130.029 179.353 130 186C129.129 198.266 127.4 205.9 123.5 220L110.5 219.5C113.312 204.957 114.692 196.773 116 182C115.714 171.766 114.629 166.31 111 156.5C106.815 166.602 104.746 172.296 101.5 182.5C98.2261 194.217 99.2119 202.518 104.5 219.5L61.5 218C63.9148 204.27 64.7534 198.022 64 184L59.5 162L55 181C52.1272 195.123 51.573 203.366 52 218.5Z" fill="#45C954"/>
    <path d="M108 151.5C109.621 151.595 117.2 171.059 116 184C114.687 198.161 110.5 220 110.5 220" stroke="#0B0B0B" stroke-linecap="round"/>
    <path d="M69 141.198C72.3282 140.734 74.1153 140.991 77 143" stroke="#3AA446" stroke-width="0.5" stroke-linecap="round"/>
    <path d="M77.1922 123.036C77.1918 122.99 77.1792 122.944 77.1518 122.906C77.1245 122.869 77.0851 122.843 77.041 122.834C76.9968 122.825 76.9506 122.834 76.9109 122.859C76.8713 122.883 76.8421 122.921 76.8243 122.964C76.8243 122.964 76.8243 122.964 76.8243 122.964C76.7434 123.158 76.678 123.366 76.6253 123.575C76.4183 124.409 76.3911 125.256 76.4712 126.086C76.8192 128.956 77.5029 131.893 79.4101 134.208C79.5567 134.365 79.7158 134.514 79.8859 134.642C79.9244 134.671 79.9725 134.686 80.021 134.681C80.0695 134.677 80.1142 134.655 80.1455 134.618C80.1769 134.582 80.1926 134.534 80.1896 134.486C80.1866 134.437 80.1649 134.392 80.1306 134.358C80.1306 134.358 80.1306 134.358 80.1306 134.358C79.9986 134.226 79.875 134.076 79.7615 133.918C78.2946 131.602 77.7939 128.72 77.4663 125.988C77.3904 125.199 77.2873 124.421 77.2228 123.63C77.2076 123.431 77.1963 123.231 77.1922 123.036Z" fill="#3AA446"/>
    <path d="M93.3093 123.513C93.3155 123.467 93.3338 123.423 93.3657 123.389C93.3976 123.355 93.4399 123.334 93.4848 123.331C93.5297 123.328 93.5745 123.343 93.6107 123.372C93.6469 123.402 93.6711 123.443 93.6834 123.487C93.6834 123.487 93.6834 123.487 93.6834 123.487C93.7389 123.689 93.7791 123.902 93.8075 124.115C93.9185 124.961 93.8655 125.803 93.7169 126.619C93.1428 129.452 92.2859 132.259 90.5629 134.657C90.4325 134.821 90.287 134.986 90.1324 135.129C90.0969 135.162 90.0505 135.181 90.0019 135.182C89.9532 135.183 89.9065 135.165 89.8716 135.131C89.8368 135.098 89.8163 135.053 89.8144 135.004C89.8125 134.955 89.8296 134.908 89.8603 134.871C89.8603 134.871 89.8603 134.871 89.8603 134.871C89.9773 134.728 90.0897 134.562 90.1898 134.396C91.5086 131.965 92.1844 129.16 92.7334 126.437C92.8761 125.654 93.0535 124.883 93.2077 124.102C93.2455 123.904 93.2806 123.706 93.3093 123.513Z" fill="#3AA446"/>
    <path d="M63.1487 132.886C63.0496 132.962 62.9504 133.038 62.8513 133.114C63.0227 133.358 63.2038 133.557 63.405 133.758C64.8605 135.198 66.9482 135.935 68.9902 135.991C69.4403 136.006 69.8875 136.029 70.3318 136.065C72.6936 136.2 74.8877 137.015 77.1619 137.895C77.4164 137.989 77.6668 138.08 77.9241 138.171C77.9747 138.057 78.0253 137.943 78.0759 137.829C77.8368 137.7 77.6037 137.573 77.3653 137.445C75.2805 136.277 72.9143 135.206 70.4125 135.069C69.9447 135.031 69.477 135.012 69.0098 135.009C67.1455 135.002 65.2557 134.515 63.7283 133.385C63.5213 133.23 63.3156 133.058 63.1487 132.886Z" fill="#3AA446"/>
    <path d="M106.848 132.891C106.949 132.964 107.051 133.036 107.152 133.109C107 133.344 106.837 133.54 106.655 133.738C105.336 135.162 103.359 135.938 101.411 135.991C100.996 136.006 100.584 136.029 100.176 136.064C97.959 136.198 95.9188 137.016 93.793 137.893C93.5551 137.988 93.321 138.078 93.0804 138.169C93.0268 138.056 92.9732 137.944 92.9196 137.831C93.1411 137.702 93.3569 137.577 93.5778 137.449C95.5036 136.29 97.721 135.206 100.09 135.068C100.524 135.03 100.957 135.012 101.389 135.009C103.143 135.003 104.912 134.494 106.317 133.377C106.507 133.225 106.696 133.056 106.848 132.891Z" fill="#3AA446"/>
    <path d="M92 143C95.2618 141.19 97.2661 140.827 101 141.065" stroke="#3AA446" stroke-width="0.5" stroke-linecap="round"/>
    <path d="M80.4961 108C82.9399 110.422 78.9149 126.526 69.5 130C62.2808 132.664 53.0458 141.434 50 148.5C45.804 158.235 47.7885 156.987 44.5 169.5C40.6019 188.404 39.4009 198.769 38 217" stroke="#0B0B0B" stroke-linecap="round"/>
    <path d="M123.367 219.992C126.678 206.162 129.628 199.52 129.995 186C130.37 172.198 127.684 165.364 125 151C123.398 142.429 116.299 138.399 108.5 134.5C94.5002 127.5 87.1115 117.785 93.0003 112.5" stroke="#0B0B0B" stroke-linecap="round"/>
    <path d="M123.989 83.3755C123.706 83.8459 112.988 104.875 86.4883 115.875C71.7299 122.001 56.4886 84.3755 56.4886 84.3755C56.4886 84.3755 47.1849 56.4719 53.9886 40.8755C53.986 40.7294 58 31 65.9883 23.875C73.9766 16.75 81.9886 14.8749 81.9886 14.8749C105.989 5.87517 126.488 14.4548 131.489 21.3755C136.489 28.2961 142.247 36.9768 136.489 56.8754C133.321 67.8193 130.017 73.3273 124.066 83.246L123.989 83.3755Z" fill="#45C954" stroke="#0B0B0B"/>
    <path d="M68.4305 73.3086C57.8393 68.7422 56.5474 50.4786 57.9825 50.3243C56.4377 48.4631 80.4265 54.6334 80.4998 68.3197C80.54 75.8346 75.2223 76.2369 68.4305 73.3086Z" fill="#0B0B0B" stroke="#0B0B0B"/>
    <path d="M107.669 75.2412C118.607 71.5818 121.431 53.4916 120.013 53.2171C121.709 51.4925 97.2866 55.6232 96.0624 69.2549C95.3902 76.7398 100.655 77.5879 107.669 75.2412Z" fill="#0B0B0B" stroke="#0B0B0B"/>
    <path d="M82.5 83C81.8614 83.7217 81.6822 84.1709 81.5 85M89 83C89.8658 83.9257 89.6841 84.4827 90 85.5" stroke="#0B0B0B" stroke-linecap="round"/>
    <path d="M76.5 98.5C82.7551 98.3634 86.2172 98.5968 92.5 99.5" stroke="#0B0B0B" stroke-linecap="round"/>
    <circle cx="63" cy="56.5" r="1.5" fill="white"/>
    <circle cx="1.5" cy="1.5" r="1.5" transform="matrix(-1 0 0 1 116.5 57)" fill="white"/>
    <circle cx="64.5" cy="60" r="1" fill="white"/>
    <circle cx="1" cy="1" r="1" transform="matrix(-1 0 0 1 113.5 60)" fill="white"/>
    <path d="M79.4086 162.316C79.5067 162.226 79.5645 162.102 79.5687 161.97C79.5729 161.837 79.523 161.707 79.4309 161.609C79.3388 161.511 79.2122 161.453 79.0797 161.449C78.9471 161.445 78.8195 161.494 78.7242 161.587C78.4656 161.839 78.209 162.104 77.9619 162.363C75.163 165.418 72.3516 168.713 71.271 172.883C70.7518 175.04 69.7776 177.154 68.6074 179.069C68.5152 179.212 68.4133 179.362 68.311 179.494C68.2599 179.56 68.2065 179.625 68.1521 179.682C68.1209 179.734 67.979 179.783 68.0985 179.766C68.0501 179.759 68.0003 179.771 67.9602 179.799C67.92 179.828 67.8928 179.871 67.8844 179.92C67.876 179.968 67.8871 180.017 67.9152 180.058C67.9433 180.099 67.9861 180.127 68.0343 180.136C68.0343 180.136 68.0343 180.136 68.0343 180.136C68.329 180.126 68.3363 180.009 68.4224 179.953C68.4957 179.881 68.5574 179.81 68.6164 179.738C68.7337 179.595 68.8446 179.441 68.9452 179.295C70.2087 177.351 71.2416 175.287 71.8618 173.02C72.977 169.144 75.8288 165.937 78.6544 163.041C78.901 162.796 79.1662 162.539 79.4086 162.316Z" fill="#3AA446"/>
    <path d="M72.7864 182.936C72.7802 182.888 72.7563 182.843 72.7185 182.812C72.6807 182.78 72.6324 182.765 72.5839 182.769C72.5354 182.773 72.4904 182.797 72.4586 182.834C72.4267 182.871 72.4107 182.919 72.4128 182.968C72.4128 182.968 72.4128 182.968 72.4128 182.968C72.4346 183.467 72.4529 183.937 72.4717 184.436C72.633 188.826 72.6612 193.206 72.1456 197.531C71.6469 201.856 70.5838 206.108 69.3731 210.328C69.2362 210.805 69.1045 211.26 68.9641 211.738C68.9504 211.785 68.9543 211.835 68.9763 211.879C68.9983 211.923 69.0364 211.956 69.0825 211.972C69.1286 211.988 69.1791 211.985 69.2233 211.963C69.2675 211.942 69.3015 211.904 69.3191 211.859C69.3191 211.859 69.3191 211.859 69.3191 211.859C69.4993 211.393 69.6691 210.949 69.8422 210.482C71.3772 206.357 72.629 202.068 73.1388 197.648C73.6654 193.228 73.4628 188.775 72.964 184.399C72.9077 183.901 72.8499 183.433 72.7864 182.936Z" fill="#3AA446"/>
    <path d="M92.2136 182.936C92.2198 182.888 92.2437 182.843 92.2815 182.812C92.3193 182.78 92.3676 182.765 92.4161 182.769C92.4646 182.773 92.5096 182.797 92.5414 182.834C92.5733 182.871 92.5893 182.919 92.5872 182.968C92.5872 182.968 92.5872 182.968 92.5872 182.968C92.5654 183.467 92.5471 183.937 92.5283 184.436C92.367 188.826 92.3388 193.206 92.8544 197.531C93.3531 201.856 94.4162 206.108 95.6269 210.328C95.7638 210.805 95.8955 211.26 96.0359 211.738C96.0496 211.785 96.0457 211.835 96.0237 211.879C96.0017 211.923 95.9636 211.956 95.9175 211.972C95.8714 211.988 95.8209 211.985 95.7767 211.963C95.7325 211.942 95.6985 211.904 95.6809 211.859C95.6809 211.859 95.6809 211.859 95.6809 211.859C95.5007 211.393 95.3309 210.949 95.1578 210.482C93.6228 206.357 92.371 202.068 91.8612 197.648C91.3346 193.228 91.5372 188.775 92.036 184.399C92.0923 183.901 92.1501 183.433 92.2136 182.936Z" fill="#3AA446"/>
    <path d="M86.2242 162.816C86.1262 162.726 86.0683 162.602 86.0642 162.47C86.0599 162.337 86.1098 162.207 86.2019 162.109C86.294 162.011 86.4206 161.953 86.5531 161.949C86.6857 161.945 86.8133 161.994 86.9086 162.087C87.1672 162.339 87.4238 162.604 87.6709 162.863C90.4698 165.918 93.2813 169.213 94.3618 173.383C94.881 175.54 95.8552 177.654 97.0255 179.569C97.1177 179.712 97.2195 179.862 97.3218 179.994C97.3729 180.06 97.4263 180.125 97.4807 180.182C97.512 180.234 97.6538 180.283 97.5343 180.266C97.5827 180.259 97.6325 180.271 97.6727 180.299C97.7128 180.328 97.7401 180.371 97.7485 180.42C97.7569 180.468 97.7457 180.517 97.7176 180.558C97.6895 180.599 97.6467 180.627 97.5985 180.636C97.5985 180.636 97.5985 180.636 97.5985 180.636C97.3038 180.626 97.2965 180.509 97.2104 180.453C97.1371 180.381 97.0754 180.31 97.0164 180.238C96.8991 180.095 96.7882 179.941 96.6876 179.795C95.4241 177.851 94.3912 175.787 93.771 173.52C92.6558 169.644 89.804 166.437 86.9784 163.541C86.7318 163.296 86.4666 163.039 86.2242 162.816Z" fill="#3AA446"/>
    <path d="M64.5195 173.969C64.4962 173.972 64.4739 173.982 64.4574 173.999C64.4409 174.016 64.4317 174.039 64.4317 174.062C64.4317 174.086 64.4409 174.108 64.4574 174.125C64.4739 174.143 64.4962 174.153 64.5195 174.156C64.6097 174.164 64.6946 174.161 64.7745 174.16C65.5132 174.133 66.2354 174.006 66.9398 173.788C67.6332 173.559 68.3551 173.272 68.8729 172.677C68.9283 172.608 68.9778 172.534 69.0167 172.456C69.027 172.435 69.0307 172.411 69.0253 172.388C69.02 172.364 69.0063 172.344 68.9869 172.331C68.9674 172.319 68.9435 172.314 68.92 172.318C68.8965 172.322 68.8756 172.335 68.8602 172.353C68.8602 172.353 68.8602 172.353 68.8602 172.353C68.8124 172.407 68.7574 172.456 68.6981 172.502C68.1521 172.896 67.4569 173.092 66.79 173.311C66.115 173.52 65.4303 173.726 64.74 173.916C64.6682 173.935 64.5802 173.957 64.5195 173.969Z" fill="#3AA446"/>
    <path d="M101.539 175.973C101.562 175.976 101.585 175.987 101.601 176.004C101.618 176.021 101.627 176.044 101.627 176.067C101.627 176.09 101.618 176.113 101.601 176.13C101.585 176.148 101.562 176.158 101.539 176.161C101.449 176.169 101.364 176.166 101.284 176.165C100.545 176.138 99.8232 176.011 99.1188 175.793C98.4254 175.564 97.7035 175.277 97.1857 174.682C97.1303 174.613 97.0808 174.539 97.0419 174.461C97.0316 174.44 97.0279 174.416 97.0332 174.393C97.0386 174.369 97.0523 174.349 97.0717 174.336C97.0912 174.324 97.1151 174.319 97.1386 174.323C97.162 174.327 97.183 174.34 97.1984 174.358C97.1984 174.358 97.1984 174.358 97.1984 174.358C97.2462 174.411 97.3012 174.461 97.3605 174.507C97.9065 174.901 98.6017 175.097 99.2686 175.316C99.9436 175.525 100.628 175.73 101.319 175.921C101.39 175.94 101.478 175.962 101.539 175.973Z" fill="#3AA446"/>
    <path d="M64.2101 171C64.1875 170.993 64.1627 170.993 64.1404 171.002C64.118 171.011 64.1002 171.028 64.0905 171.05C64.0809 171.071 64.0802 171.096 64.0884 171.119C64.0966 171.141 64.1131 171.16 64.1337 171.172V171.172C64.2835 171.228 64.3745 171.211 64.4858 171.215C65.4274 171.179 66.3305 170.963 67.2108 170.668C68.077 170.354 68.9732 169.992 69.6292 169.256C69.6989 169.17 69.761 169.077 69.8061 168.977C69.8157 168.955 69.818 168.93 69.8112 168.907C69.8044 168.884 69.7893 168.865 69.7688 168.853C69.7482 168.841 69.7238 168.838 69.7004 168.844C69.6771 168.85 69.657 168.864 69.6432 168.884C69.6432 168.884 69.6432 168.884 69.6432 168.884C69.5901 168.956 69.5239 169.023 69.451 169.086C68.7705 169.616 67.8877 169.893 67.0481 170.195C66.1976 170.481 65.3302 170.773 64.4614 170.969C64.3713 170.988 64.245 171.003 64.2101 171Z" fill="#3AA446"/>
    <path d="M101.849 173.005C101.871 172.998 101.896 172.998 101.918 173.007C101.941 173.016 101.958 173.033 101.968 173.055C101.978 173.076 101.978 173.101 101.97 173.123C101.962 173.146 101.946 173.165 101.925 173.177V173.177C101.775 173.232 101.684 173.216 101.573 173.22C100.631 173.184 99.7281 172.968 98.8478 172.673C97.9816 172.359 97.0854 171.997 96.4294 171.261C96.3597 171.175 96.2976 171.082 96.2525 170.981C96.2429 170.96 96.2406 170.935 96.2474 170.912C96.2541 170.889 96.2693 170.869 96.2898 170.858C96.3104 170.846 96.3348 170.843 96.3581 170.849C96.3815 170.855 96.4016 170.869 96.4154 170.889C96.4154 170.889 96.4154 170.889 96.4154 170.889C96.4685 170.961 96.5347 171.028 96.6076 171.09C97.2881 171.621 98.1709 171.897 99.0105 172.2C99.861 172.486 100.728 172.777 101.597 172.974C101.687 172.993 101.814 173.007 101.849 173.005Z" fill="#3AA446"/>
    <path d="M63.91 167.449C63.8909 167.435 63.867 167.427 63.8428 167.429C63.8185 167.43 63.7961 167.441 63.7801 167.459C63.7642 167.477 63.756 167.501 63.7571 167.525C63.7581 167.549 63.7686 167.572 63.7853 167.589C63.7853 167.589 63.7853 167.589 63.7853 167.589C63.9365 167.717 64.0879 167.733 64.2335 167.765C65.5571 167.929 66.8441 167.71 68.1055 167.417C69.3411 167.077 70.6735 166.732 71.5914 165.681C71.6795 165.558 71.7558 165.409 71.7825 165.252C71.7864 165.228 71.782 165.204 71.7691 165.183C71.7561 165.162 71.7359 165.148 71.7126 165.142C71.6893 165.137 71.6646 165.14 71.6437 165.153C71.6228 165.165 71.6076 165.185 71.6003 165.208C71.6003 165.208 71.6003 165.208 71.6003 165.208C71.5619 165.324 71.4868 165.433 71.3996 165.525C70.5015 166.326 69.1866 166.607 67.9858 166.932C66.7622 167.218 65.5022 167.51 64.2616 167.519C64.1325 167.514 63.9817 167.496 63.91 167.449Z" fill="#3AA446"/>
    <path d="M63.0547 163.96C63.0312 163.954 63.006 163.956 62.9844 163.968C62.9628 163.979 62.9466 163.998 62.9393 164.022C62.932 164.045 62.9341 164.07 62.9452 164.092C62.9563 164.113 62.9754 164.13 62.9981 164.139C62.9981 164.139 62.9981 164.139 62.9981 164.139C63.2093 164.211 63.4013 164.228 63.6143 164.244C65.4383 164.309 67.2316 163.981 68.9827 163.531C70.6994 163.029 72.5441 162.512 73.8216 161.099C73.9475 160.935 74.0583 160.743 74.1148 160.538C74.1212 160.515 74.119 160.49 74.1079 160.468C74.0967 160.446 74.0776 160.43 74.0546 160.422C74.0317 160.414 74.0065 160.416 73.9845 160.427C73.9626 160.438 73.9457 160.457 73.9369 160.479C73.9369 160.479 73.9369 160.479 73.9369 160.479C73.8704 160.647 73.7588 160.805 73.6324 160.941C72.3623 162.114 70.5383 162.561 68.8538 163.048C67.1372 163.49 65.3782 163.895 63.6199 163.997C63.4179 164.001 63.2299 164.001 63.0547 163.96Z" fill="#3AA446"/>
    <path d="M103.971 165.766C103.994 165.76 104.019 165.763 104.041 165.774C104.063 165.786 104.079 165.805 104.086 165.828C104.093 165.851 104.091 165.876 104.08 165.898C104.069 165.92 104.05 165.937 104.027 165.945C104.027 165.945 104.027 165.945 104.027 165.945C103.816 166.017 103.624 166.034 103.411 166.051C101.587 166.116 99.7938 165.788 98.0427 165.338C96.3259 164.836 94.4813 164.319 93.2038 162.906C93.0779 162.741 92.9671 162.549 92.9106 162.345C92.9042 162.322 92.9064 162.296 92.9175 162.275C92.9287 162.253 92.9478 162.236 92.9707 162.229C92.9937 162.221 93.0189 162.223 93.0408 162.234C93.0628 162.244 93.0797 162.263 93.0885 162.286C93.0885 162.286 93.0885 162.286 93.0885 162.286C93.155 162.454 93.2666 162.611 93.393 162.747C94.6631 163.921 96.4871 164.367 98.1715 164.855C99.8882 165.296 101.647 165.702 103.406 165.804C103.607 165.807 103.795 165.807 103.971 165.766Z" fill="#3AA446"/>
    <path d="M102.149 169.454C102.168 169.439 102.192 169.432 102.216 169.433C102.24 169.435 102.263 169.446 102.278 169.464C102.294 169.482 102.303 169.505 102.302 169.53C102.3 169.554 102.29 169.577 102.273 169.594C102.273 169.594 102.273 169.594 102.273 169.594C102.122 169.722 101.971 169.738 101.825 169.77C100.502 169.933 99.2145 169.715 97.9531 169.422C96.7175 169.082 95.3851 168.737 94.4672 167.686C94.3791 167.563 94.3028 167.414 94.2761 167.257C94.2722 167.233 94.2766 167.208 94.2895 167.188C94.3025 167.167 94.3227 167.153 94.346 167.147C94.3693 167.141 94.394 167.145 94.4149 167.158C94.4358 167.17 94.451 167.19 94.4583 167.213C94.4583 167.213 94.4583 167.213 94.4583 167.213C94.4967 167.329 94.5718 167.438 94.659 167.53C95.5571 168.33 96.872 168.612 98.0728 168.936C99.2964 169.222 100.556 169.515 101.797 169.524C101.926 169.519 102.077 169.501 102.149 169.454Z" fill="#3AA446"/>
    <path d="M104.497 219.5C104.497 219.5 102.845 212.441 101.497 208C98.6104 198.498 98.8956 192.738 101.497 183C104.446 171.96 111 157 111 157" stroke="#0B0B0B" stroke-linecap="round"/>
    <path d="M51.991 218.5C51.4931 218.602 51.3762 197.529 54.491 184C56.5106 175.228 59.491 161.5 59.491 161.5M59.491 161.5C59.491 161.5 62.1534 173.954 63.491 182C65.8192 196.004 61.9245 218.402 61.491 218.5M59.491 161.5C58.006 156.967 58.0246 154.136 59.491 148.5" stroke="#0B0B0B" stroke-linecap="round"/>
    <circle cx="82.5005" cy="208.502" r="0.741699" fill="#3AA446"/>
    <path d="M117.465 81.5291C117.585 81.5634 117.706 81.5977 117.826 81.6321C117.714 82.0768 117.574 82.5085 117.423 82.9318C116.146 86.4454 113.693 90.0842 109.705 91.1305C109.468 91.1917 109.247 91.2565 109.016 91.3326C105.248 92.4751 102.978 95.9922 100.668 99.2676C100.393 99.6274 100.105 99.9809 99.7827 100.308C99.6898 100.224 99.597 100.14 99.5041 100.057C99.7788 99.7201 100.026 99.3566 100.263 98.9846C102.227 95.6388 104.521 91.6649 108.703 90.3829C108.956 90.2994 109.199 90.2291 109.458 90.1635C112.955 89.2865 115.428 86.0774 116.965 82.746C117.146 82.35 117.322 81.9333 117.465 81.5291Z" fill="#3AA446"/>
    <path d="M58.8632 80.8472C58.7395 80.8657 58.6159 80.8843 58.4923 80.9028C58.5282 81.2505 58.5862 81.588 58.6537 81.9219C59.2311 84.6903 60.7014 87.7008 63.6374 88.8993C63.8056 88.9672 63.962 89.0362 64.1248 89.1143C66.7815 90.3113 68.1394 93.1045 69.5909 95.7742C69.7661 96.069 69.9526 96.3608 70.1672 96.6358C70.2701 96.5649 70.373 96.4939 70.4759 96.423C70.3093 96.1442 70.1653 95.8479 70.0286 95.5458C68.9303 92.8511 67.6066 89.6017 64.558 88.213C64.3739 88.1246 64.197 88.0475 64.0074 87.9724C61.5361 87.005 59.9909 84.4181 59.1314 81.7967C59.0309 81.4861 58.9354 81.1588 58.8632 80.8472Z" fill="#3AA446"/>
</svg>
