<svg width="176" height="230" viewBox="0 0 176 230" fill="none" xmlns="http://www.w3.org/2000/svg">
    <path d="M52 218.648L38 217.148C39.4992 199.419 40.6349 189.465 44 171.648C45.4195 165.905 46.5111 162.632 47 156.648C49.3393 148.858 51 145.648 54 142.148C56.3969 139.352 55.47 139.637 64.5 132.148C70.3891 130.576 74.6319 127.108 76.5 124.148C78.3681 121.188 80.844 115.273 80 112.648H93C87.9284 116.217 91.6994 127.093 109.5 135.148C118.613 140.575 121.987 142.447 124.759 149.451C125.652 157.138 127.809 161.944 128.497 168.448C129.659 173.412 130.029 179.501 130 186.148C129.129 198.414 127.4 206.048 123.5 220.148L110.5 219.648C113.312 205.105 114.692 196.921 116 182.148C115.714 171.914 114.629 166.458 111 156.648C106.815 166.75 104.746 172.444 101.5 182.648C98.2261 194.365 99.2119 202.666 104.5 219.648L61.5 218.148C63.9148 204.418 64.7534 198.17 64 184.148L59.5 162.148L55 181.148C52.1272 195.271 51.573 203.514 52 218.648Z" fill="#45C954"/>
    <path d="M108 151.648C109.621 151.743 117.2 171.207 116 184.148C114.687 198.309 110.5 220.148 110.5 220.148" stroke="#0B0B0B" stroke-linecap="round"/>
    <path d="M69 141.345C72.3282 140.882 74.1153 141.139 77 143.148" stroke="#3AA446" stroke-width="0.5" stroke-linecap="round"/>
    <path d="M77.1922 123.184C77.1918 123.138 77.1792 123.092 77.1518 123.054C77.1245 123.017 77.0851 122.991 77.041 122.982C76.9968 122.973 76.9506 122.982 76.9109 123.007C76.8713 123.031 76.8421 123.069 76.8243 123.112C76.8243 123.112 76.8243 123.112 76.8243 123.112C76.7434 123.306 76.678 123.514 76.6253 123.723C76.4183 124.556 76.3911 125.404 76.4712 126.234C76.8192 129.104 77.5029 132.041 79.4101 134.356C79.5567 134.513 79.7158 134.662 79.8859 134.79C79.9244 134.819 79.9725 134.834 80.021 134.829C80.0695 134.825 80.1142 134.803 80.1455 134.766C80.1769 134.73 80.1926 134.682 80.1896 134.634C80.1866 134.585 80.1649 134.54 80.1306 134.506C80.1306 134.506 80.1306 134.506 80.1306 134.506C79.9986 134.374 79.875 134.224 79.7615 134.066C78.2946 131.75 77.7939 128.868 77.4663 126.136C77.3904 125.346 77.2873 124.569 77.2228 123.778C77.2076 123.579 77.1963 123.379 77.1922 123.184Z" fill="#3AA446"/>
    <path d="M93.3093 123.661C93.3155 123.615 93.3338 123.571 93.3657 123.537C93.3976 123.503 93.4399 123.482 93.4848 123.479C93.5297 123.476 93.5745 123.491 93.6107 123.52C93.6469 123.55 93.6711 123.591 93.6834 123.635C93.6834 123.635 93.6834 123.635 93.6834 123.635C93.7389 123.837 93.7791 124.05 93.8075 124.263C93.9185 125.109 93.8655 125.951 93.7169 126.767C93.1428 129.6 92.2859 132.407 90.5629 134.805C90.4325 134.969 90.287 135.134 90.1324 135.277C90.0969 135.31 90.0505 135.329 90.0019 135.33C89.9532 135.33 89.9065 135.312 89.8716 135.279C89.8368 135.246 89.8163 135.201 89.8144 135.152C89.8125 135.103 89.8296 135.056 89.8603 135.019C89.8603 135.019 89.8603 135.019 89.8603 135.019C89.9773 134.876 90.0897 134.71 90.1898 134.544C91.5086 132.113 92.1844 129.308 92.7334 126.585C92.8761 125.802 93.0535 125.031 93.2077 124.25C93.2455 124.052 93.2806 123.854 93.3093 123.661Z" fill="#3AA446"/>
    <path d="M63.1487 133.034C63.0496 133.11 62.9504 133.186 62.8513 133.262C63.0227 133.506 63.2038 133.705 63.405 133.906C64.8605 135.345 66.9482 136.083 68.9902 136.139C69.4403 136.154 69.8875 136.177 70.3318 136.213C72.6936 136.348 74.8877 137.163 77.1619 138.043C77.4164 138.137 77.6668 138.228 77.9241 138.319C77.9747 138.205 78.0253 138.091 78.0759 137.977C77.8368 137.848 77.6037 137.721 77.3653 137.593C75.2805 136.425 72.9143 135.354 70.4125 135.217C69.9447 135.179 69.477 135.16 69.0098 135.157C67.1455 135.15 65.2557 134.663 63.7283 133.533C63.5213 133.377 63.3156 133.206 63.1487 133.034Z" fill="#3AA446"/>
    <path d="M106.848 133.039C106.949 133.112 107.051 133.184 107.152 133.257C107 133.492 106.837 133.688 106.655 133.886C105.336 135.309 103.359 136.086 101.411 136.139C100.996 136.154 100.584 136.177 100.176 136.212C97.959 136.346 95.9188 137.164 93.793 138.041C93.5551 138.135 93.321 138.226 93.0804 138.317C93.0268 138.204 92.9732 138.091 92.9196 137.979C93.1411 137.85 93.3569 137.725 93.5778 137.597C95.5036 136.438 97.721 135.354 100.09 135.216C100.524 135.178 100.957 135.16 101.389 135.157C103.143 135.151 104.912 134.642 106.317 133.525C106.507 133.373 106.696 133.204 106.848 133.039Z" fill="#3AA446"/>
    <path d="M92 143.148C95.2618 141.338 97.2661 140.975 101 141.213" stroke="#3AA446" stroke-width="0.5" stroke-linecap="round"/>
    <path d="M80.4961 108.148C82.9399 110.57 78.9149 126.674 69.5 130.148C62.2808 132.812 53.0458 141.581 50 148.648C45.804 158.383 47.7885 157.134 44.5 169.648C40.6019 188.552 39.4009 198.917 38 217.148" stroke="#0B0B0B" stroke-linecap="round"/>
    <path d="M123.367 220.14C126.678 206.31 129.628 199.668 129.995 186.148C130.37 172.346 127.684 165.512 125 151.148C123.398 142.577 116.299 138.547 108.5 134.648C94.5002 127.648 87.1115 117.933 93.0003 112.648" stroke="#0B0B0B" stroke-linecap="round"/>
    <path d="M123.989 83.5234C123.706 83.9938 112.988 105.023 86.4883 116.023C71.7299 122.149 56.4886 84.5234 56.4886 84.5234C56.4886 84.5234 47.1849 56.6198 53.9886 41.0234C53.986 40.8773 58 31.1479 65.9883 24.0229C73.9766 16.8979 81.9886 15.0229 81.9886 15.0229C105.989 6.02312 126.488 14.6028 131.489 21.5234C136.489 28.444 142.247 37.1248 136.489 57.0234C133.321 67.9673 130.017 73.4752 124.066 83.394L123.989 83.5234Z" fill="#45C954" stroke="#0B0B0B"/>
    <path d="M70.0421 69.2799C61.0735 63.1158 54.9199 52.1673 56.355 52.013C54.8102 50.1518 67.4883 59.8948 76.2925 70.9206C80.9817 76.7931 76.1374 73.4693 70.0421 69.2799Z" fill="#0B0B0B" stroke="#0B0B0B"/>
    <path d="M106.844 71.1363C115.812 64.9721 120.761 55.1364 119.326 54.9821C120.871 53.1209 108.193 62.8639 99.3883 73.8897C94.6991 79.7622 100.749 75.3256 106.844 71.1363Z" fill="#0B0B0B" stroke="#0B0B0B"/>
    <path d="M82.5 83.1479C81.8614 83.8697 81.6822 84.3189 81.5 85.1479M89 83.1479C89.8658 84.0737 89.6841 84.6306 90 85.6479" stroke="#0B0B0B" stroke-linecap="round"/>
    <path d="M76.5 98.648C82.7551 98.5113 86.2172 98.7447 92.5 99.648" stroke="#0B0B0B" stroke-linecap="round"/>
    <path d="M79.4086 162.464C79.5067 162.374 79.5645 162.25 79.5687 162.118C79.5729 161.985 79.523 161.855 79.4309 161.757C79.3388 161.659 79.2122 161.601 79.0797 161.597C78.9471 161.592 78.8195 161.642 78.7242 161.735C78.4656 161.987 78.209 162.251 77.9619 162.511C75.163 165.566 72.3516 168.861 71.271 173.03C70.7518 175.188 69.7776 177.302 68.6074 179.217C68.5152 179.36 68.4133 179.51 68.311 179.642C68.2599 179.708 68.2065 179.773 68.1521 179.83C68.1209 179.882 67.979 179.931 68.0985 179.914C68.0501 179.907 68.0003 179.919 67.9602 179.947C67.92 179.976 67.8928 180.019 67.8844 180.067C67.876 180.116 67.8871 180.165 67.9152 180.206C67.9433 180.247 67.9861 180.275 68.0343 180.284C68.0343 180.284 68.0343 180.284 68.0343 180.284C68.329 180.274 68.3363 180.157 68.4224 180.101C68.4957 180.029 68.5574 179.958 68.6164 179.886C68.7337 179.743 68.8446 179.589 68.9452 179.443C70.2087 177.499 71.2416 175.435 71.8618 173.168C72.977 169.292 75.8288 166.085 78.6544 163.189C78.901 162.944 79.1662 162.687 79.4086 162.464Z" fill="#3AA446"/>
    <path d="M72.7864 183.084C72.7802 183.036 72.7563 182.991 72.7185 182.96C72.6807 182.928 72.6324 182.913 72.5839 182.917C72.5354 182.921 72.4904 182.945 72.4586 182.982C72.4267 183.019 72.4107 183.067 72.4128 183.116C72.4128 183.116 72.4128 183.116 72.4128 183.116C72.4346 183.615 72.4529 184.085 72.4717 184.584C72.633 188.973 72.6612 193.354 72.1456 197.679C71.6469 202.004 70.5838 206.256 69.3731 210.476C69.2362 210.952 69.1045 211.408 68.9641 211.886C68.9504 211.933 68.9543 211.983 68.9763 212.027C68.9983 212.071 69.0364 212.104 69.0825 212.12C69.1286 212.136 69.1791 212.132 69.2233 212.111C69.2675 212.09 69.3015 212.052 69.3191 212.007C69.3191 212.007 69.3191 212.007 69.3191 212.007C69.4993 211.541 69.6691 211.097 69.8422 210.63C71.3772 206.505 72.629 202.216 73.1388 197.796C73.6654 193.376 73.4628 188.923 72.964 184.547C72.9077 184.049 72.8499 183.581 72.7864 183.084Z" fill="#3AA446"/>
    <path d="M92.2136 183.084C92.2198 183.036 92.2437 182.991 92.2815 182.96C92.3193 182.928 92.3676 182.913 92.4161 182.917C92.4646 182.921 92.5096 182.945 92.5414 182.982C92.5733 183.019 92.5893 183.067 92.5872 183.116C92.5872 183.116 92.5872 183.116 92.5872 183.116C92.5654 183.615 92.5471 184.085 92.5283 184.584C92.367 188.973 92.3388 193.354 92.8544 197.679C93.3531 202.004 94.4162 206.256 95.6269 210.476C95.7638 210.952 95.8955 211.408 96.0359 211.886C96.0496 211.933 96.0457 211.983 96.0237 212.027C96.0017 212.071 95.9636 212.104 95.9175 212.12C95.8714 212.136 95.8209 212.132 95.7767 212.111C95.7325 212.09 95.6985 212.052 95.6809 212.007C95.6809 212.007 95.6809 212.007 95.6809 212.007C95.5007 211.541 95.3309 211.097 95.1578 210.63C93.6228 206.505 92.371 202.216 91.8612 197.796C91.3346 193.376 91.5372 188.923 92.036 184.547C92.0923 184.049 92.1501 183.581 92.2136 183.084Z" fill="#3AA446"/>
    <path d="M86.2242 162.964C86.1262 162.874 86.0683 162.75 86.0642 162.618C86.0599 162.485 86.1098 162.355 86.2019 162.257C86.294 162.159 86.4206 162.101 86.5531 162.097C86.6857 162.092 86.8133 162.142 86.9086 162.235C87.1672 162.487 87.4238 162.751 87.6709 163.011C90.4698 166.066 93.2813 169.361 94.3618 173.53C94.881 175.688 95.8552 177.802 97.0255 179.717C97.1177 179.86 97.2195 180.01 97.3218 180.142C97.3729 180.208 97.4263 180.273 97.4807 180.33C97.512 180.382 97.6538 180.431 97.5343 180.414C97.5827 180.407 97.6325 180.419 97.6727 180.447C97.7128 180.476 97.7401 180.519 97.7485 180.567C97.7569 180.616 97.7457 180.665 97.7176 180.706C97.6895 180.747 97.6467 180.775 97.5985 180.784C97.5985 180.784 97.5985 180.784 97.5985 180.784C97.3038 180.774 97.2965 180.657 97.2104 180.601C97.1371 180.529 97.0754 180.458 97.0164 180.386C96.8991 180.243 96.7882 180.089 96.6876 179.943C95.4241 177.999 94.3912 175.935 93.771 173.668C92.6558 169.792 89.804 166.585 86.9784 163.689C86.7318 163.444 86.4666 163.187 86.2242 162.964Z" fill="#3AA446"/>
    <path d="M64.5195 174.116C64.4962 174.12 64.4739 174.13 64.4574 174.147C64.4409 174.164 64.4317 174.187 64.4317 174.21C64.4317 174.234 64.4409 174.256 64.4574 174.273C64.4739 174.291 64.4962 174.301 64.5195 174.304C64.6097 174.312 64.6946 174.309 64.7745 174.308C65.5132 174.281 66.2354 174.154 66.9398 173.936C67.6332 173.707 68.3551 173.42 68.8729 172.825C68.9283 172.756 68.9778 172.682 69.0167 172.604C69.027 172.583 69.0307 172.559 69.0253 172.536C69.02 172.512 69.0063 172.492 68.9869 172.479C68.9674 172.467 68.9435 172.462 68.92 172.466C68.8965 172.47 68.8756 172.483 68.8602 172.501C68.8602 172.501 68.8602 172.501 68.8602 172.501C68.8124 172.555 68.7574 172.604 68.6981 172.65C68.1521 173.044 67.4569 173.24 66.79 173.459C66.115 173.668 65.4303 173.874 64.74 174.064C64.6682 174.083 64.5802 174.105 64.5195 174.116Z" fill="#3AA446"/>
    <path d="M101.539 176.121C101.562 176.124 101.585 176.135 101.601 176.152C101.618 176.169 101.627 176.192 101.627 176.215C101.627 176.238 101.618 176.261 101.601 176.278C101.585 176.295 101.562 176.306 101.539 176.309C101.449 176.317 101.364 176.314 101.284 176.313C100.545 176.286 99.8232 176.159 99.1188 175.941C98.4254 175.712 97.7035 175.425 97.1857 174.83C97.1303 174.761 97.0808 174.687 97.0419 174.609C97.0316 174.588 97.0279 174.564 97.0332 174.541C97.0386 174.517 97.0523 174.497 97.0717 174.484C97.0912 174.471 97.1151 174.467 97.1386 174.471C97.162 174.475 97.183 174.488 97.1984 174.506C97.1984 174.506 97.1984 174.506 97.1984 174.506C97.2462 174.559 97.3012 174.609 97.3605 174.655C97.9065 175.049 98.6017 175.245 99.2686 175.464C99.9436 175.673 100.628 175.878 101.319 176.069C101.39 176.088 101.478 176.11 101.539 176.121Z" fill="#3AA446"/>
    <path d="M64.2101 171.148C64.1875 171.141 64.1627 171.141 64.1404 171.15C64.118 171.159 64.1002 171.176 64.0905 171.198C64.0809 171.219 64.0802 171.244 64.0884 171.267C64.0966 171.289 64.1131 171.308 64.1337 171.32V171.32C64.2835 171.376 64.3745 171.359 64.4858 171.363C65.4274 171.327 66.3305 171.111 67.2108 170.816C68.077 170.502 68.9732 170.14 69.6292 169.404C69.6989 169.318 69.761 169.225 69.8061 169.125C69.8157 169.103 69.818 169.078 69.8112 169.055C69.8044 169.032 69.7893 169.012 69.7688 169.001C69.7482 168.989 69.7238 168.986 69.7004 168.992C69.6771 168.998 69.657 169.012 69.6432 169.032C69.6432 169.032 69.6432 169.032 69.6432 169.032C69.5901 169.104 69.5239 169.171 69.451 169.234C68.7705 169.764 67.8877 170.041 67.0481 170.343C66.1976 170.629 65.3302 170.921 64.4614 171.117C64.3713 171.136 64.245 171.151 64.2101 171.148Z" fill="#3AA446"/>
    <path d="M101.849 173.153C101.871 173.146 101.896 173.146 101.918 173.155C101.941 173.164 101.958 173.181 101.968 173.203C101.978 173.224 101.978 173.249 101.97 173.271C101.962 173.294 101.946 173.313 101.925 173.324V173.324C101.775 173.38 101.684 173.364 101.573 173.367C100.631 173.332 99.7281 173.116 98.8478 172.821C97.9816 172.507 97.0854 172.145 96.4294 171.409C96.3597 171.323 96.2976 171.23 96.2525 171.129C96.2429 171.108 96.2406 171.083 96.2474 171.06C96.2541 171.037 96.2693 171.017 96.2898 171.006C96.3104 170.994 96.3348 170.991 96.3581 170.997C96.3815 171.003 96.4016 171.017 96.4154 171.037C96.4154 171.037 96.4154 171.037 96.4154 171.037C96.4685 171.109 96.5347 171.176 96.6076 171.238C97.2881 171.769 98.1709 172.045 99.0105 172.348C99.861 172.634 100.728 172.925 101.597 173.122C101.687 173.141 101.814 173.155 101.849 173.153Z" fill="#3AA446"/>
    <path d="M63.91 167.597C63.8909 167.583 63.867 167.575 63.8428 167.577C63.8185 167.578 63.7961 167.589 63.7801 167.607C63.7642 167.625 63.756 167.649 63.7571 167.673C63.7581 167.697 63.7686 167.72 63.7853 167.737C63.7853 167.737 63.7853 167.737 63.7853 167.737C63.9365 167.865 64.0879 167.881 64.2335 167.913C65.5571 168.076 66.8441 167.858 68.1055 167.565C69.3411 167.225 70.6735 166.88 71.5914 165.829C71.6795 165.706 71.7558 165.557 71.7825 165.4C71.7864 165.376 71.782 165.352 71.7691 165.331C71.7561 165.31 71.7359 165.296 71.7126 165.29C71.6893 165.284 71.6646 165.288 71.6437 165.301C71.6228 165.313 71.6076 165.333 71.6003 165.356C71.6003 165.356 71.6003 165.356 71.6003 165.356C71.5619 165.472 71.4868 165.581 71.3996 165.673C70.5015 166.474 69.1866 166.755 67.9858 167.079C66.7622 167.366 65.5022 167.658 64.2616 167.667C64.1325 167.662 63.9817 167.644 63.91 167.597Z" fill="#3AA446"/>
    <path d="M63.0547 164.108C63.0312 164.102 63.006 164.104 62.9844 164.116C62.9628 164.127 62.9466 164.146 62.9393 164.17C62.932 164.193 62.9341 164.218 62.9452 164.24C62.9563 164.261 62.9754 164.278 62.9981 164.286C62.9981 164.286 62.9981 164.286 62.9981 164.286C63.2093 164.359 63.4013 164.376 63.6143 164.392C65.4383 164.457 67.2316 164.129 68.9827 163.679C70.6994 163.177 72.5441 162.66 73.8216 161.247C73.9475 161.083 74.0583 160.89 74.1148 160.686C74.1212 160.663 74.119 160.638 74.1079 160.616C74.0967 160.594 74.0776 160.578 74.0546 160.57C74.0317 160.562 74.0065 160.564 73.9845 160.575C73.9626 160.586 73.9457 160.605 73.9369 160.627C73.9369 160.627 73.9369 160.627 73.9369 160.627C73.8704 160.795 73.7588 160.953 73.6324 161.089C72.3623 162.262 70.5383 162.708 68.8538 163.196C67.1372 163.638 65.3782 164.043 63.6199 164.145C63.4179 164.149 63.2299 164.149 63.0547 164.108Z" fill="#3AA446"/>
    <path d="M103.971 165.914C103.994 165.908 104.019 165.911 104.041 165.922C104.063 165.934 104.079 165.953 104.086 165.976C104.093 165.999 104.091 166.024 104.08 166.046C104.069 166.068 104.05 166.085 104.027 166.093C104.027 166.093 104.027 166.093 104.027 166.093C103.816 166.165 103.624 166.182 103.411 166.198C101.587 166.264 99.7938 165.936 98.0427 165.486C96.3259 164.984 94.4813 164.467 93.2038 163.054C93.0779 162.889 92.9671 162.697 92.9106 162.493C92.9042 162.47 92.9064 162.444 92.9175 162.423C92.9287 162.401 92.9478 162.384 92.9707 162.377C92.9937 162.369 93.0189 162.371 93.0408 162.382C93.0628 162.392 93.0797 162.411 93.0885 162.434C93.0885 162.434 93.0885 162.434 93.0885 162.434C93.155 162.602 93.2666 162.759 93.393 162.895C94.6631 164.069 96.4871 164.515 98.1715 165.003C99.8882 165.444 101.647 165.85 103.406 165.952C103.607 165.955 103.795 165.955 103.971 165.914Z" fill="#3AA446"/>
    <path d="M102.149 169.602C102.168 169.587 102.192 169.58 102.216 169.581C102.24 169.583 102.263 169.594 102.278 169.612C102.294 169.63 102.303 169.653 102.302 169.678C102.3 169.702 102.29 169.725 102.273 169.742C102.273 169.742 102.273 169.742 102.273 169.742C102.122 169.87 101.971 169.886 101.825 169.918C100.502 170.081 99.2145 169.863 97.9531 169.57C96.7175 169.229 95.3851 168.885 94.4672 167.834C94.3791 167.71 94.3028 167.562 94.2761 167.405C94.2722 167.381 94.2766 167.356 94.2895 167.336C94.3025 167.315 94.3227 167.301 94.346 167.295C94.3693 167.289 94.394 167.293 94.4149 167.306C94.4358 167.318 94.451 167.338 94.4583 167.361C94.4583 167.361 94.4583 167.361 94.4583 167.361C94.4967 167.477 94.5718 167.586 94.659 167.678C95.5571 168.478 96.872 168.76 98.0728 169.084C99.2964 169.37 100.556 169.663 101.797 169.672C101.926 169.667 102.077 169.649 102.149 169.602Z" fill="#3AA446"/>
    <path d="M104.497 219.648C104.497 219.648 102.845 212.589 101.497 208.148C98.6104 198.646 98.8956 192.885 101.497 183.148C104.446 172.108 111 157.148 111 157.148" stroke="#0B0B0B" stroke-linecap="round"/>
    <path d="M51.991 218.648C51.4931 218.75 51.3762 197.677 54.491 184.148C56.5106 175.376 59.491 161.648 59.491 161.648M59.491 161.648C59.491 161.648 62.1534 174.102 63.491 182.148C65.8192 196.152 61.9245 218.55 61.491 218.648M59.491 161.648C58.006 157.115 58.0246 154.283 59.491 148.648" stroke="#0B0B0B" stroke-linecap="round"/>
    <circle cx="82.5005" cy="208.65" r="0.741699" fill="#3AA446"/>
    <path d="M117.465 81.677C117.585 81.7114 117.706 81.7457 117.826 81.78C117.714 82.2247 117.574 82.6565 117.423 83.0797C116.146 86.5934 113.693 90.2322 109.705 91.2784C109.468 91.3396 109.247 91.4045 109.016 91.4806C105.248 92.6231 102.978 96.1401 100.668 99.4155C100.393 99.7754 100.105 100.129 99.7827 100.456C99.6898 100.372 99.597 100.288 99.5041 100.205C99.7788 99.868 100.026 99.5045 100.263 99.1325C102.227 95.7867 104.521 91.8129 108.703 90.5309C108.956 90.4474 109.199 90.377 109.458 90.3115C112.955 89.4344 115.428 86.2253 116.965 82.8939C117.146 82.498 117.322 82.0812 117.465 81.677Z" fill="#3AA446"/>
    <path d="M58.8632 80.9952C58.7395 81.0137 58.6159 81.0322 58.4923 81.0507C58.5282 81.3984 58.5862 81.736 58.6537 82.0699C59.2311 84.8383 60.7014 87.8487 63.6374 89.0473C63.8056 89.1152 63.962 89.1841 64.1248 89.2623C66.7815 90.4593 68.1394 93.2524 69.5909 95.9222C69.7661 96.217 69.9526 96.5087 70.1672 96.7838C70.2701 96.7128 70.373 96.6419 70.4759 96.5709C70.3093 96.2921 70.1653 95.9958 70.0286 95.6938C68.9303 92.9991 67.6066 89.7496 64.558 88.361C64.3739 88.2726 64.197 88.1954 64.0074 88.1203C61.5361 87.153 59.9909 84.566 59.1314 81.9447C59.0309 81.6341 58.9354 81.3068 58.8632 80.9952Z" fill="#3AA446"/>
</svg>
