<svg width="100%" height="100%" viewBox="0 0 175 125" fill="none" xmlns="http://www.w3.org/2000/svg">
<mask id="mask0_1980_676" style="mask-type:alpha" maskUnits="userSpaceOnUse" x="0" y="0" width="175" height="125">
<rect width="175" height="125" fill="#EE0000"/>
</mask>
<g mask="url(#mask0_1980_676)">
<path d="M70.0073 111.916L70.3331 113.545H67.2376C63.925 113.545 56.6479 114.359 51.9776 115.283C49.3165 115.771 48.9364 116.043 47.3072 118.595C45.1893 121.962 43.8859 125.384 40.9534 135.539C37.6407 146.835 36.1201 154.981 36.1201 161.389C36.1201 162.692 35.7399 165.733 35.3055 168.123C34.5452 172.141 34.2194 173.771 33.1332 178.495C32.8074 180.016 32.9703 180.287 34.871 181.482C36.7718 182.677 37.3691 182.786 43.4514 182.623C47.9589 182.514 50.2941 182.242 51.1087 181.699C52.2491 180.939 52.3577 180.993 52.6835 182.514C53.0637 184.252 54.9644 186.098 57.8426 187.51C72.2338 194.407 79.9996 196.579 87.9827 195.873C93.359 195.33 96.6717 194.298 100.962 191.692C102.971 190.497 105.795 189.085 107.207 188.651C108.565 188.162 110.194 187.456 110.791 187.021C111.389 186.641 112.638 186.315 113.615 186.315C115.896 186.315 119.535 184.632 121.761 182.514C124.314 180.124 128.169 173.445 127.518 172.576C127.192 172.25 126.649 170.349 126.323 168.394C125.671 165.027 124.911 162.04 123.282 156.175C122.847 154.655 121.761 150.419 120.838 146.672C119.915 142.925 118.557 138.146 117.851 136.028C117.091 133.91 116.222 130.814 115.896 129.239C115.57 127.61 114.701 124.298 113.995 121.908C111.226 112.622 108.402 110.992 96.1287 111.59C92.2729 111.753 88.2542 112.079 87.331 112.241C85.7561 112.513 85.5389 112.459 85.5389 111.427C85.5389 110.303 84.5056 109.98 83.8465 110.423C83.55 110.622 83.3292 110.976 83.3123 111.481C83.2037 113.273 83.421 114.305 83.9097 114.631C84.1269 114.794 84.5071 115.5 84.7243 116.152C84.9415 116.858 86.082 118.432 87.2767 119.627C88.4715 120.822 89.286 121.908 89.0688 122.125C88.6887 122.505 83.421 123.157 77.1214 123.592C74.2432 123.809 71.8537 123.646 70.1159 123.157C67.1833 122.397 66.3687 121.419 68.1066 120.876C71.4435 119.839 73.4325 112.638 71.897 110.423C75.4097 110.146 82.7947 110.534 83.8465 110.423C83.9848 110.408 84.0136 110.395 83.9097 110.383C82.7426 110.252 70.8508 110.286 70.496 110.286C69.8444 110.286 69.7357 110.667 70.0073 111.916ZM107.424 114.631C109.977 116.314 111.715 119.844 113.289 126.307C113.941 128.968 115.353 134.236 116.494 137.983C117.634 141.73 118.883 146.129 119.263 147.758C119.589 149.387 120.621 153.297 121.49 156.338C122.359 159.434 123.662 164.593 124.368 167.743L125.617 173.553L123.662 176.975C122.141 179.581 120.892 180.939 118.449 182.568C114.321 185.338 112.964 185.338 112.475 182.623C111.552 177.572 110.954 173.119 110.52 167.851C109.868 160.466 108.999 153.786 108.565 152.211C108.239 151.071 108.348 151.016 109.76 151.342C110.628 151.559 111.497 151.939 111.66 152.211C112.149 152.971 112.746 151.179 112.366 150.202C111.986 149.278 111.063 149.116 111.063 149.93C111.063 150.202 110.466 150.473 109.705 150.473C108.673 150.473 108.293 150.093 108.022 148.953C107.859 148.138 107.479 146.617 107.207 145.586C105.306 137.874 104.6 130.76 105.632 130.108C106.338 129.674 106.338 128.208 105.578 128.208C105.252 128.208 104.383 128.696 103.623 129.294C102.863 129.891 101.777 130.38 101.233 130.38C100.636 130.38 100.202 130.76 100.202 131.194C100.202 131.737 100.745 132.009 101.831 132.009C103.351 132.009 103.46 132.172 103.46 134.018C103.46 136.082 104.166 139.938 106.175 149.387C107.37 154.926 108.076 159.977 108.891 168.937C109.162 172.087 109.542 175.78 109.76 177.192C110.085 179.419 109.977 179.799 109.216 179.799C108.728 179.799 107.37 180.287 106.284 180.83C105.035 181.428 103.677 181.754 102.754 181.591C101.668 181.374 101.288 181.536 101.288 182.188C101.288 182.677 101.451 183.003 101.722 182.948C101.939 182.948 102.537 183.057 103.026 183.274C103.623 183.546 104.818 183.166 106.338 182.297C109.325 180.505 110.303 180.505 110.737 182.297C111.226 184.089 111.009 184.252 107.261 185.827C105.632 186.478 103.786 187.456 103.188 187.945C100.908 189.845 96.3459 192.289 93.359 193.158C88.5801 194.516 79.0221 194.027 73.32 192.072C66.8575 189.845 56.7022 185.066 55.4532 183.654C53.2266 181.156 52.7378 162.475 54.5843 148.301C55.1816 143.685 55.6704 138.363 55.6704 136.516C55.6704 134.67 55.9419 132.987 56.2135 132.824C56.5393 132.606 57.6254 132.987 58.6572 133.638C59.7434 134.29 60.9381 134.67 61.4269 134.507C62.4587 134.127 61.9156 133.095 60.6123 133.095C60.1235 133.095 59.0917 132.552 58.3857 131.9C57.6797 131.194 56.8108 130.651 56.485 130.651C56.2135 130.651 55.3445 130.434 54.6386 130.163C53.0094 129.565 51.6517 130.706 53.118 131.52C54.3127 132.226 54.3127 133.91 53.1723 143.793C52.4663 149.604 52.0862 151.559 51.4888 151.559C51.1087 151.559 50.5113 150.908 50.1854 150.147C49.5881 148.464 49.3165 148.627 48.6106 150.962C48.2304 152.374 48.2847 152.645 48.7735 152.157C49.1536 151.885 50.0225 151.777 50.7285 151.939L51.9776 152.265L51.6517 165.896C51.4888 173.39 51.3802 179.581 51.3259 179.581C51.163 180.179 47.4701 180.83 44.266 180.939C38.0751 181.048 37.4234 180.939 36.1744 179.907L35.034 178.984L36.3373 172.739C37.0433 169.318 37.9122 163.29 38.2923 159.434C39.0526 150.31 39.5957 147.106 41.6593 140.155C46.7641 122.56 48.339 118.867 51.2173 117.835C52.0319 117.564 53.1723 117.075 53.7697 116.803C54.367 116.532 56.8108 116.152 59.2003 115.989L63.5448 115.608L63.3819 118.324C63.1104 121.854 64.5766 123.592 68.7039 124.678C74.2975 126.144 88.5258 125.058 91.3497 122.94C93.1961 121.636 93.6306 118.269 92.3815 115.771C91.8928 114.902 91.5126 114.034 91.5126 113.871C91.5126 113.273 93.7392 113.11 99.387 113.165C104.763 113.273 105.578 113.382 107.424 114.631ZM90.3179 116.206C91.7298 118.65 91.8385 119.519 90.698 119.519C89.6119 119.519 87.7655 117.944 86.8423 116.152C85.8104 114.197 85.8647 114.088 87.6026 114.088C88.7973 114.088 89.3947 114.522 90.3179 116.206ZM70.3331 115.717C70.3331 117.129 68.9211 118.975 67.4549 119.519C65.3369 120.225 65.4455 120.279 65.4455 118.65C65.4455 116.26 66.3687 115.174 68.4324 115.174C69.4642 115.174 70.3331 115.391 70.3331 115.717Z" fill="black"/>
<path d="M107.424 114.631C109.977 116.314 111.715 119.844 113.289 126.307C113.941 128.968 115.353 134.236 116.494 137.983C117.634 141.73 118.883 146.129 119.263 147.758C119.589 149.387 120.621 153.297 121.49 156.338C122.359 159.434 123.662 164.593 124.368 167.743L125.617 173.553L123.662 176.975C122.141 179.581 120.892 180.939 118.449 182.568C114.321 185.338 112.964 185.338 112.475 182.623C111.552 177.572 110.954 173.119 110.52 167.851C109.868 160.466 108.999 153.786 108.565 152.211C108.239 151.071 108.348 151.016 109.76 151.342C110.628 151.559 111.497 151.939 111.66 152.211C112.149 152.971 112.746 151.179 112.366 150.202C111.986 149.278 111.063 149.116 111.063 149.93C111.063 150.202 110.466 150.473 109.705 150.473C108.673 150.473 108.293 150.093 108.022 148.953C107.859 148.138 107.479 146.617 107.207 145.586C105.306 137.874 104.6 130.76 105.632 130.108C106.338 129.674 106.338 128.208 105.578 128.208C105.252 128.208 104.383 128.696 103.623 129.294C102.863 129.891 101.777 130.38 101.233 130.38C100.636 130.38 100.202 130.76 100.202 131.194C100.202 131.737 100.745 132.009 101.831 132.009C103.351 132.009 103.46 132.172 103.46 134.018C103.46 136.082 104.166 139.938 106.175 149.387C107.37 154.926 108.076 159.977 108.891 168.937C109.162 172.087 109.542 175.78 109.76 177.192C110.085 179.419 109.977 179.799 109.216 179.799C108.728 179.799 107.37 180.287 106.284 180.83C105.035 181.428 103.677 181.754 102.754 181.591C101.668 181.374 101.288 181.536 101.288 182.188C101.288 182.677 101.451 183.003 101.722 182.948C101.939 182.948 102.537 183.057 103.026 183.274C103.623 183.546 104.818 183.166 106.338 182.297C109.325 180.505 110.303 180.505 110.737 182.297C111.226 184.089 111.009 184.252 107.261 185.827C105.632 186.478 103.786 187.456 103.188 187.945C100.908 189.845 96.3459 192.289 93.359 193.158C88.5801 194.516 79.0221 194.027 73.32 192.072C66.8575 189.845 56.7022 185.066 55.4532 183.654C53.2266 181.156 52.7378 162.475 54.5843 148.301C55.1816 143.685 55.6704 138.363 55.6704 136.516C55.6704 134.67 55.9419 132.987 56.2135 132.824C56.5393 132.606 57.6254 132.987 58.6572 133.638C59.7434 134.29 60.9381 134.67 61.4269 134.507C62.4587 134.127 61.9156 133.095 60.6123 133.095C60.1235 133.095 59.0917 132.552 58.3857 131.9C57.6797 131.194 56.8108 130.651 56.485 130.651C56.2135 130.651 55.3445 130.434 54.6386 130.163C53.0094 129.565 51.6517 130.706 53.118 131.52C54.3127 132.226 54.3127 133.91 53.1723 143.793C52.4663 149.604 52.0862 151.559 51.4888 151.559C51.1087 151.559 50.5113 150.908 50.1854 150.147C49.5881 148.464 49.3165 148.627 48.6106 150.962C48.2304 152.374 48.2847 152.645 48.7735 152.157C49.1536 151.885 50.0225 151.777 50.7285 151.939L51.9776 152.265L51.6517 165.896C51.4888 173.39 51.3802 179.581 51.3259 179.581C51.163 180.179 47.4701 180.83 44.266 180.939C38.0751 181.048 37.4234 180.939 36.1744 179.907L35.034 178.984L36.3373 172.739C37.0433 169.318 37.9122 163.29 38.2923 159.434C39.0526 150.31 39.5957 147.106 41.6593 140.155C46.7641 122.56 48.339 118.867 51.2173 117.835C52.0319 117.564 53.1723 117.075 53.7697 116.803C54.367 116.532 56.8108 116.152 59.2003 115.989L63.5448 115.608L63.3819 118.324C63.1104 121.854 64.5766 123.592 68.7039 124.678C74.2975 126.144 88.5258 125.058 91.3497 122.94C93.1961 121.636 93.6306 118.269 92.3815 115.771C91.8928 114.902 91.5126 114.034 91.5126 113.871C91.5126 113.273 93.7392 113.11 99.387 113.165C104.763 113.273 105.578 113.382 107.424 114.631Z" fill="#E4D120"/>
<path d="M70.3331 115.717C70.3331 117.129 68.9211 118.975 67.4549 119.519C65.3369 120.225 65.4455 120.279 65.4455 118.65C65.4455 116.26 66.3687 115.174 68.4324 115.174C69.4642 115.174 70.3331 115.391 70.3331 115.717Z" fill="#AEA01C"/>
<path d="M90.3179 116.206C91.7298 118.65 91.8385 119.519 90.698 119.519C89.6119 119.519 87.7655 117.944 86.8423 116.152C85.8104 114.197 85.8647 114.088 87.6026 114.088C88.7973 114.088 89.3947 114.522 90.3179 116.206Z" fill="#AEA01C"/>
<path d="M83.8465 110.423C83.55 110.622 83.3292 110.976 83.3123 111.481C83.2037 113.273 83.421 114.305 83.9097 114.631C84.1269 114.794 84.5071 115.5 84.7243 116.152C84.9415 116.858 86.082 118.432 87.2767 119.627C88.4715 120.822 89.286 121.908 89.0688 122.125C88.6887 122.505 83.421 123.157 77.1214 123.592C74.2432 123.809 71.8537 123.646 70.1159 123.157C67.1833 122.397 66.3687 121.419 68.1066 120.876C71.4435 119.839 73.4325 112.638 71.897 110.423C75.4097 110.146 82.7947 110.534 83.8465 110.423Z" fill="white"/>
<path d="M110.161 12.2545C109.084 12.4504 104.234 12.4994 99.3362 12.3525C93.0175 12.2055 90.3724 12.3525 90.1275 12.7443C89.6867 13.4791 57.6951 13.1021 56.4093 12.9184C55.5903 12.8014 55.2827 12.7347 54.9398 12.7347C54.1071 12.7347 49.6683 16.2221 49.6683 16.9078C49.6683 17.2017 46.3375 20.7284 42.272 24.7939C38.2065 28.8105 34.6798 32.4841 34.4349 32.9739C33.8471 34.0515 33.8471 36.1578 34.4839 36.5496C34.8268 36.7456 34.9737 48.2563 34.9737 69.5146C34.9737 87.491 35.1206 106.986 35.3166 112.864C35.6105 122.758 35.6595 123.493 36.5411 123.493C37.2269 123.493 37.4228 123.101 37.4228 121.778C37.4228 120.554 37.6677 120.064 38.1575 120.064C38.9413 120.064 41.3473 115.781 42.5169 113.794C42.9057 113.134 43.2285 112.825 43.3678 112.658C43.5697 112.416 43.5515 111.923 43.7905 111.1C44.2862 109.719 44.3293 108.504 45.2599 110.366C48.1989 116.145 51.2847 120.064 52.9011 120.064C53.8318 120.064 55.0074 118.742 55.0564 117.664C55.0564 116.684 57.3277 113.209 57.6034 112.717C57.6951 112.474 57.712 112.441 57.8788 112.107C58.0624 111.74 58.3382 111.149 58.779 110.708C59.5627 109.827 59.6117 109.827 60.4444 110.904C60.8611 111.46 60.49 110.965 61.5392 112.813C61.6692 113.042 61.8191 113.261 61.9843 113.466C63.0601 114.8 61.8301 113.274 63.2364 115.019C65.4895 117.272 63.2364 115.019 65.4895 117.272C68.0856 120.26 65.4895 117.272 68.0856 120.26C69.4571 121.338 69.9469 121.485 70.4857 121.044C70.8776 120.701 70.9696 119.902 71.2204 119.035C71.4713 118.169 71.5819 117.674 71.7103 117.37C71.8387 117.067 72.0602 116.635 72.2001 116.194C72.3897 115.597 72.494 115.019 72.8368 114.725C73.2287 114.431 74.0124 113.207 74.6492 111.982C75.9227 109.533 76.3636 109.288 76.8534 110.806C77.0493 111.345 78.4208 113.109 79.9392 114.627C81.5067 116.194 83.466 118.252 84.3476 119.28C86.013 121.191 87.6784 121.534 88.3642 120.064C88.5601 119.672 88.952 118.84 89.2458 118.252C89.5887 117.664 89.8396 116.332 90.1275 115.166C90.5743 114.128 90.3906 114.495 90.8623 113.207C91.0994 112.559 91.3031 112.325 91.3031 111.296C91.3031 108.847 91.8601 108.433 92.8705 110.268C93.5132 111.005 93.6969 111.189 94.0951 111.737C95.1664 112.842 95.3196 112.913 96.1523 114.284C96.936 115.705 98.5035 117.958 99.6301 119.28C100.708 120.554 100.493 120.189 100.677 120.373C100.861 120.557 101.877 121.573 102.514 121.475C103.346 121.377 103.843 121.876 103.94 120.554C104.038 119.623 104.332 118.644 104.577 118.399C104.822 118.105 105.018 117.223 105.018 116.341C105.018 115.509 105.312 114.529 105.704 114.235C106.488 113.598 106.683 113.794 107.173 115.852C107.614 117.713 108.888 119.574 109.72 119.574C110.21 119.574 110.357 118.84 110.357 116.831C110.308 115.313 110.504 113.941 110.798 113.745C111.092 113.598 111.435 112.57 111.631 111.492C111.827 110.415 112.12 109.288 112.316 109.043C112.463 108.749 112.855 107.476 113.1 106.153L113.59 103.704L115.402 105.565C117.392 107.476 117.943 107.476 119.125 105.369C119.223 104.439 119.517 103.41 119.762 103.116C120.007 102.773 120.349 101.108 120.545 99.2957C120.684 97.8389 120.89 96.9695 121.126 96.5541C121.506 95.8854 122.253 96.9753 122.852 97.4586C122.881 97.4825 122.912 97.507 122.946 97.5323C123.27 97.7799 123.637 97.9635 124.121 98.5119C125.107 99.433 126.472 99.7855 127.795 98.8058C129.068 97.8752 128.187 93.0435 128.187 91.351C128.187 88.0447 127.942 88.8135 128.187 75.8822C128.383 67.7022 128.529 50.0197 128.578 36.5496V12.0586L120.349 12.0096C115.843 11.9606 111.239 12.1076 110.161 12.2545ZM119.958 14.4587C119.419 14.8016 118.243 15.2914 117.411 15.4873C117.248 15.5144 117.091 15.5482 116.942 15.5864C116.1 15.8027 115.472 16.5011 114.731 16.9535C113.605 17.6398 111.912 18.5097 111.239 18.6712C110.963 18.7963 110.779 18.9799 110.308 19.259C110.304 19.2606 110.301 19.2622 110.297 19.2639C109.667 19.5354 108.83 19.8966 107.32 20.0427C105.753 20.1406 104.381 20.4345 104.234 20.6794C104.087 20.9243 103.598 21.1203 103.157 21.1203C102.716 21.1203 101.932 21.6591 101.344 22.3448C100.463 23.4714 99.875 23.6184 94.4869 24.0592C85.3763 24.7939 78.6657 24.696 77.784 23.8143C77.1963 23.2265 75.7758 23.0796 71.4164 23.0796C67.8407 23.0796 65.8324 22.8836 65.8324 22.5897C65.8324 21.904 61.8159 17.6915 61.1791 17.6915C60.5913 17.6426 58.4851 15.9772 58.4851 15.5363C58.4851 15.3894 65.7344 15.2424 74.6002 15.2424C86.2579 15.2424 90.8623 15.0955 91.1072 14.6546C91.3521 14.2628 93.9481 14.2138 100.561 14.4097C105.557 14.5567 110.455 14.5077 111.386 14.3118C112.316 14.0669 114.863 13.8709 117.019 13.8219C120.447 13.773 120.79 13.8709 119.958 14.4587ZM55.7421 16.8588C56.2809 17.4466 57.6034 18.4752 58.632 19.112C59.6117 19.6998 60.2666 20.4494 60.4444 20.6794C60.634 20.8168 60.8177 21.0005 61.1301 21.1203C61.9198 21.5515 62.9425 22.2469 62.5016 22.8836C62.3057 23.1775 61.375 23.6673 60.4444 24.0102C59.5137 24.3531 58.0443 24.9899 57.1626 25.3327C56.3299 25.7246 55.2033 26.0185 54.6645 26.0185C54.1257 26.0185 53.244 26.6063 52.7542 27.292C51.4499 28.1641 51.2662 28.1641 49.2765 28.8594C47.856 28.9574 47.9599 29.0825 46.7294 29.4962C46.4904 29.6335 46.6741 29.4499 46.0926 29.937C45.572 30.3683 45.021 30.3683 44.2803 30.9167C43.6435 31.4555 43.0557 31.6541 42.0761 31.8963C41.531 32.0214 40.8516 32.0923 40.5577 32.3372C40.3127 32.5331 39.3821 32.9739 38.4514 33.3168C36.933 33.8066 36.884 33.7577 37.4718 32.9739C37.8147 32.5331 41.1454 29.1044 44.8681 25.3817C48.5907 21.7081 51.6276 18.5242 51.6276 18.3283C51.6276 17.9854 54.1257 15.7812 54.5176 15.7322C54.6155 15.7322 55.1543 16.2221 55.7421 16.8588ZM121.721 17.4466C120.888 18.4263 119.517 19.8957 118.635 20.8264C116.725 22.7367 114.814 25.2838 114.814 25.9205C114.814 26.1654 114.374 26.7532 113.884 27.194C113.345 27.6839 112.806 28.5655 112.659 29.2023C112.218 30.8677 110.798 30.2799 108.937 27.6839C108.104 26.5083 106.977 25.2837 106.439 24.9899C105.802 24.696 105.508 24.1082 105.606 23.4224C105.704 22.5407 106.145 22.2958 108.202 22.0509C110.406 21.806 112.757 20.9243 114.814 19.6018C115.206 19.3569 115.941 19.014 116.431 18.8671C116.71 18.7431 116.925 18.6457 117.106 18.5158C117.319 18.363 117.631 18.0929 117.838 17.9323C118.111 17.7199 118.3 17.6526 118.63 17.5476C119.182 17.3718 119.8 17.1218 120.545 16.7119C123.19 15.2914 123.435 15.4873 121.721 17.4466ZM126.178 55.1628C125.995 84.6334 126.343 91.1336 126.841 94.102C126.904 94.4721 127.039 94.8248 127.142 95.1859C127.373 96.0015 127.031 96.2882 126.619 96.6996C126.129 97.1404 125.689 96.9445 124.611 95.622C123.386 94.2015 122.848 93.9566 121.084 93.9076C119.901 93.8801 118.9 94.7784 118.801 95.958L118.684 97.3364C118.341 100.814 118.47 104.943 117.392 104.943C116.608 104.943 114.325 100.961 114.325 99.8834C114.325 99.2467 113.933 99.0018 112.904 99.0018C112.131 99.0018 111.489 99.5983 111.431 100.37L111.239 102.969C111.092 105.174 110.706 110.16 110.412 110.454C110.02 110.846 109.916 98.1201 109.916 72.6004V37.1864L112.071 34.4434C113.247 32.925 114.325 31.2106 114.521 30.6228C114.668 30.084 115.206 29.2023 115.696 28.6635C116.725 27.439 117.606 26.0675 118.194 24.7939C118.586 23.8633 125.689 16.7119 126.227 16.7119C126.325 16.7119 126.325 34.0026 126.178 55.1628ZM64.7582 24.895C65.2208 24.8358 65.787 25.0007 66.2512 25.0453C67.1353 25.1302 68.7288 25.1548 70.4367 25.0878C74.0614 24.9899 75.139 25.1368 75.7758 25.7246C76.4125 26.3614 77.784 26.5083 83.0741 26.5083C90.6518 26.4648 99.3523 25.8404 101.809 25.2205C102.226 25.1152 102.574 24.8216 102.957 25.0188C103.241 25.1651 103.426 25.6012 103.572 25.8853C103.76 26.2508 104.035 26.5083 104.283 26.5083C104.626 26.5083 105.606 27.439 106.537 28.5166C107.467 29.6432 108.741 31.1126 109.377 31.7004L110.553 32.876H104.626C101.393 32.876 98.6014 33.0719 98.4545 33.3168C98.3075 33.5617 96.0544 33.9046 93.5073 34.1005C90.9602 34.2965 88.854 34.5903 88.854 34.7863C88.854 35.0312 87.0417 35.3251 84.8375 35.521C82.6333 35.7169 80.527 36.1088 80.1352 36.4027C79.2045 37.2354 64.9997 37.6272 64.216 36.8435C63.8731 36.5006 60.9342 36.3047 55.5462 36.3047C51.0888 36.3047 47.2192 36.1088 46.9253 35.8639C46.6804 35.57 44.966 35.3251 43.0557 35.2271L39.627 35.0802L42.7129 34.1495C44.3783 33.6107 45.572 32.9398 45.7498 32.827C46.1231 32.5725 46.4355 32.3372 47.2192 32.1412C48.0519 31.9453 47.8535 31.8377 48.6887 31.4065C49.2765 31.103 49.7663 30.9167 51.0888 30.7208C52.8522 30.4758 53.6849 30.084 54.2726 29.2513C54.7625 28.4676 55.6931 27.9778 57.0156 27.7328C57.1325 27.7116 57.2449 27.6892 57.3531 27.666C58.5916 27.3999 59.7802 26.6094 60.9866 26.2229C61.2062 26.1526 61.4358 26.0838 61.6689 26.0185C62.4257 25.8066 63.145 25.5386 63.6189 25.3185C63.9922 25.1451 64.3499 24.9472 64.7582 24.895ZM107.957 72.5514C107.957 107.77 107.712 114.774 106.683 108.063C106.439 106.153 106.194 105.859 105.214 105.859C104.087 105.859 104.038 106.006 104.038 109.239C104.038 111.149 103.799 111.923 103.549 112.962C103.414 113.519 103.296 113.954 103.152 114.651C103.087 114.96 103.062 115.276 103.039 115.591C102.956 116.722 102.627 118.465 102.33 118.72C101.497 119.356 100.512 117.125 97.9157 113.06C96.936 111.443 95.8094 109.827 95.4666 109.386C92.7726 106.055 92.1358 105.369 91.7929 105.369C91.0092 105.369 89.8396 108.617 89.3438 110.219C89.1048 111.189 89.2885 110.27 88.903 111.737C88.3701 113.026 88.3701 112.842 88.1682 114.137C87.6294 118.203 86.8457 118.252 83.1721 114.627C81.4577 112.913 80.2881 111.189 80.0372 110.904C79.7864 110.62 79.9207 110.821 79.5474 110.268C79.2302 109.797 79.3696 110.087 79.0576 109.631C78.4512 108.801 76.3146 106.251 75.3349 106.447C74.7961 106.545 74.0614 107.623 73.4736 109.092C72.8858 110.415 71.9552 112.178 71.3674 112.913C70.7306 113.696 70.2408 114.578 70.2408 114.921C70.2408 115.264 69.9469 116.097 69.604 116.831C69.284 117.403 68.4793 117.45 68.0951 116.919L67.8897 116.635C67.3019 115.852 66.7627 115.303 66.5119 114.862C66.3113 114.51 65.9608 113.76 65.3426 113.158C64.4913 112.474 63.7566 111.923 63.3343 111.1C62.5016 109.092 60.1995 106.839 59.0239 106.839C58.3382 106.839 57.7994 107.28 57.5055 108.063C57.2605 108.7 56.6728 109.68 56.1829 110.17C55.1053 111.296 53.5869 114.039 53.5869 114.823C53.5869 115.166 53.391 115.705 53.1461 116.097C52.7542 116.684 52.4113 116.537 51.1378 115.362C50.3051 114.578 49.2765 113.158 48.8356 112.227C47.3172 108.994 45.015 105.859 44.1823 105.859C43.0557 105.859 42.4494 107.882 41.8312 109.386C41.531 110.27 41.531 110.27 41.3904 110.757C41.1636 111.189 40.9799 111.556 40.6556 112.374C40.3313 113.192 39.676 114.725 38.8923 115.656L37.4228 117.37L37.5208 112.864C37.5698 110.366 37.4718 108.21 37.2759 108.014C37.0799 107.819 36.933 91.8014 36.933 72.4535V37.2844H41.0475C43.3496 37.2844 45.3579 37.4803 45.5048 37.7742C45.7008 38.0681 49.1295 38.264 54.2726 38.264C59.8566 38.264 62.8935 38.4599 63.2364 38.8028C64.0201 39.5865 80.674 39.1947 81.6046 38.362C81.9965 38.0681 83.9558 37.6272 85.9641 37.4803C87.9723 37.2844 89.8336 36.9905 90.0785 36.7945C90.3724 36.5496 92.6256 36.2557 95.1237 36.0598C97.6218 35.8639 99.777 35.472 99.9239 35.2761C100.071 35.0312 101.932 34.8353 104.087 34.8353H107.957V72.5514Z" fill="black"/>
<path d="M55.7421 16.8588C56.2809 17.4466 57.6034 18.4752 58.632 19.112C59.6117 19.6998 60.2666 20.4494 60.4444 20.6794C60.634 20.8168 60.8177 21.0005 61.1301 21.1203C61.9198 21.5515 62.9425 22.2469 62.5016 22.8836C62.3057 23.1775 61.375 23.6673 60.4444 24.0102C59.5137 24.3531 58.0443 24.9899 57.1626 25.3327C56.3299 25.7246 55.2033 26.0185 54.6645 26.0185C54.1257 26.0185 53.244 26.6063 52.7542 27.292C51.4499 28.1641 51.2662 28.1641 49.2765 28.8594C47.856 28.9574 47.9599 29.0825 46.7294 29.4962C46.4904 29.6335 46.6741 29.4499 46.0926 29.937C45.572 30.3683 45.021 30.3683 44.2803 30.9167C43.6435 31.4555 43.0557 31.6541 42.0761 31.8963C41.531 32.0214 40.8516 32.0923 40.5577 32.3372C40.3127 32.5331 39.3821 32.9739 38.4514 33.3168C36.933 33.8066 36.884 33.7577 37.4718 32.9739C37.8147 32.5331 41.1454 29.1044 44.8681 25.3817C48.5907 21.7081 51.6276 18.5242 51.6276 18.3283C51.6276 17.9854 54.1257 15.7812 54.5176 15.7322C54.6155 15.7322 55.1543 16.2221 55.7421 16.8588Z" fill="#955353"/>
<path d="M119.958 14.4587C119.419 14.8016 118.243 15.2914 117.411 15.4873C117.248 15.5144 117.091 15.5482 116.942 15.5864C116.1 15.8027 115.472 16.5011 114.731 16.9535C113.605 17.6398 111.912 18.5097 111.239 18.6712C110.963 18.7963 110.779 18.9799 110.308 19.259L110.297 19.2639C109.667 19.5354 108.83 19.8966 107.32 20.0427C105.753 20.1406 104.381 20.4345 104.234 20.6794C104.087 20.9243 103.598 21.1203 103.157 21.1203C102.716 21.1203 101.932 21.6591 101.344 22.3448C100.463 23.4714 99.875 23.6184 94.4869 24.0592C85.3763 24.7939 78.6657 24.696 77.784 23.8143C77.1963 23.2265 75.7758 23.0796 71.4164 23.0796C67.8407 23.0796 65.8324 22.8836 65.8324 22.5897C65.8324 21.904 61.8159 17.6915 61.1791 17.6915C60.5913 17.6426 58.4851 15.9772 58.4851 15.5363C58.4851 15.3894 65.7344 15.2424 74.6002 15.2424C86.2579 15.2424 90.8623 15.0955 91.1072 14.6546C91.3521 14.2628 93.9481 14.2138 100.561 14.4097C105.557 14.5567 110.455 14.5077 111.386 14.3118C112.316 14.0669 114.863 13.8709 117.019 13.8219C120.447 13.773 120.79 13.8709 119.958 14.4587Z" fill="#955353"/>
<path d="M64.7582 24.895C65.2208 24.8358 65.787 25.0007 66.2512 25.0453C67.1353 25.1302 68.7288 25.1548 70.4367 25.0878C74.0614 24.9899 75.139 25.1368 75.7758 25.7246C76.4125 26.3614 77.784 26.5083 83.0741 26.5083C90.6518 26.4648 99.3523 25.8404 101.809 25.2205C102.226 25.1152 102.574 24.8216 102.957 25.0188C103.241 25.1651 103.426 25.6012 103.572 25.8853C103.76 26.2508 104.035 26.5083 104.283 26.5083C104.626 26.5083 105.606 27.439 106.537 28.5166C107.467 29.6432 108.741 31.1126 109.377 31.7004L110.553 32.876H104.626C101.393 32.876 98.6014 33.0719 98.4545 33.3168C98.3075 33.5617 96.0544 33.9046 93.5073 34.1005C90.9602 34.2965 88.854 34.5903 88.854 34.7863C88.854 35.0312 87.0417 35.3251 84.8375 35.521C82.6333 35.7169 80.527 36.1088 80.1352 36.4027C79.2045 37.2354 64.9997 37.6272 64.216 36.8435C63.8731 36.5006 60.9342 36.3047 55.5462 36.3047C51.0888 36.3047 47.2192 36.1088 46.9253 35.8639C46.6804 35.57 44.966 35.3251 43.0557 35.2271L39.627 35.0802L42.7129 34.1495C44.3783 33.6107 45.572 32.9398 45.7498 32.827C46.1231 32.5725 46.4355 32.3372 47.2192 32.1412C48.0519 31.9453 47.8535 31.8377 48.6887 31.4065C49.2765 31.103 49.7663 30.9167 51.0888 30.7208C52.8522 30.4758 53.6849 30.084 54.2726 29.2513C54.7625 28.4676 55.6931 27.9778 57.0156 27.7328C57.1325 27.7116 57.2449 27.6892 57.3531 27.666C58.5916 27.3999 59.7802 26.6094 60.9866 26.2229C61.2062 26.1526 61.4358 26.0838 61.6689 26.0185C62.4257 25.8066 63.145 25.5386 63.6189 25.3185C63.9922 25.1451 64.3499 24.9472 64.7582 24.895Z" fill="#955353"/>
<path d="M121.721 17.4466C120.888 18.4263 119.517 19.8957 118.635 20.8264C116.725 22.7367 114.814 25.2838 114.814 25.9205C114.814 26.1654 114.374 26.7532 113.884 27.194C113.345 27.6839 112.806 28.5655 112.659 29.2023C112.218 30.8677 110.798 30.2799 108.937 27.6839C108.104 26.5083 106.977 25.2837 106.439 24.9899C105.802 24.696 105.508 24.1082 105.606 23.4224C105.704 22.5407 106.145 22.2958 108.202 22.0509C110.406 21.806 112.757 20.9243 114.814 19.6018C115.206 19.3569 115.941 19.014 116.431 18.8671C116.71 18.7431 116.925 18.6457 117.106 18.5158C117.319 18.363 117.631 18.0929 117.838 17.9323C118.111 17.7199 118.3 17.6526 118.63 17.5476C119.182 17.3718 119.8 17.1218 120.545 16.7119C123.19 15.2914 123.435 15.4873 121.721 17.4466Z" fill="#955353"/>
<path d="M107.957 72.5514C107.957 107.77 107.712 114.774 106.683 108.063C106.439 106.153 106.194 105.859 105.214 105.859C104.087 105.859 104.038 106.006 104.038 109.239C104.038 111.149 103.799 111.923 103.549 112.962C103.414 113.519 103.296 113.954 103.152 114.651C103.087 114.96 103.062 115.276 103.039 115.591C102.956 116.722 102.627 118.465 102.33 118.72C101.497 119.356 100.512 117.125 97.9157 113.06C96.936 111.443 95.8094 109.827 95.4666 109.386C92.7726 106.055 92.1358 105.369 91.7929 105.369C91.0092 105.369 89.8396 108.617 89.3438 110.219C89.1048 111.189 89.2885 110.27 88.903 111.737C88.3701 113.026 88.3701 112.842 88.1682 114.137C87.6294 118.203 86.8457 118.252 83.1721 114.627C81.4577 112.913 80.2881 111.189 80.0372 110.904C79.7864 110.62 79.9207 110.821 79.5474 110.268C79.2302 109.797 79.3696 110.087 79.0576 109.631C78.4512 108.801 76.3146 106.251 75.3349 106.447C74.7961 106.545 74.0614 107.623 73.4736 109.092C72.8858 110.415 71.9552 112.178 71.3674 112.913C70.7306 113.696 70.2408 114.578 70.2408 114.921C70.2408 115.264 69.9469 116.097 69.604 116.831C69.284 117.403 68.4793 117.45 68.0951 116.919L67.8897 116.635C67.3019 115.852 66.7627 115.303 66.5119 114.862C66.3113 114.51 65.9608 113.76 65.3426 113.158C64.4913 112.474 63.7566 111.923 63.3343 111.1C62.5016 109.092 60.1995 106.839 59.0239 106.839C58.3382 106.839 57.7994 107.28 57.5055 108.063C57.2605 108.7 56.6728 109.68 56.1829 110.17C55.1053 111.296 53.5869 114.039 53.5869 114.823C53.5869 115.166 53.391 115.705 53.1461 116.097C52.7542 116.684 52.4113 116.537 51.1378 115.362C50.3051 114.578 49.2765 113.158 48.8356 112.227C47.3172 108.994 45.015 105.859 44.1823 105.859C43.0557 105.859 42.4494 107.882 41.8312 109.386C41.531 110.27 41.531 110.27 41.3904 110.757C41.1636 111.189 40.9799 111.556 40.6556 112.374C40.3313 113.192 39.676 114.725 38.8923 115.656L37.4228 117.37L37.5208 112.864C37.5698 110.366 37.4718 108.21 37.2759 108.014C37.0799 107.819 36.933 91.8014 36.933 72.4535V37.2844H41.0475C43.3496 37.2844 45.3579 37.4803 45.5048 37.7742C45.7008 38.0681 49.1295 38.264 54.2726 38.264C59.8566 38.264 62.8935 38.4599 63.2364 38.8028C64.0201 39.5865 80.674 39.1947 81.6046 38.362C81.9965 38.0681 83.9558 37.6272 85.9641 37.4803C87.9723 37.2844 89.8336 36.9905 90.0785 36.7945C90.3724 36.5496 92.6256 36.2557 95.1237 36.0598C97.6218 35.8639 99.777 35.472 99.9239 35.2761C100.071 35.0312 101.932 34.8353 104.087 34.8353H107.957V72.5514Z" fill="#955353"/>
<path d="M126.178 55.1628C125.995 84.6334 126.343 91.1336 126.841 94.102C126.904 94.4721 127.039 94.8248 127.142 95.1859C127.373 96.0015 127.031 96.2882 126.619 96.6996C126.129 97.1404 125.689 96.9445 124.611 95.622C123.386 94.2015 122.848 93.9566 121.084 93.9076C119.901 93.8801 118.9 94.7784 118.801 95.958L118.684 97.3364C118.341 100.814 118.47 104.943 117.392 104.943C116.608 104.943 114.325 100.961 114.325 99.8834C114.325 99.2467 113.933 99.0018 112.904 99.0018C112.131 99.0018 111.489 99.5983 111.431 100.37L111.239 102.969C111.092 105.174 110.706 110.16 110.412 110.454C110.02 110.846 109.916 98.1201 109.916 72.6004V37.1864L112.071 34.4434C113.247 32.925 114.325 31.2106 114.521 30.6228C114.668 30.084 115.206 29.2023 115.696 28.6635C116.725 27.439 117.606 26.0675 118.194 24.7939C118.586 23.8633 125.689 16.7119 126.227 16.7119C126.325 16.7119 126.325 34.0026 126.178 55.1628Z" fill="#955353"/>
<path d="M48 67C48 67 53.1538 65 57 65C60.8462 65 66 67 66 67" stroke="black" stroke-width="4" stroke-linecap="round"/>
<path d="M81 67C81 67 86.1538 65 90 65C93.8462 65 99 67 99 67" stroke="black" stroke-width="4" stroke-linecap="round"/>
</g>
</svg>
