<svg width="100%" height="100%" viewBox="0 0 175 125" fill="none" xmlns="http://www.w3.org/2000/svg">
<mask id="mask0_1980_540" style="mask-type:alpha" maskUnits="userSpaceOnUse" x="0" y="0" width="175" height="125">
<rect width="175" height="125" fill="#EE0000"/>
</mask>
<g mask="url(#mask0_1980_540)">
<path d="M70.0073 111.916L70.3331 113.545H67.2376C63.925 113.545 56.6479 114.359 51.9776 115.283C49.3165 115.771 48.9364 116.043 47.3072 118.595C45.1893 121.962 43.8859 125.384 40.9534 135.539C37.6407 146.835 36.1201 154.981 36.1201 161.389C36.1201 162.692 35.7399 165.733 35.3055 168.123C34.5452 172.141 34.2194 173.771 33.1332 178.495C32.8074 180.016 32.9703 180.287 34.871 181.482C36.7718 182.677 37.3691 182.786 43.4514 182.623C47.9589 182.514 50.2941 182.242 51.1087 181.699C52.2491 180.939 52.3577 180.993 52.6835 182.514C53.0637 184.252 54.9644 186.098 57.8426 187.51C72.2338 194.407 79.9996 196.579 87.9827 195.873C93.359 195.33 96.6717 194.298 100.962 191.692C102.971 190.497 105.795 189.085 107.207 188.651C108.565 188.162 110.194 187.456 110.791 187.021C111.389 186.641 112.638 186.315 113.615 186.315C115.896 186.315 119.535 184.632 121.761 182.514C124.314 180.124 128.169 173.445 127.518 172.576C127.192 172.25 126.649 170.349 126.323 168.394C125.671 165.027 124.911 162.04 123.282 156.175C122.847 154.655 121.761 150.419 120.838 146.672C119.915 142.925 118.557 138.146 117.851 136.028C117.091 133.91 116.222 130.814 115.896 129.239C115.57 127.61 114.701 124.298 113.995 121.908C111.226 112.622 108.402 110.992 96.1287 111.59C92.2729 111.753 88.2542 112.079 87.331 112.241C85.7561 112.513 85.5389 112.459 85.5389 111.427C85.5389 110.303 84.5056 109.98 83.8465 110.423C83.55 110.622 83.3292 110.976 83.3123 111.481C83.2037 113.273 83.421 114.305 83.9097 114.631C84.1269 114.794 84.5071 115.5 84.7243 116.152C84.9415 116.858 86.082 118.432 87.2767 119.627C88.4715 120.822 89.286 121.908 89.0688 122.125C88.6887 122.505 83.421 123.157 77.1214 123.592C74.2432 123.809 71.8537 123.646 70.1159 123.157C67.1833 122.397 66.3687 121.419 68.1066 120.876C71.4435 119.839 73.4325 112.638 71.897 110.423C75.4097 110.146 82.7947 110.534 83.8465 110.423C83.9848 110.408 84.0136 110.395 83.9097 110.383C82.7426 110.252 70.8508 110.286 70.496 110.286C69.8444 110.286 69.7357 110.667 70.0073 111.916ZM107.424 114.631C109.977 116.314 111.715 119.844 113.289 126.307C113.941 128.968 115.353 134.236 116.494 137.983C117.634 141.73 118.883 146.129 119.263 147.758C119.589 149.387 120.621 153.297 121.49 156.338C122.359 159.434 123.662 164.593 124.368 167.743L125.617 173.553L123.662 176.975C122.141 179.581 120.892 180.939 118.449 182.568C114.321 185.338 112.964 185.338 112.475 182.623C111.552 177.572 110.954 173.119 110.52 167.851C109.868 160.466 108.999 153.786 108.565 152.211C108.239 151.071 108.348 151.016 109.76 151.342C110.628 151.559 111.497 151.939 111.66 152.211C112.149 152.971 112.746 151.179 112.366 150.202C111.986 149.278 111.063 149.116 111.063 149.93C111.063 150.202 110.466 150.473 109.705 150.473C108.673 150.473 108.293 150.093 108.022 148.953C107.859 148.138 107.479 146.617 107.207 145.586C105.306 137.874 104.6 130.76 105.632 130.108C106.338 129.674 106.338 128.208 105.578 128.208C105.252 128.208 104.383 128.696 103.623 129.294C102.863 129.891 101.777 130.38 101.233 130.38C100.636 130.38 100.202 130.76 100.202 131.194C100.202 131.737 100.745 132.009 101.831 132.009C103.351 132.009 103.46 132.172 103.46 134.018C103.46 136.082 104.166 139.938 106.175 149.387C107.37 154.926 108.076 159.977 108.891 168.937C109.162 172.087 109.542 175.78 109.76 177.192C110.085 179.419 109.977 179.799 109.216 179.799C108.728 179.799 107.37 180.287 106.284 180.83C105.035 181.428 103.677 181.754 102.754 181.591C101.668 181.374 101.288 181.536 101.288 182.188C101.288 182.677 101.451 183.003 101.722 182.948C101.939 182.948 102.537 183.057 103.026 183.274C103.623 183.546 104.818 183.166 106.338 182.297C109.325 180.505 110.303 180.505 110.737 182.297C111.226 184.089 111.009 184.252 107.261 185.827C105.632 186.478 103.786 187.456 103.188 187.945C100.908 189.845 96.3459 192.289 93.359 193.158C88.5801 194.516 79.0221 194.027 73.32 192.072C66.8575 189.845 56.7022 185.066 55.4532 183.654C53.2266 181.156 52.7378 162.475 54.5843 148.301C55.1816 143.685 55.6704 138.363 55.6704 136.516C55.6704 134.67 55.9419 132.987 56.2135 132.824C56.5393 132.606 57.6254 132.987 58.6572 133.638C59.7434 134.29 60.9381 134.67 61.4269 134.507C62.4587 134.127 61.9156 133.095 60.6123 133.095C60.1235 133.095 59.0917 132.552 58.3857 131.9C57.6797 131.194 56.8108 130.651 56.485 130.651C56.2135 130.651 55.3445 130.434 54.6386 130.163C53.0094 129.565 51.6517 130.706 53.118 131.52C54.3127 132.226 54.3127 133.91 53.1723 143.793C52.4663 149.604 52.0862 151.559 51.4888 151.559C51.1087 151.559 50.5113 150.908 50.1854 150.147C49.5881 148.464 49.3165 148.627 48.6106 150.962C48.2304 152.374 48.2847 152.645 48.7735 152.157C49.1536 151.885 50.0225 151.777 50.7285 151.939L51.9776 152.265L51.6517 165.896C51.4888 173.39 51.3802 179.581 51.3259 179.581C51.163 180.179 47.4701 180.83 44.266 180.939C38.0751 181.048 37.4234 180.939 36.1744 179.907L35.034 178.984L36.3373 172.739C37.0433 169.318 37.9122 163.29 38.2923 159.434C39.0526 150.31 39.5957 147.106 41.6593 140.155C46.7641 122.56 48.339 118.867 51.2173 117.835C52.0319 117.564 53.1723 117.075 53.7697 116.803C54.367 116.532 56.8108 116.152 59.2003 115.989L63.5448 115.608L63.3819 118.324C63.1104 121.854 64.5766 123.592 68.7039 124.678C74.2975 126.144 88.5258 125.058 91.3497 122.94C93.1961 121.636 93.6306 118.269 92.3815 115.771C91.8928 114.902 91.5126 114.034 91.5126 113.871C91.5126 113.273 93.7392 113.11 99.387 113.165C104.763 113.273 105.578 113.382 107.424 114.631ZM90.3179 116.206C91.7298 118.65 91.8385 119.519 90.698 119.519C89.6119 119.519 87.7655 117.944 86.8423 116.152C85.8104 114.197 85.8647 114.088 87.6026 114.088C88.7973 114.088 89.3947 114.522 90.3179 116.206ZM70.3331 115.717C70.3331 117.129 68.9211 118.975 67.4549 119.519C65.3369 120.225 65.4455 120.279 65.4455 118.65C65.4455 116.26 66.3687 115.174 68.4324 115.174C69.4642 115.174 70.3331 115.391 70.3331 115.717Z" fill="black"/>
<path d="M107.424 114.631C109.977 116.314 111.715 119.844 113.289 126.307C113.941 128.968 115.353 134.236 116.494 137.983C117.634 141.73 118.883 146.129 119.263 147.758C119.589 149.387 120.621 153.297 121.49 156.338C122.359 159.434 123.662 164.593 124.368 167.743L125.617 173.553L123.662 176.975C122.141 179.581 120.892 180.939 118.449 182.568C114.321 185.338 112.964 185.338 112.475 182.623C111.552 177.572 110.954 173.119 110.52 167.851C109.868 160.466 108.999 153.786 108.565 152.211C108.239 151.071 108.348 151.016 109.76 151.342C110.628 151.559 111.497 151.939 111.66 152.211C112.149 152.971 112.746 151.179 112.366 150.202C111.986 149.278 111.063 149.116 111.063 149.93C111.063 150.202 110.466 150.473 109.705 150.473C108.673 150.473 108.293 150.093 108.022 148.953C107.859 148.138 107.479 146.617 107.207 145.586C105.306 137.874 104.6 130.76 105.632 130.108C106.338 129.674 106.338 128.208 105.578 128.208C105.252 128.208 104.383 128.696 103.623 129.294C102.863 129.891 101.777 130.38 101.233 130.38C100.636 130.38 100.202 130.76 100.202 131.194C100.202 131.737 100.745 132.009 101.831 132.009C103.351 132.009 103.46 132.172 103.46 134.018C103.46 136.082 104.166 139.938 106.175 149.387C107.37 154.926 108.076 159.977 108.891 168.937C109.162 172.087 109.542 175.78 109.76 177.192C110.085 179.419 109.977 179.799 109.216 179.799C108.728 179.799 107.37 180.287 106.284 180.83C105.035 181.428 103.677 181.754 102.754 181.591C101.668 181.374 101.288 181.536 101.288 182.188C101.288 182.677 101.451 183.003 101.722 182.948C101.939 182.948 102.537 183.057 103.026 183.274C103.623 183.546 104.818 183.166 106.338 182.297C109.325 180.505 110.303 180.505 110.737 182.297C111.226 184.089 111.009 184.252 107.261 185.827C105.632 186.478 103.786 187.456 103.188 187.945C100.908 189.845 96.3459 192.289 93.359 193.158C88.5801 194.516 79.0221 194.027 73.32 192.072C66.8575 189.845 56.7022 185.066 55.4532 183.654C53.2266 181.156 52.7378 162.475 54.5843 148.301C55.1816 143.685 55.6704 138.363 55.6704 136.516C55.6704 134.67 55.9419 132.987 56.2135 132.824C56.5393 132.606 57.6254 132.987 58.6572 133.638C59.7434 134.29 60.9381 134.67 61.4269 134.507C62.4587 134.127 61.9156 133.095 60.6123 133.095C60.1235 133.095 59.0917 132.552 58.3857 131.9C57.6797 131.194 56.8108 130.651 56.485 130.651C56.2135 130.651 55.3445 130.434 54.6386 130.163C53.0094 129.565 51.6517 130.706 53.118 131.52C54.3127 132.226 54.3127 133.91 53.1723 143.793C52.4663 149.604 52.0862 151.559 51.4888 151.559C51.1087 151.559 50.5113 150.908 50.1854 150.147C49.5881 148.464 49.3165 148.627 48.6106 150.962C48.2304 152.374 48.2847 152.645 48.7735 152.157C49.1536 151.885 50.0225 151.777 50.7285 151.939L51.9776 152.265L51.6517 165.896C51.4888 173.39 51.3802 179.581 51.3259 179.581C51.163 180.179 47.4701 180.83 44.266 180.939C38.0751 181.048 37.4234 180.939 36.1744 179.907L35.034 178.984L36.3373 172.739C37.0433 169.318 37.9122 163.29 38.2923 159.434C39.0526 150.31 39.5957 147.106 41.6593 140.155C46.7641 122.56 48.339 118.867 51.2173 117.835C52.0319 117.564 53.1723 117.075 53.7697 116.803C54.367 116.532 56.8108 116.152 59.2003 115.989L63.5448 115.608L63.3819 118.324C63.1104 121.854 64.5766 123.592 68.7039 124.678C74.2975 126.144 88.5258 125.058 91.3497 122.94C93.1961 121.636 93.6306 118.269 92.3815 115.771C91.8928 114.902 91.5126 114.034 91.5126 113.871C91.5126 113.273 93.7392 113.11 99.387 113.165C104.763 113.273 105.578 113.382 107.424 114.631Z" fill="#204EE4"/>
<path d="M70.3331 115.717C70.3331 117.129 68.9211 118.975 67.4549 119.519C65.3369 120.225 65.4455 120.279 65.4455 118.65C65.4455 116.26 66.3687 115.174 68.4324 115.174C69.4642 115.174 70.3331 115.391 70.3331 115.717Z" fill="#1C4AAE"/>
<path d="M90.3179 116.206C91.7298 118.65 91.8385 119.519 90.698 119.519C89.6119 119.519 87.7655 117.944 86.8423 116.152C85.8104 114.197 85.8647 114.088 87.6026 114.088C88.7973 114.088 89.3947 114.522 90.3179 116.206Z" fill="#1C4AAE"/>
<path d="M83.8465 110.423C83.55 110.622 83.3292 110.976 83.3123 111.481C83.2037 113.273 83.421 114.305 83.9097 114.631C84.1269 114.794 84.5071 115.5 84.7243 116.152C84.9415 116.858 86.082 118.432 87.2767 119.627C88.4715 120.822 89.286 121.908 89.0688 122.125C88.6887 122.505 83.421 123.157 77.1214 123.592C74.2432 123.809 71.8537 123.646 70.1159 123.157C67.1833 122.397 66.3687 121.419 68.1066 120.876C71.4435 119.839 73.4325 112.638 71.897 110.423C75.4097 110.146 82.7947 110.534 83.8465 110.423Z" fill="white"/>
<path d="M72.2758 31.8489L64.2747 35.1125L56.9229 39.3236L52.8873 42.4292L49.1851 46.149L46.2549 50.1846L44.2897 54.0447L42.9387 58.3435L42.2544 63.5723L42.3772 67.4324L43.2194 74.3982L44.1494 80.8727L46.0444 89.7861L49.1676 97.524L52.6592 102.121L57.7476 106.701L62.8711 111.034L66.4856 113.544L73.6444 115.421L81.4875 114.719L88.4006 112.561L94.8576 109.455L98.1914 107.087L102.683 103.472L106.473 99.647L110.281 94.6113L113.106 89.365L114.457 85.6628L116.071 81.2061L118.948 75.6791L120.966 70.9592L123.124 64.4496L124.16 57.6768L123.703 54.0447L122.177 48.6756L119.826 43.7627L116.685 39.4815L110.842 34.4984L103.631 31.0594L95.3489 29.217L88.4182 28.8661L80.6102 29.6381L72.2758 31.8489Z" fill="white"/>
<path d="M112.246 91.2073L114.545 85.3645L115.983 81.3464L119.3 74.8719L122.3 67.2218L123.879 60.8877L124.16 55.8695L122.809 50.4828L119.826 43.7627L117.756 40.7798L113.597 36.5161L106.438 32.1472L98.6128 29.7434L91.3838 28.7783L93.4191 23.2864L96.4722 18.584L99.1567 17.0049H102.806L106.754 18.9876L107.667 19.7245L111.404 18.584H114.527L118.58 19.3912L121.458 21.251L123.388 23.7777H126.072L131.319 24.655L135.021 26.4973L137.688 28.8485L140.829 33.0947L142.443 36.5161L148.11 38.0427L151.444 40.4465L154.427 44.9734L155.304 47.5351L155.603 48.7458L163.586 49.9565L167.271 51.7988L170.464 55.4484L171.113 59.1506L170.131 62.8528L167.639 65.2216L162.796 66.6954H161.13L159.147 71.6961L156.252 74.8193L150.619 77.4687H144.531L141.355 76.9248L138.828 81.8377L134.512 84.7679L128.564 86.5927L127.406 87.0138L124.528 90.8564L121.914 92.6286L117.966 93.19L114.738 92.5584L112.246 91.2073Z" fill="#BF2231"/>
<path d="M46.2555 91.5232H42.992L39.395 89.716L37.0789 86.9437L35.0962 85.1891L30.8501 84.0837L25.8845 80.8727L23.7614 78.0829L22.2349 74.2403L18.3046 74.3982L14.3918 72.6085L11.4967 68.8887L9.91757 64.4496V61.8001L7.67167 60.8175L5.84688 57.7821L5.68896 55.0975L6.98738 52.3428L9.91757 49.5354L15.5148 46.3596L16.0763 41.0782L17.9888 38.0427L21.0944 35.3406L26.5864 32.9543L28.2006 32.6034L28.1129 30.147L30.1658 25.9885L35.0962 22.7951L39.3424 22.339L43.7991 22.7951L45.9923 19.6895L48.133 17.8647L51.5194 16.5663L54.7829 16.7944L58.4676 18.163L63.4858 17.0049L67.9776 17.4436L72.136 20.1983L73.9433 23.2689L75.1013 28.2871L75.1715 30.919L62.3453 36.0951L55.9585 40.0079L49.6595 45.6051L45.6239 51.2374L42.9393 58.3435L42.255 63.5723L42.3778 67.4324L43.0095 72.9244L44.0623 80.3814L45.3256 86.9437L46.2555 91.5232Z" fill="#BF2231"/>
<path d="M72.6973 93.1725C78.2887 93.1725 82.8214 88.6398 82.8214 83.0484C82.8214 77.457 78.2887 72.9243 72.6973 72.9243C67.106 72.9243 62.5732 77.457 62.5732 83.0484C62.5732 88.6398 67.106 93.1725 72.6973 93.1725Z" fill="#ED0022"/>
<path d="M48.3257 83.0485L49.6767 86.9437L51.7296 91.5232L54.5721 96.3659L58.1339 100.945L62.345 104.718L68.9599 108.28L77.2066 109.455L83.646 108.28L89.1379 106.051L93.3665 102.928L96.595 99.6471L98.7532 96.9099L103.175 89.2949L105.105 84.6452L105.544 83.3643L101.473 85.6453L99.1216 87.8912L96.4195 89.5581L90.6118 92.8918L85.3304 95.4886L80.5579 96.9274L76.9083 97.6117L73.8202 97.6819L70.5566 97.0327L68.1352 96.752L64.4505 95.2605L59.5727 91.9794L55.7652 88.8738L48.3257 83.0485Z" fill="#232323"/>
<path d="M61.6787 104.262L64.0474 102.911L68.8902 102.121L72.3818 103.191L74.9436 104.876L76.2069 104.946L78.3826 103.612L83.2078 102.56L85.6642 103.647L87.5768 105.192L88.4014 106.157L85.0852 107.999L77.5228 109.49L73.382 109.052L68.9603 108.28L64.0825 105.946L61.6787 104.262Z" fill="#E04848"/>
<path d="M75.2589 116C70.3285 116 66.0648 114.614 62.9415 111.877C61.2571 110.403 59.7131 109.104 58.3445 107.964C48.4309 99.6997 45.0796 96.9098 41.8862 68.3799C39.2894 45.3068 60.7307 34.9019 73.7324 30.7435C80.9438 28.445 88.5413 27.7256 95.7177 28.6731C118.791 31.7085 123.616 48.6932 124.616 55.852C125.757 64.046 118.563 78.1706 116.58 81.4868C116.054 82.3641 115.668 83.3291 115.404 84.3819C111.667 99.5944 97.0863 110.578 85.1198 114.351C81.6457 115.439 78.3295 115.982 75.2589 115.982V116ZM89.4888 29.4451C84.3653 29.4451 79.1366 30.2698 74.1009 31.8664C61.4326 35.902 40.5527 46.0086 43.0443 68.2571C46.185 96.3133 49.1854 98.8048 59.099 107.069C60.4676 108.21 62.0292 109.525 63.7311 110.999C68.4686 115.158 76.1538 115.982 84.7864 113.263C96.4546 109.578 110.649 98.8925 114.281 84.1363C114.562 82.9782 115.001 81.8904 115.58 80.9253C118.457 76.1002 124.458 63.1161 123.458 56.045C122.493 49.1494 117.843 32.7788 95.5597 29.8662C93.5595 29.603 91.5241 29.4802 89.4712 29.4802L89.4888 29.4451Z" fill="#1D1D1B"/>
<path d="M72.6973 93.7691C66.8018 93.7691 61.9941 88.9615 61.9941 83.0484C61.9941 77.1354 66.8018 72.3278 72.6973 72.3278C78.5928 72.3278 83.4004 77.1354 83.4004 83.0484C83.4004 88.9615 78.5928 93.7691 72.6973 93.7691ZM72.6973 73.5033C67.4334 73.5033 63.1697 77.7846 63.1697 83.0484C63.1697 88.3123 67.451 92.5935 72.6973 92.5935C77.9435 92.5935 82.2248 88.3123 82.2248 83.0484C82.2248 77.7846 77.9435 73.5033 72.6973 73.5033Z" fill="#1D1D1B"/>
<path d="M76.5921 110.087C55.6245 110.087 48.3429 85.347 47.5884 82.5221C47.5182 82.2414 47.6411 81.9606 47.8867 81.8203C48.1324 81.6799 48.4482 81.7325 48.6412 81.9256C50.0449 83.3994 62.643 96.4011 73.7497 97.3837C85.102 98.3838 104.438 83.1187 105.262 82.4695C105.473 82.294 105.771 82.294 105.999 82.4344C106.227 82.5923 106.333 82.873 106.245 83.1362C105.877 84.382 103.789 90.9267 99.1915 97.3135C93.1732 105.665 85.3652 110.087 76.6097 110.087H76.5921ZM49.3255 84.3118C51.5188 90.8565 59.1162 108.929 76.5746 108.929C85.0669 108.929 92.3485 104.788 98.2089 96.6292C101.613 91.9093 103.631 87.0139 104.526 84.4873C99.5073 88.2948 83.8211 99.4541 73.6093 98.5592C63.9589 97.717 53.3611 88.2597 49.3255 84.3118Z" fill="#1D1D1B"/>
<path d="M89.3136 60.1333C89.0328 59.5893 89.1907 58.905 89.6996 58.5366C90.9629 57.6066 93.5773 56.1152 96.8759 56.3258C100.175 56.5363 102.42 59.3963 103.438 61.0632C103.824 61.6773 103.596 62.4844 102.964 62.8354L102.859 62.888C102.298 63.1863 101.578 63.0284 101.21 62.4844C100.876 61.9932 100.368 61.3264 99.6482 60.5193C97.8936 58.5892 95.7881 58.5541 93.3316 59.5543C92.5596 59.8701 91.9104 60.1333 91.0857 60.6246C90.4716 61.0106 89.6469 60.7649 89.3136 60.1157V60.1333Z" fill="#1D1D1B"/>
<path d="M53.0981 57.7821C52.7647 57.2557 52.8525 56.5714 53.3262 56.1678C54.5018 55.1326 56.9407 53.378 60.2569 53.2727C63.5731 53.1675 66.0822 55.7818 67.2578 57.3434C67.6965 57.9225 67.5561 58.7471 66.9595 59.1507L66.8543 59.2209C66.3103 59.5893 65.5909 59.4841 65.1874 58.9928C64.8014 58.5366 64.2399 57.9225 63.4328 57.1855C61.5027 55.4485 59.4147 55.6064 57.046 56.8346C56.3091 57.2206 55.6949 57.5364 54.9229 58.133C54.3439 58.5717 53.5017 58.4137 53.1157 57.7996L53.0981 57.7821Z" fill="#1D1D1B"/>
<path d="M79.3648 43.6223L78.9788 43.2363C75.259 39.5165 70.9777 43.1135 70.8023 43.2714C70.5566 43.4819 70.1882 43.4468 69.9776 43.2012C69.7671 42.9555 69.8021 42.5871 70.0478 42.3765C70.1004 42.3414 75.0484 38.183 79.4174 42.0431C80.4 41.2887 83.0319 39.5516 85.8393 39.8499C87.5413 40.0253 89.0151 40.9026 90.2083 42.4642C90.4013 42.7274 90.3486 43.0784 90.103 43.2889C89.8398 43.4819 89.4889 43.4293 89.2783 43.1836C88.2957 41.8852 87.1026 41.1658 85.734 41.0255C82.7336 40.7272 79.8034 43.2538 79.7859 43.2714L79.3823 43.6223H79.3648Z" fill="#1D1D1B"/>
<path d="M80.2066 48.1491L79.8206 47.7631C76.1008 44.0434 71.8195 47.6403 71.6441 47.7982C71.3984 48.0088 71.03 47.9737 70.8194 47.728C70.6089 47.4824 70.6439 47.1139 70.8896 46.9034C70.9422 46.8507 75.8902 42.7099 80.2592 46.57C81.2418 45.8155 83.8737 44.096 86.6811 44.3767C88.383 44.5522 89.8569 45.4295 91.0501 46.9911C91.2431 47.2543 91.1904 47.6052 90.9448 47.8158C90.6816 48.0088 90.3307 47.9561 90.1201 47.7105C89.1375 46.4121 87.9444 45.6927 86.5758 45.5523C83.593 45.254 80.6452 47.7807 80.6277 47.7982L80.2241 48.1491H80.2066Z" fill="#1D1D1B"/>
<path d="M118.546 93.9445C114.896 93.9445 112.036 91.7864 111.896 91.6811C111.633 91.4881 111.597 91.1196 111.79 90.8564C111.983 90.5932 112.352 90.5581 112.615 90.7511C112.65 90.7862 116.545 93.6989 120.739 92.4707C124.038 91.5056 126.687 88.2596 128.617 82.8729C128.722 82.5747 129.056 82.4167 129.354 82.522C129.652 82.6273 129.81 82.9607 129.705 83.259C127.635 89.0316 124.722 92.5058 121.037 93.5936C120.177 93.8393 119.335 93.9445 118.528 93.9445H118.546Z" fill="#1D1D1B"/>
<path d="M127.582 87.2595C127.266 87.2595 127.003 86.9963 127.003 86.6804C127.003 86.3646 127.249 86.1014 127.582 86.0839C127.635 86.0839 133.688 85.926 137.846 81.5921C140.619 78.7145 141.97 74.6438 141.864 69.5028C141.864 69.187 142.11 68.9062 142.444 68.9062C142.759 68.9062 143.023 69.1519 143.023 69.4853C143.128 74.9421 141.671 79.2935 138.671 82.4167C134.162 87.1016 127.863 87.2595 127.6 87.2595H127.582Z" fill="#1D1D1B"/>
<path d="M146.935 78.0478C145.181 78.0478 143.286 77.8723 141.268 77.5038C140.952 77.4512 140.742 77.1354 140.794 76.8195C140.847 76.5037 141.163 76.2932 141.478 76.3458C148.286 77.574 153.445 76.6616 156.779 73.6437C161.428 69.4326 160.937 62.4318 160.937 62.3616C160.92 62.0457 161.148 61.765 161.463 61.7299C161.797 61.6948 162.06 61.9405 162.095 62.2563C162.113 62.5721 162.639 69.8888 157.568 74.4859C154.971 76.8371 151.41 78.0127 146.953 78.0127L146.935 78.0478Z" fill="#1D1D1B"/>
<path d="M161.516 67.2921C161.288 67.2921 161.147 67.2921 161.112 67.2921C160.796 67.2921 160.551 66.9938 160.568 66.6779C160.568 66.3621 160.866 66.1165 161.182 66.134C161.235 66.134 166.376 66.3621 168.99 63.467C170.306 62.0107 170.798 59.9578 170.412 57.3961C169.043 48.0615 150.865 49.3249 150.672 49.3424C150.356 49.3599 150.076 49.1319 150.04 48.7985C150.023 48.4826 150.251 48.2019 150.584 48.1668C151.374 48.1142 170.025 46.8158 171.552 57.2206C171.973 60.1508 171.394 62.502 169.832 64.239C167.271 67.064 162.867 67.2921 161.516 67.2921Z" fill="#1D1D1B"/>
<path d="M155.602 49.3248C155.339 49.3248 155.093 49.1318 155.041 48.8686C154.041 44.3417 151.97 41.0782 148.882 39.1306C143.917 36.0073 137.898 37.411 137.846 37.4286C137.53 37.4988 137.214 37.3058 137.144 36.9899C137.074 36.6741 137.267 36.3583 137.565 36.2881C137.828 36.2179 144.092 34.7616 149.496 38.1304C152.865 40.236 155.129 43.7627 156.181 48.6054C156.252 48.9213 156.059 49.2371 155.743 49.3073C155.708 49.3073 155.655 49.3073 155.62 49.3073L155.602 49.3248Z" fill="#1D1D1B"/>
<path d="M142.443 37.0952C142.215 37.0952 141.987 36.9548 141.899 36.7267C139.653 31.0944 136.337 27.3396 132.056 25.5499C125.722 22.9004 119.353 25.5499 119.3 25.5499C119.002 25.6727 118.668 25.5499 118.545 25.234C118.423 24.9357 118.545 24.6024 118.861 24.462C119.142 24.3392 125.722 21.6195 132.512 24.4445C137.092 26.357 140.636 30.3399 143.005 36.2705C143.128 36.5688 142.987 36.9022 142.689 37.025C142.619 37.0601 142.549 37.0601 142.478 37.0601L142.443 37.0952Z" fill="#1D1D1B"/>
<path d="M123.476 24.5147C123.265 24.5147 123.072 24.4094 122.967 24.1988C117.949 14.8292 104.982 21.409 104.859 21.4616C104.579 21.602 104.228 21.4967 104.07 21.216C103.929 20.9352 104.035 20.5843 104.315 20.4264C104.456 20.3562 118.44 13.2676 123.985 23.6373C124.142 23.9181 124.037 24.269 123.739 24.4269C123.651 24.4796 123.563 24.4971 123.458 24.4971L123.476 24.5147Z" fill="#1D1D1B"/>
<path d="M91.3844 29.3749C91.3844 29.3749 91.2967 29.3749 91.2441 29.3749C90.9282 29.3047 90.7352 28.9889 90.8054 28.673C90.9107 28.2519 93.2443 18.5138 99.1223 16.5662C101.842 15.6714 104.842 16.5838 108.036 19.2859C108.281 19.4964 108.316 19.8649 108.106 20.1105C107.895 20.3562 107.527 20.3913 107.281 20.1807C104.421 17.7594 101.807 16.8996 99.4907 17.6716C94.2093 19.4087 91.9634 28.8485 91.9459 28.9362C91.8757 29.1994 91.6476 29.3924 91.3844 29.3924V29.3749Z" fill="#1D1D1B"/>
<path d="M44.5708 92.2602C36.868 92.2602 34.5695 82.4519 34.5344 82.3466C34.4642 82.0308 34.6572 81.7149 34.9731 81.6448C35.2889 81.5746 35.6047 81.7676 35.6749 82.0834C35.7626 82.5045 38.1138 92.4005 46.1499 90.9266C46.4658 90.874 46.764 91.0846 46.8342 91.4004C46.8869 91.7162 46.6763 92.0145 46.3605 92.0847C45.7288 92.19 45.1498 92.2426 44.5708 92.2426V92.2602Z" fill="#1D1D1B"/>
<path d="M36.2193 85.926C36.2193 85.926 36.1842 85.926 36.1667 85.926C20.9542 84.3819 21.1823 70.8363 21.1823 70.696C21.1823 70.3801 21.4631 70.117 21.7789 70.1345C22.0947 70.1345 22.3579 70.4152 22.3404 70.7311C22.3404 71.2399 22.1649 83.3292 36.272 84.7679C36.5878 84.803 36.8334 85.0838 36.7984 85.3996C36.7633 85.6979 36.5176 85.926 36.2193 85.926Z" fill="#1D1D1B"/>
<path d="M20.1815 74.9772C17.4268 74.9772 15.1458 74.1525 13.3561 72.5032C8.91692 68.3974 9.32048 60.7473 9.33802 60.4315C9.35557 60.1156 9.61876 59.8525 9.95214 59.8875C10.268 59.9051 10.5136 60.1858 10.4961 60.5017C10.4961 60.5718 10.1276 67.9412 14.1457 71.661C16.0933 73.4682 18.7778 74.135 22.1467 73.6788C22.4625 73.6437 22.7608 73.8542 22.7959 74.1701C22.831 74.4859 22.6204 74.7842 22.3046 74.8193C21.5677 74.9245 20.8483 74.9772 20.1815 74.9772Z" fill="#1D1D1B"/>
<path d="M9.89995 63.4669C9.77712 63.4669 9.6543 63.4319 9.54903 63.3441C6.12754 60.6771 4.63612 57.9399 5.07477 55.1852C6.09244 48.9914 16.7429 45.219 17.1991 45.0611C17.4974 44.9558 17.8308 45.1137 17.9361 45.412C18.0413 45.7103 17.8834 46.0437 17.5851 46.1489C17.4799 46.184 7.12766 49.8512 6.23281 55.3606C5.86434 57.6592 7.21539 60.0279 10.2684 62.3966C10.5141 62.5896 10.5667 62.9581 10.3737 63.2213C10.2509 63.3617 10.093 63.4494 9.91749 63.4494L9.89995 63.4669Z" fill="#1D1D1B"/>
<path d="M15.5146 46.9386C15.1987 46.9386 14.9531 46.6929 14.9355 46.3771C14.7601 42.552 15.8304 39.3937 18.1289 36.9724C22.726 32.1297 30.5165 32.0068 30.8498 32.0068C31.1657 32.0068 31.4289 32.27 31.4289 32.5859C31.4289 32.9017 31.1657 33.1649 30.8498 33.1824C30.7797 33.1824 23.2173 33.3052 18.9711 37.797C16.9182 39.9728 15.9532 42.8503 16.0936 46.342C16.0936 46.6578 15.8655 46.9386 15.5321 46.9561C15.5321 46.9561 15.5146 46.9561 15.497 46.9561L15.5146 46.9386Z" fill="#1D1D1B"/>
<path d="M27.639 33.5333C27.639 33.5333 27.6039 33.5333 27.5864 33.5333C27.2705 33.4982 27.0249 33.2175 27.06 32.9016C27.4635 28.5327 29.148 25.3919 32.0606 23.5671C38.307 19.6543 47.9047 23.2337 48.3083 23.3916C48.6066 23.5145 48.7645 23.8478 48.6417 24.1461C48.5189 24.4444 48.1855 24.6023 47.8872 24.4795C47.7995 24.4444 38.4123 20.9527 32.6572 24.5497C30.0779 26.1639 28.5689 29.0064 28.2005 32.9894C28.1654 33.2877 27.9197 33.5157 27.6215 33.5157L27.639 33.5333Z" fill="#1D1D1B"/>
<path d="M43.7993 23.3742C43.7115 23.3742 43.6063 23.3566 43.5185 23.304C43.2378 23.1461 43.1325 22.7951 43.2904 22.5144C45.2907 18.8823 47.8524 16.7417 50.9405 16.1627C56.2219 15.1626 61.0295 19.0929 61.2225 19.2684C61.4682 19.4789 61.5033 19.8474 61.2927 20.093C61.0822 20.3387 60.7137 20.3738 60.4681 20.1632C60.4154 20.1281 55.871 16.4084 51.1335 17.3032C48.4139 17.8296 46.1153 19.7597 44.2906 23.0759C44.1853 23.2689 43.9923 23.3742 43.7817 23.3742H43.7993Z" fill="#1D1D1B"/>
<path d="M75.1716 31.498C75.1716 31.498 75.154 31.498 75.1365 31.498C74.8207 31.4804 74.575 31.1997 74.5926 30.8839C74.5926 30.7961 75.0137 22.8653 70.399 19.321C67.6794 17.233 63.7315 17.0225 58.6432 18.7244C58.3449 18.8297 58.0115 18.6542 57.9062 18.356C57.801 18.0577 57.9764 17.7243 58.2747 17.619C63.7491 15.7942 68.0654 16.075 71.1009 18.4086C76.2068 22.3389 75.7682 30.6207 75.7506 30.9716C75.7331 31.2874 75.4699 31.5155 75.1716 31.5155V31.498Z" fill="#1D1D1B"/>
<path d="M88.1029 106.736C86.6466 104.753 84.9447 103.595 83.0672 103.332C80.2248 102.911 77.5928 104.63 76.5927 105.402C75.9961 105.858 75.1539 105.841 74.5574 105.35C68.0478 99.9103 62.2926 104.542 62.047 104.735L61.3101 103.841C61.3101 103.841 68.0302 98.3837 75.3118 104.455C75.4873 104.595 75.7154 104.613 75.8909 104.472C77.277 103.419 80.0668 101.735 83.2251 102.191C85.4184 102.507 87.366 103.805 89.0329 106.069L88.1029 106.753V106.736Z" fill="#1D1D1B"/>
<path d="M106.842 83.4169C105.597 83.4169 104.175 82.908 103.456 81.0833C103.333 80.785 103.491 80.4516 103.789 80.3288C104.088 80.2059 104.421 80.3639 104.544 80.6622C105.421 82.8905 107.72 82.1536 107.965 82.0483C108.264 81.943 108.597 82.1009 108.702 82.3992C108.808 82.6975 108.65 83.0309 108.351 83.1362C107.948 83.2765 107.404 83.3993 106.825 83.3993L106.842 83.4169Z" fill="#1D1D1B"/>
<path d="M47.3783 82.908C46.7818 82.908 46.2378 82.7852 45.8518 82.6448C45.5535 82.5396 45.3956 82.2062 45.5009 81.8904C45.6062 81.5921 45.9396 81.4342 46.2378 81.5394C46.501 81.6272 48.7996 82.3816 49.6593 80.1533C49.7822 79.855 50.1155 79.7146 50.4138 79.8199C50.7121 79.9427 50.8525 80.2761 50.7472 80.5744C50.0453 82.3816 48.6066 82.908 47.3608 82.908H47.3783Z" fill="#1D1D1B"/>
<path d="M63.8193 72.8366C63.3281 72.8366 62.8719 72.5207 62.7139 72.0295C61.0295 66.713 59.5907 66.2743 59.2047 66.2743C57.9414 66.2743 56.1868 69.2572 55.3972 71.4329C55.1691 72.0295 54.5024 72.3453 53.9058 72.1347C53.3092 71.9066 52.9934 71.2399 53.204 70.6433C53.6075 69.5204 55.8008 63.9583 59.2047 63.9583C59.2223 63.9583 59.2398 63.9583 59.2574 63.9583C61.5559 64.0109 63.3631 66.3445 64.9423 71.3452C65.1353 71.9593 64.8019 72.6085 64.1878 72.8015C64.065 72.8366 63.9597 72.8541 63.8369 72.8541L63.8193 72.8366Z" fill="#1D1D1B"/>
<path d="M100.263 74.5912C99.7712 74.5912 99.2975 74.2754 99.1571 73.7666C97.5078 68.4501 96.0865 67.9939 95.683 67.9764H95.6654C94.4021 67.9764 92.6124 70.9416 91.8228 73.0998C91.5947 73.6964 90.928 74.0122 90.3314 73.7841C89.7349 73.556 89.419 72.8893 89.6471 72.2927C90.0682 71.1698 92.279 65.6603 95.683 65.6603C95.7181 65.6603 95.7356 65.6603 95.7707 65.6603C98.0692 65.7305 99.8589 68.0816 101.403 73.0823C101.596 73.6964 101.245 74.3456 100.631 74.5386C100.508 74.5737 100.403 74.5912 100.28 74.5912H100.263Z" fill="#1D1D1B"/>
</g>
</svg>
