<svg width="176" height="230" viewBox="0 0 176 230" fill="none" xmlns="http://www.w3.org/2000/svg">
    <path d="M52.1758 144L40.6758 128C36.6758 132.5 37.6758 129.5 33.6758 141C28.7631 154.292 28.0652 161.463 26.9339 171C25.2812 181.407 25.7982 192.583 28.6751 210.5H43.4347C44.4281 198.441 43.9345 196.228 44.6758 178C45.4171 159.772 51.1966 143.287 52.1758 144Z" fill="#2D72DA"/>
    <mask id="mask0_3930_16840" style="mask-type:alpha" maskUnits="userSpaceOnUse" x="26" y="128" width="27" height="83">
        <path d="M52.1758 144L40.6758 128C36.6758 132.5 37.6758 129.5 33.6758 141C28.7631 154.292 28.0652 161.463 26.9339 171C25.2812 181.407 25.7982 192.583 28.6751 210.5H43.4347C44.4281 198.441 43.9345 196.228 44.6758 178C45.4171 159.772 51.1966 143.287 52.1758 144Z" fill="#5196FD"/>
    </mask>
    <g mask="url(#mask0_3930_16840)">
        <path d="M22.5 192L42.5 212H46.5L22.5 188V192Z" fill="#2362A4" fill-opacity="0.6"/>
        <path d="M47.5 195.5L30.5 212.5L30.5 216.5L47 200L47.5 195.5Z" fill="#2362A4" fill-opacity="0.6"/>
        <path d="M48.4988 182.5L23.9946 207L23.9946 211L48.5 186.5L48.4988 182.5Z" fill="#2362A4" fill-opacity="0.6"/>
        <path d="M50.5 168.5L23 196L23 200L50 173L50.5 168.5Z" fill="#2362A4" fill-opacity="0.6"/>
        <path d="M52.5 154.5L22 185L22 189L52 159L52.5 154.5Z" fill="#2362A4" fill-opacity="0.6"/>
        <path d="M53 142L22.5 172.5L22.5 176.5L54.5 144.5L53 142Z" fill="#2362A4" fill-opacity="0.6"/>
        <path d="M47.5 135.5L24 159L24 163L49.5 137.5L47.5 135.5Z" fill="#2362A4" fill-opacity="0.6"/>
        <path d="M42.4959 128.5L30.4959 140.5L27.9959 147L44.5 130.5L42.4959 128.5Z" fill="#2362A4" fill-opacity="0.6"/>
        <path d="M22.5 168L47.5 193L48 189.5L22.5 164V168Z" fill="#2362A4" fill-opacity="0.6"/>
        <path d="M27.5 149L50 171.5L50.5 168L28.5 146L27.5 149Z" fill="#2362A4" fill-opacity="0.6"/>
        <path d="M34 131.5L53.5 151L54.5 148L36 129.5L34 131.5Z" fill="#2362A4" fill-opacity="0.6"/>
        <path d="M39.5 213L22.5 196" stroke="#194D84" stroke-opacity="0.6" stroke-width="1.5"/>
        <path d="M47.5 197L22.5 172" stroke="#194D84" stroke-opacity="0.6" stroke-width="1.5"/>
        <path d="M49.5 175L26 151.5" stroke="#194D84" stroke-opacity="0.6" stroke-width="1.5"/>
        <path d="M53.5 155L32.5 134" stroke="#194D84" stroke-opacity="0.6" stroke-width="1.5"/>
        <path d="M46.5 208L22 183.5" stroke="#194D84" stroke-opacity="0.6" stroke-width="1.5"/>
        <path d="M49 186.5L24 161.5" stroke="#194D84" stroke-opacity="0.6" stroke-width="1.5"/>
        <path d="M51.5 165L29.5 143" stroke="#194D84" stroke-opacity="0.6" stroke-width="1.5"/>
        <path d="M56.5 146L38.5 128" stroke="#194D84" stroke-opacity="0.6" stroke-width="1.5"/>
    </g>
    <path d="M123.5 124.5L108 145.5C109.457 151.771 109.959 155.272 110.502 161.5C110.425 170.688 110.852 179.89 111.001 187.5C111.635 195.85 111.502 202.5 113.5 211.5H131.5C134.226 203.96 135.539 199.631 137 191.5C138.609 180.831 138.862 174.828 136 164L131 141C129.206 131.45 127.883 126.987 123.5 124.5Z" fill="#BB293E"/>
    <mask id="mask1_3930_16840" style="mask-type:alpha" maskUnits="userSpaceOnUse" x="108" y="124" width="31" height="88">
        <path d="M123.5 124.5L108 145.5C109.457 151.771 109.959 155.272 110.502 161.5C110.425 170.688 110.852 179.89 111.001 187.5C111.635 195.85 111.502 202.5 113.5 211.5H131.5C134.226 203.96 135.539 199.631 137 191.5C138.609 180.831 138.862 174.828 136 164L131 141C129.206 131.45 127.883 126.987 123.5 124.5Z" fill="#BB293E"/>
    </mask>
    <g mask="url(#mask1_3930_16840)">
        <path d="M110.738 140.5C116.047 162.232 112.545 180.921 118.241 212L121.738 211.5C116.042 180.421 118.547 158.732 113.238 137L110.738 140.5Z" fill="white" fill-opacity="0.3"/>
        <path d="M120.738 127C126.34 149.058 128.226 175.916 133.5 206.5L136 198C133.575 187.915 130.041 156.255 123.238 124.5L120.738 127Z" fill="white" fill-opacity="0.3"/>
        <path d="M128.999 131.499L137.989 184.5L138.5 173.5L134 151L128.999 131.499Z" fill="white" fill-opacity="0.3"/>
        <path d="M116.238 133.5C121.547 155.232 120.545 180.921 126.241 212L129.738 211.5C124.042 180.421 123.547 152.232 118.238 130.5L116.238 133.5Z" fill="white" fill-opacity="0.3"/>
    </g>
    <path d="M52 144C48.9804 140.31 47.0411 138.256 40 128C44.8216 124.816 48.9113 121.721 57 119C69.5409 121.808 67.3389 120.05 72.5 129.5C70.537 160.74 68.843 180.261 71 211.5L43.2637 210.5C44.7637 198 43 188 44.5 175C45.7878 153.674 50.6965 148.09 52 144Z" fill="white"/>
    <circle cx="64.5" cy="182.5" r="2.5" fill="#2D72DA"/>
    <circle cx="65.5" cy="206.5" r="2.5" fill="#F4C039"/>
    <circle cx="48.5" cy="198.5" r="2.5" fill="#BB293E"/>
    <circle cx="51.5" cy="125.5" r="2.5" fill="#BB293E"/>
    <circle cx="66.5" cy="126.5" r="2.5" fill="#2D72DA"/>
    <circle cx="66.5" cy="148.5" r="2.5" fill="#F4C039"/>
    <circle cx="64.5" cy="167.5" r="2.5" fill="#BB293E"/>
    <circle cx="55" cy="174" r="1" fill="#2D72DA"/>
    <circle cx="52" cy="191" r="1" fill="#2D72DA"/>
    <circle cx="51" cy="179" r="1" fill="#BB293E"/>
    <circle cx="58" cy="161" r="1" fill="#F4C039"/>
    <circle cx="51" cy="157" r="1" fill="#BB293E"/>
    <circle cx="64" cy="162" r="1" fill="#2D72DA"/>
    <circle cx="64" cy="177" r="1" fill="#BB293E"/>
    <circle cx="69" cy="195" r="1" fill="#BB293E"/>
    <circle cx="68" cy="203" r="1" fill="#BB293E"/>
    <circle cx="56" cy="201" r="1" fill="#F4C039"/>
    <circle cx="47" cy="206" r="1" fill="#2D72DA"/>
    <circle cx="62" cy="194" r="1" fill="#BB293E"/>
    <circle cx="68" cy="139" r="1" fill="#F4C039"/>
    <circle cx="63" cy="141" r="1" fill="#BB293E"/>
    <circle cx="59" cy="132" r="1" fill="#2D72DA"/>
    <circle cx="51" cy="132" r="1" fill="#BB293E"/>
    <circle cx="58" cy="153" r="1" fill="#F4C039"/>
    <circle cx="68" cy="173" r="1" fill="#F4C039"/>
    <circle cx="70" cy="130" r="1" fill="#F4C039"/>
    <circle cx="70" cy="152" r="1" fill="#2D72DA"/>
    <circle cx="53.5" cy="166.5" r="1.5" fill="#BB293E"/>
    <circle cx="57.5" cy="188.5" r="1.5" fill="#F4C039"/>
    <circle cx="47.5" cy="186.5" r="1.5" fill="#2D72DA"/>
    <circle cx="63.5" cy="199.5" r="1.5" fill="#2D72DA"/>
    <circle cx="55.5" cy="208.5" r="1.5" fill="#BB293E"/>
    <circle cx="67.5" cy="187.5" r="1.5" fill="#F4C039"/>
    <circle cx="60.5" cy="172.5" r="1.5" fill="#F4C039"/>
    <circle cx="68.5" cy="158.5" r="1.5" fill="#BB293E"/>
    <circle cx="59.5" cy="147.5" r="1.5" fill="#2D72DA"/>
    <circle cx="65.5" cy="133.5" r="1.5" fill="#BB293E"/>
    <mask id="mask2_3930_16840" style="mask-type:alpha" maskUnits="userSpaceOnUse" x="40" y="119" width="33" height="92">
        <path d="M52.1846 143.865C49.1186 140.195 47.1494 138.152 40 127.951C44.8958 124.785 49.0484 121.707 57.2615 119C69.9953 121.793 67.7595 120.044 73 129.443C71.0068 160.514 69.2868 179.93 71.4769 211L43.3139 210.005C44.837 197.573 43.0462 187.627 44.5692 174.697C45.8769 153.487 50.8611 147.932 52.1846 143.865Z" fill="white"/>
    </mask>
    <g mask="url(#mask2_3930_16840)">
        <circle cx="46.5" cy="164.5" r="2.5" fill="#F4C039"/>
        <circle cx="51.5" cy="146.5" r="2.5" fill="#BB293E"/>
        <circle cx="45" cy="175" r="1" fill="#F4C039"/>
        <circle cx="71.5" cy="142.5" r="1.5" fill="#2D72DA"/>
    </g>
    <circle cx="51.5" cy="136.5" r="1.5" fill="#F4C039"/>
    <circle cx="59.5" cy="123.5" r="1.5" fill="#F4C039"/>
    <circle cx="45" cy="129" r="1" fill="#2D72DA"/>
    <path d="M113.832 211.5H71.4988C70.2828 189.88 69.6309 184.252 70.5 162.5C70.7668 151.216 71.9799 135.299 72.5 124L109.832 117L123.832 124.5L108.332 145.5C111.766 155.5 110.766 180.5 110.766 180.5C111.364 194.85 111.873 201 113.832 211.5Z" fill="#F4C039"/>
    <path d="M72.3447 129.5C70.3988 160.88 69.1746 182.419 71.4175 213.5" stroke="#0B0B0B"/>
    <path d="M112.764 119L115.764 120.5C124.622 123.91 128.223 126.658 129.764 134.5L133.264 150.5" stroke="#0B0B0B" stroke-linecap="round"/>
    <path d="M113.766 212C108.07 180.921 113.574 166.732 108.266 145M131.766 212C142.729 180.625 138.076 171.999 133.264 150.5" stroke="#0B0B0B" stroke-linecap="round"/>
    <path d="M58.7648 118.5L52.2648 121C45.3557 123.94 37.2318 126.89 34.2634 138.5C22.9079 166.144 25.3947 191.6 28.2648 210.098" stroke="#0B0B0B" stroke-linecap="round"/>
    <path d="M43.2637 211C44.8033 178.722 42.75 164.088 52 143.5" stroke="#0B0B0B" stroke-linecap="round"/>
    <path d="M56.8476 115.134C56.8476 115.134 53.3591 113.569 53.4005 111.064C53.4632 107.265 63 113 63 113L93.8585 113.271C93.8585 113.271 103.398 108.142 105.751 111.472C107.183 113.5 102.912 116.938 102.912 116.938C102.912 116.938 113.893 115.626 113.057 119.119C112.324 122.184 105.961 122.299 105.961 122.299C105.961 122.299 112.916 125.496 110.997 128.61C109.12 131.655 101.432 127.44 101.432 127.44C101.432 127.44 102.537 130.182 101.529 132.456C99.6361 136.73 91.8959 127.777 91.8959 127.777C91.8959 127.777 91.801 134.304 88.5959 134.732C85.7033 135.118 82.3927 130.71 82.3927 130.71C82.3927 130.71 76.6503 136.479 74.4584 134.008C73.1802 132.568 74.0511 129.387 74.0511 129.387C74.0511 129.387 66.1516 135.44 62.2527 133.278C59.8278 131.933 62.1064 125.754 62.1064 125.754C62.1064 125.754 51.8607 130.42 52.0188 126.582C52.1237 124.035 56.3929 120.642 56.3929 120.642C56.3929 120.642 48.6687 120.684 48.503 119.001C48.2617 116.549 56.8476 115.134 56.8476 115.134Z" fill="#9D4EDD" stroke="#0B0B0B"/>
    <path d="M63.0002 112.5C63.8731 110.724 63.0865 110.389 64.5004 109C68.4089 111.347 72.0111 111.589 78.0003 111.5C81.7011 110.576 87.2816 108.399 91.0001 107C92.3402 109.651 92.9286 109.674 93.5001 112.5C93.8013 116.852 94.0477 117.828 90.0001 120H76.5001C71.5675 120.918 66.9513 121.435 64.5004 119C62.6994 116.167 62.0812 115.829 63.0002 112.5Z" fill="white"/>
    <path d="M63.9995 109C63.9995 109 61.5464 115.019 63.2731 117.583C66.7059 122.68 70.3268 120.079 76.966 120.011C83.2433 119.946 91.7473 122.054 93.787 116.682C95.196 112.971 91 107 91 107" stroke="#0B0B0B"/>
    <path d="M92 167L81 155.5L90 144.5L101 148L104 158L92 167Z" fill="#9D4EDD" stroke="#3D0B66" stroke-width="0.5"/>
    <path d="M90.5 206.5L80 200.5L86 186L99.5 195.5L90.5 206.5Z" fill="#405BB5" stroke="#102466" stroke-width="0.5"/>
    <path d="M83 150.5L86 153" stroke="#0B0B0B" stroke-linecap="round"/>
    <path d="M87.5 159L85 162" stroke="#0B0B0B" stroke-linecap="round"/>
    <path d="M102.667 160.416L101 158" stroke="#0B0B0B" stroke-linecap="round"/>
    <path d="M94.8408 193.508L95.3787 190" stroke="#0B0B0B" stroke-linecap="round"/>
    <path d="M92 201.5L94.5 203.5" stroke="#0B0B0B" stroke-linecap="round"/>
    <path d="M86.5 205.5L88.0369 201.492" stroke="#0B0B0B" stroke-linecap="round"/>
    <path d="M81.5 193.5L84 194.809" stroke="#0B0B0B" stroke-linecap="round"/>
    <path d="M86.626 146L88.5426 150.957" stroke="#0B0B0B" stroke-linecap="round"/>
    <path d="M90 161L87.5 164" stroke="#0B0B0B" stroke-linecap="round"/>
    <path d="M100.332 163L97.832 159" stroke="#0B0B0B" stroke-linecap="round"/>
    <path d="M90.7822 191.5L92.1628 188" stroke="#0B0B0B" stroke-linecap="round"/>
    <path d="M95 198L97.5 200" stroke="#0B0B0B" stroke-linecap="round"/>
    <path d="M83.0352 203.77L84.5 201" stroke="#0B0B0B" stroke-linecap="round"/>
    <path d="M83 190L86 191.965" stroke="#0B0B0B" stroke-linecap="round"/>
    <path d="M97.5 145.5L96 148.5" stroke="#0B0B0B" stroke-linecap="round"/>
    <path d="M98.5 149.5L100.346 145.23" stroke="#0B0B0B" stroke-linecap="round"/>
    <path d="M72.276 32.8489L64.275 36.1125L56.9232 40.3236L52.8876 43.4292L49.1853 47.149L46.2551 51.1846L44.29 55.0447L42.9389 59.3435L42.2546 64.5723L42.3775 68.4324L43.2197 75.3982L44.1496 81.8727L46.0446 90.7861L49.1678 98.524L52.6595 103.121L57.7478 107.701L62.8713 112.034L66.4858 114.544L73.6446 116.421L81.4877 115.719L88.4009 113.561L94.8578 110.455L98.1916 108.087L102.683 104.472L106.473 100.647L110.281 95.6113L113.106 90.365L114.457 86.6628L116.071 82.2061L118.949 76.6791L120.966 71.9592L123.125 65.4496L124.16 58.6768L123.704 55.0447L122.177 49.6756L119.826 44.7627L116.685 40.4815L110.842 35.4984L103.631 32.0594L95.3491 30.217L88.4184 29.8661L80.6104 30.6381L72.276 32.8489Z" fill="white"/>
    <path d="M112.246 92.2073L114.545 86.3645L115.983 82.3464L119.3 75.8719L122.3 68.2218L123.879 61.8877L124.16 56.8695L122.809 51.4828L119.826 44.7627L117.756 41.7798L113.597 37.5161L106.438 33.1472L98.6128 30.7434L91.3838 29.7783L93.4191 24.2864L96.4722 19.584L99.1567 18.0049H102.806L106.754 19.9876L107.667 20.7245L111.404 19.584H114.527L118.58 20.3912L121.458 22.251L123.388 24.7777H126.072L131.319 25.655L135.021 27.4973L137.688 29.8485L140.829 34.0947L142.443 37.5161L148.11 39.0427L151.444 41.4465L154.427 45.9734L155.304 48.5351L155.603 49.7458L163.586 50.9565L167.271 52.7988L170.464 56.4484L171.113 60.1506L170.131 63.8528L167.639 66.2216L162.796 67.6954H161.13L159.147 72.6961L156.252 75.8193L150.619 78.4687H144.531L141.355 77.9248L138.828 82.8377L134.512 85.7679L128.564 87.5927L127.406 88.0138L124.528 91.8564L121.914 93.6286L117.966 94.19L114.738 93.5584L112.246 92.2073Z" fill="#BF2231"/>
    <path d="M46.2553 92.5232H42.9917L39.3948 90.716L37.0787 87.9437L35.096 86.1891L30.8498 85.0837L25.8843 81.8727L23.7612 79.0829L22.2347 75.2403L18.3044 75.3982L14.3916 73.6085L11.4965 69.8887L9.91733 65.4496V62.8001L7.67143 61.8175L5.84664 58.7821L5.68872 56.0975L6.98713 53.3428L9.91733 50.5354L15.5145 47.3596L16.076 42.0782L17.9885 39.0427L21.0942 36.3406L26.5861 33.9543L28.2004 33.6034L28.1126 31.147L30.1655 26.9885L35.096 23.7951L39.3421 23.339L43.7988 23.7951L45.9921 20.6895L48.1327 18.8647L51.5191 17.5663L54.7827 17.7944L58.4674 19.163L63.4856 18.0049L67.9774 18.4436L72.1358 21.1983L73.943 24.2864L75.0835 29.2871L75.1713 31.919L62.3451 37.0951L55.9583 41.0079L49.6592 46.6051L45.6236 52.2374L42.9391 59.3435L42.2548 64.5723L42.3776 68.4324L43.0093 73.9244L44.062 81.3814L45.3254 87.9437L46.2553 92.5232Z" fill="#BF2231"/>
    <path d="M72.6973 94.1725C78.2887 94.1725 82.8214 89.6398 82.8214 84.0484C82.8214 78.457 78.2887 73.9243 72.6973 73.9243C67.106 73.9243 62.5732 78.457 62.5732 84.0484C62.5732 89.6398 67.106 94.1725 72.6973 94.1725Z" fill="#ED0022"/>
    <path d="M75.2589 117C70.3285 117 66.0648 115.614 62.9415 112.877C61.2571 111.403 59.7131 110.104 58.3445 108.964C48.4309 100.7 45.0796 97.9098 41.8862 69.3799C39.2894 46.3068 60.7307 35.9019 73.7324 31.7435C80.9438 29.445 88.5413 28.7256 95.7177 29.6731C118.791 32.7085 123.616 49.6932 124.616 56.852C125.757 65.046 118.563 79.1706 116.58 82.4868C116.054 83.3641 115.668 84.3291 115.404 85.3819C111.667 100.594 97.0863 111.578 85.1198 115.351C81.6457 116.439 78.3295 116.982 75.2589 116.982V117ZM89.4888 30.4451C84.3653 30.4451 79.1366 31.2698 74.1009 32.8664C61.4326 36.902 40.5527 47.0086 43.0443 69.2571C46.185 97.3133 49.1854 99.8048 59.099 108.069C60.4676 109.21 62.0292 110.525 63.7311 111.999C68.4686 116.158 76.1538 116.982 84.7864 114.263C96.4546 110.578 110.649 99.8925 114.281 85.1363C114.562 83.9782 115.001 82.8904 115.58 81.9253C118.457 77.1002 124.458 64.1161 123.458 57.045C122.493 50.1494 117.843 33.7788 95.5597 30.8662C93.5595 30.603 91.5241 30.4802 89.4712 30.4802L89.4888 30.4451Z" fill="#0B0B0B"/>
    <path d="M72.697 94.7691C66.8015 94.7691 61.9939 89.9615 61.9939 84.0484C61.9939 78.1354 66.8015 73.3278 72.697 73.3278C78.5925 73.3278 83.4001 78.1354 83.4001 84.0484C83.4001 89.9615 78.5925 94.7691 72.697 94.7691ZM72.697 74.5033C67.4332 74.5033 63.1695 78.7846 63.1695 84.0484C63.1695 89.3123 67.4507 93.5935 72.697 93.5935C77.9433 93.5935 82.2245 89.3123 82.2245 84.0484C82.2245 78.7846 77.9433 74.5033 72.697 74.5033Z" fill="#0B0B0B"/>
    <path d="M89.3136 61.1333C89.0328 60.5893 89.1907 59.905 89.6996 59.5366C90.9629 58.6066 93.5773 57.1152 96.8759 57.3258C100.175 57.5363 102.42 60.3963 103.438 62.0632C103.824 62.6773 103.596 63.4844 102.964 63.8354L102.859 63.888C102.298 64.1863 101.578 64.0284 101.21 63.4844C100.876 62.9932 100.368 62.3264 99.6482 61.5193C97.8936 59.5892 95.7881 59.5541 93.3316 60.5543C92.5596 60.8701 91.9104 61.1333 91.0857 61.6246C90.4716 62.0106 89.6469 61.7649 89.3136 61.1157V61.1333Z" fill="#0B0B0B"/>
    <path d="M53.0981 58.7821C52.7647 58.2557 52.8525 57.5714 53.3262 57.1678C54.5018 56.1326 56.9407 54.378 60.2569 54.2727C63.5731 54.1675 66.0822 56.7818 67.2578 58.3434C67.6965 58.9225 67.5561 59.7471 66.9595 60.1507L66.8543 60.2209C66.3103 60.5893 65.5909 60.4841 65.1874 59.9928C64.8014 59.5366 64.2399 58.9225 63.4328 58.1855C61.5027 56.4485 59.4147 56.6064 57.046 57.8346C56.3091 58.2206 55.6949 58.5364 54.9229 59.133C54.3439 59.5717 53.5017 59.4137 53.1157 58.7996L53.0981 58.7821Z" fill="#0B0B0B"/>
    <path d="M79.3645 44.6223L78.9785 44.2363C75.2763 40.5341 70.9775 44.1135 70.802 44.2714C70.5564 44.4819 70.1879 44.4468 69.9774 44.2012C69.7668 43.9555 69.8019 43.5871 70.0475 43.3765C70.1002 43.3414 75.0482 39.183 79.4172 43.0431C80.3997 42.2887 83.0317 40.5691 85.839 40.8499C87.541 41.0253 89.0149 41.9026 90.208 43.4643C90.401 43.7274 90.3484 44.0784 90.1027 44.2889C89.8395 44.4819 89.4886 44.4293 89.2781 44.1836C88.2955 42.8852 87.1024 42.1658 85.7162 42.0255C82.7158 41.7272 79.8032 44.2538 79.7681 44.2714L79.3645 44.6223Z" fill="#0B0B0B"/>
    <path d="M80.2066 49.1491L79.8206 48.7631C76.1008 45.0434 71.8195 48.6403 71.6441 48.7982C71.3984 49.0088 71.03 48.9737 70.8194 48.728C70.6089 48.4824 70.6439 48.1139 70.8896 47.9034C70.9422 47.8683 75.8902 43.7099 80.2592 47.57C81.2418 46.8155 83.8737 45.096 86.6811 45.3767C88.383 45.5522 89.8569 46.4295 91.0501 47.9911C91.2431 48.2543 91.1904 48.6052 90.9448 48.8158C90.6816 49.0088 90.3307 48.9561 90.1201 48.7105C89.1375 47.4121 87.9444 46.6927 86.5758 46.5523C83.593 46.254 80.6452 48.7807 80.6277 48.7982L80.2241 49.1491H80.2066Z" fill="#0B0B0B"/>
    <path d="M118.546 94.9445C114.896 94.9445 112.036 92.7864 111.896 92.6811C111.633 92.4881 111.597 92.1196 111.79 91.8564C111.983 91.5932 112.352 91.5581 112.615 91.7511C112.65 91.7862 116.545 94.6989 120.739 93.4707C124.038 92.5056 126.687 89.2596 128.617 83.8729C128.722 83.5747 129.056 83.4167 129.354 83.522C129.652 83.6273 129.81 83.9607 129.705 84.259C127.635 90.0316 124.722 93.5058 121.037 94.5936C120.177 94.8393 119.335 94.9445 118.528 94.9445H118.546Z" fill="#0B0B0B"/>
    <path d="M127.582 88.2595C127.266 88.2595 127.003 87.9963 127.003 87.6804C127.003 87.3646 127.248 87.1014 127.582 87.0839C127.634 87.0839 133.688 86.926 137.846 82.5921C140.618 79.7145 141.97 75.6438 141.864 70.5028C141.864 70.187 142.11 69.9062 142.443 69.9062C142.759 69.9062 143.022 70.1519 143.022 70.4853C143.128 75.9421 141.671 80.2935 138.671 83.4167C134.161 88.1016 127.862 88.2595 127.599 88.2595H127.582Z" fill="#0B0B0B"/>
    <path d="M146.935 79.0478C145.181 79.0478 143.286 78.8723 141.268 78.5038C140.952 78.4512 140.742 78.1354 140.794 77.8195C140.847 77.5037 141.163 77.2932 141.478 77.3458C148.286 78.574 153.445 77.6616 156.779 74.6437C161.428 70.4326 160.937 63.4318 160.937 63.3616C160.92 63.0457 161.148 62.765 161.463 62.7299C161.797 62.6948 162.06 62.9405 162.095 63.2563C162.113 63.5721 162.639 70.8888 157.568 75.4859C154.971 77.8371 151.41 79.0127 146.953 79.0127L146.935 79.0478Z" fill="#0B0B0B"/>
    <path d="M161.516 68.2921C161.288 68.2921 161.147 68.2921 161.112 68.2921C160.796 68.2921 160.551 67.9938 160.568 67.6779C160.568 67.3621 160.867 67.0989 161.183 67.134C161.235 67.134 166.376 67.3621 168.991 64.467C170.306 63.0107 170.798 60.9578 170.412 58.3961C169.043 49.0615 150.865 50.3249 150.672 50.3424C150.357 50.3599 150.076 50.1319 150.041 49.7985C150.023 49.4826 150.251 49.2019 150.585 49.1668C151.374 49.1142 170.026 47.8158 171.552 58.2206C171.973 61.1508 171.394 63.502 169.833 65.239C167.271 68.064 162.867 68.2921 161.516 68.2921Z" fill="#0B0B0B"/>
    <path d="M155.603 50.3249C155.34 50.3249 155.094 50.1319 155.041 49.8687C154.041 45.3418 151.971 42.0606 148.865 40.1306C143.882 37.0074 137.899 38.4111 137.829 38.4286C137.513 38.4988 137.197 38.3058 137.127 38.0075C137.057 37.6917 137.25 37.3758 137.548 37.3057C137.811 37.2355 144.075 35.7792 149.479 39.148C152.848 41.2535 155.111 44.7803 156.164 49.623C156.234 49.9388 156.041 50.2547 155.726 50.3249C155.691 50.3249 155.638 50.3249 155.603 50.3249Z" fill="#0B0B0B"/>
    <path d="M142.443 38.0952C142.215 38.0952 141.987 37.9548 141.9 37.7267C139.654 32.0944 136.337 28.3396 132.056 26.5499C125.722 23.9004 119.353 26.5499 119.3 26.5499C119.002 26.6727 118.669 26.5499 118.546 26.234C118.423 25.9357 118.546 25.6024 118.862 25.462C119.142 25.3392 125.722 22.6195 132.512 25.4445C137.092 27.357 140.636 31.3399 143.005 37.2705C143.128 37.5688 142.987 37.9022 142.689 38.025C142.619 38.0601 142.549 38.0601 142.479 38.0601L142.443 38.0952Z" fill="#0B0B0B"/>
    <path d="M123.476 25.5147C123.265 25.5147 123.072 25.4094 122.967 25.1988C117.949 15.8292 104.982 22.409 104.859 22.4616C104.579 22.602 104.228 22.4967 104.07 22.216C103.929 21.9352 104.035 21.5843 104.315 21.4264C104.456 21.3562 118.44 14.2676 123.985 24.6373C124.142 24.9181 124.037 25.269 123.739 25.4269C123.651 25.4796 123.563 25.4971 123.458 25.4971L123.476 25.5147Z" fill="#0B0B0B"/>
    <path d="M91.3842 30.3749C91.3842 30.3749 91.2965 30.3749 91.2438 30.3749C90.928 30.3047 90.735 29.9889 90.8052 29.673C90.9104 29.2519 93.2441 19.5138 99.122 17.5662C101.842 16.6714 104.842 17.5838 108.035 20.2859C108.281 20.4964 108.316 20.8649 108.106 21.1105C107.895 21.3562 107.527 21.3913 107.281 21.1807C104.421 18.7594 101.807 17.8996 99.4905 18.6716C94.2091 20.4087 91.9632 29.8485 91.9457 29.9362C91.8755 30.1994 91.6474 30.3924 91.3842 30.3924V30.3749Z" fill="#0B0B0B"/>
    <path d="M44.5708 93.2602C36.868 93.2602 34.5695 83.4519 34.5344 83.3466C34.4642 83.0308 34.6572 82.7149 34.9731 82.6448C35.2889 82.5746 35.6047 82.7676 35.6749 83.0834C35.7626 83.5045 38.1138 93.4005 46.1499 91.9266C46.4658 91.874 46.764 92.0846 46.8342 92.4004C46.8869 92.7162 46.6763 93.0145 46.3605 93.0847C45.7288 93.19 45.1322 93.2426 44.5708 93.2426V93.2602Z" fill="#0B0B0B"/>
    <path d="M36.2193 86.926C36.2193 86.926 36.1842 86.926 36.1667 86.926C20.9542 85.3819 21.1823 71.8363 21.1823 71.696C21.1823 71.3801 21.4631 71.117 21.7789 71.1345C22.0947 71.1345 22.3579 71.4152 22.3404 71.7311C22.3404 72.2399 22.1649 84.3292 36.272 85.7679C36.5878 85.803 36.8334 86.0838 36.7984 86.3996C36.7633 86.6979 36.5176 86.926 36.2193 86.926Z" fill="#0B0B0B"/>
    <path d="M20.1818 75.9772C17.427 75.9772 15.146 75.1525 13.3563 73.5032C8.91716 69.3974 9.32072 61.7473 9.33827 61.4315C9.35581 61.1156 9.63655 60.8525 9.95238 60.8875C10.2682 60.9051 10.5139 61.1858 10.4963 61.5017C10.4963 61.5718 10.1278 68.9412 14.1459 72.661C16.0935 74.4682 18.7781 75.135 22.1469 74.6788C22.4627 74.6437 22.761 74.8542 22.7961 75.1701C22.8312 75.4859 22.6207 75.7842 22.3048 75.8193C21.5679 75.9245 20.8485 75.9772 20.1818 75.9772Z" fill="#0B0B0B"/>
    <path d="M9.89995 64.4669C9.77712 64.4669 9.6543 64.4319 9.54903 64.3441C6.12754 61.6771 4.63612 58.9399 5.07477 56.1852C6.09244 49.9914 16.7429 46.219 17.1991 46.0611C17.4974 45.9558 17.8308 46.1137 17.9361 46.412C18.0413 46.7103 17.8834 47.0437 17.5851 47.1489C17.4799 47.184 7.12766 50.8512 6.23281 56.3606C5.86434 58.6592 7.21539 61.0279 10.2684 63.3966C10.5141 63.5896 10.5667 63.9581 10.3737 64.2213C10.2509 64.3617 10.093 64.4494 9.91749 64.4494L9.89995 64.4669Z" fill="#0B0B0B"/>
    <path d="M15.5143 47.9386C15.1985 47.9386 14.9528 47.6929 14.9353 47.3771C14.7598 43.552 15.8301 40.3937 18.1287 37.9724C22.7258 33.1297 30.5162 33.0068 30.8496 33.0068C31.1654 33.0068 31.4286 33.27 31.4286 33.5859C31.4286 33.9017 31.1654 34.1649 30.8496 34.1824C30.7794 34.1824 23.217 34.3052 18.9709 38.797C16.918 40.9728 15.953 43.8503 16.0933 47.342C16.0933 47.6578 15.8652 47.9386 15.5319 47.9561C15.5319 47.9561 15.5143 47.9561 15.4968 47.9561L15.5143 47.9386Z" fill="#0B0B0B"/>
    <path d="M27.6392 34.5333C27.6392 34.5333 27.6042 34.5333 27.5866 34.5333C27.2708 34.4982 27.0251 34.2175 27.0602 33.9016C27.4638 29.5327 29.1482 26.3919 32.0609 24.5671C38.3073 20.6543 47.905 24.2337 48.3086 24.3916C48.6068 24.5145 48.7648 24.8478 48.6419 25.1461C48.5191 25.4444 48.1857 25.6023 47.8874 25.4795C47.7997 25.4444 38.4126 21.9527 32.6574 25.5497C30.0782 27.1639 28.5692 30.0064 28.2007 33.9894C28.1656 34.2877 27.92 34.5157 27.6217 34.5157L27.6392 34.5333Z" fill="#0B0B0B"/>
    <path d="M43.7993 24.3742C43.7115 24.3742 43.6063 24.3566 43.5185 24.304C43.2378 24.1461 43.1325 23.7951 43.2904 23.5144C45.2907 19.8823 47.8524 17.7417 50.9405 17.1627C56.2219 16.1626 61.0295 20.0929 61.2225 20.2684C61.4682 20.4789 61.5033 20.8474 61.2927 21.093C61.0822 21.3387 60.7137 21.3738 60.4681 21.1632C60.4154 21.1281 55.871 17.4084 51.1335 18.3032C48.4139 18.8296 46.1153 20.7597 44.2906 24.0759C44.1853 24.2689 43.9923 24.3742 43.7817 24.3742H43.7993Z" fill="#0B0B0B"/>
    <path d="M75.1716 32.498C75.1716 32.498 75.154 32.498 75.1365 32.498C74.8207 32.4805 74.575 32.1997 74.5926 31.8839C74.5926 31.7962 75.0137 23.8653 70.399 20.321C67.6794 18.233 63.7315 18.0225 58.6432 19.7245C58.3449 19.8297 58.0115 19.6543 57.9062 19.356C57.801 19.0577 57.9764 18.7243 58.2747 18.619C63.7491 16.8118 68.0654 17.075 71.1009 19.4086C76.2068 23.3389 75.7682 31.6207 75.7506 31.9716C75.7331 32.2875 75.4699 32.5156 75.1716 32.5156V32.498Z" fill="#0B0B0B"/>
    <path d="M100.14 73.0997C99.9818 73.0997 99.8239 73.0646 99.6835 73.0119C94.6478 70.8538 90.7174 72.5031 90.6823 72.5206C90.0858 72.7838 89.4015 72.5031 89.1558 71.9065C88.8926 71.31 89.1558 70.6257 89.7699 70.38C89.9629 70.2923 94.6653 68.3271 100.613 70.8713C101.21 71.1169 101.473 71.8188 101.228 72.3978C101.035 72.8365 100.613 73.0997 100.157 73.0997H100.14Z" fill="#0B0B0B"/>
    <path d="M64.1875 71.4328C64.0296 71.4328 63.8717 71.3977 63.7313 71.3451C58.7482 69.2044 54.8881 70.7836 54.7301 70.8538C54.1336 71.0994 53.4493 70.8362 53.2036 70.2397C52.958 69.6431 53.2212 68.9763 53.8178 68.7131C54.0108 68.6254 58.7131 66.6602 64.6612 69.2044C65.2578 69.4501 65.521 70.1519 65.2753 70.7309C65.0823 71.1696 64.6612 71.4328 64.205 71.4328H64.1875Z" fill="#0B0B0B"/>
    <path d="M72.101 106.718C74.1941 106.718 75.8909 105.021 75.8909 102.928C75.8909 100.835 74.1941 99.1381 72.101 99.1381C70.0079 99.1381 68.311 100.835 68.311 102.928C68.311 105.021 70.0079 106.718 72.101 106.718Z" fill="#232323"/>
    <path d="M72.1007 107.315C69.6793 107.315 67.7317 105.349 67.7317 102.928C67.7317 100.507 69.6969 98.5415 72.1007 98.5415C74.5045 98.5415 76.4696 100.507 76.4696 102.928C76.4696 105.349 74.5045 107.315 72.1007 107.315ZM72.1007 99.7171C70.3285 99.7171 68.8897 101.156 68.8897 102.928C68.8897 104.7 70.3285 106.139 72.1007 106.139C73.8728 106.139 75.3116 104.7 75.3116 102.928C75.3116 101.156 73.8728 99.7171 72.1007 99.7171Z" fill="#0B0B0B"/>
</svg>
