<svg width="190" height="120" viewBox="0 0 190 120" fill="none" xmlns="http://www.w3.org/2000/svg">
<path d="M34.8014 107.047C34.8014 105.937 35.0414 104.951 35.5214 104.087C36.0014 103.212 36.6681 102.535 37.5214 102.055C38.3854 101.564 39.3614 101.319 40.4494 101.319C41.7828 101.319 42.9241 101.671 43.8734 102.375C44.8228 103.079 45.4574 104.039 45.7774 105.255H42.7694C42.5454 104.785 42.2254 104.428 41.8094 104.183C41.4041 103.937 40.9401 103.815 40.4174 103.815C39.5748 103.815 38.8921 104.108 38.3694 104.695C37.8468 105.281 37.5854 106.065 37.5854 107.047C37.5854 108.028 37.8468 108.812 38.3694 109.399C38.8921 109.985 39.5748 110.279 40.4174 110.279C40.9401 110.279 41.4041 110.156 41.8094 109.911C42.2254 109.665 42.5454 109.308 42.7694 108.839H45.7774C45.4574 110.055 44.8228 111.015 43.8734 111.719C42.9241 112.412 41.7828 112.759 40.4494 112.759C39.3614 112.759 38.3854 112.519 37.5214 112.039C36.6681 111.548 36.0014 110.871 35.5214 110.007C35.0414 109.143 34.8014 108.156 34.8014 107.047ZM52.9409 103.655C53.9649 103.655 54.7863 103.996 55.4049 104.679C56.0236 105.351 56.3329 106.279 56.3329 107.463V112.679H53.6129V107.831C53.6129 107.233 53.4583 106.769 53.1489 106.439C52.8396 106.108 52.4236 105.943 51.9009 105.943C51.3783 105.943 50.9623 106.108 50.6529 106.439C50.3436 106.769 50.1889 107.233 50.1889 107.831V112.679H47.4529V100.839H50.1889V104.951C50.4663 104.556 50.8449 104.241 51.3249 104.007C51.8049 103.772 52.3436 103.655 52.9409 103.655ZM62.2982 112.807C61.4235 112.807 60.6342 112.62 59.9302 112.247C59.2369 111.873 58.6875 111.34 58.2822 110.647C57.8875 109.953 57.6902 109.143 57.6902 108.215C57.6902 107.297 57.8929 106.492 58.2982 105.799C58.7035 105.095 59.2582 104.556 59.9622 104.183C60.6662 103.809 61.4555 103.623 62.3302 103.623C63.2049 103.623 63.9942 103.809 64.6982 104.183C65.4022 104.556 65.9569 105.095 66.3622 105.799C66.7675 106.492 66.9702 107.297 66.9702 108.215C66.9702 109.132 66.7622 109.943 66.3462 110.647C65.9409 111.34 65.3809 111.873 64.6662 112.247C63.9622 112.62 63.1729 112.807 62.2982 112.807ZM62.2982 110.439C62.8209 110.439 63.2635 110.247 63.6262 109.863C63.9995 109.479 64.1862 108.929 64.1862 108.215C64.1862 107.5 64.0049 106.951 63.6422 106.567C63.2902 106.183 62.8529 105.991 62.3302 105.991C61.7969 105.991 61.3542 106.183 61.0022 106.567C60.6502 106.94 60.4742 107.489 60.4742 108.215C60.4742 108.929 60.6449 109.479 60.9862 109.863C61.3382 110.247 61.7755 110.439 62.2982 110.439ZM72.4857 112.807C71.611 112.807 70.8217 112.62 70.1177 112.247C69.4244 111.873 68.875 111.34 68.4697 110.647C68.075 109.953 67.8777 109.143 67.8777 108.215C67.8777 107.297 68.0804 106.492 68.4857 105.799C68.891 105.095 69.4457 104.556 70.1497 104.183C70.8537 103.809 71.643 103.623 72.5177 103.623C73.3924 103.623 74.1817 103.809 74.8857 104.183C75.5897 104.556 76.1444 105.095 76.5497 105.799C76.955 106.492 77.1577 107.297 77.1577 108.215C77.1577 109.132 76.9497 109.943 76.5337 110.647C76.1284 111.34 75.5684 111.873 74.8537 112.247C74.1497 112.62 73.3604 112.807 72.4857 112.807ZM72.4857 110.439C73.0084 110.439 73.451 110.247 73.8137 109.863C74.187 109.479 74.3737 108.929 74.3737 108.215C74.3737 107.5 74.1924 106.951 73.8297 106.567C73.4777 106.183 73.0404 105.991 72.5177 105.991C71.9844 105.991 71.5417 106.183 71.1897 106.567C70.8377 106.94 70.6617 107.489 70.6617 108.215C70.6617 108.929 70.8324 109.479 71.1737 109.863C71.5257 110.247 71.963 110.439 72.4857 110.439ZM82.2412 112.807C81.4625 112.807 80.7692 112.673 80.1612 112.407C79.5532 112.14 79.0732 111.777 78.7212 111.319C78.3692 110.849 78.1719 110.327 78.1292 109.751H80.8332C80.8652 110.06 81.0092 110.311 81.2652 110.503C81.5212 110.695 81.8359 110.791 82.2092 110.791C82.5505 110.791 82.8119 110.727 82.9932 110.599C83.1852 110.46 83.2812 110.284 83.2812 110.071C83.2812 109.815 83.1479 109.628 82.8812 109.511C82.6145 109.383 82.1825 109.244 81.5852 109.095C80.9452 108.945 80.4119 108.791 79.9852 108.631C79.5585 108.46 79.1905 108.199 78.8812 107.847C78.5719 107.484 78.4172 106.999 78.4172 106.391C78.4172 105.879 78.5559 105.415 78.8332 104.999C79.1212 104.572 79.5372 104.236 80.0812 103.991C80.6359 103.745 81.2919 103.623 82.0492 103.623C83.1692 103.623 84.0492 103.9 84.6892 104.455C85.3399 105.009 85.7132 105.745 85.8092 106.663H83.2812C83.2385 106.353 83.0999 106.108 82.8652 105.927C82.6412 105.745 82.3425 105.655 81.9692 105.655C81.6492 105.655 81.4039 105.719 81.2332 105.847C81.0625 105.964 80.9772 106.129 80.9772 106.343C80.9772 106.599 81.1105 106.791 81.3772 106.919C81.6545 107.047 82.0812 107.175 82.6572 107.303C83.3185 107.473 83.8572 107.644 84.2732 107.815C84.6892 107.975 85.0519 108.241 85.3612 108.615C85.6812 108.977 85.8465 109.468 85.8572 110.087C85.8572 110.609 85.7079 111.079 85.4092 111.495C85.1212 111.9 84.6999 112.22 84.1452 112.455C83.6012 112.689 82.9665 112.807 82.2412 112.807ZM95.9471 108.071C95.9471 108.327 95.9311 108.593 95.8991 108.871H89.7071C89.7497 109.425 89.9257 109.852 90.2351 110.151C90.5551 110.439 90.9444 110.583 91.4031 110.583C92.0857 110.583 92.5604 110.295 92.8271 109.719H95.7391C95.5897 110.305 95.3177 110.833 94.9231 111.303C94.5391 111.772 94.0537 112.14 93.4671 112.407C92.8804 112.673 92.2244 112.807 91.4991 112.807C90.6244 112.807 89.8457 112.62 89.1631 112.247C88.4804 111.873 87.9471 111.34 87.5631 110.647C87.1791 109.953 86.9871 109.143 86.9871 108.215C86.9871 107.287 87.1737 106.476 87.5471 105.783C87.9311 105.089 88.4644 104.556 89.1471 104.183C89.8297 103.809 90.6137 103.623 91.4991 103.623C92.3631 103.623 93.1311 103.804 93.8031 104.167C94.4751 104.529 94.9977 105.047 95.3711 105.719C95.7551 106.391 95.9471 107.175 95.9471 108.071ZM93.1471 107.351C93.1471 106.881 92.9871 106.508 92.6671 106.231C92.3471 105.953 91.9471 105.815 91.4671 105.815C91.0084 105.815 90.6191 105.948 90.2991 106.215C89.9897 106.481 89.7977 106.86 89.7231 107.351H93.1471ZM100.237 108.199C100.237 107.281 100.408 106.476 100.749 105.783C101.101 105.089 101.576 104.556 102.173 104.183C102.77 103.809 103.437 103.623 104.173 103.623C104.802 103.623 105.352 103.751 105.821 104.007C106.301 104.263 106.669 104.599 106.925 105.015V103.751H109.661V112.679H106.925V111.415C106.658 111.831 106.285 112.167 105.805 112.423C105.336 112.679 104.786 112.807 104.157 112.807C103.432 112.807 102.77 112.62 102.173 112.247C101.576 111.863 101.101 111.324 100.749 110.631C100.408 109.927 100.237 109.116 100.237 108.199ZM106.925 108.215C106.925 107.532 106.733 106.993 106.349 106.599C105.976 106.204 105.517 106.007 104.973 106.007C104.429 106.007 103.965 106.204 103.581 106.599C103.208 106.983 103.021 107.516 103.021 108.199C103.021 108.881 103.208 109.425 103.581 109.831C103.965 110.225 104.429 110.423 104.973 110.423C105.517 110.423 105.976 110.225 106.349 109.831C106.733 109.436 106.925 108.897 106.925 108.215ZM115.656 110.119L117.592 103.751H120.504L117.336 112.679H113.96L110.792 103.751H113.72L115.656 110.119ZM121.112 108.199C121.112 107.281 121.283 106.476 121.624 105.783C121.976 105.089 122.451 104.556 123.048 104.183C123.645 103.809 124.312 103.623 125.048 103.623C125.677 103.623 126.227 103.751 126.696 104.007C127.176 104.263 127.544 104.599 127.8 105.015V103.751H130.536V112.679H127.8V111.415C127.533 111.831 127.16 112.167 126.68 112.423C126.211 112.679 125.661 112.807 125.032 112.807C124.307 112.807 123.645 112.62 123.048 112.247C122.451 111.863 121.976 111.324 121.624 110.631C121.283 109.927 121.112 109.116 121.112 108.199ZM127.8 108.215C127.8 107.532 127.608 106.993 127.224 106.599C126.851 106.204 126.392 106.007 125.848 106.007C125.304 106.007 124.84 106.204 124.456 106.599C124.083 106.983 123.896 107.516 123.896 108.199C123.896 108.881 124.083 109.425 124.456 109.831C124.84 110.225 125.304 110.423 125.848 110.423C126.392 110.423 126.851 110.225 127.224 109.831C127.608 109.436 127.8 108.897 127.8 108.215ZM137.491 110.359V112.679H136.099C135.107 112.679 134.334 112.439 133.779 111.959C133.225 111.468 132.947 110.673 132.947 109.575V106.023H131.859V103.751H132.947V101.575H135.683V103.751H137.475V106.023H135.683V109.607C135.683 109.873 135.747 110.065 135.875 110.183C136.003 110.3 136.217 110.359 136.515 110.359H137.491ZM138.471 108.199C138.471 107.281 138.642 106.476 138.983 105.783C139.335 105.089 139.81 104.556 140.407 104.183C141.005 103.809 141.671 103.623 142.407 103.623C143.037 103.623 143.586 103.751 144.055 104.007C144.535 104.263 144.903 104.599 145.159 105.015V103.751H147.895V112.679H145.159V111.415C144.893 111.831 144.519 112.167 144.039 112.423C143.57 112.679 143.021 112.807 142.391 112.807C141.666 112.807 141.005 112.62 140.407 112.247C139.81 111.863 139.335 111.324 138.983 110.631C138.642 109.927 138.471 109.116 138.471 108.199ZM145.159 108.215C145.159 107.532 144.967 106.993 144.583 106.599C144.21 106.204 143.751 106.007 143.207 106.007C142.663 106.007 142.199 106.204 141.815 106.599C141.442 106.983 141.255 107.516 141.255 108.199C141.255 108.881 141.442 109.425 141.815 109.831C142.199 110.225 142.663 110.423 143.207 110.423C143.751 110.423 144.21 110.225 144.583 109.831C144.967 109.436 145.159 108.897 145.159 108.215ZM152.611 105.239C152.931 104.748 153.331 104.364 153.811 104.087C154.291 103.799 154.824 103.655 155.411 103.655V106.551H154.659C153.976 106.551 153.464 106.7 153.123 106.999C152.781 107.287 152.611 107.799 152.611 108.535V112.679H149.875V103.751H152.611V105.239Z" fill="#6A6A6A"/>
<path d="M120.414 33.8438C120.414 36.4375 120.039 38.6719 119.289 40.5469C118.539 42.4219 117.586 44.0938 116.43 45.5625C115.273 47 113.992 48.3125 112.586 49.5C111.211 50.6563 109.898 51.8125 108.648 52.9688C107.398 54.125 106.289 55.3594 105.32 56.6719C104.383 57.9531 103.758 59.4375 103.445 61.125C101.883 60.7812 100.351 60.5469 98.8515 60.4219C97.3827 60.2656 95.8984 60.1875 94.3984 60.1875C93.4921 60.1875 92.5702 60.2188 91.6327 60.2812C90.7265 60.3125 89.8202 60.4062 88.914 60.5625C88.914 58.4062 89.1484 56.5781 89.6171 55.0781C90.0859 53.5781 90.6796 52.25 91.3984 51.0938C92.1171 49.9375 92.8827 48.8594 93.6952 47.8594C94.539 46.8594 95.3202 45.7812 96.039 44.625C96.7577 43.4688 97.3515 42.1562 97.8202 40.6875C98.289 39.1875 98.5234 37.3594 98.5234 35.2031C98.5234 33.7344 98.3671 32.4531 98.0546 31.3594C97.7421 30.2656 97.3202 29.3438 96.789 28.5938C96.289 27.8125 95.7109 27.1875 95.0546 26.7188C94.4296 26.25 93.8046 25.8906 93.1796 25.6406C92.5546 25.3594 91.9609 25.1719 91.3984 25.0781C90.8359 24.9844 90.3671 24.9375 89.9921 24.9375C88.8046 24.9375 87.8984 25.25 87.2734 25.875C86.6484 26.4688 86.3359 27.0781 86.3359 27.7031C86.3359 28.0469 86.3827 28.3906 86.4765 28.7344C86.5702 29.0469 86.7265 29.3281 86.9452 29.5781C87.1952 29.8281 87.5077 30.0313 87.8827 30.1875C88.2577 30.3438 88.7421 30.4219 89.3359 30.4219C89.7734 30.3906 90.1796 30.2813 90.5546 30.0938C90.8984 29.9375 91.2421 29.6875 91.5859 29.3438C91.9296 28.9688 92.1952 28.4531 92.3827 27.7969C93.0702 28.7656 93.5859 29.875 93.9296 31.125C94.3046 32.3438 94.4921 33.6094 94.4921 34.9219C94.4921 36.2344 94.3046 37.5 93.9296 38.7188C93.5546 39.9375 92.9609 41.0312 92.1484 42C91.3359 42.9688 90.289 43.75 89.0077 44.3438C87.7577 44.9062 86.2577 45.1875 84.5077 45.1875C82.3515 45.1875 80.4609 44.7188 78.8359 43.7812C77.2109 42.8125 75.8515 41.6094 74.7577 40.1719C73.6952 38.7031 72.8984 37.1094 72.3671 35.3906C71.8359 33.6719 71.5702 32.0469 71.5702 30.5156C71.5702 29.1094 71.7421 27.6562 72.0859 26.1562C72.4296 24.625 72.9609 23.1406 73.6796 21.7031C74.4296 20.2344 75.3827 18.8594 76.539 17.5781C77.7265 16.2656 79.1327 15.125 80.7577 14.1563C82.3827 13.1563 84.2577 12.375 86.3827 11.8125C88.539 11.2187 90.9609 10.9219 93.6484 10.9219C95.8359 10.9219 98.0234 11.1094 100.211 11.4844C102.398 11.8594 104.476 12.4375 106.445 13.2188C108.445 14 110.289 15 111.976 16.2188C113.695 17.4375 115.18 18.9062 116.43 20.625C117.68 22.3125 118.648 24.2656 119.336 26.4844C120.055 28.6719 120.414 31.125 120.414 33.8438ZM85.7734 73.5C85.7734 72.1562 86.0234 70.8906 86.5234 69.7031C87.0546 68.4844 87.7577 67.4219 88.6327 66.5156C89.539 65.6094 90.5859 64.9062 91.7734 64.4062C92.9921 63.875 94.289 63.6094 95.664 63.6094C97.039 63.6094 98.3202 63.875 99.5077 64.4062C100.726 64.9062 101.773 65.6094 102.648 66.5156C103.555 67.4219 104.258 68.4844 104.758 69.7031C105.289 70.8906 105.555 72.1562 105.555 73.5C105.555 74.875 105.289 76.1719 104.758 77.3906C104.258 78.5781 103.555 79.625 102.648 80.5312C101.773 81.4062 100.726 82.0938 99.5077 82.5938C98.3202 83.125 97.039 83.3906 95.664 83.3906C94.289 83.3906 92.9921 83.125 91.7734 82.5938C90.5859 82.0938 89.539 81.4062 88.6327 80.5312C87.7577 79.625 87.0546 78.5781 86.5234 77.3906C86.0234 76.1719 85.7734 74.875 85.7734 73.5Z" fill="#6A6A6A"/>
</svg>
