<svg width="176" height="230" viewBox="0 0 176 230" fill="none" xmlns="http://www.w3.org/2000/svg">
    <path d="M47.3755 216H33.7835L33.2172 166.895C32.1077 137.531 35.4568 129.838 43.9775 121.696C45.7025 124.663 46.977 126.279 50.2071 128.95C47.2708 163.229 47.3562 182.181 47.3755 216Z" fill="#5E2FA7"/>
    <path d="M57.0687 216H47.4411C47.3659 175.424 47.7188 154.412 50.8391 128.392L59.3342 135.088C56.4166 166.167 56.6311 184.375 57.0687 216Z" fill="#8343E5"/>
    <path d="M87.0838 216H80.8542C80.8023 208.354 80.5197 204.117 78.5889 197.028L86.5175 196.47L87.0838 216Z" fill="#8343E5"/>
    <path d="M80.8549 216H71.7936C71.9542 208.586 71.8777 204.445 71.2273 197.028H78.5896C80.2926 204.433 80.5139 208.588 80.8549 216Z" fill="#7034CD"/>
    <path d="M71.8027 216H63.3078C62.9335 208.389 62.9514 204.135 63.8741 196.47L71.2364 197.028C71.8278 204.436 71.8834 208.597 71.8027 216Z" fill="#8343E5"/>
    <path d="M63.2987 216H57.0691V195.354L63.8651 196.47C62.9339 203.84 62.6924 208.558 63.2987 216Z" fill="#7034CD"/>
    <path d="M88.7832 155.177C82.1408 151.251 78.9864 148.357 74.0586 142.342C80.7615 142.231 84.4781 141.701 91.0485 140.11L88.7832 155.177Z" fill="#7034CD"/>
    <path d="M88.7835 154.061L87.6508 165.221C73.8408 156.911 68.6768 149.931 59.3343 138.994C59.208 137.564 59.2598 136.966 59.9006 136.204C64.197 140.831 69.1529 141.512 75.121 142.333L75.1916 142.342C81.0606 148.879 82.7479 149.743 88.7835 154.061Z" fill="#8343E5"/>
    <path d="M86.8139 175.129C76.9612 170.175 69.7906 166.57 58.2012 151.828C58.5594 147.055 58.5177 144.446 59.3338 139.552C72.0105 153.7 77.9017 158.563 87.6504 165.221C87.4256 169.368 87.312 171.126 87.084 175.265L86.8139 175.129Z" fill="#7034CD"/>
    <path d="M57.6348 164.105L58.2011 151.829C66.6711 163.493 73.7169 168.06 87.084 175.823L86.5176 185.309H84.8186C74.7974 179.067 65.7229 172.713 57.6348 164.105Z" fill="#8343E5"/>
    <path d="M84.8193 185.309C75.675 179.425 65.5793 173.295 57.6354 164.663C57.2164 168.843 57.0937 171.801 57.0691 176.381C60.1761 178.998 65.4901 183.159 69.5284 185.309C74.5692 185.96 79.694 185.488 84.8193 185.309Z" fill="#7034CD"/>
    <path d="M57.0691 183.635V175.823L70.661 185.309L57.0691 183.635Z" fill="#8343E5"/>
    <path d="M110.304 216H87.0847C85.7476 183.196 86.9836 164.203 92.1835 131.183C114.043 120.209 123.54 116.338 130.692 120.58C146.278 130.561 143.72 157.41 143.72 157.41V216H110.304Z" fill="#5E2FA7"/>
    <path d="M63.8631 196.47C62.8576 203.752 62.9837 208.185 63.299 215.442" stroke="#0B0B0B" stroke-linecap="square"/>
    <path d="M71.2273 197.028C71.8863 204.123 71.9189 208.207 71.7936 215.442" stroke="#0B0B0B" stroke-linecap="square"/>
    <path d="M78.5889 197.028C80.4333 203.884 80.6784 208.003 80.8542 215.442" stroke="#0B0B0B" stroke-linecap="square"/>
    <path d="M58.2012 151.829C65.2535 162.369 76.6061 170.117 87.084 175.265" stroke="#0B0B0B" stroke-linecap="round"/>
    <path d="M59.3337 138.995C66.8221 148.921 77.5843 159.508 87.6503 165.221" stroke="#0B0B0B" stroke-linecap="square"/>
    <path d="M73.4919 140.668C81.3965 148.865 79.0785 146.816 88.7829 154.061" stroke="#0B0B0B" stroke-linecap="square"/>
    <path d="M57.6348 164.105C65.5925 173.449 75.1309 179.441 85.385 185.309" stroke="#0B0B0B" stroke-linecap="square"/>
    <path d="M57.0691 176.381C60.7601 179.538 66.3719 183.359 70.661 185.867" stroke="#0B0B0B" stroke-linecap="round"/>
    <path d="M54.8039 75.381L48.5742 88.7732L57.6355 91.0053L54.8039 75.381Z" fill="#D7D7D7" stroke="#0B0B0B" stroke-linecap="square"/>
    <path d="M124.463 94.9112C128.59 98.6666 126.79 103.605 119.366 109.977L102.376 105.513L97.2788 54.1764L113.702 59.1985C116.226 67.328 118.441 69.9197 126.162 77.0548C132.875 84.9442 131.593 90.5337 124.463 94.9112Z" fill="#D7D7D7" stroke="#0B0B0B" stroke-linecap="round"/>
    <path d="M113.136 107.746C117.614 104.41 120.118 102.528 115.401 96.0274C123.484 89.7081 120.115 80.5881 115.401 78.171C110.687 75.7539 105.373 68.4152 105.207 60.8727" stroke="black" stroke-opacity="0.5" stroke-linecap="round"/>
    <path d="M111.437 64.2207C111.536 69.2461 112.787 71.7471 118.232 75.3809" stroke="black" stroke-opacity="0.5" stroke-linecap="round"/>
    <path d="M44.6999 123.087C41.7206 117.262 49.7613 111.951 51.4958 112.485L105.864 106.905C108.992 104.465 142.76 119.064 133.614 119.739C124.468 120.414 103.575 133.546 95.1033 138.153C93.6521 139.342 68.7924 148.523 58.8581 134.805C54.6639 129.013 47.9495 129.441 44.6999 123.087Z" fill="#8343E5"/>
    <path d="M51.4958 112.484C49.7613 111.95 41.7206 117.261 44.6999 123.086C47.9495 129.44 54.6639 129.013 58.8581 134.804C68.7924 148.522 93.6521 139.341 95.1033 138.152C103.575 133.545 124.468 120.413 133.614 119.738C142.76 119.063 108.336 104.189 105.208 106.629" stroke="#0B0B0B" stroke-linecap="round"/>
    <path d="M121.142 110.812C121.142 110.812 108.298 118.762 101.321 125.32C92.1303 133.959 76.4131 136.48 76.4131 136.48" stroke="black" stroke-opacity="0.5" stroke-linecap="round"/>
    <path d="M107.494 78.7291C104.997 84.2549 104.432 87.3917 106.361 93.2374C111.067 94.1878 113.688 90.9337 114.29 87.0993C114.939 82.9623 111.795 80.1283 107.494 78.7291Z" fill="#E7A5A3"/>
    <path d="M53.1003 113.884C46.4508 108.177 47.3792 104.431 54.233 97.1435L103.505 74.265C104.814 75.9405 106.142 77.4208 108.034 78.7291C105.413 84.7323 105.113 87.4366 106.903 93.2374C108.091 105.329 102.753 116.379 92.7435 120.022C87.7502 125.342 85.1483 127.654 82.5495 125.044C77.3775 130.396 74.3516 132.202 68.3912 130.066C66.5776 130.045 65.4999 129.741 62.7279 126.16C56.18 126.218 53.9191 123.702 53.1003 113.884Z" fill="#D7D7D7"/>
    <path d="M54.233 97.1435C47.3792 104.431 46.4508 108.177 53.1003 113.884C53.9191 123.702 56.18 126.218 62.7279 126.16C65.4999 129.741 66.5776 130.045 68.3912 130.066C74.3516 132.202 77.3775 130.396 82.5495 125.044C85.1483 127.654 87.7502 125.342 92.7435 120.022C102.753 116.379 108.091 105.329 106.903 93.2374M106.903 93.2374C111.628 94.1938 114.229 90.9332 114.83 87.0993C115.479 82.9624 112.194 80.3338 108.034 78.7291C105.413 84.7323 105.113 87.4366 106.903 93.2374Z" stroke="#0B0B0B"/>
    <path d="M53.105 113.883C53.6403 111.011 53.8117 108.635 55.3701 106.63" stroke="black" stroke-opacity="0.5" stroke-linecap="round"/>
    <path d="M82.554 125.044C85.9696 121.491 86.8023 118.681 87.0846 112.21" stroke="black" stroke-opacity="0.5" stroke-linecap="round"/>
    <path d="M92.7476 120.022C95.5732 114.352 96.0494 110.976 95.5792 104.398" stroke="black" stroke-opacity="0.5" stroke-linecap="round"/>
    <path d="M68.3955 130.066C75.2191 125.948 77.0747 121.91 76.8905 114.442" stroke="black" stroke-opacity="0.5" stroke-linecap="round"/>
    <path d="M62.8615 126.16C61.7252 121.045 61.8978 118.004 63.9942 112.21" stroke="black" stroke-opacity="0.5" stroke-linecap="round"/>
    <path d="M54.0988 95.7055C52.7641 79.4872 52.2955 70.2839 55.7978 52.1807C64.6345 48.245 75.3925 49.3119 98.2726 53.2967C98.7788 60.547 100.689 64.1547 103.37 70.0371C100.745 89.8629 98.5242 88.0418 96.7117 91.5636L70.6605 89.8896L54.0988 95.7055Z" fill="#E7A5A3" stroke="#0B0B0B"/>
    <path d="M66.7762 57.5213C63.3634 53.8877 53.2129 56.7917 53.7506 59.7534C54.2882 62.7151 58.2684 60.3144 58.2684 60.3144C61.6396 58.9953 62.1144 59.5994 63.9317 59.7564C63.9317 59.7564 70.1889 61.1549 66.7762 57.5213Z" fill="#D7D7D7" stroke="#0B0B0B"/>
    <path d="M91.8041 59.0367C88.6398 54.198 76.1504 55.1377 76.1125 58.5717C76.0746 62.0056 81.2552 60.226 81.2552 60.226C85.4828 59.5173 85.901 60.3007 87.985 60.8894C87.985 60.8894 94.9683 63.8755 91.8041 59.0367Z" fill="#D7D7D7" stroke="#0B0B0B"/>
    <path d="M58.7678 85.4246C62.1604 81.1249 66.9718 77.7163 71.2887 83.6607V90.9148C65.6085 97.1963 62.2097 99.6761 54.8651 97.6109C45.0502 93.2192 47.636 85.445 48.0692 85.3347C51.0229 90.3898 56.2033 88.6748 58.7678 85.4246Z" fill="#D7D7D7" stroke="#0B0B0B"/>
    <path d="M83.6831 83.7624C80.5429 80.0951 75.0199 79.9903 71.2234 84.2543V91.5085C76.9037 97.79 82.5713 100.93 89.9158 98.8645C99.7308 94.4728 97.7109 88.9306 97.2777 88.8203C92.2342 95.0235 85.8795 86.3274 83.6831 83.7624Z" fill="#D7D7D7" stroke="#0B0B0B"/>
    <path d="M78.0225 97.7129C74.0601 103.228 66.9409 103.242 63.8643 97.7009C65.8268 96.5142 67.6306 94.5801 71.2266 91.5627C73.3218 94.0747 74.8719 95.4485 78.0225 97.7129Z" fill="#D7D7D7" stroke="#0B0B0B"/>
    <path d="M70.2648 62.5469C70.8025 74.3483 63.2124 80.2862 64.6015 83.7513C66.5181 88.5322 74.0361 86.2567 78.0233 80.9612" stroke="#0B0B0B"/>
    <path d="M64.9978 83.7511C63.6087 80.286 71.1981 73.7901 70.6604 61.9886L78.5899 79.845C74.6027 85.1404 66.9144 88.532 64.9978 83.7511Z" fill="#E7A5A3"/>
    <path d="M113.702 59.7568C92.0099 51.9959 79.3149 50.285 55.936 52.5027L55.3696 45.2485L53.6707 25.7181L58.2013 24.6021C68.245 31.2626 69.4583 28.2775 76.3239 20.696L82.5535 21.2541C86.5459 32.3212 93.0505 31.98 100.676 26.8342L105.207 27.9502C108.014 36.4748 110.988 36.7966 118.232 31.2983L122.197 32.9723L116.002 52.5027L113.702 59.7568Z" fill="#E5B650"/>
    <path d="M55.3696 45.2485L53.6707 25.7181L58.2013 24.6021C68.245 31.2626 69.4583 28.2775 76.3239 20.696L82.5535 21.2541C86.5459 32.3212 93.0505 31.98 100.676 26.8342L105.207 27.9502C108.014 36.4748 110.988 36.7966 118.232 31.2983L122.197 32.9723L116.002 52.5027M55.3696 45.2485C78.9142 42.8547 92.1037 44.4409 116.002 52.5027M55.3696 45.2485L55.936 52.5027C79.3149 50.285 92.0099 51.9959 113.702 59.7568L116.002 52.5027" stroke="#0B0B0B"/>
    <path d="M54.8037 16.7318C57.3496 16.7318 59.4014 18.7637 59.4014 21.2543C59.4012 23.7446 57.3494 25.7758 54.8037 25.7758C52.2581 25.7756 50.2072 23.7445 50.207 21.2543C50.207 18.7638 52.258 16.732 54.8037 16.7318Z" fill="#DEC666" stroke="#0B0B0B"/>
    <path d="M79.7214 14.5C82.2673 14.5 84.3191 16.5319 84.3191 19.0225C84.3189 21.5128 82.2672 23.5439 79.7214 23.5439C77.1759 23.5438 75.125 21.5127 75.1248 19.0225C75.1248 16.532 77.1757 14.5002 79.7214 14.5Z" fill="#DEC666" stroke="#0B0B0B"/>
    <path d="M103.508 20.0798C106.054 20.0798 108.105 22.1118 108.105 24.6023C108.105 27.0927 106.054 29.1238 103.508 29.1238C100.962 29.1236 98.9113 27.0926 98.9111 24.6023C98.9111 22.1119 100.962 20.08 103.508 20.0798Z" fill="#DEC666" stroke="#0B0B0B"/>
    <path d="M121.631 25.6602C124.176 25.6602 126.228 27.6921 126.228 30.1826C126.228 32.673 124.176 34.7041 121.631 34.7041C119.085 34.7039 117.034 32.6729 117.034 30.1826C117.034 27.6922 119.085 25.6603 121.631 25.6602Z" fill="#DEC666" stroke="#0B0B0B"/>
    <path d="M91.0496 140.11C86.398 169.329 86.3031 185.878 87.0853 215.442" stroke="#0B0B0B" stroke-linecap="square"/>
    <path d="M110.304 215.442C109.943 186.631 109.812 169.905 111.439 140.668" stroke="#0B0B0B" stroke-linecap="square"/>
    <path d="M131.541 120.58C141.519 128.784 143.955 137.2 144 157.409V215.442" stroke="#0B0B0B" stroke-linecap="square"/>
    <path d="M43.9771 121.696C35.8133 129.9 33.0367 137.2 33 157.409L33.7831 215.442" stroke="#0B0B0B" stroke-linecap="square"/>
    <path d="M59.3305 136.204C56.8474 163.073 56.3296 181.387 57.0685 215.442" stroke="#0B0B0B" stroke-linecap="square"/>
    <path d="M50.2729 128.95C47.3644 163.243 47.4019 181.636 47.4415 215.442" stroke="#0B0B0B" stroke-linecap="square"/>
    <path d="M86.5183 185.309C74.8937 186.05 68.4215 185.838 57.0691 183.635V195.353C68.3928 196.871 74.868 197.046 86.5183 196.469V185.309Z" fill="#A972FF" stroke="#0B0B0B" stroke-linecap="square"/>
    <path d="M65.9315 70.31C65.8103 70.3186 65.6977 70.3065 65.5728 70.2654C61.6256 68.9241 58.7517 70.3187 58.6341 70.3771C58.1932 70.5985 57.6525 70.4267 57.4278 69.9923C57.2031 69.5579 57.3681 69.0359 57.8083 68.8045C57.9555 68.734 61.4535 66.9849 66.1515 68.5932C66.62 68.7501 66.87 69.2527 66.7006 69.715C66.5831 70.0536 66.265 70.2863 65.9214 70.3107L65.9315 70.31Z" fill="#0B0B0B"/>
    <path d="M86.1039 70.5835C85.9824 70.5835 85.8709 70.5635 85.7494 70.5136C81.9101 68.8967 78.9419 70.0844 78.8204 70.1343C78.3645 70.324 77.8377 70.1144 77.6453 69.6652C77.4528 69.2161 77.6554 68.707 78.1113 68.5074C78.2632 68.4475 81.8797 66.9503 86.4483 68.8867C86.9042 69.0763 87.1169 69.5954 86.9143 70.0445C86.7725 70.3739 86.4382 70.5835 86.0938 70.5835H86.1039Z" fill="#0B0B0B"/>
</svg>
