<svg width="176" height="230" viewBox="0 0 176 230" fill="none" xmlns="http://www.w3.org/2000/svg">
    <path d="M20.1455 203.839L17 207.832L21.3554 189.199L26.1144 171.252L30.8331 160.564L27.647 161.814L32.0833 156.047L28.6149 157.539L39.1009 144.472C41.2381 141.184 42.3193 139.28 43.5053 135.485L47.3687 126.444C50.3457 121.027 53.7636 116.487 57 111.5L55.1525 110.754C57.3186 108.804 59.5451 107.634 62.5 106C67.8375 109.048 69.8952 110.35 76 111C83.3483 111.696 85.5575 112.08 92.5 110C97.0986 106.635 98.5069 105.162 99.6372 100.351L116.657 106.118C125.596 110.133 128.654 113.673 133.475 120.395L137.79 123.5L135.773 123.823L147.631 143.988C148.83 147.203 149.407 148.999 152.134 152.324C155.148 155.462 156.734 157.221 158.923 160.363L154.734 158.513C156.497 161.888 157.275 163.275 158.392 166.725L155.576 165.202C155.544 173.679 155.423 178.419 154.447 186.779C152.039 197.998 150.529 204.225 147.469 215.172L145.896 211.018L143.114 216.14C140.851 212.738 139.761 210.863 137.992 207.549L135.433 210.297C132.872 207.579 132.14 205.824 131.014 202.629L125.265 205.696C128.463 197.253 130.099 192.474 132.466 183.795C134.173 177.194 134.357 175.55 135.048 169.372L135.079 169.096C129.176 161.535 126.391 156.71 121.491 148.221L121.375 148.021C119.528 149.27 120.09 153.745 121.375 162.379L119.52 160.604L120.004 167.057L118.391 164.274C117.216 174.715 118.39 184.273 121.738 203.839L119.52 200.451L121.05 209H54.0498L55.8381 182.302L54.2249 185.125L56.7828 161.112L49.5465 177.18L48.9819 174.438C44.1632 184.689 41.6612 190.809 37.891 202.911L33.9789 199.846L28.5746 205.291L27.526 202.145L22.0813 207.832L20.1455 203.839Z" fill="#432918"/>
    <path d="M63 106C62.4543 105.442 56.5813 109.238 55 111M56.5508 161.501C53.8775 165.481 51.4626 174.065 49.5508 177.501M31.0508 160.501C29.1922 163.699 27.4522 167.195 26.0508 171.501C21.9379 184.14 17.0508 208.15 17.0508 208.15L20.0508 204.001L22.0508 208.001L27.5508 202.001L28.5508 205.501L34.0508 199.501L38.0508 203.001C41.3868 191.052 44.582 183.186 49.0508 174.501M31.0508 160.501C31.7976 159.216 26.7809 163.224 27.5508 162.001M31.0508 160.501L27.5508 162.001M27.5508 162.001C28.5732 160.378 30.1232 158.31 31.8548 156.001M27.5508 162.001L31.8548 156.001M31.8548 156.001C32.5239 155.109 27.8475 158.453 28.5508 157.501C32.098 152.7 41.1998 143.013 42.5508 138.501C45.4388 128.856 52.771 117.226 57 111.5M49.5508 177.501C48.9581 178.567 49.588 173.457 49.0508 174.501M49.5508 177.501L49.0508 174.501M57 111.5C57.7139 110.533 54.3788 111.692 55 111M57 111.5L55 111" stroke="#0B0B0B" stroke-linecap="round"/>
    <path d="M57.0391 140C58.3587 153.55 55.9982 171.783 54.0488 185M54.0391 209.5C54.5273 201.391 55.5397 190.014 56.0448 182M56.0448 182C56.1573 180.216 53.9431 186.784 54.0488 185M56.0448 182L54.0488 185" stroke="#0B0B0B" stroke-linecap="round"/>
    <path d="M121.549 210C121.374 210.029 120.261 204.752 119.547 200.5M121.549 148.5C119.79 147.021 119.855 155.397 121.548 162.5M118.548 164C118.394 164.951 118.18 167.633 118.049 168.5C116.818 176.616 120.726 194.792 122.048 204M118.548 164C118.694 163.1 119.738 167.936 119.897 167M118.548 164L119.897 167M119.897 167C120.037 166.169 119.223 161.331 119.368 160.5M119.368 160.5C119.545 159.482 121.374 163.474 121.548 162.5M119.368 160.5L121.548 162.5M119.547 200.5C119.318 199.137 122.281 205.623 122.048 204M119.547 200.5L122.048 204" stroke="#0B0B0B" stroke-linecap="round"/>
    <path d="M115.551 139C115.551 139 124.732 153.119 130.051 162.5C131.628 165.282 134.386 168.142 135.126 169.102C135.772 169.939 133.761 176.627 133.051 181C131.407 191.118 125.051 206 125.051 206C127.708 204.124 128.94 203.458 131.051 202.5C132.196 206.302 133.102 208.113 135.551 210.5C136.389 209.264 136.895 208.599 138.051 207.5C139.542 210.847 140.474 212.718 143.051 216L145.822 211.147L147.551 215.5C147.551 215.5 153.702 192.512 154.551 186.5C155.474 179.959 155.674 169.559 155.551 165M99.5508 100.5C99.5508 100.5 108.529 102.841 114.051 105C123.921 108.859 128.57 112.846 133.051 120C133.704 121.044 138.051 123.5 139.051 124M159.051 160.5C158.22 158.22 151.343 152.259 150.051 149.5C145.414 139.603 140.549 131.89 135.551 124M159.051 160.5C159.492 161.712 154.225 157.373 154.551 158.5M159.051 160.5L154.551 158.5M154.551 158.5C155.254 160.936 158.316 164.711 158.551 167M158.551 167C158.653 167.993 155.523 163.988 155.551 165M158.551 167L155.551 165M135.551 124C134.94 123.036 140.125 124.537 139.051 124M135.551 124H139.051" stroke="#0B0B0B" stroke-linecap="round"/>
    <path d="M65.3145 151.887C62.8207 166.194 61.9771 175.085 65.0508 185.5L67.0508 183C66.7716 188.508 68.111 190.399 71.5508 192.5L72.0508 190.5C74.245 193.352 75.6832 195.012 79.0508 196L78.5508 194.5C82.8139 197.509 86.2524 197.475 90.6023 195.173L90.1536 197C93.9231 194.587 95.8216 193.126 98.6818 190.228V192.17C102.128 188.926 102.897 187.194 103.459 183L104.473 185.509L106.346 182.037C107.172 165.386 107.22 159.323 105.323 155.587L107.21 152.556L108.715 148.323C109.026 143.887 109.567 147.741 108.955 143.243L111.223 144.513C112.377 139.888 111.878 137.469 110.478 132.835L113.051 133.996C112.918 129.568 111.581 127.738 107.867 124.221L111.07 124.608C109.309 122.983 108.257 121.908 105.201 121.039L107.867 120.049C103.863 118.227 101.739 117.491 98.6818 117.847C96.3275 117.748 94.5207 117.963 88.1577 121.864L88.4756 120.337L84.6854 121.039L81.1887 119.512L81.531 121.348C77.3628 118.618 75.1059 117.633 71.0906 117C68.1298 117.661 66.7058 118.232 65.0707 119.963L66.9595 120.337C63.0229 122.101 62.8958 122.759 61.0574 124.619L63.5657 124.196C60.9266 127.894 59.9743 130.029 59.0508 133.931L62.0607 131.815C60.6572 136.283 60.8071 139.262 61.0972 143.722L62.5624 141.974C62.8463 146.269 63.3036 147.594 65.3145 151.887Z" fill="#CA9E67"/>
    <path d="M65.1677 152C65.2903 152.034 62.488 166.942 63.153 175.57C63.4662 179.634 64.5773 184.98 65.1686 185.856L67.1842 183.284C66.9347 187.994 68.2635 190.197 71.7193 192.713L72.2232 190.57C74.0808 193.547 75.7149 194.693 79.2778 196.141L78.7739 194.427C78.7739 194.427 82.5087 197.082 85.3245 196.998C87.4427 196.935 90.3635 195.284 90.3635 195.284L89.8596 196.998C94.5069 194.522 96.0928 192.976 98.4259 190.141V192.284C102.473 188.99 102.567 186.799 103.465 182.856L104.473 185.427C106.3 182.794 106.577 181.286 106.488 178.57C107.623 165.376 106.919 162.059 105.483 155.566" stroke="#0B0B0B" stroke-linecap="round"/>
    <path d="M66.5508 153.804C63.6611 149.27 62.8914 146.575 62.5508 141.464L61.0508 144.017C60.2388 139.144 61.0011 136.28 62.0508 131.251L59.0508 134.23C59.6377 130.06 61.0442 127.812 64.0508 124.017L60.5508 124.868C62.86 122.7 64.4446 121.691 67.5508 120.187H64.5508C64.5508 120.187 68.9354 116.037 72.5508 117.208C76.1662 118.38 78.1865 119.056 81.5508 121.464L81.0508 119.336L84.5508 121.038L88.5508 120.187L88.0508 121.889C88.0508 121.889 94.6557 117.514 99.5508 117.634C103.069 117.72 108.051 120.187 108.051 120.187L105.051 121.038C108.21 122.246 109.577 123.066 111.051 124.868L107.551 124.017C111.352 127.394 112.263 129.742 113.051 134.23L110.051 132.528C112.35 137.182 112.275 139.833 111.051 144.868L108.551 143.166C109.909 147.797 106.551 153.596 104.551 157" stroke="#0B0B0B" stroke-linecap="round"/>
    <path d="M66.0286 142C66.8527 146.231 67.5513 148.427 70.0286 152M69.0286 142.5C69.6139 145.481 70.0425 147.107 72.0286 149.5M66.5286 130C64.8496 132.595 64.267 134.027 64.5286 136.5M68.5 131.5C67.2099 133.072 66.6258 134.004 66.5 136M67 125.5C65.7244 126.408 65.0734 126.972 64.5 128.5M69 122.5C67.767 122.895 67.24 123.242 66.5 124M73 121.5C71.491 121.305 70.6685 121.256 69 121.5M74 120C72.724 119.332 72.0399 119.182 70.5 119.5M78 123L75.5 124M80 124.5L78 125.5M91.5 124.5L93 125.5M93.5 124L95 125M95.5 121.5C97.0882 121.694 97.9939 121.799 99.5 122.5M98 119.5C99.5104 119.621 100.247 119.726 101.5 120M103.5 122.5C104.741 123.433 105.36 123.966 106 125M107.5 127C109.182 128.134 110.1 128.777 110.5 130.5M106 128.5C107.406 129.517 108.075 130.207 108.5 132M108.5 134.5C109.815 137.041 109.59 138.504 109.5 141M107 135C107.665 137.188 107.631 138.402 107 140.5M106.5 144C106.968 145.399 105.671 151.033 104.5 153M104.5 144.5C104.517 147.345 104.187 148.885 102.5 151.5M104.5 161C104.795 163.606 104.937 165.056 104.5 167.5M104.5 172C105.056 175.253 105.049 177.037 103.5 180M102 171C103.033 173.34 102.398 178.725 101 179M101.5 182.5C101.674 184.238 101.532 185.221 100.5 187M99 182.5C99.2237 184.129 99.1359 184.997 98.5 186.5M96 189.5C95.1623 190.69 93.8363 191.29 92.5 192M74 189.5C74.4898 190.821 74.9301 191.491 76 192.5M71 182.5C71.3553 184.109 71.6156 184.994 72.5 186.5M69.5 181.5C69.4992 183.696 69.4485 184.916 70 187M69 169.5C68.7186 171.446 68.6594 172.547 69 174.5M66.5 168.5C66.2281 171.604 66.1394 173.349 66.5 176.5M68 158C67.1902 160.621 66.7723 162.158 66.5 165" stroke="#A3733A" stroke-width="0.5" stroke-linecap="round"/>
    <path d="M51.9297 158.702C52.1074 159.501 52.3173 160.342 52.5042 161.023C52.5874 161.333 52.6175 161.438 52.6621 161.52C52.692 161.558 52.7364 161.587 52.8719 161.618" stroke="#321D0F" stroke-width="0.5" stroke-linecap="round"/>
    <path d="M53.9961 156.189C54.2801 157.16 54.3102 157.814 54.2729 158.378C54.2458 158.79 54.2204 159.208 54.1459 159.724C54.1307 159.838 54.1307 159.897 54.1233 159.964C54.1159 160.032 54.1011 160.106 54.041 160.227" stroke="#321D0F" stroke-width="0.5" stroke-linecap="round"/>
    <path d="M50.0916 157.849C50.062 158.397 50.0324 158.945 50.0097 159.538C49.9871 160.131 49.9723 160.753 49.957 161.394" stroke="#321D0F" stroke-width="0.5" stroke-linecap="round"/>
    <path d="M48.2962 159.061C48.1482 159.49 48.0001 159.919 47.9164 160.185C47.8327 160.451 47.8179 160.539 47.8029 160.755C47.7879 160.971 47.7731 161.312 47.7578 161.663" stroke="#321D0F" stroke-width="0.5" stroke-linecap="round"/>
    <path d="M48.9692 151.254C48.6556 152.255 48.4174 152.702 48.237 153.055C48.0423 153.377 47.9525 153.556 47.8929 153.668C47.8628 153.721 47.8332 153.766 47.7578 153.811" stroke="#321D0F" stroke-width="0.5" stroke-linecap="round"/>
    <path d="M49.8232 151.658C49.7636 152.734 49.5558 153.12 49.323 153.451C49.2705 153.512 49.2112 153.571 49.1585 153.631C49.1058 153.691 49.0614 153.75 49.0156 153.811" stroke="#321D0F" stroke-width="0.5" stroke-linecap="round"/>
    <path d="M47.265 151.254C46.88 152.231 46.504 153.149 46.2052 153.829C45.9533 154.402 45.8149 154.692 45.6206 155.014C45.4708 155.306 45.3362 155.471 45.2541 155.56C45.2164 155.606 45.1868 155.65 45.1562 155.696" stroke="#321D0F" stroke-width="0.5" stroke-linecap="round"/>
    <path d="M44.751 153.272C44.7219 153.539 44.5123 154.109 44.2958 154.423C44.2283 154.527 44.1543 154.661 44.1013 154.751C44.0484 154.842 44.0188 154.887 43.9883 154.933" stroke="#321D0F" stroke-width="0.5" stroke-linecap="round"/>
    <path d="M50.4062 146.722C50.4359 146.722 50.6288 147.285 50.898 148.256C51.0721 148.884 51.0191 149.367 51.0936 149.807C51.1977 150.233 51.2735 150.535 51.3034 150.692C51.3184 150.76 51.3332 150.804 51.3485 150.94" stroke="#321D0F" stroke-width="0.5" stroke-linecap="round"/>
    <path d="M52.7852 145.152C53.1257 145.744 53.4662 146.336 53.6787 146.693C53.8911 147.05 53.9652 147.154 54.1312 147.35" stroke="#321D0F" stroke-width="0.5" stroke-linecap="round"/>
    <path d="M53.5469 143.357C54.0207 144.216 54.3092 144.762 54.3987 144.956C54.4882 145.12 54.6376 145.478 54.802 145.934C54.8628 146.108 54.8776 146.167 54.8929 146.228" stroke="#321D0F" stroke-width="0.5" stroke-linecap="round"/>
    <path d="M49.4492 166.864C49.5747 167.617 49.6393 168.281 49.6456 168.724C49.6519 168.892 49.6644 168.942 49.6709 169.03C49.6774 169.119 49.6774 169.244 49.6774 169.374" stroke="#321D0F" stroke-width="0.5" stroke-linecap="round"/>
    <path d="M50.4766 167.396C50.5644 167.723 50.6522 168.049 50.6975 168.28C50.7427 168.511 50.7427 168.636 50.7427 168.765" stroke="#321D0F" stroke-width="0.5" stroke-linecap="round"/>
    <path d="M47.5898 168.689C47.7655 169.543 47.8936 170.183 47.9507 170.519C47.9701 170.716 47.9826 170.818 48.0016 170.919C48.0081 170.983 48.0081 171.07 48.0081 171.161" stroke="#321D0F" stroke-width="0.5" stroke-linecap="round"/>
    <path d="M45.3073 173.366C45.3073 174.81 45.2571 175.114 45.225 175.399C45.2187 175.457 45.2062 175.495 45.1934 175.545C45.1807 175.596 45.1681 175.659 45.1172 175.762" stroke="#321D0F" stroke-width="0.5" stroke-linecap="round"/>
    <path d="M43.8993 172.149C43.8993 172.162 43.8993 172.175 43.8428 172.777C43.7863 173.379 43.6734 174.571 43.565 175.386C43.4567 176.201 43.3563 176.603 43.2148 177.054" stroke="#321D0F" stroke-width="0.5" stroke-linecap="round"/>
    <path d="M42.4157 174.126C42.2776 175.243 42.1396 176.36 42.0246 177.111C41.9096 177.862 41.8218 178.213 41.764 178.426C41.7062 178.638 41.6811 178.701 41.6172 178.803" stroke="#321D0F" stroke-width="0.5" stroke-linecap="round"/>
    <path d="M40.0591 176.408C40.0717 176.408 40.0842 176.408 40.0844 176.847C40.0846 177.286 40.0721 178.164 40.0468 178.692C40.0215 179.22 39.9838 179.37 39.9394 179.504C39.8949 179.639 39.8447 179.751 39.793 179.868" stroke="#321D0F" stroke-width="0.5" stroke-linecap="round"/>
    <path d="M38.386 178.043L37.9297 180.286" stroke="#321D0F" stroke-width="0.5" stroke-linecap="round"/>
    <path d="M36.6388 179.716C36.6263 179.741 36.6137 179.766 36.532 180.086C36.4502 180.407 36.2997 181.022 36.1445 181.655" stroke="#321D0F" stroke-width="0.5" stroke-linecap="round"/>
    <path d="M33.7107 180.286C33.6856 180.311 33.6606 180.336 33.4531 180.895C33.2457 181.454 32.8568 182.545 32.418 183.746" stroke="#321D0F" stroke-width="0.5" stroke-linecap="round"/>
    <path d="M32.037 181.313C31.7484 182.229 31.4599 183.145 31.2673 183.717C31.0747 184.289 30.9869 184.49 30.9353 184.619C30.8838 184.747 30.8713 184.797 30.8203 184.925" stroke="#321D0F" stroke-width="0.5" stroke-linecap="round"/>
    <path d="M30.7818 180.856C30.418 181.747 30.0541 182.638 29.8227 183.241C29.5913 183.845 29.5035 184.133 29.4583 184.32C29.413 184.506 29.413 184.581 29.375 184.735" stroke="#321D0F" stroke-width="0.5" stroke-linecap="round"/>
    <path d="M28.805 178.195C28.805 178.22 28.805 178.245 28.736 178.446C28.6669 178.647 28.5289 179.024 28.3867 179.412" stroke="#321D0F" stroke-width="0.5" stroke-linecap="round"/>
    <path d="M28.729 175.001C28.729 175.014 28.729 175.026 28.5031 175.61C28.2773 176.193 27.8256 177.348 27.5803 178.024C27.2841 179.144 27.2716 179.487 27.2526 179.683C27.2461 179.766 27.2461 179.816 27.2461 179.868" stroke="#321D0F" stroke-width="0.5" stroke-linecap="round"/>
    <path d="M28.1592 173.29C27.2307 175.022 26.7022 176.001 26.6136 176.166C26.5752 176.243 26.5501 176.305 26.5246 176.356C26.4991 176.408 26.474 176.445 26.4102 176.522" stroke="#321D0F" stroke-width="0.5" stroke-linecap="round"/>
    <path d="M32.417 165.458C32.417 165.47 32.417 165.483 32.1472 165.972C31.8775 166.462 31.3379 167.428 31.0412 167.938C30.7444 168.448 30.7068 168.473 30.668 168.537" stroke="#321D0F" stroke-width="0.5" stroke-linecap="round"/>
    <path d="M34.0501 165.571C34.0501 165.584 34.0501 165.596 33.8556 166.011C33.6611 166.425 33.2721 167.24 33.0216 167.73C32.771 168.219 32.6706 168.357 32.6064 168.447C32.5421 168.537 32.517 168.574 32.4531 168.651" stroke="#321D0F" stroke-width="0.5" stroke-linecap="round"/>
    <path d="M34.2808 167.016L33.4062 168.423" stroke="#321D0F" stroke-width="0.5" stroke-linecap="round"/>
    <path d="M34.8896 171.009C34.8896 171.021 34.8896 171.034 34.8081 171.442C34.7265 171.85 34.5634 172.653 34.4605 173.111C34.3577 173.568 34.32 173.656 34.2812 173.822" stroke="#321D0F" stroke-width="0.5" stroke-linecap="round"/>
    <path d="M37.3613 168.956C37.3613 168.993 37.3613 169.031 37.1856 169.59C37.0099 170.149 36.6586 171.228 36.4588 171.809C36.259 172.39 36.2213 172.44 36.1445 172.53" stroke="#321D0F" stroke-width="0.5" stroke-linecap="round"/>
    <path d="M38.9949 168.537C38.8066 169.24 38.6184 169.942 38.4023 170.562C38.1861 171.181 37.9477 171.695 37.6641 172.263" stroke="#321D0F" stroke-width="0.5" stroke-linecap="round"/>
    <path d="M40.3617 167.625C40.3366 168.29 40.3115 168.955 40.261 169.41C40.2104 169.866 40.1351 170.091 40.0195 170.324" stroke="#321D0F" stroke-width="0.5" stroke-linecap="round"/>
    <path d="M41.4664 169.298C41.4664 169.323 41.4664 169.348 41.4288 169.562C41.3911 169.775 41.3158 170.177 41.2383 170.591" stroke="#321D0F" stroke-width="0.5" stroke-linecap="round"/>
    <path d="M45.5742 161.237C45.5868 161.237 45.5993 161.237 45.6748 161.732C45.7503 162.228 45.8883 163.219 45.9594 163.874C46.0305 164.529 46.0305 164.818 46.0242 165.004C46.0179 165.19 46.0054 165.266 45.9925 165.381" stroke="#321D0F" stroke-width="0.5" stroke-linecap="round"/>
    <path d="M43.2537 158.195C43.2412 158.22 43.2286 158.245 43.0402 158.578C42.8518 158.911 42.4879 159.551 42.2879 159.918C42.0879 160.285 42.0628 160.361 41.9609 160.514" stroke="#321D0F" stroke-width="0.5" stroke-linecap="round"/>
    <path d="M41.1986 159.564C41.1861 159.564 41.1735 159.564 40.7718 159.953C40.3701 160.342 39.5796 161.12 39.1473 161.552C38.5503 162.174 38.3226 162.427 38.1391 162.636C38.056 162.719 37.9933 162.757 37.8906 162.834" stroke="#321D0F" stroke-width="0.5" stroke-linecap="round"/>
    <path d="M38.917 159.716C38.917 159.728 38.917 159.741 38.6598 160.099C38.4026 160.457 37.8881 161.159 37.598 161.534C37.3079 161.908 37.2577 161.933 37.168 161.959" stroke="#321D0F" stroke-width="0.5" stroke-linecap="round"/>
    <path d="M38.9185 154.469L38.082 156.218" stroke="#321D0F" stroke-width="0.5" stroke-linecap="round"/>
    <path d="M37.8902 152.416C37.8902 152.428 37.8902 152.441 37.7333 152.893C37.5765 153.344 37.2628 154.235 37.0698 154.757C36.8141 155.404 36.7244 155.609 36.655 155.779C36.6107 155.874 36.548 155.987 36.4453 156.104" stroke="#321D0F" stroke-width="0.5" stroke-linecap="round"/>
    <path d="M36.523 153.86C36.523 153.873 36.523 153.885 36.2909 154.406C36.0587 154.927 35.5945 155.956 35.0781 157.016" stroke="#321D0F" stroke-width="0.5" stroke-linecap="round"/>
    <path d="M44.735 148.461C44.735 148.473 44.735 148.486 44.5091 148.762C44.2833 149.039 43.8315 149.578 43.3281 150.172" stroke="#321D0F" stroke-width="0.5" stroke-linecap="round"/>
    <path d="M44.0892 146.294C44.0766 146.306 44.0641 146.319 43.7502 146.714C43.4363 147.11 42.8215 147.888 42.4797 148.307C42.1378 148.727 42.0877 148.765 42.043 148.797C41.9983 148.829 41.9607 148.854 41.9219 148.879" stroke="#321D0F" stroke-width="0.5" stroke-linecap="round"/>
    <path d="M43.1407 144.393C42.6388 145.296 42.3426 145.812 42.2667 145.906C42.2285 145.951 42.1909 145.989 42.1589 146.027C42.127 146.065 42.1019 146.103 42 146.218" stroke="#321D0F" stroke-width="0.5" stroke-linecap="round"/>
    <path d="M42.0363 145.229L40.9336 146.294" stroke="#321D0F" stroke-width="0.5" stroke-linecap="round"/>
    <path d="M46.7152 137.054L44.5859 140.02" stroke="#321D0F" stroke-width="0.5" stroke-linecap="round"/>
    <path d="M47.2066 138.841L46.332 140.21" stroke="#321D0F" stroke-width="0.5" stroke-linecap="round"/>
    <path d="M49.8681 139.335C49.5167 139.85 49.1654 140.364 48.8778 140.755C48.5901 141.145 48.3768 141.396 48.2544 141.544C48.1319 141.692 48.1068 141.73 48.043 141.807" stroke="#321D0F" stroke-width="0.5" stroke-linecap="round"/>
    <path d="M49.6013 140.971C49.5888 140.971 49.5762 140.971 49.4694 141.165C49.3626 141.36 49.1618 141.749 48.8789 142.149" stroke="#321D0F" stroke-width="0.5" stroke-linecap="round"/>
    <path d="M51.3912 138.195C51.3281 138.942 51.252 139.17 51.075 139.594C50.8908 140.035 50.6817 140.678 50.5994 140.906C50.5802 140.97 50.5676 141.045 50.5612 141.115C50.5547 141.185 50.5547 141.248 50.5547 141.313" stroke="#321D0F" stroke-width="0.5" stroke-linecap="round"/>
    <path d="M53.748 133.518C53.7229 133.719 53.6978 133.92 53.6221 134.28C53.5464 134.641 53.421 135.155 53.3249 135.483C53.2289 135.811 53.1662 135.936 53.1016 136.142" stroke="#321D0F" stroke-width="0.5" stroke-linecap="round"/>
    <path d="M54.6232 134.621C54.6232 134.633 54.6232 134.646 54.5416 134.934C54.4601 135.223 54.297 135.788 54.1289 136.37" stroke="#321D0F" stroke-width="0.5" stroke-linecap="round"/>
    <path d="M56.2183 131.883C56.2183 131.896 56.2183 131.908 56.074 132.436C55.9297 132.963 55.6411 134.004 55.4924 134.603C55.3438 135.203 55.3438 135.328 55.3438 135.457" stroke="#321D0F" stroke-width="0.5" stroke-linecap="round"/>
    <path d="M54.318 127.207C54.3055 127.244 54.2929 127.282 54.161 127.69C54.029 128.099 53.7781 128.877 53.5195 129.754" stroke="#321D0F" stroke-width="0.5" stroke-linecap="round"/>
    <path d="M54.3548 125.077C54.3423 125.09 54.3297 125.102 54.0409 125.611C53.7521 126.119 53.1875 127.123 52.8464 127.784C52.289 129.094 52.2385 129.297 52.2004 129.449C52.1875 129.525 52.1875 129.6 52.1875 129.678" stroke="#321D0F" stroke-width="0.5" stroke-linecap="round"/>
    <path d="M53.822 122.605C53.2699 123.521 52.7178 124.437 52.3456 125.091C51.9733 125.745 51.7977 126.109 51.6695 126.403C51.5414 126.697 51.4661 126.91 51.4148 127.102C51.3635 127.293 51.3384 127.456 51.3125 127.624" stroke="#321D0F" stroke-width="0.5" stroke-linecap="round"/>
    <path d="M59.1868 117.739L57.5898 119.868" stroke="#321D0F" stroke-width="0.5" stroke-linecap="round"/>
    <path d="M58.0063 116.826C58.0189 116.826 58.0314 116.826 57.8058 117.178C57.5801 117.529 57.1158 118.231 56.8641 118.612C56.6124 118.993 56.5873 119.031 56.5234 119.108" stroke="#321D0F" stroke-width="0.5" stroke-linecap="round"/>
    <path d="M58.9947 114.012C58.9571 114.062 58.9194 114.113 58.4295 114.647C57.9396 115.181 56.9985 116.197 56.4008 116.89C55.8031 117.583 55.5772 117.922 55.4421 118.134C55.3069 118.346 55.2693 118.421 55.2305 118.499" stroke="#321D0F" stroke-width="0.5" stroke-linecap="round"/>
    <path d="M42.1845 183.075C42.0736 183.981 41.9627 184.886 41.8178 185.727C41.6729 186.568 41.4973 187.317 41.3164 188.172" stroke="#321D0F" stroke-width="0.5" stroke-linecap="round"/>
    <path d="M42.6895 184.335C42.6987 184.345 42.708 184.354 42.6942 184.664C42.6805 184.973 42.6436 185.583 42.6055 186.212" stroke="#321D0F" stroke-width="0.5" stroke-linecap="round"/>
    <path d="M39.2999 186.043C39.2999 186.062 39.2999 186.08 39.2167 186.39C39.1335 186.7 38.9672 187.301 38.8445 187.68C38.7219 188.058 38.648 188.197 38.5221 188.388C38.3962 188.58 38.2206 188.82 38.0117 189.096" stroke="#321D0F" stroke-width="0.5" stroke-linecap="round"/>
    <path d="M37.3677 185.624C37.1551 186.492 36.9426 187.361 36.8007 187.961C36.6589 188.561 36.5942 188.866 36.4916 189.208C36.3889 189.55 36.2503 189.919 36.1466 190.174C35.9781 190.559 35.9022 190.729 35.8836 190.799C35.8742 190.832 35.865 190.86 35.8555 190.888" stroke="#321D0F" stroke-width="0.5" stroke-linecap="round"/>
    <path d="M35.6289 186.156C35.6289 186.165 35.6289 186.174 35.4764 186.549C35.324 186.923 35.019 187.662 34.7233 188.311C34.4276 188.96 34.1503 189.496 33.9937 189.818C33.837 190.141 33.8093 190.233 33.7441 190.401C33.679 190.569 33.5774 190.809 33.4727 191.112" stroke="#321D0F" stroke-width="0.5" stroke-linecap="round"/>
    <path d="M32.4669 191.084L32.2148 191.981" stroke="#321D0F" stroke-width="0.5" stroke-linecap="round"/>
    <path d="M27.2007 188.48L26.6406 190.188" stroke="#321D0F" stroke-width="0.5" stroke-linecap="round"/>
    <path d="M26.4751 186.016C26.2164 187.004 25.9576 187.993 25.755 188.674C25.5524 189.354 25.4138 189.696 25.3054 189.932C25.0285 190.458 24.9355 190.645 24.8423 190.803C24.8045 190.869 24.786 190.906 24.7109 191" stroke="#321D0F" stroke-width="0.5" stroke-linecap="round"/>
    <path d="M24.1201 189.04C23.8059 189.65 23.4917 190.26 23.3022 190.62C23.1126 190.981 23.0571 191.073 23 191.196" stroke="#321D0F" stroke-width="0.5" stroke-linecap="round"/>
    <path d="M58.1521 135.669L57.5859 139.208" stroke="#321D0F" stroke-width="0.5" stroke-linecap="round"/>
    <path d="M59.6154 154.117C59.3974 155.192 59.1795 156.266 59.0905 156.882C59.0016 157.497 59.0483 157.622 59.0801 157.709C59.112 157.797 59.1276 157.844 59.1436 157.892" stroke="#321D0F" stroke-width="0.5" stroke-linecap="round"/>
    <path d="M61.2227 155.721L60.6094 159.826" stroke="#321D0F" stroke-width="0.5" stroke-linecap="round"/>
    <path d="M60.7009 164.875C60.6854 164.906 60.6698 164.937 60.436 165.591C60.2022 166.246 59.7507 167.522 59.2383 168.838" stroke="#321D0F" stroke-width="0.5" stroke-linecap="round"/>
    <path d="M59.6151 172.235L59.332 176.151" stroke="#321D0F" stroke-width="0.5" stroke-linecap="round"/>
    <path d="M58.3892 173.509L58.0117 175.916" stroke="#321D0F" stroke-width="0.5" stroke-linecap="round"/>
    <path d="M58.9571 187.805C58.9571 187.821 58.9571 187.836 58.8559 188.304C58.7547 188.771 58.5523 189.69 58.448 190.194C58.3438 190.698 58.3438 190.761 58.3438 190.825" stroke="#321D0F" stroke-width="0.5" stroke-linecap="round"/>
    <path d="M61.7854 191.769C61.7543 192.672 61.7231 193.575 61.7227 194.164C61.7222 194.754 61.7533 195.003 61.7927 195.178C61.8321 195.353 61.8788 195.447 61.927 195.543" stroke="#321D0F" stroke-width="0.5" stroke-linecap="round"/>
    <path d="M64.1931 193.514C63.7571 194.417 63.517 194.96 63.4934 195.148C63.4854 195.399 63.5165 195.714 63.6182 196.044C63.6887 196.202 63.7977 196.342 63.9572 196.534" stroke="#321D0F" stroke-width="0.5" stroke-linecap="round"/>
    <path d="M65.8434 195.119C65.8278 195.134 65.8123 195.15 65.9132 195.703C66.0142 196.256 66.2322 197.346 66.4068 197.938C66.5813 198.531 66.7059 198.593 66.8342 198.657" stroke="#321D0F" stroke-width="0.5" stroke-linecap="round"/>
    <path d="M104.07 110.14C104.076 110.17 104.082 110.2 104.292 110.395C104.501 110.589 104.914 110.947 105.339 111.316" stroke="#321D0F" stroke-width="0.5" stroke-linecap="round"/>
    <path d="M104.457 109C105.13 109.528 105.804 110.055 106.214 110.373C106.625 110.69 106.752 110.781 106.883 110.875" stroke="#321D0F" stroke-width="0.5" stroke-linecap="round"/>
    <path d="M106.293 109.368C106.857 109.78 107.421 110.193 107.797 110.454C108.172 110.715 108.342 110.812 108.484 110.886C108.626 110.96 108.735 111.009 108.848 111.059" stroke="#321D0F" stroke-width="0.5" stroke-linecap="round"/>
    <path d="M111.074 111.003C111.402 111.398 111.729 111.792 112.019 112.116C112.309 112.441 112.552 112.683 112.802 112.933" stroke="#321D0F" stroke-width="0.5" stroke-linecap="round"/>
    <path d="M113.684 111.592C114.242 112.144 114.8 112.696 115.19 113.089C115.581 113.483 115.787 113.701 115.999 113.926" stroke="#321D0F" stroke-width="0.5" stroke-linecap="round"/>
    <path d="M117.066 112.253C117.066 112.259 117.066 112.266 117.315 112.62C117.564 112.975 118.061 113.679 118.342 114.06C118.622 114.44 118.671 114.477 118.721 114.514" stroke="#321D0F" stroke-width="0.5" stroke-linecap="round"/>
    <path d="M108.371 118.484C108.978 118.818 109.584 119.152 109.924 119.348C110.264 119.544 110.318 119.592 110.365 119.642C110.411 119.691 110.447 119.739 110.503 119.789" stroke="#321D0F" stroke-width="0.5" stroke-linecap="round"/>
    <path d="M110.668 117.951C110.674 117.957 110.68 117.963 110.95 118.164C111.22 118.364 111.754 118.758 112.059 119.037C112.364 119.316 112.425 119.468 112.465 119.579C112.549 119.868 112.573 119.979 112.592 120.025C112.598 120.046 112.598 120.065 112.598 120.083" stroke="#321D0F" stroke-width="0.5" stroke-linecap="round"/>
    <path d="M113.426 118.411C113.426 118.423 113.426 118.435 113.614 118.705C113.802 118.975 114.178 119.503 114.517 119.948C114.856 120.392 115.148 120.738 115.448 121.094" stroke="#321D0F" stroke-width="0.5" stroke-linecap="round"/>
    <path d="M118.074 124.182C118.347 124.667 118.62 125.153 118.794 125.457C118.968 125.762 119.035 125.871 119.104 125.983" stroke="#321D0F" stroke-width="0.5" stroke-linecap="round"/>
    <path d="M119.324 123.208C119.627 123.711 119.931 124.215 120.129 124.559C120.328 124.903 120.413 125.073 120.469 125.203C120.525 125.333 120.549 125.418 120.574 125.506" stroke="#321D0F" stroke-width="0.5" stroke-linecap="round"/>
    <path d="M121.184 124.219C121.457 124.934 121.729 125.65 121.888 126.086C122.047 126.521 122.083 126.654 122.114 126.832C122.145 127.01 122.17 127.229 122.195 127.49" stroke="#321D0F" stroke-width="0.5" stroke-linecap="round"/>
    <path d="M124.453 122.528C124.884 122.971 125.314 123.413 125.576 123.678C125.837 123.942 125.916 124.015 126.063 124.189C126.209 124.363 126.422 124.636 126.586 124.88C126.75 125.123 126.859 125.33 126.991 125.688C127.123 126.046 127.274 126.549 127.431 127.068" stroke="#321D0F" stroke-width="0.5" stroke-linecap="round"/>
    <path d="M127.062 124.017C127.062 124.023 127.062 124.029 127.266 124.435C127.469 124.842 127.875 125.648 128.097 126.097C128.318 126.546 128.342 126.613 128.379 126.702C128.416 126.791 128.465 126.9 128.493 126.968C128.521 127.037 128.527 127.061 128.533 127.086" stroke="#321D0F" stroke-width="0.5" stroke-linecap="round"/>
    <path d="M129.195 125.046C129.505 125.61 129.814 126.174 129.992 126.501C130.169 126.828 130.205 126.901 130.243 126.976" stroke="#321D0F" stroke-width="0.5" stroke-linecap="round"/>
    <path d="M120.023 135.964C120.03 135.976 120.036 135.988 120.357 136.756C120.679 137.523 121.316 139.045 121.659 139.854C122.002 140.663 122.032 140.711 122.064 140.761" stroke="#321D0F" stroke-width="0.5" stroke-linecap="round"/>
    <path d="M122.066 138.886C122.079 138.904 122.091 138.923 122.273 139.299C122.455 139.675 122.807 140.409 123.169 141.165" stroke="#321D0F" stroke-width="0.5" stroke-linecap="round"/>
    <path d="M123.699 134.089C124.106 135.065 124.512 136.042 124.794 136.706C125.076 137.37 125.222 137.691 125.372 138.022" stroke="#321D0F" stroke-width="0.5" stroke-linecap="round"/>
    <path d="M127.414 135.909C127.887 136.758 128.36 137.607 128.722 138.287C129.084 138.967 129.321 139.452 129.565 139.952" stroke="#321D0F" stroke-width="0.5" stroke-linecap="round"/>
    <path d="M128.938 135.265C128.956 135.277 128.974 135.289 129.265 135.857C129.557 136.424 130.121 137.546 130.493 138.361C130.866 139.175 131.03 139.648 131.198 140.136" stroke="#321D0F" stroke-width="0.5" stroke-linecap="round"/>
    <path d="M132.504 137.912C132.51 137.93 132.516 137.949 132.662 138.476C132.807 139.004 133.092 140.042 133.239 140.655C133.386 141.268 133.386 141.426 133.38 141.516C133.374 141.606 133.362 141.625 133.349 141.643" stroke="#321D0F" stroke-width="0.5" stroke-linecap="round"/>
    <path d="M135.371 141.037C135.541 141.734 135.711 142.432 135.844 142.858C135.977 143.284 136.068 143.417 136.166 143.544C136.265 143.67 136.368 143.785 136.454 143.875C136.541 143.965 136.607 144.025 136.676 144.088" stroke="#321D0F" stroke-width="0.5" stroke-linecap="round"/>
    <path d="M137.301 141.992C137.301 141.998 137.301 142.004 137.395 142.268C137.489 142.532 137.677 143.054 137.792 143.353C137.907 143.652 137.943 143.713 138.026 143.829C138.108 143.945 138.236 144.115 138.367 144.29" stroke="#321D0F" stroke-width="0.5" stroke-linecap="round"/>
    <path d="M140.039 142.966C140.039 142.972 140.039 142.978 140.197 143.3C140.354 143.622 140.67 144.258 140.875 144.635C141.08 145.012 141.165 145.109 141.252 145.209" stroke="#321D0F" stroke-width="0.5" stroke-linecap="round"/>
    <path d="M141.656 143.555C141.674 143.561 141.693 143.567 142.02 143.973C142.348 144.38 142.985 145.186 143.334 145.623C143.684 146.06 143.726 146.103 143.77 146.146" stroke="#321D0F" stroke-width="0.5" stroke-linecap="round"/>
    <path d="M137.449 136.276C138.092 136.78 138.735 137.283 139.212 137.646C139.689 138.008 139.98 138.214 140.28 138.427" stroke="#321D0F" stroke-width="0.5" stroke-linecap="round"/>
    <path d="M139.156 135.651C139.338 135.809 139.52 135.967 139.829 136.191C140.138 136.414 140.569 136.699 140.803 136.852C141.037 137.005 141.061 137.017 141.086 137.03" stroke="#321D0F" stroke-width="0.5" stroke-linecap="round"/>
    <path d="M136.73 130.799C137.155 131.527 137.58 132.255 137.883 132.739C138.187 133.223 138.357 133.441 138.475 133.584C138.592 133.727 138.653 133.787 138.716 133.85" stroke="#321D0F" stroke-width="0.5" stroke-linecap="round"/>
    <path d="M138.59 149.859L140.152 152.487" stroke="#321D0F" stroke-width="0.5" stroke-linecap="round"/>
    <path d="M141.602 151.219C141.984 151.814 142.366 152.408 142.693 152.89C143.02 153.372 143.281 153.724 143.437 153.927C143.592 154.129 143.635 154.171 143.679 154.215" stroke="#321D0F" stroke-width="0.5" stroke-linecap="round"/>
    <path d="M144.121 151.844C144.394 152.487 144.667 153.13 144.859 153.586C145.051 154.041 145.154 154.29 145.261 154.546" stroke="#321D0F" stroke-width="0.5" stroke-linecap="round"/>
    <path d="M146.328 152.689C146.455 152.908 146.583 153.126 146.77 153.46C146.957 153.794 147.199 154.237 147.367 154.616C147.534 154.996 147.619 155.299 147.678 155.577C147.737 155.855 147.767 156.097 147.799 156.347" stroke="#321D0F" stroke-width="0.5" stroke-linecap="round"/>
    <path d="M148.77 154.16C148.77 154.166 148.77 154.172 148.876 154.473C148.982 154.773 149.194 155.367 149.316 155.698C149.437 156.028 149.461 156.077 149.48 156.111C149.498 156.145 149.511 156.163 149.523 156.182" stroke="#321D0F" stroke-width="0.5" stroke-linecap="round"/>
    <path d="M150.5 155.318C150.676 155.779 150.852 156.24 150.961 156.505C151.069 156.769 151.106 156.824 151.162 156.917" stroke="#321D0F" stroke-width="0.5" stroke-linecap="round"/>
    <path d="M133.02 149.822C133.026 149.828 133.032 149.834 133.353 150.329C133.675 150.823 134.312 151.806 134.968 152.818" stroke="#321D0F" stroke-width="0.5" stroke-linecap="round"/>
    <path d="M131.254 149.216C131.254 149.234 131.254 149.252 131.503 149.771C131.751 150.29 132.249 151.309 132.584 151.925C132.919 152.541 133.076 152.723 133.194 152.841C133.312 152.959 133.385 153.007 133.46 153.057" stroke="#321D0F" stroke-width="0.5" stroke-linecap="round"/>
    <path d="M129.051 148.848C129.348 149.358 129.645 149.867 129.917 150.293C130.188 150.72 130.425 151.047 130.559 151.225C130.692 151.403 130.717 151.421 130.742 151.44" stroke="#321D0F" stroke-width="0.5" stroke-linecap="round"/>
    <path d="M128.203 148.462C128.519 149.051 128.834 149.639 129.054 150.018C129.274 150.397 129.389 150.549 129.508 150.705" stroke="#321D0F" stroke-width="0.5" stroke-linecap="round"/>
    <path d="M125.152 149.969L126.512 152.671" stroke="#321D0F" stroke-width="0.5" stroke-linecap="round"/>
    <path d="M129.121 154.215C129.127 154.215 129.133 154.215 129.227 154.594C129.321 154.974 129.503 155.732 129.649 156.253C129.794 156.774 129.897 157.034 130.005 157.266C130.113 157.497 130.222 157.691 130.334 157.891" stroke="#321D0F" stroke-width="0.5" stroke-linecap="round"/>
    <path d="M130.777 155.814C130.777 155.821 130.777 155.827 130.82 156.16C130.862 156.494 130.947 157.155 131.006 157.523C131.065 157.891 131.095 157.945 131.127 158.02" stroke="#321D0F" stroke-width="0.5" stroke-linecap="round"/>
    <path d="M132.945 157.652C132.951 157.652 132.957 157.652 133.07 158.065C133.182 158.477 133.4 159.302 133.625 160.152" stroke="#321D0F" stroke-width="0.5" stroke-linecap="round"/>
    <path d="M135.793 159.527L136.326 161.383" stroke="#321D0F" stroke-width="0.5" stroke-linecap="round"/>
    <path d="M138.129 161.53C138.208 162.185 138.287 162.84 138.4 163.378C138.513 163.916 138.659 164.316 138.773 164.562C138.967 164.886 139.103 165.01 139.203 165.08C139.25 165.108 139.286 165.12 139.324 165.133" stroke="#321D0F" stroke-width="0.5" stroke-linecap="round"/>
    <path d="M139.984 162.652C139.984 162.658 139.984 162.664 140.06 162.97C140.136 163.277 140.288 163.883 140.387 164.241C140.486 164.599 140.529 164.69 140.645 164.867C140.761 165.045 140.949 165.306 141.064 165.458C141.179 165.611 141.215 165.647 141.253 165.685" stroke="#321D0F" stroke-width="0.5" stroke-linecap="round"/>
    <path d="M140.867 160.428L141.363 162.468" stroke="#321D0F" stroke-width="0.5" stroke-linecap="round"/>
    <path d="M145.113 162.835C145.423 163.442 145.732 164.049 146.004 164.534C146.275 165.019 146.5 165.365 146.63 165.561C146.761 165.758 146.791 165.794 146.823 165.831" stroke="#321D0F" stroke-width="0.5" stroke-linecap="round"/>
    <path d="M147.008 163.846C147.19 164.398 147.372 164.95 147.535 165.416C147.699 165.883 147.838 166.247 147.982 166.622" stroke="#321D0F" stroke-width="0.5" stroke-linecap="round"/>
    <path d="M149.305 164.839C149.305 164.845 149.305 164.851 149.414 165.248C149.523 165.646 149.741 166.434 149.881 166.904C150.021 167.374 150.076 167.501 150.179 167.691C150.283 167.881 150.435 168.13 150.525 168.273C150.64 168.447 150.683 168.508 150.72 168.557C150.738 168.576 150.756 168.582 150.775 168.588" stroke="#321D0F" stroke-width="0.5" stroke-linecap="round"/>
    <path d="M151.914 166.309C152.09 166.891 152.266 167.474 152.39 167.84C152.514 168.207 152.581 168.34 152.651 168.461C152.722 168.581 152.795 168.684 152.87 168.79" stroke="#321D0F" stroke-width="0.5" stroke-linecap="round"/>
    <path d="M153.551 167.835L154.102 169.618" stroke="#321D0F" stroke-width="0.5" stroke-linecap="round"/>
    <path d="M137.277 167.359C137.289 167.359 137.301 167.359 137.425 167.818C137.548 168.276 137.783 169.193 137.91 169.736C138.097 170.742 138.168 171.148 138.174 171.236C138.18 171.278 138.192 171.314 138.204 171.35" stroke="#321D0F" stroke-width="0.5" stroke-linecap="round"/>
    <path d="M139.664 169.96C140.087 171.253 140.511 172.547 140.846 173.513C141.182 174.479 141.417 175.079 141.562 175.418C141.707 175.756 141.754 175.815 141.802 175.875" stroke="#321D0F" stroke-width="0.5" stroke-linecap="round"/>
    <path d="M142.48 173.773C142.48 173.785 142.48 173.796 142.551 174.049C142.622 174.302 142.763 174.796 142.908 175.305" stroke="#321D0F" stroke-width="0.5" stroke-linecap="round"/>
    <path d="M143.301 172.098C143.301 172.11 143.301 172.122 143.483 172.569C143.665 173.016 144.03 173.898 144.405 174.806" stroke="#321D0F" stroke-width="0.5" stroke-linecap="round"/>
    <path d="M145.012 173.346C145.012 173.44 145.012 173.534 145.147 174.147C145.282 174.76 145.553 175.889 145.831 177.052" stroke="#321D0F" stroke-width="0.5" stroke-linecap="round"/>
    <path d="M147.754 173.809C147.754 173.82 147.754 173.832 147.936 174.367C148.118 174.903 148.483 175.961 148.683 176.583C148.882 177.204 148.906 177.357 148.93 177.55" stroke="#321D0F" stroke-width="0.5" stroke-linecap="round"/>
    <path d="M150.641 174.949C150.782 176.102 150.923 177.254 150.99 177.889C151.056 178.524 151.045 178.606 151.039 178.707C151.033 178.808 151.033 178.926 151.033 179.047" stroke="#321D0F" stroke-width="0.5" stroke-linecap="round"/>
    <path d="M153.242 178.156L153.42 179.297" stroke="#321D0F" stroke-width="0.5" stroke-linecap="round"/>
    <path d="M153.527 175.84L154.311 179.189" stroke="#321D0F" stroke-width="0.5" stroke-linecap="round"/>
    <path d="M150.711 182.005C150.711 182.017 150.711 182.028 150.993 182.593C151.275 183.158 151.84 184.275 152.493 185.426" stroke="#321D0F" stroke-width="0.5" stroke-linecap="round"/>
    <path d="M152.707 184.285L153.384 185.817" stroke="#321D0F" stroke-width="0.5" stroke-linecap="round"/>
    <path d="M147.895 183.501C148.318 184.407 148.741 185.312 148.977 185.814C149.213 186.316 149.248 186.386 149.284 186.44C149.32 186.494 149.355 186.53 149.427 186.637" stroke="#321D0F" stroke-width="0.5" stroke-linecap="round"/>
    <path d="M147.184 183.751L147.968 185.782" stroke="#321D0F" stroke-width="0.5" stroke-linecap="round"/>
    <path d="M144.441 186.103L144.976 187.884" stroke="#321D0F" stroke-width="0.5" stroke-linecap="round"/>
    <path d="M142.195 181.648C142.372 182.73 142.548 183.812 142.686 184.587C142.824 185.362 142.918 185.797 142.978 186.056C143.038 186.316 143.062 186.386 143.086 186.459" stroke="#321D0F" stroke-width="0.5" stroke-linecap="round"/>
    <path d="M140.164 181.007C140.246 182.018 140.329 183.029 140.389 183.991C140.449 184.953 140.484 185.835 140.52 186.744" stroke="#321D0F" stroke-width="0.5" stroke-linecap="round"/>
    <path d="M138.844 184.321C138.879 184.838 138.914 185.356 138.938 185.64C138.962 185.924 138.974 185.959 138.986 185.996" stroke="#321D0F" stroke-width="0.5" stroke-linecap="round"/>
    <path d="M137.703 183.608C137.715 184.138 137.727 184.667 137.744 184.957C137.762 185.247 137.786 185.283 137.81 185.319" stroke="#321D0F" stroke-width="0.5" stroke-linecap="round"/>
    <path d="M135.354 189.559C135.307 190.382 135.26 191.205 135.23 191.765C135.2 192.324 135.188 192.594 135.176 192.873" stroke="#321D0F" stroke-width="0.5" stroke-linecap="round"/>
    <path d="M136.102 189.951C136.172 190.763 136.243 191.574 136.285 192.115C136.327 192.657 136.339 192.904 136.363 193.137C136.386 193.37 136.422 193.582 136.458 193.871" stroke="#321D0F" stroke-width="0.5" stroke-linecap="round"/>
    <path d="M137.633 192.375V194.477" stroke="#321D0F" stroke-width="0.5" stroke-linecap="round"/>
    <path d="M141.234 191.59C141.611 192.496 141.987 193.401 142.21 193.927C142.67 194.855 142.98 195.26 143.134 195.402C143.217 195.474 143.311 195.544 143.408 195.617" stroke="#321D0F" stroke-width="0.5" stroke-linecap="round"/>
    <path d="M143.941 190.984C143.953 190.996 143.965 191.008 144.224 191.678C144.483 192.349 144.988 193.678 145.355 194.515C145.721 195.352 145.933 195.658 146.151 195.973" stroke="#321D0F" stroke-width="0.5" stroke-linecap="round"/>
    <path d="M143.512 193.8C143.512 193.812 143.512 193.823 143.694 194.188C143.876 194.553 144.241 195.27 144.616 196.009" stroke="#321D0F" stroke-width="0.5" stroke-linecap="round"/>
    <path d="M138.882 198.575C138.882 198.586 138.882 198.598 138.799 198.951C138.717 199.304 138.552 199.998 138.468 200.479C138.383 200.96 138.383 201.207 138.383 201.461" stroke="#321D0F" stroke-width="0.5" stroke-linecap="round"/>
    <path d="M139.522 198.896C139.522 198.907 139.522 198.919 139.493 199.172C139.464 199.425 139.405 199.919 139.369 200.191C139.332 200.463 139.321 200.498 139.309 200.57" stroke="#321D0F" stroke-width="0.5" stroke-linecap="round"/>
    <path d="M140.841 197.292C140.841 197.339 140.841 197.386 140.752 197.84C140.664 198.293 140.488 199.151 140.379 199.617C140.271 200.083 140.236 200.13 140.199 200.178" stroke="#321D0F" stroke-width="0.5" stroke-linecap="round"/>
    <path d="M147.363 198.682C147.904 200.328 148.23 201.258 148.336 201.43C148.396 201.52 148.467 201.614 148.521 201.668C148.574 201.722 148.61 201.734 148.646 201.746" stroke="#321D0F" stroke-width="0.5" stroke-linecap="round"/>
    <path d="M146.863 188.49C146.91 188.678 147.017 189.128 147.195 189.798C147.279 190.118 147.396 190.385 147.544 190.689C147.881 191.322 148.134 191.709 148.246 191.804C148.3 191.851 148.347 191.898 148.431 191.947" stroke="#321D0F" stroke-width="0.5" stroke-linecap="round"/>
    <path d="M148.715 190.379C148.95 190.99 149.185 191.602 149.348 191.958C149.51 192.314 149.592 192.397 149.713 192.481" stroke="#321D0F" stroke-width="0.5" stroke-linecap="round"/>
    <path d="M149.18 188.348C149.603 189.43 150.026 190.511 150.374 191.245C150.721 191.979 150.98 192.332 151.166 192.566C151.352 192.801 151.458 192.907 151.603 193.087" stroke="#321D0F" stroke-width="0.5" stroke-linecap="round"/>
    <path d="M108.043 157.267L108.999 161.092" stroke="#321D0F" stroke-width="0.5" stroke-linecap="round"/>
    <path d="M110.352 158.111L110.914 161.542" stroke="#321D0F" stroke-width="0.5" stroke-linecap="round"/>
    <path d="M111.645 151.249C112.127 152.102 112.61 152.956 112.895 153.442C113.181 153.929 113.255 154.021 113.312 154.125C113.369 154.228 113.406 154.34 113.501 154.567" stroke="#321D0F" stroke-width="0.5" stroke-linecap="round"/>
    <path d="M113.164 151.417C113.164 151.436 113.164 151.455 113.396 151.993C113.628 152.532 114.092 153.59 114.57 154.68" stroke="#321D0F" stroke-width="0.5" stroke-linecap="round"/>
    <path d="M114.57 149.73C114.589 149.767 114.607 149.804 114.812 150.278C115.016 150.752 115.406 151.661 115.808 152.599" stroke="#321D0F" stroke-width="0.5" stroke-linecap="round"/>
    <path d="M114.906 143.937L116.425 147.199" stroke="#321D0F" stroke-width="0.5" stroke-linecap="round"/>
    <path d="M113.41 159.771C113.96 161.087 114.51 162.403 114.832 163.144C115.155 163.886 115.233 164.013 115.314 164.145" stroke="#321D0F" stroke-width="0.5" stroke-linecap="round"/>
    <path d="M115.492 161.973C115.492 162.003 115.492 162.032 115.585 162.317C115.679 162.602 115.865 163.142 116.057 163.699" stroke="#321D0F" stroke-width="0.5" stroke-linecap="round"/>
    <path d="M117.188 158.641C117.345 159.328 117.502 160.016 117.597 160.424C117.693 160.832 117.722 160.94 117.783 161.11" stroke="#321D0F" stroke-width="0.5" stroke-linecap="round"/>
    <path d="M111.359 167.656C111.359 167.666 111.359 167.675 111.634 168.422C111.909 169.168 112.459 170.65 112.816 171.669C113.173 172.688 113.32 173.199 113.406 173.482C113.491 173.764 113.511 173.804 113.531 173.844" stroke="#321D0F" stroke-width="0.5" stroke-linecap="round"/>
    <path d="M113.617 170.095C113.784 170.684 113.951 171.273 114.106 171.768C114.26 172.263 114.398 172.646 114.483 172.873C114.569 173.099 114.598 173.158 114.633 173.218C114.668 173.278 114.707 173.337 114.777 173.457" stroke="#321D0F" stroke-width="0.5" stroke-linecap="round"/>
    <path d="M114.988 171.553C115.145 172.28 115.302 173.006 115.442 173.538C115.582 174.069 115.7 174.383 115.785 174.594C115.919 174.903 116 175.093 116.069 175.276C116.108 175.37 116.157 175.468 116.208 175.57" stroke="#321D0F" stroke-width="0.5" stroke-linecap="round"/>
    <path d="M112.371 179.646C112.371 179.655 112.371 179.665 112.518 179.999C112.666 180.333 112.96 180.991 113.244 181.565C113.529 182.14 113.794 182.611 114.126 183.126" stroke="#321D0F" stroke-width="0.5" stroke-linecap="round"/>
    <path d="M113.945 179.526C114.417 180.822 114.708 181.598 114.793 181.796C114.907 182.084 114.996 182.243 115.021 182.317C115.036 182.352 115.056 182.382 115.076 182.412" stroke="#321D0F" stroke-width="0.5" stroke-linecap="round"/>
    <path d="M115.879 180.24L116.563 182.442" stroke="#321D0F" stroke-width="0.5" stroke-linecap="round"/>
    <path d="M111.445 186.072C111.779 186.975 112.113 187.878 112.314 188.456C112.516 189.035 112.575 189.26 112.605 189.392C112.635 189.523 112.635 189.552 112.635 189.582" stroke="#321D0F" stroke-width="0.5" stroke-linecap="round"/>
    <path d="M110.583 186.786C110.563 186.766 110.543 186.747 110.543 186.751C110.541 186.79 110.602 186.874 110.696 187.386C110.778 187.837 110.897 188.683 110.973 189.152C111.068 189.69 111.098 189.849 111.113 190.022C111.118 190.107 111.118 190.186 111.148 190.326" stroke="#321D0F" stroke-width="0.5" stroke-linecap="round"/>
    <path d="M108.59 189.582C108.6 189.592 108.609 189.602 108.649 189.891C108.688 190.181 108.757 190.751 108.792 191.073C108.828 191.396 108.828 191.455 108.823 191.5C108.818 191.545 108.808 191.575 108.798 191.665" stroke="#321D0F" stroke-width="0.5" stroke-linecap="round"/>
    <path d="M114.719 187.202C114.729 187.202 114.738 187.202 114.969 187.56C115.2 187.919 115.652 188.636 115.943 189.152C116.235 189.669 116.353 189.963 116.438 190.237C116.523 190.512 116.572 190.757 116.598 190.943C116.623 191.128 116.623 191.246 116.623 191.367" stroke="#321D0F" stroke-width="0.5" stroke-linecap="round"/>
    <path d="M117.07 187.232C117.453 187.919 117.836 188.606 118.038 188.975C118.24 189.344 118.25 189.373 118.26 189.404" stroke="#321D0F" stroke-width="0.5" stroke-linecap="round"/>
    <path d="M110.762 195.949C110.772 195.959 110.781 195.968 110.919 196.253C111.057 196.538 111.322 197.098 111.468 197.43C111.614 197.763 111.634 197.851 111.644 197.921C111.654 197.991 111.654 198.04 111.654 198.091" stroke="#321D0F" stroke-width="0.5" stroke-linecap="round"/>
    <path d="M112.934 195.086C113.218 195.891 113.503 196.696 113.674 197.165C113.845 197.634 113.895 197.742 113.944 197.866C113.994 197.99 114.043 198.128 114.124 198.329" stroke="#321D0F" stroke-width="0.5" stroke-linecap="round"/>
    <path d="M114.629 192.736C115.09 193.6 115.552 194.464 115.848 195.046C116.145 195.629 116.263 195.904 116.397 196.291C116.531 196.678 116.679 197.169 116.83 197.674" stroke="#321D0F" stroke-width="0.5" stroke-linecap="round"/>
    <path d="M68.3369 112.599C68.1063 112.893 67.8757 113.188 67.6031 113.461C67.3306 113.735 67.0231 113.978 66.8455 114.117C66.6679 114.255 66.6294 114.28 66.5898 114.307" stroke="#321D0F" stroke-width="0.5" stroke-linecap="round"/>
    <path d="M68.9986 113.802L68.1445 114.19" stroke="#321D0F" stroke-width="0.5" stroke-linecap="round"/>
    <path d="M78.8186 114.869C78.5918 115.489 78.365 116.109 78.2255 116.489C78.086 116.868 78.0407 116.989 78.0098 117.089C77.9788 117.189 77.9637 117.265 77.9023 117.389" stroke="#321D0F" stroke-width="0.5" stroke-linecap="round"/>
    <path d="M79.7806 115.464C79.5236 116.069 79.2666 116.674 79.1191 117.008C78.9715 117.342 78.9413 117.387 78.9102 117.526" stroke="#321D0F" stroke-width="0.5" stroke-linecap="round"/>
    <path d="M91.5547 117.159L94.4408 115.968" stroke="#321D0F" stroke-width="0.5" stroke-linecap="round"/>
    <path d="M91.418 115.419C91.4331 115.419 91.4482 115.419 92.0002 115.298C92.5522 115.177 93.6407 114.935 94.808 114.686" stroke="#321D0F" stroke-width="0.5" stroke-linecap="round"/>
    <path d="M98.1953 113.861C98.2255 113.861 98.2558 113.861 98.9668 114.201C99.6777 114.541 101.069 115.221 101.808 115.587C102.547 115.953 102.592 115.983 102.685 116.014" stroke="#321D0F" stroke-width="0.5" stroke-linecap="round"/>
    <path d="M99.2031 113.083C99.7776 113.355 100.352 113.627 100.814 113.858C101.277 114.089 101.609 114.27 102.043 114.457" stroke="#321D0F" stroke-width="0.5" stroke-linecap="round"/>
    <path d="M124.723 113.312C125.297 113.916 125.872 114.521 126.19 114.855C126.509 115.189 126.554 115.235 126.647 115.281" stroke="#321D0F" stroke-width="0.5" stroke-linecap="round"/>
    <path d="M124.902 114.594C124.902 114.609 124.902 114.624 124.993 114.799C125.084 114.973 125.265 115.305 125.452 115.648" stroke="#321D0F" stroke-width="0.5" stroke-linecap="round"/>
    <path d="M57.0343 199.708C57.0343 199.756 57.0343 199.805 57.0222 200.423C57.0101 201.042 56.9859 202.228 56.9609 203.451" stroke="#321D0F" stroke-width="0.5" stroke-linecap="round"/>
    <path d="M58.2788 201.47L58.0586 203.598" stroke="#321D0F" stroke-width="0.5" stroke-linecap="round"/>
    <path d="M60.3362 200.589C60.3362 200.637 60.3362 200.686 60.1666 201.195C59.9971 201.705 59.658 202.673 59.3086 203.745" stroke="#321D0F" stroke-width="0.5" stroke-linecap="round"/>
    <path d="M75.0156 198.681C75.0156 198.705 75.0156 198.729 75.0641 199.129C75.1125 199.529 75.2094 200.304 75.3092 201.103" stroke="#321D0F" stroke-width="0.5" stroke-linecap="round"/>
    <path d="M76.7015 200.222L76.5547 202.277" stroke="#321D0F" stroke-width="0.5" stroke-linecap="round"/>
    <path d="M87.7142 199.708C87.7385 199.756 87.7627 199.805 87.6056 200.472C87.4485 201.139 87.1094 202.422 86.6133 203.818" stroke="#321D0F" stroke-width="0.5" stroke-linecap="round"/>
    <path d="M90.5769 198.901L89.7695 204.039" stroke="#321D0F" stroke-width="0.5" stroke-linecap="round"/>
    <path d="M89.1787 201.103L88.7383 202.864" stroke="#321D0F" stroke-width="0.5" stroke-linecap="round"/>
    <path d="M98.5039 196.992C99.1094 198.542 99.715 200.093 100.075 201C100.436 201.908 100.533 202.126 100.632 202.424" stroke="#321D0F" stroke-width="0.5" stroke-linecap="round"/>
    <path d="M100.336 196.185C100.602 197.009 100.869 197.832 101.006 198.305C101.143 198.777 101.143 198.874 101.143 198.974" stroke="#321D0F" stroke-width="0.5" stroke-linecap="round"/>
    <path d="M102.172 195.084C102.559 195.762 102.947 196.44 103.147 196.862C103.346 197.284 103.346 197.43 103.273 197.726" stroke="#321D0F" stroke-width="0.5" stroke-linecap="round"/>
    <path d="M108.998 203.305C108.998 203.329 108.998 203.353 108.913 203.886C108.828 204.42 108.659 205.461 108.511 206.107C108.363 206.752 108.242 206.97 108.117 207.195" stroke="#321D0F" stroke-width="0.5" stroke-linecap="round"/>
    <path d="M109.731 205.8C109.731 205.825 109.731 205.849 109.622 206.103C109.513 206.358 109.295 206.843 109.07 207.342" stroke="#321D0F" stroke-width="0.5" stroke-linecap="round"/>
    <path d="M111.642 205.213L111.055 208.296" stroke="#321D0F" stroke-width="0.5" stroke-linecap="round"/>
    <path d="M97.1797 205.653C97.1797 205.678 97.1797 205.702 97.216 205.908C97.2524 206.114 97.325 206.502 97.3382 206.738C97.3514 206.974 97.303 207.046 97.2531 207.121" stroke="#321D0F" stroke-width="0.5" stroke-linecap="round"/>
    <path d="M98.6507 205.653L98.5039 207.048" stroke="#321D0F" stroke-width="0.5" stroke-linecap="round"/>
    <path d="M81.0352 204.626C81.3985 205.207 81.7618 205.789 81.9611 206.124C82.1603 206.46 82.1846 206.533 82.2095 206.755" stroke="#321D0F" stroke-width="0.5" stroke-linecap="round"/>
    <path d="M81.8398 203.965C81.8641 203.965 81.8883 203.965 82.0703 204.292C82.2523 204.619 82.5914 205.273 83.0142 206.02" stroke="#321D0F" stroke-width="0.5" stroke-linecap="round"/>
    <path d="M80.1523 203.525C80.3946 204.155 80.6368 204.784 80.7615 205.242C80.8863 205.7 80.8863 205.966 80.8863 206.241" stroke="#321D0F" stroke-width="0.5" stroke-linecap="round"/>
    <path d="M71.125 204.039L72.5196 206.754" stroke="#321D0F" stroke-width="0.5" stroke-linecap="round"/>
    <path d="M70.4648 204.626C70.7071 205.135 70.9493 205.643 71.0983 205.942C71.2473 206.24 71.2957 206.313 71.3456 206.388" stroke="#321D0F" stroke-width="0.5" stroke-linecap="round"/>
    <path d="M65.3244 202.717C65.1549 203.662 64.9853 204.607 64.8617 205.142C64.738 205.677 64.6653 205.774 64.5795 205.86C64.4936 205.946 64.3967 206.019 64.2969 206.167" stroke="#321D0F" stroke-width="0.5" stroke-linecap="round"/>
    <path d="M66.8676 202.497C66.7223 203.127 66.577 203.757 66.49 204.129C66.403 204.502 66.3788 204.599 66.3421 204.698C66.3054 204.796 66.2569 204.893 66.207 205.139" stroke="#321D0F" stroke-width="0.5" stroke-linecap="round"/>
    <path d="M64.3738 202.351C64.18 203.804 64.0317 204.771 63.9462 205.137C63.9092 205.286 63.885 205.358 63.824 205.505C63.7631 205.651 63.6662 205.869 63.5664 206.167" stroke="#321D0F" stroke-width="0.5" stroke-linecap="round"/>
    <path d="M73.8059 114.388C73.2047 114.655 72.6035 114.923 72.2771 115.06C71.9506 115.198 71.9172 115.198 71.8828 115.198" stroke="#321D0F" stroke-width="0.5" stroke-linecap="round"/>
    <path d="M74.6848 115.266L73.1328 115.907" stroke="#321D0F" stroke-width="0.5" stroke-linecap="round"/>
    <path d="M62.6719 117.324L64.73 116.514" stroke="#321D0F" stroke-width="0.5" stroke-linecap="round"/>
    <path d="M64.0555 117.762C63.7771 117.974 63.4988 118.185 63.3443 118.317C63.1897 118.448 63.1675 118.492 63.1445 118.538" stroke="#321D0F" stroke-width="0.5" stroke-linecap="round"/>
    <path d="M85.3453 116.952C85.323 116.93 85.3008 116.908 85.0611 116.535C84.8213 116.161 84.3649 115.438 83.8945 114.692" stroke="#321D0F" stroke-width="0.5" stroke-linecap="round"/>
    <path d="M85.6836 116.075L85.8523 114.658" stroke="#321D0F" stroke-width="0.5" stroke-linecap="round"/>
    <path d="M86.6289 116.244C86.6289 116.233 86.6289 116.222 86.7848 115.988C86.9407 115.754 87.2524 115.297 87.4575 115.023C87.6627 114.749 87.7517 114.671 87.8435 114.591" stroke="#321D0F" stroke-width="0.5" stroke-linecap="round"/>
    <path d="M60.8125 110.58C61.1242 109.943 61.2798 109.71 61.6691 109.3C61.8127 109.176 61.9044 109.098 61.9822 109.026C62.0214 108.994 62.06 108.968 62.1388 108.941" stroke="#321D0F" stroke-width="0.5" stroke-linecap="round"/>
    <path d="M61.6328 110.775L62.491 109.683" stroke="#321D0F" stroke-width="0.5" stroke-linecap="round"/>
    <path d="M102.672 105.095L105.065 105.694" stroke="#321D0F" stroke-width="0.5" stroke-linecap="round"/>
    <path d="M102.672 104.037C103.34 104.113 104.009 104.189 104.376 104.243C104.743 104.297 104.788 104.328 104.881 104.405" stroke="#321D0F" stroke-width="0.5" stroke-linecap="round"/>
    <path d="M113.227 106.429C113.652 106.559 114.077 106.688 114.583 106.88C115.088 107.071 115.662 107.321 116.008 107.463C116.354 107.606 116.456 107.633 116.527 107.657C116.597 107.68 116.634 107.699 116.701 107.718" stroke="#321D0F" stroke-width="0.5" stroke-linecap="round"/>
    <path d="M113.086 107.382L115.299 108.278" stroke="#321D0F" stroke-width="0.5" stroke-linecap="round"/>
    <path d="M136.984 66.0678C133.905 69.5009 131.935 69.7699 128.254 69.083C131.724 62.1937 132.403 58.1125 132.004 50.2706C134.683 51.4102 136.399 52.4675 138.425 55.3119C138.959 59.4328 138.822 61.7784 136.984 66.0678Z" fill="#CA9E67"/>
    <path d="M55.9167 46.8779C53.4064 52.6575 52.3954 56.0449 51.3747 62.3914C47.2604 60.5415 45.7347 58.8438 45.1652 53.9216C44.8985 48.8497 45.8257 47.3577 48.3467 45.8027C51.6187 45.377 53.2641 45.6741 55.9167 46.8779Z" fill="#CA9E67"/>
    <path d="M51.9205 51.0843L49.4492 51.0365C51.2175 50.0146 52.1488 49.5264 53.6382 50.6206C55.1276 51.7148 54.5676 53.3177 54.0625 53.5887C52.1584 54.6101 53.6265 55.3115 54 56C54.4334 56.799 52.9824 57.0817 52.389 56.989C51.7956 56.8962 51.0142 57.0435 50.0154 55.2887C49.0166 53.5338 50.029 52.1102 51.9205 51.0843Z" fill="#B97B4C" stroke="black" stroke-width="0.5"/>
    <path d="M133.365 58.8901L135.701 59.6975C134.394 58.1285 133.688 57.3491 131.913 57.8624C130.137 58.3758 130.524 59.9949 130.905 60.4235C132.34 62.0389 130.72 62.191 130.132 62.7084C129.45 63.3088 130.3 64.1533 130.889 64.2709C131.478 64.3885 132.16 64.7962 133.703 63.4935C135.246 62.1908 134.787 60.5054 133.365 58.8901Z" fill="#B97B4C" stroke="black" stroke-width="0.5"/>
    <path d="M51.3428 71.4035C51.5843 58.0078 53.1584 51.7485 57.8829 42.2513C60.5979 37.545 63.2427 32.9705 66.5499 31.0921C67.0337 30.7137 66.8594 31.2786 66.6823 31.8713L66.839 32.793L68.2568 31.272C69.2549 30.0104 70.4578 28.3775 71.5163 27.7755C72.1059 27.4402 71.7131 27.9994 71.2634 28.6697L70.8189 30.2417C72.2366 29.6428 77.9316 26.2386 79.1242 26.1803C84.8137 24.3602 88.0787 23.5842 94.2121 23.142C92.8818 20.5088 91.4923 19.9216 87.9352 20.3654C93.9459 16.0809 95.1913 18.2564 97.2841 22.4036C97.9843 17.0798 99.2993 16.1388 101.981 15.1963L100.135 19.1988C103.444 18.0636 104.511 16.8703 105.363 14C105.956 17.9364 105.755 20.0522 102.882 23.3932C112.535 24.7905 117.073 27.498 123.946 34.8377C125.511 36.7226 126.729 37.9206 127.81 39.5628V37.2224C127.666 36.3324 127.569 35.6709 127.81 36.1958C130.272 40.3911 133.006 52.355 132.241 58.092C131.329 63.2113 130.42 65.7009 127.641 69.8899C125.689 71.931 124.792 72.9622 123.739 77.2287C123.533 80.4801 122.335 82.0945 121.468 85.2443C120.612 86.5048 117.182 93.774 116.392 94.8157C115.857 95.5206 116.5 91.919 115.983 92.537C111.364 97.1257 109.158 97.6053 103.45 100.5C101.827 92.9804 102.083 90.0806 104.783 87.0992C111.235 80.104 112.7 76.5892 114.549 70.4705C113.113 60.7169 113.29 57.9754 111.45 53.5C106.678 49.3851 104.49 48.4395 99.082 49.6188L99.0268 49.638C96.4079 50.5521 94.9238 51.0701 92.7907 53.7283C90.6695 56.3952 89.3576 57.2812 86.782 58.065C80.8276 58.5667 78.473 57.257 75.4502 52C69.325 46.0735 66.9136 45.9347 62.3406 49.6188C58.1566 55.1248 57.3185 58.6981 58.487 65.9307L61.5488 83.879C61.5782 88.6687 60.7071 91.4795 59.0209 96.086C57.5842 93.7138 56.305 90.7949 55.349 88.7312L54.8816 90.0517C54.8496 90.8659 54.8189 91.5511 54.5943 90.8631C53.5737 87.7371 52.3692 80.7807 51.7218 75.2933C51.6177 74.4108 50.4447 77.0146 50.3725 76.2301C50.3279 75.7461 51.3733 71.8367 51.3428 71.4035Z" fill="#432918"/>
    <path d="M59.0493 95.9575C58.708 96.1402 56.9521 93.0979 55.2095 88.6825C54.8322 87.7266 54.8667 92.0758 54.5052 91.01C53.7768 87.979 52.5515 80.2801 51.8943 75.2501M102.95 100.5C103.016 101.457 110.574 98.0157 116.135 92.4615M116.135 92.4615C116.961 91.6373 115.543 96.3836 116.285 95.4649M116.135 92.4615L116.285 95.4649M116.285 95.4649C117.948 92.6776 121.802 84.5169 122.745 81.6627C124.665 75.853 123.616 74.4033 127.166 70.2986C134.459 61.8669 132.926 45.1176 127.501 35.5644C126.845 34.4205 128.491 40.6264 127.677 39.5383C119.675 28.8392 109.684 22.4775 96.3329 22.9831C85.9215 23.3774 78.6545 25.5109 70.4946 30.4979C69.5535 31.073 73.1095 26.7897 71.9196 27.3708C71.3862 27.6313 66.6975 32.706 66.464 33.1515M50.3744 76.432C50.2642 75.1564 51.4555 70.9493 51.4643 70.0158C51.6036 55.2342 56.2773 39.2807 67.0923 30.4979M50.3744 76.432C50.4781 77.632 51.7159 73.8849 51.8943 75.2501M50.3744 76.432L51.8943 75.2501M67.0923 30.4979C67.6403 30.0528 65.8716 33.5801 66.464 33.1515M67.0923 30.4979L66.464 33.1515" stroke="#0B0B0B" stroke-linecap="round"/>
    <path d="M94.2803 23.0266C93.0845 20.4725 91.5218 20.1217 88.0781 20.3123C92.5352 17.3279 94.7623 16.8695 97.3043 22.3657C97.6248 18.3525 98.5746 16.7463 102.03 15.249C101.094 17.7571 100.836 16.4658 99.9904 19.2224" stroke="#0B0B0B" stroke-linecap="round"/>
    <path d="M100.004 19.21C103.25 18.7823 104.115 17.3787 105.297 14.4434C106.118 18.6302 105.437 20.4275 103.028 23.2228" stroke="#0B0B0B" stroke-linecap="round"/>
    <path d="M128.5 69C128.622 69.6036 134.72 69.982 136.752 66.4939C138.504 63.4875 138.957 60.4955 138.595 56.6088C138.234 52.747 132.121 50.0931 132 50.4998" stroke="#0B0B0B" stroke-linecap="round"/>
    <path d="M52 62.0001C51.5167 62.7028 46.4268 60.1293 45.4194 56.0145C44.3447 51.625 45.2365 45.9996 49.2498 45.6169C53.2631 45.2343 53.264 45.9437 55.5 47" stroke="#0B0B0B" stroke-linecap="round"/>
    <path d="M97.4019 22.5839L96.2905 21.9274H95.8263L94.4023 22.1826L95.2031 23.7373L94.9792 24.7645L97.2266 25.1318L101.716 24.9684L101.823 23.9809L103.094 22.371L100.513 21.2002L99.2808 22.1497L98.1798 21.5234L97.4019 22.5839Z" fill="#432918"/>
    <path d="M55.0742 88.5915L55.2292 88.4985" stroke="#0B0B0B" stroke-linecap="round"/>
    <path d="M93.9492 113C82.3981 116.165 75.1829 114.136 67.4492 111C64.2274 109.694 60.4492 105 60.4492 105L59.9492 107.5C58.1059 102.534 56.4984 99.5622 57.9492 95.5C60.4492 88.5 61.7443 87.4929 60.9492 82.5L59.9492 85.1936C58.8434 80.5971 58.954 77.9487 59.4492 73.1936L56.4492 77.1936C56.2749 72.369 56.6473 69.7493 57.9492 65.1936C56.6961 66.2021 55.8906 66.9153 54.4492 68.1936C55.4899 64.7462 56.2471 62.8784 57.9492 59.6936C58.6744 54.5403 59.8435 52.0514 63.9492 48.6935L61.4492 48.1935C61.4492 48.1935 65.2698 46.425 68.4492 47.1935C71.6286 47.9621 72.7761 49.4459 74.7562 51.6935L74.9492 49L76.9492 52.6935L78.4492 55.6936C81.8367 58.9524 84.4015 59.2504 89.4492 57.1936C89.8564 54.7234 90.6474 53.5762 92.4492 51.6935L91.9492 54.6935C94.8046 51.4402 96.7273 50.3748 100.449 49.1935C103.347 47.6467 105.146 47.6781 108.449 48.1935L106.449 49.6935C106.449 49.6935 111.494 52.847 113.449 56.1936C115.63 59.9256 115.949 68.6936 115.949 68.6936L113.449 66.6936C114.974 70.6813 114.706 73.3563 113.449 77.1936L112.779 75.1936C111.789 80.1842 111.039 82.8963 107.279 86.6936L107.449 83.6936L103.949 88.1936C103.037 89.2945 102.043 91.9599 102.262 94.5C102.682 99.3849 103.435 98.0686 102.449 103C101.949 105.5 101.076 109.471 96.9492 113L97.4492 110C97.4492 110 96.0964 112.412 93.9492 113Z" fill="#CA9E67" stroke="#0B0B0B"/>
    <path d="M67.332 57.0968C71.1033 53.5251 73.2777 54.0466 75.9824 59.0297" stroke="#0B0B0B" stroke-linecap="round"/>
    <path d="M99.3672 59.9906C103.154 56.8041 105.134 56.5267 108.188 61.2406" stroke="#0B0B0B" stroke-linecap="round"/>
    <path d="M73.613 87.1085C73.4512 87.1421 73.5425 83.6489 75.4256 82.5811C77.4422 81.4376 79.9794 83.8047 79.74 84.1465" stroke="#0B0B0B" stroke-linecap="round"/>
    <path d="M85.4768 88.0342C85.6387 88.0679 86.0234 84.2661 84.1404 83.1983C82.1238 82.0547 79.7591 83.719 79.7591 84.1213" stroke="#0B0B0B" stroke-linecap="round"/>
    <path d="M77.0301 87.0001C77.6876 86.9549 78.1839 86.3852 78.1386 85.7277C78.0934 85.0702 77.5237 84.574 76.8662 84.6192C76.2088 84.6645 75.7125 85.2342 75.7577 85.8916C75.803 86.5491 76.3727 87.0454 77.0301 87.0001Z" fill="#0B0B0B"/>
    <path d="M82.2645 87.4952C82.922 87.45 83.4183 86.8803 83.373 86.2228C83.3277 85.5654 82.7581 85.0691 82.1006 85.1143C81.4431 85.1596 80.9468 85.7293 80.9921 86.3867C81.0374 87.0442 81.607 87.5405 82.2645 87.4952Z" fill="#0B0B0B"/>
    <path d="M108.449 80C109.344 78.769 109.687 78.0093 109.949 76.5M113.449 63C113.951 61.3121 113.543 60.8463 112.949 59M99.9492 51.4999C101.295 50.6066 102.424 50.2633 103.949 49.9999M67.9492 49.4999C65.8003 49.4074 64.8561 49.9707 63.4492 51.4999M60.4492 55.5C60.354 57.0538 59.7047 57.9752 59.9492 59.5M59.4492 66.5L58.9492 69.5M61.4492 75.5C61.0888 76.8668 61.1941 77.632 61.4492 79M112.5 71.5C112.535 69.7666 112.302 68.8962 111.5 67.5M60.5 96C59.6248 98.4276 59.5485 99.7467 60.5 102M100.5 101C100.69 103.773 100.129 105.166 98.5 107.5" stroke="#A3733A" stroke-width="0.5" stroke-linecap="round"/>
    <path d="M70 40.9233C69.967 40.9394 69.934 40.9555 69.4385 41.2858C68.943 41.616 67.986 42.2599 67 42.9233" stroke="#301D11" stroke-width="0.5" stroke-linecap="round"/>
    <path d="M68 39.9233L66 40.9233" stroke="#301D11" stroke-width="0.5" stroke-linecap="round"/>
    <path d="M67 38.9233H66" stroke="#301D11" stroke-width="0.5" stroke-linecap="round"/>
    <path d="M79 37.9233C79 37.944 79 37.9646 79 38.2949C79 38.6252 79 39.2646 79 39.9233" stroke="#301D11" stroke-width="0.5" stroke-linecap="round"/>
    <path d="M77 36.9233C76.9022 37.1213 76.8044 37.3193 76.638 37.6523C76.4715 37.9853 76.2393 38.4473 76 38.9233" stroke="#301D11" stroke-width="0.5" stroke-linecap="round"/>
    <path d="M75 37.9233C74.9811 37.9383 74.9623 37.9533 74.797 38.1186C74.6317 38.2838 74.3206 38.5988 74 38.9233" stroke="#301D11" stroke-width="0.5" stroke-linecap="round"/>
    <path d="M75 34.9233L73 35.9233" stroke="#301D11" stroke-width="0.5" stroke-linecap="round"/>
    <path d="M74 33.9233C73.9731 33.9233 73.9461 33.9233 73.6157 34.2533C73.2853 34.5833 72.6522 35.2433 72 35.9233" stroke="#301D11" stroke-width="0.5" stroke-linecap="round"/>
    <path d="M81 29.9233L80 30.9233" stroke="#301D11" stroke-width="0.5" stroke-linecap="round"/>
    <path d="M83 29.9233C82.9908 29.9351 82.9817 29.9469 82.8165 30.1121C82.6514 30.2773 82.3306 30.5955 82 30.9233" stroke="#301D11" stroke-width="0.5" stroke-linecap="round"/>
    <path d="M84 32.9233C83.9746 32.9377 83.9492 32.952 83.7838 33.2823C83.6185 33.6125 83.3138 34.2581 83 34.9233" stroke="#301D11" stroke-width="0.5" stroke-linecap="round"/>
    <path d="M86 33.9233L85 35.9233" stroke="#301D11" stroke-width="0.5" stroke-linecap="round"/>
    <path d="M81 44.9233C81.0244 44.9369 81.0489 44.9505 81.2143 45.4457C81.3796 45.9409 81.6852 46.9173 82 47.9233" stroke="#301D11" stroke-width="0.5" stroke-linecap="round"/>
    <path d="M83 45.9233C83 45.9374 83 45.9514 83.165 46.2816C83.33 46.6119 83.66 47.2578 84 47.9233" stroke="#301D11" stroke-width="0.5" stroke-linecap="round"/>
    <path d="M93 38.9233C93.0092 38.934 93.0183 38.9446 93.1835 39.2748C93.3486 39.605 93.6694 40.2543 94 40.9233" stroke="#301D11" stroke-width="0.5" stroke-linecap="round"/>
    <path d="M95 38.9233L96 39.9233" stroke="#301D11" stroke-width="0.5" stroke-linecap="round"/>
    <path d="M95 31.9233L96 32.9233" stroke="#301D11" stroke-width="0.5" stroke-linecap="round"/>
    <path d="M97 31.9233C97.0089 31.9363 97.0178 31.9492 97.183 32.2794C97.3481 32.6096 97.6692 33.2567 98 33.9233" stroke="#301D11" stroke-width="0.5" stroke-linecap="round"/>
    <path d="M97 28.9233C97.091 28.9741 97.1821 29.0249 97.5134 29.1906C97.8448 29.3564 98.4138 29.6356 99 29.9233" stroke="#301D11" stroke-width="0.5" stroke-linecap="round"/>
    <path d="M99 28.9233H100" stroke="#301D11" stroke-width="0.5" stroke-linecap="round"/>
    <path d="M106 35.9233L110 37.9233" stroke="#301D11" stroke-width="0.5" stroke-linecap="round"/>
    <path d="M110 35.9233L111 36.9233" stroke="#301D11" stroke-width="0.5" stroke-linecap="round"/>
    <path d="M109 34.9233L111 35.9233" stroke="#301D11" stroke-width="0.5" stroke-linecap="round"/>
    <path d="M118 41.9233L121 42.9233" stroke="#301D11" stroke-width="0.5" stroke-linecap="round"/>
    <path d="M120 40.9233L121 41.9233" stroke="#301D11" stroke-width="0.5" stroke-linecap="round"/>
    <path d="M121 40.9233L123 41.9233" stroke="#301D11" stroke-width="0.5" stroke-linecap="round"/>
    <path d="M113 44.9233C113.021 44.9318 113.041 44.9403 113.207 45.1054C113.372 45.2705 113.681 45.5921 114 45.9233" stroke="#301D11" stroke-width="0.5" stroke-linecap="round"/>
    <path d="M112 44.9233L113 46.9233" stroke="#301D11" stroke-width="0.5" stroke-linecap="round"/>
    <path d="M123 50.9233L125 52.9233" stroke="#301D11" stroke-width="0.5" stroke-linecap="round"/>
    <path d="M124 50.9233C125.131 51.9745 125.761 52.5648 125.841 52.6572C125.873 52.7007 125.889 52.7374 125.912 52.7807C125.936 52.8241 125.968 52.873 126 52.9233" stroke="#301D11" stroke-width="0.5" stroke-linecap="round"/>
    <path d="M127 50.9233C127 50.9353 127 50.9473 127.165 51.2775C127.33 51.6077 127.66 52.2557 128 52.9233" stroke="#301D11" stroke-width="0.5" stroke-linecap="round"/>
    <path d="M117 53.9233L119 55.9233" stroke="#301D11" stroke-width="0.5" stroke-linecap="round"/>
    <path d="M123 59.9233C123.025 59.9358 123.051 59.9482 123.216 60.2784C123.382 60.6086 123.686 61.2562 124 61.9233" stroke="#301D11" stroke-width="0.5" stroke-linecap="round"/>
    <path d="M126 60.9233C126 60.9316 126 60.9398 126 61.105C126 61.2701 126 61.5918 126 61.9233" stroke="#301D11" stroke-width="0.5" stroke-linecap="round"/>
    <path d="M127 60.9233L128 62.9233" stroke="#301D11" stroke-width="0.5" stroke-linecap="round"/>
    <path d="M119 65.9233L120 69.9233" stroke="#301D11" stroke-width="0.5" stroke-linecap="round"/>
    <path d="M121 66.9233C121.021 66.9529 121.041 66.9824 121.207 67.4188C121.372 67.8551 121.681 68.6974 121.841 69.1904C122 69.6833 122 69.8015 122 69.9233" stroke="#301D11" stroke-width="0.5" stroke-linecap="round"/>
    <path d="M124 67.9233V69.9233" stroke="#301D11" stroke-width="0.5" stroke-linecap="round"/>
    <path d="M118 74.9233C118 74.9774 118 75.0315 118 75.3624C118 75.6932 118 76.2991 118 76.9233" stroke="#301D11" stroke-width="0.5" stroke-linecap="round"/>
    <path d="M120 75.9233V77.9233" stroke="#301D11" stroke-width="0.5" stroke-linecap="round"/>
    <path d="M121 75.9233C121 75.9233 121 75.9233 121 76.2533C121 76.5833 121 77.2433 121 77.9233" stroke="#301D11" stroke-width="0.5" stroke-linecap="round"/>
    <path d="M114 81.9233C114 81.9299 114 81.9365 113.835 82.1016C113.67 82.2667 113.34 82.5901 113 82.9233" stroke="#301D11" stroke-width="0.5" stroke-linecap="round"/>
    <path d="M115 82.9233L114 83.9233" stroke="#301D11" stroke-width="0.5" stroke-linecap="round"/>
    <path d="M116 86.9233L114 88.9233" stroke="#301D11" stroke-width="0.5" stroke-linecap="round"/>
    <path d="M116 88L115 89" stroke="#301D11" stroke-width="0.5" stroke-linecap="round"/>
    <path d="M114 86.9233L113 88.9233" stroke="#301D11" stroke-width="0.5" stroke-linecap="round"/>
    <path d="M106 90.9233C106 90.9362 106 90.9491 105.835 91.4442C105.67 91.9394 105.34 92.9166 105 93.9233" stroke="#301D11" stroke-width="0.5" stroke-linecap="round"/>
    <path d="M106.985 90.9233C107.007 90.9469 107.028 90.9705 106.866 91.3008C106.704 91.6312 106.357 92.2676 106 92.9233" stroke="#301D11" stroke-width="0.5" stroke-linecap="round"/>
    <path d="M108 91.9233C107.937 92.0113 107.874 92.0993 107.708 92.4307C107.542 92.762 107.275 93.334 107 93.9233" stroke="#301D11" stroke-width="0.5" stroke-linecap="round"/>
    <path d="M57 86L58 88" stroke="#301D11" stroke-width="0.5" stroke-linecap="round"/>
    <path d="M58 86L59 87" stroke="#301D11" stroke-width="0.5" stroke-linecap="round"/>
    <path d="M56 80L55 82" stroke="#301D11" stroke-width="0.5" stroke-linecap="round"/>
    <path d="M57 80V82" stroke="#301D11" stroke-width="0.5" stroke-linecap="round"/>
    <path d="M52.5 69L53 72" stroke="#301D11" stroke-width="0.5" stroke-linecap="round"/>
    <path d="M54 70C54 70 54 70 54 70.33C54 70.66 54 71.32 54 72" stroke="#301D11" stroke-width="0.5" stroke-linecap="round"/>
    <path d="M55 55.9233C55 55.9233 55 55.9233 55 56.2533C55 56.5833 55 57.2433 55 57.9233" stroke="#301D11" stroke-width="0.5" stroke-linecap="round"/>
    <path d="M56 56.9233V58.9233" stroke="#301D11" stroke-width="0.5" stroke-linecap="round"/>
    <path d="M54 56.9233V58.9233" stroke="#301D11" stroke-width="0.5" stroke-linecap="round"/>
    <path d="M58 47.9233L57 48.9233" stroke="#301D11" stroke-width="0.5" stroke-linecap="round"/>
    <path d="M59 48.9233L58 49.9233" stroke="#301D11" stroke-width="0.5" stroke-linecap="round"/>
    <path d="M95.582 47.869L95.9211 46.7954" stroke="#301D11" stroke-width="0.5" stroke-linecap="round"/>
    <path d="M97.3906 47.6994C97.5025 47.4197 97.6144 47.14 97.672 46.9587C97.7297 46.7773 97.7297 46.7027 97.7862 46.5693" stroke="#301D11" stroke-width="0.5" stroke-linecap="round"/>
    <path d="M89.9883 29.5615L90.2143 28.5444" stroke="#301D11" stroke-width="0.5" stroke-linecap="round"/>
    <path d="M91.4023 29.6745C91.4956 29.3202 91.5888 28.9659 91.6275 28.7554C91.6662 28.5449 91.6476 28.489 91.5719 28.3184" stroke="#301D11" stroke-width="0.5" stroke-linecap="round"/>
    <path d="M109.652 30.1265C109.969 30.2756 110.286 30.4248 110.506 30.5576C110.725 30.6904 110.837 30.8023 110.952 30.9175" stroke="#301D11" stroke-width="0.5" stroke-linecap="round"/>
    <path d="M110.105 29.5049L111.292 29.7874" stroke="#301D11" stroke-width="0.5" stroke-linecap="round"/>
    <path d="M116.266 34.9858C116.284 34.9858 116.303 34.9858 116.499 35.3308C116.695 35.6758 117.068 36.3657 117.452 37.133" stroke="#301D11" stroke-width="0.5" stroke-linecap="round"/>
    <path d="M117.789 35.2119C117.808 35.2119 117.826 35.2119 117.883 35.3797C117.939 35.5476 118.032 35.8832 118.128 36.229" stroke="#301D11" stroke-width="0.5" stroke-linecap="round"/>
    <path d="M88.2383 40.1846L88.2948 41.5972" stroke="#301D11" stroke-width="0.5" stroke-linecap="round"/>
    <path d="M89.6523 39.9019V41.258" stroke="#301D11" stroke-width="0.5" stroke-linecap="round"/>
    <path d="M102.309 41.2578L103.665 42.1619" stroke="#301D11" stroke-width="0.5" stroke-linecap="round"/>
    <path d="M102.137 39.6196C102.155 39.6569 102.174 39.6942 102.519 39.9279C102.865 40.1615 103.536 40.5904 104.284 41.0323" stroke="#301D11" stroke-width="0.5" stroke-linecap="round"/>
    <path d="M75.0462 43.7495C74.7898 44.1046 74.5334 44.4596 74.3717 44.6869C74.21 44.9142 74.1508 45.003 74.0898 45.1243" stroke="#301D11" stroke-width="0.5" stroke-linecap="round"/>
    <path d="M74.8438 45.5996C75.2162 45.1923 75.5886 44.7849 75.7979 44.5343C76.0072 44.2838 76.0421 44.2023 76.1241 44.0789C76.2061 43.9554 76.3341 43.7925 76.466 43.5894" stroke="#301D11" stroke-width="0.5" stroke-linecap="round"/>
    <path d="M74.058 70C73.9289 70 73.8106 69.9777 73.6815 69.9219C69.6051 68.115 66.4537 69.4423 66.3247 69.4981C65.8407 69.71 65.2814 69.4758 65.077 68.9738C64.8726 68.4719 65.0878 67.903 65.5718 67.68C65.7331 67.613 69.5729 65.9399 74.4237 68.1038C74.9077 68.3157 75.1335 68.8957 74.9184 69.3977C74.7678 69.7658 74.4129 70 74.0472 70H74.058Z" fill="#0B0B0B"/>
    <path d="M105.058 72C104.929 72 104.811 71.9777 104.682 71.9219C100.605 70.115 97.4537 71.4423 97.3247 71.4981C96.8407 71.71 96.2814 71.4758 96.077 70.9738C95.8726 70.4719 96.0878 69.903 96.5718 69.68C96.7331 69.613 100.573 67.9399 105.424 70.1038C105.908 70.3157 106.134 70.8957 105.918 71.3977C105.768 71.7658 105.413 72 105.047 72H105.058Z" fill="#0B0B0B"/>
    <path d="M78 107C79.6569 107 81 105.657 81 104C81 102.343 79.6569 101 78 101C76.3431 101 75 102.343 75 104C75 105.657 76.3431 107 78 107Z" fill="#0B0B0B"/>
</svg>
