<svg width="100%" height="100%" viewBox="0 0 175 125" fill="none" xmlns="http://www.w3.org/2000/svg">
<mask id="mask0_2009_7" style="mask-type:alpha" maskUnits="userSpaceOnUse" x="0" y="0" width="175" height="125">
<rect width="175" height="125" fill="#EE0000"/>
</mask>
<g mask="url(#mask0_2009_7)">
<path d="M73.0073 108.684L73.3331 110.313H70.2376C66.925 110.313 59.6479 111.128 54.9776 112.051C52.3165 112.54 51.9364 112.811 50.3072 115.364C48.1893 118.731 46.8859 122.152 43.9534 132.307C40.6407 143.603 39.1201 151.749 39.1201 158.157C39.1201 159.46 38.7399 162.501 38.3055 164.891C37.5452 168.91 37.2194 170.539 36.1332 175.263C35.8074 176.784 35.9703 177.056 37.871 178.25C39.7718 179.445 40.3691 179.554 46.4514 179.391C50.9589 179.282 53.2941 179.011 54.1087 178.468C55.2491 177.707 55.3577 177.762 55.6835 179.282C56.0637 181.02 57.9644 182.866 60.8426 184.278C75.2338 191.175 82.9996 193.348 90.9827 192.642C96.359 192.098 99.6717 191.067 103.962 188.46C105.971 187.265 108.795 185.853 110.207 185.419C111.565 184.93 113.194 184.224 113.791 183.79C114.389 183.409 115.638 183.084 116.615 183.084C118.896 183.084 122.535 181.4 124.761 179.282C127.314 176.893 131.169 170.213 130.518 169.344C130.192 169.018 129.649 167.118 129.323 165.162C128.671 161.795 127.911 158.809 126.282 152.944C125.847 151.423 124.761 147.187 123.838 143.44C122.915 139.693 121.557 134.914 120.851 132.796C120.091 130.678 119.222 127.582 118.896 126.008C118.57 124.378 117.701 121.066 116.995 118.676C114.226 109.39 111.402 107.761 99.1287 108.358C95.2729 108.521 91.2542 108.847 90.331 109.01C88.7561 109.281 88.5389 109.227 88.5389 108.195C88.5389 107.071 87.5056 106.749 86.8465 107.191C86.55 107.39 86.3292 107.744 86.3123 108.249C86.2037 110.041 86.421 111.073 86.9097 111.399C87.1269 111.562 87.5071 112.268 87.7243 112.92C87.9415 113.626 89.082 115.201 90.2767 116.395C91.4715 117.59 92.286 118.676 92.0688 118.893C91.6887 119.274 86.421 119.925 80.1214 120.36C77.2432 120.577 74.8537 120.414 73.1159 119.925C70.1833 119.165 69.3687 118.187 71.1066 117.644C74.4435 116.607 76.4325 109.406 74.897 107.191C78.4097 106.914 85.7947 107.302 86.8465 107.191C86.9848 107.176 87.0136 107.163 86.9097 107.151C85.7426 107.02 73.8508 107.055 73.496 107.055C72.8444 107.055 72.7357 107.435 73.0073 108.684ZM110.424 111.399C112.977 113.083 114.715 116.613 116.289 123.075C116.941 125.736 118.353 131.004 119.494 134.751C120.634 138.498 121.883 142.897 122.263 144.526C122.589 146.155 123.621 150.065 124.49 153.106C125.359 156.202 126.662 161.361 127.368 164.511L128.617 170.322L126.662 173.743C125.141 176.35 123.892 177.707 121.449 179.336C117.321 182.106 115.964 182.106 115.475 179.391C114.552 174.34 113.954 169.887 113.52 164.619C112.868 157.234 111.999 150.554 111.565 148.979C111.239 147.839 111.348 147.784 112.76 148.11C113.628 148.328 114.497 148.708 114.66 148.979C115.149 149.739 115.746 147.947 115.366 146.97C114.986 146.047 114.063 145.884 114.063 146.698C114.063 146.97 113.466 147.241 112.705 147.241C111.673 147.241 111.293 146.861 111.022 145.721C110.859 144.906 110.479 143.386 110.207 142.354C108.306 134.642 107.6 127.528 108.632 126.876C109.338 126.442 109.338 124.976 108.578 124.976C108.252 124.976 107.383 125.465 106.623 126.062C105.863 126.659 104.777 127.148 104.233 127.148C103.636 127.148 103.202 127.528 103.202 127.963C103.202 128.506 103.745 128.777 104.831 128.777C106.351 128.777 106.46 128.94 106.46 130.787C106.46 132.85 107.166 136.706 109.175 146.155C110.37 151.695 111.076 156.745 111.891 165.706C112.162 168.855 112.542 172.548 112.76 173.96C113.085 176.187 112.977 176.567 112.216 176.567C111.728 176.567 110.37 177.056 109.284 177.599C108.035 178.196 106.677 178.522 105.754 178.359C104.668 178.142 104.288 178.305 104.288 178.956C104.288 179.445 104.451 179.771 104.722 179.717C104.939 179.717 105.537 179.825 106.026 180.042C106.623 180.314 107.818 179.934 109.338 179.065C112.325 177.273 113.303 177.273 113.737 179.065C114.226 180.857 114.009 181.02 110.261 182.595C108.632 183.247 106.786 184.224 106.188 184.713C103.908 186.614 99.3459 189.057 96.359 189.926C91.5801 191.284 82.0221 190.795 76.32 188.84C69.8575 186.614 59.7022 181.835 58.4532 180.423C56.2266 177.924 55.7378 159.243 57.5843 145.069C58.1816 140.453 58.6704 135.131 58.6704 133.285C58.6704 131.438 58.9419 129.755 59.2135 129.592C59.5393 129.375 60.6254 129.755 61.6572 130.406C62.7434 131.058 63.9381 131.438 64.4269 131.275C65.4587 130.895 64.9156 129.863 63.6123 129.863C63.1235 129.863 62.0917 129.32 61.3857 128.669C60.6797 127.963 59.8108 127.42 59.485 127.42C59.2135 127.42 58.3445 127.202 57.6386 126.931C56.0094 126.333 54.6517 127.474 56.118 128.288C57.3127 128.994 57.3127 130.678 56.1723 140.562C55.4663 146.372 55.0862 148.328 54.4888 148.328C54.1087 148.328 53.5113 147.676 53.1854 146.916C52.5881 145.232 52.3165 145.395 51.6106 147.73C51.2304 149.142 51.2847 149.414 51.7735 148.925C52.1536 148.653 53.0225 148.545 53.7285 148.708L54.9776 149.033L54.6517 162.664C54.4888 170.159 54.3802 176.35 54.3259 176.35C54.163 176.947 50.4701 177.599 47.266 177.707C41.0751 177.816 40.4234 177.707 39.1744 176.675L38.034 175.752L39.3373 169.507C40.0433 166.086 40.9122 160.058 41.2923 156.202C42.0526 147.078 42.5957 143.874 44.6593 136.923C49.7641 119.328 51.339 115.635 54.2173 114.603C55.0319 114.332 56.1723 113.843 56.7697 113.571C57.367 113.3 59.8108 112.92 62.2003 112.757L66.5448 112.377L66.3819 115.092C66.1104 118.622 67.5766 120.36 71.7039 121.446C77.2975 122.912 91.5258 121.826 94.3497 119.708C96.1961 118.405 96.6306 115.038 95.3815 112.54C94.8928 111.671 94.5126 110.802 94.5126 110.639C94.5126 110.041 96.7392 109.879 102.387 109.933C107.763 110.041 108.578 110.15 110.424 111.399ZM93.3179 112.974C94.7298 115.418 94.8385 116.287 93.698 116.287C92.6119 116.287 90.7655 114.712 89.8423 112.92C88.8104 110.965 88.8647 110.856 90.6026 110.856C91.7973 110.856 92.3947 111.291 93.3179 112.974ZM73.3331 112.485C73.3331 113.897 71.9211 115.744 70.4549 116.287C68.3369 116.993 68.4455 117.047 68.4455 115.418C68.4455 113.028 69.3687 111.942 71.4324 111.942C72.4642 111.942 73.3331 112.159 73.3331 112.485Z" fill="black"/>
<path d="M110.424 111.399C112.977 113.083 114.715 116.613 116.289 123.075C116.941 125.736 118.353 131.004 119.494 134.751C120.634 138.498 121.883 142.897 122.263 144.526C122.589 146.155 123.621 150.065 124.49 153.106C125.359 156.202 126.662 161.361 127.368 164.511L128.617 170.322L126.662 173.743C125.141 176.35 123.892 177.707 121.449 179.336C117.321 182.106 115.964 182.106 115.475 179.391C114.552 174.34 113.954 169.887 113.52 164.619C112.868 157.234 111.999 150.554 111.565 148.979C111.239 147.839 111.348 147.784 112.76 148.11C113.628 148.328 114.497 148.708 114.66 148.979C115.149 149.739 115.746 147.947 115.366 146.97C114.986 146.047 114.063 145.884 114.063 146.698C114.063 146.97 113.466 147.241 112.705 147.241C111.673 147.241 111.293 146.861 111.022 145.721C110.859 144.906 110.479 143.386 110.207 142.354C108.306 134.642 107.6 127.528 108.632 126.876C109.338 126.442 109.338 124.976 108.578 124.976C108.252 124.976 107.383 125.465 106.623 126.062C105.863 126.659 104.777 127.148 104.233 127.148C103.636 127.148 103.202 127.528 103.202 127.963C103.202 128.506 103.745 128.777 104.831 128.777C106.351 128.777 106.46 128.94 106.46 130.787C106.46 132.85 107.166 136.706 109.175 146.155C110.37 151.695 111.076 156.745 111.891 165.706C112.162 168.855 112.542 172.548 112.76 173.96C113.085 176.187 112.977 176.567 112.216 176.567C111.728 176.567 110.37 177.056 109.284 177.599C108.035 178.196 106.677 178.522 105.754 178.359C104.668 178.142 104.288 178.305 104.288 178.956C104.288 179.445 104.451 179.771 104.722 179.717C104.939 179.717 105.537 179.825 106.026 180.042C106.623 180.314 107.818 179.934 109.338 179.065C112.325 177.273 113.303 177.273 113.737 179.065C114.226 180.857 114.009 181.02 110.261 182.595C108.632 183.247 106.786 184.224 106.188 184.713C103.908 186.614 99.3459 189.057 96.359 189.926C91.5801 191.284 82.0221 190.795 76.32 188.84C69.8575 186.614 59.7022 181.835 58.4532 180.423C56.2266 177.924 55.7378 159.243 57.5843 145.069C58.1816 140.453 58.6704 135.131 58.6704 133.285C58.6704 131.438 58.9419 129.755 59.2135 129.592C59.5393 129.375 60.6254 129.755 61.6572 130.406C62.7434 131.058 63.9381 131.438 64.4269 131.275C65.4587 130.895 64.9156 129.863 63.6123 129.863C63.1235 129.863 62.0917 129.32 61.3857 128.669C60.6797 127.963 59.8108 127.42 59.485 127.42C59.2135 127.42 58.3445 127.202 57.6386 126.931C56.0094 126.333 54.6517 127.474 56.118 128.288C57.3127 128.994 57.3127 130.678 56.1723 140.562C55.4663 146.372 55.0862 148.328 54.4888 148.328C54.1087 148.328 53.5113 147.676 53.1854 146.916C52.5881 145.232 52.3165 145.395 51.6106 147.73C51.2304 149.142 51.2847 149.414 51.7735 148.925C52.1536 148.653 53.0225 148.545 53.7285 148.708L54.9776 149.033L54.6517 162.664C54.4888 170.159 54.3802 176.35 54.3259 176.35C54.163 176.947 50.4701 177.599 47.266 177.707C41.0751 177.816 40.4234 177.707 39.1744 176.675L38.034 175.752L39.3373 169.507C40.0433 166.086 40.9122 160.058 41.2923 156.202C42.0526 147.078 42.5957 143.874 44.6593 136.923C49.7641 119.328 51.339 115.635 54.2173 114.603C55.0319 114.332 56.1723 113.843 56.7697 113.571C57.367 113.3 59.8108 112.92 62.2003 112.757L66.5448 112.377L66.3819 115.092C66.1104 118.622 67.5766 120.36 71.7039 121.446C77.2975 122.912 91.5258 121.826 94.3497 119.708C96.1961 118.405 96.6306 115.038 95.3815 112.54C94.8928 111.671 94.5126 110.802 94.5126 110.639C94.5126 110.041 96.7392 109.879 102.387 109.933C107.763 110.041 108.578 110.15 110.424 111.399Z" fill="#99E420"/>
<path d="M73.3331 112.485C73.3331 113.897 71.9211 115.744 70.4549 116.287C68.3369 116.993 68.4455 117.047 68.4455 115.418C68.4455 113.028 69.3687 111.942 71.4324 111.942C72.4642 111.942 73.3331 112.159 73.3331 112.485Z" fill="#71AE1C"/>
<path d="M93.3179 112.974C94.7298 115.418 94.8385 116.287 93.698 116.287C92.6119 116.287 90.7655 114.712 89.8423 112.92C88.8104 110.965 88.8647 110.856 90.6026 110.856C91.7973 110.856 92.3947 111.291 93.3179 112.974Z" fill="#71AE1C"/>
<path d="M86.8465 107.191C86.55 107.39 86.3292 107.744 86.3123 108.249C86.2037 110.041 86.421 111.073 86.9097 111.399C87.1269 111.562 87.5071 112.268 87.7243 112.92C87.9415 113.626 89.082 115.201 90.2767 116.395C91.4715 117.59 92.286 118.676 92.0688 118.893C91.6887 119.274 86.421 119.925 80.1214 120.36C77.2432 120.577 74.8537 120.414 73.1159 119.925C70.1833 119.165 69.3687 118.187 71.1066 117.644C74.4435 116.607 76.4325 109.406 74.897 107.191C78.4097 106.914 85.7947 107.302 86.8465 107.191Z" fill="#432918"/>
<path d="M87.9619 23.25L86.6519 24.25V27.11L89.1819 27.39L92.2119 23.67" fill="#432918"/>
<path d="M78.292 23.9L80.672 24.54L82.062 26.93L83.882 27.32L86.302 26.82L86.512 25.54L87.202 22.52L87.622 21L86.152 21.89L84.962 24.28L84.512 25.84L83.342 24.25L81.692 23.16C81.692 23.16 79.862 22.86 79.822 22.86C79.782 22.86 78.292 23.08 78.292 23.08V23.91V23.9Z" fill="#432918"/>
<path d="M91.7523 20.62L89.6623 22.81C89.6623 22.81 88.5723 23.64 88.5723 23.67C88.5723 23.7 90.0623 24.8 90.1023 24.85C90.1423 24.9 91.8023 24.61 91.8023 24.61L92.1123 21.34L91.7423 20.62H91.7523Z" fill="#432918"/>
<path d="M81.8919 27.02L71.0819 29.31L64.0419 32.12L55.9919 37.14L49.8919 43.45L46.5119 49.1L43.4719 58.92L42.9819 67.46L43.9919 78.86L45.8719 86.48L47.7619 91.84L55.0619 92.75L90.1819 97.16L95.1419 96.02L99.9719 92.89L104.312 87.82L107.862 80.15L109.212 74.09L115.092 64.9L117.142 56.37L114.882 46.13L108.752 37.37L100.612 30.84L90.8419 27.36L81.8919 27.02Z" fill="#432918"/>
<path d="M112.912 69.2L118.362 69.53L121.142 67.58L121.952 64.73L122.572 60.77L121.952 56.67L118.122 52.25L117.032 55.62L116.452 61.62L113.732 67.71L112.942 69.4L112.912 69.2Z" fill="#CA9E67"/>
<path d="M47.4319 45.92L42.0519 45.03L39.0719 46.67L37.9819 49.42V53.31L39.0419 57.04L42.1419 60L43.5019 59.36L45.1919 53.32L47.4319 47.54V45.71V45.92Z" fill="#CA9E67"/>
<path d="M85.2719 28.93L83.9819 26.49C83.1619 24.94 82.1919 24.04 81.1019 23.82C81.0319 23.81 80.9719 23.8 80.9119 23.79C82.2419 24.66 82.8819 26.08 83.0619 27.02L81.3519 27.35C81.2919 27.06 80.7119 24.52 77.7719 24.79L74.9419 25.06L77.1319 23.25C77.2119 23.18 79.1119 21.65 81.4319 22.11C82.5319 22.33 83.5219 22.95 84.3719 23.95C84.8819 22.42 85.9019 20.49 87.8419 19.9L90.0119 19.25L88.8419 21.19C88.3219 22.06 87.0519 24.64 87.4819 26.18L85.8019 26.64C85.7319 26.4 85.6919 26.15 85.6719 25.9C85.6519 26.01 85.6419 26.11 85.6319 26.2L85.2919 28.94L85.2719 28.93Z" fill="#1D1D1B"/>
<path d="M85.8321 28.48L83.9321 28.23L84.1321 27.27L85.7521 27.32L85.7121 28.02L85.8321 28.48Z" fill="#432918"/>
<path d="M91.582 98.21L49.562 94.76L49.342 94.55C47.702 93 46.442 91.05 45.722 88.91C42.212 78.58 33.322 43.81 66.262 30.17C97.052 17.42 111.182 37.05 115.822 46.08C117.522 49.39 118.272 53.04 117.982 56.63C117.632 60.94 116.052 67.45 110.472 73.97C110.192 74.3 110.012 74.68 109.952 75.06C109.272 79.55 105.942 94.48 91.732 98.18L91.592 98.22L91.582 98.21ZM50.322 93.07L91.432 96.45C104.492 92.96 107.592 79 108.222 74.79C108.332 74.08 108.652 73.4 109.142 72.83C114.412 66.67 115.912 60.54 116.242 56.49C116.502 53.22 115.822 49.9 114.272 46.88C109.852 38.28 96.372 19.59 66.932 31.79C35.382 44.84 43.982 78.38 47.372 88.35C47.972 90.12 48.992 91.75 50.322 93.07Z" fill="#1D1D1B"/>
<path d="M55.7621 49.65L51.2921 53.13L49.2221 58.94V64.31L49.9221 70.99L51.4221 79.85L52.4921 84.96L51.5721 88.64L49.5421 94.55L48.8921 100.76L50.2021 105.88L53.6821 110.18L59.1621 113.03L69.2221 114.76L76.8621 114.56L84.5321 111.9L88.0321 108.25L89.9521 102.63L90.0921 95.99L89.4121 89.65L92.1821 85.21L96.2021 79.25L99.6221 71.09L100.592 63.84L98.8121 56.8L93.0821 51.32L86.2721 51.45L81.2321 54.55L75.5521 58.42L71.7821 59.21L68.4921 57.95L65.5421 54.18L62.0021 50.01L57.7721 49.1L55.7621 49.65Z" fill="#CA9E67"/>
<path d="M72.3122 115.74C70.1022 115.74 67.6822 115.57 65.0622 115.23C57.4322 114.24 52.2822 111.45 49.7722 106.95C46.2122 100.57 48.8922 92.48 50.8022 88.23C51.4722 86.75 51.6422 85.16 51.3122 83.62C50.0722 77.86 47.3322 63.75 48.5722 57.26C49.4522 52.61 53.2222 48.84 57.5122 48.28C61.2122 47.8 64.3922 49.72 66.2222 53.56C68.5922 58.52 72.1422 58.72 74.7122 58.01C75.7322 57.73 76.7022 57.13 77.6122 56.22C83.3222 50.49 88.4922 49.77 91.8322 50.19C94.1122 50.47 96.2522 51.67 97.7122 53.48C108.032 66.29 94.1022 84.83 91.8522 86.86C89.6322 88.87 90.3822 91.12 90.4122 91.22C91.5022 98.68 91.8222 106.11 87.0222 110.98C83.8822 114.16 79.0422 115.74 72.3322 115.74H72.3122ZM58.5722 49.97C58.2922 49.97 58.0122 49.99 57.7322 50.03C54.1622 50.49 51.0222 53.68 50.2822 57.61C49.1022 63.78 51.8022 77.61 53.0122 83.28C53.4222 85.18 53.2022 87.15 52.3822 88.97C50.6022 92.92 48.0922 100.4 51.2822 106.12C53.5122 110.11 58.2222 112.6 65.2822 113.52C75.1622 114.81 82.0422 113.54 85.7522 109.78C90.0022 105.47 89.6922 98.56 88.7122 91.73C88.5322 91.14 87.8122 88.17 90.6622 85.59C93.7922 82.76 105.252 65.66 96.3322 54.59C95.1622 53.13 93.4322 52.16 91.6022 51.94C88.6622 51.59 84.0522 52.24 78.8322 57.48C77.7122 58.61 76.4722 59.36 75.1622 59.72C72.5322 60.45 67.6722 60.71 64.6322 54.34C63.2922 51.53 61.1122 49.98 58.5622 49.98L58.5722 49.97Z" fill="#1D1D1B"/>
<path d="M43.672 60.87C43.382 60.87 41.342 60.81 39.582 59.07C37.822 57.33 36.952 54.56 37.002 50.85C37.042 48.07 37.922 46.12 39.612 45.05C42.972 42.93 48.202 45.29 48.422 45.39L47.692 46.97C47.692 46.97 43.092 44.9 40.532 46.52C39.372 47.25 38.772 48.72 38.742 50.87C38.702 54.07 39.382 56.4 40.772 57.8C42.092 59.12 43.592 59.14 43.662 59.13L43.702 60.87H43.672Z" fill="#1D1D1B"/>
<path d="M114.922 70.56C113.542 70.56 112.552 70.24 112.482 70.22L113.022 68.56C113.022 68.56 115.592 69.36 117.892 68.09C119.532 67.18 120.682 65.44 121.332 62.9C123.302 55.15 117.022 52.77 116.752 52.67L117.342 51.03C117.422 51.06 125.382 54.02 123.022 63.33C122.252 66.36 120.802 68.49 118.722 69.63C117.402 70.36 116.042 70.56 114.932 70.56H114.922Z" fill="#1D1D1B"/>
<path d="M63.1421 62.42C61.9021 61.04 59.7421 60.91 58.2121 61.96C56.9021 62.86 55.4921 64.56 55.2921 67.76C55.2121 69.11 55.3421 70.17 55.5921 70.98C56.3521 73.41 59.2521 74.28 61.3721 72.87C62.5521 72.09 63.8121 70.69 64.1921 68.21C64.6421 65.27 64.1121 63.5 63.1321 62.42H63.1421Z" fill="#1D1D1B"/>
<path d="M92.352 64.17C91.112 62.79 88.952 62.66 87.422 63.71C86.112 64.61 84.702 66.31 84.502 69.51C84.422 70.86 84.552 71.92 84.802 72.73C85.562 75.16 88.462 76.03 90.582 74.62C91.762 73.84 93.022 72.44 93.402 69.96C93.852 67.02 93.322 65.25 92.342 64.17H92.352Z" fill="#1D1D1B"/>
<path d="M65.1118 60.47C64.7918 60.47 64.4918 60.3 64.3318 59.99C63.6718 58.68 62.5818 57.09 61.1818 56.95C59.5618 56.78 58.1518 58.53 58.1418 58.54C57.8418 58.92 57.2918 58.98 56.9218 58.68C56.5418 58.38 56.4818 57.84 56.7818 57.46C56.8618 57.36 58.7918 54.96 61.3518 55.21C63.1118 55.39 64.6318 56.73 65.8918 59.2C66.1118 59.63 65.9418 60.15 65.5118 60.37C65.3818 60.43 65.2518 60.46 65.1218 60.46L65.1118 60.47Z" fill="#1D1D1B"/>
<path d="M94.442 62.45C94.152 62.45 93.872 62.31 93.702 62.05C92.742 60.53 91.682 59.72 90.582 59.63C88.892 59.5 87.462 61.09 87.442 61.1C87.122 61.46 86.572 61.49 86.212 61.18C85.852 60.86 85.812 60.32 86.132 59.95C86.212 59.86 88.152 57.72 90.702 57.89C92.392 58.02 93.892 59.1 95.172 61.11C95.432 61.52 95.312 62.05 94.902 62.31C94.762 62.4 94.592 62.45 94.432 62.45H94.442Z" fill="#1D1D1B"/>
<path d="M62.892 86.09C62.542 86.09 62.252 85.81 62.242 85.46C62.242 85.35 62.152 82.86 63.472 81.51C64.042 80.93 64.742 80.65 65.622 80.65C69.062 80.7 69.272 82.96 69.272 83.06C69.302 83.42 69.032 83.73 68.672 83.76C68.302 83.81 68.002 83.52 67.972 83.16C67.972 83.13 67.802 82 65.602 81.97C65.112 81.97 64.722 82.11 64.412 82.43C63.642 83.21 63.532 84.85 63.552 85.42C63.562 85.78 63.282 86.08 62.922 86.1C62.922 86.1 62.902 86.1 62.892 86.1V86.09Z" fill="#1D1D1B"/>
<path d="M73.8222 87.1C73.8222 87.1 73.7222 87.1 73.6822 87.08C73.3322 87 73.1122 86.65 73.1922 86.3C73.3122 85.75 73.5022 84.12 72.8922 83.21C72.6422 82.84 72.2922 82.62 71.8022 82.54C69.6422 82.17 69.2622 83.25 69.2522 83.3C69.1422 83.64 68.7922 83.84 68.4422 83.74C68.1022 83.64 67.9022 83.3 67.9922 82.96C68.0122 82.87 68.6322 80.67 72.0222 81.26C72.8722 81.4 73.5322 81.82 73.9822 82.5C75.0322 84.07 74.4922 86.5 74.4722 86.6C74.4022 86.9 74.1322 87.11 73.8322 87.11L73.8222 87.1Z" fill="#1D1D1B"/>
<path d="M66.0221 85.71C66.6241 85.71 67.1121 85.222 67.1121 84.62C67.1121 84.018 66.6241 83.53 66.0221 83.53C65.4201 83.53 64.9321 84.018 64.9321 84.62C64.9321 85.222 65.4201 85.71 66.0221 85.71Z" fill="#1D1D1B"/>
<path d="M70.7619 86.4901C71.3639 86.4901 71.8519 86.002 71.8519 85.4001C71.8519 84.7981 71.3639 84.3101 70.7619 84.3101C70.1599 84.3101 69.6719 84.7981 69.6719 85.4001C69.6719 86.002 70.1599 86.4901 70.7619 86.4901Z" fill="#1D1D1B"/>
<path d="M72.7219 102.77C70.2819 102.77 67.9119 101.1 66.6419 100.02C65.6119 100.65 63.7019 101.4 60.0119 101.29C57.7219 101.22 56.0319 100.61 54.9719 99.46C53.8819 98.27 53.9119 96.98 53.9219 96.84C53.9519 96.36 54.3219 95.95 54.8419 96.02C55.3219 96.04 55.6819 96.45 55.6619 96.92C55.6619 97.19 55.7519 99.42 60.0619 99.55C63.4319 99.65 64.9719 98.97 65.5719 98.56C66.2319 98.11 67.1319 98.16 67.7619 98.69C68.7119 99.49 71.1319 101.32 73.2619 100.98C73.3319 100.98 77.6919 100.38 79.4519 97.32C79.6919 96.9 80.2219 96.76 80.6419 97C81.0619 97.24 81.2019 97.77 80.9619 98.19C78.7619 102.01 73.7219 102.68 73.5119 102.71C73.2519 102.75 72.9819 102.77 72.7219 102.77Z" fill="#1D1D1B"/>
<path d="M89.252 28L88.622 26.37C90.602 25.6 91.152 24.04 91.232 22.74C89.312 24.54 86.902 24.32 86.772 24.3L86.952 22.57C87.072 22.58 89.752 22.79 91.062 20.03L92.022 18L92.682 20.15C93.302 22.16 93.382 26.4 89.252 28Z" fill="#1D1D1B"/>
<path d="M79.2422 23.5701C79.2422 23.5701 80.7222 23.3401 82.3022 26.2801L84.2122 26.0401C84.2122 26.0401 82.5822 22.3701 79.2422 23.5701Z" fill="#432918"/>
<path d="M86.9622 21.92C86.9622 21.92 85.7822 21.97 85.2622 25.98L86.3322 26C86.3322 26 86.2322 23.45 86.9722 21.92H86.9622Z" fill="#432918"/>
<path d="M85.402 27.83L85.322 27.89L84.312 28.63C84.312 28.63 85.042 29.96 85.112 30.03C85.182 30.1 86.332 28.34 86.332 28.34L85.412 27.83H85.402Z" fill="#432918"/>
<path d="M82.3022 26.28L83.3722 28.94L85.0722 28.21L84.2222 26.04" fill="#432918"/>
<path d="M86.3219 26L86.8719 28.43H84.7719L84.4819 27.02L85.2619 25.98L86.3219 26Z" fill="#432918"/>
<path d="M87.3922 25.51L86.2222 27.39L86.3222 29.36L87.9822 29.2L88.9722 26.2L87.3922 25.51Z" fill="#432918"/>
</g>
</svg>
