<svg width="176" height="230" viewBox="0 0 176 230" fill="none" xmlns="http://www.w3.org/2000/svg">
    <path d="M47.7102 129.663C48.2467 127.527 48.7058 126.369 50.0335 124.457C44.7052 123.303 42.0988 121.848 37.7979 118.516C36.541 120.05 35.9779 120.946 35.1334 122.658C39.1571 126.298 41.7754 127.955 47.7102 129.663Z" fill="#313130"/>
    <path d="M40.8116 151.363C41.2062 154.218 41.1006 155.748 40.7296 158.434C34.8246 157.504 31.5648 157.191 25.7531 157.129L25.76 157.09C26.2737 154.231 26.5633 152.619 27.8879 149.87C30.0212 150.828 31.303 151.228 33.6645 151.776C36.6667 152.021 38.1577 151.785 40.8116 151.363Z" fill="#313130"/>
    <path d="M58.2601 120.472C61.9928 115.565 59.6145 109.196 55.0916 105.006C50.1987 100.473 39.1523 103.39 36.1526 110.713C34.0577 115.826 38.7773 120.288 43.7828 122.63C48.9603 125.053 54.7995 125.022 58.2601 120.472Z" fill="#878787" stroke="#0B0B0B"/>
    <path d="M44.0802 150.669C45.6321 142.753 47.0114 138.238 49.8567 130.105C43.1099 128.854 39.5916 126.901 33.7651 121.78C27.9572 132.623 26.8505 138.647 26.0649 149.365C33.1312 152.124 37.0779 152.569 44.0802 150.669Z" fill="#878787" stroke="#0B0B0B"/>
    <path d="M24.6465 156.882C30.6329 157.124 34.0923 157.324 42.1673 158.691C42.0369 169.908 41.3812 175.473 40.4613 185.711C32.9422 185.514 28.8931 185.337 21.9515 184.913C22.3269 174.123 22.1678 168.157 24.6465 156.882Z" fill="#878787" stroke="#0B0B0B"/>
    <path d="M47.7102 129.663C48.179 127.518 48.6454 126.371 50.0335 124.457M35.1334 122.658C35.8271 120.958 36.3452 120.034 37.7979 118.516" stroke="#0B0B0B"/>
    <path d="M40.8081 151.363C41.2167 153.997 41.1504 155.932 40.7296 158.434" stroke="#0B0B0B"/>
    <path d="M27.8117 150.364C26.6262 152.752 26.1846 154.123 25.8297 156.635" stroke="#0B0B0B"/>
    <path d="M44.9998 126C39.6688 124.737 35.9998 121 35.9998 121" stroke="#0B0B0B"/>
    <path d="M26.4998 153.5C32.0998 153.244 35.3611 154.373 40.9998 155" stroke="#0B0B0B"/>
    <path d="M58.1447 95.1001L45.8767 105.1H124.297C128.523 101.227 131.502 98.7719 136.604 95.1001H58.1447Z" fill="#9D9D9C"/>
    <path d="M45.0005 106C45.0005 105.448 45.4482 105 46.0005 105H123.734C124.286 105 124.734 105.448 124.734 106V189C124.734 189.552 124.286 190 123.734 190H46.0005C45.4482 190 45.0005 189.552 45.0005 189V106Z" fill="#878787" stroke="#0B0B0B"/>
    <path d="M137.191 95.0862C137.413 95.1098 137.585 95.2439 137.677 95.4231C137.753 95.5699 137.767 95.7278 137.767 95.8489V173.412C137.767 174.261 137.485 175.087 136.963 175.726L125.98 189.191C125.728 189.5 125.337 189.571 125.017 189.431C124.708 189.295 124.5 188.983 124.5 188.615V105.61C124.501 105.021 124.744 104.555 125.041 104.181C125.324 103.823 125.698 103.503 125.973 103.245L125.995 103.225L126.019 103.207L135.677 96.1174C135.79 96.0109 135.911 95.8881 136.056 95.7463C136.198 95.6072 136.36 95.454 136.514 95.3362C136.591 95.2775 136.681 95.2159 136.777 95.1692C136.863 95.1272 137.013 95.0674 137.191 95.0862Z" fill="#575756" stroke="#0B0B0B"/>
    <path d="M58.5497 95L58.5511 94.5H58.5497V95ZM57.0059 95.6821L57.3243 96.0676L57.3248 96.0672L57.0059 95.6821ZM44.6816 105.215C44.4687 105.39 44.4386 105.706 44.6145 105.919C44.7904 106.131 45.1055 106.161 45.3184 105.986L45 105.6L44.6816 105.215ZM97.8623 95.1102L97.8637 94.6102L93.226 94.5972L93.2246 95.0972L93.2232 95.5972L97.8609 95.6102L97.8623 95.1102ZM93.2246 95.0972L93.226 94.5972L58.5511 94.5L58.5497 95L58.5483 95.5L93.2232 95.5972L93.2246 95.0972ZM57.0059 95.6821L56.6874 95.2966L44.6816 105.215L45 105.6L45.3184 105.986L57.3243 96.0676L57.0059 95.6821ZM58.5497 95V94.5C57.8185 94.5 57.1644 94.9016 56.6869 95.297L57.0059 95.6821L57.3248 96.0672C57.745 95.7192 58.1717 95.5 58.5497 95.5V95ZM137.001 95.0973V94.5973L93.2246 94.5972V95.0972V95.5972L137.001 95.5973V95.0973ZM93.2246 95.0972V94.5972L89.1014 94.5972V95.0972V95.5972L93.2246 95.5972V95.0972Z" fill="#0B0B0B"/>
    <rect x="53.4998" y="116.5" width="29" height="17" rx="2.5" fill="#00321E" stroke="#0B0B0B"/>
    <rect x="72.4998" y="141.5" width="43" height="14" rx="2.5" fill="#525252" stroke="#0B0B0B"/>
    <rect x="52.4998" y="162.5" width="66" height="16" rx="2.5" fill="#313130" stroke="#0B0B0B"/>
    <rect x="101" y="166.872" width="14" height="7" fill="#0A7795"/>
    <rect x="97.4998" y="165.5" width="4" height="10" rx="2" fill="#726F6F" stroke="#0B0B0B"/>
    <rect x="88.4998" y="127.5" width="5" height="5" fill="#F4E347" stroke="#0B0B0B"/>
    <rect x="75.2998" y="143.172" width="4.4" height="4.4" rx="0.7" fill="#AE9D02" stroke="#0B0B0B" stroke-width="0.6"/>
    <rect x="-0.3" y="0.3" width="4.4" height="4.4" rx="0.7" transform="matrix(-1 0 0 1 86.3998 148.872)" fill="#AE9D02" stroke="#0B0B0B" stroke-width="0.6"/>
    <rect x="89.2998" y="143.3" width="4.4" height="2.4" fill="#195703" stroke="#0B0B0B" stroke-width="0.6"/>
    <rect x="89.2998" y="147.3" width="4.4" height="2.4" fill="#195703" stroke="#0B0B0B" stroke-width="0.6"/>
    <rect x="89.2998" y="151.3" width="4.4" height="2.4" fill="#195703" stroke="#0B0B0B" stroke-width="0.6"/>
    <rect x="75.2998" y="149.172" width="4.4" height="4.4" rx="2.2" fill="#AE9D02" stroke="#0B0B0B" stroke-width="0.6"/>
    <circle cx="90.9998" cy="121" r="2.5" fill="#ED0022" stroke="#0B0B0B"/>
    <circle cx="108" cy="125" r="7.5" fill="#525252" stroke="#0B0B0B"/>
    <circle cx="59.4998" cy="148.5" r="8" fill="#313130" stroke="#0B0B0B"/>
    <circle cx="59.4998" cy="148.5" r="4" fill="#878787" stroke="#0B0B0B"/>
    <circle cx="89.4998" cy="170.372" r="4" fill="#CDCDCD" stroke="#0B0B0B"/>
    <path d="M113 122.5C114.746 125.208 112.53 130.074 108 130.5C107.999 127.501 108 128.324 108 125.011C112 125.011 104.686 125.01 108 125.01C111 123.51 109 124.499 113 122.5Z" fill="#FFAA56"/>
    <path d="M103.095 122.5C101.35 125.208 103.565 130.074 108.095 130.5C108.096 127.501 108.095 128.324 108.095 125.011C104.095 125.011 111.409 125.01 108.095 125.01C105.095 123.51 107.095 124.499 103.095 122.5Z" fill="#97FF9A"/>
    <circle cx="59.4998" cy="148.5" r="2" fill="#FFA600" stroke="#0B0B0B"/>
    <rect x="103" y="169.872" width="1" height="4" fill="#085268"/>
    <rect x="105" y="167.872" width="1" height="6" fill="#085268"/>
    <rect x="107" y="170.872" width="1" height="3" fill="#085268"/>
    <rect x="109" y="169.872" width="1" height="4" fill="#085268"/>
    <rect x="111" y="171.872" width="1" height="2" fill="#085268"/>
    <rect x="113" y="167.872" width="1" height="6" fill="#085268"/>
    <path d="M101 166.372H115.5V174.372H101" stroke="#0B0B0B"/>
    <circle cx="99.4998" cy="167.372" r="0.5" fill="#0B0B0B"/>
    <path d="M85.1248 143.774C84.8659 143.262 84.1337 143.262 83.8748 143.774L82.4695 146.557C82.2344 147.022 82.5729 147.572 83.0945 147.572H85.905C86.4266 147.572 86.7651 147.022 86.53 146.557L85.1248 143.774Z" fill="#AE9D03" stroke="#0B0B0B" stroke-width="0.6"/>
    <circle cx="89.4998" cy="170.372" r="2" fill="#313130" stroke="#0B0B0B"/>
    <path d="M53.9998 125.372H56.4998L57.4471 127.872L58.9998 121.872L59.9998 125.372H62.4998L62.9998 127.372L64.7457 121.872L65.9997 125.372H68.9998" stroke="#3AAA35" stroke-width="0.7"/>
    <path d="M68.9998 125.372H71.4998L72.4471 127.872L73.9998 121.872L74.9998 125.372H77.4998L77.9998 127.372L79.7457 121.872L80.9997 125.372H81.9998" stroke="#3AAA35" stroke-width="0.7"/>
    <path d="M92.9998 144.501C92.9998 144.777 92.3282 144.751 91.4998 144.751C90.6713 144.751 89.9998 144.777 89.9998 144.501C89.9998 144.224 90.6713 144.251 91.4998 144.251C92.3282 144.251 92.9998 144.224 92.9998 144.501Z" fill="white" fill-opacity="0.3"/>
    <path d="M92.9998 148.501C92.9998 148.777 92.3282 148.751 91.4998 148.751C90.6713 148.751 89.9998 148.777 89.9998 148.501C89.9998 148.224 90.6713 148.251 91.4998 148.251C92.3282 148.251 92.9998 148.224 92.9998 148.501Z" fill="white" fill-opacity="0.3"/>
    <path d="M92.9998 152.501C92.9998 152.777 92.3282 152.751 91.4998 152.751C90.6713 152.751 89.9998 152.777 89.9998 152.501C89.9998 152.224 90.6713 152.251 91.4998 152.251C92.3282 152.251 92.9998 152.224 92.9998 152.501Z" fill="white" fill-opacity="0.3"/>
    <rect x="87.9998" y="168.872" width="3" height="6" rx="1.5" fill="#726F6F" stroke="#0B0B0B"/>
    <rect x="55.9998" y="166" width="25" height="9" fill="#0B0B0B"/>
    <path d="M57.9998 165.5L59.9998 175.5" stroke="#ED0022"/>
    <path d="M55.4998 170C61.8336 170.015 64.181 171.081 65.4998 175.5" stroke="#006627"/>
    <path d="M62.5026 165.5C61.767 165.992 63.8147 169.531 68.0026 170C72.1904 170.469 72.5026 175.5 72.5026 175.5" stroke="#F4E347"/>
    <path d="M67.4998 175.5L70.9998 165.5" stroke="#727272"/>
    <path d="M62.5049 175.5C62.1377 175.395 63.665 172.663 65.5049 171C67.1047 169.554 66.0049 165.5 66.0049 165.5" stroke="#FAFAFA"/>
    <path d="M74.0143 165.5C74.0143 165.5 71.8282 169.467 73.5143 170C75.9681 170.775 75.0909 172.119 75.5143 173C76.3663 174.773 81.4818 168.968 81.4998 170" stroke="#ED0022"/>
    <path d="M78.4998 175.5L76.9998 165.5" stroke="#DFDFDF"/>
    <rect x="55.4998" y="165.5" width="26" height="10" stroke="#0B0B0B"/>
    <rect x="96.4998" y="143.5" width="16" height="10" fill="#062B36" stroke="#0B0B0B"/>
    <circle cx="98.4998" cy="145.5" r="0.5" fill="#4ACFFA"/>
    <circle cx="98.4998" cy="147.5" r="0.5" fill="#4ACFFA"/>
    <circle cx="98.4998" cy="149.5" r="0.5" fill="#4ACFFA"/>
    <rect x="99.9998" y="145" width="5" height="1" rx="0.5" fill="#4ACFFA"/>
    <rect x="99.9998" y="147" width="5" height="1" rx="0.5" fill="#4ACFFA"/>
    <path d="M99.9998 149.5C99.9998 149.224 100.224 149 100.5 149H103.5C103.776 149 104 149.224 104 149.5C104 149.776 103.776 150 103.5 150H100.5C100.224 150 99.9998 149.776 99.9998 149.5Z" fill="#4ACFFA"/>
    <path d="M106.5 145.5H111" stroke="#4ACFFA" stroke-width="0.5" stroke-linecap="round"/>
    <path d="M106.5 147.5H110.5" stroke="#4ACFFA" stroke-width="0.5" stroke-linecap="round"/>
    <path d="M106.5 151.5H111" stroke="#4ACFFA" stroke-width="0.5" stroke-linecap="round"/>
    <path d="M106.5 150.5H107" stroke="#4ACFFA" stroke-width="0.5" stroke-linecap="round"/>
    <path d="M108 150.5H108.5" stroke="#4ACFFA" stroke-width="0.5" stroke-linecap="round"/>
    <path d="M109.5 150.5H111" stroke="#4ACFFA" stroke-width="0.5" stroke-linecap="round"/>
    <path d="M106.5 148.5H108.5" stroke="#4ACFFA" stroke-width="0.5" stroke-linecap="round"/>
    <path d="M109.5 148.5H111" stroke="#4ACFFA" stroke-width="0.5" stroke-linecap="round"/>
    <path d="M106.5 146.5H109.5" stroke="#4ACFFA" stroke-width="0.5" stroke-linecap="round"/>
    <path d="M106.5 149.5H109.5" stroke="#4ACFFA" stroke-width="0.5" stroke-linecap="round"/>
    <mask id="path-77-inside-1_3930_12348" fill="white">
        <path d="M96.9998 151H105V153H96.9998V151Z"/>
    </mask>
    <path d="M96.9998 151H105V153H96.9998V151Z" fill="white" fill-opacity="0.3"/>
    <path d="M105 151H105.5V150.5H105V151ZM96.9998 151V151.5H105V151V150.5H96.9998V151ZM105 151H104.5V153H105H105.5V151H105Z" fill="#0B0B0B" mask="url(#path-77-inside-1_3930_12348)"/>
    <path d="M113 122.5L108 125L103 122.5C104.34 120.611 105.46 119.941 108 119.5C110.329 119.878 111.694 120.613 113 122.5Z" fill="#FFF1A4"/>
    <circle cx="108" cy="125" r="5.5" stroke="#0B0B0B"/>
    <path d="M107.999 125L106.499 121.5" stroke="#0B0B0B" stroke-width="0.5"/>
    <circle cx="108" cy="125" r="0.5" fill="#0B0B0B"/>
    <path d="M48.9682 110.697C49.9299 110.697 50.7094 109.917 50.7094 108.956C50.7094 107.994 49.9299 107.215 48.9682 107.215C48.0066 107.215 47.2271 107.994 47.2271 108.956C47.2271 109.917 48.0066 110.697 48.9682 110.697Z" fill="#575756"/>
    <path d="M47.0007 108.956C47.0007 107.871 47.8833 107 48.9566 107C50.0299 107 50.9124 107.883 50.9124 108.956C50.9124 110.029 50.0299 110.912 48.9566 110.912C47.8833 110.912 47.0007 110.029 47.0007 108.956ZM47.4539 108.956C47.4539 109.803 48.1337 110.482 48.9804 110.482C49.8272 110.482 50.5069 109.803 50.5069 108.956C50.5069 108.109 49.8272 107.429 48.9804 107.429C48.1337 107.429 47.4539 108.109 47.4539 108.956Z" fill="#0B0B0B"/>
    <path d="M49.4758 108.157L48.1687 109.464L48.4723 109.768L49.7794 108.461L49.4758 108.157Z" fill="#0B0B0B"/>
    <path d="M48.4635 108.145L48.1599 108.449L49.467 109.756L49.7706 109.452L48.4635 108.145Z" fill="#0B0B0B"/>
    <path d="M120.968 110.697C121.93 110.697 122.709 109.917 122.709 108.956C122.709 107.994 121.93 107.215 120.968 107.215C120.007 107.215 119.227 107.994 119.227 108.956C119.227 109.917 120.007 110.697 120.968 110.697Z" fill="#575756"/>
    <path d="M119.001 108.956C119.001 107.871 119.883 107 120.957 107C122.03 107 122.912 107.883 122.912 108.956C122.912 110.029 122.03 110.912 120.957 110.912C119.883 110.912 119.001 110.029 119.001 108.956ZM119.454 108.956C119.454 109.803 120.134 110.482 120.98 110.482C121.827 110.482 122.507 109.803 122.507 108.956C122.507 108.109 121.827 107.429 120.98 107.429C120.134 107.429 119.454 108.109 119.454 108.956Z" fill="#0B0B0B"/>
    <path d="M121.476 108.157L120.169 109.464L120.472 109.768L121.779 108.461L121.476 108.157Z" fill="#0B0B0B"/>
    <path d="M120.463 108.145L120.16 108.449L121.467 109.756L121.771 109.452L120.463 108.145Z" fill="#0B0B0B"/>
    <path d="M120.968 187.697C121.93 187.697 122.709 186.917 122.709 185.956C122.709 184.994 121.93 184.215 120.968 184.215C120.007 184.215 119.227 184.994 119.227 185.956C119.227 186.917 120.007 187.697 120.968 187.697Z" fill="#575756"/>
    <path d="M119.001 185.956C119.001 184.871 119.883 184 120.957 184C122.03 184 122.912 184.883 122.912 185.956C122.912 187.029 122.03 187.912 120.957 187.912C119.883 187.912 119.001 187.029 119.001 185.956ZM119.454 185.956C119.454 186.803 120.134 187.482 120.98 187.482C121.827 187.482 122.507 186.803 122.507 185.956C122.507 185.109 121.827 184.429 120.98 184.429C120.134 184.429 119.454 185.109 119.454 185.956Z" fill="#0B0B0B"/>
    <path d="M121.476 185.157L120.169 186.464L120.472 186.768L121.779 185.461L121.476 185.157Z" fill="#0B0B0B"/>
    <path d="M120.463 185.145L120.16 185.449L121.467 186.756L121.771 186.452L120.463 185.145Z" fill="#0B0B0B"/>
    <path d="M48.9682 187.697C49.9299 187.697 50.7094 186.917 50.7094 185.956C50.7094 184.994 49.9299 184.215 48.9682 184.215C48.0066 184.215 47.2271 184.994 47.2271 185.956C47.2271 186.917 48.0066 187.697 48.9682 187.697Z" fill="#575756"/>
    <path d="M47.0007 185.956C47.0007 184.871 47.8833 184 48.9566 184C50.0299 184 50.9124 184.883 50.9124 185.956C50.9124 187.029 50.0299 187.912 48.9566 187.912C47.8833 187.912 47.0007 187.029 47.0007 185.956ZM47.4539 185.956C47.4539 186.803 48.1337 187.482 48.9804 187.482C49.8272 187.482 50.5069 186.803 50.5069 185.956C50.5069 185.109 49.8272 184.429 48.9804 184.429C48.1337 184.429 47.4539 185.109 47.4539 185.956Z" fill="#0B0B0B"/>
    <path d="M49.4758 185.157L48.1687 186.464L48.4723 186.768L49.7794 185.461L49.4758 185.157Z" fill="#0B0B0B"/>
    <path d="M48.4635 185.145L48.1599 185.449L49.467 186.756L49.7706 186.452L48.4635 185.145Z" fill="#0B0B0B"/>
    <path d="M53.9682 187.697C54.9299 187.697 55.7094 186.917 55.7094 185.956C55.7094 184.994 54.9299 184.215 53.9682 184.215C53.0066 184.215 52.2271 184.994 52.2271 185.956C52.2271 186.917 53.0066 187.697 53.9682 187.697Z" fill="#575756"/>
    <path d="M52.0007 185.956C52.0007 184.871 52.8833 184 53.9566 184C55.0299 184 55.9124 184.883 55.9124 185.956C55.9124 187.029 55.0299 187.912 53.9566 187.912C52.8833 187.912 52.0007 187.029 52.0007 185.956ZM52.4539 185.956C52.4539 186.803 53.1337 187.482 53.9804 187.482C54.8272 187.482 55.5069 186.803 55.5069 185.956C55.5069 185.109 54.8272 184.429 53.9804 184.429C53.1337 184.429 52.4539 185.109 52.4539 185.956Z" fill="#0B0B0B"/>
    <path d="M54.4758 185.157L53.1687 186.464L53.4723 186.768L54.7794 185.461L54.4758 185.157Z" fill="#0B0B0B"/>
    <path d="M53.4635 185.145L53.1599 185.449L54.467 186.756L54.7706 186.452L53.4635 185.145Z" fill="#0B0B0B"/>
    <path d="M136.5 128.5C136.296 126.307 136.019 125.092 135 123C140.442 122.674 143.24 121.635 148 119C149.007 120.708 149.427 121.679 150 123.5C145.467 126.482 142.626 127.72 136.5 128.5Z" fill="#313130"/>
    <path d="M140 151C139.173 153.76 139.043 155.289 139 158C144.977 157.984 148.247 158.173 154 159L153.999 158.96C153.928 156.057 153.888 154.419 153 151.5C150.745 152.121 149.417 152.32 147 152.5C143.995 152.284 142.558 151.823 140 151Z" fill="#313130"/>
    <path d="M127.479 117.805C124.54 112.384 127.864 106.454 132.975 103.004C138.503 99.273 148.974 103.844 150.819 111.539C152.107 116.913 146.761 120.601 141.456 122.15C135.969 123.753 130.203 122.83 127.479 117.805Z" fill="#878787" stroke="#0B0B0B"/>
    <path d="M136.875 149.815C136.552 141.754 135.879 137.081 134.311 128.609C141.169 128.404 144.945 127.011 151.486 122.842C155.568 134.446 155.741 140.567 154.878 151.28C147.473 152.926 143.505 152.762 136.875 149.815Z" fill="#878787" stroke="#0B0B0B"/>
    <path d="M155.131 158.925C149.178 158.249 145.728 157.918 137.539 158.034C135.953 169.139 135.75 174.739 135.094 184.997C142.555 185.952 146.584 186.397 153.509 187.038C154.787 176.318 155.856 170.447 155.131 158.925Z" fill="#878787" stroke="#0B0B0B"/>
    <path d="M136.5 128.5C136.364 126.308 136.079 125.103 135 123M150 123.5C149.574 121.714 149.203 120.722 148 119" stroke="#0B0B0B"/>
    <path d="M140.003 151C139.196 153.541 138.966 155.463 139 158" stroke="#0B0B0B"/>
    <path d="M152.999 152C153.806 154.541 154.033 155.963 153.999 158.5" stroke="#0B0B0B"/>
    <path d="M89.4919 103C82.2603 102.658 78.9465 102.108 75.4919 100L76.9919 95L76.4919 92L77.9919 88H101.492L102.992 92L102.492 95L103.992 100L89.4919 103Z" fill="#313130"/>
    <path d="M75.4919 100C75.4919 100 76.0394 98.0981 76.4919 97C77.1904 95.3052 76.7404 94.2821 76.4919 92.5C76.2616 90.8477 77.9919 88 77.9919 88" stroke="#0B0B0B"/>
    <path d="M76.4919 97.3721C85.8241 99.3466 91.6429 99.2698 102.992 97.3721" stroke="#0B0B0B"/>
    <path d="M76.9919 93.8721C86.6358 95.1184 92.2271 95.1969 102.492 93.8721" stroke="#0B0B0B"/>
    <path d="M103.992 100C103.992 100 103.445 98.0981 102.992 97C102.293 95.3052 102.744 94.2821 102.992 92.5C103.222 90.8477 101.492 88 101.492 88" stroke="#0B0B0B"/>
    <path d="M75.4916 99.9995C74.7949 100.652 86.1322 103.848 93.501 102.5C98.5865 101.57 103.992 99.9995 103.992 99.9995" stroke="#0B0B0B" stroke-linecap="round"/>
    <path d="M52.7534 42.5066L46.5281 35.6492V19.8115H48.5197V34.874L54.2203 41.1709L52.7534 42.5066Z" fill="#0B0B0B"/>
    <path d="M47.6372 20.1693C49.646 20.1693 51.2746 18.5408 51.2746 16.5319C51.2746 14.5231 49.646 12.8945 47.6372 12.8945C45.6283 12.8945 43.9998 14.5231 43.9998 16.5319C43.9998 18.5408 45.6283 20.1693 47.6372 20.1693Z" fill="#0B0B0B"/>
    <path d="M53.2463 17.7735L52.9441 84.7482L59.5034 91.9037H117.94L124.206 84.7482L124.206 17.3667L53.2463 17.7735Z" fill="#878787"/>
    <path d="M72.0256 12.5963H106.014C107.316 12.5963 108.4 13.9469 108.4 14.9815V16.7704H69.6404V14.3852C70.1884 13.3769 71.1971 12.6191 72.0256 12.5963Z" fill="#9D9D9C"/>
    <path d="M99.1567 21.8029H78.3818C77.8021 21.8029 77.3323 22.2727 77.3323 22.8523C77.3323 23.4319 77.8021 23.9018 78.3818 23.9018H99.1567C99.7363 23.9018 100.206 23.4319 100.206 22.8523C100.206 22.2727 99.7363 21.8029 99.1567 21.8029Z" fill="#575756"/>
    <path d="M99.1451 24.4981H78.3701C77.4638 24.4981 76.7244 23.7587 76.7244 22.8523C76.7244 21.9459 77.4638 21.2065 78.3701 21.2065H99.1451C100.051 21.2065 100.791 21.9459 100.791 22.8523C100.791 23.7587 100.051 24.4981 99.1451 24.4981ZM78.3821 22.3872C78.1316 22.3872 77.9289 22.5899 77.9289 22.8404C77.9289 23.0908 78.1316 23.2936 78.3821 23.2936H99.157C99.4075 23.2936 99.6102 23.0908 99.6102 22.8404C99.6102 22.5899 99.4075 22.3872 99.157 22.3872H78.3821Z" fill="#0B0B0B"/>
    <path d="M99.1567 25.7743H78.3818C77.8021 25.7743 77.3323 26.2442 77.3323 26.8238C77.3323 27.4034 77.8021 27.8733 78.3818 27.8733H99.1567C99.7363 27.8733 100.206 27.4034 100.206 26.8238C100.206 26.2442 99.7363 25.7743 99.1567 25.7743Z" fill="#575756"/>
    <path d="M99.1451 28.4576H78.3701C77.4638 28.4576 76.7244 27.7182 76.7244 26.8118C76.7244 25.9054 77.4638 25.166 78.3701 25.166H99.1451C100.051 25.166 100.791 25.9054 100.791 26.8118C100.791 27.7182 100.051 28.4576 99.1451 28.4576ZM78.3821 26.3705C78.1316 26.3705 77.9289 26.5733 77.9289 26.8237C77.9289 27.0742 78.1316 27.2769 78.3821 27.2769H99.157C99.4075 27.2769 99.6102 27.0742 99.6102 26.8237C99.6102 26.5733 99.4075 26.3705 99.157 26.3705H78.3821Z" fill="#0B0B0B"/>
    <path d="M99.1567 29.7458H78.3818C77.8021 29.7458 77.3323 30.2157 77.3323 30.7953C77.3323 31.3749 77.8021 31.8448 78.3818 31.8448H99.1567C99.7363 31.8448 100.206 31.3749 100.206 30.7953C100.206 30.2157 99.7363 29.7458 99.1567 29.7458Z" fill="#575756"/>
    <path d="M99.1451 32.4293H78.3701C77.4638 32.4293 76.7244 31.6898 76.7244 30.7835C76.7244 29.8771 77.4638 29.1377 78.3701 29.1377H99.1451C100.051 29.1377 100.791 29.8771 100.791 30.7835C100.791 31.6898 100.051 32.4293 99.1451 32.4293ZM78.3821 30.3422C78.1316 30.3422 77.9289 30.545 77.9289 30.7954C77.9289 31.0458 78.1316 31.2486 78.3821 31.2486H99.157C99.4075 31.2486 99.6102 31.0458 99.6102 30.7954C99.6102 30.545 99.4075 30.3422 99.157 30.3422H78.3821Z" fill="#0B0B0B"/>
    <path d="M60.6611 89.614C61.6227 89.614 62.4023 88.8344 62.4023 87.8728C62.4023 86.9111 61.6227 86.1316 60.6611 86.1316C59.6995 86.1316 58.9199 86.9111 58.9199 87.8728C58.9199 88.8344 59.6995 89.614 60.6611 89.614Z" fill="#575756"/>
    <path d="M60.6607 89.8287C59.5754 89.8287 58.7048 88.9462 58.7048 87.8728C58.7048 86.7995 59.5874 85.917 60.6607 85.917C61.734 85.917 62.6165 86.7995 62.6165 87.8728C62.6165 88.9462 61.734 89.8287 60.6607 89.8287ZM60.6607 86.3463C59.8139 86.3463 59.1342 87.0261 59.1342 87.8728C59.1342 88.7196 59.8139 89.3994 60.6607 89.3994C61.5074 89.3994 62.1872 88.7196 62.1872 87.8728C62.1872 87.0261 61.5074 86.3463 60.6607 86.3463Z" fill="#0B0B0B"/>
    <path d="M60.1644 87.0537L59.8608 87.3573L61.1679 88.6644L61.4715 88.3608L60.1644 87.0537Z" fill="#0B0B0B"/>
    <path d="M61.1679 87.0573L59.8608 88.3644L60.1644 88.668L61.4715 87.3609L61.1679 87.0573Z" fill="#0B0B0B"/>
    <path d="M56.2234 85.0823C57.185 85.0823 57.9645 84.3028 57.9645 83.3412C57.9645 82.3795 57.185 81.6 56.2234 81.6C55.2617 81.6 54.4822 82.3795 54.4822 83.3412C54.4822 84.3028 55.2617 85.0823 56.2234 85.0823Z" fill="#575756"/>
    <path d="M56.2232 85.297C55.1379 85.297 54.2673 84.4144 54.2673 83.3411C54.2673 82.2678 55.1499 81.3853 56.2232 81.3853C57.2965 81.3853 58.179 82.2678 58.179 83.3411C58.179 84.4144 57.2965 85.297 56.2232 85.297ZM56.2232 81.8146C55.3764 81.8146 54.6967 82.4944 54.6967 83.3411C54.6967 84.1878 55.3764 84.8676 56.2232 84.8676C57.0699 84.8676 57.7497 84.1878 57.7497 83.3411C57.7497 82.4944 57.0699 81.8146 56.2232 81.8146Z" fill="#0B0B0B"/>
    <path d="M55.7093 82.5345L55.4058 82.8381L56.7129 84.1452L57.0164 83.8416L55.7093 82.5345Z" fill="#0B0B0B"/>
    <path d="M56.7129 82.5262L55.4058 83.8333L55.7093 84.1368L57.0164 82.8297L56.7129 82.5262Z" fill="#0B0B0B"/>
    <path d="M115.209 89.614C116.171 89.614 116.951 88.8344 116.951 87.8728C116.951 86.9111 116.171 86.1316 115.209 86.1316C114.248 86.1316 113.468 86.9111 113.468 87.8728C113.468 88.8344 114.248 89.614 115.209 89.614Z" fill="#575756"/>
    <path d="M113.242 87.8728C113.242 86.7876 114.124 85.917 115.198 85.917C116.271 85.917 117.154 86.7995 117.154 87.8728C117.154 88.9462 116.271 89.8287 115.198 89.8287C114.124 89.8287 113.242 88.9462 113.242 87.8728ZM113.695 87.8728C113.695 88.7196 114.375 89.3994 115.222 89.3994C116.068 89.3994 116.748 88.7196 116.748 87.8728C116.748 87.0261 116.068 86.3463 115.222 86.3463C114.375 86.3463 113.695 87.0261 113.695 87.8728Z" fill="#0B0B0B"/>
    <path d="M115.717 87.074L114.41 88.3811L114.713 88.6847L116.021 87.3776L115.717 87.074Z" fill="#0B0B0B"/>
    <path d="M114.705 87.062L114.401 87.3656L115.708 88.6727L116.012 88.3691L114.705 87.062Z" fill="#0B0B0B"/>
    <path d="M119.658 85.0823C120.619 85.0823 121.399 84.3028 121.399 83.3412C121.399 82.3795 120.619 81.6 119.658 81.6C118.696 81.6 117.917 82.3795 117.917 83.3412C117.917 84.3028 118.696 85.0823 119.658 85.0823Z" fill="#575756"/>
    <path d="M117.702 83.3411C117.702 82.2558 118.584 81.3853 119.658 81.3853C120.731 81.3853 121.614 82.2678 121.614 83.3411C121.614 84.4144 120.731 85.297 119.658 85.297C118.584 85.297 117.702 84.4144 117.702 83.3411ZM118.131 83.3411C118.131 84.1878 118.811 84.8676 119.658 84.8676C120.504 84.8676 121.184 84.1878 121.184 83.3411C121.184 82.4944 120.504 81.8146 119.658 81.8146C118.811 81.8146 118.131 82.4944 118.131 83.3411Z" fill="#0B0B0B"/>
    <path d="M120.148 82.5249L118.841 83.832L119.145 84.1356L120.452 82.8285L120.148 82.5249Z" fill="#0B0B0B"/>
    <path d="M119.145 82.5335L118.841 82.837L120.148 84.1441L120.452 83.8405L119.145 82.5335Z" fill="#0B0B0B"/>
    <path d="M119.372 23.5441C120.333 23.5441 121.113 22.7646 121.113 21.803C121.113 20.8413 120.333 20.0618 119.372 20.0618C118.41 20.0618 117.631 20.8413 117.631 21.803C117.631 22.7646 118.41 23.5441 119.372 23.5441Z" fill="#575756"/>
    <path d="M119.372 23.7589C118.286 23.7589 117.416 22.8764 117.416 21.803C117.416 20.7297 118.298 19.8472 119.372 19.8472C120.445 19.8472 121.327 20.7297 121.327 21.803C121.327 22.8764 120.445 23.7589 119.372 23.7589ZM119.372 20.2765C118.525 20.2765 117.845 20.9563 117.845 21.803C117.845 22.6498 118.525 23.3295 119.372 23.3295C120.218 23.3295 120.898 22.6498 120.898 21.803C120.898 20.9563 120.218 20.2765 119.372 20.2765Z" fill="#0B0B0B"/>
    <path d="M118.855 20.9785L118.551 21.2821L119.858 22.5892L120.162 22.2856L118.855 20.9785Z" fill="#0B0B0B"/>
    <path d="M119.867 20.9904L118.56 22.2975L118.864 22.6011L120.171 21.294L119.867 20.9904Z" fill="#0B0B0B"/>
    <path d="M57.7986 23.5441C58.7602 23.5441 59.5397 22.7646 59.5397 21.803C59.5397 20.8413 58.7602 20.0618 57.7986 20.0618C56.8369 20.0618 56.0574 20.8413 56.0574 21.803C56.0574 22.7646 56.8369 23.5441 57.7986 23.5441Z" fill="#575756"/>
    <path d="M57.7984 23.7589C56.7131 23.7589 55.8425 22.8764 55.8425 21.803C55.8425 20.7297 56.725 19.8472 57.7984 19.8472C58.8717 19.8472 59.7542 20.7297 59.7542 21.803C59.7542 22.8764 58.8717 23.7589 57.7984 23.7589ZM57.7984 20.2765C56.9516 20.2765 56.2719 20.9563 56.2719 21.803C56.2719 22.6498 56.9516 23.3295 57.7984 23.3295C58.6451 23.3295 59.3249 22.6498 59.3249 21.803C59.3249 20.9563 58.6451 20.2765 57.7984 20.2765Z" fill="#0B0B0B"/>
    <path d="M57.2926 20.9795L56.989 21.2831L58.2961 22.5902L58.5997 22.2866L57.2926 20.9795Z" fill="#0B0B0B"/>
    <path d="M58.2961 20.9711L56.989 22.2782L57.2926 22.5818L58.5997 21.2747L58.2961 20.9711Z" fill="#0B0B0B"/>
    <mask id="mask0_3930_12348" style="mask-type:luminance" maskUnits="userSpaceOnUse" x="58" y="39" width="60" height="22">
        <path d="M109.33 39.2148H66.6951C62.2229 39.2148 58.5974 42.8403 58.5974 47.3125V52.8462C58.5974 57.3184 62.2229 60.9439 66.6951 60.9439H109.33C113.803 60.9439 117.428 57.3184 117.428 52.8462V47.3125C117.428 42.8403 113.803 39.2148 109.33 39.2148Z" fill="white"/>
    </mask>
    <g mask="url(#mask0_3930_12348)">
        <path d="M116.879 37.3186H66.0628C61.5906 37.3186 57.9651 40.9441 57.9651 45.4163V56.0185C57.9651 60.4907 61.5906 64.1162 66.0628 64.1162H116.879C121.351 64.1162 124.977 60.4907 124.977 56.0185V45.4163C124.977 40.9441 121.351 37.3186 116.879 37.3186Z" fill="#013A1C"/>
        <path d="M118.275 60.109H116.939V61.4447H118.275V60.109Z" fill="#013A1C"/>
        <path d="M116.927 60.109H115.591V61.4447H116.927V60.109Z" fill="#013A1C"/>
        <path d="M115.591 60.109H114.256V61.4447H115.591V60.109Z" fill="#013A1C"/>
        <path d="M114.243 60.109H112.907V61.4447H114.243V60.109Z" fill="#013A1C"/>
        <path d="M112.908 60.109H111.572V61.4447H112.908V60.109Z" fill="#013A1C"/>
        <path d="M111.572 60.109H110.236V61.4447H111.572V60.109Z" fill="#013A1C"/>
        <path d="M110.225 60.109H108.889V61.4447H110.225V60.109Z" fill="#013A1C"/>
        <path d="M108.889 60.109H107.553V61.4447H108.889V60.109Z" fill="#013A1C"/>
        <path d="M107.541 60.109H106.206V61.4447H107.541V60.109Z" fill="#013A1C"/>
        <path d="M106.205 60.109H104.87V61.4447H106.205V60.109Z" fill="#013A1C"/>
        <path d="M104.858 60.109H103.522V61.4447H104.858V60.109Z" fill="#013A1C"/>
        <path d="M103.522 60.109H102.186V61.4447H103.522V60.109Z" fill="#013A1C"/>
        <path d="M102.175 60.109H100.839V61.4447H102.175V60.109Z" fill="#013A1C"/>
        <path d="M100.85 60.109H99.5146V61.4447H100.85V60.109Z" fill="#013A1C"/>
        <path d="M99.4912 60.109H98.1555V61.4447H99.4912V60.109Z" fill="#013A1C"/>
        <path d="M98.167 60.109H96.8313V61.4447H98.167V60.109Z" fill="#013A1C"/>
        <path d="M96.8318 60.109H95.4961V61.4447H96.8318V60.109Z" fill="#013A1C"/>
        <path d="M95.4837 60.109H94.1479V61.4447H95.4837V60.109Z" fill="#013A1C"/>
        <path d="M94.1484 60.109H92.8127V61.4447H94.1484V60.109Z" fill="#013A1C"/>
        <path d="M92.8003 60.109H91.4646V61.4447H92.8003V60.109Z" fill="#013A1C"/>
        <path d="M91.4651 60.109H90.1294V61.4447H91.4651V60.109Z" fill="#013A1C"/>
        <path d="M90.1172 60.109H88.7815V61.4447H90.1172V60.109Z" fill="#013A1C"/>
        <path d="M88.7817 60.109H87.446V61.4447H88.7817V60.109Z" fill="#013A1C"/>
        <path d="M87.4338 60.109H86.0981V61.4447H87.4338V60.109Z" fill="#013A1C"/>
        <path d="M86.1101 60.109H84.7744V61.4447H86.1101V60.109Z" fill="#013A1C"/>
        <path d="M84.7505 60.109H83.4148V61.4447H84.7505V60.109Z" fill="#013A1C"/>
        <path d="M83.4268 60.109H82.0911V61.4447H83.4268V60.109Z" fill="#013A1C"/>
        <path d="M82.0911 60.109H80.7554V61.4447H82.0911V60.109Z" fill="#013A1C"/>
        <path d="M80.7434 60.109H79.4077V61.4447H80.7434V60.109Z" fill="#013A1C"/>
        <path d="M79.4077 60.109H78.072V61.4447H79.4077V60.109Z" fill="#013A1C"/>
        <path d="M78.0601 60.109H76.7244V61.4447H78.0601V60.109Z" fill="#013A1C"/>
        <path d="M76.7244 60.109H75.3887V61.4447H76.7244V60.109Z" fill="#013A1C"/>
        <path d="M75.3889 60.109H74.0532V61.4447H75.3889V60.109Z" fill="#013A1C"/>
        <path d="M74.041 60.109H72.7053V61.4447H74.041V60.109Z" fill="#013A1C"/>
        <path d="M72.7056 60.109H71.3699V61.4447H72.7056V60.109Z" fill="#013A1C"/>
        <path d="M71.3699 60.109H70.0342V61.4447H71.3699V60.109Z" fill="#013A1C"/>
        <path d="M70.0225 60.109H68.6868V61.4447H70.0225V60.109Z" fill="#013A1C"/>
        <path d="M68.6865 60.109H67.3508V61.4447H68.6865V60.109Z" fill="#013A1C"/>
        <path d="M67.3391 60.109H66.0034V61.4447H67.3391V60.109Z" fill="#013A1C"/>
        <path d="M66.0032 60.109H64.6675V61.4447H66.0032V60.109Z" fill="#013A1C"/>
        <path d="M64.6672 60.109H63.3315V61.4447H64.6672V60.109Z" fill="#013A1C"/>
        <path d="M63.3198 60.109H61.9841V61.4447H63.3198V60.109Z" fill="#013A1C"/>
        <path d="M61.9839 60.109H60.6482V61.4447H61.9839V60.109Z" fill="#013A1C"/>
        <path d="M60.6482 60.109H59.3125V61.4447H60.6482V60.109Z" fill="#013A1C"/>
        <path d="M59.3008 60.109H57.9651V61.4447H59.3008V60.109Z" fill="#013A1C"/>
        <path d="M118.275 58.7614H116.939V60.0971H118.275V58.7614Z" fill="#013A1C"/>
        <path d="M116.927 58.7614H115.591V60.0971H116.927V58.7614Z" fill="#013A1C"/>
        <path d="M115.591 58.7614H114.256V60.0971H115.591V58.7614Z" fill="#013A1C"/>
        <path d="M114.243 58.7614H112.907V60.0971H114.243V58.7614Z" fill="#013A1C"/>
        <path d="M112.908 58.7614H111.572V60.0971H112.908V58.7614Z" fill="#013A1C"/>
        <path d="M111.572 58.7614H110.236V60.0971H111.572V58.7614Z" fill="#013A1C"/>
        <path d="M110.225 58.7614H108.889V60.0971H110.225V58.7614Z" fill="#013A1C"/>
        <path d="M108.889 58.7614H107.553V60.0971H108.889V58.7614Z" fill="#013A1C"/>
        <path d="M107.541 58.7614H106.206V60.0971H107.541V58.7614Z" fill="#013A1C"/>
        <path d="M106.205 58.7614H104.87V60.0971H106.205V58.7614Z" fill="#013A1C"/>
        <path d="M104.858 58.7614H103.522V60.0971H104.858V58.7614Z" fill="#013A1C"/>
        <path d="M103.522 58.7614H102.186V60.0971H103.522V58.7614Z" fill="#013A1C"/>
        <path d="M102.175 58.7614H100.839V60.0971H102.175V58.7614Z" fill="#013A1C"/>
        <path d="M100.85 58.7614H99.5146V60.0971H100.85V58.7614Z" fill="#013A1C"/>
        <path d="M99.4912 58.7614H98.1555V60.0971H99.4912V58.7614Z" fill="#013A1C"/>
        <path d="M98.167 58.7614H96.8313V60.0971H98.167V58.7614Z" fill="#013A1C"/>
        <path d="M96.8318 58.7614H95.4961V60.0971H96.8318V58.7614Z" fill="#013A1C"/>
        <path d="M95.4837 58.7614H94.1479V60.0971H95.4837V58.7614Z" fill="#013A1C"/>
        <path d="M94.1484 58.7614H92.8127V60.0971H94.1484V58.7614Z" fill="#013A1C"/>
        <path d="M92.8003 58.7614H91.4646V60.0971H92.8003V58.7614Z" fill="#013A1C"/>
        <path d="M91.4651 58.7614H90.1294V60.0971H91.4651V58.7614Z" fill="#013A1C"/>
        <path d="M90.1172 58.7614H88.7815V60.0971H90.1172V58.7614Z" fill="#013A1C"/>
        <path d="M88.7817 58.7614H87.446V60.0971H88.7817V58.7614Z" fill="#013A1C"/>
        <path d="M87.4338 58.7614H86.0981V60.0971H87.4338V58.7614Z" fill="#013A1C"/>
        <path d="M86.1101 58.7614H84.7744V60.0971H86.1101V58.7614Z" fill="#013A1C"/>
        <path d="M84.7505 58.7614H83.4148V60.0971H84.7505V58.7614Z" fill="#013A1C"/>
        <path d="M83.4268 58.7614H82.0911V60.0971H83.4268V58.7614Z" fill="#013A1C"/>
        <path d="M82.0911 58.7614H80.7554V60.0971H82.0911V58.7614Z" fill="#013A1C"/>
        <path d="M80.7434 58.7614H79.4077V60.0971H80.7434V58.7614Z" fill="#013A1C"/>
        <path d="M79.4077 58.7614H78.072V60.0971H79.4077V58.7614Z" fill="#013A1C"/>
        <path d="M78.0601 58.7614H76.7244V60.0971H78.0601V58.7614Z" fill="#013A1C"/>
        <path d="M76.7244 58.7614H75.3887V60.0971H76.7244V58.7614Z" fill="#013A1C"/>
        <path d="M75.3889 58.7614H74.0532V60.0971H75.3889V58.7614Z" fill="#013A1C"/>
        <path d="M74.041 58.7614H72.7053V60.0971H74.041V58.7614Z" fill="#013A1C"/>
        <path d="M72.7056 58.7614H71.3699V60.0971H72.7056V58.7614Z" fill="#013A1C"/>
        <path d="M71.3699 58.7614H70.0342V60.0971H71.3699V58.7614Z" fill="#013A1C"/>
        <path d="M70.0225 58.7614H68.6868V60.0971H70.0225V58.7614Z" fill="#013A1C"/>
        <path d="M68.6865 58.7614H67.3508V60.0971H68.6865V58.7614Z" fill="#013A1C"/>
        <path d="M67.3391 58.7614H66.0034V60.0971H67.3391V58.7614Z" fill="#013A1C"/>
        <path d="M66.0032 58.7614H64.6675V60.0971H66.0032V58.7614Z" fill="#013A1C"/>
        <path d="M64.6672 58.7614H63.3315V60.0971H64.6672V58.7614Z" fill="#013A1C"/>
        <path d="M63.3198 58.7614H61.9841V60.0971H63.3198V58.7614Z" fill="#013A1C"/>
        <path d="M61.9839 58.7614H60.6482V60.0971H61.9839V58.7614Z" fill="#013A1C"/>
        <path d="M60.6482 58.7614H59.3125V60.0971H60.6482V58.7614Z" fill="#013A1C"/>
        <path d="M59.3008 58.7614H57.9651V60.0971H59.3008V58.7614Z" fill="#013A1C"/>
        <path d="M118.251 57.4257H116.915V58.7614H118.251V57.4257Z" fill="#013A1C"/>
        <path d="M116.927 57.4257H115.591V58.7614H116.927V57.4257Z" fill="#013A1C"/>
        <path d="M115.567 57.4257H114.232V58.7614H115.567V57.4257Z" fill="#013A1C"/>
        <path d="M114.243 57.4257H112.907V58.7614H114.243V57.4257Z" fill="#013A1C"/>
        <path d="M112.908 57.4257H111.572V58.7614H112.908V57.4257Z" fill="#013A1C"/>
        <path d="M111.572 57.4257H110.236V58.7614H111.572V57.4257Z" fill="#013A1C"/>
        <path d="M110.225 57.4257H108.889V58.7614H110.225V57.4257Z" fill="#013A1C"/>
        <path d="M108.889 57.4257H107.553V58.7614H108.889V57.4257Z" fill="#013A1C"/>
        <path d="M107.541 57.4257H106.206V58.7614H107.541V57.4257Z" fill="#013A1C"/>
        <path d="M106.205 57.4257H104.87V58.7614H106.205V57.4257Z" fill="#013A1C"/>
        <path d="M104.858 57.4257H103.522V58.7614H104.858V57.4257Z" fill="#013A1C"/>
        <path d="M103.522 57.4257H102.186V58.7614H103.522V57.4257Z" fill="#013A1C"/>
        <path d="M102.175 57.4257H100.839V58.7614H102.175V57.4257Z" fill="#013A1C"/>
        <path d="M100.85 57.4257H99.5146V58.7614H100.85V57.4257Z" fill="#013A1C"/>
        <path d="M99.4912 57.4257H98.1555V58.7614H99.4912V57.4257Z" fill="#013A1C"/>
        <path d="M98.167 57.4257H96.8313V58.7614H98.167V57.4257Z" fill="#013A1C"/>
        <path d="M96.8318 57.4257H95.4961V58.7614H96.8318V57.4257Z" fill="#013A1C"/>
        <path d="M95.4837 57.4257H94.1479V58.7614H95.4837V57.4257Z" fill="#013A1C"/>
        <path d="M94.1484 57.4257H92.8127V58.7614H94.1484V57.4257Z" fill="#013A1C"/>
        <path d="M92.8003 57.4257H91.4646V58.7614H92.8003V57.4257Z" fill="#013A1C"/>
        <path d="M91.4651 57.4257H90.1294V58.7614H91.4651V57.4257Z" fill="#013A1C"/>
        <path d="M90.1172 57.4257H88.7815V58.7614H90.1172V57.4257Z" fill="#013A1C"/>
        <path d="M88.7817 57.4257H87.446V58.7614H88.7817V57.4257Z" fill="#013A1C"/>
        <path d="M87.4338 57.4257H86.0981V58.7614H87.4338V57.4257Z" fill="#013A1C"/>
        <path d="M86.1101 57.4257H84.7744V58.7614H86.1101V57.4257Z" fill="#013A1C"/>
        <path d="M84.7505 57.4257H83.4148V58.7614H84.7505V57.4257Z" fill="#013A1C"/>
        <path d="M83.4268 57.4257H82.0911V58.7614H83.4268V57.4257Z" fill="#013A1C"/>
        <path d="M82.0911 57.4257H80.7554V58.7614H82.0911V57.4257Z" fill="#013A1C"/>
        <path d="M80.7434 57.4257H79.4077V58.7614H80.7434V57.4257Z" fill="#013A1C"/>
        <path d="M79.4077 57.4257H78.072V58.7614H79.4077V57.4257Z" fill="#013A1C"/>
        <path d="M78.0601 57.4257H76.7244V58.7614H78.0601V57.4257Z" fill="#013A1C"/>
        <path d="M76.7244 57.4257H75.3887V58.7614H76.7244V57.4257Z" fill="#013A1C"/>
        <path d="M75.3889 57.4257H74.0532V58.7614H75.3889V57.4257Z" fill="#013A1C"/>
        <path d="M74.041 57.4257H72.7053V58.7614H74.041V57.4257Z" fill="#013A1C"/>
        <path d="M72.7056 57.4257H71.3699V58.7614H72.7056V57.4257Z" fill="#013A1C"/>
        <path d="M71.3699 57.4257H70.0342V58.7614H71.3699V57.4257Z" fill="#013A1C"/>
        <path d="M70.0225 57.4257H68.6868V58.7614H70.0225V57.4257Z" fill="#013A1C"/>
        <path d="M68.6865 57.4257H67.3508V58.7614H68.6865V57.4257Z" fill="#013A1C"/>
        <path d="M67.3391 57.4257H66.0034V58.7614H67.3391V57.4257Z" fill="#013A1C"/>
        <path d="M66.0032 57.4257H64.6675V58.7614H66.0032V57.4257Z" fill="#013A1C"/>
        <path d="M64.6672 57.4257H63.3315V58.7614H64.6672V57.4257Z" fill="#013A1C"/>
        <path d="M63.3198 57.4257H61.9841V58.7614H63.3198V57.4257Z" fill="#013A1C"/>
        <path d="M61.9839 57.4257H60.6482V58.7614H61.9839V57.4257Z" fill="#013A1C"/>
        <path d="M60.6482 57.4257H59.3125V58.7614H60.6482V57.4257Z" fill="#013A1C"/>
        <path d="M59.3008 57.4257H57.9651V58.7614H59.3008V57.4257Z" fill="#013A1C"/>
        <path d="M112.908 56.09H111.572V57.4257H112.908V56.09Z" fill="#013A1C"/>
        <path d="M111.572 56.09H110.236V57.4257H111.572V56.09Z" fill="#013A1C"/>
        <path d="M110.225 56.09H108.889V57.4257H110.225V56.09Z" fill="#013A1C"/>
        <path d="M108.889 56.09H107.553V57.4257H108.889V56.09Z" fill="#013A1C"/>
        <path d="M107.541 56.09H106.206V57.4257H107.541V56.09Z" fill="#013A1C"/>
        <path d="M106.205 56.09H104.87V57.4257H106.205V56.09Z" fill="#013A1C"/>
        <path d="M104.858 56.09H103.522V57.4257H104.858V56.09Z" fill="#013A1C"/>
        <path d="M103.522 56.09H102.186V57.4257H103.522V56.09Z" fill="#013A1C"/>
        <path d="M102.175 56.09H100.839V57.4257H102.175V56.09Z" fill="#013A1C"/>
        <path d="M100.85 56.09H99.5146V57.4257H100.85V56.09Z" fill="#013A1C"/>
        <path d="M99.4912 56.09H98.1555V57.4257H99.4912V56.09Z" fill="#013A1C"/>
        <path d="M98.167 56.09H96.8313V57.4257H98.167V56.09Z" fill="#013A1C"/>
        <path d="M96.8318 56.09H95.4961V57.4257H96.8318V56.09Z" fill="#013A1C"/>
        <path d="M95.4837 56.09H94.1479V57.4257H95.4837V56.09Z" fill="#013A1C"/>
        <path d="M94.1484 56.09H92.8127V57.4257H94.1484V56.09Z" fill="#013A1C"/>
        <path d="M92.8003 56.09H91.4646V57.4257H92.8003V56.09Z" fill="#013A1C"/>
        <path d="M91.4651 56.09H90.1294V57.4257H91.4651V56.09Z" fill="#013A1C"/>
        <path d="M90.1172 56.09H88.7815V57.4257H90.1172V56.09Z" fill="#013A1C"/>
        <path d="M88.7817 56.09H87.446V57.4257H88.7817V56.09Z" fill="#013A1C"/>
        <path d="M87.4338 56.09H86.0981V57.4257H87.4338V56.09Z" fill="#013A1C"/>
        <path d="M86.1101 56.09H84.7744V57.4257H86.1101V56.09Z" fill="#013A1C"/>
        <path d="M84.7505 56.09H83.4148V57.4257H84.7505V56.09Z" fill="#013A1C"/>
        <path d="M83.4268 56.09H82.0911V57.4257H83.4268V56.09Z" fill="#013A1C"/>
        <path d="M82.0911 56.09H80.7554V57.4257H82.0911V56.09Z" fill="#013A1C"/>
        <path d="M80.7434 56.09H79.4077V57.4257H80.7434V56.09Z" fill="#013A1C"/>
        <path d="M79.4077 56.09H78.072V57.4257H79.4077V56.09Z" fill="#013A1C"/>
        <path d="M78.0601 56.09H76.7244V57.4257H78.0601V56.09Z" fill="#013A1C"/>
        <path d="M76.7244 56.09H75.3887V57.4257H76.7244V56.09Z" fill="#013A1C"/>
        <path d="M75.3889 56.09H74.0532V57.4257H75.3889V56.09Z" fill="#013A1C"/>
        <path d="M74.041 56.09H72.7053V57.4257H74.041V56.09Z" fill="#013A1C"/>
        <path d="M72.7056 56.09H71.3699V57.4257H72.7056V56.09Z" fill="#013A1C"/>
        <path d="M71.3577 56.09H70.022V57.4257H71.3577V56.09Z" fill="#013A1C"/>
        <path d="M64.6558 56.09H63.3201V57.4257H64.6558V56.09Z" fill="#013A1C"/>
        <path d="M63.3198 56.09H61.9841V57.4257H63.3198V56.09Z" fill="#013A1C"/>
        <path d="M61.9839 56.09H60.6482V57.4257H61.9839V56.09Z" fill="#013A1C"/>
        <path d="M60.6482 56.09H59.3125V57.4257H60.6482V56.09Z" fill="#013A1C"/>
        <path d="M59.3008 56.09H57.9651V57.4257H59.3008V56.09Z" fill="#013A1C"/>
        <path d="M111.56 54.7423H110.224V56.078H111.56V54.7423Z" fill="#013A1C"/>
        <path d="M110.225 54.7423H108.889V56.078H110.225V54.7423Z" fill="#013A1C"/>
        <path d="M108.889 54.7423H107.553V56.078H108.889V54.7423Z" fill="#013A1C"/>
        <path d="M107.541 54.7423H106.206V56.078H107.541V54.7423Z" fill="#013A1C"/>
        <path d="M106.205 54.7423H104.87V56.078H106.205V54.7423Z" fill="#013A1C"/>
        <path d="M104.858 54.7423H103.522V56.078H104.858V54.7423Z" fill="#013A1C"/>
        <path d="M103.522 54.7423H102.186V56.078H103.522V54.7423Z" fill="#013A1C"/>
        <path d="M102.175 54.7423H100.839V56.078H102.175V54.7423Z" fill="#013A1C"/>
        <path d="M100.85 54.7423H99.5146V56.078H100.85V54.7423Z" fill="#013A1C"/>
        <path d="M99.4912 54.7423H98.1555V56.078H99.4912V54.7423Z" fill="#013A1C"/>
        <path d="M98.167 54.7423H96.8313V56.078H98.167V54.7423Z" fill="#013A1C"/>
        <path d="M96.8318 54.7423H95.4961V56.078H96.8318V54.7423Z" fill="#013A1C"/>
        <path d="M95.4837 54.7423H94.1479V56.078H95.4837V54.7423Z" fill="#013A1C"/>
        <path d="M94.1484 54.7423H92.8127V56.078H94.1484V54.7423Z" fill="#013A1C"/>
        <path d="M92.8003 54.7423H91.4646V56.078H92.8003V54.7423Z" fill="#013A1C"/>
        <path d="M91.4651 54.7423H90.1294V56.078H91.4651V54.7423Z" fill="#013A1C"/>
        <path d="M90.1172 54.7423H88.7815V56.078H90.1172V54.7423Z" fill="#013A1C"/>
        <path d="M88.7817 54.7423H87.446V56.078H88.7817V54.7423Z" fill="#013A1C"/>
        <path d="M87.4338 54.7423H86.0981V56.078H87.4338V54.7423Z" fill="#013A1C"/>
        <path d="M86.1101 54.7423H84.7744V56.078H86.1101V54.7423Z" fill="#013A1C"/>
        <path d="M84.7505 54.7423H83.4148V56.078H84.7505V54.7423Z" fill="#013A1C"/>
        <path d="M83.4268 54.7423H82.0911V56.078H83.4268V54.7423Z" fill="#013A1C"/>
        <path d="M82.0911 54.7423H80.7554V56.078H82.0911V54.7423Z" fill="#013A1C"/>
        <path d="M80.7434 54.7423H79.4077V56.078H80.7434V54.7423Z" fill="#013A1C"/>
        <path d="M79.4077 54.7423H78.072V56.078H79.4077V54.7423Z" fill="#013A1C"/>
        <path d="M78.0601 54.7423H76.7244V56.078H78.0601V54.7423Z" fill="#013A1C"/>
        <path d="M76.7244 54.7423H75.3887V56.078H76.7244V54.7423Z" fill="#013A1C"/>
        <path d="M75.3889 54.7423H74.0532V56.078H75.3889V54.7423Z" fill="#013A1C"/>
        <path d="M74.041 54.7423H72.7053V56.078H74.041V54.7423Z" fill="#013A1C"/>
        <path d="M72.7056 54.7423H71.3699V56.078H72.7056V54.7423Z" fill="#013A1C"/>
        <path d="M63.3198 54.7423H61.9841V56.078H63.3198V54.7423Z" fill="#013A1C"/>
        <path d="M61.9839 54.7423H60.6482V56.078H61.9839V54.7423Z" fill="#013A1C"/>
        <path d="M60.6482 54.7423H59.3125V56.078H60.6482V54.7423Z" fill="#013A1C"/>
        <path d="M59.3008 54.7423H57.9651V56.078H59.3008V54.7423Z" fill="#013A1C"/>
        <path d="M110.225 53.4066H108.889V54.7423H110.225V53.4066Z" fill="#013A1C"/>
        <path d="M108.889 53.4066H107.553V54.7423H108.889V53.4066Z" fill="#013A1C"/>
        <path d="M107.541 53.4066H106.206V54.7423H107.541V53.4066Z" fill="#013A1C"/>
        <path d="M106.205 53.4066H104.87V54.7423H106.205V53.4066Z" fill="#013A1C"/>
        <path d="M104.858 53.4066H103.522V54.7423H104.858V53.4066Z" fill="#013A1C"/>
        <path d="M103.522 53.4066H102.186V54.7423H103.522V53.4066Z" fill="#013A1C"/>
        <path d="M102.175 53.4066H100.839V54.7423H102.175V53.4066Z" fill="#013A1C"/>
        <path d="M100.85 53.4066H99.5146V54.7423H100.85V53.4066Z" fill="#013A1C"/>
        <path d="M99.4912 53.4066H98.1555V54.7423H99.4912V53.4066Z" fill="#013A1C"/>
        <path d="M98.167 53.4066H96.8313V54.7423H98.167V53.4066Z" fill="#013A1C"/>
        <path d="M96.8318 53.4066H95.4961V54.7423H96.8318V53.4066Z" fill="#013A1C"/>
        <path d="M95.4837 53.4066H94.1479V54.7423H95.4837V53.4066Z" fill="#013A1C"/>
        <path d="M94.1484 53.4066H92.8127V54.7423H94.1484V53.4066Z" fill="#013A1C"/>
        <path d="M92.8003 53.4066H91.4646V54.7423H92.8003V53.4066Z" fill="#013A1C"/>
        <path d="M91.4651 53.4066H90.1294V54.7423H91.4651V53.4066Z" fill="#013A1C"/>
        <path d="M90.1172 53.4066H88.7815V54.7423H90.1172V53.4066Z" fill="#013A1C"/>
        <path d="M88.7817 53.4066H87.446V54.7423H88.7817V53.4066Z" fill="#013A1C"/>
        <path d="M87.4338 53.4066H86.0981V54.7423H87.4338V53.4066Z" fill="#013A1C"/>
        <path d="M86.1101 53.4066H84.7744V54.7423H86.1101V53.4066Z" fill="#013A1C"/>
        <path d="M84.7505 53.4066H83.4148V54.7423H84.7505V53.4066Z" fill="#013A1C"/>
        <path d="M83.4268 53.4066H82.0911V54.7423H83.4268V53.4066Z" fill="#013A1C"/>
        <path d="M82.0911 53.4066H80.7554V54.7423H82.0911V53.4066Z" fill="#013A1C"/>
        <path d="M80.7434 53.4066H79.4077V54.7423H80.7434V53.4066Z" fill="#013A1C"/>
        <path d="M79.4077 53.4066H78.072V54.7423H79.4077V53.4066Z" fill="#013A1C"/>
        <path d="M78.0601 53.4066H76.7244V54.7423H78.0601V53.4066Z" fill="#013A1C"/>
        <path d="M76.7244 53.4066H75.3887V54.7423H76.7244V53.4066Z" fill="#013A1C"/>
        <path d="M75.3889 53.4066H74.0532V54.7423H75.3889V53.4066Z" fill="#013A1C"/>
        <path d="M74.041 53.4066H72.7053V54.7423H74.041V53.4066Z" fill="#013A1C"/>
        <path d="M61.9839 53.4066H60.6482V54.7423H61.9839V53.4066Z" fill="#013A1C"/>
        <path d="M60.6482 53.4066H59.3125V54.7423H60.6482V53.4066Z" fill="#013A1C"/>
        <path d="M59.3008 53.4066H57.9651V54.7423H59.3008V53.4066Z" fill="#013A1C"/>
        <path d="M108.889 52.071H107.553V53.4067H108.889V52.071Z" fill="#013A1C"/>
        <path d="M107.541 52.0591H106.206V53.3948H107.541V52.0591Z" fill="#013A1C"/>
        <path d="M106.205 52.0591H104.87V53.3948H106.205V52.0591Z" fill="#013A1C"/>
        <path d="M104.858 52.0591H103.522V53.3948H104.858V52.0591Z" fill="#013A1C"/>
        <path d="M103.522 52.0591H102.186V53.3948H103.522V52.0591Z" fill="#013A1C"/>
        <path d="M102.175 52.0591H100.839V53.3948H102.175V52.0591Z" fill="#013A1C"/>
        <path d="M100.85 52.0591H99.5146V53.3948H100.85V52.0591Z" fill="#013A1C"/>
        <path d="M99.4912 52.0591H98.1555V53.3948H99.4912V52.0591Z" fill="#013A1C"/>
        <path d="M98.167 52.0591H96.8313V53.3948H98.167V52.0591Z" fill="#013A1C"/>
        <path d="M96.8318 52.0591H95.4961V53.3948H96.8318V52.0591Z" fill="#013A1C"/>
        <path d="M95.4837 52.0591H94.1479V53.3948H95.4837V52.0591Z" fill="#013A1C"/>
        <path d="M94.1484 52.0591H92.8127V53.3948H94.1484V52.0591Z" fill="#013A1C"/>
        <path d="M92.8003 52.0591H91.4646V53.3948H92.8003V52.0591Z" fill="#013A1C"/>
        <path d="M91.4651 52.0591H90.1294V53.3948H91.4651V52.0591Z" fill="#013A1C"/>
        <path d="M90.1172 52.0591H88.7815V53.3948H90.1172V52.0591Z" fill="#013A1C"/>
        <path d="M88.7817 52.0591H87.446V53.3948H88.7817V52.0591Z" fill="#013A1C"/>
        <path d="M87.4338 52.0591H86.0981V53.3948H87.4338V52.0591Z" fill="#013A1C"/>
        <path d="M86.1101 52.0591H84.7744V53.3948H86.1101V52.0591Z" fill="#013A1C"/>
        <path d="M84.7505 52.0591H83.4148V53.3948H84.7505V52.0591Z" fill="#013A1C"/>
        <path d="M83.4268 52.0591H82.0911V53.3948H83.4268V52.0591Z" fill="#013A1C"/>
        <path d="M82.0911 52.0591H80.7554V53.3948H82.0911V52.0591Z" fill="#013A1C"/>
        <path d="M80.7434 52.0591H79.4077V53.3948H80.7434V52.0591Z" fill="#013A1C"/>
        <path d="M79.4077 52.0591H78.072V53.3948H79.4077V52.0591Z" fill="#013A1C"/>
        <path d="M78.0601 52.0591H76.7244V53.3948H78.0601V52.0591Z" fill="#013A1C"/>
        <path d="M76.7244 52.0591H75.3887V53.3948H76.7244V52.0591Z" fill="#013A1C"/>
        <path d="M75.3767 52.071H74.041V53.4067H75.3767V52.071Z" fill="#013A1C"/>
        <path d="M60.6365 52.071H59.3008V53.4067H60.6365V52.071Z" fill="#013A1C"/>
        <path d="M59.3008 52.0591H57.9651V53.3948H59.3008V52.0591Z" fill="#013A1C"/>
        <path d="M108.889 50.7233H107.553V52.059H108.889V50.7233Z" fill="#013A1C"/>
        <path d="M107.541 50.7233H106.206V52.059H107.541V50.7233Z" fill="#013A1C"/>
        <path d="M106.205 50.7233H104.87V52.059H106.205V50.7233Z" fill="#013A1C"/>
        <path d="M104.858 50.7233H103.522V52.059H104.858V50.7233Z" fill="#013A1C"/>
        <path d="M103.522 50.7233H102.186V52.059H103.522V50.7233Z" fill="#013A1C"/>
        <path d="M102.175 50.7233H100.839V52.059H102.175V50.7233Z" fill="#013A1C"/>
        <path d="M100.85 50.7233H99.5146V52.059H100.85V50.7233Z" fill="#013A1C"/>
        <path d="M99.4912 50.7233H98.1555V52.059H99.4912V50.7233Z" fill="#013A1C"/>
        <path d="M98.167 50.7233H96.8313V52.059H98.167V50.7233Z" fill="#013A1C"/>
        <path d="M96.8318 50.7233H95.4961V52.059H96.8318V50.7233Z" fill="#013A1C"/>
        <path d="M95.4837 50.7233H94.1479V52.059H95.4837V50.7233Z" fill="#013A1C"/>
        <path d="M94.1484 50.7233H92.8127V52.059H94.1484V50.7233Z" fill="#013A1C"/>
        <path d="M92.8003 50.7233H91.4646V52.059H92.8003V50.7233Z" fill="#013A1C"/>
        <path d="M91.4651 50.7233H90.1294V52.059H91.4651V50.7233Z" fill="#013A1C"/>
        <path d="M90.117 50.7233H88.7812V52.059H90.117V50.7233Z" fill="#013A1C"/>
        <path d="M88.7817 50.7233H87.446V52.059H88.7817V50.7233Z" fill="#013A1C"/>
        <path d="M87.4338 50.7233H86.0981V52.059H87.4338V50.7233Z" fill="#013A1C"/>
        <path d="M86.1101 50.7233H84.7744V52.059H86.1101V50.7233Z" fill="#013A1C"/>
        <path d="M84.7505 50.7233H83.4148V52.059H84.7505V50.7233Z" fill="#013A1C"/>
        <path d="M83.4268 50.7233H82.0911V52.059H83.4268V50.7233Z" fill="#013A1C"/>
        <path d="M82.0911 50.7233H80.7554V52.059H82.0911V50.7233Z" fill="#013A1C"/>
        <path d="M80.7434 50.7233H79.4077V52.059H80.7434V50.7233Z" fill="#013A1C"/>
        <path d="M79.4077 50.7233H78.072V52.059H79.4077V50.7233Z" fill="#013A1C"/>
        <path d="M78.0601 50.7233H76.7244V52.059H78.0601V50.7233Z" fill="#013A1C"/>
        <path d="M76.7244 50.7233H75.3887V52.059H76.7244V50.7233Z" fill="#013A1C"/>
        <path d="M75.3767 50.7233H74.041V52.059H75.3767V50.7233Z" fill="#013A1C"/>
        <path d="M60.6365 50.7233H59.3008V52.059H60.6365V50.7233Z" fill="#013A1C"/>
        <path d="M59.3008 50.7233H57.9651V52.059H59.3008V50.7233Z" fill="#013A1C"/>
        <path d="M108.889 49.3876H107.553V50.7233H108.889V49.3876Z" fill="#013A1C"/>
        <path d="M107.541 49.3876H106.206V50.7233H107.541V49.3876Z" fill="#013A1C"/>
        <path d="M106.205 49.3876H104.87V50.7233H106.205V49.3876Z" fill="#013A1C"/>
        <path d="M104.858 49.3876H103.522V50.7233H104.858V49.3876Z" fill="#013A1C"/>
        <path d="M103.522 49.3876H102.186V50.7233H103.522V49.3876Z" fill="#013A1C"/>
        <path d="M102.175 49.3876H100.839V50.7233H102.175V49.3876Z" fill="#013A1C"/>
        <path d="M100.85 49.3876H99.5146V50.7233H100.85V49.3876Z" fill="#013A1C"/>
        <path d="M99.4912 49.3876H98.1555V50.7233H99.4912V49.3876Z" fill="#013A1C"/>
        <path d="M98.167 49.3876H96.8313V50.7233H98.167V49.3876Z" fill="#013A1C"/>
        <path d="M96.8318 49.3876H95.4961V50.7233H96.8318V49.3876Z" fill="#013A1C"/>
        <path d="M95.4837 49.3876H94.1479V50.7233H95.4837V49.3876Z" fill="#013A1C"/>
        <path d="M94.1484 49.3876H92.8127V50.7233H94.1484V49.3876Z" fill="#013A1C"/>
        <path d="M92.8003 49.3876H91.4646V50.7233H92.8003V49.3876Z" fill="#013A1C"/>
        <path d="M91.4651 49.3876H90.1294V50.7233H91.4651V49.3876Z" fill="#013A1C"/>
        <path d="M90.1172 49.3876H88.7815V50.7233H90.1172V49.3876Z" fill="#013A1C"/>
        <path d="M88.7817 49.3876H87.446V50.7233H88.7817V49.3876Z" fill="#013A1C"/>
        <path d="M87.4338 49.3876H86.0981V50.7233H87.4338V49.3876Z" fill="#013A1C"/>
        <path d="M86.1101 49.3876H84.7744V50.7233H86.1101V49.3876Z" fill="#013A1C"/>
        <path d="M84.7505 49.3876H83.4148V50.7233H84.7505V49.3876Z" fill="#013A1C"/>
        <path d="M83.4268 49.3876H82.0911V50.7233H83.4268V49.3876Z" fill="#013A1C"/>
        <path d="M82.0911 49.3876H80.7554V50.7233H82.0911V49.3876Z" fill="#013A1C"/>
        <path d="M80.7434 49.3876H79.4077V50.7233H80.7434V49.3876Z" fill="#013A1C"/>
        <path d="M79.4077 49.3876H78.072V50.7233H79.4077V49.3876Z" fill="#013A1C"/>
        <path d="M78.0601 49.3876H76.7244V50.7233H78.0601V49.3876Z" fill="#013A1C"/>
        <path d="M76.7244 49.3876H75.3887V50.7233H76.7244V49.3876Z" fill="#013A1C"/>
        <path d="M75.3767 49.3876H74.041V50.7233H75.3767V49.3876Z" fill="#013A1C"/>
        <path d="M60.6365 49.3876H59.3008V50.7233H60.6365V49.3876Z" fill="#013A1C"/>
        <path d="M59.3008 49.3876H57.9651V50.7233H59.3008V49.3876Z" fill="#013A1C"/>
        <path d="M108.889 48.052H107.553V49.3877H108.889V48.052Z" fill="#013A1C"/>
        <path d="M107.541 48.04H106.206V49.3757H107.541V48.04Z" fill="#013A1C"/>
        <path d="M106.205 48.04H104.87V49.3757H106.205V48.04Z" fill="#013A1C"/>
        <path d="M104.858 48.04H103.522V49.3757H104.858V48.04Z" fill="#013A1C"/>
        <path d="M103.522 48.04H102.186V49.3757H103.522V48.04Z" fill="#013A1C"/>
        <path d="M102.175 48.04H100.839V49.3757H102.175V48.04Z" fill="#013A1C"/>
        <path d="M100.85 48.04H99.5146V49.3757H100.85V48.04Z" fill="#013A1C"/>
        <path d="M99.4912 48.04H98.1555V49.3757H99.4912V48.04Z" fill="#013A1C"/>
        <path d="M98.167 48.04H96.8313V49.3757H98.167V48.04Z" fill="#013A1C"/>
        <path d="M96.8318 48.04H95.4961V49.3757H96.8318V48.04Z" fill="#013A1C"/>
        <path d="M95.4837 48.04H94.1479V49.3757H95.4837V48.04Z" fill="#013A1C"/>
        <path d="M94.1484 48.04H92.8127V49.3757H94.1484V48.04Z" fill="#013A1C"/>
        <path d="M92.8003 48.04H91.4646V49.3757H92.8003V48.04Z" fill="#013A1C"/>
        <path d="M91.4651 48.04H90.1294V49.3757H91.4651V48.04Z" fill="#013A1C"/>
        <path d="M90.1172 48.04H88.7815V49.3757H90.1172V48.04Z" fill="#013A1C"/>
        <path d="M88.7817 48.04H87.446V49.3757H88.7817V48.04Z" fill="#013A1C"/>
        <path d="M87.4338 48.04H86.0981V49.3757H87.4338V48.04Z" fill="#013A1C"/>
        <path d="M86.1101 48.04H84.7744V49.3757H86.1101V48.04Z" fill="#013A1C"/>
        <path d="M84.7505 48.04H83.4148V49.3757H84.7505V48.04Z" fill="#013A1C"/>
        <path d="M83.4268 48.04H82.0911V49.3757H83.4268V48.04Z" fill="#013A1C"/>
        <path d="M82.0911 48.04H80.7554V49.3757H82.0911V48.04Z" fill="#013A1C"/>
        <path d="M80.7434 48.04H79.4077V49.3757H80.7434V48.04Z" fill="#013A1C"/>
        <path d="M79.4077 48.04H78.072V49.3757H79.4077V48.04Z" fill="#013A1C"/>
        <path d="M78.0601 48.04H76.7244V49.3757H78.0601V48.04Z" fill="#013A1C"/>
        <path d="M76.7244 48.04H75.3887V49.3757H76.7244V48.04Z" fill="#013A1C"/>
        <path d="M75.3767 48.052H74.041V49.3877H75.3767V48.052Z" fill="#013A1C"/>
        <path d="M60.6365 48.052H59.3008V49.3877H60.6365V48.052Z" fill="#013A1C"/>
        <path d="M59.3008 48.04H57.9651V49.3757H59.3008V48.04Z" fill="#013A1C"/>
        <path d="M110.225 46.7043H108.889V48.04H110.225V46.7043Z" fill="#013A1C"/>
        <path d="M108.889 46.7043H107.553V48.04H108.889V46.7043Z" fill="#013A1C"/>
        <path d="M107.541 46.7043H106.206V48.04H107.541V46.7043Z" fill="#013A1C"/>
        <path d="M106.205 46.7043H104.87V48.04H106.205V46.7043Z" fill="#013A1C"/>
        <path d="M104.858 46.7043H103.522V48.04H104.858V46.7043Z" fill="#013A1C"/>
        <path d="M103.522 46.7043H102.186V48.04H103.522V46.7043Z" fill="#013A1C"/>
        <path d="M102.175 46.7043H100.839V48.04H102.175V46.7043Z" fill="#013A1C"/>
        <path d="M100.85 46.7043H99.5146V48.04H100.85V46.7043Z" fill="#013A1C"/>
        <path d="M99.4912 46.7043H98.1555V48.04H99.4912V46.7043Z" fill="#013A1C"/>
        <path d="M98.167 46.7043H96.8313V48.04H98.167V46.7043Z" fill="#013A1C"/>
        <path d="M96.8318 46.7043H95.4961V48.04H96.8318V46.7043Z" fill="#013A1C"/>
        <path d="M95.4837 46.7043H94.1479V48.04H95.4837V46.7043Z" fill="#013A1C"/>
        <path d="M94.1484 46.7043H92.8127V48.04H94.1484V46.7043Z" fill="#013A1C"/>
        <path d="M92.8003 46.7043H91.4646V48.04H92.8003V46.7043Z" fill="#013A1C"/>
        <path d="M91.4651 46.7043H90.1294V48.04H91.4651V46.7043Z" fill="#013A1C"/>
        <path d="M90.1172 46.7043H88.7815V48.04H90.1172V46.7043Z" fill="#013A1C"/>
        <path d="M88.7817 46.7043H87.446V48.04H88.7817V46.7043Z" fill="#013A1C"/>
        <path d="M87.4338 46.7043H86.0981V48.04H87.4338V46.7043Z" fill="#013A1C"/>
        <path d="M86.1101 46.7043H84.7744V48.04H86.1101V46.7043Z" fill="#013A1C"/>
        <path d="M84.7505 46.7043H83.4148V48.04H84.7505V46.7043Z" fill="#013A1C"/>
        <path d="M83.4268 46.7043H82.0911V48.04H83.4268V46.7043Z" fill="#013A1C"/>
        <path d="M82.0911 46.7043H80.7554V48.04H82.0911V46.7043Z" fill="#013A1C"/>
        <path d="M80.7434 46.7043H79.4077V48.04H80.7434V46.7043Z" fill="#013A1C"/>
        <path d="M79.4077 46.7043H78.072V48.04H79.4077V46.7043Z" fill="#013A1C"/>
        <path d="M78.0601 46.7043H76.7244V48.04H78.0601V46.7043Z" fill="#013A1C"/>
        <path d="M76.7244 46.7043H75.3887V48.04H76.7244V46.7043Z" fill="#013A1C"/>
        <path d="M75.3889 46.7043H74.0532V48.04H75.3889V46.7043Z" fill="#013A1C"/>
        <path d="M74.041 46.7043H72.7053V48.04H74.041V46.7043Z" fill="#013A1C"/>
        <path d="M61.9839 46.7043H60.6482V48.04H61.9839V46.7043Z" fill="#013A1C"/>
        <path d="M60.6482 46.7043H59.3125V48.04H60.6482V46.7043Z" fill="#013A1C"/>
        <path d="M59.3008 46.7043H57.9651V48.04H59.3008V46.7043Z" fill="#013A1C"/>
        <path d="M111.56 45.3687H110.224V46.7044H111.56V45.3687Z" fill="#013A1C"/>
        <path d="M110.225 45.3687H108.889V46.7044H110.225V45.3687Z" fill="#013A1C"/>
        <path d="M108.889 45.3687H107.553V46.7044H108.889V45.3687Z" fill="#013A1C"/>
        <path d="M107.541 45.3687H106.206V46.7044H107.541V45.3687Z" fill="#013A1C"/>
        <path d="M106.205 45.3687H104.87V46.7044H106.205V45.3687Z" fill="#013A1C"/>
        <path d="M104.858 45.3687H103.522V46.7044H104.858V45.3687Z" fill="#013A1C"/>
        <path d="M103.522 45.3687H102.186V46.7044H103.522V45.3687Z" fill="#013A1C"/>
        <path d="M102.175 45.3687H100.839V46.7044H102.175V45.3687Z" fill="#013A1C"/>
        <path d="M100.85 45.3687H99.5146V46.7044H100.85V45.3687Z" fill="#013A1C"/>
        <path d="M99.4912 45.3687H98.1555V46.7044H99.4912V45.3687Z" fill="#013A1C"/>
        <path d="M98.167 45.3687H96.8313V46.7044H98.167V45.3687Z" fill="#013A1C"/>
        <path d="M96.8318 45.3687H95.4961V46.7044H96.8318V45.3687Z" fill="#013A1C"/>
        <path d="M95.4837 45.3687H94.1479V46.7044H95.4837V45.3687Z" fill="#013A1C"/>
        <path d="M94.1484 45.3687H92.8127V46.7044H94.1484V45.3687Z" fill="#013A1C"/>
        <path d="M92.8003 45.3687H91.4646V46.7044H92.8003V45.3687Z" fill="#013A1C"/>
        <path d="M91.4651 45.3687H90.1294V46.7044H91.4651V45.3687Z" fill="#013A1C"/>
        <path d="M90.1172 45.3687H88.7815V46.7044H90.1172V45.3687Z" fill="#013A1C"/>
        <path d="M88.7817 45.3687H87.446V46.7044H88.7817V45.3687Z" fill="#013A1C"/>
        <path d="M87.4338 45.3687H86.0981V46.7044H87.4338V45.3687Z" fill="#013A1C"/>
        <path d="M86.1101 45.3687H84.7744V46.7044H86.1101V45.3687Z" fill="#013A1C"/>
        <path d="M84.7505 45.3687H83.4148V46.7044H84.7505V45.3687Z" fill="#013A1C"/>
        <path d="M83.4268 45.3687H82.0911V46.7044H83.4268V45.3687Z" fill="#013A1C"/>
        <path d="M82.0911 45.3687H80.7554V46.7044H82.0911V45.3687Z" fill="#013A1C"/>
        <path d="M80.7434 45.3687H79.4077V46.7044H80.7434V45.3687Z" fill="#013A1C"/>
        <path d="M79.4077 45.3687H78.072V46.7044H79.4077V45.3687Z" fill="#013A1C"/>
        <path d="M78.0601 45.3687H76.7244V46.7044H78.0601V45.3687Z" fill="#013A1C"/>
        <path d="M76.7244 45.3687H75.3887V46.7044H76.7244V45.3687Z" fill="#013A1C"/>
        <path d="M75.3889 45.3687H74.0532V46.7044H75.3889V45.3687Z" fill="#013A1C"/>
        <path d="M74.041 45.3687H72.7053V46.7044H74.041V45.3687Z" fill="#013A1C"/>
        <path d="M72.7056 45.3687H71.3699V46.7044H72.7056V45.3687Z" fill="#013A1C"/>
        <path d="M63.3198 45.3687H61.9841V46.7044H63.3198V45.3687Z" fill="#013A1C"/>
        <path d="M61.9839 45.3687H60.6482V46.7044H61.9839V45.3687Z" fill="#013A1C"/>
        <path d="M60.6482 45.3687H59.3125V46.7044H60.6482V45.3687Z" fill="#013A1C"/>
        <path d="M59.3008 45.3687H57.9651V46.7044H59.3008V45.3687Z" fill="#013A1C"/>
        <path d="M112.908 44.021H111.572V45.3567H112.908V44.021Z" fill="#013A1C"/>
        <path d="M111.572 44.021H110.236V45.3567H111.572V44.021Z" fill="#013A1C"/>
        <path d="M110.225 44.021H108.889V45.3567H110.225V44.021Z" fill="#013A1C"/>
        <path d="M108.889 44.021H107.553V45.3567H108.889V44.021Z" fill="#013A1C"/>
        <path d="M107.541 44.021H106.206V45.3567H107.541V44.021Z" fill="#013A1C"/>
        <path d="M106.205 44.021H104.87V45.3567H106.205V44.021Z" fill="#013A1C"/>
        <path d="M104.858 44.021H103.522V45.3567H104.858V44.021Z" fill="#013A1C"/>
        <path d="M103.522 44.021H102.186V45.3567H103.522V44.021Z" fill="#013A1C"/>
        <path d="M102.175 44.021H100.839V45.3567H102.175V44.021Z" fill="#013A1C"/>
        <path d="M100.85 44.021H99.5146V45.3567H100.85V44.021Z" fill="#013A1C"/>
        <path d="M99.4912 44.021H98.1555V45.3567H99.4912V44.021Z" fill="#013A1C"/>
        <path d="M98.167 44.021H96.8313V45.3567H98.167V44.021Z" fill="#013A1C"/>
        <path d="M96.8318 44.021H95.4961V45.3567H96.8318V44.021Z" fill="#013A1C"/>
        <path d="M95.4837 44.021H94.1479V45.3567H95.4837V44.021Z" fill="#013A1C"/>
        <path d="M94.1484 44.021H92.8127V45.3567H94.1484V44.021Z" fill="#013A1C"/>
        <path d="M92.8003 44.021H91.4646V45.3567H92.8003V44.021Z" fill="#013A1C"/>
        <path d="M91.4651 44.021H90.1294V45.3567H91.4651V44.021Z" fill="#013A1C"/>
        <path d="M90.1172 44.021H88.7815V45.3567H90.1172V44.021Z" fill="#013A1C"/>
        <path d="M88.7817 44.021H87.446V45.3567H88.7817V44.021Z" fill="#013A1C"/>
        <path d="M87.4338 44.021H86.0981V45.3567H87.4338V44.021Z" fill="#013A1C"/>
        <path d="M86.1101 44.021H84.7744V45.3567H86.1101V44.021Z" fill="#013A1C"/>
        <path d="M84.7505 44.021H83.4148V45.3567H84.7505V44.021Z" fill="#013A1C"/>
        <path d="M83.4268 44.021H82.0911V45.3567H83.4268V44.021Z" fill="#013A1C"/>
        <path d="M82.0911 44.021H80.7554V45.3567H82.0911V44.021Z" fill="#013A1C"/>
        <path d="M80.7434 44.021H79.4077V45.3567H80.7434V44.021Z" fill="#013A1C"/>
        <path d="M79.4077 44.021H78.072V45.3567H79.4077V44.021Z" fill="#013A1C"/>
        <path d="M78.0601 44.021H76.7244V45.3567H78.0601V44.021Z" fill="#013A1C"/>
        <path d="M76.7244 44.021H75.3887V45.3567H76.7244V44.021Z" fill="#013A1C"/>
        <path d="M75.3889 44.021H74.0532V45.3567H75.3889V44.021Z" fill="#013A1C"/>
        <path d="M74.041 44.021H72.7053V45.3567H74.041V44.021Z" fill="#013A1C"/>
        <path d="M72.7056 44.021H71.3699V45.3567H72.7056V44.021Z" fill="#013A1C"/>
        <path d="M71.3577 44.021H70.022V45.3567H71.3577V44.021Z" fill="#013A1C"/>
        <path d="M64.6558 44.021H63.3201V45.3567H64.6558V44.021Z" fill="#013A1C"/>
        <path d="M63.3198 44.021H61.9841V45.3567H63.3198V44.021Z" fill="#013A1C"/>
        <path d="M61.9839 44.021H60.6482V45.3567H61.9839V44.021Z" fill="#013A1C"/>
        <path d="M60.6482 44.021H59.3125V45.3567H60.6482V44.021Z" fill="#013A1C"/>
        <path d="M59.3008 44.021H57.9651V45.3567H59.3008V44.021Z" fill="#013A1C"/>
        <path d="M74.0647 48.052V53.4067H72.717V54.7424H71.3813V56.09H70.0456V57.4257H64.679V56.09H63.3432V54.7424H61.9956V53.4067H60.6599V48.052H61.9956V46.7043H63.3432V45.3686H64.679V44.021H70.0456V45.3686H71.3813V46.7043H72.717V48.052H74.0647Z" fill="#013A1C"/>
        <path d="M122.353 48.0997V53.4664H121.017V54.8021H119.67V56.1378H118.334V57.4854H112.967V56.1378H111.632V54.8021H110.296V53.4664H108.948V48.0997H110.296V46.764H111.632V45.4164H112.967V44.0807H118.334V45.4164H119.67V46.764H121.017V48.0997H122.353Z" fill="#013A1C"/>
        <path d="M118.251 42.6853H116.915V44.021H118.251V42.6853Z" fill="#013A1C"/>
        <path d="M116.927 42.6853H115.591V44.021H116.927V42.6853Z" fill="#013A1C"/>
        <path d="M115.567 42.6853H114.232V44.021H115.567V42.6853Z" fill="#013A1C"/>
        <path d="M114.243 42.6853H112.907V44.021H114.243V42.6853Z" fill="#013A1C"/>
        <path d="M112.908 42.6853H111.572V44.021H112.908V42.6853Z" fill="#013A1C"/>
        <path d="M111.572 42.6853H110.236V44.021H111.572V42.6853Z" fill="#013A1C"/>
        <path d="M110.225 42.6853H108.889V44.021H110.225V42.6853Z" fill="#013A1C"/>
        <path d="M108.889 42.6853H107.553V44.021H108.889V42.6853Z" fill="#013A1C"/>
        <path d="M107.541 42.6853H106.206V44.021H107.541V42.6853Z" fill="#013A1C"/>
        <path d="M106.205 42.6853H104.87V44.021H106.205V42.6853Z" fill="#013A1C"/>
        <path d="M104.858 42.6853H103.522V44.021H104.858V42.6853Z" fill="#013A1C"/>
        <path d="M103.522 42.6853H102.186V44.021H103.522V42.6853Z" fill="#013A1C"/>
        <path d="M102.175 42.6853H100.839V44.021H102.175V42.6853Z" fill="#013A1C"/>
        <path d="M100.85 42.6853H99.5146V44.021H100.85V42.6853Z" fill="#013A1C"/>
        <path d="M99.4912 42.6853H98.1555V44.021H99.4912V42.6853Z" fill="#013A1C"/>
        <path d="M98.167 42.6853H96.8313V44.021H98.167V42.6853Z" fill="#013A1C"/>
        <path d="M96.8318 42.6853H95.4961V44.021H96.8318V42.6853Z" fill="#013A1C"/>
        <path d="M95.4837 42.6853H94.1479V44.021H95.4837V42.6853Z" fill="#013A1C"/>
        <path d="M94.1484 42.6853H92.8127V44.021H94.1484V42.6853Z" fill="#013A1C"/>
        <path d="M92.8003 42.6853H91.4646V44.021H92.8003V42.6853Z" fill="#013A1C"/>
        <path d="M91.4651 42.6853H90.1294V44.021H91.4651V42.6853Z" fill="#013A1C"/>
        <path d="M90.1172 42.6853H88.7815V44.021H90.1172V42.6853Z" fill="#013A1C"/>
        <path d="M88.7817 42.6853H87.446V44.021H88.7817V42.6853Z" fill="#013A1C"/>
        <path d="M87.4338 42.6853H86.0981V44.021H87.4338V42.6853Z" fill="#013A1C"/>
        <path d="M86.1101 42.6853H84.7744V44.021H86.1101V42.6853Z" fill="#013A1C"/>
        <path d="M84.7505 42.6853H83.4148V44.021H84.7505V42.6853Z" fill="#013A1C"/>
        <path d="M83.4268 42.6853H82.0911V44.021H83.4268V42.6853Z" fill="#013A1C"/>
        <path d="M82.0911 42.6853H80.7554V44.021H82.0911V42.6853Z" fill="#013A1C"/>
        <path d="M80.7434 42.6853H79.4077V44.021H80.7434V42.6853Z" fill="#013A1C"/>
        <path d="M79.4077 42.6853H78.072V44.021H79.4077V42.6853Z" fill="#013A1C"/>
        <path d="M78.0601 42.6853H76.7244V44.021H78.0601V42.6853Z" fill="#013A1C"/>
        <path d="M76.7244 42.6853H75.3887V44.021H76.7244V42.6853Z" fill="#013A1C"/>
        <path d="M75.3889 42.6853H74.0532V44.021H75.3889V42.6853Z" fill="#013A1C"/>
        <path d="M74.041 42.6853H72.7053V44.021H74.041V42.6853Z" fill="#013A1C"/>
        <path d="M72.7056 42.6853H71.3699V44.021H72.7056V42.6853Z" fill="#013A1C"/>
        <path d="M71.3699 42.6853H70.0342V44.021H71.3699V42.6853Z" fill="#013A1C"/>
        <path d="M70.0225 42.6853H68.6868V44.021H70.0225V42.6853Z" fill="#013A1C"/>
        <path d="M68.6865 42.6853H67.3508V44.021H68.6865V42.6853Z" fill="#013A1C"/>
        <path d="M67.3391 42.6853H66.0034V44.021H67.3391V42.6853Z" fill="#013A1C"/>
        <path d="M66.0032 42.6853H64.6675V44.021H66.0032V42.6853Z" fill="#013A1C"/>
        <path d="M64.6672 42.6853H63.3315V44.021H64.6672V42.6853Z" fill="#013A1C"/>
        <path d="M63.3198 42.6853H61.9841V44.021H63.3198V42.6853Z" fill="#013A1C"/>
        <path d="M61.9839 42.6853H60.6482V44.021H61.9839V42.6853Z" fill="#013A1C"/>
        <path d="M60.6482 42.6853H59.3125V44.021H60.6482V42.6853Z" fill="#013A1C"/>
        <path d="M59.3008 42.6853H57.9651V44.021H59.3008V42.6853Z" fill="#013A1C"/>
        <path d="M118.275 41.3376H116.939V42.6733H118.275V41.3376Z" fill="#013A1C"/>
        <path d="M116.927 41.3376H115.591V42.6733H116.927V41.3376Z" fill="#013A1C"/>
        <path d="M115.591 41.3376H114.256V42.6733H115.591V41.3376Z" fill="#013A1C"/>
        <path d="M114.243 41.3376H112.907V42.6733H114.243V41.3376Z" fill="#013A1C"/>
        <path d="M112.908 41.3376H111.572V42.6733H112.908V41.3376Z" fill="#013A1C"/>
        <path d="M111.572 41.3376H110.236V42.6733H111.572V41.3376Z" fill="#013A1C"/>
        <path d="M110.225 41.3376H108.889V42.6733H110.225V41.3376Z" fill="#013A1C"/>
        <path d="M108.889 41.3376H107.553V42.6733H108.889V41.3376Z" fill="#013A1C"/>
        <path d="M107.541 41.3376H106.206V42.6733H107.541V41.3376Z" fill="#013A1C"/>
        <path d="M106.205 41.3376H104.87V42.6733H106.205V41.3376Z" fill="#013A1C"/>
        <path d="M104.858 41.3376H103.522V42.6733H104.858V41.3376Z" fill="#013A1C"/>
        <path d="M103.522 41.3376H102.186V42.6733H103.522V41.3376Z" fill="#013A1C"/>
        <path d="M102.175 41.3376H100.839V42.6733H102.175V41.3376Z" fill="#013A1C"/>
        <path d="M100.85 41.3376H99.5146V42.6733H100.85V41.3376Z" fill="#013A1C"/>
        <path d="M99.4912 41.3376H98.1555V42.6733H99.4912V41.3376Z" fill="#013A1C"/>
        <path d="M98.167 41.3376H96.8313V42.6733H98.167V41.3376Z" fill="#013A1C"/>
        <path d="M96.8318 41.3376H95.4961V42.6733H96.8318V41.3376Z" fill="#013A1C"/>
        <path d="M95.4837 41.3376H94.1479V42.6733H95.4837V41.3376Z" fill="#013A1C"/>
        <path d="M94.1484 41.3376H92.8127V42.6733H94.1484V41.3376Z" fill="#013A1C"/>
        <path d="M92.8003 41.3376H91.4646V42.6733H92.8003V41.3376Z" fill="#013A1C"/>
        <path d="M91.4651 41.3376H90.1294V42.6733H91.4651V41.3376Z" fill="#013A1C"/>
        <path d="M90.1172 41.3376H88.7815V42.6733H90.1172V41.3376Z" fill="#013A1C"/>
        <path d="M88.7817 41.3376H87.446V42.6733H88.7817V41.3376Z" fill="#013A1C"/>
        <path d="M87.4338 41.3376H86.0981V42.6733H87.4338V41.3376Z" fill="#013A1C"/>
        <path d="M86.1101 41.3376H84.7744V42.6733H86.1101V41.3376Z" fill="#013A1C"/>
        <path d="M84.7505 41.3376H83.4148V42.6733H84.7505V41.3376Z" fill="#013A1C"/>
        <path d="M83.4268 41.3376H82.0911V42.6733H83.4268V41.3376Z" fill="#013A1C"/>
        <path d="M82.0911 41.3376H80.7554V42.6733H82.0911V41.3376Z" fill="#013A1C"/>
        <path d="M80.7434 41.3376H79.4077V42.6733H80.7434V41.3376Z" fill="#013A1C"/>
        <path d="M79.4077 41.3376H78.072V42.6733H79.4077V41.3376Z" fill="#013A1C"/>
        <path d="M78.0601 41.3376H76.7244V42.6733H78.0601V41.3376Z" fill="#013A1C"/>
        <path d="M76.7244 41.3376H75.3887V42.6733H76.7244V41.3376Z" fill="#013A1C"/>
        <path d="M75.3889 41.3376H74.0532V42.6733H75.3889V41.3376Z" fill="#013A1C"/>
        <path d="M74.041 41.3376H72.7053V42.6733H74.041V41.3376Z" fill="#013A1C"/>
        <path d="M72.7056 41.3376H71.3699V42.6733H72.7056V41.3376Z" fill="#013A1C"/>
        <path d="M71.3699 41.3376H70.0342V42.6733H71.3699V41.3376Z" fill="#013A1C"/>
        <path d="M70.0225 41.3376H68.6868V42.6733H70.0225V41.3376Z" fill="#013A1C"/>
        <path d="M68.6865 41.3376H67.3508V42.6733H68.6865V41.3376Z" fill="#013A1C"/>
        <path d="M67.3391 41.3376H66.0034V42.6733H67.3391V41.3376Z" fill="#013A1C"/>
        <path d="M66.0032 41.3376H64.6675V42.6733H66.0032V41.3376Z" fill="#013A1C"/>
        <path d="M64.6672 41.3376H63.3315V42.6733H64.6672V41.3376Z" fill="#013A1C"/>
        <path d="M63.3198 41.3376H61.9841V42.6733H63.3198V41.3376Z" fill="#013A1C"/>
        <path d="M61.9839 41.3376H60.6482V42.6733H61.9839V41.3376Z" fill="#013A1C"/>
        <path d="M60.6482 41.3376H59.3125V42.6733H60.6482V41.3376Z" fill="#013A1C"/>
        <path d="M59.3008 41.3376H57.9651V42.6733H59.3008V41.3376Z" fill="#013A1C"/>
        <path d="M118.275 40.002H116.939V41.3377H118.275V40.002Z" fill="#013A1C"/>
        <path d="M116.927 40.002H115.591V41.3377H116.927V40.002Z" fill="#013A1C"/>
        <path d="M115.591 40.002H114.256V41.3377H115.591V40.002Z" fill="#013A1C"/>
        <path d="M114.243 40.002H112.907V41.3377H114.243V40.002Z" fill="#013A1C"/>
        <path d="M112.908 40.002H111.572V41.3377H112.908V40.002Z" fill="#013A1C"/>
        <path d="M111.572 40.002H110.236V41.3377H111.572V40.002Z" fill="#013A1C"/>
        <path d="M110.225 40.002H108.889V41.3377H110.225V40.002Z" fill="#013A1C"/>
        <path d="M108.889 40.002H107.553V41.3377H108.889V40.002Z" fill="#013A1C"/>
        <path d="M107.541 40.002H106.206V41.3377H107.541V40.002Z" fill="#013A1C"/>
        <path d="M106.205 40.002H104.87V41.3377H106.205V40.002Z" fill="#013A1C"/>
        <path d="M104.858 40.002H103.522V41.3377H104.858V40.002Z" fill="#013A1C"/>
        <path d="M103.522 40.002H102.186V41.3377H103.522V40.002Z" fill="#013A1C"/>
        <path d="M102.175 40.002H100.839V41.3377H102.175V40.002Z" fill="#013A1C"/>
        <path d="M100.85 40.002H99.5146V41.3377H100.85V40.002Z" fill="#013A1C"/>
        <path d="M99.4912 40.002H98.1555V41.3377H99.4912V40.002Z" fill="#013A1C"/>
        <path d="M98.167 40.002H96.8313V41.3377H98.167V40.002Z" fill="#013A1C"/>
        <path d="M96.8318 40.002H95.4961V41.3377H96.8318V40.002Z" fill="#013A1C"/>
        <path d="M95.4837 40.002H94.1479V41.3377H95.4837V40.002Z" fill="#013A1C"/>
        <path d="M94.1484 40.002H92.8127V41.3377H94.1484V40.002Z" fill="#013A1C"/>
        <path d="M92.8003 40.002H91.4646V41.3377H92.8003V40.002Z" fill="#013A1C"/>
        <path d="M91.4651 40.002H90.1294V41.3377H91.4651V40.002Z" fill="#013A1C"/>
        <path d="M90.1172 40.002H88.7815V41.3377H90.1172V40.002Z" fill="#013A1C"/>
        <path d="M88.7817 40.002H87.446V41.3377H88.7817V40.002Z" fill="#013A1C"/>
        <path d="M87.4338 40.002H86.0981V41.3377H87.4338V40.002Z" fill="#013A1C"/>
        <path d="M86.1101 40.002H84.7744V41.3377H86.1101V40.002Z" fill="#013A1C"/>
        <path d="M84.7505 40.002H83.4148V41.3377H84.7505V40.002Z" fill="#013A1C"/>
        <path d="M83.4268 40.002H82.0911V41.3377H83.4268V40.002Z" fill="#013A1C"/>
        <path d="M82.0911 40.002H80.7554V41.3377H82.0911V40.002Z" fill="#013A1C"/>
        <path d="M80.7434 40.002H79.4077V41.3377H80.7434V40.002Z" fill="#013A1C"/>
        <path d="M79.4077 40.002H78.072V41.3377H79.4077V40.002Z" fill="#013A1C"/>
        <path d="M78.0601 40.002H76.7244V41.3377H78.0601V40.002Z" fill="#013A1C"/>
        <path d="M76.7244 40.002H75.3887V41.3377H76.7244V40.002Z" fill="#013A1C"/>
        <path d="M75.3889 40.002H74.0532V41.3377H75.3889V40.002Z" fill="#013A1C"/>
        <path d="M74.041 40.002H72.7053V41.3377H74.041V40.002Z" fill="#013A1C"/>
        <path d="M72.7056 40.002H71.3699V41.3377H72.7056V40.002Z" fill="#013A1C"/>
        <path d="M71.3699 40.002H70.0342V41.3377H71.3699V40.002Z" fill="#013A1C"/>
        <path d="M70.0225 40.002H68.6868V41.3377H70.0225V40.002Z" fill="#013A1C"/>
        <path d="M68.6865 40.002H67.3508V41.3377H68.6865V40.002Z" fill="#013A1C"/>
        <path d="M67.3391 40.002H66.0034V41.3377H67.3391V40.002Z" fill="#013A1C"/>
        <path d="M66.0032 40.002H64.6675V41.3377H66.0032V40.002Z" fill="#013A1C"/>
        <path d="M64.6672 40.002H63.3315V41.3377H64.6672V40.002Z" fill="#013A1C"/>
        <path d="M63.3198 40.002H61.9841V41.3377H63.3198V40.002Z" fill="#013A1C"/>
        <path d="M61.9839 40.002H60.6482V41.3377H61.9839V40.002Z" fill="#013A1C"/>
        <path d="M60.6482 40.002H59.3125V41.3377H60.6482V40.002Z" fill="#013A1C"/>
        <path d="M59.3008 40.002H57.9651V41.3377H59.3008V40.002Z" fill="#013A1C"/>
        <path d="M118.275 38.6663H116.939V40.002H118.275V38.6663Z" fill="#013A1C"/>
        <path d="M116.927 38.6663H115.591V40.002H116.927V38.6663Z" fill="#013A1C"/>
        <path d="M115.591 38.6663H114.256V40.002H115.591V38.6663Z" fill="#013A1C"/>
        <path d="M114.243 38.6663H112.907V40.002H114.243V38.6663Z" fill="#013A1C"/>
        <path d="M112.908 38.6663H111.572V40.002H112.908V38.6663Z" fill="#013A1C"/>
        <path d="M111.572 38.6663H110.236V40.002H111.572V38.6663Z" fill="#013A1C"/>
        <path d="M110.225 38.6663H108.889V40.002H110.225V38.6663Z" fill="#013A1C"/>
        <path d="M108.889 38.6663H107.553V40.002H108.889V38.6663Z" fill="#013A1C"/>
        <path d="M107.541 38.6663H106.206V40.002H107.541V38.6663Z" fill="#013A1C"/>
        <path d="M106.205 38.6663H104.87V40.002H106.205V38.6663Z" fill="#013A1C"/>
        <path d="M104.858 38.6663H103.522V40.002H104.858V38.6663Z" fill="#013A1C"/>
        <path d="M103.522 38.6663H102.186V40.002H103.522V38.6663Z" fill="#013A1C"/>
        <path d="M102.175 38.6663H100.839V40.002H102.175V38.6663Z" fill="#013A1C"/>
        <path d="M100.85 38.6663H99.5146V40.002H100.85V38.6663Z" fill="#013A1C"/>
        <path d="M99.4912 38.6663H98.1555V40.002H99.4912V38.6663Z" fill="#013A1C"/>
        <path d="M98.167 38.6663H96.8313V40.002H98.167V38.6663Z" fill="#013A1C"/>
        <path d="M96.8318 38.6663H95.4961V40.002H96.8318V38.6663Z" fill="#013A1C"/>
        <path d="M95.4837 38.6663H94.1479V40.002H95.4837V38.6663Z" fill="#013A1C"/>
        <path d="M94.1484 38.6663H92.8127V40.002H94.1484V38.6663Z" fill="#013A1C"/>
        <path d="M92.8003 38.6663H91.4646V40.002H92.8003V38.6663Z" fill="#013A1C"/>
        <path d="M91.4651 38.6663H90.1294V40.002H91.4651V38.6663Z" fill="#013A1C"/>
        <path d="M90.1172 38.6663H88.7815V40.002H90.1172V38.6663Z" fill="#013A1C"/>
        <path d="M88.7817 38.6663H87.446V40.002H88.7817V38.6663Z" fill="#013A1C"/>
        <path d="M87.4338 38.6663H86.0981V40.002H87.4338V38.6663Z" fill="#013A1C"/>
        <path d="M86.1101 38.6663H84.7744V40.002H86.1101V38.6663Z" fill="#013A1C"/>
        <path d="M84.7505 38.6663H83.4148V40.002H84.7505V38.6663Z" fill="#013A1C"/>
        <path d="M83.4268 38.6663H82.0911V40.002H83.4268V38.6663Z" fill="#013A1C"/>
        <path d="M82.0911 38.6663H80.7554V40.002H82.0911V38.6663Z" fill="#013A1C"/>
        <path d="M80.7434 38.6663H79.4077V40.002H80.7434V38.6663Z" fill="#013A1C"/>
        <path d="M79.4077 38.6663H78.072V40.002H79.4077V38.6663Z" fill="#013A1C"/>
        <path d="M78.0601 38.6663H76.7244V40.002H78.0601V38.6663Z" fill="#013A1C"/>
        <path d="M76.7244 38.6663H75.3887V40.002H76.7244V38.6663Z" fill="#013A1C"/>
        <path d="M75.3889 38.6663H74.0532V40.002H75.3889V38.6663Z" fill="#013A1C"/>
        <path d="M74.041 38.6663H72.7053V40.002H74.041V38.6663Z" fill="#013A1C"/>
        <path d="M72.7056 38.6663H71.3699V40.002H72.7056V38.6663Z" fill="#013A1C"/>
        <path d="M71.3699 38.6663H70.0342V40.002H71.3699V38.6663Z" fill="#013A1C"/>
        <path d="M70.0225 38.6663H68.6868V40.002H70.0225V38.6663Z" fill="#013A1C"/>
        <path d="M68.6865 38.6663H67.3508V40.002H68.6865V38.6663Z" fill="#013A1C"/>
        <path d="M67.3391 38.6663H66.0034V40.002H67.3391V38.6663Z" fill="#013A1C"/>
        <path d="M66.0032 38.6663H64.6675V40.002H66.0032V38.6663Z" fill="#013A1C"/>
        <path d="M64.6672 38.6663H63.3315V40.002H64.6672V38.6663Z" fill="#013A1C"/>
        <path d="M63.3198 38.6663H61.9841V40.002H63.3198V38.6663Z" fill="#013A1C"/>
        <path d="M61.9839 38.6663H60.6482V40.002H61.9839V38.6663Z" fill="#013A1C"/>
        <path d="M60.6482 38.6663H59.3125V40.002H60.6482V38.6663Z" fill="#013A1C"/>
        <path d="M59.3008 38.6663H57.9651V40.002H59.3008V38.6663Z" fill="#013A1C"/>
        <path d="M75.4006 48.0877V53.4425H74.0649V54.7782H72.7173V56.1258H71.3816V57.4615H66.0268V56.1258H64.6792V54.7782H63.3435V53.4425H61.9958V48.0877H63.3435V46.7401H64.6792V45.4044H66.0268V44.0568H71.3816V45.4044H72.7173V46.7401H74.0649V48.0877H75.4006Z" fill="#3AAA35"/>
        <path d="M114.232 48.1354V53.502H112.896V54.8377H111.56V56.1734H110.213V57.5211H104.858V56.1734H103.51V54.8377H102.175V53.502H100.839V48.1354H102.175V46.7997H103.51V45.464H104.858V44.1163H110.213V45.464H111.56V46.7997H112.896V48.1354H114.232Z" fill="#3AAA35"/>
        <path d="M124.965 60.0375H57.9534V60.1567H124.965V60.0375Z" fill="#0B0B0B"/>
        <path d="M124.965 58.6898H57.9534V58.8091H124.965V58.6898Z" fill="#0B0B0B"/>
        <path d="M124.965 57.3541H57.9534V57.4734H124.965V57.3541Z" fill="#0B0B0B"/>
        <path d="M124.965 56.0303H57.9534V56.1495H124.965V56.0303Z" fill="#0B0B0B"/>
        <path d="M124.965 54.6708H57.9534V54.79H124.965V54.6708Z" fill="#0B0B0B"/>
        <path d="M124.965 53.3469H57.9534V53.4662H124.965V53.3469Z" fill="#0B0B0B"/>
        <path d="M124.965 51.9994H57.9534V52.1186H124.965V51.9994Z" fill="#0B0B0B"/>
        <path d="M124.965 50.6637H57.9534V50.783H124.965V50.6637Z" fill="#0B0B0B"/>
        <path d="M124.965 49.328H57.9534V49.4473H124.965V49.328Z" fill="#0B0B0B"/>
        <path d="M124.965 47.9803H57.9534V48.0996H124.965V47.9803Z" fill="#0B0B0B"/>
        <path d="M124.965 46.6447H57.9534V46.7639H124.965V46.6447Z" fill="#0B0B0B"/>
        <path d="M124.965 45.309H57.9534V45.4282H124.965V45.309Z" fill="#0B0B0B"/>
        <path d="M124.965 43.9613H57.9534V44.0806H124.965V43.9613Z" fill="#0B0B0B"/>
        <path d="M124.965 42.6256H57.9534V42.7449H124.965V42.6256Z" fill="#0B0B0B"/>
        <path d="M124.965 41.278H57.9534V41.3972H124.965V41.278Z" fill="#0B0B0B"/>
        <path d="M124.965 39.9423H57.9534V40.0615H124.965V39.9423Z" fill="#0B0B0B"/>
        <path d="M116.998 37.3186H116.879V64.1281H116.998V37.3186Z" fill="#0B0B0B"/>
        <path d="M115.651 37.3186H115.531V64.1281H115.651V37.3186Z" fill="#0B0B0B"/>
        <path d="M114.315 37.3186H114.196V64.1281H114.315V37.3186Z" fill="#0B0B0B"/>
        <path d="M112.967 37.3186H112.848V64.1281H112.967V37.3186Z" fill="#0B0B0B"/>
        <path d="M111.631 37.3186H111.512V64.1281H111.631V37.3186Z" fill="#0B0B0B"/>
        <path d="M110.296 37.3186H110.177V64.1281H110.296V37.3186Z" fill="#0B0B0B"/>
        <path d="M108.948 37.3186H108.829V64.1281H108.948V37.3186Z" fill="#0B0B0B"/>
        <path d="M107.613 37.3186H107.494V64.1281H107.613V37.3186Z" fill="#0B0B0B"/>
        <path d="M106.277 37.3186H106.158V64.1281H106.277V37.3186Z" fill="#0B0B0B"/>
        <path d="M104.93 37.3186H104.81V64.1281H104.93V37.3186Z" fill="#0B0B0B"/>
        <path d="M103.594 37.3186H103.475V64.1281H103.594V37.3186Z" fill="#0B0B0B"/>
        <path d="M102.246 37.3186H102.127V64.1281H102.246V37.3186Z" fill="#0B0B0B"/>
        <path d="M100.911 37.3186H100.791V64.1281H100.911V37.3186Z" fill="#0B0B0B"/>
        <path d="M99.5629 37.3186H99.4436V64.1281H99.5629V37.3186Z" fill="#0B0B0B"/>
        <path d="M98.2272 37.3186H98.1079V64.1281H98.2272V37.3186Z" fill="#0B0B0B"/>
        <path d="M96.8795 37.3186H96.7603V64.1281H96.8795V37.3186Z" fill="#0B0B0B"/>
        <path d="M95.5438 37.3186H95.4246V64.1281H95.5438V37.3186Z" fill="#0B0B0B"/>
        <path d="M94.1962 37.3186H94.0769V64.1281H94.1962V37.3186Z" fill="#0B0B0B"/>
        <path d="M92.8605 37.3186H92.7412V64.1281H92.8605V37.3186Z" fill="#0B0B0B"/>
        <path d="M91.5128 37.3186H91.3936V64.1281H91.5128V37.3186Z" fill="#0B0B0B"/>
        <path d="M90.1888 37.3186H90.0696V64.1281H90.1888V37.3186Z" fill="#0B0B0B"/>
        <path d="M88.8534 37.3186H88.7341V64.1281H88.8534V37.3186Z" fill="#0B0B0B"/>
        <path d="M87.5055 37.3186H87.3862V64.1281H87.5055V37.3186Z" fill="#0B0B0B"/>
        <path d="M86.17 37.3186H86.0508V64.1281H86.17V37.3186Z" fill="#0B0B0B"/>
        <path d="M84.8343 37.3186H84.7151V64.1281H84.8343V37.3186Z" fill="#0B0B0B"/>
        <path d="M83.4867 37.3186H83.3674V64.1281H83.4867V37.3186Z" fill="#0B0B0B"/>
        <path d="M82.151 37.3186H82.0317V64.1281H82.151V37.3186Z" fill="#0B0B0B"/>
        <path d="M80.8036 37.3186H80.6843V64.1281H80.8036V37.3186Z" fill="#0B0B0B"/>
        <path d="M79.4677 37.3186H79.3484V64.1281H79.4677V37.3186Z" fill="#0B0B0B"/>
        <path d="M78.1202 37.3186H78.001V64.1281H78.1202V37.3186Z" fill="#0B0B0B"/>
        <path d="M76.7843 37.3186H76.665V64.1281H76.7843V37.3186Z" fill="#0B0B0B"/>
        <path d="M75.4369 37.3186H75.3176V64.1281H75.4369V37.3186Z" fill="#0B0B0B"/>
        <path d="M74.1127 37.3186H73.9934V64.1281H74.1127V37.3186Z" fill="#0B0B0B"/>
        <path d="M72.7535 37.3186H72.6343V64.1281H72.7535V37.3186Z" fill="#0B0B0B"/>
        <path d="M71.4293 37.3186H71.3101V64.1281H71.4293V37.3186Z" fill="#0B0B0B"/>
        <path d="M70.0941 37.3186H69.9749V64.1281H70.0941V37.3186Z" fill="#0B0B0B"/>
        <path d="M68.746 37.3186H68.6267V64.1281H68.746V37.3186Z" fill="#0B0B0B"/>
        <path d="M67.4108 37.3186H67.2915V64.1281H67.4108V37.3186Z" fill="#0B0B0B"/>
        <path d="M66.0626 37.3186H65.9434V64.1281H66.0626V37.3186Z" fill="#0B0B0B"/>
        <path d="M64.7274 37.3186H64.6082V64.1281H64.7274V37.3186Z" fill="#0B0B0B"/>
        <path d="M63.3915 37.3186H63.2722V64.1281H63.3915V37.3186Z" fill="#0B0B0B"/>
        <path d="M62.0441 37.3186H61.9248V64.1281H62.0441V37.3186Z" fill="#0B0B0B"/>
        <path d="M60.7081 37.3186H60.5889V64.1281H60.7081V37.3186Z" fill="#0B0B0B"/>
        <path d="M59.3724 37.3186H59.2532V64.1281H59.3724V37.3186Z" fill="#0B0B0B"/>
    </g>
    <path d="M109.438 61.5046H66.9336C62.1513 61.5046 58.2634 57.6645 58.2634 52.9537V47.5274C58.2634 42.8167 62.1513 38.9766 66.9336 38.9766H109.438C114.22 38.9766 118.108 42.8167 118.108 47.5274V52.9537C118.108 57.6645 114.22 61.5046 109.438 61.5046ZM66.9336 40.1453C62.8072 40.1453 59.4441 43.4488 59.4441 47.5155V52.9418C59.4441 57.0086 62.8072 60.312 66.9336 60.312H109.438C113.564 60.312 116.927 57.0086 116.927 52.9418V47.5155C116.927 43.4488 113.564 40.1453 109.438 40.1453H66.9336Z" fill="#0B0B0B"/>
    <path d="M53.3484 17.2705H124.096C124.373 17.2705 124.596 17.4944 124.596 17.7705V84.3574C124.596 84.4831 124.549 84.6039 124.464 84.6963L117.871 91.8389C117.776 91.9414 117.642 92 117.503 92H59.3718C59.2248 92 59.085 91.9354 58.99 91.8232L52.9666 84.7051C52.8902 84.6148 52.8484 84.5001 52.8484 84.3818V17.7705C52.8484 17.4944 53.0722 17.2705 53.3484 17.2705Z" stroke="#0B0B0B"/>
    <path d="M122.711 17.3667H124.5" stroke="#0B0B0B"/>
    <path d="M86.9332 12.6008L73.8023 12.6006C70.4233 12.5194 69.5075 13.5349 69.6282 17.371H86.9332" stroke="#0B0B0B"/>
    <path d="M86.933 12.6055L104.215 12.6053C107.594 12.5241 108.51 13.5387 108.389 17.371L86.933 17.3712" stroke="#0B0B0B"/>
    <path d="M124.403 17.562C124.403 17.2835 124.741 17.1457 124.936 17.3442L133.421 25.9858C133.879 26.4532 134.136 27.082 134.136 27.7368V72.6909C134.136 73.2973 133.916 73.8834 133.516 74.3394L124.469 84.6567C124.462 84.6638 124.457 84.6665 124.456 84.6675C124.454 84.6684 124.453 84.6691 124.451 84.6694C124.447 84.6703 124.438 84.6706 124.427 84.6665C124.416 84.6623 124.41 84.6561 124.408 84.6528C124.407 84.6514 124.406 84.6499 124.405 84.6479C124.404 84.6458 124.403 84.6406 124.403 84.6313V17.562Z" fill="#575756" stroke="#0B0B0B"/>
    <path d="M128.303 38.8215V54.8142L132.37 53.8244V39.2628L128.303 38.2729V38.8215Z" fill="#3C3C3B"/>
    <path d="M127.552 55.7683V37.3188L133.122 38.6784V54.4087L127.552 55.7683ZM129.043 39.2151V53.872L131.631 53.24V39.8471L129.043 39.2151Z" fill="#0B0B0B"/>
    <path d="M130.499 45.8817C130.237 45.8817 129.986 45.7863 129.784 45.5836C129.402 45.19 129.414 44.558 129.807 44.1763L133.421 40.6701L135.58 23.8069C135.651 23.2583 136.152 22.8886 136.689 22.9482C137.237 23.0197 137.619 23.5206 137.547 24.0573L135.293 41.6123L131.179 45.6075C130.988 45.7983 130.738 45.8817 130.487 45.8817H130.499Z" fill="#0B0B0B"/>
    <path d="M137.177 24.379C138.948 24.379 140.385 22.9427 140.385 21.171C140.385 19.3992 138.948 17.9629 137.177 17.9629C135.405 17.9629 133.969 19.3992 133.969 21.171C133.969 22.9427 135.405 24.379 137.177 24.379Z" fill="#0B0B0B"/>
    <path d="M71.4295 70.437H102.437C103.277 71.7868 103.297 72.8535 103 75C103.289 77.2628 103.044 78.2755 102.437 79.9775H71.4295C70.8019 78.1565 70.6123 77.0942 70.9998 75C70.6766 72.5192 70.845 71.6194 71.4295 70.437Z" fill="#F4E347"/>
    <rect x="70.7371" y="70.3408" width="32.3926" height="9.73333" rx="1.5" stroke="#0B0B0B"/>
    <path d="M78.5847 70.437V79.9778" stroke="#0B0B0B"/>
    <path d="M86.9333 70.437V79.9778" stroke="#0B0B0B"/>
    <path d="M94.6853 70.437V79.9778" stroke="#0B0B0B"/>
    <path d="M139 154.872C144.6 154.616 147.861 154.745 153.5 155.372" stroke="#0B0B0B"/>
    <path d="M136 125.872C141.919 125.055 144.802 124.039 149 120.872" stroke="#0B0B0B"/>
</svg>
