<svg width="176" height="230" viewBox="0 0 176 230" fill="none" xmlns="http://www.w3.org/2000/svg">
    <path d="M47.7107 129.663C48.2472 127.527 48.7063 126.369 50.034 124.457C44.7057 123.303 42.0993 121.848 37.7983 118.516C36.5415 120.05 35.9784 120.946 35.1339 122.658C39.1576 126.298 41.7759 127.955 47.7107 129.663Z" fill="#313130"/>
    <path d="M40.8118 151.363C41.2064 154.218 41.1008 155.748 40.7298 158.434C34.8249 157.504 31.565 157.191 25.7533 157.129L25.7603 157.09C26.2739 154.231 26.5635 152.619 27.8882 149.87C30.0214 150.828 31.3033 151.228 33.6648 151.776C36.6669 152.021 38.158 151.785 40.8118 151.363Z" fill="#313130"/>
    <path d="M58.2604 120.472C61.993 115.565 59.6148 109.196 55.0918 105.006C50.1989 100.473 39.1526 103.39 36.1528 110.713C34.0579 115.826 38.7775 120.288 43.783 122.63C48.9606 125.053 54.7997 125.022 58.2604 120.472Z" fill="#878787" stroke="#0B0B0B"/>
    <path d="M44.0804 150.669C45.6323 142.753 47.0116 138.238 49.8569 130.105C43.1102 128.854 39.5919 126.901 33.7654 121.78C27.9574 132.623 26.8508 138.647 26.0652 149.365C33.1315 152.124 37.0781 152.569 44.0804 150.669Z" fill="#878787" stroke="#0B0B0B"/>
    <path d="M24.6468 156.882C30.6332 157.124 34.0925 157.324 42.1675 158.691C42.0371 169.908 41.3814 175.473 40.4616 185.711C32.9424 185.514 28.8933 185.337 21.9518 184.913C22.3271 174.123 22.168 168.157 24.6468 156.882Z" fill="#878787" stroke="#0B0B0B"/>
    <path d="M47.7107 129.663C48.1795 127.518 48.6459 126.371 50.034 124.457M35.1339 122.658C35.8276 120.958 36.3457 120.034 37.7983 118.516" stroke="#0B0B0B"/>
    <path d="M40.8084 151.363C41.2169 153.997 41.1507 155.932 40.7299 158.434" stroke="#0B0B0B"/>
    <path d="M27.812 150.364C26.6264 152.752 26.1848 154.123 25.8299 156.635" stroke="#0B0B0B"/>
    <path d="M45 126C39.669 124.737 36 121 36 121" stroke="#0B0B0B"/>
    <path d="M26.5 153.5C32.1 153.244 35.3613 154.373 41 155" stroke="#0B0B0B"/>
    <path d="M58.1449 95.1001L45.877 105.1H124.297C128.523 101.227 131.502 98.7719 136.605 95.1001H58.1449Z" fill="#9D9D9C"/>
    <path d="M45.0007 106C45.0007 105.448 45.4484 105 46.0007 105H123.734C124.286 105 124.734 105.448 124.734 106V189C124.734 189.552 124.286 190 123.734 190H46.0007C45.4484 190 45.0007 189.552 45.0007 189V106Z" fill="#878787" stroke="#0B0B0B"/>
    <path d="M137.191 95.0862C137.413 95.1098 137.585 95.2439 137.677 95.4231C137.753 95.5699 137.767 95.7278 137.767 95.8489V173.412C137.767 174.261 137.485 175.087 136.964 175.726L125.98 189.191C125.728 189.5 125.337 189.571 125.017 189.431C124.708 189.295 124.501 188.983 124.501 188.615V105.61C124.501 105.021 124.744 104.555 125.041 104.181C125.325 103.823 125.698 103.503 125.973 103.245L125.995 103.225L126.019 103.207L135.677 96.1174C135.79 96.0109 135.912 95.8881 136.056 95.7463C136.198 95.6072 136.361 95.454 136.514 95.3362C136.591 95.2775 136.681 95.2159 136.777 95.1692C136.863 95.1272 137.013 95.0674 137.191 95.0862Z" fill="#575756" stroke="#0B0B0B"/>
    <path d="M58.5502 95L58.5516 94.5H58.5502V95ZM57.0064 95.6821L57.3248 96.0676L57.3253 96.0672L57.0064 95.6821ZM44.682 105.215C44.4692 105.39 44.4391 105.706 44.615 105.919C44.7909 106.131 45.106 106.161 45.3189 105.986L45.0005 105.6L44.682 105.215ZM97.8628 95.1102L97.8642 94.6102L93.2265 94.5972L93.2251 95.0972L93.2237 95.5972L97.8614 95.6102L97.8628 95.1102ZM93.2251 95.0972L93.2265 94.5972L58.5516 94.5L58.5502 95L58.5488 95.5L93.2237 95.5972L93.2251 95.0972ZM57.0064 95.6821L56.6879 95.2966L44.682 105.215L45.0005 105.6L45.3189 105.986L57.3248 96.0676L57.0064 95.6821ZM58.5502 95V94.5C57.8189 94.5 57.1649 94.9016 56.6874 95.297L57.0064 95.6821L57.3253 96.0672C57.7455 95.7192 58.1722 95.5 58.5502 95.5V95ZM137.001 95.0973V94.5973L93.2251 94.5972V95.0972V95.5972L137.001 95.5973V95.0973ZM93.2251 95.0972V94.5972L89.1019 94.5972V95.0972V95.5972L93.2251 95.5972V95.0972Z" fill="#0B0B0B"/>
    <rect x="53.5" y="116.5" width="29" height="17" rx="2.5" fill="#011F38" stroke="#0B0B0B"/>
    <rect x="72.5" y="141.5" width="43" height="14" rx="2.5" fill="#525252" stroke="#0B0B0B"/>
    <rect x="52.5" y="162.5" width="66" height="16" rx="2.5" fill="#313130" stroke="#0B0B0B"/>
    <rect x="101" y="166.872" width="14" height="7" fill="#011F38"/>
    <rect x="97.5" y="165.5" width="4" height="10" rx="2" fill="#726F6F" stroke="#0B0B0B"/>
    <rect x="88.5" y="127.5" width="5" height="5" fill="#F4E347" stroke="#0B0B0B"/>
    <rect x="75.3" y="143.172" width="4.4" height="4.4" rx="0.7" fill="#AE9D02" stroke="#0B0B0B" stroke-width="0.6"/>
    <rect x="-0.3" y="0.3" width="4.4" height="4.4" rx="0.7" transform="matrix(-1 0 0 1 86.4 148.872)" fill="#AE9D02" stroke="#0B0B0B" stroke-width="0.6"/>
    <rect x="89.3" y="143.3" width="4.4" height="2.4" fill="#195703" stroke="#0B0B0B" stroke-width="0.6"/>
    <rect x="89.3" y="147.3" width="4.4" height="2.4" fill="#195703" stroke="#0B0B0B" stroke-width="0.6"/>
    <rect x="89.3" y="151.3" width="4.4" height="2.4" fill="#195703" stroke="#0B0B0B" stroke-width="0.6"/>
    <rect x="75.3" y="149.172" width="4.4" height="4.4" rx="2.2" fill="#AE9D02" stroke="#0B0B0B" stroke-width="0.6"/>
    <circle cx="91" cy="121" r="2.5" fill="#ED0022" stroke="#0B0B0B"/>
    <circle cx="108" cy="125" r="7.5" fill="#525252" stroke="#0B0B0B"/>
    <circle cx="59.5" cy="148.5" r="8" fill="#313130" stroke="#0B0B0B"/>
    <circle cx="59.5" cy="148.5" r="4" fill="#878787" stroke="#0B0B0B"/>
    <circle cx="89.5" cy="170.372" r="4" fill="#CDCDCD" stroke="#0B0B0B"/>
    <path d="M113 122.5C114.746 125.208 112.531 130.074 108 130.5C108 127.501 108 128.324 108 125.011C112 125.011 104.687 125.01 108 125.01C111 123.51 109 124.499 113 122.5Z" fill="#FFAA56"/>
    <path d="M103.096 122.5C101.35 125.208 103.565 130.074 108.096 130.5C108.096 127.501 108.096 128.324 108.096 125.011C104.096 125.011 111.409 125.01 108.095 125.01C105.096 123.51 107.096 124.499 103.096 122.5Z" fill="#97FF9A"/>
    <circle cx="59.5" cy="148.5" r="2" fill="#FFA600" stroke="#0B0B0B"/>
    <rect x="103" y="169.872" width="1" height="4" fill="#5368F0"/>
    <rect x="105" y="167.872" width="1" height="6" fill="#5368F0"/>
    <rect x="107" y="170.872" width="1" height="3" fill="#5368F0"/>
    <rect x="109" y="169.872" width="1" height="4" fill="#5368F0"/>
    <rect x="111" y="171.872" width="1" height="2" fill="#5368F0"/>
    <rect x="113" y="167.872" width="1" height="6" fill="#5368F0"/>
    <path d="M101 166.372H115.5V174.372H101" stroke="#0B0B0B"/>
    <circle cx="99.5" cy="167.372" r="0.5" fill="#0B0B0B"/>
    <path d="M85.125 143.774C84.8661 143.262 84.1339 143.262 83.875 143.774L82.4697 146.557C82.2347 147.022 82.5731 147.572 83.0947 147.572H85.9053C86.4269 147.572 86.7653 147.022 86.5303 146.557L85.125 143.774Z" fill="#AE9D03" stroke="#0B0B0B" stroke-width="0.6"/>
    <circle cx="89.5" cy="170.372" r="2" fill="#313130" stroke="#0B0B0B"/>
    <path d="M54 125.372H56.001L56.7446 126.996L58.0054 124L59.0054 125.372H62.5L63.1377 127.313L64.5054 124L65.3192 125.372H69" stroke="#5368F0" stroke-width="0.7"/>
    <path d="M67.0054 125.372H69.0063L69.75 126.996L71.0107 124L72.0107 125.372H75.5054L76.143 127.313L77.5107 124L78.3246 125.372H82.0054" stroke="#5368F0" stroke-width="0.7"/>
    <path d="M93 144.501C93 144.777 92.3284 144.751 91.5 144.751C90.6716 144.751 90 144.777 90 144.501C90 144.224 90.6716 144.251 91.5 144.251C92.3284 144.251 93 144.224 93 144.501Z" fill="white" fill-opacity="0.3"/>
    <path d="M93 148.501C93 148.777 92.3284 148.751 91.5 148.751C90.6716 148.751 90 148.777 90 148.501C90 148.224 90.6716 148.251 91.5 148.251C92.3284 148.251 93 148.224 93 148.501Z" fill="white" fill-opacity="0.3"/>
    <path d="M93 152.501C93 152.777 92.3284 152.751 91.5 152.751C90.6716 152.751 90 152.777 90 152.501C90 152.224 90.6716 152.251 91.5 152.251C92.3284 152.251 93 152.224 93 152.501Z" fill="white" fill-opacity="0.3"/>
    <rect x="88" y="168.872" width="3" height="6" rx="1.5" fill="#726F6F" stroke="#0B0B0B"/>
    <rect x="56" y="166" width="25" height="9" fill="#0B0B0B"/>
    <path d="M58 165.5L60 175.5" stroke="#ED0022"/>
    <path d="M55.5 170C61.8339 170.015 64.1813 171.081 65.5 175.5" stroke="#006627"/>
    <path d="M62.5028 165.5C61.7673 165.992 63.8149 169.531 68.0028 170C72.1907 170.469 72.5028 175.5 72.5028 175.5" stroke="#F4E347"/>
    <path d="M67.5 175.5L71 165.5" stroke="#727272"/>
    <path d="M62.5051 175.5C62.1379 175.395 63.6652 172.663 65.5051 171C67.1049 169.554 66.0051 165.5 66.0051 165.5" stroke="#FAFAFA"/>
    <path d="M74.0146 165.5C74.0146 165.5 71.8285 169.467 73.5146 170C75.9683 170.775 75.0911 172.119 75.5146 173C76.3666 174.773 81.482 168.968 81.5 170" stroke="#ED0022"/>
    <path d="M78.5 175.5L77 165.5" stroke="#DFDFDF"/>
    <rect x="55.5" y="165.5" width="26" height="10" stroke="#0B0B0B"/>
    <rect x="96.5" y="143.5" width="16" height="10" fill="#062B36" stroke="#0B0B0B"/>
    <circle cx="98.5" cy="145.5" r="0.5" fill="#4ACFFA"/>
    <circle cx="98.5" cy="147.5" r="0.5" fill="#4ACFFA"/>
    <circle cx="98.5" cy="149.5" r="0.5" fill="#4ACFFA"/>
    <rect x="100" y="145" width="5" height="1" rx="0.5" fill="#4ACFFA"/>
    <rect x="100" y="147" width="5" height="1" rx="0.5" fill="#4ACFFA"/>
    <path d="M100 149.5C100 149.224 100.224 149 100.5 149H103.5C103.776 149 104 149.224 104 149.5C104 149.776 103.776 150 103.5 150H100.5C100.224 150 100 149.776 100 149.5Z" fill="#4ACFFA"/>
    <path d="M106.5 145.5H111" stroke="#4ACFFA" stroke-width="0.5" stroke-linecap="round"/>
    <path d="M106.5 147.5H110.5" stroke="#4ACFFA" stroke-width="0.5" stroke-linecap="round"/>
    <path d="M106.5 151.5H111" stroke="#4ACFFA" stroke-width="0.5" stroke-linecap="round"/>
    <path d="M106.5 150.5H107" stroke="#4ACFFA" stroke-width="0.5" stroke-linecap="round"/>
    <path d="M108 150.5H108.5" stroke="#4ACFFA" stroke-width="0.5" stroke-linecap="round"/>
    <path d="M109.5 150.5H111" stroke="#4ACFFA" stroke-width="0.5" stroke-linecap="round"/>
    <path d="M106.5 148.5H108.5" stroke="#4ACFFA" stroke-width="0.5" stroke-linecap="round"/>
    <path d="M109.5 148.5H111" stroke="#4ACFFA" stroke-width="0.5" stroke-linecap="round"/>
    <path d="M106.5 146.5H109.5" stroke="#4ACFFA" stroke-width="0.5" stroke-linecap="round"/>
    <path d="M106.5 149.5H109.5" stroke="#4ACFFA" stroke-width="0.5" stroke-linecap="round"/>
    <mask id="path-77-inside-1_3930_12351" fill="white">
        <path d="M97 151H105V153H97V151Z"/>
    </mask>
    <path d="M97 151H105V153H97V151Z" fill="white" fill-opacity="0.3"/>
    <path d="M105 151H105.5V150.5H105V151ZM97 151V151.5H105V151V150.5H97V151ZM105 151H104.5V153H105H105.5V151H105Z" fill="#0B0B0B" mask="url(#path-77-inside-1_3930_12351)"/>
    <path d="M113 122.5L108 125L103 122.5C104.34 120.611 105.46 119.941 108 119.5C110.329 119.878 111.695 120.613 113 122.5Z" fill="#FFF1A4"/>
    <circle cx="108" cy="125" r="5.5" stroke="#0B0B0B"/>
    <circle cx="108" cy="125" r="0.5" fill="#0B0B0B"/>
    <path d="M48.9685 110.697C49.9301 110.697 50.7097 109.917 50.7097 108.956C50.7097 107.994 49.9301 107.215 48.9685 107.215C48.0069 107.215 47.2273 107.994 47.2273 108.956C47.2273 109.917 48.0069 110.697 48.9685 110.697Z" fill="#575756"/>
    <path d="M47.001 108.956C47.001 107.871 47.8835 107 48.9568 107C50.0302 107 50.9127 107.883 50.9127 108.956C50.9127 110.029 50.0302 110.912 48.9568 110.912C47.8835 110.912 47.001 110.029 47.001 108.956ZM47.4542 108.956C47.4542 109.803 48.1339 110.482 48.9807 110.482C49.8274 110.482 50.5072 109.803 50.5072 108.956C50.5072 108.109 49.8274 107.429 48.9807 107.429C48.1339 107.429 47.4542 108.109 47.4542 108.956Z" fill="#0B0B0B"/>
    <path d="M49.476 108.157L48.1689 109.464L48.4725 109.768L49.7796 108.461L49.476 108.157Z" fill="#0B0B0B"/>
    <path d="M48.4637 108.145L48.1602 108.449L49.4673 109.756L49.7708 109.452L48.4637 108.145Z" fill="#0B0B0B"/>
    <path d="M120.968 110.697C121.93 110.697 122.71 109.917 122.71 108.956C122.71 107.994 121.93 107.215 120.968 107.215C120.007 107.215 119.227 107.994 119.227 108.956C119.227 109.917 120.007 110.697 120.968 110.697Z" fill="#575756"/>
    <path d="M119.001 108.956C119.001 107.871 119.883 107 120.957 107C122.03 107 122.913 107.883 122.913 108.956C122.913 110.029 122.03 110.912 120.957 110.912C119.883 110.912 119.001 110.029 119.001 108.956ZM119.454 108.956C119.454 109.803 120.134 110.482 120.981 110.482C121.827 110.482 122.507 109.803 122.507 108.956C122.507 108.109 121.827 107.429 120.981 107.429C120.134 107.429 119.454 108.109 119.454 108.956Z" fill="#0B0B0B"/>
    <path d="M121.476 108.157L120.169 109.464L120.473 109.768L121.78 108.461L121.476 108.157Z" fill="#0B0B0B"/>
    <path d="M120.464 108.145L120.16 108.449L121.467 109.756L121.771 109.452L120.464 108.145Z" fill="#0B0B0B"/>
    <path d="M120.968 187.697C121.93 187.697 122.71 186.917 122.71 185.956C122.71 184.994 121.93 184.215 120.968 184.215C120.007 184.215 119.227 184.994 119.227 185.956C119.227 186.917 120.007 187.697 120.968 187.697Z" fill="#575756"/>
    <path d="M119.001 185.956C119.001 184.871 119.883 184 120.957 184C122.03 184 122.913 184.883 122.913 185.956C122.913 187.029 122.03 187.912 120.957 187.912C119.883 187.912 119.001 187.029 119.001 185.956ZM119.454 185.956C119.454 186.803 120.134 187.482 120.981 187.482C121.827 187.482 122.507 186.803 122.507 185.956C122.507 185.109 121.827 184.429 120.981 184.429C120.134 184.429 119.454 185.109 119.454 185.956Z" fill="#0B0B0B"/>
    <path d="M121.476 185.157L120.169 186.464L120.473 186.768L121.78 185.461L121.476 185.157Z" fill="#0B0B0B"/>
    <path d="M120.464 185.145L120.16 185.449L121.467 186.756L121.771 186.452L120.464 185.145Z" fill="#0B0B0B"/>
    <path d="M48.9685 187.697C49.9301 187.697 50.7097 186.917 50.7097 185.956C50.7097 184.994 49.9301 184.215 48.9685 184.215C48.0069 184.215 47.2273 184.994 47.2273 185.956C47.2273 186.917 48.0069 187.697 48.9685 187.697Z" fill="#575756"/>
    <path d="M47.001 185.956C47.001 184.871 47.8835 184 48.9568 184C50.0302 184 50.9127 184.883 50.9127 185.956C50.9127 187.029 50.0302 187.912 48.9568 187.912C47.8835 187.912 47.001 187.029 47.001 185.956ZM47.4542 185.956C47.4542 186.803 48.1339 187.482 48.9807 187.482C49.8274 187.482 50.5072 186.803 50.5072 185.956C50.5072 185.109 49.8274 184.429 48.9807 184.429C48.1339 184.429 47.4542 185.109 47.4542 185.956Z" fill="#0B0B0B"/>
    <path d="M49.476 185.157L48.1689 186.464L48.4725 186.768L49.7796 185.461L49.476 185.157Z" fill="#0B0B0B"/>
    <path d="M48.4637 185.145L48.1602 185.449L49.4673 186.756L49.7708 186.452L48.4637 185.145Z" fill="#0B0B0B"/>
    <path d="M53.9685 187.697C54.9301 187.697 55.7097 186.917 55.7097 185.956C55.7097 184.994 54.9301 184.215 53.9685 184.215C53.0069 184.215 52.2273 184.994 52.2273 185.956C52.2273 186.917 53.0069 187.697 53.9685 187.697Z" fill="#575756"/>
    <path d="M52.001 185.956C52.001 184.871 52.8835 184 53.9568 184C55.0302 184 55.9127 184.883 55.9127 185.956C55.9127 187.029 55.0302 187.912 53.9568 187.912C52.8835 187.912 52.001 187.029 52.001 185.956ZM52.4542 185.956C52.4542 186.803 53.1339 187.482 53.9807 187.482C54.8274 187.482 55.5072 186.803 55.5072 185.956C55.5072 185.109 54.8274 184.429 53.9807 184.429C53.1339 184.429 52.4542 185.109 52.4542 185.956Z" fill="#0B0B0B"/>
    <path d="M54.476 185.157L53.1689 186.464L53.4725 186.768L54.7796 185.461L54.476 185.157Z" fill="#0B0B0B"/>
    <path d="M53.4637 185.145L53.1602 185.449L54.4673 186.756L54.7708 186.452L53.4637 185.145Z" fill="#0B0B0B"/>
    <path d="M136.5 128.5C136.296 126.307 136.019 125.092 135 123C140.442 122.674 143.24 121.635 148 119C149.007 120.708 149.427 121.679 150 123.5C145.467 126.482 142.626 127.72 136.5 128.5Z" fill="#313130"/>
    <path d="M140 151C139.173 153.76 139.044 155.289 139 158C144.977 157.984 148.247 158.173 154 159L153.999 158.96C153.928 156.057 153.889 154.419 153 151.5C150.745 152.121 149.417 152.32 147 152.5C143.995 152.284 142.558 151.823 140 151Z" fill="#313130"/>
    <path d="M127.479 117.805C124.541 112.384 127.865 106.454 132.975 103.004C138.503 99.273 148.974 103.844 150.819 111.539C152.107 116.913 146.761 120.601 141.456 122.15C135.969 123.753 130.203 122.83 127.479 117.805Z" fill="#878787" stroke="#0B0B0B"/>
    <path d="M136.876 149.815C136.552 141.754 135.88 137.081 134.311 128.609C141.17 128.404 144.945 127.011 151.486 122.842C155.568 134.446 155.741 140.567 154.878 151.28C147.473 152.926 143.505 152.762 136.876 149.815Z" fill="#878787" stroke="#0B0B0B"/>
    <path d="M155.131 158.925C149.178 158.249 145.729 157.918 137.54 158.034C135.954 169.139 135.751 174.739 135.095 184.997C142.555 185.952 146.584 186.397 153.509 187.038C154.787 176.318 155.857 170.447 155.131 158.925Z" fill="#878787" stroke="#0B0B0B"/>
    <path d="M136.5 128.5C136.364 126.308 136.079 125.103 135 123M150 123.5C149.574 121.714 149.203 120.722 148 119" stroke="#0B0B0B"/>
    <path d="M140.003 151C139.197 153.541 138.966 155.463 139 158" stroke="#0B0B0B"/>
    <path d="M152.999 152C153.806 154.541 154.033 155.963 153.999 158.5" stroke="#0B0B0B"/>
    <path d="M89.4924 103C82.2607 102.658 78.947 102.108 75.4924 100L76.9924 95L76.4924 92L77.9924 88H101.492L102.992 92L102.492 95L103.992 100L89.4924 103Z" fill="#313130"/>
    <path d="M75.4924 100C75.4924 100 76.0399 98.0981 76.4924 97C77.1909 95.3052 76.7409 94.2821 76.4924 92.5C76.2621 90.8477 77.9924 88 77.9924 88" stroke="#0B0B0B"/>
    <path d="M76.4924 97.3721C85.8245 99.3466 91.6434 99.2698 102.992 97.3721" stroke="#0B0B0B"/>
    <path d="M76.9924 93.8721C86.6362 95.1184 92.2276 95.1969 102.492 93.8721" stroke="#0B0B0B"/>
    <path d="M103.992 100C103.992 100 103.445 98.0981 102.992 97C102.294 95.3052 102.744 94.2821 102.992 92.5C103.223 90.8477 101.492 88 101.492 88" stroke="#0B0B0B"/>
    <path d="M75.4921 99.9995C74.7954 100.652 86.1327 103.848 93.5015 102.5C98.587 101.57 103.992 99.9995 103.992 99.9995" stroke="#0B0B0B" stroke-linecap="round"/>
    <path d="M52.7537 42.5066L46.5283 35.6492V19.8115H48.52V34.874L54.2205 41.1709L52.7537 42.5066Z" fill="#0B0B0B"/>
    <path d="M47.6374 20.1693C49.6463 20.1693 51.2748 18.5408 51.2748 16.5319C51.2748 14.5231 49.6463 12.8945 47.6374 12.8945C45.6285 12.8945 44 14.5231 44 16.5319C44 18.5408 45.6285 20.1693 47.6374 20.1693Z" fill="#0B0B0B"/>
    <path d="M53.2466 17.7735L52.9443 84.7482L59.5036 91.9037H117.941L124.206 84.7482L124.206 17.3667L53.2466 17.7735Z" fill="#878787"/>
    <path d="M72.0258 12.5963H106.015C107.317 12.5963 108.4 13.9469 108.4 14.9815V16.7704H69.6406V14.3852C70.1887 13.3769 71.1973 12.6191 72.0258 12.5963Z" fill="#9D9D9C"/>
    <path d="M99.157 21.8029H78.382C77.8024 21.8029 77.3325 22.2727 77.3325 22.8523C77.3325 23.4319 77.8024 23.9018 78.382 23.9018H99.157C99.7366 23.9018 100.206 23.4319 100.206 22.8523C100.206 22.2727 99.7366 21.8029 99.157 21.8029Z" fill="#575756"/>
    <path d="M99.1454 24.4981H78.3704C77.464 24.4981 76.7246 23.7587 76.7246 22.8523C76.7246 21.9459 77.464 21.2065 78.3704 21.2065H99.1454C100.052 21.2065 100.791 21.9459 100.791 22.8523C100.791 23.7587 100.052 24.4981 99.1454 24.4981ZM78.3823 22.3872C78.1319 22.3872 77.9291 22.5899 77.9291 22.8404C77.9291 23.0908 78.1319 23.2936 78.3823 23.2936H99.1573C99.4077 23.2936 99.6105 23.0908 99.6105 22.8404C99.6105 22.5899 99.4077 22.3872 99.1573 22.3872H78.3823Z" fill="#0B0B0B"/>
    <path d="M99.157 25.7743H78.382C77.8024 25.7743 77.3325 26.2442 77.3325 26.8238C77.3325 27.4034 77.8024 27.8733 78.382 27.8733H99.157C99.7366 27.8733 100.206 27.4034 100.206 26.8238C100.206 26.2442 99.7366 25.7743 99.157 25.7743Z" fill="#575756"/>
    <path d="M99.1454 28.4576H78.3704C77.464 28.4576 76.7246 27.7182 76.7246 26.8118C76.7246 25.9054 77.464 25.166 78.3704 25.166H99.1454C100.052 25.166 100.791 25.9054 100.791 26.8118C100.791 27.7182 100.052 28.4576 99.1454 28.4576ZM78.3823 26.3705C78.1319 26.3705 77.9291 26.5733 77.9291 26.8237C77.9291 27.0742 78.1319 27.2769 78.3823 27.2769H99.1573C99.4077 27.2769 99.6105 27.0742 99.6105 26.8237C99.6105 26.5733 99.4077 26.3705 99.1573 26.3705H78.3823Z" fill="#0B0B0B"/>
    <path d="M99.157 29.7458H78.382C77.8024 29.7458 77.3325 30.2157 77.3325 30.7953C77.3325 31.3749 77.8024 31.8448 78.382 31.8448H99.157C99.7366 31.8448 100.206 31.3749 100.206 30.7953C100.206 30.2157 99.7366 29.7458 99.157 29.7458Z" fill="#575756"/>
    <path d="M99.1454 32.4293H78.3704C77.464 32.4293 76.7246 31.6898 76.7246 30.7835C76.7246 29.8771 77.464 29.1377 78.3704 29.1377H99.1454C100.052 29.1377 100.791 29.8771 100.791 30.7835C100.791 31.6898 100.052 32.4293 99.1454 32.4293ZM78.3823 30.3422C78.1319 30.3422 77.9291 30.545 77.9291 30.7954C77.9291 31.0458 78.1319 31.2486 78.3823 31.2486H99.1573C99.4077 31.2486 99.6105 31.0458 99.6105 30.7954C99.6105 30.545 99.4077 30.3422 99.1573 30.3422H78.3823Z" fill="#0B0B0B"/>
    <path d="M60.6614 89.614C61.623 89.614 62.4025 88.8344 62.4025 87.8728C62.4025 86.9111 61.623 86.1316 60.6614 86.1316C59.6997 86.1316 58.9202 86.9111 58.9202 87.8728C58.9202 88.8344 59.6997 89.614 60.6614 89.614Z" fill="#575756"/>
    <path d="M60.6609 89.8287C59.5757 89.8287 58.7051 88.9462 58.7051 87.8728C58.7051 86.7995 59.5876 85.917 60.6609 85.917C61.7343 85.917 62.6168 86.7995 62.6168 87.8728C62.6168 88.9462 61.7343 89.8287 60.6609 89.8287ZM60.6609 86.3463C59.8142 86.3463 59.1344 87.0261 59.1344 87.8728C59.1344 88.7196 59.8142 89.3994 60.6609 89.3994C61.5077 89.3994 62.1874 88.7196 62.1874 87.8728C62.1874 87.0261 61.5077 86.3463 60.6609 86.3463Z" fill="#0B0B0B"/>
    <path d="M60.1647 87.0537L59.8611 87.3573L61.1682 88.6644L61.4718 88.3608L60.1647 87.0537Z" fill="#0B0B0B"/>
    <path d="M61.1682 87.0573L59.8611 88.3644L60.1647 88.668L61.4718 87.3609L61.1682 87.0573Z" fill="#0B0B0B"/>
    <path d="M56.2236 85.0823C57.1852 85.0823 57.9648 84.3028 57.9648 83.3412C57.9648 82.3795 57.1852 81.6 56.2236 81.6C55.262 81.6 54.4824 82.3795 54.4824 83.3412C54.4824 84.3028 55.262 85.0823 56.2236 85.0823Z" fill="#575756"/>
    <path d="M56.2234 85.297C55.1382 85.297 54.2676 84.4144 54.2676 83.3411C54.2676 82.2678 55.1501 81.3853 56.2234 81.3853C57.2968 81.3853 58.1793 82.2678 58.1793 83.3411C58.1793 84.4144 57.2968 85.297 56.2234 85.297ZM56.2234 81.8146C55.3767 81.8146 54.6969 82.4944 54.6969 83.3411C54.6969 84.1878 55.3767 84.8676 56.2234 84.8676C57.0702 84.8676 57.7499 84.1878 57.7499 83.3411C57.7499 82.4944 57.0702 81.8146 56.2234 81.8146Z" fill="#0B0B0B"/>
    <path d="M55.7096 82.5345L55.406 82.8381L56.7131 84.1452L57.0167 83.8416L55.7096 82.5345Z" fill="#0B0B0B"/>
    <path d="M56.7131 82.5262L55.406 83.8333L55.7096 84.1368L57.0167 82.8297L56.7131 82.5262Z" fill="#0B0B0B"/>
    <path d="M115.21 89.614C116.171 89.614 116.951 88.8344 116.951 87.8728C116.951 86.9111 116.171 86.1316 115.21 86.1316C114.248 86.1316 113.469 86.9111 113.469 87.8728C113.469 88.8344 114.248 89.614 115.21 89.614Z" fill="#575756"/>
    <path d="M113.242 87.8728C113.242 86.7876 114.125 85.917 115.198 85.917C116.271 85.917 117.154 86.7995 117.154 87.8728C117.154 88.9462 116.271 89.8287 115.198 89.8287C114.125 89.8287 113.242 88.9462 113.242 87.8728ZM113.695 87.8728C113.695 88.7196 114.375 89.3994 115.222 89.3994C116.069 89.3994 116.748 88.7196 116.748 87.8728C116.748 87.0261 116.069 86.3463 115.222 86.3463C114.375 86.3463 113.695 87.0261 113.695 87.8728Z" fill="#0B0B0B"/>
    <path d="M115.717 87.074L114.41 88.3811L114.714 88.6847L116.021 87.3776L115.717 87.074Z" fill="#0B0B0B"/>
    <path d="M114.705 87.062L114.401 87.3656L115.708 88.6727L116.012 88.3691L114.705 87.062Z" fill="#0B0B0B"/>
    <path d="M119.658 85.0823C120.62 85.0823 121.399 84.3028 121.399 83.3412C121.399 82.3795 120.62 81.6 119.658 81.6C118.696 81.6 117.917 82.3795 117.917 83.3412C117.917 84.3028 118.696 85.0823 119.658 85.0823Z" fill="#575756"/>
    <path d="M117.702 83.3411C117.702 82.2558 118.585 81.3853 119.658 81.3853C120.731 81.3853 121.614 82.2678 121.614 83.3411C121.614 84.4144 120.731 85.297 119.658 85.297C118.585 85.297 117.702 84.4144 117.702 83.3411ZM118.131 83.3411C118.131 84.1878 118.811 84.8676 119.658 84.8676C120.505 84.8676 121.185 84.1878 121.185 83.3411C121.185 82.4944 120.505 81.8146 119.658 81.8146C118.811 81.8146 118.131 82.4944 118.131 83.3411Z" fill="#0B0B0B"/>
    <path d="M120.149 82.5249L118.842 83.832L119.145 84.1356L120.452 82.8285L120.149 82.5249Z" fill="#0B0B0B"/>
    <path d="M119.145 82.5335L118.842 82.837L120.149 84.1441L120.452 83.8405L119.145 82.5335Z" fill="#0B0B0B"/>
    <path d="M119.372 23.5441C120.334 23.5441 121.113 22.7646 121.113 21.803C121.113 20.8413 120.334 20.0618 119.372 20.0618C118.41 20.0618 117.631 20.8413 117.631 21.803C117.631 22.7646 118.41 23.5441 119.372 23.5441Z" fill="#575756"/>
    <path d="M119.372 23.7589C118.287 23.7589 117.416 22.8764 117.416 21.803C117.416 20.7297 118.299 19.8472 119.372 19.8472C120.445 19.8472 121.328 20.7297 121.328 21.803C121.328 22.8764 120.445 23.7589 119.372 23.7589ZM119.372 20.2765C118.525 20.2765 117.845 20.9563 117.845 21.803C117.845 22.6498 118.525 23.3295 119.372 23.3295C120.219 23.3295 120.898 22.6498 120.898 21.803C120.898 20.9563 120.219 20.2765 119.372 20.2765Z" fill="#0B0B0B"/>
    <path d="M118.855 20.9785L118.552 21.2821L119.859 22.5892L120.162 22.2856L118.855 20.9785Z" fill="#0B0B0B"/>
    <path d="M119.867 20.9904L118.56 22.2975L118.864 22.6011L120.171 21.294L119.867 20.9904Z" fill="#0B0B0B"/>
    <path d="M57.7988 23.5441C58.7604 23.5441 59.54 22.7646 59.54 21.803C59.54 20.8413 58.7604 20.0618 57.7988 20.0618C56.8372 20.0618 56.0576 20.8413 56.0576 21.803C56.0576 22.7646 56.8372 23.5441 57.7988 23.5441Z" fill="#575756"/>
    <path d="M57.7986 23.7589C56.7134 23.7589 55.8428 22.8764 55.8428 21.803C55.8428 20.7297 56.7253 19.8472 57.7986 19.8472C58.872 19.8472 59.7545 20.7297 59.7545 21.803C59.7545 22.8764 58.872 23.7589 57.7986 23.7589ZM57.7986 20.2765C56.9519 20.2765 56.2721 20.9563 56.2721 21.803C56.2721 22.6498 56.9519 23.3295 57.7986 23.3295C58.6454 23.3295 59.3251 22.6498 59.3251 21.803C59.3251 20.9563 58.6454 20.2765 57.7986 20.2765Z" fill="#0B0B0B"/>
    <path d="M57.2928 20.9795L56.9893 21.2831L58.2964 22.5902L58.5999 22.2866L57.2928 20.9795Z" fill="#0B0B0B"/>
    <path d="M58.2964 20.9711L56.9893 22.2782L57.2928 22.5818L58.5999 21.2747L58.2964 20.9711Z" fill="#0B0B0B"/>
    <mask id="mask0_3930_12351" style="mask-type:luminance" maskUnits="userSpaceOnUse" x="58" y="39" width="60" height="22">
        <path d="M109.331 39.2148H66.6954C62.2231 39.2148 58.5977 42.8403 58.5977 47.3125V52.8462C58.5977 57.3184 62.2231 60.9439 66.6954 60.9439H109.331C113.803 60.9439 117.428 57.3184 117.428 52.8462V47.3125C117.428 42.8403 113.803 39.2148 109.331 39.2148Z" fill="white"/>
    </mask>
    <g mask="url(#mask0_3930_12351)">
        <path d="M116.879 37.3186H66.063C61.5908 37.3186 57.9653 40.9441 57.9653 45.4163V56.0185C57.9653 60.4907 61.5908 64.1162 66.063 64.1162H116.879C121.352 64.1162 124.977 60.4907 124.977 56.0185V45.4163C124.977 40.9441 121.352 37.3186 116.879 37.3186Z" fill="#011F38"/>
        <path d="M118.275 60.109H116.939V61.4447H118.275V60.109Z" fill="#011F38"/>
        <path d="M116.927 60.109H115.591V61.4447H116.927V60.109Z" fill="#011F38"/>
        <path d="M115.592 60.109H114.256V61.4447H115.592V60.109Z" fill="#011F38"/>
        <path d="M114.243 60.109H112.908V61.4447H114.243V60.109Z" fill="#011F38"/>
        <path d="M112.908 60.109H111.573V61.4447H112.908V60.109Z" fill="#011F38"/>
        <path d="M111.572 60.109H110.237V61.4447H111.572V60.109Z" fill="#011F38"/>
        <path d="M110.225 60.109H108.889V61.4447H110.225V60.109Z" fill="#011F38"/>
        <path d="M108.889 60.109H107.553V61.4447H108.889V60.109Z" fill="#011F38"/>
        <path d="M107.542 60.109H106.206V61.4447H107.542V60.109Z" fill="#011F38"/>
        <path d="M106.206 60.109H104.87V61.4447H106.206V60.109Z" fill="#011F38"/>
        <path d="M104.858 60.109H103.522V61.4447H104.858V60.109Z" fill="#011F38"/>
        <path d="M103.522 60.109H102.187V61.4447H103.522V60.109Z" fill="#011F38"/>
        <path d="M102.175 60.109H100.839V61.4447H102.175V60.109Z" fill="#011F38"/>
        <path d="M100.851 60.109H99.5149V61.4447H100.851V60.109Z" fill="#011F38"/>
        <path d="M99.4915 60.109H98.1558V61.4447H99.4915V60.109Z" fill="#011F38"/>
        <path d="M98.1672 60.109H96.8315V61.4447H98.1672V60.109Z" fill="#011F38"/>
        <path d="M96.832 60.109H95.4963V61.4447H96.832V60.109Z" fill="#011F38"/>
        <path d="M95.4839 60.109H94.1482V61.4447H95.4839V60.109Z" fill="#011F38"/>
        <path d="M94.1487 60.109H92.813V61.4447H94.1487V60.109Z" fill="#011F38"/>
        <path d="M92.8005 60.109H91.4648V61.4447H92.8005V60.109Z" fill="#011F38"/>
        <path d="M91.4653 60.109H90.1296V61.4447H91.4653V60.109Z" fill="#011F38"/>
        <path d="M90.1174 60.109H88.7817V61.4447H90.1174V60.109Z" fill="#011F38"/>
        <path d="M88.782 60.109H87.4463V61.4447H88.782V60.109Z" fill="#011F38"/>
        <path d="M87.4341 60.109H86.0984V61.4447H87.4341V60.109Z" fill="#011F38"/>
        <path d="M86.1104 60.109H84.7747V61.4447H86.1104V60.109Z" fill="#011F38"/>
        <path d="M84.7507 60.109H83.415V61.4447H84.7507V60.109Z" fill="#011F38"/>
        <path d="M83.427 60.109H82.0913V61.4447H83.427V60.109Z" fill="#011F38"/>
        <path d="M82.0911 60.109H80.7554V61.4447H82.0911V60.109Z" fill="#011F38"/>
        <path d="M80.7437 60.109H79.408V61.4447H80.7437V60.109Z" fill="#011F38"/>
        <path d="M79.408 60.109H78.0723V61.4447H79.408V60.109Z" fill="#011F38"/>
        <path d="M78.0603 60.109H76.7246V61.4447H78.0603V60.109Z" fill="#011F38"/>
        <path d="M76.7246 60.109H75.3889V61.4447H76.7246V60.109Z" fill="#011F38"/>
        <path d="M75.3892 60.109H74.0535V61.4447H75.3892V60.109Z" fill="#011F38"/>
        <path d="M74.0413 60.109H72.7056V61.4447H74.0413V60.109Z" fill="#011F38"/>
        <path d="M72.7058 60.109H71.3701V61.4447H72.7058V60.109Z" fill="#011F38"/>
        <path d="M71.3701 60.109H70.0344V61.4447H71.3701V60.109Z" fill="#011F38"/>
        <path d="M70.0227 60.109H68.687V61.4447H70.0227V60.109Z" fill="#011F38"/>
        <path d="M68.6868 60.109H67.3511V61.4447H68.6868V60.109Z" fill="#011F38"/>
        <path d="M67.3394 60.109H66.0037V61.4447H67.3394V60.109Z" fill="#011F38"/>
        <path d="M66.0034 60.109H64.6677V61.4447H66.0034V60.109Z" fill="#011F38"/>
        <path d="M64.6675 60.109H63.3318V61.4447H64.6675V60.109Z" fill="#011F38"/>
        <path d="M63.3201 60.109H61.9844V61.4447H63.3201V60.109Z" fill="#011F38"/>
        <path d="M61.9841 60.109H60.6484V61.4447H61.9841V60.109Z" fill="#011F38"/>
        <path d="M60.6484 60.109H59.3127V61.4447H60.6484V60.109Z" fill="#011F38"/>
        <path d="M59.301 60.109H57.9653V61.4447H59.301V60.109Z" fill="#011F38"/>
        <path d="M118.275 58.7614H116.939V60.0971H118.275V58.7614Z" fill="#011F38"/>
        <path d="M116.927 58.7614H115.591V60.0971H116.927V58.7614Z" fill="#011F38"/>
        <path d="M115.592 58.7614H114.256V60.0971H115.592V58.7614Z" fill="#011F38"/>
        <path d="M114.243 58.7614H112.908V60.0971H114.243V58.7614Z" fill="#011F38"/>
        <path d="M112.908 58.7614H111.573V60.0971H112.908V58.7614Z" fill="#011F38"/>
        <path d="M111.572 58.7614H110.237V60.0971H111.572V58.7614Z" fill="#011F38"/>
        <path d="M110.225 58.7614H108.889V60.0971H110.225V58.7614Z" fill="#011F38"/>
        <path d="M108.889 58.7614H107.553V60.0971H108.889V58.7614Z" fill="#011F38"/>
        <path d="M107.542 58.7614H106.206V60.0971H107.542V58.7614Z" fill="#011F38"/>
        <path d="M106.206 58.7614H104.87V60.0971H106.206V58.7614Z" fill="#011F38"/>
        <path d="M104.858 58.7614H103.522V60.0971H104.858V58.7614Z" fill="#011F38"/>
        <path d="M103.522 58.7614H102.187V60.0971H103.522V58.7614Z" fill="#011F38"/>
        <path d="M102.175 58.7614H100.839V60.0971H102.175V58.7614Z" fill="#011F38"/>
        <path d="M100.851 58.7614H99.5149V60.0971H100.851V58.7614Z" fill="#011F38"/>
        <path d="M99.4915 58.7614H98.1558V60.0971H99.4915V58.7614Z" fill="#011F38"/>
        <path d="M98.1672 58.7614H96.8315V60.0971H98.1672V58.7614Z" fill="#011F38"/>
        <path d="M96.832 58.7614H95.4963V60.0971H96.832V58.7614Z" fill="#011F38"/>
        <path d="M95.4839 58.7614H94.1482V60.0971H95.4839V58.7614Z" fill="#011F38"/>
        <path d="M94.1487 58.7614H92.813V60.0971H94.1487V58.7614Z" fill="#011F38"/>
        <path d="M92.8005 58.7614H91.4648V60.0971H92.8005V58.7614Z" fill="#011F38"/>
        <path d="M91.4653 58.7614H90.1296V60.0971H91.4653V58.7614Z" fill="#011F38"/>
        <path d="M90.1174 58.7614H88.7817V60.0971H90.1174V58.7614Z" fill="#011F38"/>
        <path d="M88.782 58.7614H87.4463V60.0971H88.782V58.7614Z" fill="#011F38"/>
        <path d="M87.4341 58.7614H86.0984V60.0971H87.4341V58.7614Z" fill="#011F38"/>
        <path d="M86.1104 58.7614H84.7747V60.0971H86.1104V58.7614Z" fill="#011F38"/>
        <path d="M84.7507 58.7614H83.415V60.0971H84.7507V58.7614Z" fill="#011F38"/>
        <path d="M83.427 58.7614H82.0913V60.0971H83.427V58.7614Z" fill="#011F38"/>
        <path d="M82.0911 58.7614H80.7554V60.0971H82.0911V58.7614Z" fill="#011F38"/>
        <path d="M80.7437 58.7614H79.408V60.0971H80.7437V58.7614Z" fill="#011F38"/>
        <path d="M79.408 58.7614H78.0723V60.0971H79.408V58.7614Z" fill="#011F38"/>
        <path d="M78.0603 58.7614H76.7246V60.0971H78.0603V58.7614Z" fill="#011F38"/>
        <path d="M76.7246 58.7614H75.3889V60.0971H76.7246V58.7614Z" fill="#011F38"/>
        <path d="M75.3892 58.7614H74.0535V60.0971H75.3892V58.7614Z" fill="#011F38"/>
        <path d="M74.0413 58.7614H72.7056V60.0971H74.0413V58.7614Z" fill="#011F38"/>
        <path d="M72.7058 58.7614H71.3701V60.0971H72.7058V58.7614Z" fill="#011F38"/>
        <path d="M71.3701 58.7614H70.0344V60.0971H71.3701V58.7614Z" fill="#011F38"/>
        <path d="M70.0227 58.7614H68.687V60.0971H70.0227V58.7614Z" fill="#011F38"/>
        <path d="M68.6868 58.7614H67.3511V60.0971H68.6868V58.7614Z" fill="#011F38"/>
        <path d="M67.3394 58.7614H66.0037V60.0971H67.3394V58.7614Z" fill="#011F38"/>
        <path d="M66.0034 58.7614H64.6677V60.0971H66.0034V58.7614Z" fill="#011F38"/>
        <path d="M64.6675 58.7614H63.3318V60.0971H64.6675V58.7614Z" fill="#011F38"/>
        <path d="M63.3201 58.7614H61.9844V60.0971H63.3201V58.7614Z" fill="#011F38"/>
        <path d="M61.9841 58.7614H60.6484V60.0971H61.9841V58.7614Z" fill="#011F38"/>
        <path d="M60.6484 58.7614H59.3127V60.0971H60.6484V58.7614Z" fill="#011F38"/>
        <path d="M59.301 58.7614H57.9653V60.0971H59.301V58.7614Z" fill="#011F38"/>
        <path d="M118.251 57.4257H116.915V58.7614H118.251V57.4257Z" fill="#011F38"/>
        <path d="M116.927 57.4257H115.591V58.7614H116.927V57.4257Z" fill="#011F38"/>
        <path d="M115.568 57.4257H114.232V58.7614H115.568V57.4257Z" fill="#011F38"/>
        <path d="M114.243 57.4257H112.908V58.7614H114.243V57.4257Z" fill="#011F38"/>
        <path d="M112.908 57.4257H111.573V58.7614H112.908V57.4257Z" fill="#011F38"/>
        <path d="M111.572 57.4257H110.237V58.7614H111.572V57.4257Z" fill="#011F38"/>
        <path d="M110.225 57.4257H108.889V58.7614H110.225V57.4257Z" fill="#011F38"/>
        <path d="M108.889 57.4257H107.553V58.7614H108.889V57.4257Z" fill="#011F38"/>
        <path d="M107.542 57.4257H106.206V58.7614H107.542V57.4257Z" fill="#011F38"/>
        <path d="M106.206 57.4257H104.87V58.7614H106.206V57.4257Z" fill="#011F38"/>
        <path d="M104.858 57.4257H103.522V58.7614H104.858V57.4257Z" fill="#011F38"/>
        <path d="M103.522 57.4257H102.187V58.7614H103.522V57.4257Z" fill="#011F38"/>
        <path d="M102.175 57.4257H100.839V58.7614H102.175V57.4257Z" fill="#011F38"/>
        <path d="M100.851 57.4257H99.5149V58.7614H100.851V57.4257Z" fill="#011F38"/>
        <path d="M99.4915 57.4257H98.1558V58.7614H99.4915V57.4257Z" fill="#011F38"/>
        <path d="M98.1672 57.4257H96.8315V58.7614H98.1672V57.4257Z" fill="#011F38"/>
        <path d="M96.832 57.4257H95.4963V58.7614H96.832V57.4257Z" fill="#011F38"/>
        <path d="M95.4839 57.4257H94.1482V58.7614H95.4839V57.4257Z" fill="#011F38"/>
        <path d="M94.1487 57.4257H92.813V58.7614H94.1487V57.4257Z" fill="#011F38"/>
        <path d="M92.8005 57.4257H91.4648V58.7614H92.8005V57.4257Z" fill="#011F38"/>
        <path d="M91.4653 57.4257H90.1296V58.7614H91.4653V57.4257Z" fill="#011F38"/>
        <path d="M90.1174 57.4257H88.7817V58.7614H90.1174V57.4257Z" fill="#011F38"/>
        <path d="M88.782 57.4257H87.4463V58.7614H88.782V57.4257Z" fill="#011F38"/>
        <path d="M87.4341 57.4257H86.0984V58.7614H87.4341V57.4257Z" fill="#011F38"/>
        <path d="M86.1104 57.4257H84.7747V58.7614H86.1104V57.4257Z" fill="#011F38"/>
        <path d="M84.7507 57.4257H83.415V58.7614H84.7507V57.4257Z" fill="#011F38"/>
        <path d="M83.427 57.4257H82.0913V58.7614H83.427V57.4257Z" fill="#011F38"/>
        <path d="M82.0911 57.4257H80.7554V58.7614H82.0911V57.4257Z" fill="#011F38"/>
        <path d="M80.7437 57.4257H79.408V58.7614H80.7437V57.4257Z" fill="#011F38"/>
        <path d="M79.408 57.4257H78.0723V58.7614H79.408V57.4257Z" fill="#011F38"/>
        <path d="M78.0603 57.4257H76.7246V58.7614H78.0603V57.4257Z" fill="#011F38"/>
        <path d="M76.7246 57.4257H75.3889V58.7614H76.7246V57.4257Z" fill="#011F38"/>
        <path d="M75.3892 57.4257H74.0535V58.7614H75.3892V57.4257Z" fill="#011F38"/>
        <path d="M74.0413 57.4257H72.7056V58.7614H74.0413V57.4257Z" fill="#011F38"/>
        <path d="M72.7058 57.4257H71.3701V58.7614H72.7058V57.4257Z" fill="#011F38"/>
        <path d="M71.3701 57.4257H70.0344V58.7614H71.3701V57.4257Z" fill="#011F38"/>
        <path d="M70.0227 57.4257H68.687V58.7614H70.0227V57.4257Z" fill="#011F38"/>
        <path d="M68.6868 57.4257H67.3511V58.7614H68.6868V57.4257Z" fill="#011F38"/>
        <path d="M67.3394 57.4257H66.0037V58.7614H67.3394V57.4257Z" fill="#011F38"/>
        <path d="M66.0034 57.4257H64.6677V58.7614H66.0034V57.4257Z" fill="#011F38"/>
        <path d="M64.6675 57.4257H63.3318V58.7614H64.6675V57.4257Z" fill="#011F38"/>
        <path d="M63.3201 57.4257H61.9844V58.7614H63.3201V57.4257Z" fill="#011F38"/>
        <path d="M61.9841 57.4257H60.6484V58.7614H61.9841V57.4257Z" fill="#011F38"/>
        <path d="M60.6484 57.4257H59.3127V58.7614H60.6484V57.4257Z" fill="#011F38"/>
        <path d="M59.301 57.4257H57.9653V58.7614H59.301V57.4257Z" fill="#011F38"/>
        <path d="M112.908 56.09H111.573V57.4257H112.908V56.09Z" fill="#011F38"/>
        <path d="M111.572 56.09H110.237V57.4257H111.572V56.09Z" fill="#011F38"/>
        <path d="M110.225 56.09H108.889V57.4257H110.225V56.09Z" fill="#011F38"/>
        <path d="M108.889 56.09H107.553V57.4257H108.889V56.09Z" fill="#011F38"/>
        <path d="M107.542 56.09H106.206V57.4257H107.542V56.09Z" fill="#011F38"/>
        <path d="M106.206 56.09H104.87V57.4257H106.206V56.09Z" fill="#011F38"/>
        <path d="M104.858 56.09H103.522V57.4257H104.858V56.09Z" fill="#011F38"/>
        <path d="M103.522 56.09H102.187V57.4257H103.522V56.09Z" fill="#011F38"/>
        <path d="M102.175 56.09H100.839V57.4257H102.175V56.09Z" fill="#011F38"/>
        <path d="M100.851 56.09H99.5149V57.4257H100.851V56.09Z" fill="#011F38"/>
        <path d="M99.4915 56.09H98.1558V57.4257H99.4915V56.09Z" fill="#011F38"/>
        <path d="M98.1672 56.09H96.8315V57.4257H98.1672V56.09Z" fill="#011F38"/>
        <path d="M96.832 56.09H95.4963V57.4257H96.832V56.09Z" fill="#011F38"/>
        <path d="M95.4839 56.09H94.1482V57.4257H95.4839V56.09Z" fill="#011F38"/>
        <path d="M94.1487 56.09H92.813V57.4257H94.1487V56.09Z" fill="#011F38"/>
        <path d="M92.8005 56.09H91.4648V57.4257H92.8005V56.09Z" fill="#011F38"/>
        <path d="M91.4653 56.09H90.1296V57.4257H91.4653V56.09Z" fill="#011F38"/>
        <path d="M90.1174 56.09H88.7817V57.4257H90.1174V56.09Z" fill="#011F38"/>
        <path d="M88.782 56.09H87.4463V57.4257H88.782V56.09Z" fill="#011F38"/>
        <path d="M87.4341 56.09H86.0984V57.4257H87.4341V56.09Z" fill="#011F38"/>
        <path d="M86.1104 56.09H84.7747V57.4257H86.1104V56.09Z" fill="#011F38"/>
        <path d="M84.7507 56.09H83.415V57.4257H84.7507V56.09Z" fill="#011F38"/>
        <path d="M83.427 56.09H82.0913V57.4257H83.427V56.09Z" fill="#011F38"/>
        <path d="M82.0911 56.09H80.7554V57.4257H82.0911V56.09Z" fill="#011F38"/>
        <path d="M80.7437 56.09H79.408V57.4257H80.7437V56.09Z" fill="#011F38"/>
        <path d="M79.408 56.09H78.0723V57.4257H79.408V56.09Z" fill="#011F38"/>
        <path d="M78.0603 56.09H76.7246V57.4257H78.0603V56.09Z" fill="#011F38"/>
        <path d="M76.7246 56.09H75.3889V57.4257H76.7246V56.09Z" fill="#011F38"/>
        <path d="M75.3892 56.09H74.0535V57.4257H75.3892V56.09Z" fill="#011F38"/>
        <path d="M74.0413 56.09H72.7056V57.4257H74.0413V56.09Z" fill="#011F38"/>
        <path d="M72.7058 56.09H71.3701V57.4257H72.7058V56.09Z" fill="#011F38"/>
        <path d="M71.3579 56.09H70.0222V57.4257H71.3579V56.09Z" fill="#011F38"/>
        <path d="M64.656 56.09H63.3203V57.4257H64.656V56.09Z" fill="#011F38"/>
        <path d="M63.3201 56.09H61.9844V57.4257H63.3201V56.09Z" fill="#011F38"/>
        <path d="M61.9841 56.09H60.6484V57.4257H61.9841V56.09Z" fill="#011F38"/>
        <path d="M60.6484 56.09H59.3127V57.4257H60.6484V56.09Z" fill="#011F38"/>
        <path d="M59.301 56.09H57.9653V57.4257H59.301V56.09Z" fill="#011F38"/>
        <path d="M111.56 54.7423H110.224V56.078H111.56V54.7423Z" fill="#011F38"/>
        <path d="M110.225 54.7423H108.889V56.078H110.225V54.7423Z" fill="#011F38"/>
        <path d="M108.889 54.7423H107.553V56.078H108.889V54.7423Z" fill="#011F38"/>
        <path d="M107.542 54.7423H106.206V56.078H107.542V54.7423Z" fill="#011F38"/>
        <path d="M106.206 54.7423H104.87V56.078H106.206V54.7423Z" fill="#011F38"/>
        <path d="M104.858 54.7423H103.522V56.078H104.858V54.7423Z" fill="#011F38"/>
        <path d="M103.522 54.7423H102.187V56.078H103.522V54.7423Z" fill="#011F38"/>
        <path d="M102.175 54.7423H100.839V56.078H102.175V54.7423Z" fill="#011F38"/>
        <path d="M100.851 54.7423H99.5149V56.078H100.851V54.7423Z" fill="#011F38"/>
        <path d="M99.4915 54.7423H98.1558V56.078H99.4915V54.7423Z" fill="#011F38"/>
        <path d="M98.1672 54.7423H96.8315V56.078H98.1672V54.7423Z" fill="#011F38"/>
        <path d="M96.832 54.7423H95.4963V56.078H96.832V54.7423Z" fill="#011F38"/>
        <path d="M95.4839 54.7423H94.1482V56.078H95.4839V54.7423Z" fill="#011F38"/>
        <path d="M94.1487 54.7423H92.813V56.078H94.1487V54.7423Z" fill="#011F38"/>
        <path d="M92.8005 54.7423H91.4648V56.078H92.8005V54.7423Z" fill="#011F38"/>
        <path d="M91.4653 54.7423H90.1296V56.078H91.4653V54.7423Z" fill="#011F38"/>
        <path d="M90.1174 54.7423H88.7817V56.078H90.1174V54.7423Z" fill="#011F38"/>
        <path d="M88.782 54.7423H87.4463V56.078H88.782V54.7423Z" fill="#011F38"/>
        <path d="M87.4341 54.7423H86.0984V56.078H87.4341V54.7423Z" fill="#011F38"/>
        <path d="M86.1104 54.7423H84.7747V56.078H86.1104V54.7423Z" fill="#011F38"/>
        <path d="M84.7507 54.7423H83.415V56.078H84.7507V54.7423Z" fill="#011F38"/>
        <path d="M83.427 54.7423H82.0913V56.078H83.427V54.7423Z" fill="#011F38"/>
        <path d="M82.0911 54.7423H80.7554V56.078H82.0911V54.7423Z" fill="#011F38"/>
        <path d="M80.7437 54.7423H79.408V56.078H80.7437V54.7423Z" fill="#011F38"/>
        <path d="M79.408 54.7423H78.0723V56.078H79.408V54.7423Z" fill="#011F38"/>
        <path d="M78.0603 54.7423H76.7246V56.078H78.0603V54.7423Z" fill="#011F38"/>
        <path d="M76.7246 54.7423H75.3889V56.078H76.7246V54.7423Z" fill="#011F38"/>
        <path d="M75.3892 54.7423H74.0535V56.078H75.3892V54.7423Z" fill="#011F38"/>
        <path d="M74.0413 54.7423H72.7056V56.078H74.0413V54.7423Z" fill="#011F38"/>
        <path d="M72.7058 54.7423H71.3701V56.078H72.7058V54.7423Z" fill="#011F38"/>
        <path d="M63.3201 54.7423H61.9844V56.078H63.3201V54.7423Z" fill="#011F38"/>
        <path d="M61.9841 54.7423H60.6484V56.078H61.9841V54.7423Z" fill="#011F38"/>
        <path d="M60.6484 54.7423H59.3127V56.078H60.6484V54.7423Z" fill="#011F38"/>
        <path d="M59.301 54.7423H57.9653V56.078H59.301V54.7423Z" fill="#011F38"/>
        <path d="M110.225 53.4066H108.889V54.7423H110.225V53.4066Z" fill="#011F38"/>
        <path d="M108.889 53.4066H107.553V54.7423H108.889V53.4066Z" fill="#011F38"/>
        <path d="M107.542 53.4066H106.206V54.7423H107.542V53.4066Z" fill="#011F38"/>
        <path d="M106.206 53.4066H104.87V54.7423H106.206V53.4066Z" fill="#011F38"/>
        <path d="M104.858 53.4066H103.522V54.7423H104.858V53.4066Z" fill="#011F38"/>
        <path d="M103.522 53.4066H102.187V54.7423H103.522V53.4066Z" fill="#011F38"/>
        <path d="M102.175 53.4066H100.839V54.7423H102.175V53.4066Z" fill="#011F38"/>
        <path d="M100.851 53.4066H99.5149V54.7423H100.851V53.4066Z" fill="#011F38"/>
        <path d="M99.4915 53.4066H98.1558V54.7423H99.4915V53.4066Z" fill="#011F38"/>
        <path d="M98.1672 53.4066H96.8315V54.7423H98.1672V53.4066Z" fill="#011F38"/>
        <path d="M96.832 53.4066H95.4963V54.7423H96.832V53.4066Z" fill="#011F38"/>
        <path d="M95.4839 53.4066H94.1482V54.7423H95.4839V53.4066Z" fill="#011F38"/>
        <path d="M94.1487 53.4066H92.813V54.7423H94.1487V53.4066Z" fill="#011F38"/>
        <path d="M92.8005 53.4066H91.4648V54.7423H92.8005V53.4066Z" fill="#011F38"/>
        <path d="M91.4653 53.4066H90.1296V54.7423H91.4653V53.4066Z" fill="#011F38"/>
        <path d="M90.1174 53.4066H88.7817V54.7423H90.1174V53.4066Z" fill="#011F38"/>
        <path d="M88.782 53.4066H87.4463V54.7423H88.782V53.4066Z" fill="#011F38"/>
        <path d="M87.4341 53.4066H86.0984V54.7423H87.4341V53.4066Z" fill="#011F38"/>
        <path d="M86.1104 53.4066H84.7747V54.7423H86.1104V53.4066Z" fill="#011F38"/>
        <path d="M84.7507 53.4066H83.415V54.7423H84.7507V53.4066Z" fill="#011F38"/>
        <path d="M83.427 53.4066H82.0913V54.7423H83.427V53.4066Z" fill="#011F38"/>
        <path d="M82.0911 53.4066H80.7554V54.7423H82.0911V53.4066Z" fill="#011F38"/>
        <path d="M80.7437 53.4066H79.408V54.7423H80.7437V53.4066Z" fill="#011F38"/>
        <path d="M79.408 53.4066H78.0723V54.7423H79.408V53.4066Z" fill="#011F38"/>
        <path d="M78.0603 53.4066H76.7246V54.7423H78.0603V53.4066Z" fill="#011F38"/>
        <path d="M76.7246 53.4066H75.3889V54.7423H76.7246V53.4066Z" fill="#011F38"/>
        <path d="M75.3892 53.4066H74.0535V54.7423H75.3892V53.4066Z" fill="#011F38"/>
        <path d="M74.0413 53.4066H72.7056V54.7423H74.0413V53.4066Z" fill="#011F38"/>
        <path d="M61.9841 53.4066H60.6484V54.7423H61.9841V53.4066Z" fill="#011F38"/>
        <path d="M60.6484 53.4066H59.3127V54.7423H60.6484V53.4066Z" fill="#011F38"/>
        <path d="M59.301 53.4066H57.9653V54.7423H59.301V53.4066Z" fill="#011F38"/>
        <path d="M108.889 52.071H107.553V53.4067H108.889V52.071Z" fill="#011F38"/>
        <path d="M107.542 52.0591H106.206V53.3948H107.542V52.0591Z" fill="#011F38"/>
        <path d="M106.206 52.0591H104.87V53.3948H106.206V52.0591Z" fill="#011F38"/>
        <path d="M104.858 52.0591H103.522V53.3948H104.858V52.0591Z" fill="#011F38"/>
        <path d="M103.522 52.0591H102.187V53.3948H103.522V52.0591Z" fill="#011F38"/>
        <path d="M102.175 52.0591H100.839V53.3948H102.175V52.0591Z" fill="#011F38"/>
        <path d="M100.851 52.0591H99.5149V53.3948H100.851V52.0591Z" fill="#011F38"/>
        <path d="M99.4915 52.0591H98.1558V53.3948H99.4915V52.0591Z" fill="#011F38"/>
        <path d="M98.1672 52.0591H96.8315V53.3948H98.1672V52.0591Z" fill="#011F38"/>
        <path d="M96.832 52.0591H95.4963V53.3948H96.832V52.0591Z" fill="#011F38"/>
        <path d="M95.4839 52.0591H94.1482V53.3948H95.4839V52.0591Z" fill="#011F38"/>
        <path d="M94.1487 52.0591H92.813V53.3948H94.1487V52.0591Z" fill="#011F38"/>
        <path d="M92.8005 52.0591H91.4648V53.3948H92.8005V52.0591Z" fill="#011F38"/>
        <path d="M91.4653 52.0591H90.1296V53.3948H91.4653V52.0591Z" fill="#011F38"/>
        <path d="M90.1174 52.0591H88.7817V53.3948H90.1174V52.0591Z" fill="#011F38"/>
        <path d="M88.782 52.0591H87.4463V53.3948H88.782V52.0591Z" fill="#011F38"/>
        <path d="M87.4341 52.0591H86.0984V53.3948H87.4341V52.0591Z" fill="#011F38"/>
        <path d="M86.1104 52.0591H84.7747V53.3948H86.1104V52.0591Z" fill="#011F38"/>
        <path d="M84.7507 52.0591H83.415V53.3948H84.7507V52.0591Z" fill="#011F38"/>
        <path d="M83.427 52.0591H82.0913V53.3948H83.427V52.0591Z" fill="#011F38"/>
        <path d="M82.0911 52.0591H80.7554V53.3948H82.0911V52.0591Z" fill="#011F38"/>
        <path d="M80.7437 52.0591H79.408V53.3948H80.7437V52.0591Z" fill="#011F38"/>
        <path d="M79.408 52.0591H78.0723V53.3948H79.408V52.0591Z" fill="#011F38"/>
        <path d="M78.0603 52.0591H76.7246V53.3948H78.0603V52.0591Z" fill="#011F38"/>
        <path d="M76.7246 52.0591H75.3889V53.3948H76.7246V52.0591Z" fill="#011F38"/>
        <path d="M75.377 52.071H74.0413V53.4067H75.377V52.071Z" fill="#011F38"/>
        <path d="M60.6367 52.071H59.301V53.4067H60.6367V52.071Z" fill="#011F38"/>
        <path d="M59.301 52.0591H57.9653V53.3948H59.301V52.0591Z" fill="#011F38"/>
        <path d="M108.889 50.7233H107.553V52.059H108.889V50.7233Z" fill="#011F38"/>
        <path d="M107.542 50.7233H106.206V52.059H107.542V50.7233Z" fill="#011F38"/>
        <path d="M106.206 50.7233H104.87V52.059H106.206V50.7233Z" fill="#011F38"/>
        <path d="M104.858 50.7233H103.522V52.059H104.858V50.7233Z" fill="#011F38"/>
        <path d="M103.522 50.7233H102.187V52.059H103.522V50.7233Z" fill="#011F38"/>
        <path d="M102.175 50.7233H100.839V52.059H102.175V50.7233Z" fill="#011F38"/>
        <path d="M100.851 50.7233H99.5149V52.059H100.851V50.7233Z" fill="#011F38"/>
        <path d="M99.4915 50.7233H98.1558V52.059H99.4915V50.7233Z" fill="#011F38"/>
        <path d="M98.1672 50.7233H96.8315V52.059H98.1672V50.7233Z" fill="#011F38"/>
        <path d="M96.832 50.7233H95.4963V52.059H96.832V50.7233Z" fill="#011F38"/>
        <path d="M95.4839 50.7233H94.1482V52.059H95.4839V50.7233Z" fill="#011F38"/>
        <path d="M94.1487 50.7233H92.813V52.059H94.1487V50.7233Z" fill="#011F38"/>
        <path d="M92.8005 50.7233H91.4648V52.059H92.8005V50.7233Z" fill="#011F38"/>
        <path d="M91.4653 50.7233H90.1296V52.059H91.4653V50.7233Z" fill="#011F38"/>
        <path d="M90.1174 50.7233H88.7817V52.059H90.1174V50.7233Z" fill="#011F38"/>
        <path d="M88.782 50.7233H87.4463V52.059H88.782V50.7233Z" fill="#011F38"/>
        <path d="M87.4341 50.7233H86.0984V52.059H87.4341V50.7233Z" fill="#011F38"/>
        <path d="M86.1104 50.7233H84.7747V52.059H86.1104V50.7233Z" fill="#011F38"/>
        <path d="M84.7507 50.7233H83.415V52.059H84.7507V50.7233Z" fill="#011F38"/>
        <path d="M83.427 50.7233H82.0913V52.059H83.427V50.7233Z" fill="#011F38"/>
        <path d="M82.0911 50.7233H80.7554V52.059H82.0911V50.7233Z" fill="#011F38"/>
        <path d="M80.7437 50.7233H79.408V52.059H80.7437V50.7233Z" fill="#011F38"/>
        <path d="M79.408 50.7233H78.0723V52.059H79.408V50.7233Z" fill="#011F38"/>
        <path d="M78.0603 50.7233H76.7246V52.059H78.0603V50.7233Z" fill="#011F38"/>
        <path d="M76.7246 50.7233H75.3889V52.059H76.7246V50.7233Z" fill="#011F38"/>
        <path d="M75.377 50.7233H74.0413V52.059H75.377V50.7233Z" fill="#011F38"/>
        <path d="M60.6367 50.7233H59.301V52.059H60.6367V50.7233Z" fill="#011F38"/>
        <path d="M59.301 50.7233H57.9653V52.059H59.301V50.7233Z" fill="#011F38"/>
        <path d="M108.889 49.3876H107.553V50.7233H108.889V49.3876Z" fill="#011F38"/>
        <path d="M107.542 49.3876H106.206V50.7233H107.542V49.3876Z" fill="#011F38"/>
        <path d="M106.206 49.3876H104.87V50.7233H106.206V49.3876Z" fill="#011F38"/>
        <path d="M104.858 49.3876H103.522V50.7233H104.858V49.3876Z" fill="#011F38"/>
        <path d="M103.522 49.3876H102.187V50.7233H103.522V49.3876Z" fill="#011F38"/>
        <path d="M102.175 49.3876H100.839V50.7233H102.175V49.3876Z" fill="#011F38"/>
        <path d="M100.851 49.3876H99.5149V50.7233H100.851V49.3876Z" fill="#011F38"/>
        <path d="M99.4915 49.3876H98.1558V50.7233H99.4915V49.3876Z" fill="#011F38"/>
        <path d="M98.1672 49.3876H96.8315V50.7233H98.1672V49.3876Z" fill="#011F38"/>
        <path d="M96.832 49.3876H95.4963V50.7233H96.832V49.3876Z" fill="#011F38"/>
        <path d="M95.4839 49.3876H94.1482V50.7233H95.4839V49.3876Z" fill="#011F38"/>
        <path d="M94.1487 49.3876H92.813V50.7233H94.1487V49.3876Z" fill="#011F38"/>
        <path d="M92.8005 49.3876H91.4648V50.7233H92.8005V49.3876Z" fill="#011F38"/>
        <path d="M91.4653 49.3876H90.1296V50.7233H91.4653V49.3876Z" fill="#011F38"/>
        <path d="M90.1174 49.3876H88.7817V50.7233H90.1174V49.3876Z" fill="#011F38"/>
        <path d="M88.782 49.3876H87.4463V50.7233H88.782V49.3876Z" fill="#011F38"/>
        <path d="M87.4341 49.3876H86.0984V50.7233H87.4341V49.3876Z" fill="#011F38"/>
        <path d="M86.1104 49.3876H84.7747V50.7233H86.1104V49.3876Z" fill="#011F38"/>
        <path d="M84.7507 49.3876H83.415V50.7233H84.7507V49.3876Z" fill="#011F38"/>
        <path d="M83.427 49.3876H82.0913V50.7233H83.427V49.3876Z" fill="#011F38"/>
        <path d="M82.0911 49.3876H80.7554V50.7233H82.0911V49.3876Z" fill="#011F38"/>
        <path d="M80.7437 49.3876H79.408V50.7233H80.7437V49.3876Z" fill="#011F38"/>
        <path d="M79.408 49.3876H78.0723V50.7233H79.408V49.3876Z" fill="#011F38"/>
        <path d="M78.0603 49.3876H76.7246V50.7233H78.0603V49.3876Z" fill="#011F38"/>
        <path d="M76.7246 49.3876H75.3889V50.7233H76.7246V49.3876Z" fill="#011F38"/>
        <path d="M75.377 49.3876H74.0413V50.7233H75.377V49.3876Z" fill="#011F38"/>
        <path d="M60.6367 49.3876H59.301V50.7233H60.6367V49.3876Z" fill="#011F38"/>
        <path d="M59.301 49.3876H57.9653V50.7233H59.301V49.3876Z" fill="#011F38"/>
        <path d="M108.889 48.052H107.553V49.3877H108.889V48.052Z" fill="#011F38"/>
        <path d="M107.542 48.04H106.206V49.3757H107.542V48.04Z" fill="#011F38"/>
        <path d="M106.206 48.04H104.87V49.3757H106.206V48.04Z" fill="#011F38"/>
        <path d="M104.858 48.04H103.522V49.3757H104.858V48.04Z" fill="#011F38"/>
        <path d="M103.522 48.04H102.187V49.3757H103.522V48.04Z" fill="#011F38"/>
        <path d="M102.175 48.04H100.839V49.3757H102.175V48.04Z" fill="#011F38"/>
        <path d="M100.851 48.04H99.5149V49.3757H100.851V48.04Z" fill="#011F38"/>
        <path d="M99.4915 48.04H98.1558V49.3757H99.4915V48.04Z" fill="#011F38"/>
        <path d="M98.1672 48.04H96.8315V49.3757H98.1672V48.04Z" fill="#011F38"/>
        <path d="M96.832 48.04H95.4963V49.3757H96.832V48.04Z" fill="#011F38"/>
        <path d="M95.4839 48.04H94.1482V49.3757H95.4839V48.04Z" fill="#011F38"/>
        <path d="M94.1487 48.04H92.813V49.3757H94.1487V48.04Z" fill="#011F38"/>
        <path d="M92.8005 48.04H91.4648V49.3757H92.8005V48.04Z" fill="#011F38"/>
        <path d="M91.4653 48.04H90.1296V49.3757H91.4653V48.04Z" fill="#011F38"/>
        <path d="M90.1174 48.04H88.7817V49.3757H90.1174V48.04Z" fill="#011F38"/>
        <path d="M88.782 48.04H87.4463V49.3757H88.782V48.04Z" fill="#011F38"/>
        <path d="M87.4341 48.04H86.0984V49.3757H87.4341V48.04Z" fill="#011F38"/>
        <path d="M86.1104 48.04H84.7747V49.3757H86.1104V48.04Z" fill="#011F38"/>
        <path d="M84.7507 48.04H83.415V49.3757H84.7507V48.04Z" fill="#011F38"/>
        <path d="M83.427 48.04H82.0913V49.3757H83.427V48.04Z" fill="#011F38"/>
        <path d="M82.0911 48.04H80.7554V49.3757H82.0911V48.04Z" fill="#011F38"/>
        <path d="M80.7437 48.04H79.408V49.3757H80.7437V48.04Z" fill="#011F38"/>
        <path d="M79.408 48.04H78.0723V49.3757H79.408V48.04Z" fill="#011F38"/>
        <path d="M78.0603 48.04H76.7246V49.3757H78.0603V48.04Z" fill="#011F38"/>
        <path d="M76.7246 48.04H75.3889V49.3757H76.7246V48.04Z" fill="#011F38"/>
        <path d="M75.377 48.052H74.0413V49.3877H75.377V48.052Z" fill="#011F38"/>
        <path d="M60.6367 48.052H59.301V49.3877H60.6367V48.052Z" fill="#011F38"/>
        <path d="M59.301 48.04H57.9653V49.3757H59.301V48.04Z" fill="#011F38"/>
        <path d="M110.225 46.7043H108.889V48.04H110.225V46.7043Z" fill="#011F38"/>
        <path d="M108.889 46.7043H107.553V48.04H108.889V46.7043Z" fill="#011F38"/>
        <path d="M107.542 46.7043H106.206V48.04H107.542V46.7043Z" fill="#011F38"/>
        <path d="M106.206 46.7043H104.87V48.04H106.206V46.7043Z" fill="#011F38"/>
        <path d="M104.858 46.7043H103.522V48.04H104.858V46.7043Z" fill="#011F38"/>
        <path d="M103.522 46.7043H102.187V48.04H103.522V46.7043Z" fill="#011F38"/>
        <path d="M102.175 46.7043H100.839V48.04H102.175V46.7043Z" fill="#011F38"/>
        <path d="M100.851 46.7043H99.5149V48.04H100.851V46.7043Z" fill="#011F38"/>
        <path d="M99.4915 46.7043H98.1558V48.04H99.4915V46.7043Z" fill="#011F38"/>
        <path d="M98.1672 46.7043H96.8315V48.04H98.1672V46.7043Z" fill="#011F38"/>
        <path d="M96.832 46.7043H95.4963V48.04H96.832V46.7043Z" fill="#011F38"/>
        <path d="M95.4839 46.7043H94.1482V48.04H95.4839V46.7043Z" fill="#011F38"/>
        <path d="M94.1487 46.7043H92.813V48.04H94.1487V46.7043Z" fill="#011F38"/>
        <path d="M92.8005 46.7043H91.4648V48.04H92.8005V46.7043Z" fill="#011F38"/>
        <path d="M91.4653 46.7043H90.1296V48.04H91.4653V46.7043Z" fill="#011F38"/>
        <path d="M90.1174 46.7043H88.7817V48.04H90.1174V46.7043Z" fill="#011F38"/>
        <path d="M88.782 46.7043H87.4463V48.04H88.782V46.7043Z" fill="#011F38"/>
        <path d="M87.4341 46.7043H86.0984V48.04H87.4341V46.7043Z" fill="#011F38"/>
        <path d="M86.1104 46.7043H84.7747V48.04H86.1104V46.7043Z" fill="#011F38"/>
        <path d="M84.7507 46.7043H83.415V48.04H84.7507V46.7043Z" fill="#011F38"/>
        <path d="M83.427 46.7043H82.0913V48.04H83.427V46.7043Z" fill="#011F38"/>
        <path d="M82.0911 46.7043H80.7554V48.04H82.0911V46.7043Z" fill="#011F38"/>
        <path d="M80.7437 46.7043H79.408V48.04H80.7437V46.7043Z" fill="#011F38"/>
        <path d="M79.408 46.7043H78.0723V48.04H79.408V46.7043Z" fill="#011F38"/>
        <path d="M78.0603 46.7043H76.7246V48.04H78.0603V46.7043Z" fill="#011F38"/>
        <path d="M76.7246 46.7043H75.3889V48.04H76.7246V46.7043Z" fill="#011F38"/>
        <path d="M75.3892 46.7043H74.0535V48.04H75.3892V46.7043Z" fill="#011F38"/>
        <path d="M74.0413 46.7043H72.7056V48.04H74.0413V46.7043Z" fill="#011F38"/>
        <path d="M61.9841 46.7043H60.6484V48.04H61.9841V46.7043Z" fill="#011F38"/>
        <path d="M60.6484 46.7043H59.3127V48.04H60.6484V46.7043Z" fill="#011F38"/>
        <path d="M59.301 46.7043H57.9653V48.04H59.301V46.7043Z" fill="#011F38"/>
        <path d="M111.56 45.3687H110.224V46.7044H111.56V45.3687Z" fill="#011F38"/>
        <path d="M110.225 45.3687H108.889V46.7044H110.225V45.3687Z" fill="#011F38"/>
        <path d="M108.889 45.3687H107.553V46.7044H108.889V45.3687Z" fill="#011F38"/>
        <path d="M107.542 45.3687H106.206V46.7044H107.542V45.3687Z" fill="#011F38"/>
        <path d="M106.206 45.3687H104.87V46.7044H106.206V45.3687Z" fill="#011F38"/>
        <path d="M104.858 45.3687H103.522V46.7044H104.858V45.3687Z" fill="#011F38"/>
        <path d="M103.522 45.3687H102.187V46.7044H103.522V45.3687Z" fill="#011F38"/>
        <path d="M102.175 45.3687H100.839V46.7044H102.175V45.3687Z" fill="#011F38"/>
        <path d="M100.851 45.3687H99.5149V46.7044H100.851V45.3687Z" fill="#011F38"/>
        <path d="M99.4915 45.3687H98.1558V46.7044H99.4915V45.3687Z" fill="#011F38"/>
        <path d="M98.1672 45.3687H96.8315V46.7044H98.1672V45.3687Z" fill="#011F38"/>
        <path d="M96.832 45.3687H95.4963V46.7044H96.832V45.3687Z" fill="#011F38"/>
        <path d="M95.4839 45.3687H94.1482V46.7044H95.4839V45.3687Z" fill="#011F38"/>
        <path d="M94.1487 45.3687H92.813V46.7044H94.1487V45.3687Z" fill="#011F38"/>
        <path d="M92.8005 45.3687H91.4648V46.7044H92.8005V45.3687Z" fill="#011F38"/>
        <path d="M91.4653 45.3687H90.1296V46.7044H91.4653V45.3687Z" fill="#011F38"/>
        <path d="M90.1174 45.3687H88.7817V46.7044H90.1174V45.3687Z" fill="#011F38"/>
        <path d="M88.782 45.3687H87.4463V46.7044H88.782V45.3687Z" fill="#011F38"/>
        <path d="M87.4341 45.3687H86.0984V46.7044H87.4341V45.3687Z" fill="#011F38"/>
        <path d="M86.1104 45.3687H84.7747V46.7044H86.1104V45.3687Z" fill="#011F38"/>
        <path d="M84.7507 45.3687H83.415V46.7044H84.7507V45.3687Z" fill="#011F38"/>
        <path d="M83.427 45.3687H82.0913V46.7044H83.427V45.3687Z" fill="#011F38"/>
        <path d="M82.0911 45.3687H80.7554V46.7044H82.0911V45.3687Z" fill="#011F38"/>
        <path d="M80.7437 45.3687H79.408V46.7044H80.7437V45.3687Z" fill="#011F38"/>
        <path d="M79.408 45.3687H78.0723V46.7044H79.408V45.3687Z" fill="#011F38"/>
        <path d="M78.0603 45.3687H76.7246V46.7044H78.0603V45.3687Z" fill="#011F38"/>
        <path d="M76.7246 45.3687H75.3889V46.7044H76.7246V45.3687Z" fill="#011F38"/>
        <path d="M75.3892 45.3687H74.0535V46.7044H75.3892V45.3687Z" fill="#011F38"/>
        <path d="M74.0413 45.3687H72.7056V46.7044H74.0413V45.3687Z" fill="#011F38"/>
        <path d="M72.7058 45.3687H71.3701V46.7044H72.7058V45.3687Z" fill="#011F38"/>
        <path d="M63.3201 45.3687H61.9844V46.7044H63.3201V45.3687Z" fill="#011F38"/>
        <path d="M61.9841 45.3687H60.6484V46.7044H61.9841V45.3687Z" fill="#011F38"/>
        <path d="M60.6484 45.3687H59.3127V46.7044H60.6484V45.3687Z" fill="#011F38"/>
        <path d="M59.301 45.3687H57.9653V46.7044H59.301V45.3687Z" fill="#011F38"/>
        <path d="M112.908 44.021H111.573V45.3567H112.908V44.021Z" fill="#011F38"/>
        <path d="M111.572 44.021H110.237V45.3567H111.572V44.021Z" fill="#011F38"/>
        <path d="M110.225 44.021H108.889V45.3567H110.225V44.021Z" fill="#011F38"/>
        <path d="M108.889 44.021H107.553V45.3567H108.889V44.021Z" fill="#011F38"/>
        <path d="M107.542 44.021H106.206V45.3567H107.542V44.021Z" fill="#011F38"/>
        <path d="M106.206 44.021H104.87V45.3567H106.206V44.021Z" fill="#011F38"/>
        <path d="M104.858 44.021H103.522V45.3567H104.858V44.021Z" fill="#011F38"/>
        <path d="M103.522 44.021H102.187V45.3567H103.522V44.021Z" fill="#011F38"/>
        <path d="M102.175 44.021H100.839V45.3567H102.175V44.021Z" fill="#011F38"/>
        <path d="M100.851 44.021H99.5149V45.3567H100.851V44.021Z" fill="#011F38"/>
        <path d="M99.4915 44.021H98.1558V45.3567H99.4915V44.021Z" fill="#011F38"/>
        <path d="M98.1672 44.021H96.8315V45.3567H98.1672V44.021Z" fill="#011F38"/>
        <path d="M96.832 44.021H95.4963V45.3567H96.832V44.021Z" fill="#011F38"/>
        <path d="M95.4839 44.021H94.1482V45.3567H95.4839V44.021Z" fill="#011F38"/>
        <path d="M94.1487 44.021H92.813V45.3567H94.1487V44.021Z" fill="#011F38"/>
        <path d="M92.8005 44.021H91.4648V45.3567H92.8005V44.021Z" fill="#011F38"/>
        <path d="M91.4653 44.021H90.1296V45.3567H91.4653V44.021Z" fill="#011F38"/>
        <path d="M90.1174 44.021H88.7817V45.3567H90.1174V44.021Z" fill="#011F38"/>
        <path d="M88.782 44.021H87.4463V45.3567H88.782V44.021Z" fill="#011F38"/>
        <path d="M87.4341 44.021H86.0984V45.3567H87.4341V44.021Z" fill="#011F38"/>
        <path d="M86.1104 44.021H84.7747V45.3567H86.1104V44.021Z" fill="#011F38"/>
        <path d="M84.7507 44.021H83.415V45.3567H84.7507V44.021Z" fill="#011F38"/>
        <path d="M83.427 44.021H82.0913V45.3567H83.427V44.021Z" fill="#011F38"/>
        <path d="M82.0911 44.021H80.7554V45.3567H82.0911V44.021Z" fill="#011F38"/>
        <path d="M80.7437 44.021H79.408V45.3567H80.7437V44.021Z" fill="#011F38"/>
        <path d="M79.408 44.021H78.0723V45.3567H79.408V44.021Z" fill="#011F38"/>
        <path d="M78.0603 44.021H76.7246V45.3567H78.0603V44.021Z" fill="#011F38"/>
        <path d="M76.7246 44.021H75.3889V45.3567H76.7246V44.021Z" fill="#011F38"/>
        <path d="M75.3892 44.021H74.0535V45.3567H75.3892V44.021Z" fill="#011F38"/>
        <path d="M74.0413 44.021H72.7056V45.3567H74.0413V44.021Z" fill="#011F38"/>
        <path d="M72.7058 44.021H71.3701V45.3567H72.7058V44.021Z" fill="#011F38"/>
        <path d="M71.3579 44.021H70.0222V45.3567H71.3579V44.021Z" fill="#011F38"/>
        <path d="M64.656 44.021H63.3203V45.3567H64.656V44.021Z" fill="#011F38"/>
        <path d="M63.3201 44.021H61.9844V45.3567H63.3201V44.021Z" fill="#011F38"/>
        <path d="M61.9841 44.021H60.6484V45.3567H61.9841V44.021Z" fill="#011F38"/>
        <path d="M60.6484 44.021H59.3127V45.3567H60.6484V44.021Z" fill="#011F38"/>
        <path d="M59.301 44.021H57.9653V45.3567H59.301V44.021Z" fill="#011F38"/>
        <path d="M122.353 48.0997V53.4664H121.018V54.8021H119.67V56.1378H118.334V57.4854H112.968V56.1378H111.632V54.8021H110.296V53.4664H108.948V48.0997H110.296V46.764H111.632V45.4164H112.968V44.0807H118.334V45.4164H119.67V46.764H121.018V48.0997H122.353Z" fill="#011F38"/>
        <path d="M118.251 42.6853H116.915V44.021H118.251V42.6853Z" fill="#011F38"/>
        <path d="M116.927 42.6853H115.591V44.021H116.927V42.6853Z" fill="#011F38"/>
        <path d="M115.568 42.6853H114.232V44.021H115.568V42.6853Z" fill="#011F38"/>
        <path d="M114.243 42.6853H112.908V44.021H114.243V42.6853Z" fill="#011F38"/>
        <path d="M112.908 42.6853H111.573V44.021H112.908V42.6853Z" fill="#011F38"/>
        <path d="M111.572 42.6853H110.237V44.021H111.572V42.6853Z" fill="#011F38"/>
        <path d="M110.225 42.6853H108.889V44.021H110.225V42.6853Z" fill="#011F38"/>
        <path d="M108.889 42.6853H107.553V44.021H108.889V42.6853Z" fill="#011F38"/>
        <path d="M107.542 42.6853H106.206V44.021H107.542V42.6853Z" fill="#011F38"/>
        <path d="M106.206 42.6853H104.87V44.021H106.206V42.6853Z" fill="#011F38"/>
        <path d="M104.858 42.6853H103.522V44.021H104.858V42.6853Z" fill="#011F38"/>
        <path d="M103.522 42.6853H102.187V44.021H103.522V42.6853Z" fill="#011F38"/>
        <path d="M102.175 42.6853H100.839V44.021H102.175V42.6853Z" fill="#011F38"/>
        <path d="M100.851 42.6853H99.5149V44.021H100.851V42.6853Z" fill="#011F38"/>
        <path d="M99.4915 42.6853H98.1558V44.021H99.4915V42.6853Z" fill="#011F38"/>
        <path d="M98.1672 42.6853H96.8315V44.021H98.1672V42.6853Z" fill="#011F38"/>
        <path d="M96.832 42.6853H95.4963V44.021H96.832V42.6853Z" fill="#011F38"/>
        <path d="M95.4839 42.6853H94.1482V44.021H95.4839V42.6853Z" fill="#011F38"/>
        <path d="M94.1487 42.6853H92.813V44.021H94.1487V42.6853Z" fill="#011F38"/>
        <path d="M92.8005 42.6853H91.4648V44.021H92.8005V42.6853Z" fill="#011F38"/>
        <path d="M91.4653 42.6853H90.1296V44.021H91.4653V42.6853Z" fill="#011F38"/>
        <path d="M90.1174 42.6853H88.7817V44.021H90.1174V42.6853Z" fill="#011F38"/>
        <path d="M88.782 42.6853H87.4463V44.021H88.782V42.6853Z" fill="#011F38"/>
        <path d="M87.4341 42.6853H86.0984V44.021H87.4341V42.6853Z" fill="#011F38"/>
        <path d="M86.1104 42.6853H84.7747V44.021H86.1104V42.6853Z" fill="#011F38"/>
        <path d="M84.7507 42.6853H83.415V44.021H84.7507V42.6853Z" fill="#011F38"/>
        <path d="M83.427 42.6853H82.0913V44.021H83.427V42.6853Z" fill="#011F38"/>
        <path d="M82.0911 42.6853H80.7554V44.021H82.0911V42.6853Z" fill="#011F38"/>
        <path d="M80.7437 42.6853H79.408V44.021H80.7437V42.6853Z" fill="#011F38"/>
        <path d="M79.408 42.6853H78.0723V44.021H79.408V42.6853Z" fill="#011F38"/>
        <path d="M78.0603 42.6853H76.7246V44.021H78.0603V42.6853Z" fill="#011F38"/>
        <path d="M76.7246 42.6853H75.3889V44.021H76.7246V42.6853Z" fill="#011F38"/>
        <path d="M75.3892 42.6853H74.0535V44.021H75.3892V42.6853Z" fill="#011F38"/>
        <path d="M74.0413 42.6853H72.7056V44.021H74.0413V42.6853Z" fill="#011F38"/>
        <path d="M72.7058 42.6853H71.3701V44.021H72.7058V42.6853Z" fill="#011F38"/>
        <path d="M71.3701 42.6853H70.0344V44.021H71.3701V42.6853Z" fill="#011F38"/>
        <path d="M70.0227 42.6853H68.687V44.021H70.0227V42.6853Z" fill="#011F38"/>
        <path d="M68.6868 42.6853H67.3511V44.021H68.6868V42.6853Z" fill="#011F38"/>
        <path d="M67.3394 42.6853H66.0037V44.021H67.3394V42.6853Z" fill="#011F38"/>
        <path d="M66.0034 42.6853H64.6677V44.021H66.0034V42.6853Z" fill="#011F38"/>
        <path d="M64.6675 42.6853H63.3318V44.021H64.6675V42.6853Z" fill="#011F38"/>
        <path d="M63.3201 42.6853H61.9844V44.021H63.3201V42.6853Z" fill="#011F38"/>
        <path d="M61.9841 42.6853H60.6484V44.021H61.9841V42.6853Z" fill="#011F38"/>
        <path d="M60.6484 42.6853H59.3127V44.021H60.6484V42.6853Z" fill="#011F38"/>
        <path d="M59.301 42.6853H57.9653V44.021H59.301V42.6853Z" fill="#011F38"/>
        <path d="M118.275 41.3376H116.939V42.6733H118.275V41.3376Z" fill="#011F38"/>
        <path d="M116.927 41.3376H115.591V42.6733H116.927V41.3376Z" fill="#011F38"/>
        <path d="M115.592 41.3376H114.256V42.6733H115.592V41.3376Z" fill="#011F38"/>
        <path d="M114.243 41.3376H112.908V42.6733H114.243V41.3376Z" fill="#011F38"/>
        <path d="M112.908 41.3376H111.573V42.6733H112.908V41.3376Z" fill="#011F38"/>
        <path d="M111.572 41.3376H110.237V42.6733H111.572V41.3376Z" fill="#011F38"/>
        <path d="M110.225 41.3376H108.889V42.6733H110.225V41.3376Z" fill="#011F38"/>
        <path d="M108.889 41.3376H107.553V42.6733H108.889V41.3376Z" fill="#011F38"/>
        <path d="M107.542 41.3376H106.206V42.6733H107.542V41.3376Z" fill="#011F38"/>
        <path d="M106.206 41.3376H104.87V42.6733H106.206V41.3376Z" fill="#011F38"/>
        <path d="M104.858 41.3376H103.522V42.6733H104.858V41.3376Z" fill="#011F38"/>
        <path d="M103.522 41.3376H102.187V42.6733H103.522V41.3376Z" fill="#011F38"/>
        <path d="M102.175 41.3376H100.839V42.6733H102.175V41.3376Z" fill="#011F38"/>
        <path d="M100.851 41.3376H99.5149V42.6733H100.851V41.3376Z" fill="#011F38"/>
        <path d="M99.4915 41.3376H98.1558V42.6733H99.4915V41.3376Z" fill="#011F38"/>
        <path d="M98.1672 41.3376H96.8315V42.6733H98.1672V41.3376Z" fill="#011F38"/>
        <path d="M96.832 41.3376H95.4963V42.6733H96.832V41.3376Z" fill="#011F38"/>
        <path d="M95.4839 41.3376H94.1482V42.6733H95.4839V41.3376Z" fill="#011F38"/>
        <path d="M94.1487 41.3376H92.813V42.6733H94.1487V41.3376Z" fill="#011F38"/>
        <path d="M92.8005 41.3376H91.4648V42.6733H92.8005V41.3376Z" fill="#011F38"/>
        <path d="M91.4653 41.3376H90.1296V42.6733H91.4653V41.3376Z" fill="#011F38"/>
        <path d="M90.1174 41.3376H88.7817V42.6733H90.1174V41.3376Z" fill="#011F38"/>
        <path d="M88.782 41.3376H87.4463V42.6733H88.782V41.3376Z" fill="#011F38"/>
        <path d="M87.4341 41.3376H86.0984V42.6733H87.4341V41.3376Z" fill="#011F38"/>
        <path d="M86.1104 41.3376H84.7747V42.6733H86.1104V41.3376Z" fill="#011F38"/>
        <path d="M84.7507 41.3376H83.415V42.6733H84.7507V41.3376Z" fill="#011F38"/>
        <path d="M83.427 41.3376H82.0913V42.6733H83.427V41.3376Z" fill="#011F38"/>
        <path d="M82.0911 41.3376H80.7554V42.6733H82.0911V41.3376Z" fill="#011F38"/>
        <path d="M80.7437 41.3376H79.408V42.6733H80.7437V41.3376Z" fill="#011F38"/>
        <path d="M79.408 41.3376H78.0723V42.6733H79.408V41.3376Z" fill="#011F38"/>
        <path d="M78.0603 41.3376H76.7246V42.6733H78.0603V41.3376Z" fill="#011F38"/>
        <path d="M76.7246 41.3376H75.3889V42.6733H76.7246V41.3376Z" fill="#011F38"/>
        <path d="M75.3892 41.3376H74.0535V42.6733H75.3892V41.3376Z" fill="#011F38"/>
        <path d="M74.0413 41.3376H72.7056V42.6733H74.0413V41.3376Z" fill="#011F38"/>
        <path d="M72.7058 41.3376H71.3701V42.6733H72.7058V41.3376Z" fill="#011F38"/>
        <path d="M71.3701 41.3376H70.0344V42.6733H71.3701V41.3376Z" fill="#011F38"/>
        <path d="M70.0227 41.3376H68.687V42.6733H70.0227V41.3376Z" fill="#011F38"/>
        <path d="M68.6868 41.3376H67.3511V42.6733H68.6868V41.3376Z" fill="#011F38"/>
        <path d="M67.3394 41.3376H66.0037V42.6733H67.3394V41.3376Z" fill="#011F38"/>
        <path d="M66.0034 41.3376H64.6677V42.6733H66.0034V41.3376Z" fill="#011F38"/>
        <path d="M64.6675 41.3376H63.3318V42.6733H64.6675V41.3376Z" fill="#011F38"/>
        <path d="M63.3201 41.3376H61.9844V42.6733H63.3201V41.3376Z" fill="#011F38"/>
        <path d="M61.9841 41.3376H60.6484V42.6733H61.9841V41.3376Z" fill="#011F38"/>
        <path d="M60.6484 41.3376H59.3127V42.6733H60.6484V41.3376Z" fill="#011F38"/>
        <path d="M59.301 41.3376H57.9653V42.6733H59.301V41.3376Z" fill="#011F38"/>
        <path d="M118.275 40.002H116.939V41.3377H118.275V40.002Z" fill="#011F38"/>
        <path d="M116.927 40.002H115.591V41.3377H116.927V40.002Z" fill="#011F38"/>
        <path d="M115.592 40.002H114.256V41.3377H115.592V40.002Z" fill="#011F38"/>
        <path d="M114.243 40.002H112.908V41.3377H114.243V40.002Z" fill="#011F38"/>
        <path d="M112.908 40.002H111.573V41.3377H112.908V40.002Z" fill="#011F38"/>
        <path d="M111.572 40.002H110.237V41.3377H111.572V40.002Z" fill="#011F38"/>
        <path d="M110.225 40.002H108.889V41.3377H110.225V40.002Z" fill="#011F38"/>
        <path d="M108.889 40.002H107.553V41.3377H108.889V40.002Z" fill="#011F38"/>
        <path d="M107.542 40.002H106.206V41.3377H107.542V40.002Z" fill="#011F38"/>
        <path d="M106.206 40.002H104.87V41.3377H106.206V40.002Z" fill="#011F38"/>
        <path d="M104.858 40.002H103.522V41.3377H104.858V40.002Z" fill="#011F38"/>
        <path d="M103.522 40.002H102.187V41.3377H103.522V40.002Z" fill="#011F38"/>
        <path d="M102.175 40.002H100.839V41.3377H102.175V40.002Z" fill="#011F38"/>
        <path d="M100.851 40.002H99.5149V41.3377H100.851V40.002Z" fill="#011F38"/>
        <path d="M99.4915 40.002H98.1558V41.3377H99.4915V40.002Z" fill="#011F38"/>
        <path d="M98.1672 40.002H96.8315V41.3377H98.1672V40.002Z" fill="#011F38"/>
        <path d="M96.832 40.002H95.4963V41.3377H96.832V40.002Z" fill="#011F38"/>
        <path d="M95.4839 40.002H94.1482V41.3377H95.4839V40.002Z" fill="#011F38"/>
        <path d="M94.1487 40.002H92.813V41.3377H94.1487V40.002Z" fill="#011F38"/>
        <path d="M92.8005 40.002H91.4648V41.3377H92.8005V40.002Z" fill="#011F38"/>
        <path d="M91.4653 40.002H90.1296V41.3377H91.4653V40.002Z" fill="#011F38"/>
        <path d="M90.1174 40.002H88.7817V41.3377H90.1174V40.002Z" fill="#011F38"/>
        <path d="M88.782 40.002H87.4463V41.3377H88.782V40.002Z" fill="#011F38"/>
        <path d="M87.4341 40.002H86.0984V41.3377H87.4341V40.002Z" fill="#011F38"/>
        <path d="M86.1104 40.002H84.7747V41.3377H86.1104V40.002Z" fill="#011F38"/>
        <path d="M84.7507 40.002H83.415V41.3377H84.7507V40.002Z" fill="#011F38"/>
        <path d="M83.427 40.002H82.0913V41.3377H83.427V40.002Z" fill="#011F38"/>
        <path d="M82.0911 40.002H80.7554V41.3377H82.0911V40.002Z" fill="#011F38"/>
        <path d="M80.7437 40.002H79.408V41.3377H80.7437V40.002Z" fill="#011F38"/>
        <path d="M79.408 40.002H78.0723V41.3377H79.408V40.002Z" fill="#011F38"/>
        <path d="M78.0603 40.002H76.7246V41.3377H78.0603V40.002Z" fill="#011F38"/>
        <path d="M76.7246 40.002H75.3889V41.3377H76.7246V40.002Z" fill="#011F38"/>
        <path d="M75.3892 40.002H74.0535V41.3377H75.3892V40.002Z" fill="#011F38"/>
        <path d="M74.0413 40.002H72.7056V41.3377H74.0413V40.002Z" fill="#011F38"/>
        <path d="M72.7058 40.002H71.3701V41.3377H72.7058V40.002Z" fill="#011F38"/>
        <path d="M71.3701 40.002H70.0344V41.3377H71.3701V40.002Z" fill="#011F38"/>
        <path d="M70.0227 40.002H68.687V41.3377H70.0227V40.002Z" fill="#011F38"/>
        <path d="M68.6868 40.002H67.3511V41.3377H68.6868V40.002Z" fill="#011F38"/>
        <path d="M67.3394 40.002H66.0037V41.3377H67.3394V40.002Z" fill="#011F38"/>
        <path d="M66.0034 40.002H64.6677V41.3377H66.0034V40.002Z" fill="#011F38"/>
        <path d="M64.6675 40.002H63.3318V41.3377H64.6675V40.002Z" fill="#011F38"/>
        <path d="M63.3201 40.002H61.9844V41.3377H63.3201V40.002Z" fill="#011F38"/>
        <path d="M61.9841 40.002H60.6484V41.3377H61.9841V40.002Z" fill="#011F38"/>
        <path d="M60.6484 40.002H59.3127V41.3377H60.6484V40.002Z" fill="#011F38"/>
        <path d="M59.301 40.002H57.9653V41.3377H59.301V40.002Z" fill="#011F38"/>
        <path d="M118.275 38.6663H116.939V40.002H118.275V38.6663Z" fill="#011F38"/>
        <path d="M116.927 38.6663H115.591V40.002H116.927V38.6663Z" fill="#011F38"/>
        <path d="M115.592 38.6663H114.256V40.002H115.592V38.6663Z" fill="#011F38"/>
        <path d="M114.243 38.6663H112.908V40.002H114.243V38.6663Z" fill="#011F38"/>
        <path d="M112.908 38.6663H111.573V40.002H112.908V38.6663Z" fill="#011F38"/>
        <path d="M111.572 38.6663H110.237V40.002H111.572V38.6663Z" fill="#011F38"/>
        <path d="M110.225 38.6663H108.889V40.002H110.225V38.6663Z" fill="#011F38"/>
        <path d="M108.889 38.6663H107.553V40.002H108.889V38.6663Z" fill="#011F38"/>
        <path d="M107.542 38.6663H106.206V40.002H107.542V38.6663Z" fill="#011F38"/>
        <path d="M106.206 38.6663H104.87V40.002H106.206V38.6663Z" fill="#011F38"/>
        <path d="M104.858 38.6663H103.522V40.002H104.858V38.6663Z" fill="#011F38"/>
        <path d="M103.522 38.6663H102.187V40.002H103.522V38.6663Z" fill="#011F38"/>
        <path d="M102.175 38.6663H100.839V40.002H102.175V38.6663Z" fill="#011F38"/>
        <path d="M100.851 38.6663H99.5149V40.002H100.851V38.6663Z" fill="#011F38"/>
        <path d="M99.4915 38.6663H98.1558V40.002H99.4915V38.6663Z" fill="#011F38"/>
        <path d="M98.1672 38.6663H96.8315V40.002H98.1672V38.6663Z" fill="#011F38"/>
        <path d="M96.832 38.6663H95.4963V40.002H96.832V38.6663Z" fill="#011F38"/>
        <path d="M95.4839 38.6663H94.1482V40.002H95.4839V38.6663Z" fill="#011F38"/>
        <path d="M94.1487 38.6663H92.813V40.002H94.1487V38.6663Z" fill="#011F38"/>
        <path d="M92.8005 38.6663H91.4648V40.002H92.8005V38.6663Z" fill="#011F38"/>
        <path d="M91.4653 38.6663H90.1296V40.002H91.4653V38.6663Z" fill="#011F38"/>
        <path d="M90.1174 38.6663H88.7817V40.002H90.1174V38.6663Z" fill="#011F38"/>
        <path d="M88.782 38.6663H87.4463V40.002H88.782V38.6663Z" fill="#011F38"/>
        <path d="M87.4341 38.6663H86.0984V40.002H87.4341V38.6663Z" fill="#011F38"/>
        <path d="M86.1104 38.6663H84.7747V40.002H86.1104V38.6663Z" fill="#011F38"/>
        <path d="M84.7507 38.6663H83.415V40.002H84.7507V38.6663Z" fill="#011F38"/>
        <path d="M83.427 38.6663H82.0913V40.002H83.427V38.6663Z" fill="#011F38"/>
        <path d="M82.0911 38.6663H80.7554V40.002H82.0911V38.6663Z" fill="#011F38"/>
        <path d="M80.7437 38.6663H79.408V40.002H80.7437V38.6663Z" fill="#011F38"/>
        <path d="M79.408 38.6663H78.0723V40.002H79.408V38.6663Z" fill="#011F38"/>
        <path d="M78.0603 38.6663H76.7246V40.002H78.0603V38.6663Z" fill="#011F38"/>
        <path d="M76.7246 38.6663H75.3889V40.002H76.7246V38.6663Z" fill="#011F38"/>
        <path d="M75.3892 38.6663H74.0535V40.002H75.3892V38.6663Z" fill="#011F38"/>
        <path d="M74.0413 38.6663H72.7056V40.002H74.0413V38.6663Z" fill="#011F38"/>
        <path d="M72.7058 38.6663H71.3701V40.002H72.7058V38.6663Z" fill="#011F38"/>
        <path d="M71.3701 38.6663H70.0344V40.002H71.3701V38.6663Z" fill="#011F38"/>
        <path d="M70.0227 38.6663H68.687V40.002H70.0227V38.6663Z" fill="#011F38"/>
        <path d="M68.6868 38.6663H67.3511V40.002H68.6868V38.6663Z" fill="#011F38"/>
        <path d="M67.3394 38.6663H66.0037V40.002H67.3394V38.6663Z" fill="#011F38"/>
        <path d="M66.0034 38.6663H64.6677V40.002H66.0034V38.6663Z" fill="#011F38"/>
        <path d="M64.6675 38.6663H63.3318V40.002H64.6675V38.6663Z" fill="#011F38"/>
        <path d="M63.3201 38.6663H61.9844V40.002H63.3201V38.6663Z" fill="#011F38"/>
        <path d="M61.9841 38.6663H60.6484V40.002H61.9841V38.6663Z" fill="#011F38"/>
        <path d="M60.6484 38.6663H59.3127V40.002H60.6484V38.6663Z" fill="#011F38"/>
        <path d="M59.301 38.6663H57.9653V40.002H59.301V38.6663Z" fill="#011F38"/>
        <path d="M74.0645 50.7346H63.3413V49.4104H74.0645V50.7346Z" fill="#5368F0"/>
        <path d="M114.274 50.7112H103.551V49.387H114.274V50.7112Z" fill="#5368F0"/>
        <path d="M124.965 60.0375H57.9536V60.1567H124.965V60.0375Z" fill="#0B0B0B"/>
        <path d="M124.965 58.6898H57.9536V58.8091H124.965V58.6898Z" fill="#0B0B0B"/>
        <path d="M124.965 57.3541H57.9536V57.4734H124.965V57.3541Z" fill="#0B0B0B"/>
        <path d="M124.965 56.0303H57.9536V56.1495H124.965V56.0303Z" fill="#0B0B0B"/>
        <path d="M124.965 54.6708H57.9536V54.79H124.965V54.6708Z" fill="#0B0B0B"/>
        <path d="M124.965 53.3469H57.9536V53.4662H124.965V53.3469Z" fill="#0B0B0B"/>
        <path d="M124.965 51.9994H57.9536V52.1186H124.965V51.9994Z" fill="#0B0B0B"/>
        <path d="M124.965 50.6637H57.9536V50.783H124.965V50.6637Z" fill="#0B0B0B"/>
        <path d="M124.965 49.328H57.9536V49.4473H124.965V49.328Z" fill="#0B0B0B"/>
        <path d="M124.965 47.9803H57.9536V48.0996H124.965V47.9803Z" fill="#0B0B0B"/>
        <path d="M124.965 46.6447H57.9536V46.7639H124.965V46.6447Z" fill="#0B0B0B"/>
        <path d="M124.965 45.309H57.9536V45.4282H124.965V45.309Z" fill="#0B0B0B"/>
        <path d="M124.965 43.9613H57.9536V44.0806H124.965V43.9613Z" fill="#0B0B0B"/>
        <path d="M124.965 42.6256H57.9536V42.7449H124.965V42.6256Z" fill="#0B0B0B"/>
        <path d="M124.965 41.278H57.9536V41.3972H124.965V41.278Z" fill="#0B0B0B"/>
        <path d="M124.965 39.9423H57.9536V40.0615H124.965V39.9423Z" fill="#0B0B0B"/>
        <path d="M116.998 37.3186H116.879V64.1281H116.998V37.3186Z" fill="#0B0B0B"/>
        <path d="M115.651 37.3186H115.532V64.1281H115.651V37.3186Z" fill="#0B0B0B"/>
        <path d="M114.315 37.3186H114.196V64.1281H114.315V37.3186Z" fill="#0B0B0B"/>
        <path d="M112.968 37.3186H112.848V64.1281H112.968V37.3186Z" fill="#0B0B0B"/>
        <path d="M111.632 37.3186H111.512V64.1281H111.632V37.3186Z" fill="#0B0B0B"/>
        <path d="M110.297 37.3186H110.177V64.1281H110.297V37.3186Z" fill="#0B0B0B"/>
        <path d="M108.948 37.3186H108.829V64.1281H108.948V37.3186Z" fill="#0B0B0B"/>
        <path d="M107.613 37.3186H107.494V64.1281H107.613V37.3186Z" fill="#0B0B0B"/>
        <path d="M106.277 37.3186H106.158V64.1281H106.277V37.3186Z" fill="#0B0B0B"/>
        <path d="M104.93 37.3186H104.811V64.1281H104.93V37.3186Z" fill="#0B0B0B"/>
        <path d="M103.594 37.3186H103.475V64.1281H103.594V37.3186Z" fill="#0B0B0B"/>
        <path d="M102.246 37.3186H102.127V64.1281H102.246V37.3186Z" fill="#0B0B0B"/>
        <path d="M100.911 37.3186H100.792V64.1281H100.911V37.3186Z" fill="#0B0B0B"/>
        <path d="M99.5631 37.3186H99.4438V64.1281H99.5631V37.3186Z" fill="#0B0B0B"/>
        <path d="M98.2274 37.3186H98.1082V64.1281H98.2274V37.3186Z" fill="#0B0B0B"/>
        <path d="M96.8798 37.3186H96.7605V64.1281H96.8798V37.3186Z" fill="#0B0B0B"/>
        <path d="M95.5441 37.3186H95.4248V64.1281H95.5441V37.3186Z" fill="#0B0B0B"/>
        <path d="M94.1964 37.3186H94.0771V64.1281H94.1964V37.3186Z" fill="#0B0B0B"/>
        <path d="M92.8607 37.3186H92.7415V64.1281H92.8607V37.3186Z" fill="#0B0B0B"/>
        <path d="M91.5131 37.3186H91.3938V64.1281H91.5131V37.3186Z" fill="#0B0B0B"/>
        <path d="M90.1891 37.3186H90.0698V64.1281H90.1891V37.3186Z" fill="#0B0B0B"/>
        <path d="M88.8536 37.3186H88.7344V64.1281H88.8536V37.3186Z" fill="#0B0B0B"/>
        <path d="M87.5057 37.3186H87.3865V64.1281H87.5057V37.3186Z" fill="#0B0B0B"/>
        <path d="M86.1703 37.3186H86.051V64.1281H86.1703V37.3186Z" fill="#0B0B0B"/>
        <path d="M84.8346 37.3186H84.7153V64.1281H84.8346V37.3186Z" fill="#0B0B0B"/>
        <path d="M83.4869 37.3186H83.3677V64.1281H83.4869V37.3186Z" fill="#0B0B0B"/>
        <path d="M82.1512 37.3186H82.032V64.1281H82.1512V37.3186Z" fill="#0B0B0B"/>
        <path d="M80.8038 37.3186H80.6846V64.1281H80.8038V37.3186Z" fill="#0B0B0B"/>
        <path d="M79.4679 37.3186H79.3486V64.1281H79.4679V37.3186Z" fill="#0B0B0B"/>
        <path d="M78.1205 37.3186H78.0012V64.1281H78.1205V37.3186Z" fill="#0B0B0B"/>
        <path d="M76.7845 37.3186H76.6653V64.1281H76.7845V37.3186Z" fill="#0B0B0B"/>
        <path d="M75.4371 37.3186H75.3179V64.1281H75.4371V37.3186Z" fill="#0B0B0B"/>
        <path d="M74.1129 37.3186H73.9937V64.1281H74.1129V37.3186Z" fill="#0B0B0B"/>
        <path d="M72.7538 37.3186H72.6345V64.1281H72.7538V37.3186Z" fill="#0B0B0B"/>
        <path d="M71.4296 37.3186H71.3103V64.1281H71.4296V37.3186Z" fill="#0B0B0B"/>
        <path d="M70.0944 37.3186H69.9751V64.1281H70.0944V37.3186Z" fill="#0B0B0B"/>
        <path d="M68.7462 37.3186H68.627V64.1281H68.7462V37.3186Z" fill="#0B0B0B"/>
        <path d="M67.411 37.3186H67.2917V64.1281H67.411V37.3186Z" fill="#0B0B0B"/>
        <path d="M66.0629 37.3186H65.9436V64.1281H66.0629V37.3186Z" fill="#0B0B0B"/>
        <path d="M64.7277 37.3186H64.6084V64.1281H64.7277V37.3186Z" fill="#0B0B0B"/>
        <path d="M63.3917 37.3186H63.2725V64.1281H63.3917V37.3186Z" fill="#0B0B0B"/>
        <path d="M62.0443 37.3186H61.925V64.1281H62.0443V37.3186Z" fill="#0B0B0B"/>
        <path d="M60.7084 37.3186H60.5891V64.1281H60.7084V37.3186Z" fill="#0B0B0B"/>
        <path d="M59.3727 37.3186H59.2534V64.1281H59.3727V37.3186Z" fill="#0B0B0B"/>
    </g>
    <path d="M109.438 61.5046H66.9338C62.1515 61.5046 58.2637 57.6645 58.2637 52.9537V47.5274C58.2637 42.8167 62.1515 38.9766 66.9338 38.9766H109.438C114.22 38.9766 118.108 42.8167 118.108 47.5274V52.9537C118.108 57.6645 114.22 61.5046 109.438 61.5046ZM66.9338 40.1453C62.8074 40.1453 59.4443 43.4488 59.4443 47.5155V52.9418C59.4443 57.0086 62.8074 60.312 66.9338 60.312H109.438C113.564 60.312 116.927 57.0086 116.927 52.9418V47.5155C116.927 43.4488 113.564 40.1453 109.438 40.1453H66.9338Z" fill="#0B0B0B"/>
    <path d="M53.3486 17.2705H124.097C124.373 17.2705 124.597 17.4944 124.597 17.7705V84.3574C124.597 84.4831 124.549 84.6039 124.464 84.6963L117.871 91.8389C117.776 91.9414 117.642 92 117.503 92H59.3721C59.2251 92 59.0852 91.9354 58.9902 91.8232L52.9668 84.7051C52.8904 84.6148 52.8486 84.5001 52.8486 84.3818V17.7705C52.8486 17.4944 53.0725 17.2705 53.3486 17.2705Z" stroke="#0B0B0B"/>
    <path d="M122.711 17.3667H124.5" stroke="#0B0B0B"/>
    <path d="M86.9335 12.6008L73.8025 12.6006C70.4235 12.5194 69.5077 13.5349 69.6284 17.371H86.9335" stroke="#0B0B0B"/>
    <path d="M86.9332 12.6055L104.216 12.6053C107.595 12.5241 108.51 13.5387 108.39 17.371L86.9332 17.3712" stroke="#0B0B0B"/>
    <path d="M124.403 17.562C124.404 17.2835 124.741 17.1457 124.937 17.3442L133.421 25.9858C133.88 26.4532 134.137 27.082 134.137 27.7368V72.6909C134.137 73.2973 133.916 73.8834 133.517 74.3394L124.469 84.6567C124.462 84.6638 124.458 84.6665 124.456 84.6675C124.454 84.6684 124.453 84.6691 124.451 84.6694C124.447 84.6703 124.439 84.6706 124.428 84.6665C124.417 84.6623 124.411 84.6561 124.408 84.6528C124.407 84.6514 124.406 84.6499 124.405 84.6479C124.405 84.6458 124.403 84.6406 124.403 84.6313V17.562Z" fill="#575756" stroke="#0B0B0B"/>
    <path d="M128.304 38.8215V54.8142L132.37 53.8244V39.2628L128.304 38.2729V38.8215Z" fill="#3C3C3B"/>
    <path d="M127.553 55.7683V37.3188L133.122 38.6784V54.4087L127.553 55.7683ZM129.043 39.2151V53.872L131.631 53.24V39.8471L129.043 39.2151Z" fill="#0B0B0B"/>
    <path d="M130.499 45.8817C130.237 45.8817 129.987 45.7863 129.784 45.5836C129.402 45.19 129.414 44.558 129.808 44.1763L133.421 40.6701L135.58 23.8069C135.651 23.2583 136.152 22.8886 136.689 22.9482C137.238 23.0197 137.619 23.5206 137.548 24.0573L135.294 41.6123L131.179 45.6075C130.988 45.7983 130.738 45.8817 130.487 45.8817H130.499Z" fill="#0B0B0B"/>
    <path d="M137.177 24.379C138.949 24.379 140.385 22.9427 140.385 21.171C140.385 19.3992 138.949 17.9629 137.177 17.9629C135.405 17.9629 133.969 19.3992 133.969 21.171C133.969 22.9427 135.405 24.379 137.177 24.379Z" fill="#0B0B0B"/>
    <path d="M71.4298 70.437H102.438C103.277 71.7868 103.297 72.8535 103 75C103.289 77.2628 103.044 78.2755 102.438 79.9775H71.4298C70.8021 78.1565 70.6126 77.0942 71.0001 75C70.6768 72.5192 70.8452 71.6194 71.4298 70.437Z" fill="#5D550D"/>
    <rect x="70.7373" y="70.3408" width="32.3926" height="9.73333" rx="1.5" stroke="#0B0B0B"/>
    <path d="M78.585 70.437V79.9778" stroke="#0B0B0B"/>
    <path d="M86.9336 70.437V79.9778" stroke="#0B0B0B"/>
    <path d="M94.6855 70.437V79.9778" stroke="#0B0B0B"/>
    <path d="M139 154.872C144.6 154.616 147.861 154.745 153.5 155.372" stroke="#0B0B0B"/>
    <path d="M136 125.872C141.919 125.055 144.802 124.039 149 120.872" stroke="#0B0B0B"/>
    <path d="M108.005 125V128.5" stroke="#0B0B0B" stroke-width="0.5"/>
</svg>
