<svg width="100%" height="auto" viewBox="0 0 175 125" fill="none" xmlns="http://www.w3.org/2000/svg">
<mask id="mask0_2305_10062" style="mask-type:alpha" maskUnits="userSpaceOnUse" x="0" y="0" width="175" height="125">
<rect width="175" height="125" fill="#EE0000"/>
</mask>
<g mask="url(#mask0_2305_10062)">
<path d="M73.0073 108.684L73.3331 110.313H70.2376C66.925 110.313 59.6479 111.128 54.9776 112.051C52.3165 112.54 51.9364 112.811 50.3072 115.364C48.1893 118.731 46.8859 122.152 43.9534 132.307C40.6407 143.603 39.1201 151.749 39.1201 158.157C39.1201 159.46 38.7399 162.501 38.3055 164.891C37.5452 168.91 37.2194 170.539 36.1332 175.263C35.8074 176.784 35.9703 177.056 37.871 178.25C39.7718 179.445 40.3691 179.554 46.4514 179.391C50.9589 179.282 53.2941 179.011 54.1087 178.468C55.2491 177.707 55.3577 177.762 55.6835 179.282C56.0637 181.02 57.9644 182.866 60.8426 184.278C75.2338 191.175 82.9996 193.348 90.9827 192.642C96.359 192.098 99.6717 191.067 103.962 188.46C105.971 187.265 108.795 185.853 110.207 185.419C111.565 184.93 113.194 184.224 113.791 183.79C114.389 183.409 115.638 183.084 116.615 183.084C118.896 183.084 122.535 181.4 124.761 179.282C127.314 176.893 131.169 170.213 130.518 169.344C130.192 169.018 129.649 167.118 129.323 165.162C128.671 161.795 127.911 158.809 126.282 152.944C125.847 151.423 124.761 147.187 123.838 143.44C122.915 139.693 121.557 134.914 120.851 132.796C120.091 130.678 119.222 127.582 118.896 126.008C118.57 124.378 117.701 121.066 116.995 118.676C114.226 109.39 111.402 107.761 99.1287 108.358C95.2729 108.521 91.2542 108.847 90.331 109.01C88.7561 109.281 88.5389 109.227 88.5389 108.195C88.5389 107.071 87.5056 106.749 86.8465 107.191C86.55 107.39 86.3292 107.744 86.3123 108.249C86.2037 110.041 86.421 111.073 86.9097 111.399C87.1269 111.562 87.5071 112.268 87.7243 112.92C87.9415 113.626 89.082 115.201 90.2767 116.395C91.4715 117.59 92.286 118.676 92.0688 118.893C91.6887 119.274 86.421 119.925 80.1214 120.36C77.2432 120.577 74.8537 120.414 73.1159 119.925C70.1833 119.165 69.3687 118.187 71.1066 117.644C74.4435 116.607 76.4325 109.406 74.897 107.191C78.4097 106.914 85.7947 107.302 86.8465 107.191C86.9848 107.176 87.0136 107.163 86.9097 107.151C85.7426 107.02 73.8508 107.055 73.496 107.055C72.8444 107.055 72.7357 107.435 73.0073 108.684ZM110.424 111.399C112.977 113.083 114.715 116.613 116.289 123.075C116.941 125.736 118.353 131.004 119.494 134.751C120.634 138.498 121.883 142.897 122.263 144.526C122.589 146.155 123.621 150.065 124.49 153.106C125.359 156.202 126.662 161.361 127.368 164.511L128.617 170.322L126.662 173.743C125.141 176.35 123.892 177.707 121.449 179.336C117.321 182.106 115.964 182.106 115.475 179.391C114.552 174.34 113.954 169.887 113.52 164.619C112.868 157.234 111.999 150.554 111.565 148.979C111.239 147.839 111.348 147.784 112.76 148.11C113.628 148.328 114.497 148.708 114.66 148.979C115.149 149.739 115.746 147.947 115.366 146.97C114.986 146.047 114.063 145.884 114.063 146.698C114.063 146.97 113.466 147.241 112.705 147.241C111.673 147.241 111.293 146.861 111.022 145.721C110.859 144.906 110.479 143.386 110.207 142.354C108.306 134.642 107.6 127.528 108.632 126.876C109.338 126.442 109.338 124.976 108.578 124.976C108.252 124.976 107.383 125.465 106.623 126.062C105.863 126.659 104.777 127.148 104.233 127.148C103.636 127.148 103.202 127.528 103.202 127.963C103.202 128.506 103.745 128.777 104.831 128.777C106.351 128.777 106.46 128.94 106.46 130.787C106.46 132.85 107.166 136.706 109.175 146.155C110.37 151.695 111.076 156.745 111.891 165.706C112.162 168.855 112.542 172.548 112.76 173.96C113.085 176.187 112.977 176.567 112.216 176.567C111.728 176.567 110.37 177.056 109.284 177.599C108.035 178.196 106.677 178.522 105.754 178.359C104.668 178.142 104.288 178.305 104.288 178.956C104.288 179.445 104.451 179.771 104.722 179.717C104.939 179.717 105.537 179.825 106.026 180.042C106.623 180.314 107.818 179.934 109.338 179.065C112.325 177.273 113.303 177.273 113.737 179.065C114.226 180.857 114.009 181.02 110.261 182.595C108.632 183.247 106.786 184.224 106.188 184.713C103.908 186.614 99.3459 189.057 96.359 189.926C91.5801 191.284 82.0221 190.795 76.32 188.84C69.8575 186.614 59.7022 181.835 58.4532 180.423C56.2266 177.924 55.7378 159.243 57.5843 145.069C58.1816 140.453 58.6704 135.131 58.6704 133.285C58.6704 131.438 58.9419 129.755 59.2135 129.592C59.5393 129.375 60.6254 129.755 61.6572 130.406C62.7434 131.058 63.9381 131.438 64.4269 131.275C65.4587 130.895 64.9156 129.863 63.6123 129.863C63.1235 129.863 62.0917 129.32 61.3857 128.669C60.6797 127.963 59.8108 127.42 59.485 127.42C59.2135 127.42 58.3445 127.202 57.6386 126.931C56.0094 126.333 54.6517 127.474 56.118 128.288C57.3127 128.994 57.3127 130.678 56.1723 140.562C55.4663 146.372 55.0862 148.328 54.4888 148.328C54.1087 148.328 53.5113 147.676 53.1854 146.916C52.5881 145.232 52.3165 145.395 51.6106 147.73C51.2304 149.142 51.2847 149.414 51.7735 148.925C52.1536 148.653 53.0225 148.545 53.7285 148.708L54.9776 149.033L54.6517 162.664C54.4888 170.159 54.3802 176.35 54.3259 176.35C54.163 176.947 50.4701 177.599 47.266 177.707C41.0751 177.816 40.4234 177.707 39.1744 176.675L38.034 175.752L39.3373 169.507C40.0433 166.086 40.9122 160.058 41.2923 156.202C42.0526 147.078 42.5957 143.874 44.6593 136.923C49.7641 119.328 51.339 115.635 54.2173 114.603C55.0319 114.332 56.1723 113.843 56.7697 113.571C57.367 113.3 59.8108 112.92 62.2003 112.757L66.5448 112.377L66.3819 115.092C66.1104 118.622 67.5766 120.36 71.7039 121.446C77.2975 122.912 91.5258 121.826 94.3497 119.708C96.1961 118.405 96.6306 115.038 95.3815 112.54C94.8928 111.671 94.5126 110.802 94.5126 110.639C94.5126 110.041 96.7392 109.879 102.387 109.933C107.763 110.041 108.578 110.15 110.424 111.399ZM93.3179 112.974C94.7298 115.418 94.8385 116.287 93.698 116.287C92.6119 116.287 90.7655 114.712 89.8423 112.92C88.8104 110.965 88.8647 110.856 90.6026 110.856C91.7973 110.856 92.3947 111.291 93.3179 112.974ZM73.3331 112.485C73.3331 113.897 71.9212 115.744 70.4549 116.287C68.3369 116.993 68.4455 117.047 68.4455 115.418C68.4455 113.028 69.3687 111.942 71.4324 111.942C72.4642 111.942 73.3331 112.159 73.3331 112.485Z" fill="black"/>
<path d="M110.424 111.399C112.977 113.083 114.715 116.613 116.289 123.075C116.941 125.736 118.353 131.004 119.494 134.751C120.634 138.498 121.883 142.897 122.263 144.526C122.589 146.155 123.621 150.065 124.49 153.106C125.359 156.202 126.662 161.361 127.368 164.511L128.617 170.322L126.662 173.743C125.141 176.35 123.892 177.707 121.449 179.336C117.321 182.106 115.964 182.106 115.475 179.391C114.552 174.34 113.954 169.887 113.52 164.619C112.868 157.234 111.999 150.554 111.565 148.979C111.239 147.839 111.348 147.784 112.76 148.11C113.628 148.328 114.497 148.708 114.66 148.979C115.149 149.739 115.746 147.947 115.366 146.97C114.986 146.047 114.063 145.884 114.063 146.698C114.063 146.97 113.466 147.241 112.705 147.241C111.673 147.241 111.293 146.861 111.022 145.721C110.859 144.906 110.479 143.386 110.207 142.354C108.306 134.642 107.6 127.528 108.632 126.876C109.338 126.442 109.338 124.976 108.578 124.976C108.252 124.976 107.383 125.465 106.623 126.062C105.863 126.659 104.777 127.148 104.233 127.148C103.636 127.148 103.202 127.528 103.202 127.963C103.202 128.506 103.745 128.777 104.831 128.777C106.351 128.777 106.46 128.94 106.46 130.787C106.46 132.85 107.166 136.706 109.175 146.155C110.37 151.695 111.076 156.745 111.891 165.706C112.162 168.855 112.542 172.548 112.76 173.96C113.085 176.187 112.977 176.567 112.216 176.567C111.728 176.567 110.37 177.056 109.284 177.599C108.035 178.196 106.677 178.522 105.754 178.359C104.668 178.142 104.288 178.305 104.288 178.956C104.288 179.445 104.451 179.771 104.722 179.717C104.939 179.717 105.537 179.825 106.026 180.042C106.623 180.314 107.818 179.934 109.338 179.065C112.325 177.273 113.303 177.273 113.737 179.065C114.226 180.857 114.009 181.02 110.261 182.595C108.632 183.247 106.786 184.224 106.188 184.713C103.908 186.614 99.3459 189.057 96.359 189.926C91.5801 191.284 82.0221 190.795 76.32 188.84C69.8575 186.614 59.7022 181.835 58.4532 180.423C56.2266 177.924 55.7378 159.243 57.5843 145.069C58.1816 140.453 58.6704 135.131 58.6704 133.285C58.6704 131.438 58.9419 129.755 59.2135 129.592C59.5393 129.375 60.6254 129.755 61.6572 130.406C62.7434 131.058 63.9381 131.438 64.4269 131.275C65.4587 130.895 64.9156 129.863 63.6123 129.863C63.1235 129.863 62.0917 129.32 61.3857 128.669C60.6797 127.963 59.8108 127.42 59.485 127.42C59.2135 127.42 58.3445 127.202 57.6386 126.931C56.0094 126.333 54.6517 127.474 56.118 128.288C57.3127 128.994 57.3127 130.678 56.1723 140.562C55.4663 146.372 55.0862 148.328 54.4888 148.328C54.1087 148.328 53.5113 147.676 53.1854 146.916C52.5881 145.232 52.3165 145.395 51.6106 147.73C51.2304 149.142 51.2847 149.414 51.7735 148.925C52.1536 148.653 53.0225 148.545 53.7285 148.708L54.9776 149.033L54.6517 162.664C54.4888 170.159 54.3802 176.35 54.3259 176.35C54.163 176.947 50.4701 177.599 47.266 177.707C41.0751 177.816 40.4234 177.707 39.1744 176.675L38.034 175.752L39.3373 169.507C40.0433 166.086 40.9122 160.058 41.2923 156.202C42.0526 147.078 42.5957 143.874 44.6593 136.923C49.7641 119.328 51.339 115.635 54.2173 114.603C55.0319 114.332 56.1723 113.843 56.7697 113.571C57.367 113.3 59.8108 112.92 62.2003 112.757L66.5448 112.377L66.3819 115.092C66.1104 118.622 67.5766 120.36 71.7039 121.446C77.2975 122.912 91.5258 121.826 94.3497 119.708C96.1961 118.405 96.6306 115.038 95.3815 112.54C94.8928 111.671 94.5126 110.802 94.5126 110.639C94.5126 110.041 96.7392 109.879 102.387 109.933C107.763 110.041 108.578 110.15 110.424 111.399Z" fill="#E42024"/>
<path d="M73.3331 112.485C73.3331 113.897 71.9212 115.744 70.4549 116.287C68.3369 116.993 68.4455 117.047 68.4455 115.418C68.4455 113.028 69.3687 111.942 71.4324 111.942C72.4642 111.942 73.3331 112.159 73.3331 112.485Z" fill="#AE1C1E"/>
<path d="M93.3179 112.974C94.7298 115.418 94.8385 116.287 93.698 116.287C92.6119 116.287 90.7655 114.712 89.8423 112.92C88.8104 110.965 88.8647 110.856 90.6026 110.856C91.7973 110.856 92.3947 111.291 93.3179 112.974Z" fill="#AE1C1E"/>
<path d="M86.8465 107.191C86.55 107.39 86.3292 107.744 86.3123 108.249C86.2037 110.041 86.421 111.073 86.9097 111.399C87.1269 111.562 87.5071 112.268 87.7243 112.92C87.9415 113.626 89.082 115.201 90.2767 116.395C91.4715 117.59 92.286 118.676 92.0688 118.893C91.6887 119.274 86.421 119.925 80.1214 120.36C77.2432 120.577 74.8537 120.414 73.1159 119.925C70.1833 119.165 69.3687 118.187 71.1066 117.644C74.4435 116.607 76.4325 109.406 74.897 107.191C78.4097 106.914 85.7947 107.302 86.8465 107.191Z" fill="#878787"/>
<path d="M48.9502 43.8V101.63L54.2402 107.26H104.16L109.45 101.63V43.8H48.9502Z" fill="#878787"/>
<path d="M118.27 53.92V91.7501L109.45 101.52V43.8L118.27 53.92Z" fill="#575756"/>
<path d="M90.0003 89.1399H65.7803C65.112 89.1399 64.5703 89.6816 64.5703 90.3499V96.1999C64.5703 96.8682 65.112 97.4099 65.7803 97.4099H90.0003C90.6686 97.4099 91.2103 96.8682 91.2103 96.1999V90.3499C91.2103 89.6816 90.6686 89.1399 90.0003 89.1399Z" fill="#F4E347"/>
<path d="M90.1202 98.2299H65.6702C64.6102 98.2299 63.7402 97.3599 63.7402 96.2999V90.2499C63.7402 89.1899 64.6002 88.3199 65.6702 88.3199H90.1202C91.1802 88.3199 92.0502 89.1899 92.0502 90.2499V96.2999C92.0502 97.3599 91.1802 98.2299 90.1202 98.2299ZM65.6702 89.9899C65.5302 89.9899 65.4102 90.1099 65.4102 90.2499V96.2999C65.4102 96.4399 65.5302 96.5599 65.6702 96.5599H90.1202C90.2602 96.5599 90.3802 96.4399 90.3802 96.2999V90.2499C90.3802 90.1099 90.2602 89.9899 90.1202 89.9899H65.6702Z" fill="#1D1D1B"/>
<path d="M72.0601 89.4399H70.3901V97.1199H72.0601V89.4399Z" fill="#1D1D1B"/>
<path d="M78.7203 89.4399H77.0503V97.1199H78.7203V89.4399Z" fill="#1D1D1B"/>
<path d="M85.3805 89.4399H83.7104V97.1199H85.3805V89.4399Z" fill="#1D1D1B"/>
<path d="M112.69 62.49V75.9L116.1 75.07V62.86L112.69 62.03V62.49Z" fill="#3C3C3B"/>
<path d="M112.06 76.7V61.23L116.73 62.37V75.56L112.06 76.7ZM113.31 62.82V75.11L115.48 74.58V63.35L113.31 62.82Z" fill="#1D1D1B"/>
<path d="M48.3401 65.58L43.1201 59.83V46.55H44.7901V59.18L49.5701 64.4601L48.3401 65.58Z" fill="#1D1D1B"/>
<path d="M114.53 68.41C114.31 68.41 114.1 68.33 113.93 68.16C113.61 67.83 113.62 67.3 113.95 66.98L116.98 64.04L118.79 49.9C118.85 49.44 119.27 49.13 119.72 49.18C120.18 49.24 120.5 49.66 120.44 50.11L118.55 64.83L115.1 68.18C114.94 68.34 114.73 68.41 114.52 68.41H114.53Z" fill="#1D1D1B"/>
<path d="M44.05 46.85C45.7345 46.85 47.1 45.4845 47.1 43.8C47.1 42.1155 45.7345 40.75 44.05 40.75C42.3655 40.75 41 42.1155 41 43.8C41 45.4845 42.3655 46.85 44.05 46.85Z" fill="#1D1D1B"/>
<path d="M120.13 50.38C121.616 50.38 122.82 49.1756 122.82 47.69C122.82 46.2044 121.616 45 120.13 45C118.644 45 117.44 46.2044 117.44 47.69C117.44 49.1756 118.644 50.38 120.13 50.38Z" fill="#1D1D1B"/>
<path d="M65.1704 38.8199H93.9005C94.9805 38.8199 95.8605 39.6999 95.8605 40.7799V43.7999H63.2104V40.7799C63.2104 39.6999 64.0904 38.8199 65.1704 38.8199Z" fill="#9D9D9C"/>
<path d="M96.7004 44.64H62.3804V42.1C62.3804 39.84 64.2204 38 66.4804 38H92.6004C94.8604 38 96.7004 39.84 96.7004 42.1V44.64ZM64.0504 42.97H95.0404V42.09C95.0404 40.75 93.9504 39.65 92.6004 39.65H66.4804C65.1404 39.65 64.0404 40.74 64.0404 42.09V42.97H64.0504Z" fill="#1D1D1B"/>
<path d="M88.2502 48.22H70.8302C70.3442 48.22 69.9502 48.614 69.9502 49.1C69.9502 49.586 70.3442 49.98 70.8302 49.98H88.2502C88.7362 49.98 89.1302 49.586 89.1302 49.1C89.1302 48.614 88.7362 48.22 88.2502 48.22Z" fill="#575756"/>
<path d="M88.2502 50.48H70.8302C70.0702 50.48 69.4502 49.86 69.4502 49.1C69.4502 48.34 70.0702 47.72 70.8302 47.72H88.2502C89.0102 47.72 89.6302 48.34 89.6302 49.1C89.6302 49.86 89.0102 50.48 88.2502 50.48ZM70.8202 48.71C70.6102 48.71 70.4402 48.88 70.4402 49.09C70.4402 49.3 70.6102 49.47 70.8202 49.47H88.2402C88.4502 49.47 88.6202 49.3 88.6202 49.09C88.6202 48.88 88.4502 48.71 88.2402 48.71H70.8202Z" fill="#1D1D1B"/>
<path d="M88.2502 51.55H70.8302C70.3442 51.55 69.9502 51.944 69.9502 52.43C69.9502 52.9161 70.3442 53.31 70.8302 53.31H88.2502C88.7362 53.31 89.1302 52.9161 89.1302 52.43C89.1302 51.944 88.7362 51.55 88.2502 51.55Z" fill="#575756"/>
<path d="M88.2502 53.8H70.8302C70.0702 53.8 69.4502 53.18 69.4502 52.42C69.4502 51.66 70.0702 51.04 70.8302 51.04H88.2502C89.0102 51.04 89.6302 51.66 89.6302 52.42C89.6302 53.18 89.0102 53.8 88.2502 53.8ZM70.8202 52.05C70.6102 52.05 70.4402 52.22 70.4402 52.43C70.4402 52.64 70.6102 52.81 70.8202 52.81H88.2402C88.4502 52.81 88.6202 52.64 88.6202 52.43C88.6202 52.22 88.4502 52.05 88.2402 52.05H70.8202Z" fill="#1D1D1B"/>
<path d="M88.2502 54.88H70.8302C70.3442 54.88 69.9502 55.274 69.9502 55.76C69.9502 56.246 70.3442 56.64 70.8302 56.64H88.2502C88.7362 56.64 89.1302 56.246 89.1302 55.76C89.1302 55.274 88.7362 54.88 88.2502 54.88Z" fill="#575756"/>
<path d="M88.2502 57.13H70.8302C70.0702 57.13 69.4502 56.51 69.4502 55.75C69.4502 54.99 70.0702 54.37 70.8302 54.37H88.2502C89.0102 54.37 89.6302 54.99 89.6302 55.75C89.6302 56.51 89.0102 57.13 88.2502 57.13ZM70.8202 55.38C70.6102 55.38 70.4402 55.55 70.4402 55.76C70.4402 55.97 70.6102 56.14 70.8202 56.14H88.2402C88.4502 56.14 88.6202 55.97 88.6202 55.76C88.6202 55.55 88.4502 55.38 88.2402 55.38H70.8202Z" fill="#1D1D1B"/>
<path d="M52.2505 101.28C53.0569 101.28 53.7105 100.626 53.7105 99.8201C53.7105 99.0138 53.0569 98.3601 52.2505 98.3601C51.4442 98.3601 50.7905 99.0138 50.7905 99.8201C50.7905 100.626 51.4442 101.28 52.2505 101.28Z" fill="#575756"/>
<path d="M52.2504 101.46C51.3404 101.46 50.6104 100.72 50.6104 99.8201C50.6104 98.9201 51.3504 98.1801 52.2504 98.1801C53.1504 98.1801 53.8904 98.9201 53.8904 99.8201C53.8904 100.72 53.1504 101.46 52.2504 101.46ZM52.2504 98.5401C51.5404 98.5401 50.9704 99.1101 50.9704 99.8201C50.9704 100.53 51.5404 101.1 52.2504 101.1C52.9604 101.1 53.5304 100.53 53.5304 99.8201C53.5304 99.1101 52.9604 98.5401 52.2504 98.5401Z" fill="#1D1D1B"/>
<path d="M51.8195 99.1438L51.5649 99.3983L52.661 100.494L52.9155 100.24L51.8195 99.1438Z" fill="#1D1D1B"/>
<path d="M52.661 99.1366L51.5649 100.233L51.8195 100.487L52.9155 99.3912L52.661 99.1366Z" fill="#1D1D1B"/>
<path d="M105.44 101.28C106.247 101.28 106.9 100.626 106.9 99.8201C106.9 99.0138 106.247 98.3601 105.44 98.3601C104.634 98.3601 103.98 99.0138 103.98 99.8201C103.98 100.626 104.634 101.28 105.44 101.28Z" fill="#575756"/>
<path d="M103.8 99.8201C103.8 98.9101 104.54 98.1801 105.44 98.1801C106.34 98.1801 107.08 98.9201 107.08 99.8201C107.08 100.72 106.34 101.46 105.44 101.46C104.54 101.46 103.8 100.72 103.8 99.8201ZM104.16 99.8201C104.16 100.53 104.73 101.1 105.44 101.1C106.15 101.1 106.72 100.53 106.72 99.8201C106.72 99.1101 106.15 98.5401 105.44 98.5401C104.73 98.5401 104.16 99.1101 104.16 99.8201Z" fill="#1D1D1B"/>
<path d="M105.852 99.1357L104.756 100.232L105.01 100.486L106.106 99.3902L105.852 99.1357Z" fill="#1D1D1B"/>
<path d="M105.01 99.1428L104.756 99.3973L105.852 100.493L106.106 100.239L105.01 99.1428Z" fill="#1D1D1B"/>
<path d="M105.2 49.68C106.007 49.68 106.66 49.0263 106.66 48.22C106.66 47.4137 106.007 46.76 105.2 46.76C104.394 46.76 103.74 47.4137 103.74 48.22C103.74 49.0263 104.394 49.68 105.2 49.68Z" fill="#575756"/>
<path d="M105.2 49.86C104.29 49.86 103.56 49.12 103.56 48.22C103.56 47.32 104.3 46.58 105.2 46.58C106.1 46.58 106.84 47.32 106.84 48.22C106.84 49.12 106.1 49.86 105.2 49.86ZM105.2 46.94C104.49 46.94 103.92 47.51 103.92 48.22C103.92 48.93 104.49 49.5 105.2 49.5C105.91 49.5 106.48 48.93 106.48 48.22C106.48 47.51 105.91 46.94 105.2 46.94Z" fill="#1D1D1B"/>
<path d="M104.767 47.5286L104.512 47.7832L105.608 48.8792L105.863 48.6247L104.767 47.5286Z" fill="#1D1D1B"/>
<path d="M105.616 47.5386L104.52 48.6346L104.774 48.8892L105.87 47.7932L105.616 47.5386Z" fill="#1D1D1B"/>
<path d="M53.5704 49.68C54.3767 49.68 55.0304 49.0263 55.0304 48.22C55.0304 47.4137 54.3767 46.76 53.5704 46.76C52.764 46.76 52.1104 47.4137 52.1104 48.22C52.1104 49.0263 52.764 49.68 53.5704 49.68Z" fill="#575756"/>
<path d="M53.5702 49.86C52.6602 49.86 51.9302 49.12 51.9302 48.22C51.9302 47.32 52.6702 46.58 53.5702 46.58C54.4702 46.58 55.2102 47.32 55.2102 48.22C55.2102 49.12 54.4702 49.86 53.5702 49.86ZM53.5702 46.94C52.8602 46.94 52.2902 47.51 52.2902 48.22C52.2902 48.93 52.8602 49.5 53.5702 49.5C54.2802 49.5 54.8502 48.93 54.8502 48.22C54.8502 47.51 54.2802 46.94 53.5702 46.94Z" fill="#1D1D1B"/>
<path d="M53.1462 47.5294L52.8916 47.7839L53.9876 48.88L54.2422 48.6254L53.1462 47.5294Z" fill="#1D1D1B"/>
<path d="M53.9876 47.5224L52.8916 48.6184L53.1462 48.873L54.2422 47.777L53.9876 47.5224Z" fill="#1D1D1B"/>
<path d="M118.67 52.56L110.68 43.7C110.34 43.32 109.89 43.14 109.32 42.96C108.76 42.78 108.31 42.8 107.71 42.8H50.6502C49.1502 42.8 47.9302 44.02 47.9302 45.52V100.96C47.9302 101.64 48.1902 102.3 48.6502 102.8L52.8802 107.39C53.3902 107.95 54.1202 108.27 54.8802 108.27H103.4C104.15 108.27 104.87 107.96 105.38 107.41L109.7 102.81C109.91 102.59 110.1 102.43 110.29 102.16C110.45 101.99 110.55 101.88 110.7 101.73L118.69 92.78C118.9 92.54 119.02 92.24 119.02 91.92V53.43C119.02 53.11 118.9 52.8 118.69 52.56H118.68H118.67ZM108.44 100.95C108.44 101.13 108.37 101.31 108.25 101.44L103.93 106.04C103.79 106.18 103.6 106.27 103.41 106.27H54.8802C54.6802 106.27 54.4902 106.19 54.3502 106.04L50.1202 101.45C50.0002 101.32 49.9302 101.15 49.9302 100.96V45.52C49.9302 45.12 50.2502 44.8 50.6502 44.8H107.72C108.12 44.8 108.44 45.12 108.44 45.52V100.95ZM117 91.64L110.42 99.01V46.4L117 53.69V91.63V91.64Z" fill="#1D1D1B"/>
<mask id="mask1_2305_10062" style="mask-type:luminance" maskUnits="userSpaceOnUse" x="54" y="62" width="50" height="20">
<path d="M96.7802 62.8199H61.0302C57.2802 62.8199 54.2402 65.8599 54.2402 69.6099V74.2499C54.2402 78 57.2802 81.0399 61.0302 81.0399H96.7802C100.53 81.0399 103.57 78 103.57 74.2499V69.6099C103.57 65.8599 100.53 62.8199 96.7802 62.8199Z" fill="white"/>
</mask>
<g mask="url(#mask1_2305_10062)">
<path d="M103.11 61.23H60.5005C56.7504 61.23 53.7104 64.27 53.7104 68.02V76.91C53.7104 80.66 56.7504 83.7 60.5005 83.7H103.11C106.86 83.7 109.9 80.66 109.9 76.91V68.02C109.9 64.27 106.86 61.23 103.11 61.23Z" fill="#013A1C"/>
<path d="M104.281 80.34H103.161V81.46H104.281V80.34Z" fill="#013A1C"/>
<path d="M103.15 80.34H102.03V81.46H103.15V80.34Z" fill="#013A1C"/>
<path d="M102.031 80.34H100.911V81.46H102.031V80.34Z" fill="#013A1C"/>
<path d="M100.9 80.34H99.7803V81.46H100.9V80.34Z" fill="#013A1C"/>
<path d="M99.7806 80.34H98.6606V81.46H99.7806V80.34Z" fill="#013A1C"/>
<path d="M98.6605 80.34H97.5405V81.46H98.6605V80.34Z" fill="#013A1C"/>
<path d="M97.5306 80.34H96.4106V81.46H97.5306V80.34Z" fill="#013A1C"/>
<path d="M96.4105 80.34H95.2905V81.46H96.4105V80.34Z" fill="#013A1C"/>
<path d="M95.2806 80.34H94.1606V81.46H95.2806V80.34Z" fill="#013A1C"/>
<path d="M94.1605 80.34H93.0405V81.46H94.1605V80.34Z" fill="#013A1C"/>
<path d="M93.0306 80.34H91.9106V81.46H93.0306V80.34Z" fill="#013A1C"/>
<path d="M91.9105 80.34H90.7905V81.46H91.9105V80.34Z" fill="#013A1C"/>
<path d="M90.7806 80.34H89.6606V81.46H90.7806V80.34Z" fill="#013A1C"/>
<path d="M89.6703 80.34H88.5503V81.46H89.6703V80.34Z" fill="#013A1C"/>
<path d="M88.5306 80.34H87.4106V81.46H88.5306V80.34Z" fill="#013A1C"/>
<path d="M87.4203 80.34H86.3003V81.46H87.4203V80.34Z" fill="#013A1C"/>
<path d="M86.3007 80.34H85.1807V81.46H86.3007V80.34Z" fill="#013A1C"/>
<path d="M85.1703 80.34H84.0503V81.46H85.1703V80.34Z" fill="#013A1C"/>
<path d="M84.0507 80.34H82.9307V81.46H84.0507V80.34Z" fill="#013A1C"/>
<path d="M82.9203 80.34H81.8003V81.46H82.9203V80.34Z" fill="#013A1C"/>
<path d="M81.8007 80.34H80.6807V81.46H81.8007V80.34Z" fill="#013A1C"/>
<path d="M80.6703 80.34H79.5503V81.46H80.6703V80.34Z" fill="#013A1C"/>
<path d="M79.5507 80.34H78.4307V81.46H79.5507V80.34Z" fill="#013A1C"/>
<path d="M78.4203 80.34H77.3003V81.46H78.4203V80.34Z" fill="#013A1C"/>
<path d="M77.3104 80.34H76.1904V81.46H77.3104V80.34Z" fill="#013A1C"/>
<path d="M76.1703 80.34H75.0503V81.46H76.1703V80.34Z" fill="#013A1C"/>
<path d="M75.0604 80.34H73.9404V81.46H75.0604V80.34Z" fill="#013A1C"/>
<path d="M73.9403 80.34H72.8203V81.46H73.9403V80.34Z" fill="#013A1C"/>
<path d="M72.8104 80.34H71.6904V81.46H72.8104V80.34Z" fill="#013A1C"/>
<path d="M71.6903 80.34H70.5703V81.46H71.6903V80.34Z" fill="#013A1C"/>
<path d="M70.5604 80.34H69.4404V81.46H70.5604V80.34Z" fill="#013A1C"/>
<path d="M69.4403 80.34H68.3203V81.46H69.4403V80.34Z" fill="#013A1C"/>
<path d="M68.3207 80.34H67.2007V81.46H68.3207V80.34Z" fill="#013A1C"/>
<path d="M67.1903 80.34H66.0703V81.46H67.1903V80.34Z" fill="#013A1C"/>
<path d="M66.0707 80.34H64.9507V81.46H66.0707V80.34Z" fill="#013A1C"/>
<path d="M64.9506 80.34H63.8306V81.46H64.9506V80.34Z" fill="#013A1C"/>
<path d="M63.8207 80.34H62.7007V81.46H63.8207V80.34Z" fill="#013A1C"/>
<path d="M62.7006 80.34H61.5806V81.46H62.7006V80.34Z" fill="#013A1C"/>
<path d="M61.5707 80.34H60.4507V81.46H61.5707V80.34Z" fill="#013A1C"/>
<path d="M60.4506 80.34H59.3306V81.46H60.4506V80.34Z" fill="#013A1C"/>
<path d="M59.3305 80.34H58.2104V81.46H59.3305V80.34Z" fill="#013A1C"/>
<path d="M58.2006 80.34H57.0806V81.46H58.2006V80.34Z" fill="#013A1C"/>
<path d="M57.0805 80.34H55.9604V81.46H57.0805V80.34Z" fill="#013A1C"/>
<path d="M55.9603 80.34H54.8403V81.46H55.9603V80.34Z" fill="#013A1C"/>
<path d="M54.8305 80.34H53.7104V81.46H54.8305V80.34Z" fill="#013A1C"/>
<path d="M104.281 79.21H103.161V80.33H104.281V79.21Z" fill="#013A1C"/>
<path d="M103.15 79.21H102.03V80.33H103.15V79.21Z" fill="#013A1C"/>
<path d="M102.031 79.21H100.911V80.33H102.031V79.21Z" fill="#013A1C"/>
<path d="M100.9 79.21H99.7803V80.33H100.9V79.21Z" fill="#013A1C"/>
<path d="M99.7806 79.21H98.6606V80.33H99.7806V79.21Z" fill="#013A1C"/>
<path d="M98.6605 79.21H97.5405V80.33H98.6605V79.21Z" fill="#013A1C"/>
<path d="M97.5306 79.21H96.4106V80.33H97.5306V79.21Z" fill="#013A1C"/>
<path d="M96.4105 79.21H95.2905V80.33H96.4105V79.21Z" fill="#013A1C"/>
<path d="M95.2806 79.21H94.1606V80.33H95.2806V79.21Z" fill="#013A1C"/>
<path d="M94.1605 79.21H93.0405V80.33H94.1605V79.21Z" fill="#013A1C"/>
<path d="M93.0306 79.21H91.9106V80.33H93.0306V79.21Z" fill="#013A1C"/>
<path d="M91.9105 79.21H90.7905V80.33H91.9105V79.21Z" fill="#013A1C"/>
<path d="M90.7806 79.21H89.6606V80.33H90.7806V79.21Z" fill="#013A1C"/>
<path d="M89.6703 79.21H88.5503V80.33H89.6703V79.21Z" fill="#013A1C"/>
<path d="M88.5306 79.21H87.4106V80.33H88.5306V79.21Z" fill="#013A1C"/>
<path d="M87.4203 79.21H86.3003V80.33H87.4203V79.21Z" fill="#013A1C"/>
<path d="M86.3007 79.21H85.1807V80.33H86.3007V79.21Z" fill="#013A1C"/>
<path d="M85.1703 79.21H84.0503V80.33H85.1703V79.21Z" fill="#013A1C"/>
<path d="M84.0507 79.21H82.9307V80.33H84.0507V79.21Z" fill="#013A1C"/>
<path d="M82.9203 79.21H81.8003V80.33H82.9203V79.21Z" fill="#013A1C"/>
<path d="M81.8007 79.21H80.6807V80.33H81.8007V79.21Z" fill="#013A1C"/>
<path d="M80.6703 79.21H79.5503V80.33H80.6703V79.21Z" fill="#013A1C"/>
<path d="M79.5507 79.21H78.4307V80.33H79.5507V79.21Z" fill="#013A1C"/>
<path d="M78.4203 79.21H77.3003V80.33H78.4203V79.21Z" fill="#013A1C"/>
<path d="M77.3104 79.21H76.1904V80.33H77.3104V79.21Z" fill="#013A1C"/>
<path d="M76.1703 79.21H75.0503V80.33H76.1703V79.21Z" fill="#013A1C"/>
<path d="M75.0604 79.21H73.9404V80.33H75.0604V79.21Z" fill="#013A1C"/>
<path d="M73.9403 79.21H72.8203V80.33H73.9403V79.21Z" fill="#013A1C"/>
<path d="M72.8104 79.21H71.6904V80.33H72.8104V79.21Z" fill="#013A1C"/>
<path d="M71.6903 79.21H70.5703V80.33H71.6903V79.21Z" fill="#013A1C"/>
<path d="M70.5604 79.21H69.4404V80.33H70.5604V79.21Z" fill="#013A1C"/>
<path d="M69.4403 79.21H68.3203V80.33H69.4403V79.21Z" fill="#013A1C"/>
<path d="M68.3207 79.21H67.2007V80.33H68.3207V79.21Z" fill="#013A1C"/>
<path d="M67.1903 79.21H66.0703V80.33H67.1903V79.21Z" fill="#013A1C"/>
<path d="M66.0707 79.21H64.9507V80.33H66.0707V79.21Z" fill="#013A1C"/>
<path d="M64.9506 79.21H63.8306V80.33H64.9506V79.21Z" fill="#013A1C"/>
<path d="M63.8207 79.21H62.7007V80.33H63.8207V79.21Z" fill="#013A1C"/>
<path d="M62.7006 79.21H61.5806V80.33H62.7006V79.21Z" fill="#013A1C"/>
<path d="M61.5707 79.21H60.4507V80.33H61.5707V79.21Z" fill="#013A1C"/>
<path d="M60.4506 79.21H59.3306V80.33H60.4506V79.21Z" fill="#013A1C"/>
<path d="M59.3305 79.21H58.2104V80.33H59.3305V79.21Z" fill="#013A1C"/>
<path d="M58.2006 79.21H57.0806V80.33H58.2006V79.21Z" fill="#013A1C"/>
<path d="M57.0805 79.21H55.9604V80.33H57.0805V79.21Z" fill="#013A1C"/>
<path d="M55.9603 79.21H54.8403V80.33H55.9603V79.21Z" fill="#013A1C"/>
<path d="M54.8305 79.21H53.7104V80.33H54.8305V79.21Z" fill="#013A1C"/>
<path d="M104.261 78.09H103.141V79.21H104.261V78.09Z" fill="#013A1C"/>
<path d="M103.15 78.09H102.03V79.21H103.15V78.09Z" fill="#013A1C"/>
<path d="M102.011 78.09H100.891V79.21H102.011V78.09Z" fill="#013A1C"/>
<path d="M100.9 78.09H99.7803V79.21H100.9V78.09Z" fill="#013A1C"/>
<path d="M99.7806 78.09H98.6606V79.21H99.7806V78.09Z" fill="#013A1C"/>
<path d="M98.6605 78.09H97.5405V79.21H98.6605V78.09Z" fill="#013A1C"/>
<path d="M97.5306 78.09H96.4106V79.21H97.5306V78.09Z" fill="#013A1C"/>
<path d="M96.4105 78.09H95.2905V79.21H96.4105V78.09Z" fill="#013A1C"/>
<path d="M95.2806 78.09H94.1606V79.21H95.2806V78.09Z" fill="#013A1C"/>
<path d="M94.1605 78.09H93.0405V79.21H94.1605V78.09Z" fill="#013A1C"/>
<path d="M93.0306 78.09H91.9106V79.21H93.0306V78.09Z" fill="#013A1C"/>
<path d="M91.9105 78.09H90.7905V79.21H91.9105V78.09Z" fill="#013A1C"/>
<path d="M90.7806 78.09H89.6606V79.21H90.7806V78.09Z" fill="#013A1C"/>
<path d="M89.6703 78.09H88.5503V79.21H89.6703V78.09Z" fill="#013A1C"/>
<path d="M88.5306 78.09H87.4106V79.21H88.5306V78.09Z" fill="#013A1C"/>
<path d="M87.4203 78.09H86.3003V79.21H87.4203V78.09Z" fill="#013A1C"/>
<path d="M86.3007 78.09H85.1807V79.21H86.3007V78.09Z" fill="#013A1C"/>
<path d="M85.1703 78.09H84.0503V79.21H85.1703V78.09Z" fill="#013A1C"/>
<path d="M84.0507 78.09H82.9307V79.21H84.0507V78.09Z" fill="#013A1C"/>
<path d="M82.9203 78.09H81.8003V79.21H82.9203V78.09Z" fill="#013A1C"/>
<path d="M81.8007 78.09H80.6807V79.21H81.8007V78.09Z" fill="#013A1C"/>
<path d="M80.6703 78.09H79.5503V79.21H80.6703V78.09Z" fill="#013A1C"/>
<path d="M79.5507 78.09H78.4307V79.21H79.5507V78.09Z" fill="#013A1C"/>
<path d="M78.4203 78.09H77.3003V79.21H78.4203V78.09Z" fill="#013A1C"/>
<path d="M77.3104 78.09H76.1904V79.21H77.3104V78.09Z" fill="#013A1C"/>
<path d="M76.1703 78.09H75.0503V79.21H76.1703V78.09Z" fill="#013A1C"/>
<path d="M75.0604 78.09H73.9404V79.21H75.0604V78.09Z" fill="#013A1C"/>
<path d="M73.9403 78.09H72.8203V79.21H73.9403V78.09Z" fill="#013A1C"/>
<path d="M72.8104 78.09H71.6904V79.21H72.8104V78.09Z" fill="#013A1C"/>
<path d="M71.6903 78.09H70.5703V79.21H71.6903V78.09Z" fill="#013A1C"/>
<path d="M70.5604 78.09H69.4404V79.21H70.5604V78.09Z" fill="#013A1C"/>
<path d="M69.4403 78.09H68.3203V79.21H69.4403V78.09Z" fill="#013A1C"/>
<path d="M68.3207 78.09H67.2007V79.21H68.3207V78.09Z" fill="#013A1C"/>
<path d="M67.1903 78.09H66.0703V79.21H67.1903V78.09Z" fill="#013A1C"/>
<path d="M66.0707 78.09H64.9507V79.21H66.0707V78.09Z" fill="#013A1C"/>
<path d="M64.9506 78.09H63.8306V79.21H64.9506V78.09Z" fill="#013A1C"/>
<path d="M63.8207 78.09H62.7007V79.21H63.8207V78.09Z" fill="#013A1C"/>
<path d="M62.7006 78.09H61.5806V79.21H62.7006V78.09Z" fill="#013A1C"/>
<path d="M61.5707 78.09H60.4507V79.21H61.5707V78.09Z" fill="#013A1C"/>
<path d="M60.4506 78.09H59.3306V79.21H60.4506V78.09Z" fill="#013A1C"/>
<path d="M59.3305 78.09H58.2104V79.21H59.3305V78.09Z" fill="#013A1C"/>
<path d="M58.2006 78.09H57.0806V79.21H58.2006V78.09Z" fill="#013A1C"/>
<path d="M57.0805 78.09H55.9604V79.21H57.0805V78.09Z" fill="#013A1C"/>
<path d="M55.9603 78.09H54.8403V79.21H55.9603V78.09Z" fill="#013A1C"/>
<path d="M54.8305 78.09H53.7104V79.21H54.8305V78.09Z" fill="#013A1C"/>
<path d="M99.7806 76.97H98.6606V78.09H99.7806V76.97Z" fill="#013A1C"/>
<path d="M98.6605 76.97H97.5405V78.09H98.6605V76.97Z" fill="#013A1C"/>
<path d="M97.5306 76.97H96.4106V78.09H97.5306V76.97Z" fill="#013A1C"/>
<path d="M96.4105 76.97H95.2905V78.09H96.4105V76.97Z" fill="#013A1C"/>
<path d="M95.2806 76.97H94.1606V78.09H95.2806V76.97Z" fill="#013A1C"/>
<path d="M94.1605 76.97H93.0405V78.09H94.1605V76.97Z" fill="#013A1C"/>
<path d="M93.0306 76.97H91.9106V78.09H93.0306V76.97Z" fill="#013A1C"/>
<path d="M91.9105 76.97H90.7905V78.09H91.9105V76.97Z" fill="#013A1C"/>
<path d="M90.7806 76.97H89.6606V78.09H90.7806V76.97Z" fill="#013A1C"/>
<path d="M89.6703 76.97H88.5503V78.09H89.6703V76.97Z" fill="#013A1C"/>
<path d="M88.5306 76.97H87.4106V78.09H88.5306V76.97Z" fill="#013A1C"/>
<path d="M87.4203 76.97H86.3003V78.09H87.4203V76.97Z" fill="#013A1C"/>
<path d="M86.3007 76.97H85.1807V78.09H86.3007V76.97Z" fill="#013A1C"/>
<path d="M85.1703 76.97H84.0503V78.09H85.1703V76.97Z" fill="#013A1C"/>
<path d="M84.0507 76.97H82.9307V78.09H84.0507V76.97Z" fill="#013A1C"/>
<path d="M82.9203 76.97H81.8003V78.09H82.9203V76.97Z" fill="#013A1C"/>
<path d="M81.8007 76.97H80.6807V78.09H81.8007V76.97Z" fill="#013A1C"/>
<path d="M80.6703 76.97H79.5503V78.09H80.6703V76.97Z" fill="#013A1C"/>
<path d="M79.5507 76.97H78.4307V78.09H79.5507V76.97Z" fill="#013A1C"/>
<path d="M78.4203 76.97H77.3003V78.09H78.4203V76.97Z" fill="#013A1C"/>
<path d="M77.3104 76.97H76.1904V78.09H77.3104V76.97Z" fill="#013A1C"/>
<path d="M76.1703 76.97H75.0503V78.09H76.1703V76.97Z" fill="#013A1C"/>
<path d="M75.0604 76.97H73.9404V78.09H75.0604V76.97Z" fill="#013A1C"/>
<path d="M73.9403 76.97H72.8203V78.09H73.9403V76.97Z" fill="#013A1C"/>
<path d="M72.8104 76.97H71.6904V78.09H72.8104V76.97Z" fill="#013A1C"/>
<path d="M71.6903 76.97H70.5703V78.09H71.6903V76.97Z" fill="#013A1C"/>
<path d="M70.5604 76.97H69.4404V78.09H70.5604V76.97Z" fill="#013A1C"/>
<path d="M69.4403 76.97H68.3203V78.09H69.4403V76.97Z" fill="#013A1C"/>
<path d="M68.3207 76.97H67.2007V78.09H68.3207V76.97Z" fill="#013A1C"/>
<path d="M67.1903 76.97H66.0703V78.09H67.1903V76.97Z" fill="#013A1C"/>
<path d="M66.0707 76.97H64.9507V78.09H66.0707V76.97Z" fill="#013A1C"/>
<path d="M64.9403 76.97H63.8203V78.09H64.9403V76.97Z" fill="#013A1C"/>
<path d="M59.3207 76.97H58.2007V78.09H59.3207V76.97Z" fill="#013A1C"/>
<path d="M58.2006 76.97H57.0806V78.09H58.2006V76.97Z" fill="#013A1C"/>
<path d="M57.0805 76.97H55.9604V78.09H57.0805V76.97Z" fill="#013A1C"/>
<path d="M55.9603 76.97H54.8403V78.09H55.9603V76.97Z" fill="#013A1C"/>
<path d="M54.8305 76.97H53.7104V78.09H54.8305V76.97Z" fill="#013A1C"/>
<path d="M98.6503 75.84H97.5303V76.96H98.6503V75.84Z" fill="#013A1C"/>
<path d="M97.5306 75.84H96.4106V76.96H97.5306V75.84Z" fill="#013A1C"/>
<path d="M96.4105 75.84H95.2905V76.96H96.4105V75.84Z" fill="#013A1C"/>
<path d="M95.2806 75.84H94.1606V76.96H95.2806V75.84Z" fill="#013A1C"/>
<path d="M94.1605 75.84H93.0405V76.96H94.1605V75.84Z" fill="#013A1C"/>
<path d="M93.0306 75.84H91.9106V76.96H93.0306V75.84Z" fill="#013A1C"/>
<path d="M91.9105 75.84H90.7905V76.96H91.9105V75.84Z" fill="#013A1C"/>
<path d="M90.7806 75.84H89.6606V76.96H90.7806V75.84Z" fill="#013A1C"/>
<path d="M89.6703 75.84H88.5503V76.96H89.6703V75.84Z" fill="#013A1C"/>
<path d="M88.5306 75.84H87.4106V76.96H88.5306V75.84Z" fill="#013A1C"/>
<path d="M87.4203 75.84H86.3003V76.96H87.4203V75.84Z" fill="#013A1C"/>
<path d="M86.3007 75.84H85.1807V76.96H86.3007V75.84Z" fill="#013A1C"/>
<path d="M85.1703 75.84H84.0503V76.96H85.1703V75.84Z" fill="#013A1C"/>
<path d="M84.0507 75.84H82.9307V76.96H84.0507V75.84Z" fill="#013A1C"/>
<path d="M82.9203 75.84H81.8003V76.96H82.9203V75.84Z" fill="#013A1C"/>
<path d="M81.8007 75.84H80.6807V76.96H81.8007V75.84Z" fill="#013A1C"/>
<path d="M80.6703 75.84H79.5503V76.96H80.6703V75.84Z" fill="#013A1C"/>
<path d="M79.5507 75.84H78.4307V76.96H79.5507V75.84Z" fill="#013A1C"/>
<path d="M78.4203 75.84H77.3003V76.96H78.4203V75.84Z" fill="#013A1C"/>
<path d="M77.3104 75.84H76.1904V76.96H77.3104V75.84Z" fill="#013A1C"/>
<path d="M76.1703 75.84H75.0503V76.96H76.1703V75.84Z" fill="#013A1C"/>
<path d="M75.0604 75.84H73.9404V76.96H75.0604V75.84Z" fill="#013A1C"/>
<path d="M73.9403 75.84H72.8203V76.96H73.9403V75.84Z" fill="#013A1C"/>
<path d="M72.8104 75.84H71.6904V76.96H72.8104V75.84Z" fill="#013A1C"/>
<path d="M71.6903 75.84H70.5703V76.96H71.6903V75.84Z" fill="#013A1C"/>
<path d="M70.5604 75.84H69.4404V76.96H70.5604V75.84Z" fill="#013A1C"/>
<path d="M69.4403 75.84H68.3203V76.96H69.4403V75.84Z" fill="#013A1C"/>
<path d="M68.3207 75.84H67.2007V76.96H68.3207V75.84Z" fill="#013A1C"/>
<path d="M67.1903 75.84H66.0703V76.96H67.1903V75.84Z" fill="#013A1C"/>
<path d="M66.0707 75.84H64.9507V76.96H66.0707V75.84Z" fill="#013A1C"/>
<path d="M58.2006 75.84H57.0806V76.96H58.2006V75.84Z" fill="#013A1C"/>
<path d="M57.0805 75.84H55.9604V76.96H57.0805V75.84Z" fill="#013A1C"/>
<path d="M55.9603 75.84H54.8403V76.96H55.9603V75.84Z" fill="#013A1C"/>
<path d="M54.8305 75.84H53.7104V76.96H54.8305V75.84Z" fill="#013A1C"/>
<path d="M97.5306 74.72H96.4106V75.84H97.5306V74.72Z" fill="#013A1C"/>
<path d="M96.4105 74.72H95.2905V75.84H96.4105V74.72Z" fill="#013A1C"/>
<path d="M95.2806 74.72H94.1606V75.84H95.2806V74.72Z" fill="#013A1C"/>
<path d="M94.1605 74.72H93.0405V75.84H94.1605V74.72Z" fill="#013A1C"/>
<path d="M93.0306 74.72H91.9106V75.84H93.0306V74.72Z" fill="#013A1C"/>
<path d="M91.9105 74.72H90.7905V75.84H91.9105V74.72Z" fill="#013A1C"/>
<path d="M90.7806 74.72H89.6606V75.84H90.7806V74.72Z" fill="#013A1C"/>
<path d="M89.6703 74.72H88.5503V75.84H89.6703V74.72Z" fill="#013A1C"/>
<path d="M88.5306 74.72H87.4106V75.84H88.5306V74.72Z" fill="#013A1C"/>
<path d="M87.4203 74.72H86.3003V75.84H87.4203V74.72Z" fill="#013A1C"/>
<path d="M86.3007 74.72H85.1807V75.84H86.3007V74.72Z" fill="#013A1C"/>
<path d="M85.1703 74.72H84.0503V75.84H85.1703V74.72Z" fill="#013A1C"/>
<path d="M84.0507 74.72H82.9307V75.84H84.0507V74.72Z" fill="#013A1C"/>
<path d="M82.9203 74.72H81.8003V75.84H82.9203V74.72Z" fill="#013A1C"/>
<path d="M81.8007 74.72H80.6807V75.84H81.8007V74.72Z" fill="#013A1C"/>
<path d="M80.6703 74.72H79.5503V75.84H80.6703V74.72Z" fill="#013A1C"/>
<path d="M79.5507 74.72H78.4307V75.84H79.5507V74.72Z" fill="#013A1C"/>
<path d="M78.4203 74.72H77.3003V75.84H78.4203V74.72Z" fill="#013A1C"/>
<path d="M77.3104 74.72H76.1904V75.84H77.3104V74.72Z" fill="#013A1C"/>
<path d="M76.1703 74.72H75.0503V75.84H76.1703V74.72Z" fill="#013A1C"/>
<path d="M75.0604 74.72H73.9404V75.84H75.0604V74.72Z" fill="#013A1C"/>
<path d="M73.9403 74.72H72.8203V75.84H73.9403V74.72Z" fill="#013A1C"/>
<path d="M72.8104 74.72H71.6904V75.84H72.8104V74.72Z" fill="#013A1C"/>
<path d="M71.6903 74.72H70.5703V75.84H71.6903V74.72Z" fill="#013A1C"/>
<path d="M70.5604 74.72H69.4404V75.84H70.5604V74.72Z" fill="#013A1C"/>
<path d="M69.4403 74.72H68.3203V75.84H69.4403V74.72Z" fill="#013A1C"/>
<path d="M68.3207 74.72H67.2007V75.84H68.3207V74.72Z" fill="#013A1C"/>
<path d="M67.1903 74.72H66.0703V75.84H67.1903V74.72Z" fill="#013A1C"/>
<path d="M57.0805 74.72H55.9604V75.84H57.0805V74.72Z" fill="#013A1C"/>
<path d="M55.9603 74.72H54.8403V75.84H55.9603V74.72Z" fill="#013A1C"/>
<path d="M54.8305 74.72H53.7104V75.84H54.8305V74.72Z" fill="#013A1C"/>
<path d="M96.4105 73.6H95.2905V74.72H96.4105V73.6Z" fill="#013A1C"/>
<path d="M95.2806 73.59H94.1606V74.71H95.2806V73.59Z" fill="#013A1C"/>
<path d="M94.1605 73.59H93.0405V74.71H94.1605V73.59Z" fill="#013A1C"/>
<path d="M93.0306 73.59H91.9106V74.71H93.0306V73.59Z" fill="#013A1C"/>
<path d="M91.9105 73.59H90.7905V74.71H91.9105V73.59Z" fill="#013A1C"/>
<path d="M90.7806 73.59H89.6606V74.71H90.7806V73.59Z" fill="#013A1C"/>
<path d="M89.6703 73.59H88.5503V74.71H89.6703V73.59Z" fill="#013A1C"/>
<path d="M88.5306 73.59H87.4106V74.71H88.5306V73.59Z" fill="#013A1C"/>
<path d="M87.4203 73.59H86.3003V74.71H87.4203V73.59Z" fill="#013A1C"/>
<path d="M86.3007 73.59H85.1807V74.71H86.3007V73.59Z" fill="#013A1C"/>
<path d="M85.1703 73.59H84.0503V74.71H85.1703V73.59Z" fill="#013A1C"/>
<path d="M84.0507 73.59H82.9307V74.71H84.0507V73.59Z" fill="#013A1C"/>
<path d="M82.9203 73.59H81.8003V74.71H82.9203V73.59Z" fill="#013A1C"/>
<path d="M81.8007 73.59H80.6807V74.71H81.8007V73.59Z" fill="#013A1C"/>
<path d="M80.6703 73.59H79.5503V74.71H80.6703V73.59Z" fill="#013A1C"/>
<path d="M79.5507 73.59H78.4307V74.71H79.5507V73.59Z" fill="#013A1C"/>
<path d="M78.4203 73.59H77.3003V74.71H78.4203V73.59Z" fill="#013A1C"/>
<path d="M77.3104 73.59H76.1904V74.71H77.3104V73.59Z" fill="#013A1C"/>
<path d="M76.1703 73.59H75.0503V74.71H76.1703V73.59Z" fill="#013A1C"/>
<path d="M75.0604 73.59H73.9404V74.71H75.0604V73.59Z" fill="#013A1C"/>
<path d="M73.9403 73.59H72.8203V74.71H73.9403V73.59Z" fill="#013A1C"/>
<path d="M72.8104 73.59H71.6904V74.71H72.8104V73.59Z" fill="#013A1C"/>
<path d="M71.6903 73.59H70.5703V74.71H71.6903V73.59Z" fill="#013A1C"/>
<path d="M70.5604 73.59H69.4404V74.71H70.5604V73.59Z" fill="#013A1C"/>
<path d="M69.4403 73.59H68.3203V74.71H69.4403V73.59Z" fill="#013A1C"/>
<path d="M68.3104 73.6H67.1904V74.72H68.3104V73.6Z" fill="#013A1C"/>
<path d="M55.9506 73.6H54.8306V74.72H55.9506V73.6Z" fill="#013A1C"/>
<path d="M54.8305 73.59H53.7104V74.71H54.8305V73.59Z" fill="#013A1C"/>
<path d="M96.4105 72.47H95.2905V73.59H96.4105V72.47Z" fill="#013A1C"/>
<path d="M95.2806 72.47H94.1606V73.59H95.2806V72.47Z" fill="#013A1C"/>
<path d="M94.1605 72.47H93.0405V73.59H94.1605V72.47Z" fill="#013A1C"/>
<path d="M93.0306 72.47H91.9106V73.59H93.0306V72.47Z" fill="#013A1C"/>
<path d="M91.9105 72.47H90.7905V73.59H91.9105V72.47Z" fill="#013A1C"/>
<path d="M90.7806 72.47H89.6606V73.59H90.7806V72.47Z" fill="#013A1C"/>
<path d="M89.6703 72.47H88.5503V73.59H89.6703V72.47Z" fill="#013A1C"/>
<path d="M88.5306 72.47H87.4106V73.59H88.5306V72.47Z" fill="#013A1C"/>
<path d="M87.4203 72.47H86.3003V73.59H87.4203V72.47Z" fill="#013A1C"/>
<path d="M86.3007 72.47H85.1807V73.59H86.3007V72.47Z" fill="#013A1C"/>
<path d="M85.1703 72.47H84.0503V73.59H85.1703V72.47Z" fill="#013A1C"/>
<path d="M84.0507 72.47H82.9307V73.59H84.0507V72.47Z" fill="#013A1C"/>
<path d="M82.9203 72.47H81.8003V73.59H82.9203V72.47Z" fill="#013A1C"/>
<path d="M81.8007 72.47H80.6807V73.59H81.8007V72.47Z" fill="#013A1C"/>
<path d="M80.6703 72.47H79.5503V73.59H80.6703V72.47Z" fill="#013A1C"/>
<path d="M79.5507 72.47H78.4307V73.59H79.5507V72.47Z" fill="#013A1C"/>
<path d="M78.4203 72.47H77.3003V73.59H78.4203V72.47Z" fill="#013A1C"/>
<path d="M77.3104 72.47H76.1904V73.59H77.3104V72.47Z" fill="#013A1C"/>
<path d="M76.1703 72.47H75.0503V73.59H76.1703V72.47Z" fill="#013A1C"/>
<path d="M75.0604 72.47H73.9404V73.59H75.0604V72.47Z" fill="#013A1C"/>
<path d="M73.9403 72.47H72.8203V73.59H73.9403V72.47Z" fill="#013A1C"/>
<path d="M72.8104 72.47H71.6904V73.59H72.8104V72.47Z" fill="#013A1C"/>
<path d="M71.6903 72.47H70.5703V73.59H71.6903V72.47Z" fill="#013A1C"/>
<path d="M70.5604 72.47H69.4404V73.59H70.5604V72.47Z" fill="#013A1C"/>
<path d="M69.4403 72.47H68.3203V73.59H69.4403V72.47Z" fill="#013A1C"/>
<path d="M68.3104 72.47H67.1904V73.59H68.3104V72.47Z" fill="#013A1C"/>
<path d="M55.9506 72.47H54.8306V73.59H55.9506V72.47Z" fill="#013A1C"/>
<path d="M54.8305 72.47H53.7104V73.59H54.8305V72.47Z" fill="#013A1C"/>
<path d="M96.4105 71.35H95.2905V72.47H96.4105V71.35Z" fill="#013A1C"/>
<path d="M95.2806 71.35H94.1606V72.47H95.2806V71.35Z" fill="#013A1C"/>
<path d="M94.1605 71.35H93.0405V72.47H94.1605V71.35Z" fill="#013A1C"/>
<path d="M93.0306 71.35H91.9106V72.47H93.0306V71.35Z" fill="#013A1C"/>
<path d="M91.9105 71.35H90.7905V72.47H91.9105V71.35Z" fill="#013A1C"/>
<path d="M90.7806 71.35H89.6606V72.47H90.7806V71.35Z" fill="#013A1C"/>
<path d="M89.6703 71.35H88.5503V72.47H89.6703V71.35Z" fill="#013A1C"/>
<path d="M88.5306 71.35H87.4106V72.47H88.5306V71.35Z" fill="#013A1C"/>
<path d="M87.4203 71.35H86.3003V72.47H87.4203V71.35Z" fill="#013A1C"/>
<path d="M86.3007 71.35H85.1807V72.47H86.3007V71.35Z" fill="#013A1C"/>
<path d="M85.1703 71.35H84.0503V72.47H85.1703V71.35Z" fill="#013A1C"/>
<path d="M84.0507 71.35H82.9307V72.47H84.0507V71.35Z" fill="#013A1C"/>
<path d="M82.9203 71.35H81.8003V72.47H82.9203V71.35Z" fill="#013A1C"/>
<path d="M81.8007 71.35H80.6807V72.47H81.8007V71.35Z" fill="#013A1C"/>
<path d="M80.6703 71.35H79.5503V72.47H80.6703V71.35Z" fill="#013A1C"/>
<path d="M79.5507 71.35H78.4307V72.47H79.5507V71.35Z" fill="#013A1C"/>
<path d="M78.4203 71.35H77.3003V72.47H78.4203V71.35Z" fill="#013A1C"/>
<path d="M77.3104 71.35H76.1904V72.47H77.3104V71.35Z" fill="#013A1C"/>
<path d="M76.1703 71.35H75.0503V72.47H76.1703V71.35Z" fill="#013A1C"/>
<path d="M75.0604 71.35H73.9404V72.47H75.0604V71.35Z" fill="#013A1C"/>
<path d="M73.9403 71.35H72.8203V72.47H73.9403V71.35Z" fill="#013A1C"/>
<path d="M72.8104 71.35H71.6904V72.47H72.8104V71.35Z" fill="#013A1C"/>
<path d="M71.6903 71.35H70.5703V72.47H71.6903V71.35Z" fill="#013A1C"/>
<path d="M70.5604 71.35H69.4404V72.47H70.5604V71.35Z" fill="#013A1C"/>
<path d="M69.4403 71.35H68.3203V72.47H69.4403V71.35Z" fill="#013A1C"/>
<path d="M68.3104 71.35H67.1904V72.47H68.3104V71.35Z" fill="#013A1C"/>
<path d="M55.9506 71.35H54.8306V72.47H55.9506V71.35Z" fill="#013A1C"/>
<path d="M54.8305 71.35H53.7104V72.47H54.8305V71.35Z" fill="#013A1C"/>
<path d="M96.4105 70.23H95.2905V71.35H96.4105V70.23Z" fill="#013A1C"/>
<path d="M95.2806 70.22H94.1606V71.34H95.2806V70.22Z" fill="#013A1C"/>
<path d="M94.1605 70.22H93.0405V71.34H94.1605V70.22Z" fill="#013A1C"/>
<path d="M93.0306 70.22H91.9106V71.34H93.0306V70.22Z" fill="#013A1C"/>
<path d="M91.9105 70.22H90.7905V71.34H91.9105V70.22Z" fill="#013A1C"/>
<path d="M90.7806 70.22H89.6606V71.34H90.7806V70.22Z" fill="#013A1C"/>
<path d="M89.6703 70.22H88.5503V71.34H89.6703V70.22Z" fill="#013A1C"/>
<path d="M88.5306 70.22H87.4106V71.34H88.5306V70.22Z" fill="#013A1C"/>
<path d="M87.4203 70.22H86.3003V71.34H87.4203V70.22Z" fill="#013A1C"/>
<path d="M86.3007 70.22H85.1807V71.34H86.3007V70.22Z" fill="#013A1C"/>
<path d="M85.1703 70.22H84.0503V71.34H85.1703V70.22Z" fill="#013A1C"/>
<path d="M84.0507 70.22H82.9307V71.34H84.0507V70.22Z" fill="#013A1C"/>
<path d="M82.9203 70.22H81.8003V71.34H82.9203V70.22Z" fill="#013A1C"/>
<path d="M81.8007 70.22H80.6807V71.34H81.8007V70.22Z" fill="#013A1C"/>
<path d="M80.6703 70.22H79.5503V71.34H80.6703V70.22Z" fill="#013A1C"/>
<path d="M79.5507 70.22H78.4307V71.34H79.5507V70.22Z" fill="#013A1C"/>
<path d="M78.4203 70.22H77.3003V71.34H78.4203V70.22Z" fill="#013A1C"/>
<path d="M77.3104 70.22H76.1904V71.34H77.3104V70.22Z" fill="#013A1C"/>
<path d="M76.1703 70.22H75.0503V71.34H76.1703V70.22Z" fill="#013A1C"/>
<path d="M75.0604 70.22H73.9404V71.34H75.0604V70.22Z" fill="#013A1C"/>
<path d="M73.9403 70.22H72.8203V71.34H73.9403V70.22Z" fill="#013A1C"/>
<path d="M72.8104 70.22H71.6904V71.34H72.8104V70.22Z" fill="#013A1C"/>
<path d="M71.6903 70.22H70.5703V71.34H71.6903V70.22Z" fill="#013A1C"/>
<path d="M70.5604 70.22H69.4404V71.34H70.5604V70.22Z" fill="#013A1C"/>
<path d="M69.4403 70.22H68.3203V71.34H69.4403V70.22Z" fill="#013A1C"/>
<path d="M68.3104 70.23H67.1904V71.35H68.3104V70.23Z" fill="#013A1C"/>
<path d="M55.9506 70.23H54.8306V71.35H55.9506V70.23Z" fill="#013A1C"/>
<path d="M54.8305 70.22H53.7104V71.34H54.8305V70.22Z" fill="#013A1C"/>
<path d="M97.5306 69.1H96.4106V70.22H97.5306V69.1Z" fill="#013A1C"/>
<path d="M96.4105 69.1H95.2905V70.22H96.4105V69.1Z" fill="#013A1C"/>
<path d="M95.2806 69.1H94.1606V70.22H95.2806V69.1Z" fill="#013A1C"/>
<path d="M94.1605 69.1H93.0405V70.22H94.1605V69.1Z" fill="#013A1C"/>
<path d="M93.0306 69.1H91.9106V70.22H93.0306V69.1Z" fill="#013A1C"/>
<path d="M91.9105 69.1H90.7905V70.22H91.9105V69.1Z" fill="#013A1C"/>
<path d="M90.7806 69.1H89.6606V70.22H90.7806V69.1Z" fill="#013A1C"/>
<path d="M89.6703 69.1H88.5503V70.22H89.6703V69.1Z" fill="#013A1C"/>
<path d="M88.5306 69.1H87.4106V70.22H88.5306V69.1Z" fill="#013A1C"/>
<path d="M87.4203 69.1H86.3003V70.22H87.4203V69.1Z" fill="#013A1C"/>
<path d="M86.3007 69.1H85.1807V70.22H86.3007V69.1Z" fill="#013A1C"/>
<path d="M85.1703 69.1H84.0503V70.22H85.1703V69.1Z" fill="#013A1C"/>
<path d="M84.0507 69.1H82.9307V70.22H84.0507V69.1Z" fill="#013A1C"/>
<path d="M82.9203 69.1H81.8003V70.22H82.9203V69.1Z" fill="#013A1C"/>
<path d="M81.8007 69.1H80.6807V70.22H81.8007V69.1Z" fill="#013A1C"/>
<path d="M80.6703 69.1H79.5503V70.22H80.6703V69.1Z" fill="#013A1C"/>
<path d="M79.5507 69.1H78.4307V70.22H79.5507V69.1Z" fill="#013A1C"/>
<path d="M78.4203 69.1H77.3003V70.22H78.4203V69.1Z" fill="#013A1C"/>
<path d="M77.3104 69.1H76.1904V70.22H77.3104V69.1Z" fill="#013A1C"/>
<path d="M76.1703 69.1H75.0503V70.22H76.1703V69.1Z" fill="#013A1C"/>
<path d="M75.0604 69.1H73.9404V70.22H75.0604V69.1Z" fill="#013A1C"/>
<path d="M73.9403 69.1H72.8203V70.22H73.9403V69.1Z" fill="#013A1C"/>
<path d="M72.8104 69.1H71.6904V70.22H72.8104V69.1Z" fill="#013A1C"/>
<path d="M71.6903 69.1H70.5703V70.22H71.6903V69.1Z" fill="#013A1C"/>
<path d="M70.5604 69.1H69.4404V70.22H70.5604V69.1Z" fill="#013A1C"/>
<path d="M69.4403 69.1H68.3203V70.22H69.4403V69.1Z" fill="#013A1C"/>
<path d="M68.3207 69.1H67.2007V70.22H68.3207V69.1Z" fill="#013A1C"/>
<path d="M67.1903 69.1H66.0703V70.22H67.1903V69.1Z" fill="#013A1C"/>
<path d="M57.0805 69.1H55.9604V70.22H57.0805V69.1Z" fill="#013A1C"/>
<path d="M55.9603 69.1H54.8403V70.22H55.9603V69.1Z" fill="#013A1C"/>
<path d="M54.8305 69.1H53.7104V70.22H54.8305V69.1Z" fill="#013A1C"/>
<path d="M98.6503 67.98H97.5303V69.1H98.6503V67.98Z" fill="#013A1C"/>
<path d="M97.5306 67.98H96.4106V69.1H97.5306V67.98Z" fill="#013A1C"/>
<path d="M96.4105 67.98H95.2905V69.1H96.4105V67.98Z" fill="#013A1C"/>
<path d="M95.2806 67.98H94.1606V69.1H95.2806V67.98Z" fill="#013A1C"/>
<path d="M94.1605 67.98H93.0405V69.1H94.1605V67.98Z" fill="#013A1C"/>
<path d="M93.0306 67.98H91.9106V69.1H93.0306V67.98Z" fill="#013A1C"/>
<path d="M91.9105 67.98H90.7905V69.1H91.9105V67.98Z" fill="#013A1C"/>
<path d="M90.7806 67.98H89.6606V69.1H90.7806V67.98Z" fill="#013A1C"/>
<path d="M89.6703 67.98H88.5503V69.1H89.6703V67.98Z" fill="#013A1C"/>
<path d="M88.5306 67.98H87.4106V69.1H88.5306V67.98Z" fill="#013A1C"/>
<path d="M87.4203 67.98H86.3003V69.1H87.4203V67.98Z" fill="#013A1C"/>
<path d="M86.3007 67.98H85.1807V69.1H86.3007V67.98Z" fill="#013A1C"/>
<path d="M85.1703 67.98H84.0503V69.1H85.1703V67.98Z" fill="#013A1C"/>
<path d="M84.0507 67.98H82.9307V69.1H84.0507V67.98Z" fill="#013A1C"/>
<path d="M82.9203 67.98H81.8003V69.1H82.9203V67.98Z" fill="#013A1C"/>
<path d="M81.8007 67.98H80.6807V69.1H81.8007V67.98Z" fill="#013A1C"/>
<path d="M80.6703 67.98H79.5503V69.1H80.6703V67.98Z" fill="#013A1C"/>
<path d="M79.5507 67.98H78.4307V69.1H79.5507V67.98Z" fill="#013A1C"/>
<path d="M78.4203 67.98H77.3003V69.1H78.4203V67.98Z" fill="#013A1C"/>
<path d="M77.3104 67.98H76.1904V69.1H77.3104V67.98Z" fill="#013A1C"/>
<path d="M76.1703 67.98H75.0503V69.1H76.1703V67.98Z" fill="#013A1C"/>
<path d="M75.0604 67.98H73.9404V69.1H75.0604V67.98Z" fill="#013A1C"/>
<path d="M73.9403 67.98H72.8203V69.1H73.9403V67.98Z" fill="#013A1C"/>
<path d="M72.8104 67.98H71.6904V69.1H72.8104V67.98Z" fill="#013A1C"/>
<path d="M71.6903 67.98H70.5703V69.1H71.6903V67.98Z" fill="#013A1C"/>
<path d="M70.5604 67.98H69.4404V69.1H70.5604V67.98Z" fill="#013A1C"/>
<path d="M69.4403 67.98H68.3203V69.1H69.4403V67.98Z" fill="#013A1C"/>
<path d="M68.3207 67.98H67.2007V69.1H68.3207V67.98Z" fill="#013A1C"/>
<path d="M67.1903 67.98H66.0703V69.1H67.1903V67.98Z" fill="#013A1C"/>
<path d="M66.0707 67.98H64.9507V69.1H66.0707V67.98Z" fill="#013A1C"/>
<path d="M58.2006 67.98H57.0806V69.1H58.2006V67.98Z" fill="#013A1C"/>
<path d="M57.0805 67.98H55.9604V69.1H57.0805V67.98Z" fill="#013A1C"/>
<path d="M55.9603 67.98H54.8403V69.1H55.9603V67.98Z" fill="#013A1C"/>
<path d="M54.8305 67.98H53.7104V69.1H54.8305V67.98Z" fill="#013A1C"/>
<path d="M99.7806 66.85H98.6606V67.97H99.7806V66.85Z" fill="#013A1C"/>
<path d="M98.6605 66.85H97.5405V67.97H98.6605V66.85Z" fill="#013A1C"/>
<path d="M97.5306 66.85H96.4106V67.97H97.5306V66.85Z" fill="#013A1C"/>
<path d="M96.4105 66.85H95.2905V67.97H96.4105V66.85Z" fill="#013A1C"/>
<path d="M95.2806 66.85H94.1606V67.97H95.2806V66.85Z" fill="#013A1C"/>
<path d="M94.1605 66.85H93.0405V67.97H94.1605V66.85Z" fill="#013A1C"/>
<path d="M93.0306 66.85H91.9106V67.97H93.0306V66.85Z" fill="#013A1C"/>
<path d="M91.9105 66.85H90.7905V67.97H91.9105V66.85Z" fill="#013A1C"/>
<path d="M90.7806 66.85H89.6606V67.97H90.7806V66.85Z" fill="#013A1C"/>
<path d="M89.6703 66.85H88.5503V67.97H89.6703V66.85Z" fill="#013A1C"/>
<path d="M88.5306 66.85H87.4106V67.97H88.5306V66.85Z" fill="#013A1C"/>
<path d="M87.4203 66.85H86.3003V67.97H87.4203V66.85Z" fill="#013A1C"/>
<path d="M86.3007 66.85H85.1807V67.97H86.3007V66.85Z" fill="#013A1C"/>
<path d="M85.1703 66.85H84.0503V67.97H85.1703V66.85Z" fill="#013A1C"/>
<path d="M84.0507 66.85H82.9307V67.97H84.0507V66.85Z" fill="#013A1C"/>
<path d="M82.9203 66.85H81.8003V67.97H82.9203V66.85Z" fill="#013A1C"/>
<path d="M81.8007 66.85H80.6807V67.97H81.8007V66.85Z" fill="#013A1C"/>
<path d="M80.6703 66.85H79.5503V67.97H80.6703V66.85Z" fill="#013A1C"/>
<path d="M79.5507 66.85H78.4307V67.97H79.5507V66.85Z" fill="#013A1C"/>
<path d="M78.4203 66.85H77.3003V67.97H78.4203V66.85Z" fill="#013A1C"/>
<path d="M77.3104 66.85H76.1904V67.97H77.3104V66.85Z" fill="#013A1C"/>
<path d="M76.1703 66.85H75.0503V67.97H76.1703V66.85Z" fill="#013A1C"/>
<path d="M75.0604 66.85H73.9404V67.97H75.0604V66.85Z" fill="#013A1C"/>
<path d="M73.9403 66.85H72.8203V67.97H73.9403V66.85Z" fill="#013A1C"/>
<path d="M72.8104 66.85H71.6904V67.97H72.8104V66.85Z" fill="#013A1C"/>
<path d="M71.6903 66.85H70.5703V67.97H71.6903V66.85Z" fill="#013A1C"/>
<path d="M70.5604 66.85H69.4404V67.97H70.5604V66.85Z" fill="#013A1C"/>
<path d="M69.4403 66.85H68.3203V67.97H69.4403V66.85Z" fill="#013A1C"/>
<path d="M68.3207 66.85H67.2007V67.97H68.3207V66.85Z" fill="#013A1C"/>
<path d="M67.1903 66.85H66.0703V67.97H67.1903V66.85Z" fill="#013A1C"/>
<path d="M66.0707 66.85H64.9507V67.97H66.0707V66.85Z" fill="#013A1C"/>
<path d="M64.9403 66.85H63.8203V67.97H64.9403V66.85Z" fill="#013A1C"/>
<path d="M59.3207 66.85H58.2007V67.97H59.3207V66.85Z" fill="#013A1C"/>
<path d="M58.2006 66.85H57.0806V67.97H58.2006V66.85Z" fill="#013A1C"/>
<path d="M57.0805 66.85H55.9604V67.97H57.0805V66.85Z" fill="#013A1C"/>
<path d="M55.9603 66.85H54.8403V67.97H55.9603V66.85Z" fill="#013A1C"/>
<path d="M54.8305 66.85H53.7104V67.97H54.8305V66.85Z" fill="#013A1C"/>
<path d="M59.3605 71.36H58.2104V72.51H59.3605V71.36Z" fill="#3AAA35"/>
<path d="M60.4903 71.35H59.3403V72.5H60.4903V71.35Z" fill="#3AAA35"/>
<path d="M61.6007 71.35H60.4507V72.5H61.6007V71.35Z" fill="#3AAA35"/>
<path d="M62.7403 71.35H61.5903V72.5H62.7403V71.35Z" fill="#3AAA35"/>
<path d="M63.8404 71.35H62.6904V72.5H63.8404V71.35Z" fill="#3AAA35"/>
<path d="M64.9806 71.35H63.8306V72.5H64.9806V71.35Z" fill="#3AAA35"/>
<path d="M66.0704 71.35H64.9204V72.5H66.0704V71.35Z" fill="#3AAA35"/>
<path d="M67.1905 71.36H66.0405V72.51H67.1905V71.36Z" fill="#3AAA35"/>
<path d="M91.9405 71.36H90.7905V72.51H91.9405V71.36Z" fill="#3AAA35"/>
<path d="M93.0807 71.35H91.9307V72.5H93.0807V71.35Z" fill="#3AAA35"/>
<path d="M94.1808 71.35H93.0308V72.5H94.1808V71.35Z" fill="#3AAA35"/>
<path d="M95.3106 71.35H94.1606V72.5H95.3106V71.35Z" fill="#3AAA35"/>
<path d="M96.4005 71.35H95.2505V72.5H96.4005V71.35Z" fill="#3AAA35"/>
<path d="M97.5606 71.35H96.4106V72.5H97.5606V71.35Z" fill="#3AAA35"/>
<path d="M98.6505 71.35H97.5005V72.5H98.6505V71.35Z" fill="#3AAA35"/>
<path d="M99.7706 71.36H98.6206V72.51H99.7706V71.36Z" fill="#3AAA35"/>
<path d="M104.261 65.73H103.141V66.85H104.261V65.73Z" fill="#013A1C"/>
<path d="M103.15 65.73H102.03V66.85H103.15V65.73Z" fill="#013A1C"/>
<path d="M102.011 65.73H100.891V66.85H102.011V65.73Z" fill="#013A1C"/>
<path d="M100.9 65.73H99.7803V66.85H100.9V65.73Z" fill="#013A1C"/>
<path d="M99.7806 65.73H98.6606V66.85H99.7806V65.73Z" fill="#013A1C"/>
<path d="M98.6605 65.73H97.5405V66.85H98.6605V65.73Z" fill="#013A1C"/>
<path d="M97.5306 65.73H96.4106V66.85H97.5306V65.73Z" fill="#013A1C"/>
<path d="M96.4105 65.73H95.2905V66.85H96.4105V65.73Z" fill="#013A1C"/>
<path d="M95.2806 65.73H94.1606V66.85H95.2806V65.73Z" fill="#013A1C"/>
<path d="M94.1605 65.73H93.0405V66.85H94.1605V65.73Z" fill="#013A1C"/>
<path d="M93.0306 65.73H91.9106V66.85H93.0306V65.73Z" fill="#013A1C"/>
<path d="M91.9105 65.73H90.7905V66.85H91.9105V65.73Z" fill="#013A1C"/>
<path d="M90.7806 65.73H89.6606V66.85H90.7806V65.73Z" fill="#013A1C"/>
<path d="M89.6703 65.73H88.5503V66.85H89.6703V65.73Z" fill="#013A1C"/>
<path d="M88.5306 65.73H87.4106V66.85H88.5306V65.73Z" fill="#013A1C"/>
<path d="M87.4203 65.73H86.3003V66.85H87.4203V65.73Z" fill="#013A1C"/>
<path d="M86.3007 65.73H85.1807V66.85H86.3007V65.73Z" fill="#013A1C"/>
<path d="M85.1703 65.73H84.0503V66.85H85.1703V65.73Z" fill="#013A1C"/>
<path d="M84.0507 65.73H82.9307V66.85H84.0507V65.73Z" fill="#013A1C"/>
<path d="M82.9203 65.73H81.8003V66.85H82.9203V65.73Z" fill="#013A1C"/>
<path d="M81.8007 65.73H80.6807V66.85H81.8007V65.73Z" fill="#013A1C"/>
<path d="M80.6703 65.73H79.5503V66.85H80.6703V65.73Z" fill="#013A1C"/>
<path d="M79.5507 65.73H78.4307V66.85H79.5507V65.73Z" fill="#013A1C"/>
<path d="M78.4203 65.73H77.3003V66.85H78.4203V65.73Z" fill="#013A1C"/>
<path d="M77.3104 65.73H76.1904V66.85H77.3104V65.73Z" fill="#013A1C"/>
<path d="M76.1703 65.73H75.0503V66.85H76.1703V65.73Z" fill="#013A1C"/>
<path d="M75.0604 65.73H73.9404V66.85H75.0604V65.73Z" fill="#013A1C"/>
<path d="M73.9403 65.73H72.8203V66.85H73.9403V65.73Z" fill="#013A1C"/>
<path d="M72.8104 65.73H71.6904V66.85H72.8104V65.73Z" fill="#013A1C"/>
<path d="M71.6903 65.73H70.5703V66.85H71.6903V65.73Z" fill="#013A1C"/>
<path d="M70.5604 65.73H69.4404V66.85H70.5604V65.73Z" fill="#013A1C"/>
<path d="M69.4403 65.73H68.3203V66.85H69.4403V65.73Z" fill="#013A1C"/>
<path d="M68.3207 65.73H67.2007V66.85H68.3207V65.73Z" fill="#013A1C"/>
<path d="M67.1903 65.73H66.0703V66.85H67.1903V65.73Z" fill="#013A1C"/>
<path d="M66.0707 65.73H64.9507V66.85H66.0707V65.73Z" fill="#013A1C"/>
<path d="M64.9506 65.73H63.8306V66.85H64.9506V65.73Z" fill="#013A1C"/>
<path d="M63.8207 65.73H62.7007V66.85H63.8207V65.73Z" fill="#013A1C"/>
<path d="M62.7006 65.73H61.5806V66.85H62.7006V65.73Z" fill="#013A1C"/>
<path d="M61.5707 65.73H60.4507V66.85H61.5707V65.73Z" fill="#013A1C"/>
<path d="M60.4506 65.73H59.3306V66.85H60.4506V65.73Z" fill="#013A1C"/>
<path d="M59.3305 65.73H58.2104V66.85H59.3305V65.73Z" fill="#013A1C"/>
<path d="M58.2006 65.73H57.0806V66.85H58.2006V65.73Z" fill="#013A1C"/>
<path d="M57.0805 65.73H55.9604V66.85H57.0805V65.73Z" fill="#013A1C"/>
<path d="M55.9603 65.73H54.8403V66.85H55.9603V65.73Z" fill="#013A1C"/>
<path d="M54.8305 65.73H53.7104V66.85H54.8305V65.73Z" fill="#013A1C"/>
<path d="M104.281 64.6H103.161V65.72H104.281V64.6Z" fill="#013A1C"/>
<path d="M103.15 64.6H102.03V65.72H103.15V64.6Z" fill="#013A1C"/>
<path d="M102.031 64.6H100.911V65.72H102.031V64.6Z" fill="#013A1C"/>
<path d="M100.9 64.6H99.7803V65.72H100.9V64.6Z" fill="#013A1C"/>
<path d="M99.7806 64.6H98.6606V65.72H99.7806V64.6Z" fill="#013A1C"/>
<path d="M98.6605 64.6H97.5405V65.72H98.6605V64.6Z" fill="#013A1C"/>
<path d="M97.5306 64.6H96.4106V65.72H97.5306V64.6Z" fill="#013A1C"/>
<path d="M96.4105 64.6H95.2905V65.72H96.4105V64.6Z" fill="#013A1C"/>
<path d="M95.2806 64.6H94.1606V65.72H95.2806V64.6Z" fill="#013A1C"/>
<path d="M94.1605 64.6H93.0405V65.72H94.1605V64.6Z" fill="#013A1C"/>
<path d="M93.0306 64.6H91.9106V65.72H93.0306V64.6Z" fill="#013A1C"/>
<path d="M91.9105 64.6H90.7905V65.72H91.9105V64.6Z" fill="#013A1C"/>
<path d="M90.7806 64.6H89.6606V65.72H90.7806V64.6Z" fill="#013A1C"/>
<path d="M89.6703 64.6H88.5503V65.72H89.6703V64.6Z" fill="#013A1C"/>
<path d="M88.5306 64.6H87.4106V65.72H88.5306V64.6Z" fill="#013A1C"/>
<path d="M87.4203 64.6H86.3003V65.72H87.4203V64.6Z" fill="#013A1C"/>
<path d="M86.3007 64.6H85.1807V65.72H86.3007V64.6Z" fill="#013A1C"/>
<path d="M85.1703 64.6H84.0503V65.72H85.1703V64.6Z" fill="#013A1C"/>
<path d="M84.0507 64.6H82.9307V65.72H84.0507V64.6Z" fill="#013A1C"/>
<path d="M82.9203 64.6H81.8003V65.72H82.9203V64.6Z" fill="#013A1C"/>
<path d="M81.8007 64.6H80.6807V65.72H81.8007V64.6Z" fill="#013A1C"/>
<path d="M80.6703 64.6H79.5503V65.72H80.6703V64.6Z" fill="#013A1C"/>
<path d="M79.5507 64.6H78.4307V65.72H79.5507V64.6Z" fill="#013A1C"/>
<path d="M78.4203 64.6H77.3003V65.72H78.4203V64.6Z" fill="#013A1C"/>
<path d="M77.3104 64.6H76.1904V65.72H77.3104V64.6Z" fill="#013A1C"/>
<path d="M76.1703 64.6H75.0503V65.72H76.1703V64.6Z" fill="#013A1C"/>
<path d="M75.0604 64.6H73.9404V65.72H75.0604V64.6Z" fill="#013A1C"/>
<path d="M73.9403 64.6H72.8203V65.72H73.9403V64.6Z" fill="#013A1C"/>
<path d="M72.8104 64.6H71.6904V65.72H72.8104V64.6Z" fill="#013A1C"/>
<path d="M71.6903 64.6H70.5703V65.72H71.6903V64.6Z" fill="#013A1C"/>
<path d="M70.5604 64.6H69.4404V65.72H70.5604V64.6Z" fill="#013A1C"/>
<path d="M69.4403 64.6H68.3203V65.72H69.4403V64.6Z" fill="#013A1C"/>
<path d="M68.3207 64.6H67.2007V65.72H68.3207V64.6Z" fill="#013A1C"/>
<path d="M67.1903 64.6H66.0703V65.72H67.1903V64.6Z" fill="#013A1C"/>
<path d="M66.0707 64.6H64.9507V65.72H66.0707V64.6Z" fill="#013A1C"/>
<path d="M64.9506 64.6H63.8306V65.72H64.9506V64.6Z" fill="#013A1C"/>
<path d="M63.8207 64.6H62.7007V65.72H63.8207V64.6Z" fill="#013A1C"/>
<path d="M62.7006 64.6H61.5806V65.72H62.7006V64.6Z" fill="#013A1C"/>
<path d="M61.5707 64.6H60.4507V65.72H61.5707V64.6Z" fill="#013A1C"/>
<path d="M60.4506 64.6H59.3306V65.72H60.4506V64.6Z" fill="#013A1C"/>
<path d="M59.3305 64.6H58.2104V65.72H59.3305V64.6Z" fill="#013A1C"/>
<path d="M58.2006 64.6H57.0806V65.72H58.2006V64.6Z" fill="#013A1C"/>
<path d="M57.0805 64.6H55.9604V65.72H57.0805V64.6Z" fill="#013A1C"/>
<path d="M55.9603 64.6H54.8403V65.72H55.9603V64.6Z" fill="#013A1C"/>
<path d="M54.8305 64.6H53.7104V65.72H54.8305V64.6Z" fill="#013A1C"/>
<path d="M104.281 63.48H103.161V64.6H104.281V63.48Z" fill="#013A1C"/>
<path d="M103.15 63.48H102.03V64.6H103.15V63.48Z" fill="#013A1C"/>
<path d="M102.031 63.48H100.911V64.6H102.031V63.48Z" fill="#013A1C"/>
<path d="M100.9 63.48H99.7803V64.6H100.9V63.48Z" fill="#013A1C"/>
<path d="M99.7806 63.48H98.6606V64.6H99.7806V63.48Z" fill="#013A1C"/>
<path d="M98.6605 63.48H97.5405V64.6H98.6605V63.48Z" fill="#013A1C"/>
<path d="M97.5306 63.48H96.4106V64.6H97.5306V63.48Z" fill="#013A1C"/>
<path d="M96.4105 63.48H95.2905V64.6H96.4105V63.48Z" fill="#013A1C"/>
<path d="M95.2806 63.48H94.1606V64.6H95.2806V63.48Z" fill="#013A1C"/>
<path d="M94.1605 63.48H93.0405V64.6H94.1605V63.48Z" fill="#013A1C"/>
<path d="M93.0306 63.48H91.9106V64.6H93.0306V63.48Z" fill="#013A1C"/>
<path d="M91.9105 63.48H90.7905V64.6H91.9105V63.48Z" fill="#013A1C"/>
<path d="M90.7806 63.48H89.6606V64.6H90.7806V63.48Z" fill="#013A1C"/>
<path d="M89.6703 63.48H88.5503V64.6H89.6703V63.48Z" fill="#013A1C"/>
<path d="M88.5306 63.48H87.4106V64.6H88.5306V63.48Z" fill="#013A1C"/>
<path d="M87.4203 63.48H86.3003V64.6H87.4203V63.48Z" fill="#013A1C"/>
<path d="M86.3007 63.48H85.1807V64.6H86.3007V63.48Z" fill="#013A1C"/>
<path d="M85.1703 63.48H84.0503V64.6H85.1703V63.48Z" fill="#013A1C"/>
<path d="M84.0507 63.48H82.9307V64.6H84.0507V63.48Z" fill="#013A1C"/>
<path d="M82.9203 63.48H81.8003V64.6H82.9203V63.48Z" fill="#013A1C"/>
<path d="M81.8007 63.48H80.6807V64.6H81.8007V63.48Z" fill="#013A1C"/>
<path d="M80.6703 63.48H79.5503V64.6H80.6703V63.48Z" fill="#013A1C"/>
<path d="M79.5507 63.48H78.4307V64.6H79.5507V63.48Z" fill="#013A1C"/>
<path d="M78.4203 63.48H77.3003V64.6H78.4203V63.48Z" fill="#013A1C"/>
<path d="M77.3104 63.48H76.1904V64.6H77.3104V63.48Z" fill="#013A1C"/>
<path d="M76.1703 63.48H75.0503V64.6H76.1703V63.48Z" fill="#013A1C"/>
<path d="M75.0604 63.48H73.9404V64.6H75.0604V63.48Z" fill="#013A1C"/>
<path d="M73.9403 63.48H72.8203V64.6H73.9403V63.48Z" fill="#013A1C"/>
<path d="M72.8104 63.48H71.6904V64.6H72.8104V63.48Z" fill="#013A1C"/>
<path d="M71.6903 63.48H70.5703V64.6H71.6903V63.48Z" fill="#013A1C"/>
<path d="M70.5604 63.48H69.4404V64.6H70.5604V63.48Z" fill="#013A1C"/>
<path d="M69.4403 63.48H68.3203V64.6H69.4403V63.48Z" fill="#013A1C"/>
<path d="M68.3207 63.48H67.2007V64.6H68.3207V63.48Z" fill="#013A1C"/>
<path d="M67.1903 63.48H66.0703V64.6H67.1903V63.48Z" fill="#013A1C"/>
<path d="M66.0707 63.48H64.9507V64.6H66.0707V63.48Z" fill="#013A1C"/>
<path d="M64.9506 63.48H63.8306V64.6H64.9506V63.48Z" fill="#013A1C"/>
<path d="M63.8207 63.48H62.7007V64.6H63.8207V63.48Z" fill="#013A1C"/>
<path d="M62.7006 63.48H61.5806V64.6H62.7006V63.48Z" fill="#013A1C"/>
<path d="M61.5707 63.48H60.4507V64.6H61.5707V63.48Z" fill="#013A1C"/>
<path d="M60.4506 63.48H59.3306V64.6H60.4506V63.48Z" fill="#013A1C"/>
<path d="M59.3305 63.48H58.2104V64.6H59.3305V63.48Z" fill="#013A1C"/>
<path d="M58.2006 63.48H57.0806V64.6H58.2006V63.48Z" fill="#013A1C"/>
<path d="M57.0805 63.48H55.9604V64.6H57.0805V63.48Z" fill="#013A1C"/>
<path d="M55.9603 63.48H54.8403V64.6H55.9603V63.48Z" fill="#013A1C"/>
<path d="M54.8305 63.48H53.7104V64.6H54.8305V63.48Z" fill="#013A1C"/>
<path d="M104.281 62.36H103.161V63.48H104.281V62.36Z" fill="#013A1C"/>
<path d="M103.15 62.36H102.03V63.48H103.15V62.36Z" fill="#013A1C"/>
<path d="M102.031 62.36H100.911V63.48H102.031V62.36Z" fill="#013A1C"/>
<path d="M100.9 62.36H99.7803V63.48H100.9V62.36Z" fill="#013A1C"/>
<path d="M99.7806 62.36H98.6606V63.48H99.7806V62.36Z" fill="#013A1C"/>
<path d="M98.6605 62.36H97.5405V63.48H98.6605V62.36Z" fill="#013A1C"/>
<path d="M97.5306 62.36H96.4106V63.48H97.5306V62.36Z" fill="#013A1C"/>
<path d="M96.4105 62.36H95.2905V63.48H96.4105V62.36Z" fill="#013A1C"/>
<path d="M95.2806 62.36H94.1606V63.48H95.2806V62.36Z" fill="#013A1C"/>
<path d="M94.1605 62.36H93.0405V63.48H94.1605V62.36Z" fill="#013A1C"/>
<path d="M93.0306 62.36H91.9106V63.48H93.0306V62.36Z" fill="#013A1C"/>
<path d="M91.9105 62.36H90.7905V63.48H91.9105V62.36Z" fill="#013A1C"/>
<path d="M90.7806 62.36H89.6606V63.48H90.7806V62.36Z" fill="#013A1C"/>
<path d="M89.6703 62.36H88.5503V63.48H89.6703V62.36Z" fill="#013A1C"/>
<path d="M88.5306 62.36H87.4106V63.48H88.5306V62.36Z" fill="#013A1C"/>
<path d="M87.4203 62.36H86.3003V63.48H87.4203V62.36Z" fill="#013A1C"/>
<path d="M86.3007 62.36H85.1807V63.48H86.3007V62.36Z" fill="#013A1C"/>
<path d="M85.1703 62.36H84.0503V63.48H85.1703V62.36Z" fill="#013A1C"/>
<path d="M84.0507 62.36H82.9307V63.48H84.0507V62.36Z" fill="#013A1C"/>
<path d="M82.9203 62.36H81.8003V63.48H82.9203V62.36Z" fill="#013A1C"/>
<path d="M81.8007 62.36H80.6807V63.48H81.8007V62.36Z" fill="#013A1C"/>
<path d="M80.6703 62.36H79.5503V63.48H80.6703V62.36Z" fill="#013A1C"/>
<path d="M79.5507 62.36H78.4307V63.48H79.5507V62.36Z" fill="#013A1C"/>
<path d="M78.4203 62.36H77.3003V63.48H78.4203V62.36Z" fill="#013A1C"/>
<path d="M77.3104 62.36H76.1904V63.48H77.3104V62.36Z" fill="#013A1C"/>
<path d="M76.1703 62.36H75.0503V63.48H76.1703V62.36Z" fill="#013A1C"/>
<path d="M75.0604 62.36H73.9404V63.48H75.0604V62.36Z" fill="#013A1C"/>
<path d="M73.9403 62.36H72.8203V63.48H73.9403V62.36Z" fill="#013A1C"/>
<path d="M72.8104 62.36H71.6904V63.48H72.8104V62.36Z" fill="#013A1C"/>
<path d="M71.6903 62.36H70.5703V63.48H71.6903V62.36Z" fill="#013A1C"/>
<path d="M70.5604 62.36H69.4404V63.48H70.5604V62.36Z" fill="#013A1C"/>
<path d="M69.4403 62.36H68.3203V63.48H69.4403V62.36Z" fill="#013A1C"/>
<path d="M68.3207 62.36H67.2007V63.48H68.3207V62.36Z" fill="#013A1C"/>
<path d="M67.1903 62.36H66.0703V63.48H67.1903V62.36Z" fill="#013A1C"/>
<path d="M66.0707 62.36H64.9507V63.48H66.0707V62.36Z" fill="#013A1C"/>
<path d="M64.9506 62.36H63.8306V63.48H64.9506V62.36Z" fill="#013A1C"/>
<path d="M63.8207 62.36H62.7007V63.48H63.8207V62.36Z" fill="#013A1C"/>
<path d="M62.7006 62.36H61.5806V63.48H62.7006V62.36Z" fill="#013A1C"/>
<path d="M61.5707 62.36H60.4507V63.48H61.5707V62.36Z" fill="#013A1C"/>
<path d="M60.4506 62.36H59.3306V63.48H60.4506V62.36Z" fill="#013A1C"/>
<path d="M59.3305 62.36H58.2104V63.48H59.3305V62.36Z" fill="#013A1C"/>
<path d="M58.2006 62.36H57.0806V63.48H58.2006V62.36Z" fill="#013A1C"/>
<path d="M57.0805 62.36H55.9604V63.48H57.0805V62.36Z" fill="#013A1C"/>
<path d="M55.9603 62.36H54.8403V63.48H55.9603V62.36Z" fill="#013A1C"/>
<path d="M54.8305 62.36H53.7104V63.48H54.8305V62.36Z" fill="#013A1C"/>
<path d="M109.9 80.2799H53.7104V80.3799H109.9V80.2799Z" fill="#1D1D1B"/>
<path d="M109.9 79.1499H53.7104V79.2499H109.9V79.1499Z" fill="#1D1D1B"/>
<path d="M109.9 78.0299H53.7104V78.1299H109.9V78.0299Z" fill="#1D1D1B"/>
<path d="M109.9 76.9199H53.7104V77.0199H109.9V76.9199Z" fill="#1D1D1B"/>
<path d="M109.9 75.7799H53.7104V75.8799H109.9V75.7799Z" fill="#1D1D1B"/>
<path d="M109.9 74.6699H53.7104V74.7699H109.9V74.6699Z" fill="#1D1D1B"/>
<path d="M109.9 73.5399H53.7104V73.6399H109.9V73.5399Z" fill="#1D1D1B"/>
<path d="M109.9 72.4199H53.7104V72.5199H109.9V72.4199Z" fill="#1D1D1B"/>
<path d="M109.9 71.2999H53.7104V71.3999H109.9V71.2999Z" fill="#1D1D1B"/>
<path d="M109.9 70.1699H53.7104V70.2699H109.9V70.1699Z" fill="#1D1D1B"/>
<path d="M109.9 69.0499H53.7104V69.1499H109.9V69.0499Z" fill="#1D1D1B"/>
<path d="M109.9 67.9299H53.7104V68.0299H109.9V67.9299Z" fill="#1D1D1B"/>
<path d="M109.9 66.7999H53.7104V66.8999H109.9V66.7999Z" fill="#1D1D1B"/>
<path d="M109.9 65.6799H53.7104V65.7799H109.9V65.6799Z" fill="#1D1D1B"/>
<path d="M109.9 64.5499H53.7104V64.6499H109.9V64.5499Z" fill="#1D1D1B"/>
<path d="M109.9 63.4299H53.7104V63.5299H109.9V63.4299Z" fill="#1D1D1B"/>
<path d="M103.21 61.23H103.11V83.71H103.21V61.23Z" fill="#1D1D1B"/>
<path d="M102.08 61.23H101.98V83.71H102.08V61.23Z" fill="#1D1D1B"/>
<path d="M100.96 61.23H100.86V83.71H100.96V61.23Z" fill="#1D1D1B"/>
<path d="M99.8305 61.23H99.7305V83.71H99.8305V61.23Z" fill="#1D1D1B"/>
<path d="M98.7104 61.23H98.6104V83.71H98.7104V61.23Z" fill="#1D1D1B"/>
<path d="M97.5907 61.23H97.4907V83.71H97.5907V61.23Z" fill="#1D1D1B"/>
<path d="M96.4604 61.23H96.3604V83.71H96.4604V61.23Z" fill="#1D1D1B"/>
<path d="M95.3407 61.23H95.2407V83.71H95.3407V61.23Z" fill="#1D1D1B"/>
<path d="M94.2206 61.23H94.1206V83.71H94.2206V61.23Z" fill="#1D1D1B"/>
<path d="M93.0907 61.23H92.9907V83.71H93.0907V61.23Z" fill="#1D1D1B"/>
<path d="M91.9706 61.23H91.8706V83.71H91.9706V61.23Z" fill="#1D1D1B"/>
<path d="M90.8407 61.23H90.7407V83.71H90.8407V61.23Z" fill="#1D1D1B"/>
<path d="M89.7206 61.23H89.6206V83.71H89.7206V61.23Z" fill="#1D1D1B"/>
<path d="M88.6005 61.23H88.5005V83.71H88.6005V61.23Z" fill="#1D1D1B"/>
<path d="M87.4706 61.23H87.3706V83.71H87.4706V61.23Z" fill="#1D1D1B"/>
<path d="M86.3505 61.23H86.2505V83.71H86.3505V61.23Z" fill="#1D1D1B"/>
<path d="M85.2304 61.23H85.1304V83.71H85.2304V61.23Z" fill="#1D1D1B"/>
<path d="M84.1005 61.23H84.0005V83.71H84.1005V61.23Z" fill="#1D1D1B"/>
<path d="M82.9804 61.23H82.8804V83.71H82.9804V61.23Z" fill="#1D1D1B"/>
<path d="M81.8505 61.23H81.7505V83.71H81.8505V61.23Z" fill="#1D1D1B"/>
<path d="M80.7304 61.23H80.6304V83.71H80.7304V61.23Z" fill="#1D1D1B"/>
<path d="M79.6005 61.23H79.5005V83.71H79.6005V61.23Z" fill="#1D1D1B"/>
<path d="M78.4804 61.23H78.3804V83.71H78.4804V61.23Z" fill="#1D1D1B"/>
<path d="M77.3505 61.23H77.2505V83.71H77.3505V61.23Z" fill="#1D1D1B"/>
<path d="M76.2406 61.23H76.1406V83.71H76.2406V61.23Z" fill="#1D1D1B"/>
<path d="M75.1005 61.23H75.0005V83.71H75.1005V61.23Z" fill="#1D1D1B"/>
<path d="M73.9906 61.23H73.8906V83.71H73.9906V61.23Z" fill="#1D1D1B"/>
<path d="M72.8705 61.23H72.7705V83.71H72.8705V61.23Z" fill="#1D1D1B"/>
<path d="M71.7406 61.23H71.6406V83.71H71.7406V61.23Z" fill="#1D1D1B"/>
<path d="M70.6205 61.23H70.5205V83.71H70.6205V61.23Z" fill="#1D1D1B"/>
<path d="M69.4906 61.23H69.3906V83.71H69.4906V61.23Z" fill="#1D1D1B"/>
<path d="M68.3705 61.23H68.2705V83.71H68.3705V61.23Z" fill="#1D1D1B"/>
<path d="M67.2504 61.23H67.1504V83.71H67.2504V61.23Z" fill="#1D1D1B"/>
<path d="M66.1205 61.23H66.0205V83.71H66.1205V61.23Z" fill="#1D1D1B"/>
<path d="M65.0004 61.23H64.9004V83.71H65.0004V61.23Z" fill="#1D1D1B"/>
<path d="M63.8705 61.23H63.7705V83.71H63.8705V61.23Z" fill="#1D1D1B"/>
<path d="M62.7504 61.23H62.6504V83.71H62.7504V61.23Z" fill="#1D1D1B"/>
<path d="M61.6205 61.23H61.5205V83.71H61.6205V61.23Z" fill="#1D1D1B"/>
<path d="M60.5004 61.23H60.4004V83.71H60.5004V61.23Z" fill="#1D1D1B"/>
<path d="M59.3705 61.23H59.2705V83.71H59.3705V61.23Z" fill="#1D1D1B"/>
<path d="M58.2606 61.23H58.1606V83.71H58.2606V61.23Z" fill="#1D1D1B"/>
<path d="M57.1205 61.23H57.0205V83.71H57.1205V61.23Z" fill="#1D1D1B"/>
<path d="M56.0106 61.23H55.9106V83.71H56.0106V61.23Z" fill="#1D1D1B"/>
<path d="M54.8905 61.23H54.7905V83.71H54.8905V61.23Z" fill="#1D1D1B"/>
</g>
<path d="M96.87 81.51H61.23C57.22 81.51 53.96 78.29 53.96 74.34V69.79C53.96 65.84 57.22 62.62 61.23 62.62H96.87C100.88 62.62 104.14 65.84 104.14 69.79V74.34C104.14 78.29 100.88 81.51 96.87 81.51ZM61.23 63.6C57.77 63.6 54.95 66.37 54.95 69.78V74.33C54.95 77.74 57.77 80.51 61.23 80.51H96.87C100.33 80.51 103.15 77.74 103.15 74.33V69.78C103.15 66.37 100.33 63.6 96.87 63.6H61.23Z" fill="#1D1D1B"/>
</g>
</svg>
