<svg width="176" height="230" viewBox="0 0 176 230" fill="none" xmlns="http://www.w3.org/2000/svg">
    <path d="M47.7102 129.663C48.2467 127.527 48.7058 126.369 50.0335 124.457C44.7052 123.303 42.0988 121.848 37.7979 118.516C36.541 120.05 35.9779 120.946 35.1334 122.658C39.1571 126.298 41.7754 127.955 47.7102 129.663Z" fill="#313130"/>
    <path d="M40.8113 151.363C41.2059 154.217 41.1004 155.748 40.7294 158.434C34.8244 157.504 31.5646 157.191 25.7528 157.129L25.7598 157.09C26.2734 154.231 26.563 152.619 27.8877 149.87C30.021 150.828 31.3028 151.228 33.6643 151.776C36.6664 152.021 38.1575 151.785 40.8113 151.363Z" fill="#313130"/>
    <path d="M58.2599 120.472C61.9925 115.565 59.6143 109.196 55.0914 105.006C50.1984 100.473 39.1521 103.39 36.1524 110.713C34.0574 115.826 38.777 120.288 43.7825 122.63C48.9601 125.053 54.7993 125.022 58.2599 120.472Z" fill="#878787" stroke="#0B0B0B"/>
    <path d="M44.08 150.669C45.6318 142.753 47.0111 138.238 49.8564 130.105C43.1097 128.854 39.5914 126.901 33.7649 121.78C27.957 132.623 26.8503 138.647 26.0647 149.365C33.131 152.124 37.0777 152.569 44.08 150.669Z" fill="#878787" stroke="#0B0B0B"/>
    <path d="M24.6463 156.882C30.6327 157.124 34.092 157.324 42.167 158.691C42.0367 169.908 41.3809 175.473 40.4611 185.711C32.9419 185.514 28.8928 185.337 21.9513 184.913C22.3266 174.123 22.1676 168.157 24.6463 156.882Z" fill="#878787" stroke="#0B0B0B"/>
    <path d="M47.7102 129.663C48.179 127.518 48.6454 126.371 50.0335 124.457M35.1334 122.658C35.8271 120.958 36.3452 120.034 37.7979 118.516" stroke="#0B0B0B"/>
    <path d="M40.8079 151.363C41.2165 153.997 41.1502 155.932 40.7294 158.434" stroke="#0B0B0B"/>
    <path d="M27.8117 150.364C26.6262 152.752 26.1846 154.123 25.8297 156.635" stroke="#0B0B0B"/>
    <path d="M44.9995 126C39.6686 124.737 35.9995 121 35.9995 121" stroke="#0B0B0B"/>
    <path d="M26.4995 153.5C32.0995 153.244 35.3608 154.373 40.9995 155" stroke="#0B0B0B"/>
    <path d="M58.1444 95.1001L45.8765 105.1H124.297C128.523 101.227 131.501 98.7719 136.604 95.1001H58.1444Z" fill="#9D9D9C"/>
    <path d="M45.0002 106C45.0002 105.448 45.448 105 46.0002 105H123.734C124.286 105 124.734 105.448 124.734 106V189C124.734 189.552 124.286 190 123.734 190H46.0002C45.448 190 45.0002 189.552 45.0002 189V106Z" fill="#878787" stroke="#0B0B0B"/>
    <path d="M137.191 95.0862C137.413 95.1098 137.585 95.2439 137.677 95.4231C137.753 95.5699 137.767 95.7278 137.767 95.8489V173.412C137.767 174.261 137.484 175.087 136.963 175.726L125.98 189.191C125.727 189.5 125.336 189.571 125.017 189.431C124.708 189.295 124.5 188.983 124.5 188.615V105.61C124.5 105.021 124.744 104.555 125.04 104.181C125.324 103.823 125.698 103.503 125.973 103.245L125.994 103.225L126.019 103.207L135.677 96.1174C135.79 96.0109 135.911 95.8881 136.056 95.7463C136.198 95.6072 136.36 95.454 136.514 95.3362C136.591 95.2775 136.681 95.2159 136.777 95.1692C136.863 95.1272 137.013 95.0674 137.191 95.0862Z" fill="#575756" stroke="#0B0B0B"/>
    <path d="M58.5497 95L58.5511 94.5H58.5497V95ZM57.0059 95.6821L57.3243 96.0676L57.3248 96.0672L57.0059 95.6821ZM44.6816 105.215C44.4687 105.39 44.4386 105.706 44.6145 105.919C44.7904 106.131 45.1055 106.161 45.3184 105.986L45 105.6L44.6816 105.215ZM97.8623 95.1102L97.8637 94.6102L93.226 94.5972L93.2246 95.0972L93.2232 95.5972L97.8609 95.6102L97.8623 95.1102ZM93.2246 95.0972L93.226 94.5972L58.5511 94.5L58.5497 95L58.5483 95.5L93.2232 95.5972L93.2246 95.0972ZM57.0059 95.6821L56.6874 95.2966L44.6816 105.215L45 105.6L45.3184 105.986L57.3243 96.0676L57.0059 95.6821ZM58.5497 95V94.5C57.8185 94.5 57.1644 94.9016 56.6869 95.297L57.0059 95.6821L57.3248 96.0672C57.745 95.7192 58.1717 95.5 58.5497 95.5V95ZM137.001 95.0973V94.5973L93.2246 94.5972V95.0972V95.5972L137.001 95.5973V95.0973ZM93.2246 95.0972V94.5972L89.1014 94.5972V95.0972V95.5972L93.2246 95.5972V95.0972Z" fill="#0B0B0B"/>
    <rect x="53.4995" y="116.5" width="29" height="17" rx="2.5" fill="#380101" stroke="#0B0B0B"/>
    <rect x="72.4995" y="141.5" width="43" height="14" rx="2.5" fill="#525252" stroke="#0B0B0B"/>
    <rect x="52.4995" y="162.5" width="66" height="16" rx="2.5" fill="#313130" stroke="#0B0B0B"/>
    <rect x="101" y="166.872" width="14" height="7" fill="#C34E05"/>
    <rect x="97.4995" y="165.5" width="4" height="10" rx="2" fill="#726F6F" stroke="#0B0B0B"/>
    <rect x="88.4995" y="127.5" width="5" height="5" fill="#F4E347" stroke="#0B0B0B"/>
    <rect x="75.2995" y="143.172" width="4.4" height="4.4" rx="0.7" fill="#AE9D02" stroke="#0B0B0B" stroke-width="0.6"/>
    <rect x="-0.3" y="0.3" width="4.4" height="4.4" rx="0.7" transform="matrix(-1 0 0 1 86.3995 148.872)" fill="#AE9D02" stroke="#0B0B0B" stroke-width="0.6"/>
    <rect x="89.2995" y="143.3" width="4.4" height="2.4" fill="#195703" stroke="#0B0B0B" stroke-width="0.6"/>
    <rect x="89.2995" y="147.3" width="4.4" height="2.4" fill="#195703" stroke="#0B0B0B" stroke-width="0.6"/>
    <rect x="89.2995" y="151.3" width="4.4" height="2.4" fill="#195703" stroke="#0B0B0B" stroke-width="0.6"/>
    <rect x="75.2995" y="149.172" width="4.4" height="4.4" rx="2.2" fill="#AE9D02" stroke="#0B0B0B" stroke-width="0.6"/>
    <circle cx="90.9995" cy="121" r="2.5" fill="#ED0022" stroke="#0B0B0B"/>
    <circle cx="108" cy="125" r="7.5" fill="#525252" stroke="#0B0B0B"/>
    <circle cx="59.4995" cy="148.5" r="8" fill="#313130" stroke="#0B0B0B"/>
    <circle cx="59.4995" cy="148.5" r="4" fill="#878787" stroke="#0B0B0B"/>
    <circle cx="89.4995" cy="170.372" r="4" fill="#CDCDCD" stroke="#0B0B0B"/>
    <path d="M113 122.5C114.745 125.208 112.53 130.074 108 130.5C107.999 127.501 108 128.324 108 125.011C112 125.011 104.686 125.01 108 125.01C111 123.51 109 124.499 113 122.5Z" fill="#FFAA56"/>
    <path d="M103.095 122.5C101.349 125.208 103.565 130.074 108.095 130.5C108.096 127.501 108.095 128.324 108.095 125.011C104.095 125.011 111.409 125.01 108.095 125.01C105.095 123.51 107.095 124.499 103.095 122.5Z" fill="#97FF9A"/>
    <circle cx="59.4995" cy="148.5" r="2" fill="#E50000" stroke="#0B0B0B"/>
    <rect x="103" y="169.872" width="1" height="4" fill="#7D360A"/>
    <rect x="105" y="167.872" width="1" height="6" fill="#7D360A"/>
    <rect x="107" y="170.872" width="1" height="3" fill="#7D360A"/>
    <rect x="109" y="169.872" width="1" height="4" fill="#7D360A"/>
    <rect x="111" y="171.872" width="1" height="2" fill="#7D360A"/>
    <rect x="113" y="167.872" width="1" height="6" fill="#7D360A"/>
    <path d="M101 166.372H115.5V174.372H101" stroke="#0B0B0B"/>
    <circle cx="99.4995" cy="167.372" r="0.5" fill="#0B0B0B"/>
    <path d="M85.1245 143.774C84.8656 143.262 84.1334 143.262 83.8745 143.774L82.4692 146.557C82.2342 147.022 82.5727 147.572 83.0942 147.572H85.9048C86.4264 147.572 86.7649 147.022 86.5298 146.557L85.1245 143.774Z" fill="#AE9D03" stroke="#0B0B0B" stroke-width="0.6"/>
    <circle cx="89.4995" cy="170.372" r="2" fill="#313130" stroke="#0B0B0B"/>
    <path d="M53.9995 125.372H56.4995H57.851H58.9995H59.9995H62.4995H65.9994H68.9995" stroke="#E50000" stroke-width="0.7"/>
    <path d="M68.9995 125.372H71.4995H72.851H73.9995H74.9995H77.4995H80.9994H81.9995" stroke="#E50000" stroke-width="0.7"/>
    <path d="M92.9995 144.501C92.9995 144.777 92.3279 144.751 91.4995 144.751C90.6711 144.751 89.9995 144.777 89.9995 144.501C89.9995 144.224 90.6711 144.251 91.4995 144.251C92.3279 144.251 92.9995 144.224 92.9995 144.501Z" fill="white" fill-opacity="0.3"/>
    <path d="M92.9995 148.501C92.9995 148.777 92.3279 148.751 91.4995 148.751C90.6711 148.751 89.9995 148.777 89.9995 148.501C89.9995 148.224 90.6711 148.251 91.4995 148.251C92.3279 148.251 92.9995 148.224 92.9995 148.501Z" fill="white" fill-opacity="0.3"/>
    <path d="M92.9995 152.501C92.9995 152.777 92.3279 152.751 91.4995 152.751C90.6711 152.751 89.9995 152.777 89.9995 152.501C89.9995 152.224 90.6711 152.251 91.4995 152.251C92.3279 152.251 92.9995 152.224 92.9995 152.501Z" fill="white" fill-opacity="0.3"/>
    <rect x="0.5" y="0.5" width="3" height="6" rx="1.5" transform="matrix(-4.37114e-08 1 1 4.37114e-08 87.4995 168.5)" fill="#726F6F" stroke="#0B0B0B"/>
    <rect x="96.4995" y="143.5" width="16" height="10" fill="#380101" stroke="#0B0B0B"/>
    <path d="M106.5 145.5H111" stroke="#ED0022" stroke-width="0.5" stroke-linecap="round"/>
    <path d="M106.5 147.5H110.5" stroke="#ED0022" stroke-width="0.5" stroke-linecap="round"/>
    <path d="M106.5 151.5H111" stroke="#ED0022" stroke-width="0.5" stroke-linecap="round"/>
    <path d="M106.5 150.5H107" stroke="#ED0022" stroke-width="0.5" stroke-linecap="round"/>
    <path d="M108 150.5H108.5" stroke="#ED0022" stroke-width="0.5" stroke-linecap="round"/>
    <path d="M109.5 150.5H111" stroke="#ED0022" stroke-width="0.5" stroke-linecap="round"/>
    <path d="M106.5 148.5H108.5" stroke="#ED0022" stroke-width="0.5" stroke-linecap="round"/>
    <path d="M109.5 148.5H111" stroke="#ED0022" stroke-width="0.5" stroke-linecap="round"/>
    <path d="M106.5 146.5H109.5" stroke="#ED0022" stroke-width="0.5" stroke-linecap="round"/>
    <path d="M106.5 149.5H109.5" stroke="#ED0022" stroke-width="0.5" stroke-linecap="round"/>
    <mask id="path-62-inside-1_3930_12349" fill="white">
        <path d="M96.9995 151H105V153H96.9995V151Z"/>
    </mask>
    <path d="M96.9995 151H105V153H96.9995V151Z" fill="white" fill-opacity="0.3"/>
    <path d="M105 151H105.5V150.5H105V151ZM96.9995 151V151.5H105V151V150.5H96.9995V151ZM105 151H104.5V153H105H105.5V151H105Z" fill="#0B0B0B" mask="url(#path-62-inside-1_3930_12349)"/>
    <path d="M113 122.5L108 125L103 122.5C104.34 120.611 105.46 119.941 108 119.5C110.329 119.878 111.694 120.613 113 122.5Z" fill="#FFF1A4"/>
    <circle cx="108" cy="125" r="5.5" stroke="#0B0B0B"/>
    <path d="M107.999 124.923L110.426 127.858" stroke="#0B0B0B" stroke-width="0.5"/>
    <circle cx="108" cy="125" r="0.5" fill="#0B0B0B"/>
    <path d="M48.968 110.697C49.9296 110.697 50.7092 109.917 50.7092 108.956C50.7092 107.994 49.9296 107.215 48.968 107.215C48.0064 107.215 47.2268 107.994 47.2268 108.956C47.2268 109.917 48.0064 110.697 48.968 110.697Z" fill="#575756"/>
    <path d="M47.0005 108.956C47.0005 107.871 47.883 107 48.9563 107C50.0297 107 50.9122 107.883 50.9122 108.956C50.9122 110.029 50.0297 110.912 48.9563 110.912C47.883 110.912 47.0005 110.029 47.0005 108.956ZM47.4537 108.956C47.4537 109.803 48.1334 110.482 48.9802 110.482C49.8269 110.482 50.5067 109.803 50.5067 108.956C50.5067 108.109 49.8269 107.429 48.9802 107.429C48.1334 107.429 47.4537 108.109 47.4537 108.956Z" fill="#0B0B0B"/>
    <path d="M49.4756 108.157L48.1685 109.464L48.472 109.768L49.7791 108.461L49.4756 108.157Z" fill="#0B0B0B"/>
    <path d="M48.4633 108.145L48.1597 108.449L49.4668 109.756L49.7704 109.452L48.4633 108.145Z" fill="#0B0B0B"/>
    <path d="M120.968 110.697C121.93 110.697 122.709 109.917 122.709 108.956C122.709 107.994 121.93 107.215 120.968 107.215C120.006 107.215 119.227 107.994 119.227 108.956C119.227 109.917 120.006 110.697 120.968 110.697Z" fill="#575756"/>
    <path d="M119 108.956C119 107.871 119.883 107 120.956 107C122.03 107 122.912 107.883 122.912 108.956C122.912 110.029 122.03 110.912 120.956 110.912C119.883 110.912 119 110.029 119 108.956ZM119.454 108.956C119.454 109.803 120.133 110.482 120.98 110.482C121.827 110.482 122.507 109.803 122.507 108.956C122.507 108.109 121.827 107.429 120.98 107.429C120.133 107.429 119.454 108.109 119.454 108.956Z" fill="#0B0B0B"/>
    <path d="M121.476 108.157L120.168 109.464L120.472 109.768L121.779 108.461L121.476 108.157Z" fill="#0B0B0B"/>
    <path d="M120.463 108.145L120.16 108.449L121.467 109.756L121.77 109.452L120.463 108.145Z" fill="#0B0B0B"/>
    <path d="M120.968 187.697C121.93 187.697 122.709 186.917 122.709 185.956C122.709 184.994 121.93 184.215 120.968 184.215C120.006 184.215 119.227 184.994 119.227 185.956C119.227 186.917 120.006 187.697 120.968 187.697Z" fill="#575756"/>
    <path d="M119 185.956C119 184.871 119.883 184 120.956 184C122.03 184 122.912 184.883 122.912 185.956C122.912 187.029 122.03 187.912 120.956 187.912C119.883 187.912 119 187.029 119 185.956ZM119.454 185.956C119.454 186.803 120.133 187.482 120.98 187.482C121.827 187.482 122.507 186.803 122.507 185.956C122.507 185.109 121.827 184.429 120.98 184.429C120.133 184.429 119.454 185.109 119.454 185.956Z" fill="#0B0B0B"/>
    <path d="M121.476 185.157L120.168 186.464L120.472 186.768L121.779 185.461L121.476 185.157Z" fill="#0B0B0B"/>
    <path d="M120.463 185.145L120.16 185.449L121.467 186.756L121.77 186.452L120.463 185.145Z" fill="#0B0B0B"/>
    <path d="M48.968 187.697C49.9296 187.697 50.7092 186.917 50.7092 185.956C50.7092 184.994 49.9296 184.215 48.968 184.215C48.0064 184.215 47.2268 184.994 47.2268 185.956C47.2268 186.917 48.0064 187.697 48.968 187.697Z" fill="#575756"/>
    <path d="M47.0005 185.956C47.0005 184.871 47.883 184 48.9563 184C50.0297 184 50.9122 184.883 50.9122 185.956C50.9122 187.029 50.0297 187.912 48.9563 187.912C47.883 187.912 47.0005 187.029 47.0005 185.956ZM47.4537 185.956C47.4537 186.803 48.1334 187.482 48.9802 187.482C49.8269 187.482 50.5067 186.803 50.5067 185.956C50.5067 185.109 49.8269 184.429 48.9802 184.429C48.1334 184.429 47.4537 185.109 47.4537 185.956Z" fill="#0B0B0B"/>
    <path d="M49.4756 185.157L48.1685 186.464L48.472 186.768L49.7791 185.461L49.4756 185.157Z" fill="#0B0B0B"/>
    <path d="M48.4633 185.145L48.1597 185.449L49.4668 186.756L49.7704 186.452L48.4633 185.145Z" fill="#0B0B0B"/>
    <path d="M53.968 187.697C54.9296 187.697 55.7092 186.917 55.7092 185.956C55.7092 184.994 54.9296 184.215 53.968 184.215C53.0064 184.215 52.2268 184.994 52.2268 185.956C52.2268 186.917 53.0064 187.697 53.968 187.697Z" fill="#575756"/>
    <path d="M52.0005 185.956C52.0005 184.871 52.883 184 53.9563 184C55.0297 184 55.9122 184.883 55.9122 185.956C55.9122 187.029 55.0297 187.912 53.9563 187.912C52.883 187.912 52.0005 187.029 52.0005 185.956ZM52.4537 185.956C52.4537 186.803 53.1334 187.482 53.9802 187.482C54.8269 187.482 55.5067 186.803 55.5067 185.956C55.5067 185.109 54.8269 184.429 53.9802 184.429C53.1334 184.429 52.4537 185.109 52.4537 185.956Z" fill="#0B0B0B"/>
    <path d="M54.4756 185.157L53.1685 186.464L53.472 186.768L54.7791 185.461L54.4756 185.157Z" fill="#0B0B0B"/>
    <path d="M53.4633 185.145L53.1597 185.449L54.4668 186.756L54.7704 186.452L53.4633 185.145Z" fill="#0B0B0B"/>
    <path d="M136.499 128.5C136.296 126.307 136.019 125.092 134.999 123C140.441 122.674 143.239 121.635 147.999 119C149.007 120.708 149.426 121.679 149.999 123.5C145.466 126.482 142.625 127.72 136.499 128.5Z" fill="#313130"/>
    <path d="M139.999 151C139.173 153.76 139.043 155.289 138.999 158C144.977 157.984 148.246 158.173 153.999 159L153.998 158.96C153.928 156.057 153.888 154.419 152.999 151.5C150.745 152.121 149.417 152.32 146.999 152.5C143.995 152.284 142.557 151.823 139.999 151Z" fill="#313130"/>
    <path d="M127.479 117.805C124.54 112.384 127.864 106.454 132.975 103.004C138.503 99.273 148.973 103.844 150.818 111.539C152.107 116.913 146.761 120.601 141.456 122.15C135.969 123.753 130.203 122.83 127.479 117.805Z" fill="#878787" stroke="#0B0B0B"/>
    <path d="M136.875 149.815C136.552 141.754 135.879 137.081 134.311 128.609C141.169 128.404 144.945 127.011 151.486 122.842C155.568 134.446 155.74 140.567 154.878 151.28C147.473 152.926 143.505 152.762 136.875 149.815Z" fill="#878787" stroke="#0B0B0B"/>
    <path d="M155.131 158.925C149.177 158.249 145.728 157.918 137.539 158.034C135.953 169.139 135.75 174.739 135.094 184.997C142.555 185.952 146.583 186.397 153.508 187.038C154.787 176.318 155.856 170.447 155.131 158.925Z" fill="#878787" stroke="#0B0B0B"/>
    <path d="M136.499 128.5C136.364 126.308 136.078 125.103 134.999 123M149.999 123.5C149.574 121.714 149.203 120.722 147.999 119" stroke="#0B0B0B"/>
    <path d="M140.003 151C139.196 153.541 138.966 155.463 138.999 158" stroke="#0B0B0B"/>
    <path d="M152.999 152C153.806 154.541 154.032 155.963 153.999 158.5" stroke="#0B0B0B"/>
    <path d="M89.4917 103C82.26 102.658 78.9463 102.108 75.4917 100L76.9917 95L76.4917 92L77.9917 88H101.492L102.992 92L102.492 95L103.992 100L89.4917 103Z" fill="#313130"/>
    <path d="M75.4917 100C75.4917 100 76.0391 98.0981 76.4917 97C77.1902 95.3052 76.7401 94.2821 76.4917 92.5C76.2614 90.8477 77.9917 88 77.9917 88" stroke="#0B0B0B"/>
    <path d="M76.4917 97.3721C85.8238 99.3466 91.6427 99.2698 102.992 97.3721" stroke="#0B0B0B"/>
    <path d="M76.9917 93.8721C86.6355 95.1184 92.2269 95.1969 102.492 93.8721" stroke="#0B0B0B"/>
    <path d="M103.992 100C103.992 100 103.444 98.0981 102.992 97C102.293 95.3052 102.743 94.2821 102.992 92.5C103.222 90.8477 101.492 88 101.492 88" stroke="#0B0B0B"/>
    <path d="M75.4913 99.9995C74.7947 100.652 86.132 103.848 93.5007 102.5C98.5862 101.57 103.991 99.9995 103.991 99.9995" stroke="#0B0B0B" stroke-linecap="round"/>
    <path d="M52.7532 42.5066L46.5278 35.6492V19.8115H48.5195V34.874L54.2201 41.1709L52.7532 42.5066Z" fill="#0B0B0B"/>
    <path d="M47.6369 20.1693C49.6458 20.1693 51.2743 18.5408 51.2743 16.5319C51.2743 14.5231 49.6458 12.8945 47.6369 12.8945C45.628 12.8945 43.9995 14.5231 43.9995 16.5319C43.9995 18.5408 45.628 20.1693 47.6369 20.1693Z" fill="#0B0B0B"/>
    <path d="M53.2461 17.7735L52.9438 84.7482L59.5031 91.9037H117.94L124.206 84.7482L124.205 17.3667L53.2461 17.7735Z" fill="#878787"/>
    <path d="M72.0253 12.5963H106.014C107.316 12.5963 108.399 13.9469 108.399 14.9815V16.7704H69.6401V14.3852C70.1882 13.3769 71.1968 12.6191 72.0253 12.5963Z" fill="#9D9D9C"/>
    <path d="M99.1565 21.8029H78.3815C77.8019 21.8029 77.332 22.2727 77.332 22.8523C77.332 23.4319 77.8019 23.9018 78.3815 23.9018H99.1565C99.7361 23.9018 100.206 23.4319 100.206 22.8523C100.206 22.2727 99.7361 21.8029 99.1565 21.8029Z" fill="#575756"/>
    <path d="M99.1449 24.4981H78.3699C77.4635 24.4981 76.7241 23.7587 76.7241 22.8523C76.7241 21.9459 77.4635 21.2065 78.3699 21.2065H99.1449C100.051 21.2065 100.791 21.9459 100.791 22.8523C100.791 23.7587 100.051 24.4981 99.1449 24.4981ZM78.3818 22.3872C78.1314 22.3872 77.9286 22.5899 77.9286 22.8404C77.9286 23.0908 78.1314 23.2936 78.3818 23.2936H99.1568C99.4072 23.2936 99.61 23.0908 99.61 22.8404C99.61 22.5899 99.4072 22.3872 99.1568 22.3872H78.3818Z" fill="#0B0B0B"/>
    <path d="M99.1565 25.7743H78.3815C77.8019 25.7743 77.332 26.2442 77.332 26.8238C77.332 27.4034 77.8019 27.8733 78.3815 27.8733H99.1565C99.7361 27.8733 100.206 27.4034 100.206 26.8238C100.206 26.2442 99.7361 25.7743 99.1565 25.7743Z" fill="#575756"/>
    <path d="M99.1449 28.4576H78.3699C77.4635 28.4576 76.7241 27.7182 76.7241 26.8118C76.7241 25.9054 77.4635 25.166 78.3699 25.166H99.1449C100.051 25.166 100.791 25.9054 100.791 26.8118C100.791 27.7182 100.051 28.4576 99.1449 28.4576ZM78.3818 26.3705C78.1314 26.3705 77.9286 26.5733 77.9286 26.8237C77.9286 27.0742 78.1314 27.2769 78.3818 27.2769H99.1568C99.4072 27.2769 99.61 27.0742 99.61 26.8237C99.61 26.5733 99.4072 26.3705 99.1568 26.3705H78.3818Z" fill="#0B0B0B"/>
    <path d="M99.1565 29.7458H78.3815C77.8019 29.7458 77.332 30.2157 77.332 30.7953C77.332 31.3749 77.8019 31.8448 78.3815 31.8448H99.1565C99.7361 31.8448 100.206 31.3749 100.206 30.7953C100.206 30.2157 99.7361 29.7458 99.1565 29.7458Z" fill="#575756"/>
    <path d="M99.1449 32.4293H78.3699C77.4635 32.4293 76.7241 31.6898 76.7241 30.7835C76.7241 29.8771 77.4635 29.1377 78.3699 29.1377H99.1449C100.051 29.1377 100.791 29.8771 100.791 30.7835C100.791 31.6898 100.051 32.4293 99.1449 32.4293ZM78.3818 30.3422C78.1314 30.3422 77.9286 30.545 77.9286 30.7954C77.9286 31.0458 78.1314 31.2486 78.3818 31.2486H99.1568C99.4072 31.2486 99.61 31.0458 99.61 30.7954C99.61 30.545 99.4072 30.3422 99.1568 30.3422H78.3818Z" fill="#0B0B0B"/>
    <path d="M60.6609 89.614C61.6225 89.614 62.402 88.8344 62.402 87.8728C62.402 86.9111 61.6225 86.1316 60.6609 86.1316C59.6992 86.1316 58.9197 86.9111 58.9197 87.8728C58.9197 88.8344 59.6992 89.614 60.6609 89.614Z" fill="#575756"/>
    <path d="M60.6604 89.8287C59.5752 89.8287 58.7046 88.9462 58.7046 87.8728C58.7046 86.7995 59.5871 85.917 60.6604 85.917C61.7338 85.917 62.6163 86.7995 62.6163 87.8728C62.6163 88.9462 61.7338 89.8287 60.6604 89.8287ZM60.6604 86.3463C59.8137 86.3463 59.1339 87.0261 59.1339 87.8728C59.1339 88.7196 59.8137 89.3994 60.6604 89.3994C61.5072 89.3994 62.187 88.7196 62.187 87.8728C62.187 87.0261 61.5072 86.3463 60.6604 86.3463Z" fill="#0B0B0B"/>
    <path d="M60.1642 87.0537L59.8606 87.3573L61.1677 88.6644L61.4713 88.3608L60.1642 87.0537Z" fill="#0B0B0B"/>
    <path d="M61.1677 87.0573L59.8606 88.3644L60.1642 88.668L61.4713 87.3609L61.1677 87.0573Z" fill="#0B0B0B"/>
    <path d="M56.2231 85.0823C57.1848 85.0823 57.9643 84.3028 57.9643 83.3412C57.9643 82.3795 57.1848 81.6 56.2231 81.6C55.2615 81.6 54.4819 82.3795 54.4819 83.3412C54.4819 84.3028 55.2615 85.0823 56.2231 85.0823Z" fill="#575756"/>
    <path d="M56.2229 85.297C55.1377 85.297 54.2671 84.4144 54.2671 83.3411C54.2671 82.2678 55.1496 81.3853 56.2229 81.3853C57.2963 81.3853 58.1788 82.2678 58.1788 83.3411C58.1788 84.4144 57.2963 85.297 56.2229 85.297ZM56.2229 81.8146C55.3762 81.8146 54.6964 82.4944 54.6964 83.3411C54.6964 84.1878 55.3762 84.8676 56.2229 84.8676C57.0697 84.8676 57.7495 84.1878 57.7495 83.3411C57.7495 82.4944 57.0697 81.8146 56.2229 81.8146Z" fill="#0B0B0B"/>
    <path d="M55.7091 82.5345L55.4055 82.8381L56.7126 84.1452L57.0162 83.8416L55.7091 82.5345Z" fill="#0B0B0B"/>
    <path d="M56.7126 82.5262L55.4055 83.8333L55.7091 84.1368L57.0162 82.8297L56.7126 82.5262Z" fill="#0B0B0B"/>
    <path d="M115.209 89.614C116.171 89.614 116.95 88.8344 116.95 87.8728C116.95 86.9111 116.171 86.1316 115.209 86.1316C114.248 86.1316 113.468 86.9111 113.468 87.8728C113.468 88.8344 114.248 89.614 115.209 89.614Z" fill="#575756"/>
    <path d="M113.242 87.8728C113.242 86.7876 114.124 85.917 115.198 85.917C116.271 85.917 117.153 86.7995 117.153 87.8728C117.153 88.9462 116.271 89.8287 115.198 89.8287C114.124 89.8287 113.242 88.9462 113.242 87.8728ZM113.695 87.8728C113.695 88.7196 114.375 89.3994 115.221 89.3994C116.068 89.3994 116.748 88.7196 116.748 87.8728C116.748 87.0261 116.068 86.3463 115.221 86.3463C114.375 86.3463 113.695 87.0261 113.695 87.8728Z" fill="#0B0B0B"/>
    <path d="M115.717 87.074L114.41 88.3811L114.713 88.6847L116.02 87.3776L115.717 87.074Z" fill="#0B0B0B"/>
    <path d="M114.704 87.062L114.401 87.3656L115.708 88.6727L116.012 88.3691L114.704 87.062Z" fill="#0B0B0B"/>
    <path d="M119.657 85.0823C120.619 85.0823 121.399 84.3028 121.399 83.3412C121.399 82.3795 120.619 81.6 119.657 81.6C118.696 81.6 117.916 82.3795 117.916 83.3412C117.916 84.3028 118.696 85.0823 119.657 85.0823Z" fill="#575756"/>
    <path d="M117.702 83.3411C117.702 82.2558 118.584 81.3853 119.658 81.3853C120.731 81.3853 121.613 82.2678 121.613 83.3411C121.613 84.4144 120.731 85.297 119.658 85.297C118.584 85.297 117.702 84.4144 117.702 83.3411ZM118.131 83.3411C118.131 84.1878 118.811 84.8676 119.658 84.8676C120.504 84.8676 121.184 84.1878 121.184 83.3411C121.184 82.4944 120.504 81.8146 119.658 81.8146C118.811 81.8146 118.131 82.4944 118.131 83.3411Z" fill="#0B0B0B"/>
    <path d="M120.148 82.5249L118.841 83.832L119.145 84.1356L120.452 82.8285L120.148 82.5249Z" fill="#0B0B0B"/>
    <path d="M119.145 82.5335L118.841 82.837L120.148 84.1441L120.452 83.8405L119.145 82.5335Z" fill="#0B0B0B"/>
    <path d="M119.372 23.5441C120.333 23.5441 121.113 22.7646 121.113 21.803C121.113 20.8413 120.333 20.0618 119.372 20.0618C118.41 20.0618 117.63 20.8413 117.63 21.803C117.63 22.7646 118.41 23.5441 119.372 23.5441Z" fill="#575756"/>
    <path d="M119.371 23.7589C118.286 23.7589 117.416 22.8764 117.416 21.803C117.416 20.7297 118.298 19.8472 119.371 19.8472C120.445 19.8472 121.327 20.7297 121.327 21.803C121.327 22.8764 120.445 23.7589 119.371 23.7589ZM119.371 20.2765C118.525 20.2765 117.845 20.9563 117.845 21.803C117.845 22.6498 118.525 23.3295 119.371 23.3295C120.218 23.3295 120.898 22.6498 120.898 21.803C120.898 20.9563 120.218 20.2765 119.371 20.2765Z" fill="#0B0B0B"/>
    <path d="M118.855 20.9785L118.551 21.2821L119.858 22.5892L120.162 22.2856L118.855 20.9785Z" fill="#0B0B0B"/>
    <path d="M119.867 20.9904L118.56 22.2975L118.863 22.6011L120.17 21.294L119.867 20.9904Z" fill="#0B0B0B"/>
    <path d="M57.7983 23.5441C58.7599 23.5441 59.5395 22.7646 59.5395 21.803C59.5395 20.8413 58.7599 20.0618 57.7983 20.0618C56.8367 20.0618 56.0571 20.8413 56.0571 21.803C56.0571 22.7646 56.8367 23.5441 57.7983 23.5441Z" fill="#575756"/>
    <path d="M57.7981 23.7589C56.7129 23.7589 55.8423 22.8764 55.8423 21.803C55.8423 20.7297 56.7248 19.8472 57.7981 19.8472C58.8715 19.8472 59.754 20.7297 59.754 21.803C59.754 22.8764 58.8715 23.7589 57.7981 23.7589ZM57.7981 20.2765C56.9514 20.2765 56.2716 20.9563 56.2716 21.803C56.2716 22.6498 56.9514 23.3295 57.7981 23.3295C58.6449 23.3295 59.3247 22.6498 59.3247 21.803C59.3247 20.9563 58.6449 20.2765 57.7981 20.2765Z" fill="#0B0B0B"/>
    <path d="M57.2924 20.9795L56.9888 21.2831L58.2959 22.5902L58.5995 22.2866L57.2924 20.9795Z" fill="#0B0B0B"/>
    <path d="M58.2959 20.9711L56.9888 22.2782L57.2924 22.5818L58.5995 21.2747L58.2959 20.9711Z" fill="#0B0B0B"/>
    <mask id="mask0_3930_12349" style="mask-type:luminance" maskUnits="userSpaceOnUse" x="58" y="39" width="60" height="22">
        <path d="M109.33 39.2148H66.6949C62.2226 39.2148 58.5972 42.8403 58.5972 47.3125V52.8462C58.5972 57.3184 62.2226 60.9439 66.6949 60.9439H109.33C113.802 60.9439 117.428 57.3184 117.428 52.8462V47.3125C117.428 42.8403 113.802 39.2148 109.33 39.2148Z" fill="white"/>
    </mask>
    <g mask="url(#mask0_3930_12349)">
        <path d="M116.879 37.3186H66.0625C61.5903 37.3186 57.9648 40.9441 57.9648 45.4163V56.0185C57.9648 60.4907 61.5903 64.1162 66.0625 64.1162H116.879C121.351 64.1162 124.977 60.4907 124.977 56.0185V45.4163C124.977 40.9441 121.351 37.3186 116.879 37.3186Z" fill="#380101"/>
        <path d="M118.274 60.109H116.939V61.4447H118.274V60.109Z" fill="#380101"/>
        <path d="M116.926 60.109H115.591V61.4447H116.926V60.109Z" fill="#380101"/>
        <path d="M115.591 60.109H114.255V61.4447H115.591V60.109Z" fill="#380101"/>
        <path d="M114.243 60.109H112.907V61.4447H114.243V60.109Z" fill="#380101"/>
        <path d="M112.908 60.109H111.572V61.4447H112.908V60.109Z" fill="#380101"/>
        <path d="M111.572 60.109H110.236V61.4447H111.572V60.109Z" fill="#380101"/>
        <path d="M110.224 60.109H108.889V61.4447H110.224V60.109Z" fill="#380101"/>
        <path d="M108.888 60.109H107.553V61.4447H108.888V60.109Z" fill="#380101"/>
        <path d="M107.541 60.109H106.205V61.4447H107.541V60.109Z" fill="#380101"/>
        <path d="M106.205 60.109H104.869V61.4447H106.205V60.109Z" fill="#380101"/>
        <path d="M104.858 60.109H103.522V61.4447H104.858V60.109Z" fill="#380101"/>
        <path d="M103.522 60.109H102.186V61.4447H103.522V60.109Z" fill="#380101"/>
        <path d="M102.174 60.109H100.839V61.4447H102.174V60.109Z" fill="#380101"/>
        <path d="M100.85 60.109H99.5144V61.4447H100.85V60.109Z" fill="#380101"/>
        <path d="M99.491 60.109H98.1553V61.4447H99.491V60.109Z" fill="#380101"/>
        <path d="M98.1668 60.109H96.8311V61.4447H98.1668V60.109Z" fill="#380101"/>
        <path d="M96.8316 60.109H95.4958V61.4447H96.8316V60.109Z" fill="#380101"/>
        <path d="M95.4834 60.109H94.1477V61.4447H95.4834V60.109Z" fill="#380101"/>
        <path d="M94.1482 60.109H92.8125V61.4447H94.1482V60.109Z" fill="#380101"/>
        <path d="M92.8001 60.109H91.4644V61.4447H92.8001V60.109Z" fill="#380101"/>
        <path d="M91.4649 60.109H90.1292V61.4447H91.4649V60.109Z" fill="#380101"/>
        <path d="M90.117 60.109H88.7812V61.4447H90.117V60.109Z" fill="#380101"/>
        <path d="M88.7815 60.109H87.4458V61.4447H88.7815V60.109Z" fill="#380101"/>
        <path d="M87.4336 60.109H86.0979V61.4447H87.4336V60.109Z" fill="#380101"/>
        <path d="M86.1099 60.109H84.7742V61.4447H86.1099V60.109Z" fill="#380101"/>
        <path d="M84.7503 60.109H83.4146V61.4447H84.7503V60.109Z" fill="#380101"/>
        <path d="M83.4265 60.109H82.0908V61.4447H83.4265V60.109Z" fill="#380101"/>
        <path d="M82.0906 60.109H80.7549V61.4447H82.0906V60.109Z" fill="#380101"/>
        <path d="M80.7432 60.109H79.4075V61.4447H80.7432V60.109Z" fill="#380101"/>
        <path d="M79.4075 60.109H78.0718V61.4447H79.4075V60.109Z" fill="#380101"/>
        <path d="M78.0598 60.109H76.7241V61.4447H78.0598V60.109Z" fill="#380101"/>
        <path d="M76.7241 60.109H75.3884V61.4447H76.7241V60.109Z" fill="#380101"/>
        <path d="M75.3887 60.109H74.053V61.4447H75.3887V60.109Z" fill="#380101"/>
        <path d="M74.0408 60.109H72.7051V61.4447H74.0408V60.109Z" fill="#380101"/>
        <path d="M72.7053 60.109H71.3696V61.4447H72.7053V60.109Z" fill="#380101"/>
        <path d="M71.3696 60.109H70.0339V61.4447H71.3696V60.109Z" fill="#380101"/>
        <path d="M70.0222 60.109H68.6865V61.4447H70.0222V60.109Z" fill="#380101"/>
        <path d="M68.6863 60.109H67.3506V61.4447H68.6863V60.109Z" fill="#380101"/>
        <path d="M67.3389 60.109H66.0032V61.4447H67.3389V60.109Z" fill="#380101"/>
        <path d="M66.0029 60.109H64.6672V61.4447H66.0029V60.109Z" fill="#380101"/>
        <path d="M64.667 60.109H63.3313V61.4447H64.667V60.109Z" fill="#380101"/>
        <path d="M63.3196 60.109H61.9839V61.4447H63.3196V60.109Z" fill="#380101"/>
        <path d="M61.9837 60.109H60.6479V61.4447H61.9837V60.109Z" fill="#380101"/>
        <path d="M60.648 60.109H59.3123V61.4447H60.648V60.109Z" fill="#380101"/>
        <path d="M59.3005 60.109H57.9648V61.4447H59.3005V60.109Z" fill="#380101"/>
        <path d="M118.274 58.7614H116.939V60.0971H118.274V58.7614Z" fill="#380101"/>
        <path d="M116.926 58.7614H115.591V60.0971H116.926V58.7614Z" fill="#380101"/>
        <path d="M115.591 58.7614H114.255V60.0971H115.591V58.7614Z" fill="#380101"/>
        <path d="M114.243 58.7614H112.907V60.0971H114.243V58.7614Z" fill="#380101"/>
        <path d="M112.908 58.7614H111.572V60.0971H112.908V58.7614Z" fill="#380101"/>
        <path d="M111.572 58.7614H110.236V60.0971H111.572V58.7614Z" fill="#380101"/>
        <path d="M110.224 58.7614H108.889V60.0971H110.224V58.7614Z" fill="#380101"/>
        <path d="M108.888 58.7614H107.553V60.0971H108.888V58.7614Z" fill="#380101"/>
        <path d="M107.541 58.7614H106.205V60.0971H107.541V58.7614Z" fill="#380101"/>
        <path d="M106.205 58.7614H104.869V60.0971H106.205V58.7614Z" fill="#380101"/>
        <path d="M104.858 58.7614H103.522V60.0971H104.858V58.7614Z" fill="#380101"/>
        <path d="M103.522 58.7614H102.186V60.0971H103.522V58.7614Z" fill="#380101"/>
        <path d="M102.174 58.7614H100.839V60.0971H102.174V58.7614Z" fill="#380101"/>
        <path d="M100.85 58.7614H99.5144V60.0971H100.85V58.7614Z" fill="#380101"/>
        <path d="M99.491 58.7614H98.1553V60.0971H99.491V58.7614Z" fill="#380101"/>
        <path d="M98.1668 58.7614H96.8311V60.0971H98.1668V58.7614Z" fill="#380101"/>
        <path d="M96.8316 58.7614H95.4958V60.0971H96.8316V58.7614Z" fill="#380101"/>
        <path d="M95.4834 58.7614H94.1477V60.0971H95.4834V58.7614Z" fill="#380101"/>
        <path d="M94.1482 58.7614H92.8125V60.0971H94.1482V58.7614Z" fill="#380101"/>
        <path d="M92.8001 58.7614H91.4644V60.0971H92.8001V58.7614Z" fill="#380101"/>
        <path d="M91.4649 58.7614H90.1292V60.0971H91.4649V58.7614Z" fill="#380101"/>
        <path d="M90.117 58.7614H88.7812V60.0971H90.117V58.7614Z" fill="#380101"/>
        <path d="M88.7815 58.7614H87.4458V60.0971H88.7815V58.7614Z" fill="#380101"/>
        <path d="M87.4336 58.7614H86.0979V60.0971H87.4336V58.7614Z" fill="#380101"/>
        <path d="M86.1099 58.7614H84.7742V60.0971H86.1099V58.7614Z" fill="#380101"/>
        <path d="M84.7503 58.7614H83.4146V60.0971H84.7503V58.7614Z" fill="#380101"/>
        <path d="M83.4265 58.7614H82.0908V60.0971H83.4265V58.7614Z" fill="#380101"/>
        <path d="M82.0906 58.7614H80.7549V60.0971H82.0906V58.7614Z" fill="#380101"/>
        <path d="M80.7432 58.7614H79.4075V60.0971H80.7432V58.7614Z" fill="#380101"/>
        <path d="M79.4075 58.7614H78.0718V60.0971H79.4075V58.7614Z" fill="#380101"/>
        <path d="M78.0598 58.7614H76.7241V60.0971H78.0598V58.7614Z" fill="#380101"/>
        <path d="M76.7241 58.7614H75.3884V60.0971H76.7241V58.7614Z" fill="#380101"/>
        <path d="M75.3887 58.7614H74.053V60.0971H75.3887V58.7614Z" fill="#380101"/>
        <path d="M74.0408 58.7614H72.7051V60.0971H74.0408V58.7614Z" fill="#380101"/>
        <path d="M72.7053 58.7614H71.3696V60.0971H72.7053V58.7614Z" fill="#380101"/>
        <path d="M71.3696 58.7614H70.0339V60.0971H71.3696V58.7614Z" fill="#380101"/>
        <path d="M70.0222 58.7614H68.6865V60.0971H70.0222V58.7614Z" fill="#380101"/>
        <path d="M68.6863 58.7614H67.3506V60.0971H68.6863V58.7614Z" fill="#380101"/>
        <path d="M67.3389 58.7614H66.0032V60.0971H67.3389V58.7614Z" fill="#380101"/>
        <path d="M66.0029 58.7614H64.6672V60.0971H66.0029V58.7614Z" fill="#380101"/>
        <path d="M64.667 58.7614H63.3313V60.0971H64.667V58.7614Z" fill="#380101"/>
        <path d="M63.3196 58.7614H61.9839V60.0971H63.3196V58.7614Z" fill="#380101"/>
        <path d="M61.9837 58.7614H60.6479V60.0971H61.9837V58.7614Z" fill="#380101"/>
        <path d="M60.648 58.7614H59.3123V60.0971H60.648V58.7614Z" fill="#380101"/>
        <path d="M59.3005 58.7614H57.9648V60.0971H59.3005V58.7614Z" fill="#380101"/>
        <path d="M118.25 57.4257H116.915V58.7614H118.25V57.4257Z" fill="#380101"/>
        <path d="M116.926 57.4257H115.591V58.7614H116.926V57.4257Z" fill="#380101"/>
        <path d="M115.567 57.4257H114.231V58.7614H115.567V57.4257Z" fill="#380101"/>
        <path d="M114.243 57.4257H112.907V58.7614H114.243V57.4257Z" fill="#380101"/>
        <path d="M112.908 57.4257H111.572V58.7614H112.908V57.4257Z" fill="#380101"/>
        <path d="M111.572 57.4257H110.236V58.7614H111.572V57.4257Z" fill="#380101"/>
        <path d="M110.224 57.4257H108.889V58.7614H110.224V57.4257Z" fill="#380101"/>
        <path d="M108.888 57.4257H107.553V58.7614H108.888V57.4257Z" fill="#380101"/>
        <path d="M107.541 57.4257H106.205V58.7614H107.541V57.4257Z" fill="#380101"/>
        <path d="M106.205 57.4257H104.869V58.7614H106.205V57.4257Z" fill="#380101"/>
        <path d="M104.858 57.4257H103.522V58.7614H104.858V57.4257Z" fill="#380101"/>
        <path d="M103.522 57.4257H102.186V58.7614H103.522V57.4257Z" fill="#380101"/>
        <path d="M102.174 57.4257H100.839V58.7614H102.174V57.4257Z" fill="#380101"/>
        <path d="M100.85 57.4257H99.5144V58.7614H100.85V57.4257Z" fill="#380101"/>
        <path d="M99.491 57.4257H98.1553V58.7614H99.491V57.4257Z" fill="#380101"/>
        <path d="M98.1668 57.4257H96.8311V58.7614H98.1668V57.4257Z" fill="#380101"/>
        <path d="M96.8316 57.4257H95.4958V58.7614H96.8316V57.4257Z" fill="#380101"/>
        <path d="M95.4834 57.4257H94.1477V58.7614H95.4834V57.4257Z" fill="#380101"/>
        <path d="M94.1482 57.4257H92.8125V58.7614H94.1482V57.4257Z" fill="#380101"/>
        <path d="M92.8001 57.4257H91.4644V58.7614H92.8001V57.4257Z" fill="#380101"/>
        <path d="M91.4649 57.4257H90.1292V58.7614H91.4649V57.4257Z" fill="#380101"/>
        <path d="M90.117 57.4257H88.7812V58.7614H90.117V57.4257Z" fill="#380101"/>
        <path d="M88.7815 57.4257H87.4458V58.7614H88.7815V57.4257Z" fill="#380101"/>
        <path d="M87.4336 57.4257H86.0979V58.7614H87.4336V57.4257Z" fill="#380101"/>
        <path d="M86.1099 57.4257H84.7742V58.7614H86.1099V57.4257Z" fill="#380101"/>
        <path d="M84.7503 57.4257H83.4146V58.7614H84.7503V57.4257Z" fill="#380101"/>
        <path d="M83.4265 57.4257H82.0908V58.7614H83.4265V57.4257Z" fill="#380101"/>
        <path d="M82.0906 57.4257H80.7549V58.7614H82.0906V57.4257Z" fill="#380101"/>
        <path d="M80.7432 57.4257H79.4075V58.7614H80.7432V57.4257Z" fill="#380101"/>
        <path d="M79.4075 57.4257H78.0718V58.7614H79.4075V57.4257Z" fill="#380101"/>
        <path d="M78.0598 57.4257H76.7241V58.7614H78.0598V57.4257Z" fill="#380101"/>
        <path d="M76.7241 57.4257H75.3884V58.7614H76.7241V57.4257Z" fill="#380101"/>
        <path d="M75.3887 57.4257H74.053V58.7614H75.3887V57.4257Z" fill="#380101"/>
        <path d="M74.0408 57.4257H72.7051V58.7614H74.0408V57.4257Z" fill="#380101"/>
        <path d="M72.7053 57.4257H71.3696V58.7614H72.7053V57.4257Z" fill="#380101"/>
        <path d="M71.3696 57.4257H70.0339V58.7614H71.3696V57.4257Z" fill="#380101"/>
        <path d="M70.0222 57.4257H68.6865V58.7614H70.0222V57.4257Z" fill="#380101"/>
        <path d="M68.6863 57.4257H67.3506V58.7614H68.6863V57.4257Z" fill="#380101"/>
        <path d="M67.3389 57.4257H66.0032V58.7614H67.3389V57.4257Z" fill="#380101"/>
        <path d="M66.0029 57.4257H64.6672V58.7614H66.0029V57.4257Z" fill="#380101"/>
        <path d="M64.667 57.4257H63.3313V58.7614H64.667V57.4257Z" fill="#380101"/>
        <path d="M63.3196 57.4257H61.9839V58.7614H63.3196V57.4257Z" fill="#380101"/>
        <path d="M61.9837 57.4257H60.6479V58.7614H61.9837V57.4257Z" fill="#380101"/>
        <path d="M60.648 57.4257H59.3123V58.7614H60.648V57.4257Z" fill="#380101"/>
        <path d="M59.3005 57.4257H57.9648V58.7614H59.3005V57.4257Z" fill="#380101"/>
        <path d="M112.908 56.09H111.572V57.4257H112.908V56.09Z" fill="#380101"/>
        <path d="M111.572 56.09H110.236V57.4257H111.572V56.09Z" fill="#380101"/>
        <path d="M110.224 56.09H108.889V57.4257H110.224V56.09Z" fill="#380101"/>
        <path d="M108.888 56.09H107.553V57.4257H108.888V56.09Z" fill="#380101"/>
        <path d="M107.541 56.09H106.205V57.4257H107.541V56.09Z" fill="#380101"/>
        <path d="M106.205 56.09H104.869V57.4257H106.205V56.09Z" fill="#380101"/>
        <path d="M104.858 56.09H103.522V57.4257H104.858V56.09Z" fill="#380101"/>
        <path d="M103.522 56.09H102.186V57.4257H103.522V56.09Z" fill="#380101"/>
        <path d="M102.174 56.09H100.839V57.4257H102.174V56.09Z" fill="#380101"/>
        <path d="M100.85 56.09H99.5144V57.4257H100.85V56.09Z" fill="#380101"/>
        <path d="M99.491 56.09H98.1553V57.4257H99.491V56.09Z" fill="#380101"/>
        <path d="M98.1668 56.09H96.8311V57.4257H98.1668V56.09Z" fill="#380101"/>
        <path d="M96.8316 56.09H95.4958V57.4257H96.8316V56.09Z" fill="#380101"/>
        <path d="M95.4834 56.09H94.1477V57.4257H95.4834V56.09Z" fill="#380101"/>
        <path d="M94.1482 56.09H92.8125V57.4257H94.1482V56.09Z" fill="#380101"/>
        <path d="M92.8001 56.09H91.4644V57.4257H92.8001V56.09Z" fill="#380101"/>
        <path d="M91.4649 56.09H90.1292V57.4257H91.4649V56.09Z" fill="#380101"/>
        <path d="M90.117 56.09H88.7812V57.4257H90.117V56.09Z" fill="#380101"/>
        <path d="M88.7815 56.09H87.4458V57.4257H88.7815V56.09Z" fill="#380101"/>
        <path d="M87.4336 56.09H86.0979V57.4257H87.4336V56.09Z" fill="#380101"/>
        <path d="M86.1099 56.09H84.7742V57.4257H86.1099V56.09Z" fill="#380101"/>
        <path d="M84.7503 56.09H83.4146V57.4257H84.7503V56.09Z" fill="#380101"/>
        <path d="M83.4265 56.09H82.0908V57.4257H83.4265V56.09Z" fill="#380101"/>
        <path d="M82.0906 56.09H80.7549V57.4257H82.0906V56.09Z" fill="#380101"/>
        <path d="M80.7432 56.09H79.4075V57.4257H80.7432V56.09Z" fill="#380101"/>
        <path d="M79.4075 56.09H78.0718V57.4257H79.4075V56.09Z" fill="#380101"/>
        <path d="M78.0598 56.09H76.7241V57.4257H78.0598V56.09Z" fill="#380101"/>
        <path d="M76.7241 56.09H75.3884V57.4257H76.7241V56.09Z" fill="#380101"/>
        <path d="M75.3887 56.09H74.053V57.4257H75.3887V56.09Z" fill="#380101"/>
        <path d="M74.0408 56.09H72.7051V57.4257H74.0408V56.09Z" fill="#380101"/>
        <path d="M72.7053 56.09H71.3696V57.4257H72.7053V56.09Z" fill="#380101"/>
        <path d="M71.3574 56.09H70.0217V57.4257H71.3574V56.09Z" fill="#380101"/>
        <path d="M64.6555 56.09H63.3198V57.4257H64.6555V56.09Z" fill="#380101"/>
        <path d="M63.3196 56.09H61.9839V57.4257H63.3196V56.09Z" fill="#380101"/>
        <path d="M61.9837 56.09H60.6479V57.4257H61.9837V56.09Z" fill="#380101"/>
        <path d="M60.648 56.09H59.3123V57.4257H60.648V56.09Z" fill="#380101"/>
        <path d="M59.3005 56.09H57.9648V57.4257H59.3005V56.09Z" fill="#380101"/>
        <path d="M111.56 54.7423H110.224V56.078H111.56V54.7423Z" fill="#380101"/>
        <path d="M110.224 54.7423H108.889V56.078H110.224V54.7423Z" fill="#380101"/>
        <path d="M108.888 54.7423H107.553V56.078H108.888V54.7423Z" fill="#380101"/>
        <path d="M107.541 54.7423H106.205V56.078H107.541V54.7423Z" fill="#380101"/>
        <path d="M106.205 54.7423H104.869V56.078H106.205V54.7423Z" fill="#380101"/>
        <path d="M104.858 54.7423H103.522V56.078H104.858V54.7423Z" fill="#380101"/>
        <path d="M103.522 54.7423H102.186V56.078H103.522V54.7423Z" fill="#380101"/>
        <path d="M102.174 54.7423H100.839V56.078H102.174V54.7423Z" fill="#380101"/>
        <path d="M100.85 54.7423H99.5144V56.078H100.85V54.7423Z" fill="#380101"/>
        <path d="M99.491 54.7423H98.1553V56.078H99.491V54.7423Z" fill="#380101"/>
        <path d="M98.1668 54.7423H96.8311V56.078H98.1668V54.7423Z" fill="#380101"/>
        <path d="M96.8316 54.7423H95.4958V56.078H96.8316V54.7423Z" fill="#380101"/>
        <path d="M95.4834 54.7423H94.1477V56.078H95.4834V54.7423Z" fill="#380101"/>
        <path d="M94.1482 54.7423H92.8125V56.078H94.1482V54.7423Z" fill="#380101"/>
        <path d="M92.8001 54.7423H91.4644V56.078H92.8001V54.7423Z" fill="#380101"/>
        <path d="M91.4649 54.7423H90.1292V56.078H91.4649V54.7423Z" fill="#380101"/>
        <path d="M90.117 54.7423H88.7812V56.078H90.117V54.7423Z" fill="#380101"/>
        <path d="M88.7815 54.7423H87.4458V56.078H88.7815V54.7423Z" fill="#380101"/>
        <path d="M87.4336 54.7423H86.0979V56.078H87.4336V54.7423Z" fill="#380101"/>
        <path d="M86.1099 54.7423H84.7742V56.078H86.1099V54.7423Z" fill="#380101"/>
        <path d="M84.7503 54.7423H83.4146V56.078H84.7503V54.7423Z" fill="#380101"/>
        <path d="M83.4265 54.7423H82.0908V56.078H83.4265V54.7423Z" fill="#380101"/>
        <path d="M82.0906 54.7423H80.7549V56.078H82.0906V54.7423Z" fill="#380101"/>
        <path d="M80.7432 54.7423H79.4075V56.078H80.7432V54.7423Z" fill="#380101"/>
        <path d="M79.4075 54.7423H78.0718V56.078H79.4075V54.7423Z" fill="#380101"/>
        <path d="M78.0598 54.7423H76.7241V56.078H78.0598V54.7423Z" fill="#380101"/>
        <path d="M76.7241 54.7423H75.3884V56.078H76.7241V54.7423Z" fill="#380101"/>
        <path d="M75.3887 54.7423H74.053V56.078H75.3887V54.7423Z" fill="#380101"/>
        <path d="M74.0408 54.7423H72.7051V56.078H74.0408V54.7423Z" fill="#380101"/>
        <path d="M72.7053 54.7423H71.3696V56.078H72.7053V54.7423Z" fill="#380101"/>
        <path d="M63.3196 54.7423H61.9839V56.078H63.3196V54.7423Z" fill="#380101"/>
        <path d="M61.9837 54.7423H60.6479V56.078H61.9837V54.7423Z" fill="#380101"/>
        <path d="M60.648 54.7423H59.3123V56.078H60.648V54.7423Z" fill="#380101"/>
        <path d="M59.3005 54.7423H57.9648V56.078H59.3005V54.7423Z" fill="#380101"/>
        <path d="M110.224 53.4066H108.889V54.7423H110.224V53.4066Z" fill="#380101"/>
        <path d="M108.888 53.4066H107.553V54.7423H108.888V53.4066Z" fill="#380101"/>
        <path d="M107.541 53.4066H106.205V54.7423H107.541V53.4066Z" fill="#380101"/>
        <path d="M106.205 53.4066H104.869V54.7423H106.205V53.4066Z" fill="#380101"/>
        <path d="M104.858 53.4066H103.522V54.7423H104.858V53.4066Z" fill="#380101"/>
        <path d="M103.522 53.4066H102.186V54.7423H103.522V53.4066Z" fill="#380101"/>
        <path d="M102.174 53.4066H100.839V54.7423H102.174V53.4066Z" fill="#380101"/>
        <path d="M100.85 53.4066H99.5144V54.7423H100.85V53.4066Z" fill="#380101"/>
        <path d="M99.491 53.4066H98.1553V54.7423H99.491V53.4066Z" fill="#380101"/>
        <path d="M98.1668 53.4066H96.8311V54.7423H98.1668V53.4066Z" fill="#380101"/>
        <path d="M96.8316 53.4066H95.4958V54.7423H96.8316V53.4066Z" fill="#380101"/>
        <path d="M95.4834 53.4066H94.1477V54.7423H95.4834V53.4066Z" fill="#380101"/>
        <path d="M94.1482 53.4066H92.8125V54.7423H94.1482V53.4066Z" fill="#380101"/>
        <path d="M92.8001 53.4066H91.4644V54.7423H92.8001V53.4066Z" fill="#380101"/>
        <path d="M91.4649 53.4066H90.1292V54.7423H91.4649V53.4066Z" fill="#380101"/>
        <path d="M90.117 53.4066H88.7812V54.7423H90.117V53.4066Z" fill="#380101"/>
        <path d="M88.7815 53.4066H87.4458V54.7423H88.7815V53.4066Z" fill="#380101"/>
        <path d="M87.4336 53.4066H86.0979V54.7423H87.4336V53.4066Z" fill="#380101"/>
        <path d="M86.1099 53.4066H84.7742V54.7423H86.1099V53.4066Z" fill="#380101"/>
        <path d="M84.7503 53.4066H83.4146V54.7423H84.7503V53.4066Z" fill="#380101"/>
        <path d="M83.4265 53.4066H82.0908V54.7423H83.4265V53.4066Z" fill="#380101"/>
        <path d="M82.0906 53.4066H80.7549V54.7423H82.0906V53.4066Z" fill="#380101"/>
        <path d="M80.7432 53.4066H79.4075V54.7423H80.7432V53.4066Z" fill="#380101"/>
        <path d="M79.4075 53.4066H78.0718V54.7423H79.4075V53.4066Z" fill="#380101"/>
        <path d="M78.0598 53.4066H76.7241V54.7423H78.0598V53.4066Z" fill="#380101"/>
        <path d="M76.7241 53.4066H75.3884V54.7423H76.7241V53.4066Z" fill="#380101"/>
        <path d="M75.3887 53.4066H74.053V54.7423H75.3887V53.4066Z" fill="#380101"/>
        <path d="M74.0408 53.4066H72.7051V54.7423H74.0408V53.4066Z" fill="#380101"/>
        <path d="M61.9837 53.4066H60.6479V54.7423H61.9837V53.4066Z" fill="#380101"/>
        <path d="M60.648 53.4066H59.3123V54.7423H60.648V53.4066Z" fill="#380101"/>
        <path d="M59.3005 53.4066H57.9648V54.7423H59.3005V53.4066Z" fill="#380101"/>
        <path d="M108.888 52.071H107.553V53.4067H108.888V52.071Z" fill="#380101"/>
        <path d="M107.541 52.0591H106.205V53.3948H107.541V52.0591Z" fill="#380101"/>
        <path d="M106.205 52.0591H104.869V53.3948H106.205V52.0591Z" fill="#380101"/>
        <path d="M104.858 52.0591H103.522V53.3948H104.858V52.0591Z" fill="#380101"/>
        <path d="M103.522 52.0591H102.186V53.3948H103.522V52.0591Z" fill="#380101"/>
        <path d="M102.174 52.0591H100.839V53.3948H102.174V52.0591Z" fill="#380101"/>
        <path d="M100.85 52.0591H99.5144V53.3948H100.85V52.0591Z" fill="#380101"/>
        <path d="M99.491 52.0591H98.1553V53.3948H99.491V52.0591Z" fill="#380101"/>
        <path d="M98.1668 52.0591H96.8311V53.3948H98.1668V52.0591Z" fill="#380101"/>
        <path d="M96.8316 52.0591H95.4958V53.3948H96.8316V52.0591Z" fill="#380101"/>
        <path d="M95.4834 52.0591H94.1477V53.3948H95.4834V52.0591Z" fill="#380101"/>
        <path d="M94.1482 52.0591H92.8125V53.3948H94.1482V52.0591Z" fill="#380101"/>
        <path d="M92.8001 52.0591H91.4644V53.3948H92.8001V52.0591Z" fill="#380101"/>
        <path d="M91.4649 52.0591H90.1292V53.3948H91.4649V52.0591Z" fill="#380101"/>
        <path d="M90.117 52.0591H88.7812V53.3948H90.117V52.0591Z" fill="#380101"/>
        <path d="M88.7815 52.0591H87.4458V53.3948H88.7815V52.0591Z" fill="#380101"/>
        <path d="M87.4336 52.0591H86.0979V53.3948H87.4336V52.0591Z" fill="#380101"/>
        <path d="M86.1099 52.0591H84.7742V53.3948H86.1099V52.0591Z" fill="#380101"/>
        <path d="M84.7503 52.0591H83.4146V53.3948H84.7503V52.0591Z" fill="#380101"/>
        <path d="M83.4265 52.0591H82.0908V53.3948H83.4265V52.0591Z" fill="#380101"/>
        <path d="M82.0906 52.0591H80.7549V53.3948H82.0906V52.0591Z" fill="#380101"/>
        <path d="M80.7432 52.0591H79.4075V53.3948H80.7432V52.0591Z" fill="#380101"/>
        <path d="M79.4075 52.0591H78.0718V53.3948H79.4075V52.0591Z" fill="#380101"/>
        <path d="M78.0598 52.0591H76.7241V53.3948H78.0598V52.0591Z" fill="#380101"/>
        <path d="M76.7241 52.0591H75.3884V53.3948H76.7241V52.0591Z" fill="#380101"/>
        <path d="M75.3765 52.071H74.0408V53.4067H75.3765V52.071Z" fill="#380101"/>
        <path d="M60.6362 52.071H59.3005V53.4067H60.6362V52.071Z" fill="#380101"/>
        <path d="M59.3005 52.0591H57.9648V53.3948H59.3005V52.0591Z" fill="#380101"/>
        <path d="M108.888 50.7233H107.553V52.059H108.888V50.7233Z" fill="#380101"/>
        <path d="M107.541 50.7233H106.205V52.059H107.541V50.7233Z" fill="#380101"/>
        <path d="M106.205 50.7233H104.869V52.059H106.205V50.7233Z" fill="#380101"/>
        <path d="M104.858 50.7233H103.522V52.059H104.858V50.7233Z" fill="#380101"/>
        <path d="M103.522 50.7233H102.186V52.059H103.522V50.7233Z" fill="#380101"/>
        <path d="M102.174 50.7233H100.839V52.059H102.174V50.7233Z" fill="#380101"/>
        <path d="M100.85 50.7233H99.5144V52.059H100.85V50.7233Z" fill="#380101"/>
        <path d="M99.491 50.7233H98.1553V52.059H99.491V50.7233Z" fill="#380101"/>
        <path d="M98.1668 50.7233H96.8311V52.059H98.1668V50.7233Z" fill="#380101"/>
        <path d="M96.8316 50.7233H95.4958V52.059H96.8316V50.7233Z" fill="#380101"/>
        <path d="M95.4834 50.7233H94.1477V52.059H95.4834V50.7233Z" fill="#380101"/>
        <path d="M94.1482 50.7233H92.8125V52.059H94.1482V50.7233Z" fill="#380101"/>
        <path d="M92.8001 50.7233H91.4644V52.059H92.8001V50.7233Z" fill="#380101"/>
        <path d="M91.4649 50.7233H90.1292V52.059H91.4649V50.7233Z" fill="#380101"/>
        <path d="M90.117 50.7233H88.7812V52.059H90.117V50.7233Z" fill="#380101"/>
        <path d="M88.7815 50.7233H87.4458V52.059H88.7815V50.7233Z" fill="#380101"/>
        <path d="M87.4336 50.7233H86.0979V52.059H87.4336V50.7233Z" fill="#380101"/>
        <path d="M86.1099 50.7233H84.7742V52.059H86.1099V50.7233Z" fill="#380101"/>
        <path d="M84.7503 50.7233H83.4146V52.059H84.7503V50.7233Z" fill="#380101"/>
        <path d="M83.4265 50.7233H82.0908V52.059H83.4265V50.7233Z" fill="#380101"/>
        <path d="M82.0906 50.7233H80.7549V52.059H82.0906V50.7233Z" fill="#380101"/>
        <path d="M80.7432 50.7233H79.4075V52.059H80.7432V50.7233Z" fill="#380101"/>
        <path d="M79.4075 50.7233H78.0718V52.059H79.4075V50.7233Z" fill="#380101"/>
        <path d="M78.0598 50.7233H76.7241V52.059H78.0598V50.7233Z" fill="#380101"/>
        <path d="M76.7241 50.7233H75.3884V52.059H76.7241V50.7233Z" fill="#380101"/>
        <path d="M75.3765 50.7233H74.0408V52.059H75.3765V50.7233Z" fill="#380101"/>
        <path d="M60.6362 50.7233H59.3005V52.059H60.6362V50.7233Z" fill="#380101"/>
        <path d="M59.3005 50.7233H57.9648V52.059H59.3005V50.7233Z" fill="#380101"/>
        <path d="M108.888 49.3876H107.553V50.7233H108.888V49.3876Z" fill="#380101"/>
        <path d="M107.541 49.3876H106.205V50.7233H107.541V49.3876Z" fill="#380101"/>
        <path d="M106.205 49.3876H104.869V50.7233H106.205V49.3876Z" fill="#380101"/>
        <path d="M104.858 49.3876H103.522V50.7233H104.858V49.3876Z" fill="#380101"/>
        <path d="M103.522 49.3876H102.186V50.7233H103.522V49.3876Z" fill="#380101"/>
        <path d="M102.174 49.3876H100.839V50.7233H102.174V49.3876Z" fill="#380101"/>
        <path d="M100.85 49.3876H99.5144V50.7233H100.85V49.3876Z" fill="#380101"/>
        <path d="M99.491 49.3876H98.1553V50.7233H99.491V49.3876Z" fill="#380101"/>
        <path d="M98.1668 49.3876H96.8311V50.7233H98.1668V49.3876Z" fill="#380101"/>
        <path d="M96.8316 49.3876H95.4958V50.7233H96.8316V49.3876Z" fill="#380101"/>
        <path d="M95.4834 49.3876H94.1477V50.7233H95.4834V49.3876Z" fill="#380101"/>
        <path d="M94.1482 49.3876H92.8125V50.7233H94.1482V49.3876Z" fill="#380101"/>
        <path d="M92.8001 49.3876H91.4644V50.7233H92.8001V49.3876Z" fill="#380101"/>
        <path d="M91.4649 49.3876H90.1292V50.7233H91.4649V49.3876Z" fill="#380101"/>
        <path d="M90.117 49.3876H88.7812V50.7233H90.117V49.3876Z" fill="#380101"/>
        <path d="M88.7815 49.3876H87.4458V50.7233H88.7815V49.3876Z" fill="#380101"/>
        <path d="M87.4336 49.3876H86.0979V50.7233H87.4336V49.3876Z" fill="#380101"/>
        <path d="M86.1099 49.3876H84.7742V50.7233H86.1099V49.3876Z" fill="#380101"/>
        <path d="M84.7503 49.3876H83.4146V50.7233H84.7503V49.3876Z" fill="#380101"/>
        <path d="M83.4265 49.3876H82.0908V50.7233H83.4265V49.3876Z" fill="#380101"/>
        <path d="M82.0906 49.3876H80.7549V50.7233H82.0906V49.3876Z" fill="#380101"/>
        <path d="M80.7432 49.3876H79.4075V50.7233H80.7432V49.3876Z" fill="#380101"/>
        <path d="M79.4075 49.3876H78.0718V50.7233H79.4075V49.3876Z" fill="#380101"/>
        <path d="M78.0598 49.3876H76.7241V50.7233H78.0598V49.3876Z" fill="#380101"/>
        <path d="M76.7241 49.3876H75.3884V50.7233H76.7241V49.3876Z" fill="#380101"/>
        <path d="M75.3765 49.3876H74.0408V50.7233H75.3765V49.3876Z" fill="#380101"/>
        <path d="M60.6362 49.3876H59.3005V50.7233H60.6362V49.3876Z" fill="#380101"/>
        <path d="M59.3005 49.3876H57.9648V50.7233H59.3005V49.3876Z" fill="#380101"/>
        <path d="M108.888 48.052H107.553V49.3877H108.888V48.052Z" fill="#380101"/>
        <path d="M107.541 48.04H106.205V49.3757H107.541V48.04Z" fill="#380101"/>
        <path d="M106.205 48.04H104.869V49.3757H106.205V48.04Z" fill="#380101"/>
        <path d="M104.858 48.04H103.522V49.3757H104.858V48.04Z" fill="#380101"/>
        <path d="M103.522 48.04H102.186V49.3757H103.522V48.04Z" fill="#380101"/>
        <path d="M102.174 48.04H100.839V49.3757H102.174V48.04Z" fill="#380101"/>
        <path d="M100.85 48.04H99.5144V49.3757H100.85V48.04Z" fill="#380101"/>
        <path d="M99.491 48.04H98.1553V49.3757H99.491V48.04Z" fill="#380101"/>
        <path d="M98.1668 48.04H96.8311V49.3757H98.1668V48.04Z" fill="#380101"/>
        <path d="M96.8316 48.04H95.4958V49.3757H96.8316V48.04Z" fill="#380101"/>
        <path d="M95.4834 48.04H94.1477V49.3757H95.4834V48.04Z" fill="#380101"/>
        <path d="M94.1482 48.04H92.8125V49.3757H94.1482V48.04Z" fill="#380101"/>
        <path d="M92.8001 48.04H91.4644V49.3757H92.8001V48.04Z" fill="#380101"/>
        <path d="M91.4649 48.04H90.1292V49.3757H91.4649V48.04Z" fill="#380101"/>
        <path d="M90.117 48.04H88.7812V49.3757H90.117V48.04Z" fill="#380101"/>
        <path d="M88.7815 48.04H87.4458V49.3757H88.7815V48.04Z" fill="#380101"/>
        <path d="M87.4336 48.04H86.0979V49.3757H87.4336V48.04Z" fill="#380101"/>
        <path d="M86.1099 48.04H84.7742V49.3757H86.1099V48.04Z" fill="#380101"/>
        <path d="M84.7503 48.04H83.4146V49.3757H84.7503V48.04Z" fill="#380101"/>
        <path d="M83.4265 48.04H82.0908V49.3757H83.4265V48.04Z" fill="#380101"/>
        <path d="M82.0906 48.04H80.7549V49.3757H82.0906V48.04Z" fill="#380101"/>
        <path d="M80.7432 48.04H79.4075V49.3757H80.7432V48.04Z" fill="#380101"/>
        <path d="M79.4075 48.04H78.0718V49.3757H79.4075V48.04Z" fill="#380101"/>
        <path d="M78.0598 48.04H76.7241V49.3757H78.0598V48.04Z" fill="#380101"/>
        <path d="M76.7241 48.04H75.3884V49.3757H76.7241V48.04Z" fill="#380101"/>
        <path d="M75.3765 48.052H74.0408V49.3877H75.3765V48.052Z" fill="#380101"/>
        <path d="M60.6362 48.052H59.3005V49.3877H60.6362V48.052Z" fill="#380101"/>
        <path d="M59.3005 48.04H57.9648V49.3757H59.3005V48.04Z" fill="#380101"/>
        <path d="M110.224 46.7043H108.889V48.04H110.224V46.7043Z" fill="#380101"/>
        <path d="M108.888 46.7043H107.553V48.04H108.888V46.7043Z" fill="#380101"/>
        <path d="M107.541 46.7043H106.205V48.04H107.541V46.7043Z" fill="#380101"/>
        <path d="M106.205 46.7043H104.869V48.04H106.205V46.7043Z" fill="#380101"/>
        <path d="M104.858 46.7043H103.522V48.04H104.858V46.7043Z" fill="#380101"/>
        <path d="M103.522 46.7043H102.186V48.04H103.522V46.7043Z" fill="#380101"/>
        <path d="M102.174 46.7043H100.839V48.04H102.174V46.7043Z" fill="#380101"/>
        <path d="M100.85 46.7043H99.5144V48.04H100.85V46.7043Z" fill="#380101"/>
        <path d="M99.491 46.7043H98.1553V48.04H99.491V46.7043Z" fill="#380101"/>
        <path d="M98.1668 46.7043H96.8311V48.04H98.1668V46.7043Z" fill="#380101"/>
        <path d="M96.8316 46.7043H95.4958V48.04H96.8316V46.7043Z" fill="#380101"/>
        <path d="M95.4834 46.7043H94.1477V48.04H95.4834V46.7043Z" fill="#380101"/>
        <path d="M94.1482 46.7043H92.8125V48.04H94.1482V46.7043Z" fill="#380101"/>
        <path d="M92.8001 46.7043H91.4644V48.04H92.8001V46.7043Z" fill="#380101"/>
        <path d="M91.4649 46.7043H90.1292V48.04H91.4649V46.7043Z" fill="#380101"/>
        <path d="M90.117 46.7043H88.7812V48.04H90.117V46.7043Z" fill="#380101"/>
        <path d="M88.7815 46.7043H87.4458V48.04H88.7815V46.7043Z" fill="#380101"/>
        <path d="M87.4336 46.7043H86.0979V48.04H87.4336V46.7043Z" fill="#380101"/>
        <path d="M86.1099 46.7043H84.7742V48.04H86.1099V46.7043Z" fill="#380101"/>
        <path d="M84.7503 46.7043H83.4146V48.04H84.7503V46.7043Z" fill="#380101"/>
        <path d="M83.4265 46.7043H82.0908V48.04H83.4265V46.7043Z" fill="#380101"/>
        <path d="M82.0906 46.7043H80.7549V48.04H82.0906V46.7043Z" fill="#380101"/>
        <path d="M80.7432 46.7043H79.4075V48.04H80.7432V46.7043Z" fill="#380101"/>
        <path d="M79.4075 46.7043H78.0718V48.04H79.4075V46.7043Z" fill="#380101"/>
        <path d="M78.0598 46.7043H76.7241V48.04H78.0598V46.7043Z" fill="#380101"/>
        <path d="M76.7241 46.7043H75.3884V48.04H76.7241V46.7043Z" fill="#380101"/>
        <path d="M75.3887 46.7043H74.053V48.04H75.3887V46.7043Z" fill="#380101"/>
        <path d="M74.0408 46.7043H72.7051V48.04H74.0408V46.7043Z" fill="#380101"/>
        <path d="M61.9837 46.7043H60.6479V48.04H61.9837V46.7043Z" fill="#380101"/>
        <path d="M60.648 46.7043H59.3123V48.04H60.648V46.7043Z" fill="#380101"/>
        <path d="M59.3005 46.7043H57.9648V48.04H59.3005V46.7043Z" fill="#380101"/>
        <path d="M111.56 45.3687H110.224V46.7044H111.56V45.3687Z" fill="#380101"/>
        <path d="M110.224 45.3687H108.889V46.7044H110.224V45.3687Z" fill="#380101"/>
        <path d="M108.888 45.3687H107.553V46.7044H108.888V45.3687Z" fill="#380101"/>
        <path d="M107.541 45.3687H106.205V46.7044H107.541V45.3687Z" fill="#380101"/>
        <path d="M106.205 45.3687H104.869V46.7044H106.205V45.3687Z" fill="#380101"/>
        <path d="M104.858 45.3687H103.522V46.7044H104.858V45.3687Z" fill="#380101"/>
        <path d="M103.522 45.3687H102.186V46.7044H103.522V45.3687Z" fill="#380101"/>
        <path d="M102.174 45.3687H100.839V46.7044H102.174V45.3687Z" fill="#380101"/>
        <path d="M100.85 45.3687H99.5144V46.7044H100.85V45.3687Z" fill="#380101"/>
        <path d="M99.491 45.3687H98.1553V46.7044H99.491V45.3687Z" fill="#380101"/>
        <path d="M98.1668 45.3687H96.8311V46.7044H98.1668V45.3687Z" fill="#380101"/>
        <path d="M96.8316 45.3687H95.4958V46.7044H96.8316V45.3687Z" fill="#380101"/>
        <path d="M95.4834 45.3687H94.1477V46.7044H95.4834V45.3687Z" fill="#380101"/>
        <path d="M94.1482 45.3687H92.8125V46.7044H94.1482V45.3687Z" fill="#380101"/>
        <path d="M92.8001 45.3687H91.4644V46.7044H92.8001V45.3687Z" fill="#380101"/>
        <path d="M91.4649 45.3687H90.1292V46.7044H91.4649V45.3687Z" fill="#380101"/>
        <path d="M90.117 45.3687H88.7812V46.7044H90.117V45.3687Z" fill="#380101"/>
        <path d="M88.7815 45.3687H87.4458V46.7044H88.7815V45.3687Z" fill="#380101"/>
        <path d="M87.4336 45.3687H86.0979V46.7044H87.4336V45.3687Z" fill="#380101"/>
        <path d="M86.1099 45.3687H84.7742V46.7044H86.1099V45.3687Z" fill="#380101"/>
        <path d="M84.7503 45.3687H83.4146V46.7044H84.7503V45.3687Z" fill="#380101"/>
        <path d="M83.4265 45.3687H82.0908V46.7044H83.4265V45.3687Z" fill="#380101"/>
        <path d="M82.0906 45.3687H80.7549V46.7044H82.0906V45.3687Z" fill="#380101"/>
        <path d="M80.7432 45.3687H79.4075V46.7044H80.7432V45.3687Z" fill="#380101"/>
        <path d="M79.4075 45.3687H78.0718V46.7044H79.4075V45.3687Z" fill="#380101"/>
        <path d="M78.0598 45.3687H76.7241V46.7044H78.0598V45.3687Z" fill="#380101"/>
        <path d="M76.7241 45.3687H75.3884V46.7044H76.7241V45.3687Z" fill="#380101"/>
        <path d="M75.3887 45.3687H74.053V46.7044H75.3887V45.3687Z" fill="#380101"/>
        <path d="M74.0408 45.3687H72.7051V46.7044H74.0408V45.3687Z" fill="#380101"/>
        <path d="M72.7053 45.3687H71.3696V46.7044H72.7053V45.3687Z" fill="#380101"/>
        <path d="M63.3196 45.3687H61.9839V46.7044H63.3196V45.3687Z" fill="#380101"/>
        <path d="M61.9837 45.3687H60.6479V46.7044H61.9837V45.3687Z" fill="#380101"/>
        <path d="M60.648 45.3687H59.3123V46.7044H60.648V45.3687Z" fill="#380101"/>
        <path d="M59.3005 45.3687H57.9648V46.7044H59.3005V45.3687Z" fill="#380101"/>
        <path d="M112.908 44.021H111.572V45.3567H112.908V44.021Z" fill="#380101"/>
        <path d="M111.572 44.021H110.236V45.3567H111.572V44.021Z" fill="#380101"/>
        <path d="M110.224 44.021H108.889V45.3567H110.224V44.021Z" fill="#380101"/>
        <path d="M108.888 44.021H107.553V45.3567H108.888V44.021Z" fill="#380101"/>
        <path d="M107.541 44.021H106.205V45.3567H107.541V44.021Z" fill="#380101"/>
        <path d="M106.205 44.021H104.869V45.3567H106.205V44.021Z" fill="#380101"/>
        <path d="M104.858 44.021H103.522V45.3567H104.858V44.021Z" fill="#380101"/>
        <path d="M103.522 44.021H102.186V45.3567H103.522V44.021Z" fill="#380101"/>
        <path d="M102.174 44.021H100.839V45.3567H102.174V44.021Z" fill="#380101"/>
        <path d="M100.85 44.021H99.5144V45.3567H100.85V44.021Z" fill="#380101"/>
        <path d="M99.491 44.021H98.1553V45.3567H99.491V44.021Z" fill="#380101"/>
        <path d="M98.1668 44.021H96.8311V45.3567H98.1668V44.021Z" fill="#380101"/>
        <path d="M96.8316 44.021H95.4958V45.3567H96.8316V44.021Z" fill="#380101"/>
        <path d="M95.4834 44.021H94.1477V45.3567H95.4834V44.021Z" fill="#380101"/>
        <path d="M94.1482 44.021H92.8125V45.3567H94.1482V44.021Z" fill="#380101"/>
        <path d="M92.8001 44.021H91.4644V45.3567H92.8001V44.021Z" fill="#380101"/>
        <path d="M91.4649 44.021H90.1292V45.3567H91.4649V44.021Z" fill="#380101"/>
        <path d="M90.117 44.021H88.7812V45.3567H90.117V44.021Z" fill="#380101"/>
        <path d="M88.7815 44.021H87.4458V45.3567H88.7815V44.021Z" fill="#380101"/>
        <path d="M87.4336 44.021H86.0979V45.3567H87.4336V44.021Z" fill="#380101"/>
        <path d="M86.1099 44.021H84.7742V45.3567H86.1099V44.021Z" fill="#380101"/>
        <path d="M84.7503 44.021H83.4146V45.3567H84.7503V44.021Z" fill="#380101"/>
        <path d="M83.4265 44.021H82.0908V45.3567H83.4265V44.021Z" fill="#380101"/>
        <path d="M82.0906 44.021H80.7549V45.3567H82.0906V44.021Z" fill="#380101"/>
        <path d="M80.7432 44.021H79.4075V45.3567H80.7432V44.021Z" fill="#380101"/>
        <path d="M79.4075 44.021H78.0718V45.3567H79.4075V44.021Z" fill="#380101"/>
        <path d="M78.0598 44.021H76.7241V45.3567H78.0598V44.021Z" fill="#380101"/>
        <path d="M76.7241 44.021H75.3884V45.3567H76.7241V44.021Z" fill="#380101"/>
        <path d="M75.3887 44.021H74.053V45.3567H75.3887V44.021Z" fill="#380101"/>
        <path d="M74.0408 44.021H72.7051V45.3567H74.0408V44.021Z" fill="#380101"/>
        <path d="M72.7053 44.021H71.3696V45.3567H72.7053V44.021Z" fill="#380101"/>
        <path d="M71.3574 44.021H70.0217V45.3567H71.3574V44.021Z" fill="#380101"/>
        <path d="M64.6555 44.021H63.3198V45.3567H64.6555V44.021Z" fill="#380101"/>
        <path d="M63.3196 44.021H61.9839V45.3567H63.3196V44.021Z" fill="#380101"/>
        <path d="M61.9837 44.021H60.6479V45.3567H61.9837V44.021Z" fill="#380101"/>
        <path d="M60.648 44.021H59.3123V45.3567H60.648V44.021Z" fill="#380101"/>
        <path d="M59.3005 44.021H57.9648V45.3567H59.3005V44.021Z" fill="#380101"/>
        <path d="M74.0644 48.052V53.4067H72.7168V54.7424H71.3811V56.09H70.0454V57.4257H64.6787V56.09H63.343V54.7424H61.9954V53.4067H60.6597V48.052H61.9954V46.7043H63.343V45.3686H64.6787V44.021H70.0454V45.3686H71.3811V46.7043H72.7168V48.052H74.0644Z" fill="#380101"/>
        <path d="M122.353 48.0997V53.4664H121.017V54.8021H119.669V56.1378H118.334V57.4854H112.967V56.1378H111.631V54.8021H110.296V53.4664H108.948V48.0997H110.296V46.764H111.631V45.4164H112.967V44.0807H118.334V45.4164H119.669V46.764H121.017V48.0997H122.353Z" fill="#380101"/>
        <path d="M118.25 42.6853H116.915V44.021H118.25V42.6853Z" fill="#380101"/>
        <path d="M116.926 42.6853H115.591V44.021H116.926V42.6853Z" fill="#380101"/>
        <path d="M115.567 42.6853H114.231V44.021H115.567V42.6853Z" fill="#380101"/>
        <path d="M114.243 42.6853H112.907V44.021H114.243V42.6853Z" fill="#380101"/>
        <path d="M112.908 42.6853H111.572V44.021H112.908V42.6853Z" fill="#380101"/>
        <path d="M111.572 42.6853H110.236V44.021H111.572V42.6853Z" fill="#380101"/>
        <path d="M110.224 42.6853H108.889V44.021H110.224V42.6853Z" fill="#380101"/>
        <path d="M108.888 42.6853H107.553V44.021H108.888V42.6853Z" fill="#380101"/>
        <path d="M107.541 42.6853H106.205V44.021H107.541V42.6853Z" fill="#380101"/>
        <path d="M106.205 42.6853H104.869V44.021H106.205V42.6853Z" fill="#380101"/>
        <path d="M104.858 42.6853H103.522V44.021H104.858V42.6853Z" fill="#380101"/>
        <path d="M103.522 42.6853H102.186V44.021H103.522V42.6853Z" fill="#380101"/>
        <path d="M102.174 42.6853H100.839V44.021H102.174V42.6853Z" fill="#380101"/>
        <path d="M100.85 42.6853H99.5144V44.021H100.85V42.6853Z" fill="#380101"/>
        <path d="M99.491 42.6853H98.1553V44.021H99.491V42.6853Z" fill="#380101"/>
        <path d="M98.1668 42.6853H96.8311V44.021H98.1668V42.6853Z" fill="#380101"/>
        <path d="M96.8316 42.6853H95.4958V44.021H96.8316V42.6853Z" fill="#380101"/>
        <path d="M95.4834 42.6853H94.1477V44.021H95.4834V42.6853Z" fill="#380101"/>
        <path d="M94.1482 42.6853H92.8125V44.021H94.1482V42.6853Z" fill="#380101"/>
        <path d="M92.8001 42.6853H91.4644V44.021H92.8001V42.6853Z" fill="#380101"/>
        <path d="M91.4649 42.6853H90.1292V44.021H91.4649V42.6853Z" fill="#380101"/>
        <path d="M90.117 42.6853H88.7812V44.021H90.117V42.6853Z" fill="#380101"/>
        <path d="M88.7815 42.6853H87.4458V44.021H88.7815V42.6853Z" fill="#380101"/>
        <path d="M87.4336 42.6853H86.0979V44.021H87.4336V42.6853Z" fill="#380101"/>
        <path d="M86.1099 42.6853H84.7742V44.021H86.1099V42.6853Z" fill="#380101"/>
        <path d="M84.7503 42.6853H83.4146V44.021H84.7503V42.6853Z" fill="#380101"/>
        <path d="M83.4265 42.6853H82.0908V44.021H83.4265V42.6853Z" fill="#380101"/>
        <path d="M82.0906 42.6853H80.7549V44.021H82.0906V42.6853Z" fill="#380101"/>
        <path d="M80.7432 42.6853H79.4075V44.021H80.7432V42.6853Z" fill="#380101"/>
        <path d="M79.4075 42.6853H78.0718V44.021H79.4075V42.6853Z" fill="#380101"/>
        <path d="M78.0598 42.6853H76.7241V44.021H78.0598V42.6853Z" fill="#380101"/>
        <path d="M76.7241 42.6853H75.3884V44.021H76.7241V42.6853Z" fill="#380101"/>
        <path d="M75.3887 42.6853H74.053V44.021H75.3887V42.6853Z" fill="#380101"/>
        <path d="M74.0408 42.6853H72.7051V44.021H74.0408V42.6853Z" fill="#380101"/>
        <path d="M72.7053 42.6853H71.3696V44.021H72.7053V42.6853Z" fill="#380101"/>
        <path d="M71.3696 42.6853H70.0339V44.021H71.3696V42.6853Z" fill="#380101"/>
        <path d="M70.0222 42.6853H68.6865V44.021H70.0222V42.6853Z" fill="#380101"/>
        <path d="M68.6863 42.6853H67.3506V44.021H68.6863V42.6853Z" fill="#380101"/>
        <path d="M67.3389 42.6853H66.0032V44.021H67.3389V42.6853Z" fill="#380101"/>
        <path d="M66.0029 42.6853H64.6672V44.021H66.0029V42.6853Z" fill="#380101"/>
        <path d="M64.667 42.6853H63.3313V44.021H64.667V42.6853Z" fill="#380101"/>
        <path d="M63.3196 42.6853H61.9839V44.021H63.3196V42.6853Z" fill="#380101"/>
        <path d="M61.9837 42.6853H60.6479V44.021H61.9837V42.6853Z" fill="#380101"/>
        <path d="M60.648 42.6853H59.3123V44.021H60.648V42.6853Z" fill="#380101"/>
        <path d="M59.3005 42.6853H57.9648V44.021H59.3005V42.6853Z" fill="#380101"/>
        <path d="M118.274 41.3376H116.939V42.6733H118.274V41.3376Z" fill="#380101"/>
        <path d="M116.926 41.3376H115.591V42.6733H116.926V41.3376Z" fill="#380101"/>
        <path d="M115.591 41.3376H114.255V42.6733H115.591V41.3376Z" fill="#380101"/>
        <path d="M114.243 41.3376H112.907V42.6733H114.243V41.3376Z" fill="#380101"/>
        <path d="M112.908 41.3376H111.572V42.6733H112.908V41.3376Z" fill="#380101"/>
        <path d="M111.572 41.3376H110.236V42.6733H111.572V41.3376Z" fill="#380101"/>
        <path d="M110.224 41.3376H108.889V42.6733H110.224V41.3376Z" fill="#380101"/>
        <path d="M108.888 41.3376H107.553V42.6733H108.888V41.3376Z" fill="#380101"/>
        <path d="M107.541 41.3376H106.205V42.6733H107.541V41.3376Z" fill="#380101"/>
        <path d="M106.205 41.3376H104.869V42.6733H106.205V41.3376Z" fill="#380101"/>
        <path d="M104.858 41.3376H103.522V42.6733H104.858V41.3376Z" fill="#380101"/>
        <path d="M103.522 41.3376H102.186V42.6733H103.522V41.3376Z" fill="#380101"/>
        <path d="M102.174 41.3376H100.839V42.6733H102.174V41.3376Z" fill="#380101"/>
        <path d="M100.85 41.3376H99.5144V42.6733H100.85V41.3376Z" fill="#380101"/>
        <path d="M99.491 41.3376H98.1553V42.6733H99.491V41.3376Z" fill="#380101"/>
        <path d="M98.1668 41.3376H96.8311V42.6733H98.1668V41.3376Z" fill="#380101"/>
        <path d="M96.8316 41.3376H95.4958V42.6733H96.8316V41.3376Z" fill="#380101"/>
        <path d="M95.4834 41.3376H94.1477V42.6733H95.4834V41.3376Z" fill="#380101"/>
        <path d="M94.1482 41.3376H92.8125V42.6733H94.1482V41.3376Z" fill="#380101"/>
        <path d="M92.8001 41.3376H91.4644V42.6733H92.8001V41.3376Z" fill="#380101"/>
        <path d="M91.4649 41.3376H90.1292V42.6733H91.4649V41.3376Z" fill="#380101"/>
        <path d="M90.117 41.3376H88.7812V42.6733H90.117V41.3376Z" fill="#380101"/>
        <path d="M88.7815 41.3376H87.4458V42.6733H88.7815V41.3376Z" fill="#380101"/>
        <path d="M87.4336 41.3376H86.0979V42.6733H87.4336V41.3376Z" fill="#380101"/>
        <path d="M86.1099 41.3376H84.7742V42.6733H86.1099V41.3376Z" fill="#380101"/>
        <path d="M84.7503 41.3376H83.4146V42.6733H84.7503V41.3376Z" fill="#380101"/>
        <path d="M83.4265 41.3376H82.0908V42.6733H83.4265V41.3376Z" fill="#380101"/>
        <path d="M82.0906 41.3376H80.7549V42.6733H82.0906V41.3376Z" fill="#380101"/>
        <path d="M80.7432 41.3376H79.4075V42.6733H80.7432V41.3376Z" fill="#380101"/>
        <path d="M79.4075 41.3376H78.0718V42.6733H79.4075V41.3376Z" fill="#380101"/>
        <path d="M78.0598 41.3376H76.7241V42.6733H78.0598V41.3376Z" fill="#380101"/>
        <path d="M76.7241 41.3376H75.3884V42.6733H76.7241V41.3376Z" fill="#380101"/>
        <path d="M75.3887 41.3376H74.053V42.6733H75.3887V41.3376Z" fill="#380101"/>
        <path d="M74.0408 41.3376H72.7051V42.6733H74.0408V41.3376Z" fill="#380101"/>
        <path d="M72.7053 41.3376H71.3696V42.6733H72.7053V41.3376Z" fill="#380101"/>
        <path d="M71.3696 41.3376H70.0339V42.6733H71.3696V41.3376Z" fill="#380101"/>
        <path d="M70.0222 41.3376H68.6865V42.6733H70.0222V41.3376Z" fill="#380101"/>
        <path d="M68.6863 41.3376H67.3506V42.6733H68.6863V41.3376Z" fill="#380101"/>
        <path d="M67.3389 41.3376H66.0032V42.6733H67.3389V41.3376Z" fill="#380101"/>
        <path d="M66.0029 41.3376H64.6672V42.6733H66.0029V41.3376Z" fill="#380101"/>
        <path d="M64.667 41.3376H63.3313V42.6733H64.667V41.3376Z" fill="#380101"/>
        <path d="M63.3196 41.3376H61.9839V42.6733H63.3196V41.3376Z" fill="#380101"/>
        <path d="M61.9837 41.3376H60.6479V42.6733H61.9837V41.3376Z" fill="#380101"/>
        <path d="M60.648 41.3376H59.3123V42.6733H60.648V41.3376Z" fill="#380101"/>
        <path d="M59.3005 41.3376H57.9648V42.6733H59.3005V41.3376Z" fill="#380101"/>
        <path d="M118.274 40.002H116.939V41.3377H118.274V40.002Z" fill="#380101"/>
        <path d="M116.926 40.002H115.591V41.3377H116.926V40.002Z" fill="#380101"/>
        <path d="M115.591 40.002H114.255V41.3377H115.591V40.002Z" fill="#380101"/>
        <path d="M114.243 40.002H112.907V41.3377H114.243V40.002Z" fill="#380101"/>
        <path d="M112.908 40.002H111.572V41.3377H112.908V40.002Z" fill="#380101"/>
        <path d="M111.572 40.002H110.236V41.3377H111.572V40.002Z" fill="#380101"/>
        <path d="M110.224 40.002H108.889V41.3377H110.224V40.002Z" fill="#380101"/>
        <path d="M108.888 40.002H107.553V41.3377H108.888V40.002Z" fill="#380101"/>
        <path d="M107.541 40.002H106.205V41.3377H107.541V40.002Z" fill="#380101"/>
        <path d="M106.205 40.002H104.869V41.3377H106.205V40.002Z" fill="#380101"/>
        <path d="M104.858 40.002H103.522V41.3377H104.858V40.002Z" fill="#380101"/>
        <path d="M103.522 40.002H102.186V41.3377H103.522V40.002Z" fill="#380101"/>
        <path d="M102.174 40.002H100.839V41.3377H102.174V40.002Z" fill="#380101"/>
        <path d="M100.85 40.002H99.5144V41.3377H100.85V40.002Z" fill="#380101"/>
        <path d="M99.491 40.002H98.1553V41.3377H99.491V40.002Z" fill="#380101"/>
        <path d="M98.1668 40.002H96.8311V41.3377H98.1668V40.002Z" fill="#380101"/>
        <path d="M96.8316 40.002H95.4958V41.3377H96.8316V40.002Z" fill="#380101"/>
        <path d="M95.4834 40.002H94.1477V41.3377H95.4834V40.002Z" fill="#380101"/>
        <path d="M94.1482 40.002H92.8125V41.3377H94.1482V40.002Z" fill="#380101"/>
        <path d="M92.8001 40.002H91.4644V41.3377H92.8001V40.002Z" fill="#380101"/>
        <path d="M91.4649 40.002H90.1292V41.3377H91.4649V40.002Z" fill="#380101"/>
        <path d="M90.117 40.002H88.7812V41.3377H90.117V40.002Z" fill="#380101"/>
        <path d="M88.7815 40.002H87.4458V41.3377H88.7815V40.002Z" fill="#380101"/>
        <path d="M87.4336 40.002H86.0979V41.3377H87.4336V40.002Z" fill="#380101"/>
        <path d="M86.1099 40.002H84.7742V41.3377H86.1099V40.002Z" fill="#380101"/>
        <path d="M84.7503 40.002H83.4146V41.3377H84.7503V40.002Z" fill="#380101"/>
        <path d="M83.4265 40.002H82.0908V41.3377H83.4265V40.002Z" fill="#380101"/>
        <path d="M82.0906 40.002H80.7549V41.3377H82.0906V40.002Z" fill="#380101"/>
        <path d="M80.7432 40.002H79.4075V41.3377H80.7432V40.002Z" fill="#380101"/>
        <path d="M79.4075 40.002H78.0718V41.3377H79.4075V40.002Z" fill="#380101"/>
        <path d="M78.0598 40.002H76.7241V41.3377H78.0598V40.002Z" fill="#380101"/>
        <path d="M76.7241 40.002H75.3884V41.3377H76.7241V40.002Z" fill="#380101"/>
        <path d="M75.3887 40.002H74.053V41.3377H75.3887V40.002Z" fill="#380101"/>
        <path d="M74.0408 40.002H72.7051V41.3377H74.0408V40.002Z" fill="#380101"/>
        <path d="M72.7053 40.002H71.3696V41.3377H72.7053V40.002Z" fill="#380101"/>
        <path d="M71.3696 40.002H70.0339V41.3377H71.3696V40.002Z" fill="#380101"/>
        <path d="M70.0222 40.002H68.6865V41.3377H70.0222V40.002Z" fill="#380101"/>
        <path d="M68.6863 40.002H67.3506V41.3377H68.6863V40.002Z" fill="#380101"/>
        <path d="M67.3389 40.002H66.0032V41.3377H67.3389V40.002Z" fill="#380101"/>
        <path d="M66.0029 40.002H64.6672V41.3377H66.0029V40.002Z" fill="#380101"/>
        <path d="M64.667 40.002H63.3313V41.3377H64.667V40.002Z" fill="#380101"/>
        <path d="M63.3196 40.002H61.9839V41.3377H63.3196V40.002Z" fill="#380101"/>
        <path d="M61.9837 40.002H60.6479V41.3377H61.9837V40.002Z" fill="#380101"/>
        <path d="M60.648 40.002H59.3123V41.3377H60.648V40.002Z" fill="#380101"/>
        <path d="M59.3005 40.002H57.9648V41.3377H59.3005V40.002Z" fill="#380101"/>
        <path d="M118.274 38.6663H116.939V40.002H118.274V38.6663Z" fill="#380101"/>
        <path d="M116.926 38.6663H115.591V40.002H116.926V38.6663Z" fill="#380101"/>
        <path d="M115.591 38.6663H114.255V40.002H115.591V38.6663Z" fill="#380101"/>
        <path d="M114.243 38.6663H112.907V40.002H114.243V38.6663Z" fill="#380101"/>
        <path d="M112.908 38.6663H111.572V40.002H112.908V38.6663Z" fill="#380101"/>
        <path d="M111.572 38.6663H110.236V40.002H111.572V38.6663Z" fill="#380101"/>
        <path d="M110.224 38.6663H108.889V40.002H110.224V38.6663Z" fill="#380101"/>
        <path d="M108.888 38.6663H107.553V40.002H108.888V38.6663Z" fill="#380101"/>
        <path d="M107.541 38.6663H106.205V40.002H107.541V38.6663Z" fill="#380101"/>
        <path d="M106.205 38.6663H104.869V40.002H106.205V38.6663Z" fill="#380101"/>
        <path d="M104.858 38.6663H103.522V40.002H104.858V38.6663Z" fill="#380101"/>
        <path d="M103.522 38.6663H102.186V40.002H103.522V38.6663Z" fill="#380101"/>
        <path d="M102.174 38.6663H100.839V40.002H102.174V38.6663Z" fill="#380101"/>
        <path d="M100.85 38.6663H99.5144V40.002H100.85V38.6663Z" fill="#380101"/>
        <path d="M99.491 38.6663H98.1553V40.002H99.491V38.6663Z" fill="#380101"/>
        <path d="M98.1668 38.6663H96.8311V40.002H98.1668V38.6663Z" fill="#380101"/>
        <path d="M96.8316 38.6663H95.4958V40.002H96.8316V38.6663Z" fill="#380101"/>
        <path d="M95.4834 38.6663H94.1477V40.002H95.4834V38.6663Z" fill="#380101"/>
        <path d="M94.1482 38.6663H92.8125V40.002H94.1482V38.6663Z" fill="#380101"/>
        <path d="M92.8001 38.6663H91.4644V40.002H92.8001V38.6663Z" fill="#380101"/>
        <path d="M91.4649 38.6663H90.1292V40.002H91.4649V38.6663Z" fill="#380101"/>
        <path d="M90.117 38.6663H88.7812V40.002H90.117V38.6663Z" fill="#380101"/>
        <path d="M88.7815 38.6663H87.4458V40.002H88.7815V38.6663Z" fill="#380101"/>
        <path d="M87.4336 38.6663H86.0979V40.002H87.4336V38.6663Z" fill="#380101"/>
        <path d="M86.1099 38.6663H84.7742V40.002H86.1099V38.6663Z" fill="#380101"/>
        <path d="M84.7503 38.6663H83.4146V40.002H84.7503V38.6663Z" fill="#380101"/>
        <path d="M83.4265 38.6663H82.0908V40.002H83.4265V38.6663Z" fill="#380101"/>
        <path d="M82.0906 38.6663H80.7549V40.002H82.0906V38.6663Z" fill="#380101"/>
        <path d="M80.7432 38.6663H79.4075V40.002H80.7432V38.6663Z" fill="#380101"/>
        <path d="M79.4075 38.6663H78.0718V40.002H79.4075V38.6663Z" fill="#380101"/>
        <path d="M78.0598 38.6663H76.7241V40.002H78.0598V38.6663Z" fill="#380101"/>
        <path d="M76.7241 38.6663H75.3884V40.002H76.7241V38.6663Z" fill="#380101"/>
        <path d="M75.3887 38.6663H74.053V40.002H75.3887V38.6663Z" fill="#380101"/>
        <path d="M74.0408 38.6663H72.7051V40.002H74.0408V38.6663Z" fill="#380101"/>
        <path d="M72.7053 38.6663H71.3696V40.002H72.7053V38.6663Z" fill="#380101"/>
        <path d="M71.3696 38.6663H70.0339V40.002H71.3696V38.6663Z" fill="#380101"/>
        <path d="M70.0222 38.6663H68.6865V40.002H70.0222V38.6663Z" fill="#380101"/>
        <path d="M68.6863 38.6663H67.3506V40.002H68.6863V38.6663Z" fill="#380101"/>
        <path d="M67.3389 38.6663H66.0032V40.002H67.3389V38.6663Z" fill="#380101"/>
        <path d="M66.0029 38.6663H64.6672V40.002H66.0029V38.6663Z" fill="#380101"/>
        <path d="M64.667 38.6663H63.3313V40.002H64.667V38.6663Z" fill="#380101"/>
        <path d="M63.3196 38.6663H61.9839V40.002H63.3196V38.6663Z" fill="#380101"/>
        <path d="M61.9837 38.6663H60.6479V40.002H61.9837V38.6663Z" fill="#380101"/>
        <path d="M60.648 38.6663H59.3123V40.002H60.648V38.6663Z" fill="#380101"/>
        <path d="M59.3005 38.6663H57.9648V40.002H59.3005V38.6663Z" fill="#380101"/>
        <path d="M70.0424 54.717V53.4006H68.7021V52.0708H67.3443V53.4425H66.0005V54.7782H64.679V56.1258H63.3433V54.7782H64.679L64.6789 53.4425H66.0005V52.0708H67.3443V50.727H66.0005V49.4054H64.679V48.0509H63.3433V46.7111L64.679 46.7111V48.0509H66.0005V49.4054H67.3443V50.727H68.7021V49.4054H70.0424V48.0509H71.3813V46.7111L72.6919 46.7111V48.0509H71.3813V49.4054H70.0424V50.727H68.7021V52.0708H70.0424V53.4006L71.3813 53.4425V54.717H72.717V56.1258H71.3813V54.717H70.0424Z" fill="#E50000"/>
        <path d="M110.199 54.7172V53.4007H108.859V52.0709H107.501V53.4426H106.157V54.7783H104.836V56.1259H103.5V54.7783H104.836L104.836 53.4426H106.157V52.0709H107.501V50.7271H106.157V49.4055H104.836V48.0511H103.5V46.7112L104.836 46.7112V48.0511H106.157V49.4055H107.501V50.7271H108.859V49.4055H110.199V48.0511H111.538V46.7112L112.849 46.7112V48.0511H111.538V49.4055H110.199V50.7271H108.859V52.0709H110.199V53.4007L111.538 53.4426V54.7172H112.874V56.1259H111.538V54.7172H110.199Z" fill="#E50000"/>
        <path d="M124.965 60.0375H57.9531V60.1567H124.965V60.0375Z" fill="#0B0B0B"/>
        <path d="M124.965 58.6898H57.9531V58.8091H124.965V58.6898Z" fill="#0B0B0B"/>
        <path d="M124.965 57.3541H57.9531V57.4734H124.965V57.3541Z" fill="#0B0B0B"/>
        <path d="M124.965 56.0303H57.9531V56.1495H124.965V56.0303Z" fill="#0B0B0B"/>
        <path d="M124.965 54.6708H57.9531V54.79H124.965V54.6708Z" fill="#0B0B0B"/>
        <path d="M124.965 53.3469H57.9531V53.4662H124.965V53.3469Z" fill="#0B0B0B"/>
        <path d="M124.965 51.9994H57.9531V52.1186H124.965V51.9994Z" fill="#0B0B0B"/>
        <path d="M124.965 50.6637H57.9531V50.783H124.965V50.6637Z" fill="#0B0B0B"/>
        <path d="M124.965 49.328H57.9531V49.4473H124.965V49.328Z" fill="#0B0B0B"/>
        <path d="M124.965 47.9803H57.9531V48.0996H124.965V47.9803Z" fill="#0B0B0B"/>
        <path d="M124.965 46.6447H57.9531V46.7639H124.965V46.6447Z" fill="#0B0B0B"/>
        <path d="M124.965 45.309H57.9531V45.4282H124.965V45.309Z" fill="#0B0B0B"/>
        <path d="M124.965 43.9613H57.9531V44.0806H124.965V43.9613Z" fill="#0B0B0B"/>
        <path d="M124.965 42.6256H57.9531V42.7449H124.965V42.6256Z" fill="#0B0B0B"/>
        <path d="M124.965 41.278H57.9531V41.3972H124.965V41.278Z" fill="#0B0B0B"/>
        <path d="M124.965 39.9423H57.9531V40.0615H124.965V39.9423Z" fill="#0B0B0B"/>
        <path d="M116.998 37.3186H116.879V64.1281H116.998V37.3186Z" fill="#0B0B0B"/>
        <path d="M115.651 37.3186H115.531V64.1281H115.651V37.3186Z" fill="#0B0B0B"/>
        <path d="M114.315 37.3186H114.195V64.1281H114.315V37.3186Z" fill="#0B0B0B"/>
        <path d="M112.967 37.3186H112.848V64.1281H112.967V37.3186Z" fill="#0B0B0B"/>
        <path d="M111.631 37.3186H111.512V64.1281H111.631V37.3186Z" fill="#0B0B0B"/>
        <path d="M110.296 37.3186H110.177V64.1281H110.296V37.3186Z" fill="#0B0B0B"/>
        <path d="M108.948 37.3186H108.829V64.1281H108.948V37.3186Z" fill="#0B0B0B"/>
        <path d="M107.613 37.3186H107.493V64.1281H107.613V37.3186Z" fill="#0B0B0B"/>
        <path d="M106.277 37.3186H106.157V64.1281H106.277V37.3186Z" fill="#0B0B0B"/>
        <path d="M104.929 37.3186H104.81V64.1281H104.929V37.3186Z" fill="#0B0B0B"/>
        <path d="M103.593 37.3186H103.474V64.1281H103.593V37.3186Z" fill="#0B0B0B"/>
        <path d="M102.246 37.3186H102.127V64.1281H102.246V37.3186Z" fill="#0B0B0B"/>
        <path d="M100.91 37.3186H100.791V64.1281H100.91V37.3186Z" fill="#0B0B0B"/>
        <path d="M99.5626 37.3186H99.4434V64.1281H99.5626V37.3186Z" fill="#0B0B0B"/>
        <path d="M98.2269 37.3186H98.1077V64.1281H98.2269V37.3186Z" fill="#0B0B0B"/>
        <path d="M96.8793 37.3186H96.76V64.1281H96.8793V37.3186Z" fill="#0B0B0B"/>
        <path d="M95.5436 37.3186H95.4243V64.1281H95.5436V37.3186Z" fill="#0B0B0B"/>
        <path d="M94.1959 37.3186H94.0767V64.1281H94.1959V37.3186Z" fill="#0B0B0B"/>
        <path d="M92.8602 37.3186H92.741V64.1281H92.8602V37.3186Z" fill="#0B0B0B"/>
        <path d="M91.5126 37.3186H91.3933V64.1281H91.5126V37.3186Z" fill="#0B0B0B"/>
        <path d="M90.1886 37.3186H90.0693V64.1281H90.1886V37.3186Z" fill="#0B0B0B"/>
        <path d="M88.8531 37.3186H88.7339V64.1281H88.8531V37.3186Z" fill="#0B0B0B"/>
        <path d="M87.5052 37.3186H87.386V64.1281H87.5052V37.3186Z" fill="#0B0B0B"/>
        <path d="M86.1698 37.3186H86.0505V64.1281H86.1698V37.3186Z" fill="#0B0B0B"/>
        <path d="M84.8341 37.3186H84.7148V64.1281H84.8341V37.3186Z" fill="#0B0B0B"/>
        <path d="M83.4864 37.3186H83.3672V64.1281H83.4864V37.3186Z" fill="#0B0B0B"/>
        <path d="M82.1508 37.3186H82.0315V64.1281H82.1508V37.3186Z" fill="#0B0B0B"/>
        <path d="M80.8033 37.3186H80.6841V64.1281H80.8033V37.3186Z" fill="#0B0B0B"/>
        <path d="M79.4674 37.3186H79.3481V64.1281H79.4674V37.3186Z" fill="#0B0B0B"/>
        <path d="M78.12 37.3186H78.0007V64.1281H78.12V37.3186Z" fill="#0B0B0B"/>
        <path d="M76.7841 37.3186H76.6648V64.1281H76.7841V37.3186Z" fill="#0B0B0B"/>
        <path d="M75.4366 37.3186H75.3174V64.1281H75.4366V37.3186Z" fill="#0B0B0B"/>
        <path d="M74.1124 37.3186H73.9932V64.1281H74.1124V37.3186Z" fill="#0B0B0B"/>
        <path d="M72.7533 37.3186H72.634V64.1281H72.7533V37.3186Z" fill="#0B0B0B"/>
        <path d="M71.4291 37.3186H71.3098V64.1281H71.4291V37.3186Z" fill="#0B0B0B"/>
        <path d="M70.0939 37.3186H69.9746V64.1281H70.0939V37.3186Z" fill="#0B0B0B"/>
        <path d="M68.7457 37.3186H68.6265V64.1281H68.7457V37.3186Z" fill="#0B0B0B"/>
        <path d="M67.4105 37.3186H67.2913V64.1281H67.4105V37.3186Z" fill="#0B0B0B"/>
        <path d="M66.0624 37.3186H65.9431V64.1281H66.0624V37.3186Z" fill="#0B0B0B"/>
        <path d="M64.7272 37.3186H64.6079V64.1281H64.7272V37.3186Z" fill="#0B0B0B"/>
        <path d="M63.3912 37.3186H63.272V64.1281H63.3912V37.3186Z" fill="#0B0B0B"/>
        <path d="M62.0438 37.3186H61.9246V64.1281H62.0438V37.3186Z" fill="#0B0B0B"/>
        <path d="M60.7079 37.3186H60.5886V64.1281H60.7079V37.3186Z" fill="#0B0B0B"/>
        <path d="M59.3722 37.3186H59.2529V64.1281H59.3722V37.3186Z" fill="#0B0B0B"/>
    </g>
    <path d="M109.437 61.5046H66.9333C62.151 61.5046 58.2632 57.6645 58.2632 52.9537V47.5274C58.2632 42.8167 62.151 38.9766 66.9333 38.9766H109.437C114.22 38.9766 118.107 42.8167 118.107 47.5274V52.9537C118.107 57.6645 114.22 61.5046 109.437 61.5046ZM66.9333 40.1453C62.807 40.1453 59.4439 43.4488 59.4439 47.5155V52.9418C59.4439 57.0086 62.807 60.312 66.9333 60.312H109.437C113.564 60.312 116.927 57.0086 116.927 52.9418V47.5155C116.927 43.4488 113.564 40.1453 109.437 40.1453H66.9333Z" fill="#0B0B0B"/>
    <path d="M53.3481 17.2705H124.096C124.372 17.2705 124.596 17.4944 124.596 17.7705V84.3574C124.596 84.4831 124.549 84.6039 124.463 84.6963L117.871 91.8389C117.776 91.9414 117.642 92 117.502 92H59.3716C59.2246 92 59.0847 91.9354 58.9897 91.8232L52.9663 84.7051C52.8899 84.6148 52.8481 84.5001 52.8481 84.3818V17.7705C52.8481 17.4944 53.072 17.2705 53.3481 17.2705Z" stroke="#0B0B0B"/>
    <path d="M122.71 17.3667H124.499" stroke="#0B0B0B"/>
    <path d="M86.933 12.6008L73.802 12.6006C70.4231 12.5194 69.5073 13.5349 69.628 17.371H86.933" stroke="#0B0B0B"/>
    <path d="M86.9327 12.6055L104.215 12.6053C107.594 12.5241 108.51 13.5387 108.389 17.371L86.9327 17.3712" stroke="#0B0B0B"/>
    <path d="M124.403 17.562C124.403 17.2835 124.741 17.1457 124.936 17.3442L133.42 25.9858C133.879 26.4532 134.136 27.082 134.136 27.7368V72.6909C134.136 73.2973 133.916 73.8834 133.516 74.3394L124.468 84.6567C124.462 84.6638 124.457 84.6665 124.456 84.6675C124.454 84.6684 124.452 84.6691 124.451 84.6694C124.447 84.6703 124.438 84.6706 124.427 84.6665C124.416 84.6623 124.41 84.6561 124.408 84.6528C124.407 84.6514 124.405 84.6499 124.405 84.6479C124.404 84.6458 124.403 84.6406 124.403 84.6313V17.562Z" fill="#575756" stroke="#0B0B0B"/>
    <path d="M128.303 38.8215V54.8142L132.37 53.8244V39.2628L128.303 38.2729V38.8215Z" fill="#3C3C3B"/>
    <path d="M127.552 55.7683V37.3188L133.122 38.6784V54.4087L127.552 55.7683ZM129.043 39.2151V53.872L131.631 53.24V39.8471L129.043 39.2151Z" fill="#0B0B0B"/>
    <path d="M130.499 45.8817C130.237 45.8817 129.986 45.7863 129.783 45.5836C129.402 45.19 129.414 44.558 129.807 44.1763L133.421 40.6701L135.579 23.8069C135.651 23.2583 136.152 22.8886 136.688 22.9482C137.237 23.0197 137.619 23.5206 137.547 24.0573L135.293 41.6123L131.179 45.6075C130.988 45.7983 130.737 45.8817 130.487 45.8817H130.499Z" fill="#0B0B0B"/>
    <path d="M137.176 24.379C138.948 24.379 140.384 22.9427 140.384 21.171C140.384 19.3992 138.948 17.9629 137.176 17.9629C135.405 17.9629 133.968 19.3992 133.968 21.171C133.968 22.9427 135.405 24.379 137.176 24.379Z" fill="#0B0B0B"/>
    <path d="M71.4293 70.437H102.437C103.277 71.7868 103.296 72.8535 103 75C103.289 77.2628 103.043 78.2755 102.437 79.9775H71.4293C70.8016 78.1565 70.6121 77.0942 70.9996 75C70.6764 72.5192 70.8447 71.6194 71.4293 70.437Z" fill="#AE9D03"/>
    <rect x="70.7368" y="70.3408" width="32.3926" height="9.73333" rx="1.5" stroke="#0B0B0B"/>
    <path d="M78.5845 70.437V79.9778" stroke="#0B0B0B"/>
    <path d="M86.9331 70.437V79.9778" stroke="#0B0B0B"/>
    <path d="M94.6851 70.437V79.9778" stroke="#0B0B0B"/>
    <path d="M139 154.872C144.6 154.616 147.861 154.745 153.5 155.372" stroke="#0B0B0B"/>
    <path d="M136 125.872C141.918 125.055 144.801 124.039 149 120.872" stroke="#0B0B0B"/>
    <path d="M101.5 148.75C101.57 148.75 101.63 148.726 101.678 148.678C101.726 148.63 101.75 148.571 101.75 148.5C101.749 148.429 101.725 148.37 101.678 148.322C101.63 148.274 101.57 148.25 101.5 148.25C101.429 148.25 101.369 148.274 101.322 148.322C101.274 148.37 101.25 148.429 101.25 148.5C101.249 148.571 101.273 148.63 101.322 148.678C101.37 148.726 101.429 148.75 101.5 148.75ZM101.25 147.75H101.75V146.25H101.25V147.75ZM101.5 150C101.154 150 100.829 149.934 100.525 149.803C100.22 149.672 99.9558 149.494 99.7308 149.269C99.5058 149.044 99.3277 148.779 99.1965 148.475C99.0653 148.171 98.9997 147.846 98.9995 147.5C98.9993 147.154 99.065 146.829 99.1965 146.525C99.328 146.221 99.5061 145.956 99.7308 145.731C99.9554 145.506 100.22 145.328 100.525 145.197C100.829 145.066 101.154 145 101.5 145C101.845 145 102.17 145.066 102.475 145.197C102.779 145.328 103.044 145.506 103.268 145.731C103.493 145.956 103.671 146.221 103.803 146.525C103.934 146.829 104 147.154 104 147.5C103.999 147.846 103.933 148.171 103.803 148.475C103.672 148.779 103.494 149.044 103.268 149.269C103.043 149.494 102.778 149.672 102.475 149.803C102.171 149.935 101.846 150 101.5 150Z" fill="#ED0022"/>
    <rect x="55.9995" y="166" width="25" height="9" fill="#0B0B0B"/>
    <path d="M55.4995 170C61.8334 170.015 64.1808 171.081 65.4995 175.5" stroke="#006627"/>
    <path d="M62.5023 165.5C61.7668 165.992 63.8144 169.531 68.0023 170C72.1902 170.469 72.5023 175.5 72.5023 175.5" stroke="#F4E347"/>
    <path d="M62.5036 175.5C62.1365 175.395 63.6638 172.663 65.5036 171C67.1034 169.554 66.0036 165.5 66.0036 165.5" stroke="#FAFAFA"/>
    <path d="M78.4995 175.5L76.9995 165.5" stroke="#DFDFDF"/>
    <path d="M73.8079 169.904C74.3163 170.135 74.5819 170.18 75.0447 170.053" stroke="#009BFD" stroke-width="0.2" stroke-linecap="round"/>
    <path d="M73.8928 169.912C74.2958 170.299 74.5314 170.429 75.0104 170.462" stroke="#D60000" stroke-width="0.2" stroke-linecap="round"/>
    <path d="M73.8325 170.042C74.2291 170.435 74.3655 170.667 74.4106 171.145" stroke="#FF8B01" stroke-width="0.2" stroke-linecap="round"/>
    <path d="M73.978 170.101C74.4357 170.421 74.6096 170.627 74.7354 171.09" stroke="#5BD804" stroke-width="0.2" stroke-linecap="round"/>
    <path d="M68.4937 172.824C68.8246 172.374 69.0344 172.205 69.5006 172.09" stroke="#009BFD" stroke-width="0.2" stroke-linecap="round"/>
    <path d="M68.5642 172.775C68.7271 172.241 68.869 172.012 69.2708 171.749" stroke="#D60000" stroke-width="0.2" stroke-linecap="round"/>
    <path d="M68.4482 172.692C68.6024 172.155 68.608 171.886 68.4139 171.446" stroke="#FF8B01" stroke-width="0.2" stroke-linecap="round"/>
    <path d="M68.5461 172.569C68.7893 172.066 68.8406 171.802 68.7241 171.336" stroke="#5BD804" stroke-width="0.2" stroke-linecap="round"/>
    <path d="M59.4092 172.909C59.1439 172.417 58.9595 172.221 58.5136 172.043" stroke="#009BFD" stroke-width="0.2" stroke-linecap="round"/>
    <path d="M59.3462 172.851C59.259 172.3 59.1502 172.053 58.7887 171.737" stroke="#D60000" stroke-width="0.2" stroke-linecap="round"/>
    <path d="M59.4727 172.784C59.3945 172.231 59.4263 171.964 59.6794 171.556" stroke="#FF8B01" stroke-width="0.2" stroke-linecap="round"/>
    <path d="M59.3926 172.649C59.2215 172.118 59.2073 171.849 59.3873 171.404" stroke="#5BD804" stroke-width="0.2" stroke-linecap="round"/>
    <path d="M69.6426 169.03C69.3912 169.529 69.2125 169.73 68.7718 169.921" stroke="#009BFD" stroke-width="0.2" stroke-linecap="round"/>
    <path d="M69.5811 169.089C69.5095 169.643 69.4077 169.893 69.0553 170.219" stroke="#D60000" stroke-width="0.2" stroke-linecap="round"/>
    <path d="M69.7095 169.153C69.6469 169.708 69.6863 169.974 69.9508 170.375" stroke="#FF8B01" stroke-width="0.2" stroke-linecap="round"/>
    <path d="M69.6333 169.29C69.4773 169.826 69.4707 170.096 69.6632 170.536" stroke="#5BD804" stroke-width="0.2" stroke-linecap="round"/>
    <path d="M58.7998 168.984C58.9795 169.513 59.1286 169.737 59.5386 169.987" stroke="#009BFD" stroke-width="0.2" stroke-linecap="round"/>
    <path d="M58.8525 169.051C58.8466 169.61 58.9128 169.871 59.2166 170.242" stroke="#D60000" stroke-width="0.2" stroke-linecap="round"/>
    <path d="M58.7166 169.096C58.7015 169.654 58.6256 169.913 58.3081 170.273" stroke="#FF8B01" stroke-width="0.2" stroke-linecap="round"/>
    <path d="M58.7732 169.243C58.8533 169.795 58.8225 170.063 58.5708 170.472" stroke="#5BD804" stroke-width="0.2" stroke-linecap="round"/>
    <path d="M75.4185 173.209C75.2764 172.669 75.1435 172.435 74.7522 172.157" stroke="#009BFD" stroke-width="0.2" stroke-linecap="round"/>
    <path d="M75.3708 173.138C75.4161 172.582 75.3684 172.317 75.0916 171.924" stroke="#D60000" stroke-width="0.2" stroke-linecap="round"/>
    <path d="M75.5095 173.103C75.5638 172.547 75.6578 172.295 75.9999 171.958" stroke="#FF8B01" stroke-width="0.2" stroke-linecap="round"/>
    <path d="M75.4634 172.953C75.4224 172.396 75.472 172.131 75.7518 171.741" stroke="#5BD804" stroke-width="0.2" stroke-linecap="round"/>
    <path d="M74.0131 165.5C74.0131 165.5 71.827 169.467 73.5131 170C73.8326 170.101 74.0957 170.211 74.3124 170.329M81.4985 170C81.4806 168.968 76.3651 174.773 75.5131 173C75.4433 172.855 75.4089 172.697 75.389 172.531" stroke="#ED0022"/>
    <path d="M67.4995 175.5L68.6267 172.353" stroke="#727272"/>
    <path d="M60.016 175.695L59.3363 172.421" stroke="#ED0022"/>
    <path d="M69.5425 169.541L70.999 165.5" stroke="#727272"/>
    <path d="M58.8218 169.51L57.9399 165.305" stroke="#ED0022"/>
    <rect x="55.4995" y="165.5" width="26" height="10" stroke="#0B0B0B"/>
</svg>
