<svg width="100%" height="100%" viewBox="0 0 175 125" fill="none" xmlns="http://www.w3.org/2000/svg">
<mask id="mask0_2305_9009" style="mask-type:alpha" maskUnits="userSpaceOnUse" x="0" y="0" width="175" height="125">
<rect width="175" height="125" fill="#EE0000"/>
</mask>
<g mask="url(#mask0_2305_9009)">
<path d="M73.0073 108.684L73.3331 110.313H70.2376C66.925 110.313 59.6479 111.128 54.9776 112.051C52.3165 112.54 51.9364 112.811 50.3072 115.364C48.1893 118.731 46.8859 122.152 43.9534 132.307C40.6407 143.603 39.1201 151.749 39.1201 158.157C39.1201 159.46 38.7399 162.501 38.3055 164.891C37.5452 168.91 37.2194 170.539 36.1332 175.263C35.8074 176.784 35.9703 177.056 37.871 178.25C39.7718 179.445 40.3691 179.554 46.4514 179.391C50.9589 179.282 53.2941 179.011 54.1087 178.468C55.2491 177.707 55.3577 177.762 55.6835 179.282C56.0637 181.02 57.9644 182.866 60.8426 184.278C75.2338 191.175 82.9996 193.348 90.9827 192.642C96.359 192.098 99.6717 191.067 103.962 188.46C105.971 187.265 108.795 185.853 110.207 185.419C111.565 184.93 113.194 184.224 113.791 183.79C114.389 183.409 115.638 183.084 116.615 183.084C118.896 183.084 122.535 181.4 124.761 179.282C127.314 176.893 131.169 170.213 130.518 169.344C130.192 169.018 129.649 167.118 129.323 165.162C128.671 161.795 127.911 158.809 126.282 152.944C125.847 151.423 124.761 147.187 123.838 143.44C122.915 139.693 121.557 134.914 120.851 132.796C120.091 130.678 119.222 127.582 118.896 126.008C118.57 124.378 117.701 121.066 116.995 118.676C114.226 109.39 111.402 107.761 99.1287 108.358C95.2729 108.521 91.2542 108.847 90.331 109.01C88.7561 109.281 88.5389 109.227 88.5389 108.195C88.5389 107.071 87.5056 106.749 86.8465 107.191C86.55 107.39 86.3292 107.744 86.3123 108.249C86.2037 110.041 86.421 111.073 86.9097 111.399C87.1269 111.562 87.5071 112.268 87.7243 112.92C87.9415 113.626 89.082 115.201 90.2767 116.395C91.4715 117.59 92.286 118.676 92.0688 118.893C91.6887 119.274 86.421 119.925 80.1214 120.36C77.2432 120.577 74.8537 120.414 73.1159 119.925C70.1833 119.165 69.3687 118.187 71.1066 117.644C74.4435 116.607 76.4325 109.406 74.897 107.191C78.4097 106.914 85.7947 107.302 86.8465 107.191C86.9848 107.176 87.0136 107.163 86.9097 107.151C85.7426 107.02 73.8508 107.055 73.496 107.055C72.8444 107.055 72.7357 107.435 73.0073 108.684ZM110.424 111.399C112.977 113.083 114.715 116.613 116.289 123.075C116.941 125.736 118.353 131.004 119.494 134.751C120.634 138.498 121.883 142.897 122.263 144.526C122.589 146.155 123.621 150.065 124.49 153.106C125.359 156.202 126.662 161.361 127.368 164.511L128.617 170.322L126.662 173.743C125.141 176.35 123.892 177.707 121.449 179.336C117.321 182.106 115.964 182.106 115.475 179.391C114.552 174.34 113.954 169.887 113.52 164.619C112.868 157.234 111.999 150.554 111.565 148.979C111.239 147.839 111.348 147.784 112.76 148.11C113.628 148.328 114.497 148.708 114.66 148.979C115.149 149.739 115.746 147.947 115.366 146.97C114.986 146.047 114.063 145.884 114.063 146.698C114.063 146.97 113.466 147.241 112.705 147.241C111.673 147.241 111.293 146.861 111.022 145.721C110.859 144.906 110.479 143.386 110.207 142.354C108.306 134.642 107.6 127.528 108.632 126.876C109.338 126.442 109.338 124.976 108.578 124.976C108.252 124.976 107.383 125.465 106.623 126.062C105.863 126.659 104.777 127.148 104.233 127.148C103.636 127.148 103.202 127.528 103.202 127.963C103.202 128.506 103.745 128.777 104.831 128.777C106.351 128.777 106.46 128.94 106.46 130.787C106.46 132.85 107.166 136.706 109.175 146.155C110.37 151.695 111.076 156.745 111.891 165.706C112.162 168.855 112.542 172.548 112.76 173.96C113.085 176.187 112.977 176.567 112.216 176.567C111.728 176.567 110.37 177.056 109.284 177.599C108.035 178.196 106.677 178.522 105.754 178.359C104.668 178.142 104.288 178.305 104.288 178.956C104.288 179.445 104.451 179.771 104.722 179.717C104.939 179.717 105.537 179.825 106.026 180.042C106.623 180.314 107.818 179.934 109.338 179.065C112.325 177.273 113.303 177.273 113.737 179.065C114.226 180.857 114.009 181.02 110.261 182.595C108.632 183.247 106.786 184.224 106.188 184.713C103.908 186.614 99.3459 189.057 96.359 189.926C91.5801 191.284 82.0221 190.795 76.32 188.84C69.8575 186.614 59.7022 181.835 58.4532 180.423C56.2266 177.924 55.7378 159.243 57.5843 145.069C58.1816 140.453 58.6704 135.131 58.6704 133.285C58.6704 131.438 58.9419 129.755 59.2135 129.592C59.5393 129.375 60.6254 129.755 61.6572 130.406C62.7434 131.058 63.9381 131.438 64.4269 131.275C65.4587 130.895 64.9156 129.863 63.6123 129.863C63.1235 129.863 62.0917 129.32 61.3857 128.669C60.6797 127.963 59.8108 127.42 59.485 127.42C59.2135 127.42 58.3445 127.202 57.6386 126.931C56.0094 126.333 54.6517 127.474 56.118 128.288C57.3127 128.994 57.3127 130.678 56.1723 140.562C55.4663 146.372 55.0862 148.328 54.4888 148.328C54.1087 148.328 53.5113 147.676 53.1854 146.916C52.5881 145.232 52.3165 145.395 51.6106 147.73C51.2304 149.142 51.2847 149.414 51.7735 148.925C52.1536 148.653 53.0225 148.545 53.7285 148.708L54.9776 149.033L54.6517 162.664C54.4888 170.159 54.3802 176.35 54.3259 176.35C54.163 176.947 50.4701 177.599 47.266 177.707C41.0751 177.816 40.4234 177.707 39.1744 176.675L38.034 175.752L39.3373 169.507C40.0433 166.086 40.9122 160.058 41.2923 156.202C42.0526 147.078 42.5957 143.874 44.6593 136.923C49.7641 119.328 51.339 115.635 54.2173 114.603C55.0319 114.332 56.1723 113.843 56.7697 113.571C57.367 113.3 59.8108 112.92 62.2003 112.757L66.5448 112.377L66.3819 115.092C66.1104 118.622 67.5766 120.36 71.7039 121.446C77.2975 122.912 91.5258 121.826 94.3497 119.708C96.1961 118.405 96.6306 115.038 95.3815 112.54C94.8928 111.671 94.5126 110.802 94.5126 110.639C94.5126 110.041 96.7392 109.879 102.387 109.933C107.763 110.041 108.578 110.15 110.424 111.399ZM93.3179 112.974C94.7298 115.418 94.8385 116.287 93.698 116.287C92.6119 116.287 90.7655 114.712 89.8423 112.92C88.8104 110.965 88.8647 110.856 90.6026 110.856C91.7973 110.856 92.3947 111.291 93.3179 112.974ZM73.3331 112.485C73.3331 113.897 71.9212 115.744 70.4549 116.287C68.3369 116.993 68.4455 117.047 68.4455 115.418C68.4455 113.028 69.3687 111.942 71.4324 111.942C72.4642 111.942 73.3331 112.159 73.3331 112.485Z" fill="black"/>
<path d="M110.424 111.399C112.977 113.083 114.715 116.613 116.289 123.075C116.941 125.736 118.353 131.004 119.494 134.751C120.634 138.498 121.883 142.897 122.263 144.526C122.589 146.155 123.621 150.065 124.49 153.106C125.359 156.202 126.662 161.361 127.368 164.511L128.617 170.322L126.662 173.743C125.141 176.35 123.892 177.707 121.449 179.336C117.321 182.106 115.964 182.106 115.475 179.391C114.552 174.34 113.954 169.887 113.52 164.619C112.868 157.234 111.999 150.554 111.565 148.979C111.239 147.839 111.348 147.784 112.76 148.11C113.628 148.328 114.497 148.708 114.66 148.979C115.149 149.739 115.746 147.947 115.366 146.97C114.986 146.047 114.063 145.884 114.063 146.698C114.063 146.97 113.466 147.241 112.705 147.241C111.673 147.241 111.293 146.861 111.022 145.721C110.859 144.906 110.479 143.386 110.207 142.354C108.306 134.642 107.6 127.528 108.632 126.876C109.338 126.442 109.338 124.976 108.578 124.976C108.252 124.976 107.383 125.465 106.623 126.062C105.863 126.659 104.777 127.148 104.233 127.148C103.636 127.148 103.202 127.528 103.202 127.963C103.202 128.506 103.745 128.777 104.831 128.777C106.351 128.777 106.46 128.94 106.46 130.787C106.46 132.85 107.166 136.706 109.175 146.155C110.37 151.695 111.076 156.745 111.891 165.706C112.162 168.855 112.542 172.548 112.76 173.96C113.085 176.187 112.977 176.567 112.216 176.567C111.728 176.567 110.37 177.056 109.284 177.599C108.035 178.196 106.677 178.522 105.754 178.359C104.668 178.142 104.288 178.305 104.288 178.956C104.288 179.445 104.451 179.771 104.722 179.717C104.939 179.717 105.537 179.825 106.026 180.042C106.623 180.314 107.818 179.934 109.338 179.065C112.325 177.273 113.303 177.273 113.737 179.065C114.226 180.857 114.009 181.02 110.261 182.595C108.632 183.247 106.786 184.224 106.188 184.713C103.908 186.614 99.3459 189.057 96.359 189.926C91.5801 191.284 82.0221 190.795 76.32 188.84C69.8575 186.614 59.7022 181.835 58.4532 180.423C56.2266 177.924 55.7378 159.243 57.5843 145.069C58.1816 140.453 58.6704 135.131 58.6704 133.285C58.6704 131.438 58.9419 129.755 59.2135 129.592C59.5393 129.375 60.6254 129.755 61.6572 130.406C62.7434 131.058 63.9381 131.438 64.4269 131.275C65.4587 130.895 64.9156 129.863 63.6123 129.863C63.1235 129.863 62.0917 129.32 61.3857 128.669C60.6797 127.963 59.8108 127.42 59.485 127.42C59.2135 127.42 58.3445 127.202 57.6386 126.931C56.0094 126.333 54.6517 127.474 56.118 128.288C57.3127 128.994 57.3127 130.678 56.1723 140.562C55.4663 146.372 55.0862 148.328 54.4888 148.328C54.1087 148.328 53.5113 147.676 53.1854 146.916C52.5881 145.232 52.3165 145.395 51.6106 147.73C51.2304 149.142 51.2847 149.414 51.7735 148.925C52.1536 148.653 53.0225 148.545 53.7285 148.708L54.9776 149.033L54.6517 162.664C54.4888 170.159 54.3802 176.35 54.3259 176.35C54.163 176.947 50.4701 177.599 47.266 177.707C41.0751 177.816 40.4234 177.707 39.1744 176.675L38.034 175.752L39.3373 169.507C40.0433 166.086 40.9122 160.058 41.2923 156.202C42.0526 147.078 42.5957 143.874 44.6593 136.923C49.7641 119.328 51.339 115.635 54.2173 114.603C55.0319 114.332 56.1723 113.843 56.7697 113.571C57.367 113.3 59.8108 112.92 62.2003 112.757L66.5448 112.377L66.3819 115.092C66.1104 118.622 67.5766 120.36 71.7039 121.446C77.2975 122.912 91.5258 121.826 94.3497 119.708C96.1961 118.405 96.6306 115.038 95.3815 112.54C94.8928 111.671 94.5126 110.802 94.5126 110.639C94.5126 110.041 96.7392 109.879 102.387 109.933C107.763 110.041 108.578 110.15 110.424 111.399Z" fill="#E42024"/>
<path d="M73.3331 112.485C73.3331 113.897 71.9212 115.744 70.4549 116.287C68.3369 116.993 68.4455 117.047 68.4455 115.418C68.4455 113.028 69.3687 111.942 71.4324 111.942C72.4642 111.942 73.3331 112.159 73.3331 112.485Z" fill="#AE1C1E"/>
<path d="M93.3179 112.974C94.7298 115.418 94.8385 116.287 93.698 116.287C92.6119 116.287 90.7655 114.712 89.8423 112.92C88.8104 110.965 88.8647 110.856 90.6026 110.856C91.7973 110.856 92.3947 111.291 93.3179 112.974Z" fill="#AE1C1E"/>
<path d="M86.8465 107.191C86.55 107.39 86.3292 107.744 86.3123 108.249C86.2037 110.041 86.421 111.073 86.9097 111.399C87.1269 111.562 87.5071 112.268 87.7243 112.92C87.9415 113.626 89.082 115.201 90.2767 116.395C91.4715 117.59 92.286 118.676 92.0688 118.893C91.6887 119.274 86.421 119.925 80.1214 120.36C77.2432 120.577 74.8537 120.414 73.1159 119.925C70.1833 119.165 69.3687 118.187 71.1066 117.644C74.4435 116.607 76.4325 109.406 74.897 107.191C78.4097 106.914 85.7947 107.302 86.8465 107.191Z" fill="#878787"/>
<path d="M48.9497 43.8V101.63L54.2397 107.26H104.16L109.45 101.63V43.8H48.9497Z" fill="#878787"/>
<path d="M118.27 53.92V91.7501L109.45 101.52V43.8L118.27 53.92Z" fill="#575756"/>
<path d="M89.9998 89.1399H65.7798C65.1116 89.1399 64.5698 89.6816 64.5698 90.3499V96.1999C64.5698 96.8682 65.1116 97.4099 65.7798 97.4099H89.9998C90.6681 97.4099 91.2098 96.8682 91.2098 96.1999V90.3499C91.2098 89.6816 90.6681 89.1399 89.9998 89.1399Z" fill="#F4E347"/>
<path d="M90.1197 98.2299H65.6697C64.6097 98.2299 63.7397 97.3599 63.7397 96.2999V90.2499C63.7397 89.1899 64.5997 88.3199 65.6697 88.3199H90.1197C91.1797 88.3199 92.0497 89.1899 92.0497 90.2499V96.2999C92.0497 97.3599 91.1797 98.2299 90.1197 98.2299ZM65.6697 89.9899C65.5297 89.9899 65.4097 90.1099 65.4097 90.2499V96.2999C65.4097 96.4399 65.5297 96.5599 65.6697 96.5599H90.1197C90.2597 96.5599 90.3797 96.4399 90.3797 96.2999V90.2499C90.3797 90.1099 90.2597 89.9899 90.1197 89.9899H65.6697Z" fill="#1D1D1B"/>
<path d="M72.0699 89.4399H70.3999V97.1199H72.0699V89.4399Z" fill="#1D1D1B"/>
<path d="M78.7296 89.4399H77.0596V97.1199H78.7296V89.4399Z" fill="#1D1D1B"/>
<path d="M85.3897 89.4399H83.7197V97.1199H85.3897V89.4399Z" fill="#1D1D1B"/>
<path d="M112.69 62.49V75.9L116.11 75.07V62.86L112.69 62.03V62.49Z" fill="#3C3C3B"/>
<path d="M112.07 76.7V61.23L116.74 62.37V75.56L112.07 76.7ZM113.32 62.82V75.11L115.49 74.58V63.35L113.32 62.82Z" fill="#1D1D1B"/>
<path d="M48.3396 65.58L43.1196 59.83V46.55H44.7896V59.18L49.5696 64.4601L48.3396 65.58Z" fill="#1D1D1B"/>
<path d="M114.54 68.41C114.32 68.41 114.11 68.33 113.94 68.16C113.62 67.83 113.63 67.3 113.96 66.98L116.99 64.04L118.8 49.9C118.86 49.44 119.28 49.13 119.73 49.18C120.19 49.24 120.51 49.66 120.45 50.11L118.56 64.83L115.11 68.18C114.95 68.34 114.74 68.41 114.53 68.41H114.54Z" fill="#1D1D1B"/>
<path d="M44.05 46.85C45.7345 46.85 47.1 45.4845 47.1 43.8C47.1 42.1155 45.7345 40.75 44.05 40.75C42.3655 40.75 41 42.1155 41 43.8C41 45.4845 42.3655 46.85 44.05 46.85Z" fill="#1D1D1B"/>
<path d="M120.14 50.38C121.625 50.38 122.83 49.1756 122.83 47.69C122.83 46.2044 121.625 45 120.14 45C118.654 45 117.45 46.2044 117.45 47.69C117.45 49.1756 118.654 50.38 120.14 50.38Z" fill="#1D1D1B"/>
<path d="M65.18 38.8199H93.91C94.99 38.8199 95.87 39.6999 95.87 40.7799V43.7999H63.21V40.7799C63.21 39.6999 64.09 38.8199 65.17 38.8199H65.18Z" fill="#9D9D9C"/>
<path d="M96.6999 44.64H62.3799V42.1C62.3799 39.84 64.2199 38 66.4799 38H92.5999C94.8599 38 96.6999 39.84 96.6999 42.1V44.64ZM64.0499 42.97H95.0399V42.09C95.0399 40.75 93.9499 39.65 92.5999 39.65H66.4799C65.1399 39.65 64.0399 40.74 64.0399 42.09V42.97H64.0499Z" fill="#1D1D1B"/>
<path d="M88.2497 48.22H70.8297C70.3437 48.22 69.9497 48.614 69.9497 49.1C69.9497 49.586 70.3437 49.98 70.8297 49.98H88.2497C88.7357 49.98 89.1297 49.586 89.1297 49.1C89.1297 48.614 88.7357 48.22 88.2497 48.22Z" fill="#575756"/>
<path d="M88.2497 50.48H70.8297C70.0697 50.48 69.4497 49.86 69.4497 49.1C69.4497 48.34 70.0697 47.72 70.8297 47.72H88.2497C89.0097 47.72 89.6297 48.34 89.6297 49.1C89.6297 49.86 89.0097 50.48 88.2497 50.48ZM70.8297 48.72C70.6197 48.72 70.4497 48.89 70.4497 49.1C70.4497 49.31 70.6197 49.48 70.8297 49.48H88.2497C88.4597 49.48 88.6297 49.31 88.6297 49.1C88.6297 48.89 88.4597 48.72 88.2497 48.72H70.8297Z" fill="#1D1D1B"/>
<path d="M88.2497 51.55H70.8297C70.3437 51.55 69.9497 51.944 69.9497 52.43C69.9497 52.9161 70.3437 53.31 70.8297 53.31H88.2497C88.7357 53.31 89.1297 52.9161 89.1297 52.43C89.1297 51.944 88.7357 51.55 88.2497 51.55Z" fill="#575756"/>
<path d="M88.2497 53.81H70.8297C70.0697 53.81 69.4497 53.19 69.4497 52.43C69.4497 51.67 70.0697 51.05 70.8297 51.05H88.2497C89.0097 51.05 89.6297 51.67 89.6297 52.43C89.6297 53.19 89.0097 53.81 88.2497 53.81ZM70.8297 52.05C70.6197 52.05 70.4497 52.22 70.4497 52.43C70.4497 52.64 70.6197 52.81 70.8297 52.81H88.2497C88.4597 52.81 88.6297 52.64 88.6297 52.43C88.6297 52.22 88.4597 52.05 88.2497 52.05H70.8297Z" fill="#1D1D1B"/>
<path d="M88.2497 54.88H70.8297C70.3437 54.88 69.9497 55.274 69.9497 55.76C69.9497 56.246 70.3437 56.64 70.8297 56.64H88.2497C88.7357 56.64 89.1297 56.246 89.1297 55.76C89.1297 55.274 88.7357 54.88 88.2497 54.88Z" fill="#575756"/>
<path d="M88.2497 57.14H70.8297C70.0697 57.14 69.4497 56.52 69.4497 55.76C69.4497 55 70.0697 54.38 70.8297 54.38H88.2497C89.0097 54.38 89.6297 55 89.6297 55.76C89.6297 56.52 89.0097 57.14 88.2497 57.14ZM70.8297 55.38C70.6197 55.38 70.4497 55.55 70.4497 55.76C70.4497 55.97 70.6197 56.14 70.8297 56.14H88.2497C88.4597 56.14 88.6297 55.97 88.6297 55.76C88.6297 55.55 88.4597 55.38 88.2497 55.38H70.8297Z" fill="#1D1D1B"/>
<path d="M55.9698 105.08C56.7761 105.08 57.4298 104.426 57.4298 103.62C57.4298 102.814 56.7761 102.16 55.9698 102.16C55.1634 102.16 54.5098 102.814 54.5098 103.62C54.5098 104.426 55.1634 105.08 55.9698 105.08Z" fill="#575756"/>
<path d="M55.9696 105.26C55.0596 105.26 54.3296 104.52 54.3296 103.62C54.3296 102.72 55.0696 101.98 55.9696 101.98C56.8696 101.98 57.6096 102.72 57.6096 103.62C57.6096 104.52 56.8696 105.26 55.9696 105.26ZM55.9696 102.34C55.2596 102.34 54.6896 102.91 54.6896 103.62C54.6896 104.33 55.2596 104.9 55.9696 104.9C56.6796 104.9 57.2496 104.33 57.2496 103.62C57.2496 102.91 56.6796 102.34 55.9696 102.34Z" fill="#1D1D1B"/>
<path d="M55.5514 102.941L55.2969 103.196L56.3929 104.292L56.6475 104.037L55.5514 102.941Z" fill="#1D1D1B"/>
<path d="M56.3997 102.951L55.3037 104.047L55.5583 104.302L56.6543 103.206L56.3997 102.951Z" fill="#1D1D1B"/>
<path d="M52.25 101.28C53.0564 101.28 53.71 100.626 53.71 99.82C53.71 99.0136 53.0564 98.36 52.25 98.36C51.4437 98.36 50.79 99.0136 50.79 99.82C50.79 100.626 51.4437 101.28 52.25 101.28Z" fill="#575756"/>
<path d="M52.2499 101.46C51.3399 101.46 50.6099 100.72 50.6099 99.8199C50.6099 98.9199 51.3499 98.1799 52.2499 98.1799C53.1499 98.1799 53.8899 98.9199 53.8899 99.8199C53.8899 100.72 53.1499 101.46 52.2499 101.46ZM52.2499 98.5399C51.5399 98.5399 50.9699 99.1099 50.9699 99.8199C50.9699 100.53 51.5399 101.1 52.2499 101.1C52.9599 101.1 53.5299 100.53 53.5299 99.8199C53.5299 99.1099 52.9599 98.5399 52.2499 98.5399Z" fill="#1D1D1B"/>
<path d="M51.8244 99.1346L51.5698 99.3892L52.6658 100.485L52.9204 100.231L51.8244 99.1346Z" fill="#1D1D1B"/>
<path d="M52.6727 99.1446L51.5767 100.241L51.8312 100.495L52.9272 99.3991L52.6727 99.1446Z" fill="#1D1D1B"/>
<path d="M101.72 105.08C102.526 105.08 103.18 104.426 103.18 103.62C103.18 102.814 102.526 102.16 101.72 102.16C100.913 102.16 100.26 102.814 100.26 103.62C100.26 104.426 100.913 105.08 101.72 105.08Z" fill="#575756"/>
<path d="M100.07 103.62C100.07 102.71 100.81 101.98 101.71 101.98C102.61 101.98 103.35 102.72 103.35 103.62C103.35 104.52 102.61 105.26 101.71 105.26C100.81 105.26 100.07 104.52 100.07 103.62ZM100.44 103.62C100.44 104.33 101.01 104.9 101.72 104.9C102.43 104.9 103 104.33 103 103.62C103 102.91 102.43 102.34 101.72 102.34C101.01 102.34 100.44 102.91 100.44 103.62Z" fill="#1D1D1B"/>
<path d="M102.14 102.941L101.044 104.037L101.299 104.292L102.395 103.196L102.14 102.941Z" fill="#1D1D1B"/>
<path d="M101.299 102.948L101.044 103.203L102.14 104.299L102.395 104.044L101.299 102.948Z" fill="#1D1D1B"/>
<path d="M105.44 101.28C106.246 101.28 106.9 100.626 106.9 99.82C106.9 99.0136 106.246 98.36 105.44 98.36C104.634 98.36 103.98 99.0136 103.98 99.82C103.98 100.626 104.634 101.28 105.44 101.28Z" fill="#575756"/>
<path d="M103.8 99.8199C103.8 98.9099 104.54 98.1799 105.44 98.1799C106.34 98.1799 107.08 98.9199 107.08 99.8199C107.08 100.72 106.34 101.46 105.44 101.46C104.54 101.46 103.8 100.72 103.8 99.8199ZM104.16 99.8199C104.16 100.53 104.73 101.1 105.44 101.1C106.15 101.1 106.72 100.53 106.72 99.8199C106.72 99.1099 106.15 98.5399 105.44 98.5399C104.73 98.5399 104.16 99.1099 104.16 99.8199Z" fill="#1D1D1B"/>
<path d="M105.864 99.1436L104.768 100.24L105.022 100.494L106.118 99.3982L105.864 99.1436Z" fill="#1D1D1B"/>
<path d="M105.015 99.1335L104.761 99.3881L105.857 100.484L106.111 100.23L105.015 99.1335Z" fill="#1D1D1B"/>
<path d="M105.2 49.68C106.006 49.68 106.66 49.0263 106.66 48.22C106.66 47.4137 106.006 46.76 105.2 46.76C104.393 46.76 103.74 47.4137 103.74 48.22C103.74 49.0263 104.393 49.68 105.2 49.68Z" fill="#575756"/>
<path d="M105.2 49.86C104.29 49.86 103.56 49.12 103.56 48.22C103.56 47.32 104.3 46.58 105.2 46.58C106.1 46.58 106.84 47.32 106.84 48.22C106.84 49.12 106.1 49.86 105.2 49.86ZM105.2 46.94C104.49 46.94 103.92 47.51 103.92 48.22C103.92 48.93 104.49 49.5 105.2 49.5C105.91 49.5 106.48 48.93 106.48 48.22C106.48 47.51 105.91 46.94 105.2 46.94Z" fill="#1D1D1B"/>
<path d="M104.778 47.5366L104.524 47.7911L105.62 48.8872L105.874 48.6326L104.778 47.5366Z" fill="#1D1D1B"/>
<path d="M105.62 47.5436L104.524 48.6396L104.778 48.8942L105.874 47.7982L105.62 47.5436Z" fill="#1D1D1B"/>
<path d="M53.5699 49.68C54.3762 49.68 55.0299 49.0263 55.0299 48.22C55.0299 47.4137 54.3762 46.76 53.5699 46.76C52.7635 46.76 52.1099 47.4137 52.1099 48.22C52.1099 49.0263 52.7635 49.68 53.5699 49.68Z" fill="#575756"/>
<path d="M53.5697 49.86C52.6597 49.86 51.9297 49.12 51.9297 48.22C51.9297 47.32 52.6697 46.58 53.5697 46.58C54.4697 46.58 55.2097 47.32 55.2097 48.22C55.2097 49.12 54.4697 49.86 53.5697 49.86ZM53.5697 46.94C52.8597 46.94 52.2897 47.51 52.2897 48.22C52.2897 48.93 52.8597 49.5 53.5697 49.5C54.2797 49.5 54.8497 48.93 54.8497 48.22C54.8497 47.51 54.2797 46.94 53.5697 46.94Z" fill="#1D1D1B"/>
<path d="M53.1437 47.5274L52.8892 47.782L53.9852 48.878L54.2397 48.6234L53.1437 47.5274Z" fill="#1D1D1B"/>
<path d="M53.992 47.5374L52.896 48.6334L53.1506 48.888L54.2466 47.792L53.992 47.5374Z" fill="#1D1D1B"/>
<path d="M118.68 52.56L110.69 43.7C110.35 43.32 109.9 43.14 109.33 42.96C108.77 42.78 108.32 42.8 107.72 42.8H50.6497C49.1497 42.8 47.9297 44.02 47.9297 45.52V100.96C47.9297 101.64 48.1897 102.3 48.6497 102.8L52.8797 107.39C53.3897 107.95 54.1197 108.27 54.8797 108.27H103.4C104.15 108.27 104.87 107.96 105.38 107.41L109.7 102.81C109.91 102.59 110.1 102.43 110.29 102.16C110.45 101.99 110.55 101.88 110.7 101.73L118.69 92.78C118.9 92.54 119.02 92.24 119.02 91.92V53.43C119.02 53.11 118.9 52.8 118.69 52.56H118.68ZM108.44 100.95C108.44 101.13 108.37 101.31 108.25 101.44L103.93 106.04C103.79 106.18 103.6 106.27 103.41 106.27H54.8797C54.6797 106.27 54.4897 106.19 54.3497 106.04L50.1197 101.45C49.9997 101.32 49.9297 101.15 49.9297 100.96V45.52C49.9297 45.12 50.2497 44.8 50.6497 44.8H107.72C108.12 44.8 108.44 45.12 108.44 45.52V100.95ZM117.01 91.64L110.43 99.01V46.4L117.01 53.69V91.63V91.64Z" fill="#1D1D1B"/>
<mask id="mask1_2305_9009" style="mask-type:luminance" maskUnits="userSpaceOnUse" x="54" y="62" width="50" height="20">
<path d="M96.7797 62.8199H61.0297C57.2797 62.8199 54.2397 65.8599 54.2397 69.6099V74.2499C54.2397 78 57.2797 81.0399 61.0297 81.0399H96.7797C100.53 81.0399 103.57 78 103.57 74.2499V69.6099C103.57 65.8599 100.53 62.8199 96.7797 62.8199Z" fill="white"/>
</mask>
<g mask="url(#mask1_2305_9009)">
<path d="M103.11 61.23H60.5C56.7499 61.23 53.71 64.27 53.71 68.02V76.91C53.71 80.66 56.7499 83.7 60.5 83.7H103.11C106.86 83.7 109.9 80.66 109.9 76.91V68.02C109.9 64.27 106.86 61.23 103.11 61.23Z" fill="#013A1C"/>
<path d="M104.28 80.34H103.16V81.46H104.28V80.34Z" fill="#013A1C"/>
<path d="M103.15 80.34H102.03V81.46H103.15V80.34Z" fill="#013A1C"/>
<path d="M102.03 80.34H100.91V81.46H102.03V80.34Z" fill="#013A1C"/>
<path d="M100.9 80.34H99.7798V81.46H100.9V80.34Z" fill="#013A1C"/>
<path d="M99.7802 80.34H98.6602V81.46H99.7802V80.34Z" fill="#013A1C"/>
<path d="M98.66 80.34H97.54V81.46H98.66V80.34Z" fill="#013A1C"/>
<path d="M97.5302 80.34H96.4102V81.46H97.5302V80.34Z" fill="#013A1C"/>
<path d="M96.41 80.34H95.29V81.46H96.41V80.34Z" fill="#013A1C"/>
<path d="M95.2899 80.34H94.1699V81.46H95.2899V80.34Z" fill="#013A1C"/>
<path d="M94.16 80.34H93.04V81.46H94.16V80.34Z" fill="#013A1C"/>
<path d="M93.0399 80.34H91.9199V81.46H93.0399V80.34Z" fill="#013A1C"/>
<path d="M91.91 80.34H90.79V81.46H91.91V80.34Z" fill="#013A1C"/>
<path d="M90.7899 80.34H89.6699V81.46H90.7899V80.34Z" fill="#013A1C"/>
<path d="M89.6698 80.34H88.5498V81.46H89.6698V80.34Z" fill="#013A1C"/>
<path d="M88.5399 80.34H87.4199V81.46H88.5399V80.34Z" fill="#013A1C"/>
<path d="M87.4198 80.34H86.2998V81.46H87.4198V80.34Z" fill="#013A1C"/>
<path d="M86.3002 80.34H85.1802V81.46H86.3002V80.34Z" fill="#013A1C"/>
<path d="M85.1698 80.34H84.0498V81.46H85.1698V80.34Z" fill="#013A1C"/>
<path d="M84.0502 80.34H82.9302V81.46H84.0502V80.34Z" fill="#013A1C"/>
<path d="M82.9198 80.34H81.7998V81.46H82.9198V80.34Z" fill="#013A1C"/>
<path d="M81.8002 80.34H80.6802V81.46H81.8002V80.34Z" fill="#013A1C"/>
<path d="M80.6801 80.34H79.5601V81.46H80.6801V80.34Z" fill="#013A1C"/>
<path d="M79.5502 80.34H78.4302V81.46H79.5502V80.34Z" fill="#013A1C"/>
<path d="M78.4301 80.34H77.3101V81.46H78.4301V80.34Z" fill="#013A1C"/>
<path d="M77.3099 80.34H76.1899V81.46H77.3099V80.34Z" fill="#013A1C"/>
<path d="M76.1801 80.34H75.0601V81.46H76.1801V80.34Z" fill="#013A1C"/>
<path d="M75.0599 80.34H73.9399V81.46H75.0599V80.34Z" fill="#013A1C"/>
<path d="M73.9398 80.34H72.8198V81.46H73.9398V80.34Z" fill="#013A1C"/>
<path d="M72.8099 80.34H71.6899V81.46H72.8099V80.34Z" fill="#013A1C"/>
<path d="M71.6898 80.34H70.5698V81.46H71.6898V80.34Z" fill="#013A1C"/>
<path d="M70.5599 80.34H69.4399V81.46H70.5599V80.34Z" fill="#013A1C"/>
<path d="M69.4398 80.34H68.3198V81.46H69.4398V80.34Z" fill="#013A1C"/>
<path d="M68.3202 80.34H67.2002V81.46H68.3202V80.34Z" fill="#013A1C"/>
<path d="M67.1898 80.34H66.0698V81.46H67.1898V80.34Z" fill="#013A1C"/>
<path d="M66.0702 80.34H64.9502V81.46H66.0702V80.34Z" fill="#013A1C"/>
<path d="M64.9501 80.34H63.8301V81.46H64.9501V80.34Z" fill="#013A1C"/>
<path d="M63.8202 80.34H62.7002V81.46H63.8202V80.34Z" fill="#013A1C"/>
<path d="M62.7001 80.34H61.5801V81.46H62.7001V80.34Z" fill="#013A1C"/>
<path d="M61.5702 80.34H60.4502V81.46H61.5702V80.34Z" fill="#013A1C"/>
<path d="M60.4501 80.34H59.3301V81.46H60.4501V80.34Z" fill="#013A1C"/>
<path d="M59.33 80.34H58.21V81.46H59.33V80.34Z" fill="#013A1C"/>
<path d="M58.2001 80.34H57.0801V81.46H58.2001V80.34Z" fill="#013A1C"/>
<path d="M57.08 80.34H55.96V81.46H57.08V80.34Z" fill="#013A1C"/>
<path d="M55.9598 80.34H54.8398V81.46H55.9598V80.34Z" fill="#013A1C"/>
<path d="M54.83 80.34H53.71V81.46H54.83V80.34Z" fill="#013A1C"/>
<path d="M104.28 79.21H103.16V80.33H104.28V79.21Z" fill="#013A1C"/>
<path d="M103.15 79.21H102.03V80.33H103.15V79.21Z" fill="#013A1C"/>
<path d="M102.03 79.21H100.91V80.33H102.03V79.21Z" fill="#013A1C"/>
<path d="M100.9 79.21H99.7798V80.33H100.9V79.21Z" fill="#013A1C"/>
<path d="M99.7802 79.21H98.6602V80.33H99.7802V79.21Z" fill="#013A1C"/>
<path d="M98.66 79.21H97.54V80.33H98.66V79.21Z" fill="#013A1C"/>
<path d="M97.5302 79.21H96.4102V80.33H97.5302V79.21Z" fill="#013A1C"/>
<path d="M96.41 79.21H95.29V80.33H96.41V79.21Z" fill="#013A1C"/>
<path d="M95.2899 79.21H94.1699V80.33H95.2899V79.21Z" fill="#013A1C"/>
<path d="M94.16 79.21H93.04V80.33H94.16V79.21Z" fill="#013A1C"/>
<path d="M93.0399 79.21H91.9199V80.33H93.0399V79.21Z" fill="#013A1C"/>
<path d="M91.91 79.21H90.79V80.33H91.91V79.21Z" fill="#013A1C"/>
<path d="M90.7899 79.21H89.6699V80.33H90.7899V79.21Z" fill="#013A1C"/>
<path d="M89.6698 79.21H88.5498V80.33H89.6698V79.21Z" fill="#013A1C"/>
<path d="M88.5399 79.21H87.4199V80.33H88.5399V79.21Z" fill="#013A1C"/>
<path d="M87.4198 79.21H86.2998V80.33H87.4198V79.21Z" fill="#013A1C"/>
<path d="M86.3002 79.21H85.1802V80.33H86.3002V79.21Z" fill="#013A1C"/>
<path d="M85.1698 79.21H84.0498V80.33H85.1698V79.21Z" fill="#013A1C"/>
<path d="M84.0502 79.21H82.9302V80.33H84.0502V79.21Z" fill="#013A1C"/>
<path d="M82.9198 79.21H81.7998V80.33H82.9198V79.21Z" fill="#013A1C"/>
<path d="M81.8002 79.21H80.6802V80.33H81.8002V79.21Z" fill="#013A1C"/>
<path d="M80.6801 79.21H79.5601V80.33H80.6801V79.21Z" fill="#013A1C"/>
<path d="M79.5502 79.21H78.4302V80.33H79.5502V79.21Z" fill="#013A1C"/>
<path d="M78.4301 79.21H77.3101V80.33H78.4301V79.21Z" fill="#013A1C"/>
<path d="M77.3099 79.21H76.1899V80.33H77.3099V79.21Z" fill="#013A1C"/>
<path d="M76.1801 79.21H75.0601V80.33H76.1801V79.21Z" fill="#013A1C"/>
<path d="M75.0599 79.21H73.9399V80.33H75.0599V79.21Z" fill="#013A1C"/>
<path d="M73.9398 79.21H72.8198V80.33H73.9398V79.21Z" fill="#013A1C"/>
<path d="M72.8099 79.21H71.6899V80.33H72.8099V79.21Z" fill="#013A1C"/>
<path d="M71.6898 79.21H70.5698V80.33H71.6898V79.21Z" fill="#013A1C"/>
<path d="M70.5599 79.21H69.4399V80.33H70.5599V79.21Z" fill="#013A1C"/>
<path d="M69.4398 79.21H68.3198V80.33H69.4398V79.21Z" fill="#013A1C"/>
<path d="M68.3202 79.21H67.2002V80.33H68.3202V79.21Z" fill="#013A1C"/>
<path d="M67.1898 79.21H66.0698V80.33H67.1898V79.21Z" fill="#013A1C"/>
<path d="M66.0702 79.21H64.9502V80.33H66.0702V79.21Z" fill="#013A1C"/>
<path d="M64.9501 79.21H63.8301V80.33H64.9501V79.21Z" fill="#013A1C"/>
<path d="M63.8202 79.21H62.7002V80.33H63.8202V79.21Z" fill="#013A1C"/>
<path d="M62.7001 79.21H61.5801V80.33H62.7001V79.21Z" fill="#013A1C"/>
<path d="M61.5702 79.21H60.4502V80.33H61.5702V79.21Z" fill="#013A1C"/>
<path d="M60.4501 79.21H59.3301V80.33H60.4501V79.21Z" fill="#013A1C"/>
<path d="M59.33 79.21H58.21V80.33H59.33V79.21Z" fill="#013A1C"/>
<path d="M58.2001 79.21H57.0801V80.33H58.2001V79.21Z" fill="#013A1C"/>
<path d="M57.08 79.21H55.96V80.33H57.08V79.21Z" fill="#013A1C"/>
<path d="M55.9598 79.21H54.8398V80.33H55.9598V79.21Z" fill="#013A1C"/>
<path d="M54.83 79.21H53.71V80.33H54.83V79.21Z" fill="#013A1C"/>
<path d="M104.27 78.09H103.15V79.21H104.27V78.09Z" fill="#013A1C"/>
<path d="M103.15 78.09H102.03V79.21H103.15V78.09Z" fill="#013A1C"/>
<path d="M102.02 78.09H100.9V79.21H102.02V78.09Z" fill="#013A1C"/>
<path d="M100.9 78.09H99.7798V79.21H100.9V78.09Z" fill="#013A1C"/>
<path d="M99.7802 78.09H98.6602V79.21H99.7802V78.09Z" fill="#013A1C"/>
<path d="M98.66 78.09H97.54V79.21H98.66V78.09Z" fill="#013A1C"/>
<path d="M97.5302 78.09H96.4102V79.21H97.5302V78.09Z" fill="#013A1C"/>
<path d="M96.41 78.09H95.29V79.21H96.41V78.09Z" fill="#013A1C"/>
<path d="M95.2899 78.09H94.1699V79.21H95.2899V78.09Z" fill="#013A1C"/>
<path d="M94.16 78.09H93.04V79.21H94.16V78.09Z" fill="#013A1C"/>
<path d="M93.0399 78.09H91.9199V79.21H93.0399V78.09Z" fill="#013A1C"/>
<path d="M91.91 78.09H90.79V79.21H91.91V78.09Z" fill="#013A1C"/>
<path d="M90.7899 78.09H89.6699V79.21H90.7899V78.09Z" fill="#013A1C"/>
<path d="M89.6698 78.09H88.5498V79.21H89.6698V78.09Z" fill="#013A1C"/>
<path d="M88.5399 78.09H87.4199V79.21H88.5399V78.09Z" fill="#013A1C"/>
<path d="M87.4198 78.09H86.2998V79.21H87.4198V78.09Z" fill="#013A1C"/>
<path d="M86.3002 78.09H85.1802V79.21H86.3002V78.09Z" fill="#013A1C"/>
<path d="M85.1698 78.09H84.0498V79.21H85.1698V78.09Z" fill="#013A1C"/>
<path d="M84.0502 78.09H82.9302V79.21H84.0502V78.09Z" fill="#013A1C"/>
<path d="M82.9198 78.09H81.7998V79.21H82.9198V78.09Z" fill="#013A1C"/>
<path d="M81.8002 78.09H80.6802V79.21H81.8002V78.09Z" fill="#013A1C"/>
<path d="M80.6801 78.09H79.5601V79.21H80.6801V78.09Z" fill="#013A1C"/>
<path d="M79.5502 78.09H78.4302V79.21H79.5502V78.09Z" fill="#013A1C"/>
<path d="M78.4301 78.09H77.3101V79.21H78.4301V78.09Z" fill="#013A1C"/>
<path d="M77.3099 78.09H76.1899V79.21H77.3099V78.09Z" fill="#013A1C"/>
<path d="M76.1801 78.09H75.0601V79.21H76.1801V78.09Z" fill="#013A1C"/>
<path d="M75.0599 78.09H73.9399V79.21H75.0599V78.09Z" fill="#013A1C"/>
<path d="M73.9398 78.09H72.8198V79.21H73.9398V78.09Z" fill="#013A1C"/>
<path d="M72.8099 78.09H71.6899V79.21H72.8099V78.09Z" fill="#013A1C"/>
<path d="M71.6898 78.09H70.5698V79.21H71.6898V78.09Z" fill="#013A1C"/>
<path d="M70.5599 78.09H69.4399V79.21H70.5599V78.09Z" fill="#013A1C"/>
<path d="M69.4398 78.09H68.3198V79.21H69.4398V78.09Z" fill="#013A1C"/>
<path d="M68.3202 78.09H67.2002V79.21H68.3202V78.09Z" fill="#013A1C"/>
<path d="M67.1898 78.09H66.0698V79.21H67.1898V78.09Z" fill="#013A1C"/>
<path d="M66.0702 78.09H64.9502V79.21H66.0702V78.09Z" fill="#013A1C"/>
<path d="M64.9501 78.09H63.8301V79.21H64.9501V78.09Z" fill="#013A1C"/>
<path d="M63.8202 78.09H62.7002V79.21H63.8202V78.09Z" fill="#013A1C"/>
<path d="M62.7001 78.09H61.5801V79.21H62.7001V78.09Z" fill="#013A1C"/>
<path d="M61.5702 78.09H60.4502V79.21H61.5702V78.09Z" fill="#013A1C"/>
<path d="M60.4501 78.09H59.3301V79.21H60.4501V78.09Z" fill="#013A1C"/>
<path d="M59.33 78.09H58.21V79.21H59.33V78.09Z" fill="#013A1C"/>
<path d="M58.2001 78.09H57.0801V79.21H58.2001V78.09Z" fill="#013A1C"/>
<path d="M57.08 78.09H55.96V79.21H57.08V78.09Z" fill="#013A1C"/>
<path d="M55.9598 78.09H54.8398V79.21H55.9598V78.09Z" fill="#013A1C"/>
<path d="M54.83 78.09H53.71V79.21H54.83V78.09Z" fill="#013A1C"/>
<path d="M99.7802 76.97H98.6602V78.09H99.7802V76.97Z" fill="#013A1C"/>
<path d="M98.66 76.97H97.54V78.09H98.66V76.97Z" fill="#013A1C"/>
<path d="M97.5302 76.97H96.4102V78.09H97.5302V76.97Z" fill="#013A1C"/>
<path d="M96.41 76.97H95.29V78.09H96.41V76.97Z" fill="#013A1C"/>
<path d="M95.2899 76.97H94.1699V78.09H95.2899V76.97Z" fill="#013A1C"/>
<path d="M94.16 76.97H93.04V78.09H94.16V76.97Z" fill="#013A1C"/>
<path d="M93.0399 76.97H91.9199V78.09H93.0399V76.97Z" fill="#013A1C"/>
<path d="M91.91 76.97H90.79V78.09H91.91V76.97Z" fill="#013A1C"/>
<path d="M90.7899 76.97H89.6699V78.09H90.7899V76.97Z" fill="#013A1C"/>
<path d="M89.6698 76.97H88.5498V78.09H89.6698V76.97Z" fill="#013A1C"/>
<path d="M88.5399 76.97H87.4199V78.09H88.5399V76.97Z" fill="#013A1C"/>
<path d="M87.4198 76.97H86.2998V78.09H87.4198V76.97Z" fill="#013A1C"/>
<path d="M86.3002 76.97H85.1802V78.09H86.3002V76.97Z" fill="#013A1C"/>
<path d="M85.1698 76.97H84.0498V78.09H85.1698V76.97Z" fill="#013A1C"/>
<path d="M84.0502 76.97H82.9302V78.09H84.0502V76.97Z" fill="#013A1C"/>
<path d="M82.9198 76.97H81.7998V78.09H82.9198V76.97Z" fill="#013A1C"/>
<path d="M81.8002 76.97H80.6802V78.09H81.8002V76.97Z" fill="#013A1C"/>
<path d="M80.6801 76.97H79.5601V78.09H80.6801V76.97Z" fill="#013A1C"/>
<path d="M79.5502 76.97H78.4302V78.09H79.5502V76.97Z" fill="#013A1C"/>
<path d="M78.4301 76.97H77.3101V78.09H78.4301V76.97Z" fill="#013A1C"/>
<path d="M77.3099 76.97H76.1899V78.09H77.3099V76.97Z" fill="#013A1C"/>
<path d="M76.1801 76.97H75.0601V78.09H76.1801V76.97Z" fill="#013A1C"/>
<path d="M75.0599 76.97H73.9399V78.09H75.0599V76.97Z" fill="#013A1C"/>
<path d="M73.9398 76.97H72.8198V78.09H73.9398V76.97Z" fill="#013A1C"/>
<path d="M72.8099 76.97H71.6899V78.09H72.8099V76.97Z" fill="#013A1C"/>
<path d="M71.6898 76.97H70.5698V78.09H71.6898V76.97Z" fill="#013A1C"/>
<path d="M70.5599 76.97H69.4399V78.09H70.5599V76.97Z" fill="#013A1C"/>
<path d="M69.4398 76.97H68.3198V78.09H69.4398V76.97Z" fill="#013A1C"/>
<path d="M68.3202 76.97H67.2002V78.09H68.3202V76.97Z" fill="#013A1C"/>
<path d="M67.1898 76.97H66.0698V78.09H67.1898V76.97Z" fill="#013A1C"/>
<path d="M66.0702 76.97H64.9502V78.09H66.0702V76.97Z" fill="#013A1C"/>
<path d="M64.9398 76.97H63.8198V78.09H64.9398V76.97Z" fill="#013A1C"/>
<path d="M59.3202 76.97H58.2002V78.09H59.3202V76.97Z" fill="#013A1C"/>
<path d="M58.2001 76.97H57.0801V78.09H58.2001V76.97Z" fill="#013A1C"/>
<path d="M57.08 76.97H55.96V78.09H57.08V76.97Z" fill="#013A1C"/>
<path d="M55.9598 76.97H54.8398V78.09H55.9598V76.97Z" fill="#013A1C"/>
<path d="M54.83 76.97H53.71V78.09H54.83V76.97Z" fill="#013A1C"/>
<path d="M98.6498 75.84H97.5298V76.96H98.6498V75.84Z" fill="#013A1C"/>
<path d="M97.5302 75.84H96.4102V76.96H97.5302V75.84Z" fill="#013A1C"/>
<path d="M96.41 75.84H95.29V76.96H96.41V75.84Z" fill="#013A1C"/>
<path d="M95.2899 75.84H94.1699V76.96H95.2899V75.84Z" fill="#013A1C"/>
<path d="M94.16 75.84H93.04V76.96H94.16V75.84Z" fill="#013A1C"/>
<path d="M93.0399 75.84H91.9199V76.96H93.0399V75.84Z" fill="#013A1C"/>
<path d="M91.91 75.84H90.79V76.96H91.91V75.84Z" fill="#013A1C"/>
<path d="M90.7899 75.84H89.6699V76.96H90.7899V75.84Z" fill="#013A1C"/>
<path d="M89.6698 75.84H88.5498V76.96H89.6698V75.84Z" fill="#013A1C"/>
<path d="M88.5399 75.84H87.4199V76.96H88.5399V75.84Z" fill="#013A1C"/>
<path d="M87.4198 75.84H86.2998V76.96H87.4198V75.84Z" fill="#013A1C"/>
<path d="M86.3002 75.84H85.1802V76.96H86.3002V75.84Z" fill="#013A1C"/>
<path d="M85.1698 75.84H84.0498V76.96H85.1698V75.84Z" fill="#013A1C"/>
<path d="M84.0502 75.84H82.9302V76.96H84.0502V75.84Z" fill="#013A1C"/>
<path d="M82.9198 75.84H81.7998V76.96H82.9198V75.84Z" fill="#013A1C"/>
<path d="M81.8002 75.84H80.6802V76.96H81.8002V75.84Z" fill="#013A1C"/>
<path d="M80.6801 75.84H79.5601V76.96H80.6801V75.84Z" fill="#013A1C"/>
<path d="M79.5502 75.84H78.4302V76.96H79.5502V75.84Z" fill="#013A1C"/>
<path d="M78.4301 75.84H77.3101V76.96H78.4301V75.84Z" fill="#013A1C"/>
<path d="M77.3099 75.84H76.1899V76.96H77.3099V75.84Z" fill="#013A1C"/>
<path d="M76.1801 75.84H75.0601V76.96H76.1801V75.84Z" fill="#013A1C"/>
<path d="M75.0599 75.84H73.9399V76.96H75.0599V75.84Z" fill="#013A1C"/>
<path d="M73.9398 75.84H72.8198V76.96H73.9398V75.84Z" fill="#013A1C"/>
<path d="M72.8099 75.84H71.6899V76.96H72.8099V75.84Z" fill="#013A1C"/>
<path d="M71.6898 75.84H70.5698V76.96H71.6898V75.84Z" fill="#013A1C"/>
<path d="M70.5599 75.84H69.4399V76.96H70.5599V75.84Z" fill="#013A1C"/>
<path d="M69.4398 75.84H68.3198V76.96H69.4398V75.84Z" fill="#013A1C"/>
<path d="M68.3202 75.84H67.2002V76.96H68.3202V75.84Z" fill="#013A1C"/>
<path d="M67.1898 75.84H66.0698V76.96H67.1898V75.84Z" fill="#013A1C"/>
<path d="M66.0702 75.84H64.9502V76.96H66.0702V75.84Z" fill="#013A1C"/>
<path d="M58.2001 75.84H57.0801V76.96H58.2001V75.84Z" fill="#013A1C"/>
<path d="M57.08 75.84H55.96V76.96H57.08V75.84Z" fill="#013A1C"/>
<path d="M55.9598 75.84H54.8398V76.96H55.9598V75.84Z" fill="#013A1C"/>
<path d="M54.83 75.84H53.71V76.96H54.83V75.84Z" fill="#013A1C"/>
<path d="M97.5302 74.72H96.4102V75.84H97.5302V74.72Z" fill="#013A1C"/>
<path d="M96.41 74.72H95.29V75.84H96.41V74.72Z" fill="#013A1C"/>
<path d="M95.2899 74.72H94.1699V75.84H95.2899V74.72Z" fill="#013A1C"/>
<path d="M94.16 74.72H93.04V75.84H94.16V74.72Z" fill="#013A1C"/>
<path d="M93.0399 74.72H91.9199V75.84H93.0399V74.72Z" fill="#013A1C"/>
<path d="M91.91 74.72H90.79V75.84H91.91V74.72Z" fill="#013A1C"/>
<path d="M90.7899 74.72H89.6699V75.84H90.7899V74.72Z" fill="#013A1C"/>
<path d="M89.6698 74.72H88.5498V75.84H89.6698V74.72Z" fill="#013A1C"/>
<path d="M88.5399 74.72H87.4199V75.84H88.5399V74.72Z" fill="#013A1C"/>
<path d="M87.4198 74.72H86.2998V75.84H87.4198V74.72Z" fill="#013A1C"/>
<path d="M86.3002 74.72H85.1802V75.84H86.3002V74.72Z" fill="#013A1C"/>
<path d="M85.1698 74.72H84.0498V75.84H85.1698V74.72Z" fill="#013A1C"/>
<path d="M84.0502 74.72H82.9302V75.84H84.0502V74.72Z" fill="#013A1C"/>
<path d="M82.9198 74.72H81.7998V75.84H82.9198V74.72Z" fill="#013A1C"/>
<path d="M81.8002 74.72H80.6802V75.84H81.8002V74.72Z" fill="#013A1C"/>
<path d="M80.6801 74.72H79.5601V75.84H80.6801V74.72Z" fill="#013A1C"/>
<path d="M79.5502 74.72H78.4302V75.84H79.5502V74.72Z" fill="#013A1C"/>
<path d="M78.4301 74.72H77.3101V75.84H78.4301V74.72Z" fill="#013A1C"/>
<path d="M77.3099 74.72H76.1899V75.84H77.3099V74.72Z" fill="#013A1C"/>
<path d="M76.1801 74.72H75.0601V75.84H76.1801V74.72Z" fill="#013A1C"/>
<path d="M75.0599 74.72H73.9399V75.84H75.0599V74.72Z" fill="#013A1C"/>
<path d="M73.9398 74.72H72.8198V75.84H73.9398V74.72Z" fill="#013A1C"/>
<path d="M72.8099 74.72H71.6899V75.84H72.8099V74.72Z" fill="#013A1C"/>
<path d="M71.6898 74.72H70.5698V75.84H71.6898V74.72Z" fill="#013A1C"/>
<path d="M70.5599 74.72H69.4399V75.84H70.5599V74.72Z" fill="#013A1C"/>
<path d="M69.4398 74.72H68.3198V75.84H69.4398V74.72Z" fill="#013A1C"/>
<path d="M68.3202 74.72H67.2002V75.84H68.3202V74.72Z" fill="#013A1C"/>
<path d="M67.1898 74.72H66.0698V75.84H67.1898V74.72Z" fill="#013A1C"/>
<path d="M57.08 74.72H55.96V75.84H57.08V74.72Z" fill="#013A1C"/>
<path d="M55.9598 74.72H54.8398V75.84H55.9598V74.72Z" fill="#013A1C"/>
<path d="M54.83 74.72H53.71V75.84H54.83V74.72Z" fill="#013A1C"/>
<path d="M96.41 73.6H95.29V74.72H96.41V73.6Z" fill="#013A1C"/>
<path d="M95.2899 73.59H94.1699V74.71H95.2899V73.59Z" fill="#013A1C"/>
<path d="M94.16 73.59H93.04V74.71H94.16V73.59Z" fill="#013A1C"/>
<path d="M93.0399 73.59H91.9199V74.71H93.0399V73.59Z" fill="#013A1C"/>
<path d="M91.91 73.59H90.79V74.71H91.91V73.59Z" fill="#013A1C"/>
<path d="M90.7899 73.59H89.6699V74.71H90.7899V73.59Z" fill="#013A1C"/>
<path d="M89.6698 73.59H88.5498V74.71H89.6698V73.59Z" fill="#013A1C"/>
<path d="M88.5399 73.59H87.4199V74.71H88.5399V73.59Z" fill="#013A1C"/>
<path d="M87.4198 73.59H86.2998V74.71H87.4198V73.59Z" fill="#013A1C"/>
<path d="M86.3002 73.59H85.1802V74.71H86.3002V73.59Z" fill="#013A1C"/>
<path d="M85.1698 73.59H84.0498V74.71H85.1698V73.59Z" fill="#013A1C"/>
<path d="M84.0502 73.59H82.9302V74.71H84.0502V73.59Z" fill="#013A1C"/>
<path d="M82.9198 73.59H81.7998V74.71H82.9198V73.59Z" fill="#013A1C"/>
<path d="M81.8002 73.59H80.6802V74.71H81.8002V73.59Z" fill="#013A1C"/>
<path d="M80.6801 73.59H79.5601V74.71H80.6801V73.59Z" fill="#013A1C"/>
<path d="M79.5502 73.59H78.4302V74.71H79.5502V73.59Z" fill="#013A1C"/>
<path d="M78.4301 73.59H77.3101V74.71H78.4301V73.59Z" fill="#013A1C"/>
<path d="M77.3099 73.59H76.1899V74.71H77.3099V73.59Z" fill="#013A1C"/>
<path d="M76.1801 73.59H75.0601V74.71H76.1801V73.59Z" fill="#013A1C"/>
<path d="M75.0599 73.59H73.9399V74.71H75.0599V73.59Z" fill="#013A1C"/>
<path d="M73.9398 73.59H72.8198V74.71H73.9398V73.59Z" fill="#013A1C"/>
<path d="M72.8099 73.59H71.6899V74.71H72.8099V73.59Z" fill="#013A1C"/>
<path d="M71.6898 73.59H70.5698V74.71H71.6898V73.59Z" fill="#013A1C"/>
<path d="M70.5599 73.59H69.4399V74.71H70.5599V73.59Z" fill="#013A1C"/>
<path d="M69.4398 73.59H68.3198V74.71H69.4398V73.59Z" fill="#013A1C"/>
<path d="M68.3099 73.6H67.1899V74.72H68.3099V73.6Z" fill="#013A1C"/>
<path d="M55.9501 73.6H54.8301V74.72H55.9501V73.6Z" fill="#013A1C"/>
<path d="M54.83 73.59H53.71V74.71H54.83V73.59Z" fill="#013A1C"/>
<path d="M96.41 72.47H95.29V73.59H96.41V72.47Z" fill="#013A1C"/>
<path d="M95.2899 72.47H94.1699V73.59H95.2899V72.47Z" fill="#013A1C"/>
<path d="M94.16 72.47H93.04V73.59H94.16V72.47Z" fill="#013A1C"/>
<path d="M93.0399 72.47H91.9199V73.59H93.0399V72.47Z" fill="#013A1C"/>
<path d="M91.91 72.47H90.79V73.59H91.91V72.47Z" fill="#013A1C"/>
<path d="M90.7899 72.47H89.6699V73.59H90.7899V72.47Z" fill="#013A1C"/>
<path d="M89.6698 72.47H88.5498V73.59H89.6698V72.47Z" fill="#013A1C"/>
<path d="M88.5399 72.47H87.4199V73.59H88.5399V72.47Z" fill="#013A1C"/>
<path d="M87.4198 72.47H86.2998V73.59H87.4198V72.47Z" fill="#013A1C"/>
<path d="M86.3002 72.47H85.1802V73.59H86.3002V72.47Z" fill="#013A1C"/>
<path d="M85.1698 72.47H84.0498V73.59H85.1698V72.47Z" fill="#013A1C"/>
<path d="M84.0502 72.47H82.9302V73.59H84.0502V72.47Z" fill="#013A1C"/>
<path d="M82.9198 72.47H81.7998V73.59H82.9198V72.47Z" fill="#013A1C"/>
<path d="M81.8002 72.47H80.6802V73.59H81.8002V72.47Z" fill="#013A1C"/>
<path d="M80.6801 72.47H79.5601V73.59H80.6801V72.47Z" fill="#013A1C"/>
<path d="M79.5502 72.47H78.4302V73.59H79.5502V72.47Z" fill="#013A1C"/>
<path d="M78.4301 72.47H77.3101V73.59H78.4301V72.47Z" fill="#013A1C"/>
<path d="M77.3099 72.47H76.1899V73.59H77.3099V72.47Z" fill="#013A1C"/>
<path d="M76.1801 72.47H75.0601V73.59H76.1801V72.47Z" fill="#013A1C"/>
<path d="M75.0599 72.47H73.9399V73.59H75.0599V72.47Z" fill="#013A1C"/>
<path d="M73.9398 72.47H72.8198V73.59H73.9398V72.47Z" fill="#013A1C"/>
<path d="M72.8099 72.47H71.6899V73.59H72.8099V72.47Z" fill="#013A1C"/>
<path d="M71.6898 72.47H70.5698V73.59H71.6898V72.47Z" fill="#013A1C"/>
<path d="M70.5599 72.47H69.4399V73.59H70.5599V72.47Z" fill="#013A1C"/>
<path d="M69.4398 72.47H68.3198V73.59H69.4398V72.47Z" fill="#013A1C"/>
<path d="M68.3099 72.47H67.1899V73.59H68.3099V72.47Z" fill="#013A1C"/>
<path d="M55.9501 72.47H54.8301V73.59H55.9501V72.47Z" fill="#013A1C"/>
<path d="M54.83 72.47H53.71V73.59H54.83V72.47Z" fill="#013A1C"/>
<path d="M96.41 71.35H95.29V72.47H96.41V71.35Z" fill="#013A1C"/>
<path d="M95.2899 71.35H94.1699V72.47H95.2899V71.35Z" fill="#013A1C"/>
<path d="M94.16 71.35H93.04V72.47H94.16V71.35Z" fill="#013A1C"/>
<path d="M93.0399 71.35H91.9199V72.47H93.0399V71.35Z" fill="#013A1C"/>
<path d="M91.91 71.35H90.79V72.47H91.91V71.35Z" fill="#013A1C"/>
<path d="M90.7899 71.35H89.6699V72.47H90.7899V71.35Z" fill="#013A1C"/>
<path d="M89.6698 71.35H88.5498V72.47H89.6698V71.35Z" fill="#013A1C"/>
<path d="M88.5399 71.35H87.4199V72.47H88.5399V71.35Z" fill="#013A1C"/>
<path d="M87.4198 71.35H86.2998V72.47H87.4198V71.35Z" fill="#013A1C"/>
<path d="M86.3002 71.35H85.1802V72.47H86.3002V71.35Z" fill="#013A1C"/>
<path d="M85.1698 71.35H84.0498V72.47H85.1698V71.35Z" fill="#013A1C"/>
<path d="M84.0502 71.35H82.9302V72.47H84.0502V71.35Z" fill="#013A1C"/>
<path d="M82.9198 71.35H81.7998V72.47H82.9198V71.35Z" fill="#013A1C"/>
<path d="M81.8002 71.35H80.6802V72.47H81.8002V71.35Z" fill="#013A1C"/>
<path d="M80.6801 71.35H79.5601V72.47H80.6801V71.35Z" fill="#013A1C"/>
<path d="M79.5502 71.35H78.4302V72.47H79.5502V71.35Z" fill="#013A1C"/>
<path d="M78.4301 71.35H77.3101V72.47H78.4301V71.35Z" fill="#013A1C"/>
<path d="M77.3099 71.35H76.1899V72.47H77.3099V71.35Z" fill="#013A1C"/>
<path d="M76.1801 71.35H75.0601V72.47H76.1801V71.35Z" fill="#013A1C"/>
<path d="M75.0599 71.35H73.9399V72.47H75.0599V71.35Z" fill="#013A1C"/>
<path d="M73.9398 71.35H72.8198V72.47H73.9398V71.35Z" fill="#013A1C"/>
<path d="M72.8099 71.35H71.6899V72.47H72.8099V71.35Z" fill="#013A1C"/>
<path d="M71.6898 71.35H70.5698V72.47H71.6898V71.35Z" fill="#013A1C"/>
<path d="M70.5599 71.35H69.4399V72.47H70.5599V71.35Z" fill="#013A1C"/>
<path d="M69.4398 71.35H68.3198V72.47H69.4398V71.35Z" fill="#013A1C"/>
<path d="M68.3099 71.35H67.1899V72.47H68.3099V71.35Z" fill="#013A1C"/>
<path d="M55.9501 71.35H54.8301V72.47H55.9501V71.35Z" fill="#013A1C"/>
<path d="M54.83 71.35H53.71V72.47H54.83V71.35Z" fill="#013A1C"/>
<path d="M96.41 70.23H95.29V71.35H96.41V70.23Z" fill="#013A1C"/>
<path d="M95.2899 70.22H94.1699V71.34H95.2899V70.22Z" fill="#013A1C"/>
<path d="M94.16 70.22H93.04V71.34H94.16V70.22Z" fill="#013A1C"/>
<path d="M93.0399 70.22H91.9199V71.34H93.0399V70.22Z" fill="#013A1C"/>
<path d="M91.91 70.22H90.79V71.34H91.91V70.22Z" fill="#013A1C"/>
<path d="M90.7899 70.22H89.6699V71.34H90.7899V70.22Z" fill="#013A1C"/>
<path d="M89.6698 70.22H88.5498V71.34H89.6698V70.22Z" fill="#013A1C"/>
<path d="M88.5399 70.22H87.4199V71.34H88.5399V70.22Z" fill="#013A1C"/>
<path d="M87.4198 70.22H86.2998V71.34H87.4198V70.22Z" fill="#013A1C"/>
<path d="M86.3002 70.22H85.1802V71.34H86.3002V70.22Z" fill="#013A1C"/>
<path d="M85.1698 70.22H84.0498V71.34H85.1698V70.22Z" fill="#013A1C"/>
<path d="M84.0502 70.22H82.9302V71.34H84.0502V70.22Z" fill="#013A1C"/>
<path d="M82.9198 70.22H81.7998V71.34H82.9198V70.22Z" fill="#013A1C"/>
<path d="M81.8002 70.22H80.6802V71.34H81.8002V70.22Z" fill="#013A1C"/>
<path d="M80.6801 70.22H79.5601V71.34H80.6801V70.22Z" fill="#013A1C"/>
<path d="M79.5502 70.22H78.4302V71.34H79.5502V70.22Z" fill="#013A1C"/>
<path d="M78.4301 70.22H77.3101V71.34H78.4301V70.22Z" fill="#013A1C"/>
<path d="M77.3099 70.22H76.1899V71.34H77.3099V70.22Z" fill="#013A1C"/>
<path d="M76.1801 70.22H75.0601V71.34H76.1801V70.22Z" fill="#013A1C"/>
<path d="M75.0599 70.22H73.9399V71.34H75.0599V70.22Z" fill="#013A1C"/>
<path d="M73.9398 70.22H72.8198V71.34H73.9398V70.22Z" fill="#013A1C"/>
<path d="M72.8099 70.22H71.6899V71.34H72.8099V70.22Z" fill="#013A1C"/>
<path d="M71.6898 70.22H70.5698V71.34H71.6898V70.22Z" fill="#013A1C"/>
<path d="M70.5599 70.22H69.4399V71.34H70.5599V70.22Z" fill="#013A1C"/>
<path d="M69.4398 70.22H68.3198V71.34H69.4398V70.22Z" fill="#013A1C"/>
<path d="M68.3099 70.23H67.1899V71.35H68.3099V70.23Z" fill="#013A1C"/>
<path d="M55.9501 70.23H54.8301V71.35H55.9501V70.23Z" fill="#013A1C"/>
<path d="M54.83 70.22H53.71V71.34H54.83V70.22Z" fill="#013A1C"/>
<path d="M97.5302 69.1H96.4102V70.22H97.5302V69.1Z" fill="#013A1C"/>
<path d="M96.41 69.1H95.29V70.22H96.41V69.1Z" fill="#013A1C"/>
<path d="M95.2899 69.1H94.1699V70.22H95.2899V69.1Z" fill="#013A1C"/>
<path d="M94.16 69.1H93.04V70.22H94.16V69.1Z" fill="#013A1C"/>
<path d="M93.0399 69.1H91.9199V70.22H93.0399V69.1Z" fill="#013A1C"/>
<path d="M91.91 69.1H90.79V70.22H91.91V69.1Z" fill="#013A1C"/>
<path d="M90.7899 69.1H89.6699V70.22H90.7899V69.1Z" fill="#013A1C"/>
<path d="M89.6698 69.1H88.5498V70.22H89.6698V69.1Z" fill="#013A1C"/>
<path d="M88.5399 69.1H87.4199V70.22H88.5399V69.1Z" fill="#013A1C"/>
<path d="M87.4198 69.1H86.2998V70.22H87.4198V69.1Z" fill="#013A1C"/>
<path d="M86.3002 69.1H85.1802V70.22H86.3002V69.1Z" fill="#013A1C"/>
<path d="M85.1698 69.1H84.0498V70.22H85.1698V69.1Z" fill="#013A1C"/>
<path d="M84.0502 69.1H82.9302V70.22H84.0502V69.1Z" fill="#013A1C"/>
<path d="M82.9198 69.1H81.7998V70.22H82.9198V69.1Z" fill="#013A1C"/>
<path d="M81.8002 69.1H80.6802V70.22H81.8002V69.1Z" fill="#013A1C"/>
<path d="M80.6801 69.1H79.5601V70.22H80.6801V69.1Z" fill="#013A1C"/>
<path d="M79.5502 69.1H78.4302V70.22H79.5502V69.1Z" fill="#013A1C"/>
<path d="M78.4301 69.1H77.3101V70.22H78.4301V69.1Z" fill="#013A1C"/>
<path d="M77.3099 69.1H76.1899V70.22H77.3099V69.1Z" fill="#013A1C"/>
<path d="M76.1801 69.1H75.0601V70.22H76.1801V69.1Z" fill="#013A1C"/>
<path d="M75.0599 69.1H73.9399V70.22H75.0599V69.1Z" fill="#013A1C"/>
<path d="M73.9398 69.1H72.8198V70.22H73.9398V69.1Z" fill="#013A1C"/>
<path d="M72.8099 69.1H71.6899V70.22H72.8099V69.1Z" fill="#013A1C"/>
<path d="M71.6898 69.1H70.5698V70.22H71.6898V69.1Z" fill="#013A1C"/>
<path d="M70.5599 69.1H69.4399V70.22H70.5599V69.1Z" fill="#013A1C"/>
<path d="M69.4398 69.1H68.3198V70.22H69.4398V69.1Z" fill="#013A1C"/>
<path d="M68.3202 69.1H67.2002V70.22H68.3202V69.1Z" fill="#013A1C"/>
<path d="M67.1898 69.1H66.0698V70.22H67.1898V69.1Z" fill="#013A1C"/>
<path d="M57.08 69.1H55.96V70.22H57.08V69.1Z" fill="#013A1C"/>
<path d="M55.9598 69.1H54.8398V70.22H55.9598V69.1Z" fill="#013A1C"/>
<path d="M54.83 69.1H53.71V70.22H54.83V69.1Z" fill="#013A1C"/>
<path d="M98.6498 67.98H97.5298V69.1H98.6498V67.98Z" fill="#013A1C"/>
<path d="M97.5302 67.98H96.4102V69.1H97.5302V67.98Z" fill="#013A1C"/>
<path d="M96.41 67.98H95.29V69.1H96.41V67.98Z" fill="#013A1C"/>
<path d="M95.2899 67.98H94.1699V69.1H95.2899V67.98Z" fill="#013A1C"/>
<path d="M94.16 67.98H93.04V69.1H94.16V67.98Z" fill="#013A1C"/>
<path d="M93.0399 67.98H91.9199V69.1H93.0399V67.98Z" fill="#013A1C"/>
<path d="M91.91 67.98H90.79V69.1H91.91V67.98Z" fill="#013A1C"/>
<path d="M90.7899 67.98H89.6699V69.1H90.7899V67.98Z" fill="#013A1C"/>
<path d="M89.6698 67.98H88.5498V69.1H89.6698V67.98Z" fill="#013A1C"/>
<path d="M88.5399 67.98H87.4199V69.1H88.5399V67.98Z" fill="#013A1C"/>
<path d="M87.4198 67.98H86.2998V69.1H87.4198V67.98Z" fill="#013A1C"/>
<path d="M86.3002 67.98H85.1802V69.1H86.3002V67.98Z" fill="#013A1C"/>
<path d="M85.1698 67.98H84.0498V69.1H85.1698V67.98Z" fill="#013A1C"/>
<path d="M84.0502 67.98H82.9302V69.1H84.0502V67.98Z" fill="#013A1C"/>
<path d="M82.9198 67.98H81.7998V69.1H82.9198V67.98Z" fill="#013A1C"/>
<path d="M81.8002 67.98H80.6802V69.1H81.8002V67.98Z" fill="#013A1C"/>
<path d="M80.6801 67.98H79.5601V69.1H80.6801V67.98Z" fill="#013A1C"/>
<path d="M79.5502 67.98H78.4302V69.1H79.5502V67.98Z" fill="#013A1C"/>
<path d="M78.4301 67.98H77.3101V69.1H78.4301V67.98Z" fill="#013A1C"/>
<path d="M77.3099 67.98H76.1899V69.1H77.3099V67.98Z" fill="#013A1C"/>
<path d="M76.1801 67.98H75.0601V69.1H76.1801V67.98Z" fill="#013A1C"/>
<path d="M75.0599 67.98H73.9399V69.1H75.0599V67.98Z" fill="#013A1C"/>
<path d="M73.9398 67.98H72.8198V69.1H73.9398V67.98Z" fill="#013A1C"/>
<path d="M72.8099 67.98H71.6899V69.1H72.8099V67.98Z" fill="#013A1C"/>
<path d="M71.6898 67.98H70.5698V69.1H71.6898V67.98Z" fill="#013A1C"/>
<path d="M70.5599 67.98H69.4399V69.1H70.5599V67.98Z" fill="#013A1C"/>
<path d="M69.4398 67.98H68.3198V69.1H69.4398V67.98Z" fill="#013A1C"/>
<path d="M68.3202 67.98H67.2002V69.1H68.3202V67.98Z" fill="#013A1C"/>
<path d="M67.1898 67.98H66.0698V69.1H67.1898V67.98Z" fill="#013A1C"/>
<path d="M66.0702 67.98H64.9502V69.1H66.0702V67.98Z" fill="#013A1C"/>
<path d="M58.2001 67.98H57.0801V69.1H58.2001V67.98Z" fill="#013A1C"/>
<path d="M57.08 67.98H55.96V69.1H57.08V67.98Z" fill="#013A1C"/>
<path d="M55.9598 67.98H54.8398V69.1H55.9598V67.98Z" fill="#013A1C"/>
<path d="M54.83 67.98H53.71V69.1H54.83V67.98Z" fill="#013A1C"/>
<path d="M99.7802 66.85H98.6602V67.97H99.7802V66.85Z" fill="#013A1C"/>
<path d="M98.66 66.85H97.54V67.97H98.66V66.85Z" fill="#013A1C"/>
<path d="M97.5302 66.85H96.4102V67.97H97.5302V66.85Z" fill="#013A1C"/>
<path d="M96.41 66.85H95.29V67.97H96.41V66.85Z" fill="#013A1C"/>
<path d="M95.2899 66.85H94.1699V67.97H95.2899V66.85Z" fill="#013A1C"/>
<path d="M94.16 66.85H93.04V67.97H94.16V66.85Z" fill="#013A1C"/>
<path d="M93.0399 66.85H91.9199V67.97H93.0399V66.85Z" fill="#013A1C"/>
<path d="M91.91 66.85H90.79V67.97H91.91V66.85Z" fill="#013A1C"/>
<path d="M90.7899 66.85H89.6699V67.97H90.7899V66.85Z" fill="#013A1C"/>
<path d="M89.6698 66.85H88.5498V67.97H89.6698V66.85Z" fill="#013A1C"/>
<path d="M88.5399 66.85H87.4199V67.97H88.5399V66.85Z" fill="#013A1C"/>
<path d="M87.4198 66.85H86.2998V67.97H87.4198V66.85Z" fill="#013A1C"/>
<path d="M86.3002 66.85H85.1802V67.97H86.3002V66.85Z" fill="#013A1C"/>
<path d="M85.1698 66.85H84.0498V67.97H85.1698V66.85Z" fill="#013A1C"/>
<path d="M84.0502 66.85H82.9302V67.97H84.0502V66.85Z" fill="#013A1C"/>
<path d="M82.9198 66.85H81.7998V67.97H82.9198V66.85Z" fill="#013A1C"/>
<path d="M81.8002 66.85H80.6802V67.97H81.8002V66.85Z" fill="#013A1C"/>
<path d="M80.6801 66.85H79.5601V67.97H80.6801V66.85Z" fill="#013A1C"/>
<path d="M79.5502 66.85H78.4302V67.97H79.5502V66.85Z" fill="#013A1C"/>
<path d="M78.4301 66.85H77.3101V67.97H78.4301V66.85Z" fill="#013A1C"/>
<path d="M77.3099 66.85H76.1899V67.97H77.3099V66.85Z" fill="#013A1C"/>
<path d="M76.1801 66.85H75.0601V67.97H76.1801V66.85Z" fill="#013A1C"/>
<path d="M75.0599 66.85H73.9399V67.97H75.0599V66.85Z" fill="#013A1C"/>
<path d="M73.9398 66.85H72.8198V67.97H73.9398V66.85Z" fill="#013A1C"/>
<path d="M72.8099 66.85H71.6899V67.97H72.8099V66.85Z" fill="#013A1C"/>
<path d="M71.6898 66.85H70.5698V67.97H71.6898V66.85Z" fill="#013A1C"/>
<path d="M70.5599 66.85H69.4399V67.97H70.5599V66.85Z" fill="#013A1C"/>
<path d="M69.4398 66.85H68.3198V67.97H69.4398V66.85Z" fill="#013A1C"/>
<path d="M68.3202 66.85H67.2002V67.97H68.3202V66.85Z" fill="#013A1C"/>
<path d="M67.1898 66.85H66.0698V67.97H67.1898V66.85Z" fill="#013A1C"/>
<path d="M66.0702 66.85H64.9502V67.97H66.0702V66.85Z" fill="#013A1C"/>
<path d="M64.9398 66.85H63.8198V67.97H64.9398V66.85Z" fill="#013A1C"/>
<path d="M59.3202 66.85H58.2002V67.97H59.3202V66.85Z" fill="#013A1C"/>
<path d="M58.2001 66.85H57.0801V67.97H58.2001V66.85Z" fill="#013A1C"/>
<path d="M57.08 66.85H55.96V67.97H57.08V66.85Z" fill="#013A1C"/>
<path d="M55.9598 66.85H54.8398V67.97H55.9598V66.85Z" fill="#013A1C"/>
<path d="M54.83 66.85H53.71V67.97H54.83V66.85Z" fill="#013A1C"/>
<path d="M59.36 71.36H58.21V72.51H59.36V71.36Z" fill="#3AAA35"/>
<path d="M60.5001 70.21H59.3501V71.36H60.5001V70.21Z" fill="#3AAA35"/>
<path d="M61.6002 69.0699H60.4502V70.2199H61.6002V69.0699Z" fill="#3AAA35"/>
<path d="M62.7398 69.0699H61.5898V70.2199H62.7398V69.0699Z" fill="#3AAA35"/>
<path d="M63.8399 69.0699H62.6899V70.2199H63.8399V69.0699Z" fill="#3AAA35"/>
<path d="M64.9801 69.0699H63.8301V70.2199H64.9801V69.0699Z" fill="#3AAA35"/>
<path d="M66.0802 70.21H64.9302V71.36H66.0802V70.21Z" fill="#3AAA35"/>
<path d="M67.19 71.36H66.04V72.51H67.19V71.36Z" fill="#3AAA35"/>
<path d="M91.94 71.36H90.79V72.51H91.94V71.36Z" fill="#3AAA35"/>
<path d="M93.0802 70.21H91.9302V71.36H93.0802V70.21Z" fill="#3AAA35"/>
<path d="M94.1803 69.0699H93.0303V70.2199H94.1803V69.0699Z" fill="#3AAA35"/>
<path d="M95.3199 69.0699H94.1699V70.2199H95.3199V69.0699Z" fill="#3AAA35"/>
<path d="M96.4103 69.0699H95.2603V70.2199H96.4103V69.0699Z" fill="#3AAA35"/>
<path d="M97.5602 69.0699H96.4102V70.2199H97.5602V69.0699Z" fill="#3AAA35"/>
<path d="M98.65 70.21H97.5V71.36H98.65V70.21Z" fill="#3AAA35"/>
<path d="M99.7701 71.36H98.6201V72.51H99.7701V71.36Z" fill="#3AAA35"/>
<path d="M104.27 65.73H103.15V66.85H104.27V65.73Z" fill="#013A1C"/>
<path d="M103.15 65.73H102.03V66.85H103.15V65.73Z" fill="#013A1C"/>
<path d="M102.02 65.73H100.9V66.85H102.02V65.73Z" fill="#013A1C"/>
<path d="M100.9 65.73H99.7798V66.85H100.9V65.73Z" fill="#013A1C"/>
<path d="M99.7802 65.73H98.6602V66.85H99.7802V65.73Z" fill="#013A1C"/>
<path d="M98.66 65.73H97.54V66.85H98.66V65.73Z" fill="#013A1C"/>
<path d="M97.5302 65.73H96.4102V66.85H97.5302V65.73Z" fill="#013A1C"/>
<path d="M96.41 65.73H95.29V66.85H96.41V65.73Z" fill="#013A1C"/>
<path d="M95.2899 65.73H94.1699V66.85H95.2899V65.73Z" fill="#013A1C"/>
<path d="M94.16 65.73H93.04V66.85H94.16V65.73Z" fill="#013A1C"/>
<path d="M93.0399 65.73H91.9199V66.85H93.0399V65.73Z" fill="#013A1C"/>
<path d="M91.91 65.73H90.79V66.85H91.91V65.73Z" fill="#013A1C"/>
<path d="M90.7899 65.73H89.6699V66.85H90.7899V65.73Z" fill="#013A1C"/>
<path d="M89.6698 65.73H88.5498V66.85H89.6698V65.73Z" fill="#013A1C"/>
<path d="M88.5399 65.73H87.4199V66.85H88.5399V65.73Z" fill="#013A1C"/>
<path d="M87.4198 65.73H86.2998V66.85H87.4198V65.73Z" fill="#013A1C"/>
<path d="M86.3002 65.73H85.1802V66.85H86.3002V65.73Z" fill="#013A1C"/>
<path d="M85.1698 65.73H84.0498V66.85H85.1698V65.73Z" fill="#013A1C"/>
<path d="M84.0502 65.73H82.9302V66.85H84.0502V65.73Z" fill="#013A1C"/>
<path d="M82.9198 65.73H81.7998V66.85H82.9198V65.73Z" fill="#013A1C"/>
<path d="M81.8002 65.73H80.6802V66.85H81.8002V65.73Z" fill="#013A1C"/>
<path d="M80.6801 65.73H79.5601V66.85H80.6801V65.73Z" fill="#013A1C"/>
<path d="M79.5502 65.73H78.4302V66.85H79.5502V65.73Z" fill="#013A1C"/>
<path d="M78.4301 65.73H77.3101V66.85H78.4301V65.73Z" fill="#013A1C"/>
<path d="M77.3099 65.73H76.1899V66.85H77.3099V65.73Z" fill="#013A1C"/>
<path d="M76.1801 65.73H75.0601V66.85H76.1801V65.73Z" fill="#013A1C"/>
<path d="M75.0599 65.73H73.9399V66.85H75.0599V65.73Z" fill="#013A1C"/>
<path d="M73.9398 65.73H72.8198V66.85H73.9398V65.73Z" fill="#013A1C"/>
<path d="M72.8099 65.73H71.6899V66.85H72.8099V65.73Z" fill="#013A1C"/>
<path d="M71.6898 65.73H70.5698V66.85H71.6898V65.73Z" fill="#013A1C"/>
<path d="M70.5599 65.73H69.4399V66.85H70.5599V65.73Z" fill="#013A1C"/>
<path d="M69.4398 65.73H68.3198V66.85H69.4398V65.73Z" fill="#013A1C"/>
<path d="M68.3202 65.73H67.2002V66.85H68.3202V65.73Z" fill="#013A1C"/>
<path d="M67.1898 65.73H66.0698V66.85H67.1898V65.73Z" fill="#013A1C"/>
<path d="M66.0702 65.73H64.9502V66.85H66.0702V65.73Z" fill="#013A1C"/>
<path d="M64.9501 65.73H63.8301V66.85H64.9501V65.73Z" fill="#013A1C"/>
<path d="M63.8202 65.73H62.7002V66.85H63.8202V65.73Z" fill="#013A1C"/>
<path d="M62.7001 65.73H61.5801V66.85H62.7001V65.73Z" fill="#013A1C"/>
<path d="M61.5702 65.73H60.4502V66.85H61.5702V65.73Z" fill="#013A1C"/>
<path d="M60.4501 65.73H59.3301V66.85H60.4501V65.73Z" fill="#013A1C"/>
<path d="M59.33 65.73H58.21V66.85H59.33V65.73Z" fill="#013A1C"/>
<path d="M58.2001 65.73H57.0801V66.85H58.2001V65.73Z" fill="#013A1C"/>
<path d="M57.08 65.73H55.96V66.85H57.08V65.73Z" fill="#013A1C"/>
<path d="M55.9598 65.73H54.8398V66.85H55.9598V65.73Z" fill="#013A1C"/>
<path d="M54.83 65.73H53.71V66.85H54.83V65.73Z" fill="#013A1C"/>
<path d="M104.28 64.6H103.16V65.72H104.28V64.6Z" fill="#013A1C"/>
<path d="M103.15 64.6H102.03V65.72H103.15V64.6Z" fill="#013A1C"/>
<path d="M102.03 64.6H100.91V65.72H102.03V64.6Z" fill="#013A1C"/>
<path d="M100.9 64.6H99.7798V65.72H100.9V64.6Z" fill="#013A1C"/>
<path d="M99.7802 64.6H98.6602V65.72H99.7802V64.6Z" fill="#013A1C"/>
<path d="M98.66 64.6H97.54V65.72H98.66V64.6Z" fill="#013A1C"/>
<path d="M97.5302 64.6H96.4102V65.72H97.5302V64.6Z" fill="#013A1C"/>
<path d="M96.41 64.6H95.29V65.72H96.41V64.6Z" fill="#013A1C"/>
<path d="M95.2899 64.6H94.1699V65.72H95.2899V64.6Z" fill="#013A1C"/>
<path d="M94.16 64.6H93.04V65.72H94.16V64.6Z" fill="#013A1C"/>
<path d="M93.0399 64.6H91.9199V65.72H93.0399V64.6Z" fill="#013A1C"/>
<path d="M91.91 64.6H90.79V65.72H91.91V64.6Z" fill="#013A1C"/>
<path d="M90.7899 64.6H89.6699V65.72H90.7899V64.6Z" fill="#013A1C"/>
<path d="M89.6698 64.6H88.5498V65.72H89.6698V64.6Z" fill="#013A1C"/>
<path d="M88.5399 64.6H87.4199V65.72H88.5399V64.6Z" fill="#013A1C"/>
<path d="M87.4198 64.6H86.2998V65.72H87.4198V64.6Z" fill="#013A1C"/>
<path d="M86.3002 64.6H85.1802V65.72H86.3002V64.6Z" fill="#013A1C"/>
<path d="M85.1698 64.6H84.0498V65.72H85.1698V64.6Z" fill="#013A1C"/>
<path d="M84.0502 64.6H82.9302V65.72H84.0502V64.6Z" fill="#013A1C"/>
<path d="M82.9198 64.6H81.7998V65.72H82.9198V64.6Z" fill="#013A1C"/>
<path d="M81.8002 64.6H80.6802V65.72H81.8002V64.6Z" fill="#013A1C"/>
<path d="M80.6801 64.6H79.5601V65.72H80.6801V64.6Z" fill="#013A1C"/>
<path d="M79.5502 64.6H78.4302V65.72H79.5502V64.6Z" fill="#013A1C"/>
<path d="M78.4301 64.6H77.3101V65.72H78.4301V64.6Z" fill="#013A1C"/>
<path d="M77.3099 64.6H76.1899V65.72H77.3099V64.6Z" fill="#013A1C"/>
<path d="M76.1801 64.6H75.0601V65.72H76.1801V64.6Z" fill="#013A1C"/>
<path d="M75.0599 64.6H73.9399V65.72H75.0599V64.6Z" fill="#013A1C"/>
<path d="M73.9398 64.6H72.8198V65.72H73.9398V64.6Z" fill="#013A1C"/>
<path d="M72.8099 64.6H71.6899V65.72H72.8099V64.6Z" fill="#013A1C"/>
<path d="M71.6898 64.6H70.5698V65.72H71.6898V64.6Z" fill="#013A1C"/>
<path d="M70.5599 64.6H69.4399V65.72H70.5599V64.6Z" fill="#013A1C"/>
<path d="M69.4398 64.6H68.3198V65.72H69.4398V64.6Z" fill="#013A1C"/>
<path d="M68.3202 64.6H67.2002V65.72H68.3202V64.6Z" fill="#013A1C"/>
<path d="M67.1898 64.6H66.0698V65.72H67.1898V64.6Z" fill="#013A1C"/>
<path d="M66.0702 64.6H64.9502V65.72H66.0702V64.6Z" fill="#013A1C"/>
<path d="M64.9501 64.6H63.8301V65.72H64.9501V64.6Z" fill="#013A1C"/>
<path d="M63.8202 64.6H62.7002V65.72H63.8202V64.6Z" fill="#013A1C"/>
<path d="M62.7001 64.6H61.5801V65.72H62.7001V64.6Z" fill="#013A1C"/>
<path d="M61.5702 64.6H60.4502V65.72H61.5702V64.6Z" fill="#013A1C"/>
<path d="M60.4501 64.6H59.3301V65.72H60.4501V64.6Z" fill="#013A1C"/>
<path d="M59.33 64.6H58.21V65.72H59.33V64.6Z" fill="#013A1C"/>
<path d="M58.2001 64.6H57.0801V65.72H58.2001V64.6Z" fill="#013A1C"/>
<path d="M57.08 64.6H55.96V65.72H57.08V64.6Z" fill="#013A1C"/>
<path d="M55.9598 64.6H54.8398V65.72H55.9598V64.6Z" fill="#013A1C"/>
<path d="M54.83 64.6H53.71V65.72H54.83V64.6Z" fill="#013A1C"/>
<path d="M104.28 63.48H103.16V64.6H104.28V63.48Z" fill="#013A1C"/>
<path d="M103.15 63.48H102.03V64.6H103.15V63.48Z" fill="#013A1C"/>
<path d="M102.03 63.48H100.91V64.6H102.03V63.48Z" fill="#013A1C"/>
<path d="M100.9 63.48H99.7798V64.6H100.9V63.48Z" fill="#013A1C"/>
<path d="M99.7802 63.48H98.6602V64.6H99.7802V63.48Z" fill="#013A1C"/>
<path d="M98.66 63.48H97.54V64.6H98.66V63.48Z" fill="#013A1C"/>
<path d="M97.5302 63.48H96.4102V64.6H97.5302V63.48Z" fill="#013A1C"/>
<path d="M96.41 63.48H95.29V64.6H96.41V63.48Z" fill="#013A1C"/>
<path d="M95.2899 63.48H94.1699V64.6H95.2899V63.48Z" fill="#013A1C"/>
<path d="M94.16 63.48H93.04V64.6H94.16V63.48Z" fill="#013A1C"/>
<path d="M93.0399 63.48H91.9199V64.6H93.0399V63.48Z" fill="#013A1C"/>
<path d="M91.91 63.48H90.79V64.6H91.91V63.48Z" fill="#013A1C"/>
<path d="M90.7899 63.48H89.6699V64.6H90.7899V63.48Z" fill="#013A1C"/>
<path d="M89.6698 63.48H88.5498V64.6H89.6698V63.48Z" fill="#013A1C"/>
<path d="M88.5399 63.48H87.4199V64.6H88.5399V63.48Z" fill="#013A1C"/>
<path d="M87.4198 63.48H86.2998V64.6H87.4198V63.48Z" fill="#013A1C"/>
<path d="M86.3002 63.48H85.1802V64.6H86.3002V63.48Z" fill="#013A1C"/>
<path d="M85.1698 63.48H84.0498V64.6H85.1698V63.48Z" fill="#013A1C"/>
<path d="M84.0502 63.48H82.9302V64.6H84.0502V63.48Z" fill="#013A1C"/>
<path d="M82.9198 63.48H81.7998V64.6H82.9198V63.48Z" fill="#013A1C"/>
<path d="M81.8002 63.48H80.6802V64.6H81.8002V63.48Z" fill="#013A1C"/>
<path d="M80.6801 63.48H79.5601V64.6H80.6801V63.48Z" fill="#013A1C"/>
<path d="M79.5502 63.48H78.4302V64.6H79.5502V63.48Z" fill="#013A1C"/>
<path d="M78.4301 63.48H77.3101V64.6H78.4301V63.48Z" fill="#013A1C"/>
<path d="M77.3099 63.48H76.1899V64.6H77.3099V63.48Z" fill="#013A1C"/>
<path d="M76.1801 63.48H75.0601V64.6H76.1801V63.48Z" fill="#013A1C"/>
<path d="M75.0599 63.48H73.9399V64.6H75.0599V63.48Z" fill="#013A1C"/>
<path d="M73.9398 63.48H72.8198V64.6H73.9398V63.48Z" fill="#013A1C"/>
<path d="M72.8099 63.48H71.6899V64.6H72.8099V63.48Z" fill="#013A1C"/>
<path d="M71.6898 63.48H70.5698V64.6H71.6898V63.48Z" fill="#013A1C"/>
<path d="M70.5599 63.48H69.4399V64.6H70.5599V63.48Z" fill="#013A1C"/>
<path d="M69.4398 63.48H68.3198V64.6H69.4398V63.48Z" fill="#013A1C"/>
<path d="M68.3202 63.48H67.2002V64.6H68.3202V63.48Z" fill="#013A1C"/>
<path d="M67.1898 63.48H66.0698V64.6H67.1898V63.48Z" fill="#013A1C"/>
<path d="M66.0702 63.48H64.9502V64.6H66.0702V63.48Z" fill="#013A1C"/>
<path d="M64.9501 63.48H63.8301V64.6H64.9501V63.48Z" fill="#013A1C"/>
<path d="M63.8202 63.48H62.7002V64.6H63.8202V63.48Z" fill="#013A1C"/>
<path d="M62.7001 63.48H61.5801V64.6H62.7001V63.48Z" fill="#013A1C"/>
<path d="M61.5702 63.48H60.4502V64.6H61.5702V63.48Z" fill="#013A1C"/>
<path d="M60.4501 63.48H59.3301V64.6H60.4501V63.48Z" fill="#013A1C"/>
<path d="M59.33 63.48H58.21V64.6H59.33V63.48Z" fill="#013A1C"/>
<path d="M58.2001 63.48H57.0801V64.6H58.2001V63.48Z" fill="#013A1C"/>
<path d="M57.08 63.48H55.96V64.6H57.08V63.48Z" fill="#013A1C"/>
<path d="M55.9598 63.48H54.8398V64.6H55.9598V63.48Z" fill="#013A1C"/>
<path d="M54.83 63.48H53.71V64.6H54.83V63.48Z" fill="#013A1C"/>
<path d="M104.28 62.36H103.16V63.48H104.28V62.36Z" fill="#013A1C"/>
<path d="M103.15 62.36H102.03V63.48H103.15V62.36Z" fill="#013A1C"/>
<path d="M102.03 62.36H100.91V63.48H102.03V62.36Z" fill="#013A1C"/>
<path d="M100.9 62.36H99.7798V63.48H100.9V62.36Z" fill="#013A1C"/>
<path d="M99.7802 62.36H98.6602V63.48H99.7802V62.36Z" fill="#013A1C"/>
<path d="M98.66 62.36H97.54V63.48H98.66V62.36Z" fill="#013A1C"/>
<path d="M97.5302 62.36H96.4102V63.48H97.5302V62.36Z" fill="#013A1C"/>
<path d="M96.41 62.36H95.29V63.48H96.41V62.36Z" fill="#013A1C"/>
<path d="M95.2899 62.36H94.1699V63.48H95.2899V62.36Z" fill="#013A1C"/>
<path d="M94.16 62.36H93.04V63.48H94.16V62.36Z" fill="#013A1C"/>
<path d="M93.0399 62.36H91.9199V63.48H93.0399V62.36Z" fill="#013A1C"/>
<path d="M91.91 62.36H90.79V63.48H91.91V62.36Z" fill="#013A1C"/>
<path d="M90.7899 62.36H89.6699V63.48H90.7899V62.36Z" fill="#013A1C"/>
<path d="M89.6698 62.36H88.5498V63.48H89.6698V62.36Z" fill="#013A1C"/>
<path d="M88.5399 62.36H87.4199V63.48H88.5399V62.36Z" fill="#013A1C"/>
<path d="M87.4198 62.36H86.2998V63.48H87.4198V62.36Z" fill="#013A1C"/>
<path d="M86.3002 62.36H85.1802V63.48H86.3002V62.36Z" fill="#013A1C"/>
<path d="M85.1698 62.36H84.0498V63.48H85.1698V62.36Z" fill="#013A1C"/>
<path d="M84.0502 62.36H82.9302V63.48H84.0502V62.36Z" fill="#013A1C"/>
<path d="M82.9198 62.36H81.7998V63.48H82.9198V62.36Z" fill="#013A1C"/>
<path d="M81.8002 62.36H80.6802V63.48H81.8002V62.36Z" fill="#013A1C"/>
<path d="M80.6801 62.36H79.5601V63.48H80.6801V62.36Z" fill="#013A1C"/>
<path d="M79.5502 62.36H78.4302V63.48H79.5502V62.36Z" fill="#013A1C"/>
<path d="M78.4301 62.36H77.3101V63.48H78.4301V62.36Z" fill="#013A1C"/>
<path d="M77.3099 62.36H76.1899V63.48H77.3099V62.36Z" fill="#013A1C"/>
<path d="M76.1801 62.36H75.0601V63.48H76.1801V62.36Z" fill="#013A1C"/>
<path d="M75.0599 62.36H73.9399V63.48H75.0599V62.36Z" fill="#013A1C"/>
<path d="M73.9398 62.36H72.8198V63.48H73.9398V62.36Z" fill="#013A1C"/>
<path d="M72.8099 62.36H71.6899V63.48H72.8099V62.36Z" fill="#013A1C"/>
<path d="M71.6898 62.36H70.5698V63.48H71.6898V62.36Z" fill="#013A1C"/>
<path d="M70.5599 62.36H69.4399V63.48H70.5599V62.36Z" fill="#013A1C"/>
<path d="M69.4398 62.36H68.3198V63.48H69.4398V62.36Z" fill="#013A1C"/>
<path d="M68.3202 62.36H67.2002V63.48H68.3202V62.36Z" fill="#013A1C"/>
<path d="M67.1898 62.36H66.0698V63.48H67.1898V62.36Z" fill="#013A1C"/>
<path d="M66.0702 62.36H64.9502V63.48H66.0702V62.36Z" fill="#013A1C"/>
<path d="M64.9501 62.36H63.8301V63.48H64.9501V62.36Z" fill="#013A1C"/>
<path d="M63.8202 62.36H62.7002V63.48H63.8202V62.36Z" fill="#013A1C"/>
<path d="M62.7001 62.36H61.5801V63.48H62.7001V62.36Z" fill="#013A1C"/>
<path d="M61.5702 62.36H60.4502V63.48H61.5702V62.36Z" fill="#013A1C"/>
<path d="M60.4501 62.36H59.3301V63.48H60.4501V62.36Z" fill="#013A1C"/>
<path d="M59.33 62.36H58.21V63.48H59.33V62.36Z" fill="#013A1C"/>
<path d="M58.2001 62.36H57.0801V63.48H58.2001V62.36Z" fill="#013A1C"/>
<path d="M57.08 62.36H55.96V63.48H57.08V62.36Z" fill="#013A1C"/>
<path d="M55.9598 62.36H54.8398V63.48H55.9598V62.36Z" fill="#013A1C"/>
<path d="M54.83 62.36H53.71V63.48H54.83V62.36Z" fill="#013A1C"/>
<path d="M109.9 80.2899H53.71V80.3899H109.9V80.2899Z" fill="#1D1D1B"/>
<path d="M109.9 79.1599H53.71V79.2599H109.9V79.1599Z" fill="#1D1D1B"/>
<path d="M109.9 78.0399H53.71V78.1399H109.9V78.0399Z" fill="#1D1D1B"/>
<path d="M109.9 76.9199H53.71V77.0199H109.9V76.9199Z" fill="#1D1D1B"/>
<path d="M109.9 75.7899H53.71V75.8899H109.9V75.7899Z" fill="#1D1D1B"/>
<path d="M109.9 74.6699H53.71V74.7699H109.9V74.6699Z" fill="#1D1D1B"/>
<path d="M109.9 73.5399H53.71V73.6399H109.9V73.5399Z" fill="#1D1D1B"/>
<path d="M109.9 72.4199H53.71V72.5199H109.9V72.4199Z" fill="#1D1D1B"/>
<path d="M109.9 71.2999H53.71V71.3999H109.9V71.2999Z" fill="#1D1D1B"/>
<path d="M109.9 70.1699H53.71V70.2699H109.9V70.1699Z" fill="#1D1D1B"/>
<path d="M109.9 69.0499H53.71V69.1499H109.9V69.0499Z" fill="#1D1D1B"/>
<path d="M109.9 67.9299H53.71V68.0299H109.9V67.9299Z" fill="#1D1D1B"/>
<path d="M109.9 66.7999H53.71V66.8999H109.9V66.7999Z" fill="#1D1D1B"/>
<path d="M109.9 65.6799H53.71V65.7799H109.9V65.6799Z" fill="#1D1D1B"/>
<path d="M109.9 64.5499H53.71V64.6499H109.9V64.5499Z" fill="#1D1D1B"/>
<path d="M109.9 63.4299H53.71V63.5299H109.9V63.4299Z" fill="#1D1D1B"/>
<path d="M103.21 61.23H103.11V83.71H103.21V61.23Z" fill="#1D1D1B"/>
<path d="M102.08 61.23H101.98V83.71H102.08V61.23Z" fill="#1D1D1B"/>
<path d="M100.96 61.23H100.86V83.71H100.96V61.23Z" fill="#1D1D1B"/>
<path d="M99.83 61.23H99.73V83.71H99.83V61.23Z" fill="#1D1D1B"/>
<path d="M98.7099 61.23H98.6099V83.71H98.7099V61.23Z" fill="#1D1D1B"/>
<path d="M97.5902 61.23H97.4902V83.71H97.5902V61.23Z" fill="#1D1D1B"/>
<path d="M96.4599 61.23H96.3599V83.71H96.4599V61.23Z" fill="#1D1D1B"/>
<path d="M95.3402 61.23H95.2402V83.71H95.3402V61.23Z" fill="#1D1D1B"/>
<path d="M94.2201 61.23H94.1201V83.71H94.2201V61.23Z" fill="#1D1D1B"/>
<path d="M93.0902 61.23H92.9902V83.71H93.0902V61.23Z" fill="#1D1D1B"/>
<path d="M91.9701 61.23H91.8701V83.71H91.9701V61.23Z" fill="#1D1D1B"/>
<path d="M90.8402 61.23H90.7402V83.71H90.8402V61.23Z" fill="#1D1D1B"/>
<path d="M89.7201 61.23H89.6201V83.71H89.7201V61.23Z" fill="#1D1D1B"/>
<path d="M88.6 61.23H88.5V83.71H88.6V61.23Z" fill="#1D1D1B"/>
<path d="M87.4701 61.23H87.3701V83.71H87.4701V61.23Z" fill="#1D1D1B"/>
<path d="M86.35 61.23H86.25V83.71H86.35V61.23Z" fill="#1D1D1B"/>
<path d="M85.2299 61.23H85.1299V83.71H85.2299V61.23Z" fill="#1D1D1B"/>
<path d="M84.1 61.23H84V83.71H84.1V61.23Z" fill="#1D1D1B"/>
<path d="M82.9799 61.23H82.8799V83.71H82.9799V61.23Z" fill="#1D1D1B"/>
<path d="M81.85 61.23H81.75V83.71H81.85V61.23Z" fill="#1D1D1B"/>
<path d="M80.7299 61.23H80.6299V83.71H80.7299V61.23Z" fill="#1D1D1B"/>
<path d="M79.6103 61.23H79.5103V83.71H79.6103V61.23Z" fill="#1D1D1B"/>
<path d="M78.4799 61.23H78.3799V83.71H78.4799V61.23Z" fill="#1D1D1B"/>
<path d="M77.3603 61.23H77.2603V83.71H77.3603V61.23Z" fill="#1D1D1B"/>
<path d="M76.2401 61.23H76.1401V83.71H76.2401V61.23Z" fill="#1D1D1B"/>
<path d="M75.1103 61.23H75.0103V83.71H75.1103V61.23Z" fill="#1D1D1B"/>
<path d="M73.9901 61.23H73.8901V83.71H73.9901V61.23Z" fill="#1D1D1B"/>
<path d="M72.87 61.23H72.77V83.71H72.87V61.23Z" fill="#1D1D1B"/>
<path d="M71.7401 61.23H71.6401V83.71H71.7401V61.23Z" fill="#1D1D1B"/>
<path d="M70.62 61.23H70.52V83.71H70.62V61.23Z" fill="#1D1D1B"/>
<path d="M69.4901 61.23H69.3901V83.71H69.4901V61.23Z" fill="#1D1D1B"/>
<path d="M68.37 61.23H68.27V83.71H68.37V61.23Z" fill="#1D1D1B"/>
<path d="M67.2499 61.23H67.1499V83.71H67.2499V61.23Z" fill="#1D1D1B"/>
<path d="M66.12 61.23H66.02V83.71H66.12V61.23Z" fill="#1D1D1B"/>
<path d="M64.9999 61.23H64.8999V83.71H64.9999V61.23Z" fill="#1D1D1B"/>
<path d="M63.8803 61.23H63.7803V83.71H63.8803V61.23Z" fill="#1D1D1B"/>
<path d="M62.7499 61.23H62.6499V83.71H62.7499V61.23Z" fill="#1D1D1B"/>
<path d="M61.6303 61.23H61.5303V83.71H61.6303V61.23Z" fill="#1D1D1B"/>
<path d="M60.4999 61.23H60.3999V83.71H60.4999V61.23Z" fill="#1D1D1B"/>
<path d="M59.3803 61.23H59.2803V83.71H59.3803V61.23Z" fill="#1D1D1B"/>
<path d="M58.2602 61.23H58.1602V83.71H58.2602V61.23Z" fill="#1D1D1B"/>
<path d="M57.1303 61.23H57.0303V83.71H57.1303V61.23Z" fill="#1D1D1B"/>
<path d="M56.0102 61.23H55.9102V83.71H56.0102V61.23Z" fill="#1D1D1B"/>
<path d="M54.89 61.23H54.79V83.71H54.89V61.23Z" fill="#1D1D1B"/>
</g>
<path d="M96.87 81.51H61.23C57.22 81.51 53.96 78.29 53.96 74.34V69.79C53.96 65.84 57.22 62.62 61.23 62.62H96.87C100.88 62.62 104.14 65.84 104.14 69.79V74.34C104.14 78.29 100.88 81.51 96.87 81.51ZM61.23 63.6C57.77 63.6 54.95 66.37 54.95 69.78V74.33C54.95 77.74 57.77 80.51 61.23 80.51H96.87C100.33 80.51 103.15 77.74 103.15 74.33V69.78C103.15 66.37 100.33 63.6 96.87 63.6H61.23Z" fill="#1D1D1B"/>
</g>
</svg>
