<svg width="100%" height="auto" viewBox="0 0 175 125" fill="none" xmlns="http://www.w3.org/2000/svg">
<mask id="mask0_1980_357" style="mask-type:alpha" maskUnits="userSpaceOnUse" x="0" y="0" width="175" height="125">
<rect width="175" height="125" fill="#EE0000"/>
</mask>
<g mask="url(#mask0_1980_357)">
<path d="M70.0073 111.916L70.3331 113.545H67.2376C63.925 113.545 56.6479 114.359 51.9776 115.283C49.3165 115.771 48.9364 116.043 47.3072 118.595C45.1893 121.962 43.8859 125.384 40.9534 135.539C37.6407 146.835 36.1201 154.981 36.1201 161.389C36.1201 162.692 35.7399 165.733 35.3055 168.123C34.5452 172.141 34.2194 173.771 33.1332 178.495C32.8074 180.016 32.9703 180.287 34.871 181.482C36.7718 182.677 37.3691 182.786 43.4514 182.623C47.9589 182.514 50.2941 182.242 51.1087 181.699C52.2491 180.939 52.3577 180.993 52.6835 182.514C53.0637 184.252 54.9644 186.098 57.8426 187.51C72.2338 194.407 79.9996 196.579 87.9827 195.873C93.359 195.33 96.6717 194.298 100.962 191.692C102.971 190.497 105.795 189.085 107.207 188.651C108.565 188.162 110.194 187.456 110.791 187.021C111.389 186.641 112.638 186.315 113.615 186.315C115.896 186.315 119.535 184.632 121.761 182.514C124.314 180.124 128.169 173.445 127.518 172.576C127.192 172.25 126.649 170.349 126.323 168.394C125.671 165.027 124.911 162.04 123.282 156.175C122.847 154.655 121.761 150.419 120.838 146.672C119.915 142.925 118.557 138.146 117.851 136.028C117.091 133.91 116.222 130.814 115.896 129.239C115.57 127.61 114.701 124.298 113.995 121.908C111.226 112.622 108.402 110.992 96.1287 111.59C92.2729 111.753 88.2542 112.079 87.331 112.241C85.7561 112.513 85.5389 112.459 85.5389 111.427C85.5389 110.303 84.5056 109.98 83.8465 110.423C83.55 110.622 83.3292 110.976 83.3123 111.481C83.2037 113.273 83.421 114.305 83.9097 114.631C84.1269 114.794 84.5071 115.5 84.7243 116.152C84.9415 116.858 86.082 118.432 87.2767 119.627C88.4715 120.822 89.286 121.908 89.0688 122.125C88.6887 122.505 83.421 123.157 77.1214 123.592C74.2432 123.809 71.8537 123.646 70.1159 123.157C67.1833 122.397 66.3687 121.419 68.1066 120.876C71.4435 119.839 73.4325 112.638 71.897 110.423C75.4097 110.146 82.7947 110.534 83.8465 110.423C83.9848 110.408 84.0136 110.395 83.9097 110.383C82.7426 110.252 70.8508 110.286 70.496 110.286C69.8444 110.286 69.7357 110.667 70.0073 111.916ZM107.424 114.631C109.977 116.314 111.715 119.844 113.289 126.307C113.941 128.968 115.353 134.236 116.494 137.983C117.634 141.73 118.883 146.129 119.263 147.758C119.589 149.387 120.621 153.297 121.49 156.338C122.359 159.434 123.662 164.593 124.368 167.743L125.617 173.553L123.662 176.975C122.141 179.581 120.892 180.939 118.449 182.568C114.321 185.338 112.964 185.338 112.475 182.623C111.552 177.572 110.954 173.119 110.52 167.851C109.868 160.466 108.999 153.786 108.565 152.211C108.239 151.071 108.348 151.016 109.76 151.342C110.628 151.559 111.497 151.939 111.66 152.211C112.149 152.971 112.746 151.179 112.366 150.202C111.986 149.278 111.063 149.116 111.063 149.93C111.063 150.202 110.466 150.473 109.705 150.473C108.673 150.473 108.293 150.093 108.022 148.953C107.859 148.138 107.479 146.617 107.207 145.586C105.306 137.874 104.6 130.76 105.632 130.108C106.338 129.674 106.338 128.208 105.578 128.208C105.252 128.208 104.383 128.696 103.623 129.294C102.863 129.891 101.777 130.38 101.233 130.38C100.636 130.38 100.202 130.76 100.202 131.194C100.202 131.737 100.745 132.009 101.831 132.009C103.351 132.009 103.46 132.172 103.46 134.018C103.46 136.082 104.166 139.938 106.175 149.387C107.37 154.926 108.076 159.977 108.891 168.937C109.162 172.087 109.542 175.78 109.76 177.192C110.085 179.419 109.977 179.799 109.216 179.799C108.728 179.799 107.37 180.287 106.284 180.83C105.035 181.428 103.677 181.754 102.754 181.591C101.668 181.374 101.288 181.536 101.288 182.188C101.288 182.677 101.451 183.003 101.722 182.948C101.939 182.948 102.537 183.057 103.026 183.274C103.623 183.546 104.818 183.166 106.338 182.297C109.325 180.505 110.303 180.505 110.737 182.297C111.226 184.089 111.009 184.252 107.261 185.827C105.632 186.478 103.786 187.456 103.188 187.945C100.908 189.845 96.3459 192.289 93.359 193.158C88.5801 194.516 79.0221 194.027 73.32 192.072C66.8575 189.845 56.7022 185.066 55.4532 183.654C53.2266 181.156 52.7378 162.475 54.5843 148.301C55.1816 143.685 55.6704 138.363 55.6704 136.516C55.6704 134.67 55.9419 132.987 56.2135 132.824C56.5393 132.606 57.6254 132.987 58.6572 133.638C59.7434 134.29 60.9381 134.67 61.4269 134.507C62.4587 134.127 61.9156 133.095 60.6123 133.095C60.1235 133.095 59.0917 132.552 58.3857 131.9C57.6797 131.194 56.8108 130.651 56.485 130.651C56.2135 130.651 55.3445 130.434 54.6386 130.163C53.0094 129.565 51.6517 130.706 53.118 131.52C54.3127 132.226 54.3127 133.91 53.1723 143.793C52.4663 149.604 52.0862 151.559 51.4888 151.559C51.1087 151.559 50.5113 150.908 50.1854 150.147C49.5881 148.464 49.3165 148.627 48.6106 150.962C48.2304 152.374 48.2847 152.645 48.7735 152.157C49.1536 151.885 50.0225 151.777 50.7285 151.939L51.9776 152.265L51.6517 165.896C51.4888 173.39 51.3802 179.581 51.3259 179.581C51.163 180.179 47.4701 180.83 44.266 180.939C38.0751 181.048 37.4234 180.939 36.1744 179.907L35.034 178.984L36.3373 172.739C37.0433 169.318 37.9122 163.29 38.2923 159.434C39.0526 150.31 39.5957 147.106 41.6593 140.155C46.7641 122.56 48.339 118.867 51.2173 117.835C52.0319 117.564 53.1723 117.075 53.7697 116.803C54.367 116.532 56.8108 116.152 59.2003 115.989L63.5448 115.608L63.3819 118.324C63.1104 121.854 64.5766 123.592 68.7039 124.678C74.2975 126.144 88.5258 125.058 91.3497 122.94C93.1961 121.636 93.6306 118.269 92.3815 115.771C91.8928 114.902 91.5126 114.034 91.5126 113.871C91.5126 113.273 93.7392 113.11 99.387 113.165C104.763 113.273 105.578 113.382 107.424 114.631ZM90.3179 116.206C91.7298 118.65 91.8385 119.519 90.698 119.519C89.6119 119.519 87.7655 117.944 86.8423 116.152C85.8104 114.197 85.8647 114.088 87.6026 114.088C88.7973 114.088 89.3947 114.522 90.3179 116.206ZM70.3331 115.717C70.3331 117.129 68.9211 118.975 67.4549 119.519C65.3369 120.225 65.4455 120.279 65.4455 118.65C65.4455 116.26 66.3687 115.174 68.4324 115.174C69.4642 115.174 70.3331 115.391 70.3331 115.717Z" fill="black"/>
<path d="M107.424 114.631C109.977 116.314 111.715 119.844 113.289 126.307C113.941 128.968 115.353 134.236 116.494 137.983C117.634 141.73 118.883 146.129 119.263 147.758C119.589 149.387 120.621 153.297 121.49 156.338C122.359 159.434 123.662 164.593 124.368 167.743L125.617 173.553L123.662 176.975C122.141 179.581 120.892 180.939 118.449 182.568C114.321 185.338 112.964 185.338 112.475 182.623C111.552 177.572 110.954 173.119 110.52 167.851C109.868 160.466 108.999 153.786 108.565 152.211C108.239 151.071 108.348 151.016 109.76 151.342C110.628 151.559 111.497 151.939 111.66 152.211C112.149 152.971 112.746 151.179 112.366 150.202C111.986 149.278 111.063 149.116 111.063 149.93C111.063 150.202 110.466 150.473 109.705 150.473C108.673 150.473 108.293 150.093 108.022 148.953C107.859 148.138 107.479 146.617 107.207 145.586C105.306 137.874 104.6 130.76 105.632 130.108C106.338 129.674 106.338 128.208 105.578 128.208C105.252 128.208 104.383 128.696 103.623 129.294C102.863 129.891 101.777 130.38 101.233 130.38C100.636 130.38 100.202 130.76 100.202 131.194C100.202 131.737 100.745 132.009 101.831 132.009C103.351 132.009 103.46 132.172 103.46 134.018C103.46 136.082 104.166 139.938 106.175 149.387C107.37 154.926 108.076 159.977 108.891 168.937C109.162 172.087 109.542 175.78 109.76 177.192C110.085 179.419 109.977 179.799 109.216 179.799C108.728 179.799 107.37 180.287 106.284 180.83C105.035 181.428 103.677 181.754 102.754 181.591C101.668 181.374 101.288 181.536 101.288 182.188C101.288 182.677 101.451 183.003 101.722 182.948C101.939 182.948 102.537 183.057 103.026 183.274C103.623 183.546 104.818 183.166 106.338 182.297C109.325 180.505 110.303 180.505 110.737 182.297C111.226 184.089 111.009 184.252 107.261 185.827C105.632 186.478 103.786 187.456 103.188 187.945C100.908 189.845 96.3459 192.289 93.359 193.158C88.5801 194.516 79.0221 194.027 73.32 192.072C66.8575 189.845 56.7022 185.066 55.4532 183.654C53.2266 181.156 52.7378 162.475 54.5843 148.301C55.1816 143.685 55.6704 138.363 55.6704 136.516C55.6704 134.67 55.9419 132.987 56.2135 132.824C56.5393 132.606 57.6254 132.987 58.6572 133.638C59.7434 134.29 60.9381 134.67 61.4269 134.507C62.4587 134.127 61.9156 133.095 60.6123 133.095C60.1235 133.095 59.0917 132.552 58.3857 131.9C57.6797 131.194 56.8108 130.651 56.485 130.651C56.2135 130.651 55.3445 130.434 54.6386 130.163C53.0094 129.565 51.6517 130.706 53.118 131.52C54.3127 132.226 54.3127 133.91 53.1723 143.793C52.4663 149.604 52.0862 151.559 51.4888 151.559C51.1087 151.559 50.5113 150.908 50.1854 150.147C49.5881 148.464 49.3165 148.627 48.6106 150.962C48.2304 152.374 48.2847 152.645 48.7735 152.157C49.1536 151.885 50.0225 151.777 50.7285 151.939L51.9776 152.265L51.6517 165.896C51.4888 173.39 51.3802 179.581 51.3259 179.581C51.163 180.179 47.4701 180.83 44.266 180.939C38.0751 181.048 37.4234 180.939 36.1744 179.907L35.034 178.984L36.3373 172.739C37.0433 169.318 37.9122 163.29 38.2923 159.434C39.0526 150.31 39.5957 147.106 41.6593 140.155C46.7641 122.56 48.339 118.867 51.2173 117.835C52.0319 117.564 53.1723 117.075 53.7697 116.803C54.367 116.532 56.8108 116.152 59.2003 115.989L63.5448 115.608L63.3819 118.324C63.1104 121.854 64.5766 123.592 68.7039 124.678C74.2975 126.144 88.5258 125.058 91.3497 122.94C93.1961 121.636 93.6306 118.269 92.3815 115.771C91.8928 114.902 91.5126 114.034 91.5126 113.871C91.5126 113.273 93.7392 113.11 99.387 113.165C104.763 113.273 105.578 113.382 107.424 114.631Z" fill="#20A3E4"/>
<path d="M70.3331 115.717C70.3331 117.129 68.9211 118.975 67.4549 119.519C65.3369 120.225 65.4455 120.279 65.4455 118.65C65.4455 116.26 66.3687 115.174 68.4324 115.174C69.4642 115.174 70.3331 115.391 70.3331 115.717Z" fill="#1C8EAE"/>
<path d="M90.3179 116.206C91.7298 118.65 91.8385 119.519 90.698 119.519C89.6119 119.519 87.7655 117.944 86.8423 116.152C85.8104 114.197 85.8647 114.088 87.6026 114.088C88.7973 114.088 89.3947 114.522 90.3179 116.206Z" fill="#1C8EAE"/>
<path d="M83.8465 110.423C83.55 110.622 83.3292 110.976 83.3123 111.481C83.2037 113.273 83.421 114.305 83.9097 114.631C84.1269 114.794 84.5071 115.5 84.7243 116.152C84.9415 116.858 86.082 118.432 87.2767 119.627C88.4715 120.822 89.286 121.908 89.0688 122.125C88.6887 122.505 83.421 123.157 77.1214 123.592C74.2432 123.809 71.8537 123.646 70.1159 123.157C67.1833 122.397 66.3687 121.419 68.1066 120.876C71.4435 119.839 73.4325 112.638 71.897 110.423C75.4097 110.146 82.7947 110.534 83.8465 110.423Z" fill="white"/>
<path d="M89.4941 8.31321C78.0354 9.9424 69.8895 12.4948 62.0693 16.9479C55.7155 20.5321 54.1949 21.8898 49.7418 27.6463C43.9853 35.1949 42.7906 37.0413 41.27 40.354C40.564 41.9832 39.2063 44.9157 38.2831 46.8708C36.3824 50.7808 36.4367 49.8576 36.8712 67.833C37.0884 77.1737 36.9798 78.2598 36.1109 79.1287C33.6128 81.6268 32.4723 86.9489 33.2326 92.1623C33.6671 94.9862 36.2738 98.4618 37.903 98.4618C38.5004 98.4618 39.7494 98.9506 40.7269 99.4937C41.7044 100.037 43.8767 100.797 45.5059 101.177C51.4796 102.426 53.6518 104.11 53.6518 107.477C53.6518 108.78 54.6837 110.029 56.5301 111.061C58.2679 111.984 71.7359 112.201 73.9081 111.332C74.9399 110.898 76.189 110.789 77.0036 111.007C79.2302 111.658 83.2488 111.55 83.9548 110.844C84.4436 110.355 84.6065 110.355 84.6065 110.844C84.6065 111.658 90.906 111.767 92.9154 111.007C93.6757 110.681 94.8161 109.486 95.5221 108.291C96.4996 106.499 97.0427 106.065 98.346 106.065C99.2149 106.065 102.745 104.653 106.22 102.915C109.75 101.177 113.769 99.4393 115.235 99.0592C120.775 97.7015 123.653 95.2578 127.78 88.5238C129.192 86.1343 132.016 82.1156 134.08 79.5632C141.357 70.494 141.683 69.788 142.008 64.6832C142.389 59.0897 141.302 42.2547 140.271 38.236C139.619 35.3578 137.447 30.7418 135.98 28.9496C135.6 28.5152 134.623 26.9946 133.862 25.5826C132.45 23.1389 126.368 17.7082 122.893 15.7532C122.024 15.2644 117.353 13.3637 112.574 11.5173C104.32 8.36752 103.614 8.20459 98.4546 8.04167C95.4678 7.93306 91.4491 8.04167 89.4941 8.31321ZM107.958 12.169C111.108 13.3637 115.29 14.9386 117.299 15.5903C121.969 17.1108 129.572 22.5415 131.636 25.7999C132.45 27.1032 133.591 28.7867 134.134 29.6556C135.926 32.2623 138.37 36.9327 138.37 37.7473C138.37 38.5619 134.134 39.8109 131.31 39.8109C129.464 39.8109 129.029 39.2135 128.866 36.7698C128.758 34.8147 127.78 33.2942 126.64 33.2942C125.771 33.2942 125.608 34.7061 126.422 35.1949C127.074 35.575 127.128 38.0188 126.531 38.399C125.716 38.8877 123.707 38.0731 123.707 37.3128C123.707 36.8784 123.979 36.5525 124.304 36.5525C125.173 36.5525 124.413 33.7829 123.11 32.4796C122.295 31.6106 121.318 31.4477 117.733 31.3934C112.303 31.3934 111.977 32.3709 117.245 32.8597C119.688 33.0769 121.426 33.5114 121.969 34.0544C122.784 34.869 122.784 35.0863 121.861 36.7698C120.449 39.4851 120.666 39.648 126.803 40.6798C128.377 41.0057 128.54 41.2229 128.975 43.8296C129.518 47.3052 130.441 47.4138 130.658 44.1011L130.821 41.5487L133.645 41.2772C135.22 41.1143 136.958 40.8427 137.555 40.6255C138.587 40.2997 138.696 40.6798 139.347 44.5356C139.673 46.8708 139.999 53.1703 139.999 58.5466V63.3963C139.999 66.6057 139.034 69.7409 137.229 72.3948C135.709 74.567 134.188 76.685 133.808 77.0108C132.831 77.8254 127.509 85.2111 127.509 85.7541C127.454 86.6773 123.436 91.7278 121.263 93.6829C117.951 96.6154 114.909 97.3757 106.655 97.3757C100.735 97.3757 99.3235 97.5386 98.346 98.3532C96.8254 99.548 94.9247 102.806 94.9247 104.164C94.9247 104.761 94.3816 106.282 93.73 107.531L93.0461 108.809C92.6982 109.46 92.0203 109.866 91.2826 109.866H88.951H87.505C86.3682 109.866 85.46 108.92 85.5067 107.784L85.584 105.902C85.7469 102.752 85.6383 101.775 84.9323 101.231C83.9005 100.363 83.9005 100.471 84.0634 104.436C84.172 108.78 83.0316 110.138 79.556 109.649L78.6815 109.516C77.7378 109.372 77.0271 108.582 76.9844 107.628L76.895 105.63C76.7864 102.806 76.5691 101.992 75.9175 101.992C75.3201 101.992 75.0486 102.806 74.9399 105.25C74.777 109.16 74.071 109.866 70.3239 109.866C67.1741 109.866 66.1423 108.997 66.1423 106.391C66.1423 104.327 65.2191 103.295 64.4588 104.49C64.1873 104.924 63.9701 106.282 63.9701 107.531V109.866H61.5263C58.3222 109.866 55.8241 108.617 55.8241 106.988C55.8241 104.001 50.8822 99.548 47.5695 99.548C45.886 99.548 42.3561 98.2446 38.3374 96.2353C36.6159 94.7663 35.5528 92.6703 35.3845 90.4135L35.2963 89.2297C35.4592 84.1792 35.6221 83.7448 37.3056 81.3553L38.7031 79.4073C38.9591 79.0505 39.0905 78.6194 39.0771 78.1806L38.7719 68.1589C38.609 62.2938 38.3374 56.2115 38.1745 54.7452C38.1745 52.3955 38.2831 51.7846 39.6951 48.4999C41.4872 45.0243 41.5415 44.97 44.0939 44.6985C47.0808 44.3727 47.4609 43.3951 44.6913 43.1779C42.4104 42.9607 42.2475 42.0918 44.0939 38.942C45.2887 36.8241 46.4834 35.1406 52.1856 27.7006C56.9645 21.4554 59.7342 19.6632 62.721 21.0752C64.7847 22.0527 64.8933 22.5958 63.427 24.0621C62.3409 25.1482 61.9607 26.7774 62.8296 26.7774C63.0468 26.7774 63.9158 26.2886 64.6217 25.6913C65.7622 24.8223 66.3052 24.7137 68.043 25.2025C69.4007 25.5826 70.2696 25.5826 70.5954 25.2568C71.3557 24.4965 70.6497 23.519 69.4007 23.519C67.7172 23.519 66.6854 22.9216 66.6854 21.9441C66.6854 21.401 65.8165 20.5865 64.7303 20.0434C63.5356 19.5003 62.9382 18.903 63.2098 18.6314C65.1105 16.785 76.5691 12.3862 81.7826 11.5173C83.7919 11.1371 86.3986 10.7027 87.5933 10.4855C88.7881 10.2682 92.5895 10.051 96.0108 9.9967C102.093 9.9424 102.419 9.9967 107.958 12.169ZM108.719 98.8963C108.881 99.1135 108.067 99.7652 106.981 100.308C105.895 100.851 103.831 101.883 102.473 102.589C100.192 103.784 97.097 104.327 97.097 103.621C97.097 103.024 98.9977 100.363 99.8123 99.8195C100.247 99.4937 102.093 99.1135 103.885 98.9506C105.677 98.7877 107.415 98.6248 107.795 98.5704C108.121 98.5161 108.556 98.6791 108.719 98.8963Z" fill="black"/>
<path d="M107.958 12.169C111.108 13.3637 115.29 14.9386 117.299 15.5903C121.969 17.1108 129.572 22.5415 131.636 25.7999C132.45 27.1032 133.591 28.7867 134.134 29.6556C135.926 32.2623 138.37 36.9327 138.37 37.7473C138.37 38.5619 134.134 39.8109 131.31 39.8109C129.464 39.8109 129.029 39.2135 128.866 36.7698C128.758 34.8147 127.78 33.2942 126.64 33.2942C125.771 33.2942 125.608 34.7061 126.422 35.1949C127.074 35.575 127.128 38.0188 126.531 38.399C125.716 38.8877 123.707 38.0731 123.707 37.3128C123.707 36.8784 123.979 36.5525 124.304 36.5525C125.173 36.5525 124.413 33.7829 123.11 32.4796C122.295 31.6106 121.318 31.4477 117.733 31.3934C112.303 31.3934 111.977 32.3709 117.245 32.8597C119.688 33.0769 121.426 33.5114 121.969 34.0544C122.784 34.869 122.784 35.0863 121.861 36.7698C120.449 39.4851 120.666 39.648 126.803 40.6798C128.377 41.0057 128.54 41.2229 128.975 43.8296C129.518 47.3052 130.441 47.4138 130.658 44.1011L130.821 41.5487L133.645 41.2772C135.22 41.1143 136.958 40.8427 137.555 40.6255C138.587 40.2997 138.696 40.6798 139.347 44.5356C139.673 46.8708 139.999 53.1703 139.999 58.5466V63.3963C139.999 66.6057 139.034 69.7409 137.229 72.3948C135.709 74.567 134.188 76.685 133.808 77.0108C132.831 77.8254 127.509 85.2111 127.509 85.7541C127.454 86.6773 123.436 91.7278 121.263 93.6829C117.951 96.6154 114.909 97.3757 106.655 97.3757C100.735 97.3757 99.3235 97.5386 98.346 98.3532C96.8254 99.548 94.9247 102.806 94.9247 104.164C94.9247 104.761 94.3816 106.282 93.73 107.531L93.0461 108.809C92.6982 109.46 92.0203 109.866 91.2826 109.866H88.951H87.505C86.3682 109.866 85.46 108.92 85.5067 107.784L85.584 105.902C85.7469 102.752 85.6383 101.775 84.9323 101.231C83.9005 100.363 83.9005 100.471 84.0634 104.436C84.172 108.78 83.0316 110.138 79.556 109.649L78.6815 109.516C77.7378 109.372 77.0271 108.582 76.9844 107.628L76.895 105.63C76.7864 102.806 76.5691 101.992 75.9175 101.992C75.3201 101.992 75.0486 102.806 74.9399 105.25C74.777 109.16 74.071 109.866 70.3239 109.866C67.1741 109.866 66.1423 108.997 66.1423 106.391C66.1423 104.327 65.2191 103.295 64.4588 104.49C64.1873 104.924 63.9701 106.282 63.9701 107.531V109.866H61.5263C58.3222 109.866 55.8241 108.617 55.8241 106.988C55.8241 104.001 50.8822 99.548 47.5695 99.548C45.886 99.548 42.3561 98.2446 38.3374 96.2353C36.6159 94.7663 35.5528 92.6703 35.3845 90.4135L35.2963 89.2297C35.4592 84.1792 35.6221 83.7448 37.3056 81.3553L38.7031 79.4073C38.9591 79.0505 39.0905 78.6194 39.0771 78.1806L38.7719 68.1589C38.609 62.2938 38.3374 56.2115 38.1745 54.7452C38.1745 52.3955 38.2831 51.7846 39.6951 48.4999C41.4872 45.0243 41.5415 44.97 44.0939 44.6985C47.0808 44.3727 47.4609 43.3951 44.6913 43.1779C42.4104 42.9607 42.2475 42.0918 44.0939 38.942C45.2887 36.8241 46.4834 35.1406 52.1856 27.7006C56.9645 21.4554 59.7342 19.6632 62.721 21.0752C64.7847 22.0527 64.8933 22.5958 63.427 24.0621C62.3409 25.1482 61.9607 26.7774 62.8296 26.7774C63.0468 26.7774 63.9158 26.2886 64.6217 25.6913C65.7622 24.8223 66.3052 24.7137 68.043 25.2025C69.4007 25.5826 70.2696 25.5826 70.5954 25.2568C71.3557 24.4965 70.6497 23.519 69.4007 23.519C67.7172 23.519 66.6854 22.9216 66.6854 21.9441C66.6854 21.401 65.8165 20.5865 64.7303 20.0434C63.5356 19.5003 62.9382 18.903 63.2098 18.6314C65.1105 16.785 76.5691 12.3862 81.7826 11.5173C83.7919 11.1371 86.3986 10.7027 87.5933 10.4855C88.7881 10.2682 92.5895 10.051 96.0108 9.9967C102.093 9.9424 102.419 9.9967 107.958 12.169Z" fill="white"/>
<path d="M108.719 98.8963C108.881 99.1135 108.067 99.7652 106.981 100.308C105.895 100.851 103.831 101.883 102.473 102.589C100.192 103.784 97.097 104.327 97.097 103.621C97.097 103.024 98.9977 100.363 99.8123 99.8195C100.247 99.4937 102.093 99.1135 103.885 98.9506C105.677 98.7877 107.415 98.6248 107.795 98.5704C108.121 98.5161 108.556 98.6791 108.719 98.8963Z" fill="#D8D8D8"/>
<path d="M104.971 43.5581C104.537 44.3727 105.297 44.6442 109.153 45.0243C111.705 45.2959 112.791 45.1873 113.117 44.6985C113.334 44.3184 113.226 43.8296 112.791 43.5581C111.76 42.9064 105.406 42.9607 104.971 43.5581Z" fill="black"/>
<path d="M70.4352 88.4073C69.7293 89.2762 68.5345 90.7425 67.8828 91.72C66.7967 93.2949 66.7424 93.5121 67.557 93.7836C68.0458 94.0008 68.6974 93.8922 69.0776 93.5121C69.4034 93.1862 70.5982 92.9147 71.7386 92.9147C73.4764 92.9147 73.9108 93.1862 74.6168 94.5439C75.4314 96.1188 76.6805 96.6619 77.2778 95.7386C77.6037 95.1956 73.9652 87.9185 73.0963 87.3755C72.1187 86.7238 71.9558 86.8324 70.4352 88.4073Z" fill="black"/>
<path d="M87 63L92 72.5L99.5 81.5" stroke="black" stroke-width="6" stroke-linecap="round"/>
<path d="M99.5 63L92 73L87 81.5" stroke="black" stroke-width="6" stroke-linecap="round"/>
<path d="M50 62L54.5 72L62.5 80.5" stroke="black" stroke-width="6" stroke-linecap="round"/>
<path d="M62.5 62L54.5 72L50 80.5" stroke="black" stroke-width="6" stroke-linecap="round"/>
</g>
</svg>
