<svg width="176" height="230" viewBox="0 0 176 230" fill="none" xmlns="http://www.w3.org/2000/svg">
    <path d="M71.6311 164.496C76.264 163.822 79.5414 162.718 86.2604 159.658L86.4682 156.481C77.8961 159.904 73.6017 161.325 72.1337 157.739C71.8142 153.708 77.2007 151.318 87.5602 147.038L86.6069 144.225C76.4151 147.888 71.3267 150.296 66.1885 156.844C64.4253 162.15 65.0815 164.146 71.6311 164.496Z" fill="white"/>
    <path d="M86.5701 159.449C86.5701 159.449 67.0197 169.811 65.4948 161.01C63.7463 150.918 89.6975 143.348 86.5737 144.345M86.7822 156.289C86.7822 156.289 73.9031 163.308 72.1527 157.758C70.479 152.452 89.5834 147.021 87.4187 146.838" stroke="#0B0B0B" stroke-linecap="round"/>
    <path d="M116.296 158.141C112.994 151.221 105.548 148.334 94.1051 143.479L93.0914 147.358C102.113 151.453 108.662 154.169 107.395 158.141C105.688 161.669 101.417 160.669 92.4984 157.715L91.8711 161.021C100.114 164.901 104.474 166.336 111.3 166.405C116.543 164.335 117.092 162.334 116.296 158.141Z" fill="white"/>
    <path d="M92.0469 160.97C92.0469 160.97 112.23 172.011 116.157 162.762C120.615 152.26 93.0625 143.029 94.1592 143.634M92.4129 157.601C92.4129 157.601 106.105 163.777 107.543 157.601C108.734 152.489 92.2111 147.645 93.0035 147.034" stroke="#0B0B0B" stroke-linecap="round"/>
    <path d="M39.5293 175.686C38.9586 182.674 38.7237 186.59 38.8711 193.572C40.0426 191.537 40.5569 190.18 41.0018 187.102C41.3912 178.163 41.8005 172.926 41.3175 165.007L39.5293 175.686Z" fill="#D9D9D9"/>
    <path d="M142.527 164.867C137.466 173.177 134.651 177.938 129.852 187.979C133.946 183.235 136.01 180.39 139.314 175.011C142.178 169.731 142.977 167.502 142.527 164.867Z" fill="#D9D9D9"/>
    <path d="M127.539 192.39C132.921 181.088 136.623 174.439 143.329 163.332" stroke="#0B0B0B" stroke-linecap="round"/>
    <path d="M65.1301 178.33C73.4174 168.84 81.6077 175.041 88.0246 177.915C91.4301 179.44 93.874 178.355 97.5792 177.915C102.474 177.333 104.798 174.475 109.728 174.488C118.336 174.51 129.7 187.302 121.046 196.034C112.391 204.766 102.762 209.114 92.6471 210.467C82.5325 211.82 90.213 204.404 91.0895 203.769C94.9136 201.001 111.937 197.801 109.053 194.268C106.307 190.905 102.418 190.062 98.981 193.49C93.9614 198.496 90.5406 197.768 83.4577 190.79C78.9803 186.379 75.3878 190.281 78.2141 196.501C80.1007 200.653 85.9839 200.041 86.6766 204.548C87.7335 211.426 84.7149 211.161 80.0831 208.701C78.6033 207.916 76.6272 200.517 66.3769 196.034C60.0668 193.274 58.9965 185.354 65.1301 178.33Z" fill="white" stroke="black"/>
    <path d="M152.973 158.849C152.247 155.051 144.055 155.257 143.384 162.996C142.543 172.716 134.212 182.379 131.373 186.621C128.535 190.863 124.489 195.539 127.225 197.969C130.609 200.973 135.452 195.78 136.815 191.465C138.346 186.62 143.55 174.388 148.461 170.296C153.372 166.204 153.7 162.646 152.973 158.849Z" fill="white" stroke="#0B0B0B"/>
    <path d="M39.038 196.989C39.4182 200.209 34.2681 201.558 33.329 198.001C30.8519 188.617 34.1043 176.568 33.7968 171.169C33.4562 165.189 30.1423 159.434 33.181 154.272C36.002 149.479 42.2151 149.913 42.4162 155.397C42.5124 158.022 37.3792 182.939 39.038 196.989Z" fill="white" stroke="#0B0B0B"/>
    <path d="M39.7439 154.357C35.701 155.184 35.0187 152.845 34.3706 149.239C33.2973 143.266 37.9616 144.061 41.4367 139.096C46.2552 132.213 47.3543 128.24 50.1651 120.306C52.072 114.923 49.221 112.827 53.7839 109.437C58.8467 105.677 59.9875 109.285 61.3841 112.278C62.8916 115.51 60.8772 116.848 58.3763 119.283C51.7642 125.722 52.0695 132.906 47.8535 141.144C44.9321 146.852 47.4405 152.782 39.7439 154.357Z" fill="white" stroke="#0B0B0B"/>
    <path d="M131.506 112.503C127.402 111.682 126.705 114.022 126.04 117.63C124.94 123.606 129.678 122.803 133.199 127.763C138.08 134.64 139.189 138.611 142.03 146.542C143.957 151.922 141.058 154.024 145.686 157.406C150.821 161.159 151.985 157.548 153.409 154.552C154.945 151.317 152.902 149.982 150.366 147.55C143.663 141.122 143.985 133.936 139.718 125.704C136.761 119.999 139.319 114.064 131.506 112.503Z" fill="white" stroke="#0B0B0B"/>
    <path d="M92.6445 154.046L92.9844 148.895C105.388 154.497 112.139 157.366 115.311 150.547C115.633 144.844 110.069 141.492 95.6811 135.388L96.4099 130.771C106.874 134.351 112.551 137.054 121.749 144.887C125.665 150.76 125.136 153.628 121.482 158.322C113.249 163.178 106.198 160.649 92.6445 154.046Z" fill="white"/>
    <path d="M85.3022 151.585L85.782 147.447C73.9664 153.213 69.8764 154.029 67.1214 150.915C65.1887 144.2 75.0242 140.715 87.5566 134.868L87.9811 131.086C81.3402 132.932 76.6935 134.532 68.4543 139.69C61.1304 145.819 59.0558 149.61 59.9776 157.182C62.0375 162.872 64.7668 163.37 71.5466 160.924C78.5687 156.993 81.3546 154.755 85.2669 151.613L85.3022 151.585Z" fill="white"/>
    <path d="M85.5278 147.327C85.5278 147.327 70.518 157.155 66.875 150.612C63.3107 144.21 88.1887 135.032 87.1351 134.781M85.1649 151.423C85.1649 151.423 62.1006 172.875 59.9662 155.598C57.8318 138.321 88.104 130.892 88.104 130.892" stroke="#0B0B0B" stroke-linecap="round"/>
    <path d="M92.7812 153.568C93.3824 155.253 118.496 168.407 123.895 154.412C129.044 141.062 95.9656 130.694 95.9656 130.694M92.7812 148.749C92.7812 148.749 109.286 158.965 114.65 152.185C120.799 144.413 95.6268 135.389 95.6268 135.389" stroke="#0B0B0B" stroke-linecap="round"/>
    <path d="M66.6901 144.69C73.0077 143.837 77.4768 142.44 86.6391 138.567L87.3939 134.552C75.7046 138.883 69.3773 140.677 67.3755 136.139C66.9398 131.038 75.3209 127.966 89.4475 122.55L89.773 118.531C75.8751 123.167 66.2749 126.721 59.2683 135.006C56.8639 141.721 57.7588 144.246 66.6901 144.69Z" fill="white"/>
    <path d="M87.039 138.302C87.039 138.302 60.3793 151.414 58.2999 140.277C55.9156 127.506 93.6658 117.54 89.4061 118.801M87.3283 134.303C87.3283 134.303 69.7658 143.185 67.3788 136.163C65.0965 129.448 92.192 122.715 89.2402 122.482" stroke="#0B0B0B" stroke-linecap="round"/>
    <path d="M89.5655 122.178L89.2063 124.643C85.2205 126.681 81.757 126.997 77.0488 128.662C68.4742 130.819 65.6127 129.27 63.7227 124.9C64.3488 120.24 66.4788 117.854 75.0204 114.191C82.0822 111.197 85.5395 110.262 90.843 110.09L90.3938 114.381C77.9297 115.21 73.309 116.405 72.5741 120.856C73.5843 124.212 78.6858 125.663 89.5655 122.178Z" fill="white"/>
    <path d="M89.4061 124.576C89.4061 124.576 66.6192 134.709 64.0577 125.474C61.0445 114.611 95.4009 108.191 90.8016 110.091M89.4061 122.482C89.4061 122.482 72.8665 126.724 72.6506 120.879C72.4082 114.319 92.1306 113.982 90.1309 114.421" stroke="#0B0B0B" stroke-linecap="round"/>
    <path d="M125.871 136.646C121.644 127.891 112.701 125.304 98.0512 119.161L97.398 123.526C108.948 128.709 119.002 132.709 117.38 137.734C115.194 142.198 106.823 139.845 95.4046 136.108L94.6016 140.291C105.154 145.201 110.736 147.016 119.474 147.104C126.186 144.484 126.89 141.953 125.871 136.646Z" fill="white"/>
    <path d="M94.8213 140.227C94.8213 140.227 120.66 154.198 125.687 142.495C131.394 129.206 96.363 118.462 97.767 119.228M95.2898 135.965C95.2898 135.965 115.585 144.798 117.427 136.983C118.951 130.515 96.139 123.845 97.1534 123.072" stroke="#0B0B0B" stroke-linecap="round"/>
    <path d="M119.945 125.363C120.157 117.645 112.374 115.071 99.5836 110.239L98.8198 113.394C107.331 116.844 112.174 118.773 110.822 123.281C109.334 125.599 106.435 125.796 97.4701 124.127L97.0469 126.583L109.374 129.575C117.075 129.597 118.95 128.473 119.945 125.363Z" fill="white"/>
    <path d="M96.9219 126.397C96.9219 126.397 118.009 134.182 119.913 125.399C121.915 116.159 97.9089 109.977 99.552 110.163M97.2846 124.129C97.2846 124.129 110.726 127.734 111.07 122.315C111.428 116.68 97.9659 113.407 98.9171 113.472" stroke="#0B0B0B" stroke-linecap="round"/>
    <path d="M91.1077 111.73C91.1469 111.769 91.151 111.814 91.1176 111.865L91.1077 111.73C89.897 110.507 55.2041 114.306 55.1749 113.279C54.92 104.306 93.7193 106.986 90.8341 108.007L91.1077 111.73Z" fill="white"/>
    <path d="M91.1176 111.865C92.1814 110.256 55.2051 114.339 55.1749 113.279C54.92 104.306 93.7193 106.986 90.8341 108.007L91.1176 111.865Z" stroke="#0B0B0B"/>
    <path d="M98.7733 113.816L98.7583 113.929C98.7378 113.888 98.7433 113.85 98.7733 113.816L99.5767 107.747C99.5767 107.747 116.594 109.167 121.197 110.508C123.728 111.246 132.243 112.115 133.151 116.623C133.761 119.653 125.636 116.678 121.196 115.849C110.585 113.868 99.3959 113.103 98.7733 113.816Z" fill="white"/>
    <path d="M98.7583 113.929L99.5767 107.747C99.5767 107.747 116.594 109.167 121.197 110.508C123.728 111.246 132.243 112.115 133.151 116.623C133.761 119.653 125.636 116.678 121.196 115.849C110.073 113.772 98.3141 113.032 98.7583 113.929Z" stroke="#0B0B0B"/>
    <path d="M100.018 97.4482L91.4305 98.8037C91.0742 116.046 89.1174 127.188 84.26 148.198C83.3273 163.362 84.5447 172.349 88.7751 188.951C91.7448 191.236 93.6856 190.619 97.3621 187.85C92.8199 168.372 91.892 159.339 93.1129 146.334C97.9936 122.213 99.856 110.702 100.018 97.4482Z" fill="white"/>
    <path d="M88.7012 188.898C91.3498 191.39 93.1178 191.11 97.2412 187.622" stroke="#0B0B0B" stroke-linecap="round"/>
    <path d="M91.4009 98.8878C92.641 98.8834 89.2461 126.091 85.198 143.779C81.2445 161.053 88.6744 188.94 88.6744 188.94" stroke="#0B0B0B" stroke-linecap="round"/>
    <path d="M99.9546 97.6284C101.195 97.624 97.7998 124.831 93.7517 142.519C89.7982 159.794 97.2281 187.68 97.2281 187.68" stroke="#0B0B0B" stroke-linecap="round"/>
    <path d="M38.8242 193.973C39.0771 194.322 40.7396 189.765 40.8965 185.825C41.3498 174.447 42.3338 156.655 42.3338 156.655" stroke="#0B0B0B" stroke-linecap="round"/>
    <path d="M86.2207 178.313L84.1562 180.071L86.8968 180.988C90.0265 179.803 91.9311 179.672 95.4785 179.997L97.8669 178.044L94.9601 177.285C91.5093 178.463 89.5923 178.997 86.2207 178.313Z" fill="#FF006A" stroke="black" stroke-width="0.5"/>
    <path d="M86.2207 178.313L84.1562 180.071L86.8968 180.988C90.0265 179.803 91.9311 179.672 95.4785 179.997L97.8669 178.044L94.9601 177.285C91.5093 178.463 89.5923 178.997 86.2207 178.313Z" fill="#EFEFEF" stroke="black" stroke-width="0.5"/>
    <path d="M84.7568 170.766L82.6924 172.525L85.4329 173.442C88.5627 172.257 90.4673 172.126 94.0146 172.451L96.4031 170.498L93.4962 169.739C90.0455 170.917 88.1284 171.451 84.7568 170.766Z" fill="#EFEFEF" stroke="black" stroke-width="0.5"/>
    <path d="M84.0083 163.201L81.8289 164.815L84.5008 165.916C87.7038 164.947 89.613 164.946 93.1299 165.512L95.6458 163.726L92.7973 162.77C89.2744 163.711 87.3255 164.113 84.0083 163.201Z" fill="#EFEFEF" stroke="black" stroke-width="0.5"/>
    <path d="M83.4943 155.195L81.2729 156.751L83.9146 157.923C87.1422 157.039 89.0507 157.088 92.5515 157.747L95.1138 156.028L92.2916 154.998C88.745 155.845 86.7861 156.195 83.4943 155.195Z" fill="#EFEFEF" stroke="black" stroke-width="0.5"/>
    <path d="M84.1637 145.895L81.8198 147.259L84.3541 148.648C87.6445 148.037 89.5422 148.246 92.9754 149.196L95.6726 147.698L92.9467 146.435C89.3415 146.982 87.3603 147.167 84.1637 145.895Z" fill="#EFEFEF" stroke="black" stroke-width="0.5"/>
    <path d="M85.8705 136.448L83.3726 137.504L85.7103 139.203C89.0515 139.015 90.9074 139.462 94.1924 140.84L97.0579 139.696L94.5141 138.097C90.8687 138.183 88.88 138.115 85.8705 136.448Z" fill="#EFEFEF" stroke="black" stroke-width="0.5"/>
    <path d="M88.0096 127.87L85.5437 128.999L87.9303 130.628C91.2645 130.342 93.1328 130.735 96.4568 132.016L99.2875 130.788L96.6979 129.265C93.0565 129.458 91.0667 129.448 88.0096 127.87Z" fill="#EFEFEF" stroke="black" stroke-width="0.5"/>
    <path d="M89.0906 118.849L86.6589 120.05L89.0923 121.609C92.4166 121.225 94.2956 121.563 97.6558 122.746L100.449 121.435L97.816 119.989C94.1819 120.288 92.1926 120.337 89.0906 118.849Z" fill="#EFEFEF" stroke="black" stroke-width="0.5"/>
    <path d="M90.0792 111.144L87.6838 112.416L90.1619 113.902C93.4736 113.421 95.3616 113.704 98.7551 114.787L101.509 113.395L98.8343 112.027C95.2106 112.433 93.2236 112.54 90.0792 111.144Z" fill="#EFEFEF" stroke="black" stroke-width="0.5"/>
    <path d="M91.3121 102.225L88.9293 103.52L91.4219 104.982C94.7286 104.469 96.6194 104.733 100.023 105.783L102.763 104.364L100.075 103.022C96.4559 103.463 94.47 103.59 91.3121 102.225Z" fill="#EFEFEF" stroke="black" stroke-width="0.5"/>
    <path d="M88.1146 186.545L86.2873 188.549L89.1213 189.115C92.0775 187.546 93.9505 187.177 97.5107 187.054L99.635 184.817L96.6558 184.429C93.3803 186.031 91.5455 186.801 88.1146 186.545Z" fill="#EFEFEF" stroke="black" stroke-width="0.5"/>
    <path d="M34.3955 190.573L34.6949 192.49" stroke="#0B0B0B" stroke-width="0.5" stroke-linecap="round"/>
    <path d="M34.9941 194.585L35.1139 195.124" stroke="#0B0B0B" stroke-width="0.5" stroke-linecap="round"/>
    <path d="M39.6311 145.513C39.6311 145.58 39.6311 145.647 39.472 145.949C39.313 146.252 38.9948 146.787 38.667 147.339" stroke="#0B0B0B" stroke-width="0.5" stroke-linecap="round"/>
    <path d="M53.0282 113.189C52.9947 113.239 52.9612 113.289 52.9272 113.533C52.8932 113.776 52.8597 114.212 52.8252 114.66" stroke="#0B0B0B" stroke-width="0.5" stroke-linecap="round"/>
    <path d="M131.644 120.313C131.716 120.495 131.789 120.678 131.918 121.118C132.047 121.558 132.229 122.251 132.417 122.964" stroke="#0B0B0B" stroke-width="0.5" stroke-linecap="round"/>
    <path d="M130.392 120.939C130.416 120.975 130.44 121.012 130.465 121.122C130.49 121.232 130.514 121.414 130.539 121.602" stroke="#0B0B0B" stroke-width="0.5" stroke-linecap="round"/>
    <path d="M145.899 148.625L147.709 150.528" stroke="#0B0B0B" stroke-width="0.5" stroke-linecap="round"/>
    <path d="M147.009 151.585C147.025 151.602 147.042 151.618 147.182 151.751C147.323 151.883 147.587 152.13 147.859 152.385" stroke="#0B0B0B" stroke-width="0.5" stroke-linecap="round"/>
    <path d="M150.32 162.94C150.32 163.01 150.32 163.08 150.306 163.186C150.292 163.292 150.264 163.432 150.235 163.576" stroke="#0B0B0B" stroke-width="0.5" stroke-linecap="round"/>
    <path d="M133.543 193.825C133.529 193.853 133.515 193.881 133.368 194.056C133.221 194.231 132.941 194.553 132.653 194.884" stroke="#0B0B0B" stroke-width="0.5" stroke-linecap="round"/>
    <path d="M65.4004 189.566C65.4004 189.576 65.4004 189.585 65.4449 189.882C65.4894 190.179 65.5784 190.763 65.6985 191.158C65.9669 191.74 66.288 192.023 66.6318 192.182C66.8074 192.253 66.9855 192.302 67.1689 192.353" stroke="#0B0B0B" stroke-width="0.5" stroke-linecap="round"/>
    <path d="M80.3672 202.864C80.8618 202.915 81.3564 202.965 81.7202 203.066C82.0839 203.168 82.3019 203.318 82.4812 203.463C82.6606 203.608 82.7947 203.742 82.9267 203.954C83.2227 204.429 83.3307 204.836 83.3645 205.001C83.3815 205.074 83.3983 205.124 83.4069 205.184C83.4155 205.243 83.4155 205.31 83.4409 205.405" stroke="#0B0B0B" stroke-width="0.5" stroke-linecap="round"/>
    <path d="M92.459 206.878C92.7943 206.341 93.1296 205.805 93.4407 205.466C93.7517 205.126 94.0284 205.001 94.2883 204.919C94.7728 204.767 95.1756 204.778 95.4587 204.803C95.5909 204.82 95.6999 204.845 95.777 204.866C95.8541 204.888 95.896 204.905 95.9646 204.947" stroke="#0B0B0B" stroke-width="0.5" stroke-linecap="round"/>
    <path d="M118.305 191.483C118.305 191.531 118.305 191.578 118.186 192.039C118.068 192.499 117.83 193.371 117.533 194.018C117.236 194.665 116.888 195.061 116.528 195.47" stroke="#0B0B0B" stroke-width="0.5" stroke-linecap="round"/>
    <path d="M76.9114 186.448C76.8817 186.448 76.8521 186.448 76.7428 186.611C76.6335 186.775 76.4456 187.101 76.252 187.437" stroke="#0B0B0B" stroke-width="0.5" stroke-linecap="round"/>
    <path d="M105.867 188.786L107.336 189.476" stroke="#0B0B0B" stroke-width="0.5" stroke-linecap="round"/>
    <path d="M108.715 177.995C110.139 178.262 111.564 178.529 112.411 178.776C113.259 179.022 113.486 179.24 113.721 179.464" stroke="#0B0B0B" stroke-width="0.5" stroke-linecap="round"/>
    <path d="M70.5566 177.785C71.6151 177.162 72.6735 176.539 73.4661 176.252C74.2586 175.966 74.7532 176.035 75.3227 176.137" stroke="#0B0B0B" stroke-width="0.5" stroke-linecap="round"/>
    <path d="M63.9326 158.268C63.9405 158.34 63.9722 158.458 64.0377 158.619C64.1057 158.786 64.2466 158.954 64.3818 159.126C64.4796 159.251 64.6406 159.367 64.8533 159.501C64.9531 159.564 65.0463 159.595 65.1581 159.629C65.2699 159.663 65.4 159.695 65.5341 159.716C65.6682 159.736 65.8023 159.745 66.0331 159.71C66.2639 159.674 66.5873 159.593 66.8071 159.519C67.027 159.446 67.1335 159.383 67.2432 159.318" stroke="#0B0B0B" stroke-width="0.5" stroke-linecap="round"/>
    <path d="M115.418 158.659C115.489 158.683 115.56 158.706 115.97 158.683C116.38 158.66 117.126 158.589 117.6 158.505C118.264 158.387 118.529 158.145 118.708 157.972C118.996 157.571 119.14 157.212 119.182 156.95C119.2 156.806 119.212 156.64 119.224 156.469" stroke="#0B0B0B" stroke-width="0.5" stroke-linecap="round"/>
    <path d="M120.638 132.341C120.648 132.351 120.767 132.426 121.048 132.616C121.217 132.731 121.427 132.906 121.577 133.04C121.819 133.257 121.934 133.431 122.009 133.547C122.1 133.723 122.17 133.884 122.191 133.967C122.196 133.985 122.201 133.999 122.221 134.015" stroke="#0B0B0B" stroke-width="0.5" stroke-linecap="round"/>
    <path d="M64.2372 131.545C64.213 131.545 64.1887 131.545 64.0001 131.732C63.8116 131.919 63.4595 132.293 63.2629 132.517C63.0664 132.741 63.036 132.803 62.9863 132.867" stroke="#0B0B0B" stroke-width="0.5" stroke-linecap="round"/>
    <path d="M65.0645 142.503C65.113 142.538 65.1616 142.573 65.4598 142.642C65.758 142.712 66.3043 142.816 66.7406 142.849C67.1768 142.882 67.4865 142.84 67.6854 142.805C67.8844 142.77 67.9633 142.742 68.0252 142.717C68.0871 142.693 68.1296 142.672 68.1734 142.65" stroke="#0B0B0B" stroke-width="0.5" stroke-linecap="round"/>
    <path d="M65.8587 123.078C65.7487 123.903 65.7171 124.832 65.7874 125.394C66.1714 126.093 66.661 126.67 66.7553 126.733C66.8027 126.76 66.8495 126.778 66.9921 126.85" stroke="#0B0B0B" stroke-width="0.5" stroke-linecap="round"/>
    <path d="M114.443 118.767C114.764 119.016 115.412 119.664 115.637 119.96C115.7 120.041 115.771 120.13 115.835 120.229C115.898 120.329 115.951 120.435 116.06 120.653" stroke="#0B0B0B" stroke-width="0.5" stroke-linecap="round"/>
    <path d="M109.809 127.605C110.508 127.713 110.831 127.748 111.323 127.811C112.493 127.961 112.753 127.766 113.256 127.677C113.418 127.659 113.633 127.605 113.902 127.516C114.011 127.479 114.065 127.461 114.12 127.443" stroke="#0B0B0B" stroke-width="0.5" stroke-linecap="round"/>
    <path d="M103.696 109.724C104.506 109.683 105.315 109.642 105.921 109.636C106.528 109.63 106.907 109.661 107.143 109.687C107.379 109.713 107.461 109.734 107.546 109.755" stroke="#0B0B0B" stroke-width="0.5" stroke-linecap="round"/>
    <path d="M64.7998 111.58C64.8246 111.58 64.8494 111.58 65.3206 111.518C65.7919 111.456 66.7088 111.332 67.7286 111.204" stroke="#0B0B0B" stroke-width="0.5" stroke-linecap="round"/>
    <path d="M121.43 114.257L124.378 114.739" stroke="#0B0B0B" stroke-width="0.5" stroke-linecap="round"/>
    <path d="M94.0962 181.545C94.0544 181.545 94.0125 181.545 93.7817 181.556C93.5509 181.566 93.1324 181.587 92.7012 181.609" stroke="#0B0B0B" stroke-width="0.5" stroke-linecap="round"/>
    <path d="M87.0576 140.518L88.5161 140.391" stroke="#0B0B0B" stroke-width="0.5" stroke-linecap="round"/>
    <path d="M90.292 123.207C90.3129 123.207 90.3338 123.207 90.5748 123.155C90.8158 123.102 91.2761 122.998 91.8139 122.826" stroke="#0B0B0B" stroke-width="0.5" stroke-linecap="round"/>
    <path d="M94.1602 118.514C94.1811 118.514 94.202 118.514 94.5476 118.483C94.8932 118.452 95.5628 118.389 96.2527 118.324" stroke="#0B0B0B" stroke-width="0.5" stroke-linecap="round"/>
    <path d="M92.8281 101.393L93.8427 101.584" stroke="#0B0B0B" stroke-width="0.5" stroke-linecap="round"/>
    <path d="M91.233 154.232L89.9209 154.577" stroke="#0B0B0B" stroke-width="0.5" stroke-linecap="round"/>
    <path d="M86.0049 166.667C86.0182 166.68 86.0315 166.693 86.0917 167.126C86.1519 167.56 86.2585 168.413 86.3683 169.291" stroke="#0B0B0B" stroke-width="0.5" stroke-linecap="round"/>
    <path d="M94.3092 133.294C94.1793 134.37 94.0494 135.446 93.9732 136.038C93.897 136.629 93.8785 136.703 93.8594 136.78" stroke="#0B0B0B" stroke-width="0.5" stroke-linecap="round"/>
    <path d="M98.2653 108.15L97.9932 110.6" stroke="#0B0B0B" stroke-width="0.5" stroke-linecap="round"/>
    <path d="M99.293 11.4423C89.1039 12.891 81.2467 12.9825 74.293 16.9423C68.6431 20.1294 68.2527 21.3236 64.293 26.4423C59.1743 33.1545 57.9496 34.4966 56.5975 37.4423C55.9697 38.8909 54.8793 41.7038 54.0584 43.4423C52.3682 46.9191 52.4067 45.4584 52.793 61.4423C52.9861 69.7481 53.5656 71.6696 52.793 72.4423C50.5716 74.6636 51.9767 78.3065 52.6527 82.9423C53.0391 85.4534 56.7074 84.8607 58.1561 84.8607C58.6873 84.8607 60.3774 85.9594 61.2467 86.4423C62.1159 86.9252 63.3443 86.1043 64.793 86.4423C70.1048 87.553 70.793 89.8474 70.793 92.8414C70.793 94.0004 68.546 97.8208 70.1879 98.7383C71.7331 99.5592 82.3614 100.215 84.293 99.4424C85.2105 99.0561 87.0686 98.7492 87.793 98.9424C89.7728 99.5219 92.4167 100.197 93.0445 99.5695C93.4791 99.1349 94.9045 99.0077 94.9045 99.4423C94.9045 100.167 99.7818 100.713 101.568 100.037C102.245 99.7468 102.918 96.5597 103.546 95.4973C104.407 94.2903 106.131 94.7998 107.293 94.4423C108.066 94.4423 110.702 93.4876 113.793 91.9423C116.932 90.397 118.989 88.7847 120.293 88.4466C125.219 87.2394 128.623 84.9302 132.293 78.9423C133.549 76.8175 135.958 73.7119 137.793 71.4423C144.264 63.3779 143.503 61.9815 143.793 57.4423C144.131 52.4684 144.21 39.0157 143.293 35.4423C142.713 32.8829 140.597 29.0358 139.293 27.4423C138.955 27.0559 138.655 25.3325 137.979 24.077C136.723 21.9039 129.884 19.1807 126.793 17.4423C126.02 17.0077 121.542 14.5841 117.293 12.9423C109.953 10.1415 111.082 8.6243 106.494 8.47943C103.838 8.38285 101.031 11.2008 99.293 11.4423ZM116.793 10.9424C119.594 12.0048 123.006 14.3629 124.793 14.9424C128.923 15.8836 135.434 20.6019 137.293 23.9424C138.017 25.1013 138.81 26.6696 139.293 27.4423C140.887 29.7602 142.793 34.218 142.793 34.9424C142.793 35.6667 138.22 36.7289 135.709 36.7289C134.067 36.7289 133.313 36.65 133.168 34.4769C133.071 32.7385 132.57 30.9341 131.556 30.9341C130.784 30.9341 130.639 32.1896 131.363 32.6242C131.943 32.9623 131.991 35.1353 131.46 35.4733C130.735 35.9079 128.418 35.8214 128.418 35.1454C128.418 34.759 128.878 33.4769 129.168 33.4769C129.941 33.4769 129.576 31.8127 128.418 30.6538C127.693 29.8811 126.855 29.5252 123.668 29.4769C118.839 29.4769 118.518 30.1132 123.202 30.5478C125.375 30.741 126.921 31.1273 127.403 31.6102C128.128 32.3345 128.128 32.5277 127.307 34.0246C126.051 36.4391 126.211 36.0594 131.668 36.9769C133.068 37.2667 133.782 37.659 134.168 39.9769C134.651 43.0675 134.975 42.4226 135.168 39.4769L135.275 38.2741C135.275 38.2741 136.268 37.6218 137.668 37.4769C139.068 37.3321 142.762 36.3713 143.293 36.1782C144.21 35.8885 143.876 37.3674 144.455 40.7959C144.745 42.8724 144.793 48.6617 144.793 53.4424V59.9424L143.436 62.6391L141.293 65.9424C139.941 67.874 138.631 70.1526 138.293 70.4424C137.424 71.1667 133.293 77.4595 133.293 77.9424C133.245 78.7633 129.81 84.2526 127.293 85.4424C124.347 88.05 121.133 88.7851 113.793 88.7851C108.529 88.7851 107.267 89.3646 106.397 90.0889C105.045 91.1513 103.886 93.2351 103.886 94.4424C103.886 94.9736 103.372 95.8296 102.793 96.9403L102.293 98.4424L101.807 98.9901C101.476 99.3629 101.018 99.5987 100.523 99.6515L97.793 99.9424L96.3586 99.4856C95.4999 99.2121 94.9302 98.3981 94.9672 97.4977L95.0494 95.4973C95.1943 92.6965 95.0977 91.8273 94.4699 91.3444C93.5524 90.5718 93.5524 90.6684 93.6973 94.1935C93.7939 98.0567 92.8835 99.877 89.793 99.4424L88.6515 98.9754C87.9299 98.6803 87.4456 97.9927 87.4107 97.2138L87.3231 95.2559C87.2265 92.7448 87.0333 92.0205 86.4538 92.0205C85.9227 92.0205 85.6812 92.7448 85.5846 94.9179C85.4398 98.3947 84.8137 99.5695 81.4817 99.5695C78.6809 99.5695 77.7617 98.2498 77.7617 95.9319C77.7617 94.0969 76.9408 93.1794 76.2647 94.2418C76.0233 94.6281 75.8301 95.8354 75.8301 96.946L75.793 99.4424H73.793C70.9439 99.4424 67.793 97.8911 67.793 96.4424C67.793 93.7865 63.7386 90.4424 60.793 90.4424C59.296 90.4424 55.8664 89.2291 52.293 87.4424L51.293 84.4424L49.793 78.9424C49.9378 74.4514 50.296 75.0671 51.793 72.9424L52.587 71.3542C52.7226 71.0832 52.7947 70.7849 52.7981 70.4819L52.8926 61.9424C52.7477 56.7271 53.0374 51.3123 52.8926 50.0085C52.8926 47.9192 52.5374 46.8631 53.793 43.9424C55.3865 40.8518 55.8865 41.3164 58.1561 41.0749C60.8121 40.7852 61.1501 39.916 58.6873 39.7228C56.6591 39.5297 55.6511 38.7432 57.293 35.9424C58.3553 34.0591 59.2226 32.0581 64.293 25.4424C68.5425 19.8891 71.512 18.2214 74.168 19.4769C76.003 20.3461 77.4718 21.6731 76.168 22.9769C75.2022 23.9427 74.0434 25.1394 74.816 25.1394C75.0092 25.1394 75.7818 24.7048 76.4096 24.1736C77.4237 23.4009 77.6227 22.5423 79.168 22.9769C80.3752 23.315 81.4317 24.077 81.7215 23.7872C82.3975 23.1112 81.7697 22.242 80.6591 22.242C79.1621 22.242 78.168 22.3461 78.168 21.4769C78.168 20.994 77.1338 19.9598 76.168 19.4769C75.1056 18.994 74.478 17.6838 74.7195 17.4424C76.0054 15.4319 86.3499 11.4313 91.293 10.9424C93.0797 10.6044 96.2306 10.1356 97.293 9.94239C98.3553 9.74923 101.919 8.76917 104.961 8.72089C110.369 8.6726 111.867 9.0108 116.793 10.9424ZM115.621 89.268C115.766 89.4611 115.041 90.0406 114.076 90.5235C113.11 91.0064 111.275 91.9239 110.067 92.5517C108.039 93.614 105.287 94.0969 105.287 93.4692C105.287 92.938 106.977 90.5718 107.701 90.0889C108.088 89.7992 109.729 89.4611 111.323 89.3163C112.917 89.1714 114.462 89.0265 114.8 88.9782C115.09 88.9299 115.476 89.0748 115.621 89.268Z" fill="#0B0B0B"/>
    <path d="M116.793 10.9424C119.594 12.0048 123.006 14.3629 124.793 14.9424C128.923 15.8836 135.434 20.6019 137.293 23.9424C138.017 25.1013 138.81 26.6696 139.293 27.4423C140.887 29.7602 142.793 34.218 142.793 34.9424C142.793 35.6667 138.22 36.7289 135.709 36.7289C134.067 36.7289 133.313 36.65 133.168 34.4769C133.071 32.7385 132.57 30.9341 131.556 30.9341C130.784 30.9341 130.639 32.1896 131.363 32.6242C131.943 32.9623 131.991 35.1353 131.46 35.4733C130.735 35.9079 128.418 35.8214 128.418 35.1454C128.418 34.759 128.878 33.4769 129.168 33.4769C129.941 33.4769 129.576 31.8127 128.418 30.6538C127.693 29.8811 126.855 29.5252 123.668 29.4769C118.839 29.4769 118.518 30.1132 123.202 30.5478C125.375 30.741 126.921 31.1273 127.403 31.6102C128.128 32.3345 128.128 32.5277 127.307 34.0246C126.051 36.4391 126.211 36.0594 131.668 36.9769C133.068 37.2667 133.782 37.659 134.168 39.9769C134.651 43.0675 134.975 42.4226 135.168 39.4769L135.275 38.2741C135.275 38.2741 136.268 37.6218 137.668 37.4769C139.068 37.3321 142.762 36.3713 143.293 36.1782C144.21 35.8885 143.876 37.3674 144.455 40.7959C144.745 42.8724 144.793 48.6617 144.793 53.4424V59.9424L143.436 62.6391L141.293 65.9424C139.941 67.874 138.631 70.1526 138.293 70.4424C137.424 71.1667 133.293 77.4595 133.293 77.9424C133.245 78.7633 129.81 84.2526 127.293 85.4424C124.347 88.05 121.133 88.7851 113.793 88.7851C108.529 88.7851 107.267 89.3646 106.397 90.0889C105.045 91.1513 103.886 93.2351 103.886 94.4424C103.886 94.9736 103.372 95.8296 102.793 96.9403L102.293 98.4424L101.807 98.9901C101.476 99.3629 101.018 99.5987 100.523 99.6515L97.793 99.9424L96.3586 99.4856C95.4999 99.2121 94.9302 98.3981 94.9672 97.4977L95.0494 95.4973C95.1943 92.6965 95.0977 91.8273 94.4699 91.3444C93.5524 90.5718 93.5524 90.6684 93.6973 94.1935C93.7939 98.0567 92.8835 99.877 89.793 99.4424L88.6515 98.9754C87.9299 98.6803 87.4456 97.9927 87.4107 97.2138L87.3231 95.2559C87.2265 92.7448 87.0333 92.0205 86.4538 92.0205C85.9227 92.0205 85.6812 92.7448 85.5846 94.9179C85.4398 98.3947 84.8137 99.5695 81.4817 99.5695C78.6809 99.5695 77.7617 98.2498 77.7617 95.9319C77.7617 94.0969 76.9408 93.1794 76.2647 94.2418C76.0233 94.6281 75.8301 95.8354 75.8301 96.946L75.793 99.4424H73.793C70.9439 99.4424 67.793 97.8911 67.793 96.4424C67.793 93.7865 63.7386 90.4424 60.793 90.4424C59.296 90.4424 55.8664 89.2291 52.293 87.4424L51.293 84.4424L49.793 78.9424C49.9378 74.4514 50.296 75.0671 51.793 72.9424L52.587 71.3542C52.7226 71.0832 52.7947 70.7849 52.7981 70.4819L52.8926 61.9424C52.7477 56.7271 53.0374 51.3123 52.8926 50.0085C52.8926 47.9192 52.5374 46.8631 53.793 43.9424C55.3865 40.8518 55.8865 41.3164 58.1561 41.0749C60.8121 40.7852 61.1501 39.916 58.6873 39.7228C56.6591 39.5297 55.6511 38.7432 57.293 35.9424C58.3553 34.0591 59.2226 32.0581 64.293 25.4424C68.5425 19.8891 71.512 18.2214 74.168 19.4769C76.003 20.3461 77.4718 21.6731 76.168 22.9769C75.2022 23.9427 74.0434 25.1394 74.816 25.1394C75.0092 25.1394 75.7818 24.7048 76.4096 24.1736C77.4237 23.4009 77.6227 22.5423 79.168 22.9769C80.3752 23.315 81.4317 24.077 81.7215 23.7872C82.3975 23.1112 81.7697 22.242 80.6591 22.242C79.1621 22.242 78.168 22.3461 78.168 21.4769C78.168 20.994 77.1338 19.9598 76.168 19.4769C75.1056 18.994 74.478 17.6838 74.7195 17.4424C76.0054 15.4319 86.3499 11.4313 91.293 10.9424C93.0797 10.6044 96.2306 10.1356 97.293 9.94239C98.3553 9.74923 101.919 8.76917 104.961 8.72089C110.369 8.6726 111.867 9.0108 116.793 10.9424Z" fill="white"/>
    <path d="M115.621 89.268C115.766 89.4611 115.041 90.0406 114.076 90.5235C113.11 91.0064 111.275 91.9239 110.067 92.5517C108.039 93.614 105.287 94.0969 105.287 93.4692C105.287 92.938 106.977 90.5718 107.701 90.0889C108.088 89.7992 109.729 89.4611 111.323 89.3163C112.917 89.1714 114.462 89.0265 114.8 88.9782C115.09 88.9299 115.476 89.0748 115.621 89.268Z" fill="#D8D8D8"/>
    <path d="M116.793 10.9424C119.594 12.0048 123.006 14.3629 124.793 14.9424C128.923 15.8836 135.434 20.6019 137.293 23.9424C138.017 25.1013 138.81 26.6696 139.293 27.4423C140.887 29.7602 142.793 34.218 142.793 34.9424C142.793 35.6667 138.22 36.7289 135.709 36.7289C134.067 36.7289 133.313 36.65 133.168 34.4769C133.071 32.7385 132.57 30.9341 131.556 30.9341C130.784 30.9341 130.639 32.1896 131.363 32.6242C131.943 32.9623 131.991 35.1353 131.46 35.4733C130.735 35.9079 128.418 35.8214 128.418 35.1454C128.418 34.759 128.878 33.4769 129.168 33.4769C129.941 33.4769 129.576 31.8127 128.418 30.6538C127.693 29.8811 126.855 29.5252 123.668 29.4769C118.839 29.4769 118.518 30.1132 123.202 30.5478C125.375 30.741 126.921 31.1273 127.403 31.6102C128.128 32.3345 128.128 32.5277 127.307 34.0246C126.051 36.4391 126.211 36.0594 131.668 36.9769C133.068 37.2667 133.782 37.659 134.168 39.9769C134.651 43.0675 134.975 42.4226 135.168 39.4769L135.275 38.2741C135.275 38.2741 136.268 37.6218 137.668 37.4769C139.068 37.3321 142.762 36.3713 143.293 36.1782C144.21 35.8885 143.876 37.3674 144.455 40.7959C144.745 42.8724 144.793 48.6617 144.793 53.4424L144.616 53.9973C143.834 56.4518 143.587 59.0414 143.065 61.564C142.74 63.1326 142.179 64.6393 141.293 65.9424C139.941 67.874 138.631 70.1526 138.293 70.4424C137.424 71.1667 133.293 77.4595 133.293 77.9424C133.245 78.7633 129.81 84.2526 127.293 85.4424C124.347 88.05 121.133 88.7851 113.793 88.7851C108.529 88.7851 107.267 89.3646 106.397 90.0889C105.045 91.1513 103.886 93.2351 103.886 94.4424C103.886 94.9736 103.372 95.8296 102.793 96.9403L101.966 97.7513C101.821 97.8934 101.705 98.0614 101.583 98.2237C101.289 98.6151 100.862 98.8845 100.384 98.982C100.124 99.0352 99.8577 99.0754 99.6125 99.1784L97.793 99.9424H96.293C95.1562 99.9424 94.9435 98.0761 94.9902 96.9403L95.0494 95.4973C95.1943 92.6965 95.0977 91.8273 94.4699 91.3444C93.5524 90.5718 93.5524 90.6684 93.6973 94.1935C93.7939 98.0567 92.8835 99.877 89.793 99.4424H88.9443C88.8435 99.4424 88.7416 99.4385 88.6457 99.4079C87.8061 99.14 87.435 97.753 87.3946 96.8505L87.3231 95.2559C87.2265 92.7448 87.0333 92.0205 86.4538 92.0205C85.9227 92.0205 85.6812 92.7448 85.5846 94.9179C85.4398 98.3947 84.8137 99.5695 81.4817 99.5695C78.6809 99.5695 77.7617 98.2498 77.7617 95.9319C77.7617 94.0969 76.9408 93.1794 76.2647 94.2418C76.0233 94.6281 75.8301 95.8354 75.8301 96.946L75.793 99.4424H73.793C70.9439 99.4424 67.793 97.8911 67.793 96.4424C67.793 93.7865 63.7386 90.4424 60.793 90.4424C59.296 90.4424 55.8664 89.2291 52.293 87.4424C51.4924 86.7592 50.7495 85.8352 50.2016 84.822C49.2406 83.0449 49.4608 80.9352 49.793 78.9424C49.9378 74.4514 50.296 75.0671 51.793 72.9424L52.3478 71.8327C52.3951 71.7381 52.4524 71.6484 52.4928 71.5506C52.7 71.0499 52.805 69.8368 52.793 69.4424L52.8926 61.9424C52.7477 56.7271 53.0374 51.3123 52.8926 50.0085C52.8926 47.9192 52.5374 46.8631 53.793 43.9424C55.3865 40.8518 55.8865 41.3164 58.1561 41.0749C60.8121 40.7852 61.1501 39.916 58.6873 39.7228C56.6591 39.5297 55.6511 38.7432 57.293 35.9424C58.3553 34.0591 59.2226 32.0581 64.293 25.4424C68.5425 19.8891 71.512 18.2214 74.168 19.4769C76.003 20.3461 77.4718 21.6731 76.168 22.9769C75.2022 23.9427 74.0434 25.1394 74.816 25.1394C75.0092 25.1394 75.7818 24.7048 76.4096 24.1736C77.4237 23.4009 77.6227 22.5423 79.168 22.9769C80.3752 23.315 81.4317 24.077 81.7215 23.7872C82.3975 23.1112 81.7697 22.242 80.6591 22.242C79.1621 22.242 78.168 22.3461 78.168 21.4769C78.168 20.994 77.1338 19.9598 76.168 19.4769C75.1056 18.994 74.478 17.6838 74.7195 17.4424C76.0054 15.4319 86.3499 11.4313 91.293 10.9424C93.0797 10.6044 96.2306 10.1356 97.293 9.94239C98.3553 9.74923 101.919 8.76917 104.961 8.72089C110.369 8.6726 111.867 9.0108 116.793 10.9424Z" fill="white"/>
    <path d="M112.259 39.9275C111.895 40.7106 112.441 40.6584 115.668 41.0238C117.804 41.2849 118.804 41.4937 119.077 41.0239C119.259 40.6584 119.168 40.1885 118.804 39.9275C117.941 39.301 112.623 39.3532 112.259 39.9275Z" fill="#0B0B0B"/>
    <path d="M79.1152 81.9761C78.4874 82.7488 77.425 84.0526 76.8456 84.9218C75.8798 86.3222 75.8315 86.5154 76.5558 86.7568C76.9904 86.95 77.5699 86.8534 77.9079 86.5154C78.1977 86.2256 79.2601 85.9842 80.2741 85.9842C81.8194 85.9842 82.2057 86.2256 82.8335 87.4329C83.5578 88.8333 84.6685 89.3162 85.1997 88.4952C85.4894 88.0123 82.254 81.5415 81.4814 81.0586C80.6122 80.4792 80.4673 80.5757 79.1152 81.9761Z" fill="#0B0B0B"/>
    <path d="M79.1152 81.9761C78.4874 82.7488 77.425 84.0526 76.8456 84.9218C75.8798 86.3222 75.8315 86.5154 76.5558 86.7568C76.9904 86.95 77.5699 86.8534 77.9079 86.5154C78.1977 86.2256 79.2601 85.9842 80.2741 85.9842C81.8194 85.9842 82.2057 86.2256 82.8335 87.4329C83.5578 88.8333 84.6685 89.3162 85.1997 88.4952C85.4894 88.0123 82.254 81.5415 81.4814 81.0586C80.6122 80.4792 80.4673 80.5757 79.1152 81.9761Z" fill="#0B0B0B"/>
    <path d="M119.293 88.4423C116.981 91.0382 111.306 93.5068 103.793 94.9425L105.793 90.9425C107.233 89.3667 108.125 89.0458 109.793 88.9425C113.88 88.9358 116.587 88.7373 119.293 88.4423Z" fill="#BCBCBC"/>
    <path d="M102.214 99.1691C102.214 99.1691 103.339 95.5178 104.296 93.442C105.589 90.6363 106.741 89.0503 109.796 88.942C113.509 88.8104 115.586 88.6352 119.296 88.442C126.361 88.0743 129.439 84.6276 132.796 78.442C137.248 70.2378 144.653 64.0476 144.796 58.942C145.297 41.0535 144.167 38.5011 143.296 35.942C138.508 21.8854 130.937 17.2844 128.796 16.442C122.638 14.0198 118.994 11.576 111.296 9.44204C105.719 7.89635 100.413 9.23244 96.2957 9.94228C83.0595 12.2242 77.0504 14.1003 67.2957 22.442C58.3862 30.0611 52.3811 47.2247 52.7958 46.9421V70.9423C48.0842 77.9524 47.8349 85.4325 52.7958 87.9423C57.7566 90.452 61.4825 91.0249 61.2961 90.9423C61.1096 90.8596 67.0589 92.0241 67.796 96.4423C68.0049 97.6939 68.5009 98.7716 71.296 99.4423C73.0549 99.8643 76.1799 99.9321 76.296 99.9423C79.5039 100.058 81.186 99.9979 83.793 99.4423C85.1678 98.9725 85.9348 98.8336 87.293 98.9423C89.0431 99.5182 90.1972 99.6757 92.793 99.4423C93.9282 98.8657 94.4639 98.8348 95.293 99.4423C95.2529 99.843 102.268 100.292 102.293 98.9423" stroke="#0B0B0B"/>
    <path d="M103.794 94.9423C102.676 95.3168 107.328 94.5146 112.794 92.4423C115.898 91.2656 120.294 88.4423 120.294 88.4423" stroke="#0B0B0B"/>
    <path d="M123.21 85.2332C123.248 85.2332 123.765 85.1862 124.6 85.0774C125.111 85.0108 125.412 84.7594 125.772 84.4804C125.987 84.3131 126.244 84.0604 126.431 83.8734C126.619 83.6863 126.722 83.5641 126.977 83.1532C127.233 82.7423 127.637 82.0465 128.082 81.3011" stroke="#0B0B0B" stroke-width="0.5" stroke-linecap="round"/>
    <path d="M52.8649 74.4376L51.5557 77.6115" stroke="#0B0B0B" stroke-width="0.5" stroke-linecap="round"/>
    <path d="M55.4434 87.2921C56.0325 87.554 56.6217 87.8158 57.1805 87.9769C57.7393 88.138 58.2499 88.1903 58.776 88.2443" stroke="#0B0B0B" stroke-width="0.5" stroke-linecap="round"/>
    <path d="M60.3174 60.3046L65.6569 59.2876" stroke="#0B0B0B" stroke-width="0.5" stroke-linecap="round"/>
    <path d="M65.1699 27.9369C65.1955 27.8858 65.221 27.8348 65.7959 27.1254C66.3708 26.4161 67.4943 25.05 68.1369 24.2888C68.7795 23.5276 68.9072 23.4127 69.0387 23.2943" stroke="#0B0B0B" stroke-width="0.5" stroke-linecap="round"/>
    <path d="M125.484 17.4137C125.548 17.452 125.612 17.4903 126.602 18.0143C127.593 18.5384 129.508 19.547 131.481 20.5861" stroke="#0B0B0B" stroke-width="0.5" stroke-linecap="round"/>
    <path d="M142.66 56.6708C142.66 57.6305 142.569 59.937 141.306 62.6059C140.547 63.8504 140.034 64.5971 139.781 64.9421C139.665 65.1046 139.574 65.2415 139.479 65.5209" stroke="#0B0B0B" stroke-width="0.5" stroke-linecap="round"/>
    <path d="M59.7178 63.9297C59.7178 63.9297 64.8716 61.9297 68.7178 61.9297C72.564 61.9297 77.7178 63.9297 77.7178 63.9297" stroke="black" stroke-width="4" stroke-linecap="round"/>
    <path d="M92.7178 63.9297C92.7178 63.9297 97.8716 61.9297 101.718 61.9297C105.564 61.9297 110.718 63.9297 110.718 63.9297" stroke="black" stroke-width="4" stroke-linecap="round"/>
    <path d="M112.917 61.1641C112.94 61.1641 113.226 61.6543 113.663 62.511C113.95 63.0723 113.919 63.4316 113.902 63.6952C113.885 63.8675 113.851 64.1183 113.833 64.276C113.816 64.4337 113.816 64.4907 113.781 64.6186" stroke="#0B0B0B" stroke-width="0.5" stroke-linecap="round"/>
</svg>
