<svg width="176" height="230" viewBox="0 0 176 230" fill="none" xmlns="http://www.w3.org/2000/svg">
    <path d="M71.6311 165.019C76.264 164.345 79.5414 163.241 86.2604 160.18L86.4682 157.004C77.8961 160.427 73.6017 161.848 72.1337 158.262C71.8142 154.231 77.2007 151.841 87.5602 147.561L86.6069 144.748C76.4151 148.411 71.3267 150.819 66.1885 157.367C64.4253 162.673 65.0815 164.669 71.6311 165.019Z" fill="white"/>
    <path d="M86.5701 159.972C86.5701 159.972 67.0197 170.334 65.4948 161.533C63.7463 151.441 89.6975 143.871 86.5737 144.868M86.7822 156.812C86.7822 156.812 73.9031 163.831 72.1527 158.281C70.479 152.975 89.5834 147.544 87.4187 147.361" stroke="#0B0B0B" stroke-linecap="round"/>
    <path d="M116.296 158.664C112.994 151.744 105.548 148.857 94.1051 144.002L93.0914 147.881C102.113 151.976 108.662 154.692 107.395 158.664C105.688 162.192 101.417 161.192 92.4984 158.238L91.8711 161.544C100.114 165.424 104.474 166.859 111.3 166.928C116.543 164.858 117.092 162.857 116.296 158.664Z" fill="white"/>
    <path d="M92.0469 161.493C92.0469 161.493 112.23 172.534 116.157 163.285C120.615 152.783 93.0625 143.552 94.1592 144.157M92.4129 158.124C92.4129 158.124 106.105 164.3 107.543 158.124C108.734 153.012 92.2111 148.168 93.0035 147.557" stroke="#0B0B0B" stroke-linecap="round"/>
    <path d="M39.5293 176.209C38.9586 183.197 38.7237 187.113 38.8711 194.095C40.0426 192.06 40.5569 190.703 41.0018 187.625C41.3912 178.686 41.8005 173.449 41.3175 165.53L39.5293 176.209Z" fill="#D9D9D9"/>
    <path d="M142.527 165.39C137.466 173.7 134.651 178.461 129.852 188.502C133.946 183.758 136.01 180.913 139.314 175.534C142.178 170.254 142.977 168.025 142.527 165.39Z" fill="#D9D9D9"/>
    <path d="M127.539 192.913C132.921 181.611 136.623 174.962 143.329 163.854" stroke="#0B0B0B" stroke-linecap="round"/>
    <path d="M65.1301 178.853C73.4174 169.363 81.6077 175.564 88.0246 178.438C91.4301 179.963 93.874 178.878 97.5792 178.438C102.474 177.856 104.798 174.998 109.728 175.011C118.336 175.033 129.7 187.824 121.046 196.557C112.391 205.289 102.762 209.637 92.6471 210.99C82.5325 212.343 90.213 204.927 91.0895 204.292C94.9136 201.524 111.937 198.324 109.053 194.791C106.307 191.428 102.418 190.585 98.981 194.013C93.9614 199.019 90.5406 198.291 83.4577 191.313C78.9803 186.902 75.3878 190.804 78.2141 197.024C80.1007 201.176 85.9839 200.563 86.6766 205.071C87.7335 211.949 84.7149 211.684 80.0831 209.224C78.6033 208.439 76.6272 201.04 66.3769 196.557C60.0668 193.796 58.9965 185.877 65.1301 178.853Z" fill="white" stroke="black"/>
    <path d="M152.973 159.372C152.247 155.574 144.055 155.78 143.384 163.519C142.543 173.239 134.212 182.902 131.373 187.144C128.535 191.386 124.489 196.062 127.225 198.491C130.609 201.496 135.452 196.303 136.815 191.988C138.346 187.142 143.55 174.911 148.461 170.819C153.372 166.727 153.7 163.169 152.973 159.372Z" fill="white" stroke="#0B0B0B"/>
    <path d="M39.038 197.512C39.4182 200.732 34.2681 202.081 33.329 198.523C30.8519 189.14 34.1043 177.091 33.7968 171.692C33.4562 165.712 30.1423 159.957 33.181 154.795C36.002 150.002 42.2151 150.436 42.4162 155.92C42.5124 158.545 37.3792 183.462 39.038 197.512Z" fill="white" stroke="#0B0B0B"/>
    <path d="M39.7439 154.88C35.701 155.707 35.0187 153.368 34.3706 149.762C33.2973 143.789 37.9616 144.584 41.4367 139.619C46.2552 132.736 47.3543 128.763 50.1651 120.829C52.072 115.446 49.221 113.35 53.7839 109.96C58.8467 106.2 59.9875 109.808 61.3841 112.801C62.8916 116.033 60.8772 117.371 58.3763 119.806C51.7642 126.245 52.0695 133.429 47.8535 141.667C44.9321 147.375 47.4405 153.305 39.7439 154.88Z" fill="white" stroke="#0B0B0B"/>
    <path d="M131.506 113.026C127.402 112.205 126.705 114.545 126.04 118.153C124.94 124.129 129.678 123.326 133.199 128.286C138.08 135.163 139.189 139.134 142.03 147.065C143.957 152.445 141.058 154.547 145.686 157.929C150.821 161.682 151.985 158.071 153.409 155.075C154.945 151.84 152.902 150.505 150.366 148.073C143.663 141.645 143.985 134.459 139.718 126.227C136.761 120.522 139.319 114.587 131.506 113.026Z" fill="white" stroke="#0B0B0B"/>
    <path d="M92.6445 154.569L92.9844 149.418C105.388 155.02 112.139 157.889 115.311 151.07C115.633 145.367 110.069 142.015 95.6811 135.91L96.4099 131.294C106.874 134.874 112.551 137.577 121.749 145.41C125.665 151.283 125.136 154.151 121.482 158.845C113.249 163.701 106.198 161.172 92.6445 154.569Z" fill="white"/>
    <path d="M85.3022 152.108L85.782 147.97C73.9664 153.736 69.8764 154.552 67.1214 151.438C65.1887 144.723 75.0242 141.238 87.5566 135.391L87.9811 131.609C81.3402 133.455 76.6935 135.055 68.4543 140.213C61.1304 146.342 59.0558 150.133 59.9776 157.705C62.0375 163.395 64.7668 163.893 71.5466 161.447C78.5687 157.516 81.3546 155.278 85.2669 152.136L85.3022 152.108Z" fill="white"/>
    <path d="M85.5278 147.85C85.5278 147.85 70.518 157.678 66.875 151.135C63.3107 144.733 88.1887 135.555 87.1351 135.304M85.1649 151.946C85.1649 151.946 62.1006 173.398 59.9662 156.121C57.8318 138.844 88.104 131.415 88.104 131.415" stroke="#0B0B0B" stroke-linecap="round"/>
    <path d="M92.7812 154.091C93.3824 155.776 118.496 168.93 123.895 154.935C129.044 141.585 95.9656 131.217 95.9656 131.217M92.7812 149.272C92.7812 149.272 109.286 159.488 114.65 152.708C120.799 144.936 95.6268 135.912 95.6268 135.912" stroke="#0B0B0B" stroke-linecap="round"/>
    <path d="M66.6901 145.213C73.0077 144.36 77.4768 142.963 86.6391 139.09L87.3939 135.075C75.7046 139.406 69.3773 141.2 67.3755 136.662C66.9398 131.561 75.3209 128.489 89.4475 123.073L89.773 119.054C75.8751 123.69 66.2749 127.244 59.2683 135.529C56.8639 142.244 57.7588 144.769 66.6901 145.213Z" fill="white"/>
    <path d="M87.039 138.825C87.039 138.825 60.3793 151.937 58.2999 140.8C55.9156 128.029 93.6658 118.063 89.4061 119.324M87.3283 134.826C87.3283 134.826 69.7658 143.708 67.3788 136.686C65.0965 129.971 92.192 123.238 89.2402 123.005" stroke="#0B0B0B" stroke-linecap="round"/>
    <path d="M89.5655 122.701L89.2063 125.166C85.2205 127.204 81.757 127.52 77.0488 129.185C68.4742 131.342 65.6127 129.793 63.7227 125.423C64.3488 120.763 66.4788 118.377 75.0204 114.714C82.0822 111.72 85.5395 110.785 90.843 110.613L90.3938 114.904C77.9297 115.733 73.309 116.928 72.5741 121.379C73.5843 124.735 78.6858 126.186 89.5655 122.701Z" fill="white"/>
    <path d="M89.4061 125.099C89.4061 125.099 66.6192 135.232 64.0577 125.997C61.0445 115.134 95.4009 108.714 90.8016 110.614M89.4061 123.005C89.4061 123.005 72.8665 127.247 72.6506 121.402C72.4082 114.842 92.1306 114.505 90.1309 114.944" stroke="#0B0B0B" stroke-linecap="round"/>
    <path d="M125.871 137.169C121.644 128.414 112.701 125.827 98.0512 119.684L97.398 124.049C108.948 129.232 119.002 133.232 117.38 138.257C115.194 142.721 106.823 140.368 95.4046 136.631L94.6016 140.814C105.154 145.723 110.736 147.539 119.474 147.627C126.186 145.007 126.89 142.476 125.871 137.169Z" fill="white"/>
    <path d="M94.8213 140.75C94.8213 140.75 120.66 154.721 125.687 143.018C131.394 129.729 96.363 118.985 97.767 119.751M95.2898 136.488C95.2898 136.488 115.585 145.321 117.427 137.506C118.951 131.038 96.139 124.368 97.1534 123.595" stroke="#0B0B0B" stroke-linecap="round"/>
    <path d="M119.945 125.886C120.157 118.168 112.374 115.594 99.5836 110.762L98.8198 113.917C107.331 117.367 112.174 119.296 110.822 123.804C109.334 126.122 106.435 126.319 97.4701 124.65L97.0469 127.106L109.374 130.098C117.075 130.12 118.95 128.995 119.945 125.886Z" fill="white"/>
    <path d="M96.9219 126.92C96.9219 126.92 118.009 134.705 119.913 125.922C121.915 116.682 97.9089 110.5 99.552 110.686M97.2846 124.652C97.2846 124.652 110.726 128.257 111.07 122.838C111.428 117.203 97.9659 113.93 98.9171 113.995" stroke="#0B0B0B" stroke-linecap="round"/>
    <path d="M91.1077 112.253C91.1469 112.292 91.151 112.337 91.1176 112.388L91.1077 112.253C89.897 111.03 55.2041 114.829 55.1749 113.802C54.92 104.829 93.7193 107.509 90.8341 108.53L91.1077 112.253Z" fill="white"/>
    <path d="M91.1176 112.388C92.1814 110.779 55.2051 114.862 55.1749 113.802C54.92 104.829 93.7193 107.509 90.8341 108.53L91.1176 112.388Z" stroke="#0B0B0B"/>
    <path d="M98.7733 114.338L98.7583 114.452C98.7378 114.411 98.7433 114.373 98.7733 114.338L99.5767 108.27C99.5767 108.27 116.594 109.69 121.197 111.031C123.728 111.769 132.243 112.638 133.151 117.146C133.761 120.176 125.636 117.201 121.196 116.372C110.585 114.391 99.3959 113.626 98.7733 114.338Z" fill="white"/>
    <path d="M98.7583 114.452L99.5767 108.27C99.5767 108.27 116.594 109.69 121.197 111.031C123.728 111.769 132.243 112.638 133.151 117.146C133.761 120.176 125.636 117.201 121.196 116.372C110.073 114.295 98.3141 113.555 98.7583 114.452Z" stroke="#0B0B0B"/>
    <path d="M100.018 97.9712L91.4305 99.3266C91.0742 116.569 89.1174 127.711 84.26 148.721C83.3273 163.885 84.5447 172.872 88.7751 189.474C91.7448 191.759 93.6856 191.142 97.3621 188.372C92.8199 168.895 91.892 159.862 93.1129 146.857C97.9936 122.736 99.856 111.225 100.018 97.9712Z" fill="white"/>
    <path d="M88.7012 189.421C91.3498 191.913 93.1178 191.633 97.2412 188.145" stroke="#0B0B0B" stroke-linecap="round"/>
    <path d="M91.4009 99.4108C92.641 99.4064 89.2461 126.614 85.198 144.302C81.2445 161.576 88.6744 189.463 88.6744 189.463" stroke="#0B0B0B" stroke-linecap="round"/>
    <path d="M99.9546 98.1514C101.195 98.147 97.7998 125.354 93.7517 143.042C89.7982 160.317 97.2281 188.203 97.2281 188.203" stroke="#0B0B0B" stroke-linecap="round"/>
    <path d="M38.8242 194.496C39.0771 194.845 40.7396 190.288 40.8965 186.348C41.3498 174.97 42.3338 157.178 42.3338 157.178" stroke="#0B0B0B" stroke-linecap="round"/>
    <path d="M86.2207 178.835L84.1562 180.594L86.8968 181.511C90.0265 180.326 91.9311 180.195 95.4785 180.52L97.8669 178.567L94.9601 177.808C91.5093 178.986 89.5923 179.52 86.2207 178.835Z" fill="#FF006A" stroke="black" stroke-width="0.5"/>
    <path d="M86.2207 178.835L84.1562 180.594L86.8968 181.511C90.0265 180.326 91.9311 180.195 95.4785 180.52L97.8669 178.567L94.9601 177.808C91.5093 178.986 89.5923 179.52 86.2207 178.835Z" fill="#EFEFEF" stroke="black" stroke-width="0.5"/>
    <path d="M84.7568 171.289L82.6924 173.048L85.4329 173.965C88.5627 172.78 90.4673 172.649 94.0146 172.974L96.4031 171.021L93.4962 170.262C90.0455 171.44 88.1284 171.974 84.7568 171.289Z" fill="#EFEFEF" stroke="black" stroke-width="0.5"/>
    <path d="M84.0083 163.724L81.8289 165.338L84.5008 166.439C87.7038 165.47 89.613 165.469 93.1299 166.035L95.6458 164.249L92.7973 163.293C89.2744 164.234 87.3255 164.636 84.0083 163.724Z" fill="#EFEFEF" stroke="black" stroke-width="0.5"/>
    <path d="M83.4943 155.718L81.2729 157.274L83.9146 158.446C87.1422 157.562 89.0507 157.611 92.5515 158.27L95.1138 156.551L92.2916 155.521C88.745 156.368 86.7861 156.718 83.4943 155.718Z" fill="#EFEFEF" stroke="black" stroke-width="0.5"/>
    <path d="M84.1637 146.418L81.8198 147.782L84.3541 149.17C87.6445 148.56 89.5422 148.769 92.9754 149.719L95.6726 148.221L92.9467 146.958C89.3415 147.505 87.3603 147.69 84.1637 146.418Z" fill="#EFEFEF" stroke="black" stroke-width="0.5"/>
    <path d="M85.8705 136.971L83.3726 138.027L85.7103 139.726C89.0515 139.538 90.9074 139.985 94.1924 141.363L97.0579 140.219L94.5141 138.62C90.8687 138.706 88.88 138.638 85.8705 136.971Z" fill="#EFEFEF" stroke="black" stroke-width="0.5"/>
    <path d="M88.0096 128.393L85.5437 129.522L87.9303 131.151C91.2645 130.865 93.1328 131.258 96.4568 132.539L99.2875 131.311L96.6979 129.788C93.0565 129.981 91.0667 129.971 88.0096 128.393Z" fill="#EFEFEF" stroke="black" stroke-width="0.5"/>
    <path d="M89.0906 119.372L86.6589 120.573L89.0923 122.132C92.4166 121.748 94.2956 122.086 97.6558 123.269L100.449 121.958L97.816 120.512C94.1819 120.811 92.1926 120.86 89.0906 119.372Z" fill="#EFEFEF" stroke="black" stroke-width="0.5"/>
    <path d="M90.0792 111.667L87.6838 112.939L90.1619 114.425C93.4736 113.944 95.3616 114.227 98.7551 115.31L101.509 113.918L98.8343 112.55C95.2106 112.956 93.2236 113.063 90.0792 111.667Z" fill="#EFEFEF" stroke="black" stroke-width="0.5"/>
    <path d="M91.3121 102.748L88.9293 104.043L91.4219 105.505C94.7286 104.991 96.6194 105.256 100.023 106.306L102.763 104.887L100.075 103.545C96.4559 103.986 94.47 104.113 91.3121 102.748Z" fill="#EFEFEF" stroke="black" stroke-width="0.5"/>
    <path d="M88.1146 187.068L86.2873 189.072L89.1213 189.637C92.0775 188.069 93.9505 187.7 97.5107 187.577L99.635 185.34L96.6558 184.952C93.3803 186.554 91.5455 187.324 88.1146 187.068Z" fill="#EFEFEF" stroke="black" stroke-width="0.5"/>
    <path d="M34.3955 191.096L34.6949 193.013" stroke="#0B0B0B" stroke-width="0.5" stroke-linecap="round"/>
    <path d="M34.9941 195.108L35.1139 195.647" stroke="#0B0B0B" stroke-width="0.5" stroke-linecap="round"/>
    <path d="M39.6311 146.036C39.6311 146.103 39.6311 146.17 39.472 146.472C39.313 146.774 38.9948 147.31 38.667 147.862" stroke="#0B0B0B" stroke-width="0.5" stroke-linecap="round"/>
    <path d="M53.0282 113.712C52.9947 113.762 52.9612 113.812 52.9272 114.056C52.8932 114.299 52.8597 114.735 52.8252 115.183" stroke="#0B0B0B" stroke-width="0.5" stroke-linecap="round"/>
    <path d="M131.644 120.836C131.716 121.018 131.789 121.201 131.918 121.641C132.047 122.081 132.229 122.774 132.417 123.487" stroke="#0B0B0B" stroke-width="0.5" stroke-linecap="round"/>
    <path d="M130.392 121.462C130.416 121.498 130.44 121.535 130.465 121.645C130.49 121.755 130.514 121.937 130.539 122.125" stroke="#0B0B0B" stroke-width="0.5" stroke-linecap="round"/>
    <path d="M145.899 149.148L147.709 151.051" stroke="#0B0B0B" stroke-width="0.5" stroke-linecap="round"/>
    <path d="M147.009 152.108C147.025 152.125 147.042 152.141 147.182 152.274C147.323 152.406 147.587 152.653 147.859 152.908" stroke="#0B0B0B" stroke-width="0.5" stroke-linecap="round"/>
    <path d="M150.32 163.463C150.32 163.533 150.32 163.603 150.306 163.709C150.292 163.815 150.264 163.955 150.235 164.099" stroke="#0B0B0B" stroke-width="0.5" stroke-linecap="round"/>
    <path d="M133.543 194.348C133.529 194.376 133.515 194.404 133.368 194.579C133.221 194.754 132.941 195.076 132.653 195.407" stroke="#0B0B0B" stroke-width="0.5" stroke-linecap="round"/>
    <path d="M65.4004 190.089C65.4004 190.099 65.4004 190.108 65.4449 190.405C65.4894 190.702 65.5784 191.286 65.6985 191.68C65.9669 192.263 66.288 192.546 66.6318 192.705C66.8074 192.776 66.9855 192.825 67.1689 192.876" stroke="#0B0B0B" stroke-width="0.5" stroke-linecap="round"/>
    <path d="M80.3672 203.387C80.8618 203.438 81.3564 203.488 81.7202 203.589C82.0839 203.691 82.3019 203.841 82.4812 203.986C82.6606 204.131 82.7947 204.265 82.9267 204.477C83.2227 204.951 83.3307 205.359 83.3645 205.524C83.3815 205.597 83.3983 205.647 83.4069 205.706C83.4155 205.766 83.4155 205.833 83.4409 205.928" stroke="#0B0B0B" stroke-width="0.5" stroke-linecap="round"/>
    <path d="M92.459 207.401C92.7943 206.864 93.1296 206.328 93.4407 205.989C93.7517 205.649 94.0284 205.524 94.2883 205.442C94.7728 205.29 95.1756 205.301 95.4587 205.326C95.5909 205.343 95.6999 205.368 95.777 205.389C95.8541 205.411 95.896 205.427 95.9646 205.47" stroke="#0B0B0B" stroke-width="0.5" stroke-linecap="round"/>
    <path d="M118.305 192.006C118.305 192.054 118.305 192.101 118.186 192.562C118.068 193.022 117.83 193.894 117.533 194.541C117.236 195.188 116.888 195.584 116.528 195.993" stroke="#0B0B0B" stroke-width="0.5" stroke-linecap="round"/>
    <path d="M76.9114 186.971C76.8817 186.971 76.8521 186.971 76.7428 187.134C76.6335 187.298 76.4456 187.624 76.252 187.96" stroke="#0B0B0B" stroke-width="0.5" stroke-linecap="round"/>
    <path d="M105.867 189.309L107.336 189.999" stroke="#0B0B0B" stroke-width="0.5" stroke-linecap="round"/>
    <path d="M108.715 178.518C110.139 178.785 111.564 179.052 112.411 179.299C113.259 179.545 113.486 179.763 113.721 179.987" stroke="#0B0B0B" stroke-width="0.5" stroke-linecap="round"/>
    <path d="M70.5566 178.308C71.6151 177.685 72.6735 177.062 73.4661 176.775C74.2586 176.489 74.7532 176.558 75.3227 176.66" stroke="#0B0B0B" stroke-width="0.5" stroke-linecap="round"/>
    <path d="M63.9326 158.791C63.9405 158.863 63.9722 158.981 64.0377 159.142C64.1057 159.309 64.2466 159.477 64.3818 159.649C64.4796 159.774 64.6406 159.89 64.8533 160.024C64.9531 160.087 65.0463 160.118 65.1581 160.152C65.2699 160.186 65.4 160.218 65.5341 160.239C65.6682 160.259 65.8023 160.268 66.0331 160.233C66.2639 160.197 66.5873 160.116 66.8071 160.042C67.027 159.969 67.1335 159.906 67.2432 159.841" stroke="#0B0B0B" stroke-width="0.5" stroke-linecap="round"/>
    <path d="M115.418 159.182C115.489 159.206 115.56 159.229 115.97 159.206C116.38 159.183 117.126 159.112 117.6 159.028C118.264 158.91 118.529 158.668 118.708 158.495C118.996 158.094 119.14 157.735 119.182 157.473C119.2 157.329 119.212 157.163 119.224 156.992" stroke="#0B0B0B" stroke-width="0.5" stroke-linecap="round"/>
    <path d="M120.638 132.864C120.648 132.874 120.767 132.949 121.048 133.139C121.217 133.254 121.427 133.429 121.577 133.563C121.819 133.78 121.934 133.954 122.009 134.07C122.1 134.246 122.17 134.407 122.191 134.49C122.196 134.508 122.201 134.522 122.221 134.538" stroke="#0B0B0B" stroke-width="0.5" stroke-linecap="round"/>
    <path d="M64.2372 132.068C64.213 132.068 64.1887 132.068 64.0001 132.255C63.8116 132.442 63.4595 132.816 63.2629 133.04C63.0664 133.264 63.036 133.326 62.9863 133.39" stroke="#0B0B0B" stroke-width="0.5" stroke-linecap="round"/>
    <path d="M65.0645 143.026C65.113 143.061 65.1616 143.096 65.4598 143.165C65.758 143.235 66.3043 143.339 66.7406 143.372C67.1768 143.405 67.4865 143.363 67.6854 143.328C67.8844 143.293 67.9633 143.265 68.0252 143.24C68.0871 143.216 68.1296 143.195 68.1734 143.173" stroke="#0B0B0B" stroke-width="0.5" stroke-linecap="round"/>
    <path d="M65.8587 123.601C65.7487 124.426 65.7171 125.355 65.7874 125.917C66.1714 126.616 66.661 127.193 66.7553 127.256C66.8027 127.283 66.8495 127.301 66.9921 127.373" stroke="#0B0B0B" stroke-width="0.5" stroke-linecap="round"/>
    <path d="M114.443 119.29C114.764 119.539 115.412 120.187 115.637 120.483C115.7 120.564 115.771 120.653 115.835 120.752C115.898 120.852 115.951 120.958 116.06 121.176" stroke="#0B0B0B" stroke-width="0.5" stroke-linecap="round"/>
    <path d="M109.809 128.128C110.508 128.236 110.831 128.271 111.323 128.334C112.493 128.484 112.753 128.289 113.256 128.2C113.418 128.182 113.633 128.128 113.902 128.039C114.011 128.002 114.065 127.984 114.12 127.966" stroke="#0B0B0B" stroke-width="0.5" stroke-linecap="round"/>
    <path d="M103.696 110.247C104.506 110.206 105.315 110.165 105.921 110.159C106.528 110.153 106.907 110.184 107.143 110.21C107.379 110.236 107.461 110.257 107.546 110.278" stroke="#0B0B0B" stroke-width="0.5" stroke-linecap="round"/>
    <path d="M64.7998 112.103C64.8246 112.103 64.8494 112.103 65.3206 112.041C65.7919 111.979 66.7088 111.855 67.7286 111.727" stroke="#0B0B0B" stroke-width="0.5" stroke-linecap="round"/>
    <path d="M121.43 114.78L124.378 115.262" stroke="#0B0B0B" stroke-width="0.5" stroke-linecap="round"/>
    <path d="M94.0962 182.068C94.0544 182.068 94.0125 182.068 93.7817 182.079C93.5509 182.089 93.1324 182.11 92.7012 182.132" stroke="#0B0B0B" stroke-width="0.5" stroke-linecap="round"/>
    <path d="M87.0576 141.041L88.5161 140.914" stroke="#0B0B0B" stroke-width="0.5" stroke-linecap="round"/>
    <path d="M90.292 123.73C90.3129 123.73 90.3338 123.73 90.5748 123.678C90.8158 123.625 91.2761 123.521 91.8139 123.349" stroke="#0B0B0B" stroke-width="0.5" stroke-linecap="round"/>
    <path d="M94.1602 119.037C94.1811 119.037 94.202 119.037 94.5476 119.006C94.8932 118.975 95.5628 118.912 96.2527 118.847" stroke="#0B0B0B" stroke-width="0.5" stroke-linecap="round"/>
    <path d="M92.8281 101.916L93.8427 102.106" stroke="#0B0B0B" stroke-width="0.5" stroke-linecap="round"/>
    <path d="M91.233 154.755L89.9209 155.1" stroke="#0B0B0B" stroke-width="0.5" stroke-linecap="round"/>
    <path d="M86.0049 167.189C86.0182 167.203 86.0315 167.216 86.0917 167.649C86.1519 168.083 86.2585 168.935 86.3683 169.814" stroke="#0B0B0B" stroke-width="0.5" stroke-linecap="round"/>
    <path d="M94.3092 133.817C94.1793 134.893 94.0494 135.969 93.9732 136.561C93.897 137.152 93.8785 137.226 93.8594 137.303" stroke="#0B0B0B" stroke-width="0.5" stroke-linecap="round"/>
    <path d="M98.2653 108.673L97.9932 111.123" stroke="#0B0B0B" stroke-width="0.5" stroke-linecap="round"/>
    <path d="M99.293 11.9652C89.1039 13.4139 81.2467 13.5055 74.293 17.4652C68.6431 20.6523 68.2527 21.8465 64.293 26.9652C59.1743 33.6775 57.9496 35.0195 56.5975 37.9652C55.9697 39.4139 54.8793 42.2268 54.0584 43.9652C52.3682 47.4421 52.4067 45.9813 52.793 61.9652C52.9861 70.271 53.5656 72.1926 52.793 72.9652C50.5716 75.1865 51.9767 78.8295 52.6527 83.4653C53.0391 85.9763 56.7074 85.3837 58.1561 85.3837C58.6873 85.3837 60.3774 86.4824 61.2467 86.9653C62.1159 87.4482 63.3443 86.6273 64.793 86.9653C70.1048 88.0759 70.793 90.3704 70.793 93.3644C70.793 94.5233 68.546 98.3438 70.1879 99.2613C71.7331 100.082 82.3614 100.738 84.293 99.9653C85.2105 99.579 87.0686 99.2722 87.793 99.4653C89.7728 100.045 92.4167 100.72 93.0445 100.092C93.4791 99.6578 94.9045 99.5306 94.9045 99.9652C94.9045 100.69 99.7818 101.236 101.568 100.56C102.245 100.27 102.918 97.0827 103.546 96.0203C104.407 94.8132 106.131 95.3228 107.293 94.9652C108.066 94.9652 110.702 94.0105 113.793 92.4652C116.932 90.92 118.989 89.3076 120.293 88.9696C125.219 87.7624 128.623 85.4532 132.293 79.4652C133.549 77.3405 135.958 74.2349 137.793 71.9652C144.264 63.9009 143.503 62.5044 143.793 57.9652C144.131 52.9914 144.21 39.5386 143.293 35.9652C142.713 33.4059 140.597 29.5588 139.293 27.9652C138.955 27.5789 138.655 25.8555 137.979 24.5999C136.723 22.4269 129.884 19.7036 126.793 17.9652C126.02 17.5306 121.542 15.1071 117.293 13.4652C109.953 10.6644 111.082 9.14725 106.494 9.00238C103.838 8.9058 101.031 11.7238 99.293 11.9652ZM116.793 11.4653C119.594 12.5277 123.006 14.8859 124.793 15.4653C128.923 16.4066 135.434 21.1248 137.293 24.4653C138.017 25.6243 138.81 27.1926 139.293 27.9652C140.887 30.2831 142.793 34.741 142.793 35.4653C142.793 36.1897 138.22 37.2518 135.709 37.2518C134.067 37.2518 133.313 37.1729 133.168 34.9999C133.071 33.2615 132.57 31.4571 131.556 31.4571C130.784 31.4571 130.639 32.7126 131.363 33.1472C131.943 33.4852 131.991 35.6583 131.46 35.9963C130.735 36.4309 128.418 36.3444 128.418 35.6683C128.418 35.282 128.878 33.9999 129.168 33.9999C129.941 33.9999 129.576 32.3357 128.418 31.1767C127.693 30.4041 126.855 30.0482 123.668 29.9999C118.839 29.9999 118.518 30.6361 123.202 31.0707C125.375 31.2639 126.921 31.6502 127.403 32.1331C128.128 32.8575 128.128 33.0506 127.307 34.5476C126.051 36.9621 126.211 36.5824 131.668 37.4999C133.068 37.7896 133.782 38.182 134.168 40.4999C134.651 43.5904 134.975 42.9455 135.168 39.9999L135.275 38.7971C135.275 38.7971 136.268 38.1447 137.668 37.9999C139.068 37.855 142.762 36.8943 143.293 36.7011C144.21 36.4114 143.876 37.8903 144.455 41.3189C144.745 43.3954 144.793 49.1847 144.793 53.9653V60.4653L143.436 63.162L141.293 66.4653C139.941 68.3969 138.631 70.6756 138.293 70.9653C137.424 71.6897 133.293 77.9824 133.293 78.4653C133.245 79.2863 129.81 84.7755 127.293 85.9653C124.347 88.573 121.133 89.308 113.793 89.308C108.529 89.308 107.267 89.8875 106.397 90.6118C105.045 91.6742 103.886 93.7581 103.886 94.9653C103.886 95.4965 103.372 96.3526 102.793 97.4632L102.293 98.9653L101.807 99.5131C101.476 99.8858 101.018 100.122 100.523 100.174L97.793 100.465L96.3586 100.009C95.4999 99.735 94.9302 98.9211 94.9672 98.0207L95.0494 96.0203C95.1943 93.2195 95.0977 92.3503 94.4699 91.8674C93.5524 91.0947 93.5524 91.1913 93.6973 94.7165C93.7939 98.5796 92.8835 100.4 89.793 99.9653L88.6515 99.4984C87.9299 99.2032 87.4456 98.5156 87.4107 97.7367L87.3231 95.7788C87.2265 93.2678 87.0333 92.5434 86.4538 92.5434C85.9227 92.5434 85.6812 93.2678 85.5846 95.4408C85.4398 98.9177 84.8137 100.092 81.4817 100.092C78.6809 100.092 77.7617 98.7728 77.7617 96.4549C77.7617 94.6199 76.9408 93.7024 76.2647 94.7648C76.0233 95.1511 75.8301 96.3583 75.8301 97.469L75.793 99.9653H73.793C70.9439 99.9653 67.793 98.414 67.793 96.9653C67.793 94.3094 63.7386 90.9653 60.793 90.9653C59.296 90.9653 55.8664 89.752 52.293 87.9653L51.293 84.9653L49.793 79.4653C49.9378 74.9744 50.296 75.5901 51.793 73.4653L52.587 71.8772C52.7226 71.6062 52.7947 71.3079 52.7981 71.0049L52.8926 62.4653C52.7477 57.2501 53.0374 51.8353 52.8926 50.5315C52.8926 48.4421 52.5374 47.3861 53.793 44.4653C55.3865 41.3748 55.8865 41.8393 58.1561 41.5979C60.8121 41.3081 61.1501 40.4389 58.6873 40.2458C56.6591 40.0526 55.6511 39.2661 57.293 36.4653C58.3553 34.582 59.2226 32.581 64.293 25.9653C68.5425 20.412 71.512 18.7443 74.168 19.9999C76.003 20.8691 77.4718 22.1961 76.168 23.4999C75.2022 24.4657 74.0434 25.6623 74.816 25.6623C75.0092 25.6623 75.7818 25.2277 76.4096 24.6965C77.4237 23.9239 77.6227 23.0653 79.168 23.4999C80.3752 23.8379 81.4317 24.5999 81.7215 24.3102C82.3975 23.6341 81.7697 22.7649 80.6591 22.7649C79.1621 22.7649 78.168 22.8691 78.168 21.9999C78.168 21.517 77.1338 20.4828 76.168 19.9999C75.1056 19.517 74.478 18.2068 74.7195 17.9653C76.0054 15.9548 86.3499 11.9542 91.293 11.4653C93.0797 11.1273 96.2306 10.6585 97.293 10.4653C98.3553 10.2722 101.919 9.29212 104.961 9.24384C110.369 9.19555 111.867 9.53375 116.793 11.4653ZM115.621 89.7909C115.766 89.9841 115.041 90.5636 114.076 91.0464C113.11 91.5293 111.275 92.4468 110.067 93.0746C108.039 94.137 105.287 94.6199 105.287 93.9921C105.287 93.4609 106.977 91.0947 107.701 90.6118C108.088 90.3221 109.729 89.9841 111.323 89.8392C112.917 89.6943 114.462 89.5495 114.8 89.5012C115.09 89.4529 115.476 89.5978 115.621 89.7909Z" fill="#0B0B0B"/>
    <path d="M116.793 11.4653C119.594 12.5277 123.006 14.8859 124.793 15.4653C128.923 16.4066 135.434 21.1248 137.293 24.4653C138.017 25.6243 138.81 27.1926 139.293 27.9652C140.887 30.2831 142.793 34.741 142.793 35.4653C142.793 36.1897 138.22 37.2518 135.709 37.2518C134.067 37.2518 133.313 37.1729 133.168 34.9999C133.071 33.2615 132.57 31.4571 131.556 31.4571C130.784 31.4571 130.639 32.7126 131.363 33.1472C131.943 33.4852 131.991 35.6583 131.46 35.9963C130.735 36.4309 128.418 36.3444 128.418 35.6683C128.418 35.282 128.878 33.9999 129.168 33.9999C129.941 33.9999 129.576 32.3357 128.418 31.1767C127.693 30.4041 126.855 30.0482 123.668 29.9999C118.839 29.9999 118.518 30.6361 123.202 31.0707C125.375 31.2639 126.921 31.6502 127.403 32.1331C128.128 32.8575 128.128 33.0506 127.307 34.5476C126.051 36.9621 126.211 36.5824 131.668 37.4999C133.068 37.7896 133.782 38.182 134.168 40.4999C134.651 43.5904 134.975 42.9455 135.168 39.9999L135.275 38.7971C135.275 38.7971 136.268 38.1447 137.668 37.9999C139.068 37.855 142.762 36.8943 143.293 36.7011C144.21 36.4114 143.876 37.8903 144.455 41.3189C144.745 43.3954 144.793 49.1847 144.793 53.9653V60.4653L143.436 63.162L141.293 66.4653C139.941 68.3969 138.631 70.6756 138.293 70.9653C137.424 71.6897 133.293 77.9824 133.293 78.4653C133.245 79.2863 129.81 84.7755 127.293 85.9653C124.347 88.573 121.133 89.308 113.793 89.308C108.529 89.308 107.267 89.8875 106.397 90.6118C105.045 91.6742 103.886 93.7581 103.886 94.9653C103.886 95.4965 103.372 96.3526 102.793 97.4632L102.293 98.9653L101.807 99.5131C101.476 99.8858 101.018 100.122 100.523 100.174L97.793 100.465L96.3586 100.009C95.4999 99.735 94.9302 98.9211 94.9672 98.0207L95.0494 96.0203C95.1943 93.2195 95.0977 92.3503 94.4699 91.8674C93.5524 91.0947 93.5524 91.1913 93.6973 94.7165C93.7939 98.5796 92.8835 100.4 89.793 99.9653L88.6515 99.4984C87.9299 99.2032 87.4456 98.5156 87.4107 97.7367L87.3231 95.7788C87.2265 93.2678 87.0333 92.5434 86.4538 92.5434C85.9227 92.5434 85.6812 93.2678 85.5846 95.4408C85.4398 98.9177 84.8137 100.092 81.4817 100.092C78.6809 100.092 77.7617 98.7728 77.7617 96.4549C77.7617 94.6199 76.9408 93.7024 76.2647 94.7648C76.0233 95.1511 75.8301 96.3583 75.8301 97.469L75.793 99.9653H73.793C70.9439 99.9653 67.793 98.414 67.793 96.9653C67.793 94.3094 63.7386 90.9653 60.793 90.9653C59.296 90.9653 55.8664 89.752 52.293 87.9653L51.293 84.9653L49.793 79.4653C49.9378 74.9744 50.296 75.5901 51.793 73.4653L52.587 71.8772C52.7226 71.6062 52.7947 71.3079 52.7981 71.0049L52.8926 62.4653C52.7477 57.2501 53.0374 51.8353 52.8926 50.5315C52.8926 48.4421 52.5374 47.3861 53.793 44.4653C55.3865 41.3748 55.8865 41.8393 58.1561 41.5979C60.8121 41.3081 61.1501 40.4389 58.6873 40.2458C56.6591 40.0526 55.6511 39.2661 57.293 36.4653C58.3553 34.582 59.2226 32.581 64.293 25.9653C68.5425 20.412 71.512 18.7443 74.168 19.9999C76.003 20.8691 77.4718 22.1961 76.168 23.4999C75.2022 24.4657 74.0434 25.6623 74.816 25.6623C75.0092 25.6623 75.7818 25.2277 76.4096 24.6965C77.4237 23.9239 77.6227 23.0653 79.168 23.4999C80.3752 23.8379 81.4317 24.5999 81.7215 24.3102C82.3975 23.6341 81.7697 22.7649 80.6591 22.7649C79.1621 22.7649 78.168 22.8691 78.168 21.9999C78.168 21.517 77.1338 20.4828 76.168 19.9999C75.1056 19.517 74.478 18.2068 74.7195 17.9653C76.0054 15.9548 86.3499 11.9542 91.293 11.4653C93.0797 11.1273 96.2306 10.6585 97.293 10.4653C98.3553 10.2722 101.919 9.29212 104.961 9.24384C110.369 9.19555 111.867 9.53375 116.793 11.4653Z" fill="white"/>
    <path d="M115.621 89.7909C115.766 89.9841 115.041 90.5636 114.076 91.0464C113.11 91.5293 111.275 92.4468 110.067 93.0746C108.039 94.137 105.287 94.6199 105.287 93.9921C105.287 93.4609 106.977 91.0947 107.701 90.6118C108.088 90.3221 109.729 89.9841 111.323 89.8392C112.917 89.6943 114.462 89.5495 114.8 89.5012C115.09 89.4529 115.476 89.5978 115.621 89.7909Z" fill="#D8D8D8"/>
    <path d="M116.793 11.4653C119.594 12.5277 123.006 14.8859 124.793 15.4653C128.923 16.4066 135.434 21.1248 137.293 24.4653C138.017 25.6243 138.81 27.1926 139.293 27.9652C140.887 30.2831 142.793 34.741 142.793 35.4653C142.793 36.1897 138.22 37.2518 135.709 37.2518C134.067 37.2518 133.313 37.1729 133.168 34.9999C133.071 33.2615 132.57 31.4571 131.556 31.4571C130.784 31.4571 130.639 32.7126 131.363 33.1472C131.943 33.4852 131.991 35.6583 131.46 35.9963C130.735 36.4309 128.418 36.3444 128.418 35.6683C128.418 35.282 128.878 33.9999 129.168 33.9999C129.941 33.9999 129.576 32.3357 128.418 31.1767C127.693 30.4041 126.855 30.0482 123.668 29.9999C118.839 29.9999 118.518 30.6361 123.202 31.0707C125.375 31.2639 126.921 31.6502 127.403 32.1331C128.128 32.8575 128.128 33.0506 127.307 34.5476C126.051 36.9621 126.211 36.5824 131.668 37.4999C133.068 37.7896 133.782 38.182 134.168 40.4999C134.651 43.5904 134.975 42.9455 135.168 39.9999L135.275 38.7971C135.275 38.7971 136.268 38.1447 137.668 37.9999C139.068 37.855 142.762 36.8943 143.293 36.7011C144.21 36.4114 143.876 37.8903 144.455 41.3189C144.745 43.3954 144.793 49.1847 144.793 53.9653L144.616 54.5203C143.834 56.9747 143.587 59.5643 143.065 62.0869C142.74 63.6556 142.179 65.1623 141.293 66.4653C139.941 68.3969 138.631 70.6756 138.293 70.9653C137.424 71.6897 133.293 77.9824 133.293 78.4653C133.245 79.2863 129.81 84.7755 127.293 85.9653C124.347 88.573 121.133 89.308 113.793 89.308C108.529 89.308 107.267 89.8875 106.397 90.6118C105.045 91.6742 103.886 93.7581 103.886 94.9653C103.886 95.4965 103.372 96.3526 102.793 97.4632L101.966 98.2742C101.821 98.4164 101.705 98.5844 101.583 98.7467C101.289 99.1381 100.862 99.4075 100.384 99.505C100.124 99.5582 99.8577 99.5984 99.6125 99.7013L97.793 100.465H96.293C95.1562 100.465 94.9435 98.5991 94.9902 97.4632L95.0494 96.0203C95.1943 93.2195 95.0977 92.3503 94.4699 91.8674C93.5524 91.0947 93.5524 91.1913 93.6973 94.7165C93.7939 98.5796 92.8835 100.4 89.793 99.9653H88.9443C88.8435 99.9653 88.7416 99.9615 88.6457 99.9309C87.8061 99.6629 87.435 98.276 87.3946 97.3735L87.3231 95.7788C87.2265 93.2678 87.0333 92.5434 86.4538 92.5434C85.9227 92.5434 85.6812 93.2678 85.5846 95.4408C85.4398 98.9177 84.8137 100.092 81.4817 100.092C78.6809 100.092 77.7617 98.7728 77.7617 96.4549C77.7617 94.6199 76.9408 93.7024 76.2647 94.7648C76.0233 95.1511 75.8301 96.3583 75.8301 97.469L75.793 99.9653H73.793C70.9439 99.9653 67.793 98.414 67.793 96.9653C67.793 94.3094 63.7386 90.9653 60.793 90.9653C59.296 90.9653 55.8664 89.752 52.293 87.9653C51.4924 87.2822 50.7495 86.3581 50.2016 85.3449C49.2406 83.5678 49.4608 81.4581 49.793 79.4653C49.9378 74.9744 50.296 75.5901 51.793 73.4653L52.3478 72.3557C52.3951 72.261 52.4524 72.1713 52.4928 72.0735C52.7 71.5729 52.805 70.3597 52.793 69.9653L52.8926 62.4653C52.7477 57.2501 53.0374 51.8353 52.8926 50.5315C52.8926 48.4421 52.5374 47.3861 53.793 44.4653C55.3865 41.3748 55.8865 41.8393 58.1561 41.5979C60.8121 41.3081 61.1501 40.4389 58.6873 40.2458C56.6591 40.0526 55.6511 39.2661 57.293 36.4653C58.3553 34.582 59.2226 32.581 64.293 25.9653C68.5425 20.412 71.512 18.7443 74.168 19.9999C76.003 20.8691 77.4718 22.1961 76.168 23.4999C75.2022 24.4657 74.0434 25.6623 74.816 25.6623C75.0092 25.6623 75.7818 25.2277 76.4096 24.6965C77.4237 23.9239 77.6227 23.0653 79.168 23.4999C80.3752 23.8379 81.4317 24.5999 81.7215 24.3102C82.3975 23.6341 81.7697 22.7649 80.6591 22.7649C79.1621 22.7649 78.168 22.8691 78.168 21.9999C78.168 21.517 77.1338 20.4828 76.168 19.9999C75.1056 19.517 74.478 18.2068 74.7195 17.9653C76.0054 15.9548 86.3499 11.9542 91.293 11.4653C93.0797 11.1273 96.2306 10.6585 97.293 10.4653C98.3553 10.2722 101.919 9.29212 104.961 9.24384C110.369 9.19555 111.867 9.53375 116.793 11.4653Z" fill="white"/>
    <path d="M112.259 40.4504C111.895 41.2336 112.441 41.1813 115.668 41.5468C117.804 41.8078 118.804 42.0167 119.077 41.5468C119.259 41.1813 119.168 40.7115 118.804 40.4504C117.941 39.8239 112.623 39.8761 112.259 40.4504Z" fill="#0B0B0B"/>
    <path d="M79.1152 82.4991C78.4874 83.2717 77.425 84.5755 76.8456 85.4447C75.8798 86.8451 75.8315 87.0383 76.5558 87.2798C76.9904 87.4729 77.5699 87.3763 77.9079 87.0383C78.1977 86.7486 79.2601 86.5071 80.2741 86.5071C81.8194 86.5071 82.2057 86.7486 82.8335 87.9558C83.5578 89.3562 84.6685 89.8391 85.1997 89.0182C85.4894 88.5353 82.254 82.0645 81.4814 81.5816C80.6122 81.0021 80.4673 81.0987 79.1152 82.4991Z" fill="#0B0B0B"/>
    <path d="M79.1152 82.4991C78.4874 83.2717 77.425 84.5755 76.8456 85.4447C75.8798 86.8451 75.8315 87.0383 76.5558 87.2798C76.9904 87.4729 77.5699 87.3763 77.9079 87.0383C78.1977 86.7486 79.2601 86.5071 80.2741 86.5071C81.8194 86.5071 82.2057 86.7486 82.8335 87.9558C83.5578 89.3562 84.6685 89.8391 85.1997 89.0182C85.4894 88.5353 82.254 82.0645 81.4814 81.5816C80.6122 81.0021 80.4673 81.0987 79.1152 82.4991Z" fill="#0B0B0B"/>
    <path d="M75.293 52.4652C69.3815 51.3735 63.6489 52.5161 62.2911 53.4643C59.4403 55.4552 60.8032 60.0934 59.7911 66.4643C59.0051 71.4121 56.8742 75.074 59.7911 77.9643C62.7696 80.9155 70.1536 81.5453 72.793 77.4652C76.7052 71.4175 76.293 67.9652 76.793 63.9652C77.293 59.9652 77.7649 52.9217 75.293 52.4652Z" fill="#0B0B0B"/>
    <path d="M108.289 51.4654C100.393 51.1412 95.332 49.7752 93.2887 51.4654C90.2421 53.9854 89.8347 57.0119 89.7887 60.9654C89.6712 71.0498 88.816 73.2182 90.7887 76.4654C92.6546 79.5367 93.5998 81.0181 96.7887 80.9654C100.214 80.9087 102.923 81.7424 106.289 78.9654C109.004 76.7254 110.585 74.3025 110.789 70.9654C111.104 65.7906 112.481 60.9569 111.289 54.9654C110.937 53.1997 110.087 51.5392 108.289 51.4654Z" fill="#0B0B0B"/>
    <path d="M119.293 88.9652C116.981 91.5612 111.306 94.0298 103.793 95.4654L105.793 91.4654C107.233 89.8897 108.125 89.5687 109.793 89.4654C113.88 89.4587 116.587 89.2603 119.293 88.9652Z" fill="#BCBCBC"/>
    <path d="M102.214 99.692C102.214 99.692 103.339 96.0407 104.296 93.965C105.589 91.1593 106.741 89.5733 109.796 89.465C113.509 89.3334 115.586 89.1581 119.296 88.965C126.361 88.5972 129.439 85.1506 132.796 78.965C137.248 70.7608 144.653 64.5705 144.796 59.465C145.297 41.5765 144.167 39.024 143.296 36.465C138.508 22.4084 130.937 17.8073 128.796 16.965C122.638 14.5427 118.994 12.0989 111.296 9.96499C105.719 8.4193 100.413 9.75539 96.2957 10.4652C83.0595 12.7472 77.0504 14.6232 67.2957 22.965C58.3862 30.584 52.3811 47.7476 52.7958 47.465V71.4652C48.0842 78.4754 47.8349 85.9555 52.7958 88.4652C57.7566 90.9749 61.4825 91.5478 61.2961 91.4652C61.1096 91.3826 67.0589 92.547 67.796 96.9652C68.0049 98.2169 68.5009 99.2945 71.296 99.9652C73.0549 100.387 76.1799 100.455 76.296 100.465C79.5039 100.581 81.186 100.521 83.793 99.9652C85.1678 99.4954 85.9348 99.3565 87.293 99.4652C89.0431 100.041 90.1972 100.199 92.793 99.9652C93.9282 99.3887 94.4639 99.3578 95.293 99.9652C95.2529 100.366 102.268 100.815 102.293 99.4652" stroke="#0B0B0B"/>
    <path d="M103.794 95.4652C102.676 95.8397 107.328 95.0376 112.794 92.9652C115.898 91.7886 120.294 88.9652 120.294 88.9652" stroke="#0B0B0B"/>
    <path d="M123.21 85.7562C123.248 85.7562 123.765 85.7092 124.6 85.6003C125.111 85.5337 125.412 85.2823 125.772 85.0034C125.987 84.836 126.244 84.5834 126.431 84.3963C126.619 84.2093 126.722 84.087 126.977 83.6762C127.233 83.2653 127.637 82.5695 128.082 81.8241" stroke="#0B0B0B" stroke-width="0.5" stroke-linecap="round"/>
    <path d="M52.8649 74.9606L51.5557 78.1345" stroke="#0B0B0B" stroke-width="0.5" stroke-linecap="round"/>
    <path d="M55.4434 87.8151C56.0325 88.0769 56.6217 88.3388 57.1805 88.4998C57.7393 88.6609 58.2499 88.7133 58.776 88.7672" stroke="#0B0B0B" stroke-width="0.5" stroke-linecap="round"/>
    <path d="M62.4082 51.6644L67.7477 50.6473" stroke="#0B0B0B" stroke-width="0.5" stroke-linecap="round"/>
    <path d="M112.18 53.2535C112.222 53.2745 112.264 53.2955 112.484 53.988C112.705 54.6806 113.104 56.044 113.309 56.8723C113.515 57.7006 113.515 57.9523 113.515 58.2116" stroke="#0B0B0B" stroke-width="0.5" stroke-linecap="round"/>
    <path d="M65.1699 28.4598C65.1955 28.4088 65.221 28.3577 65.7959 27.6484C66.3708 26.939 67.4943 25.5729 68.1369 24.8117C68.7795 24.0506 68.9072 23.9356 69.0387 23.8173" stroke="#0B0B0B" stroke-width="0.5" stroke-linecap="round"/>
    <path d="M125.484 17.9366C125.548 17.9749 125.612 18.0132 126.602 18.5373C127.593 19.0613 129.508 20.0699 131.481 21.1091" stroke="#0B0B0B" stroke-width="0.5" stroke-linecap="round"/>
    <path d="M142.66 57.1937C142.66 58.1534 142.569 60.46 141.306 63.1288C140.547 64.3734 140.034 65.1201 139.781 65.4651C139.665 65.6276 139.574 65.7645 139.479 66.0438" stroke="#0B0B0B" stroke-width="0.5" stroke-linecap="round"/>
</svg>
