<svg width="467" height="462" viewBox="0 0 467 462" fill="none" xmlns="http://www.w3.org/2000/svg">
<path d="M133.64 85.1616L102.957 45.6832L142.435 15L173.118 54.4784L133.64 85.1616ZM140.969 26.6931L114.65 47.149L135.106 73.4684L161.425 53.0126L140.969 26.6931Z" fill="white"/>
<path d="M223 47.4297L238.825 7.42078e-05L286.255 15.8252L270.43 63.2548L223 47.4297ZM275.713 21.0924L244.092 10.5421L233.542 42.1625L265.162 52.7127L275.713 21.0924Z" fill="white"/>
<path d="M33.0183 145.623L63.5387 106.018L103.143 136.539L72.6227 176.143L33.0183 145.623ZM91.4561 138.053L65.0526 117.705L44.7053 144.109L71.1088 164.456L91.4561 138.053Z" fill="white"/>
<path d="M17.2721 74.3599L7.76497 25.272L56.8528 15.7649L66.3599 64.8527L17.2721 74.3599ZM50.2563 25.5303L17.5304 31.8686L23.8686 64.5944L56.5945 58.2562L50.2563 25.5303Z" fill="white"/>
<path d="M152.653 192.932L144.193 143.653L193.472 135.193L201.932 184.472L152.653 192.932ZM186.669 144.816L153.816 150.456L159.456 183.309L192.309 177.669L186.669 144.816Z" fill="white"/>
<path d="M365.46 84.739L357 35.4599L406.279 27L414.739 76.2791L365.46 84.739ZM399.476 36.6228L366.623 42.2629L372.263 75.1162L405.116 69.4762L399.476 36.6228Z" fill="white"/>
<path d="M83.5047 412.186L98.5528 364.505L146.235 379.553L131.186 427.235L83.5047 412.186ZM135.78 384.991L103.992 374.959L93.9593 406.748L125.748 416.78L135.78 384.991Z" fill="white"/>
<path d="M89 269.937L138.195 261L147.132 310.195L97.9373 319.132L89 269.937ZM137.444 303.486L131.485 270.688L98.6883 276.647L104.647 309.444L137.444 303.486Z" fill="white"/>
<path d="M5.08102 237L54.8222 242.081L49.7412 291.822L4.41074e-05 286.741L5.08102 237ZM42.2981 282.686L45.6855 249.524L12.5241 246.137L9.13671 279.298L42.2981 282.686Z" fill="white"/>
<path d="M3.58224e-05 396.989L48.5415 385L60.53 433.542L11.9885 445.53L3.58224e-05 396.989ZM50.4421 427.45L42.4496 395.088L10.088 403.08L18.0805 435.442L50.4421 427.45Z" fill="white"/>
<path d="M264 215.909L300.745 182L334.654 218.745L297.909 252.654L264 215.909ZM322.879 218.272L300.272 193.775L275.775 216.381L298.382 240.879L322.879 218.272Z" fill="white"/>
<path d="M252.092 91L301.832 96.0914L296.74 145.832L247 140.74L252.092 91ZM289.299 136.693L292.693 103.533L259.533 100.138L256.138 133.299L289.299 136.693Z" fill="white"/>
<path d="M374.013 183.262L416.57 157.014L442.818 199.57L400.262 225.818L374.013 183.262ZM431.351 196.852L413.852 168.481L385.48 185.98L402.98 214.351L431.351 196.852Z" fill="white"/>
<path d="M198.836 334.731L202.074 284.836L251.969 288.074L248.731 337.969L198.836 334.731ZM243.114 295.85L209.85 293.691L207.691 326.955L240.955 329.114L243.114 295.85Z" fill="white"/>
<path d="M335.261 340.283L304 301.261L343.022 270L374.283 309.022L335.261 340.283ZM341.729 281.713L315.713 302.555L336.555 328.57L362.57 307.729L341.729 281.713Z" fill="white"/>
<path d="M417.032 367.21L408 318.032L457.177 309L466.21 358.177L417.032 367.21ZM450.487 318.701L417.701 324.723L423.723 357.508L456.508 351.487L450.487 318.701Z" fill="white"/>
<path d="M382 442.291L400.899 396L447.19 414.899L428.291 461.19L382 442.291ZM436.325 419.464L405.464 406.865L392.865 437.726L423.726 450.325L436.325 419.464Z" fill="white"/>
<path d="M254.094 446.371L237.819 399.094L285.096 382.819L301.371 430.096L254.094 446.371ZM279.929 393.41L248.41 404.261L259.261 435.779L290.779 424.929L279.929 393.41Z" fill="white"/>
</svg>
