<svg width="500" height="500" viewBox="0 0 500 500" fill="none" xmlns="http://www.w3.org/2000/svg">
<rect width="500" height="500" fill="#F1EAF7"/>
<path d="M149.64 100.162L118.957 60.6832L158.436 30L189.119 69.4784L149.64 100.162ZM156.97 41.6931L130.65 62.149L151.106 88.4684L177.426 68.0126L156.97 41.6931Z" fill="black" fill-opacity="0.1"/>
<path d="M238.999 62.4295L254.824 15L302.254 30.8251L286.429 78.2547L238.999 62.4295ZM291.712 36.0923L260.092 25.542L249.541 57.1623L281.162 67.7126L291.712 36.0923Z" fill="black" fill-opacity="0.1"/>
<path d="M49.0178 160.623L79.5382 121.018L119.143 151.539L88.6222 191.143L49.0178 160.623ZM107.456 153.053L81.0521 132.705L60.7048 159.109L87.1083 179.456L107.456 153.053Z" fill="black" fill-opacity="0.1"/>
<path d="M33.2729 89.3599L23.7657 40.272L72.8535 30.7649L82.3607 79.8527L33.2729 89.3599ZM66.257 40.5303L33.5311 46.8686L39.8694 79.5944L72.5952 73.2562L66.257 40.5303Z" fill="black" fill-opacity="0.1"/>
<path d="M168.653 207.932L160.194 158.653L209.473 150.193L217.933 199.472L168.653 207.932ZM202.67 159.816L169.816 165.456L175.456 198.309L208.31 192.669L202.67 159.816Z" fill="black" fill-opacity="0.1"/>
<path d="M381.46 99.739L373 50.4599L422.279 42L430.739 91.2791L381.46 99.739ZM415.476 51.6228L382.623 57.2629L388.263 90.1162L421.116 84.4762L415.476 51.6228Z" fill="black" fill-opacity="0.1"/>
<path d="M99.5044 427.186L114.553 379.505L162.234 394.553L147.186 442.235L99.5044 427.186ZM151.78 399.991L119.991 389.959L109.959 421.748L141.747 431.78L151.78 399.991Z" fill="black" fill-opacity="0.1"/>
<path d="M105.001 284.937L154.195 276L163.133 325.195L113.938 334.132L105.001 284.937ZM153.445 318.485L147.486 285.688L114.689 291.647L120.647 324.444L153.445 318.485Z" fill="black" fill-opacity="0.1"/>
<path d="M21.08 252L70.8212 257.081L65.7402 306.822L15.9991 301.741L21.08 252ZM58.2972 297.685L61.6845 264.524L28.5231 261.137L25.1357 294.298L58.2972 297.685Z" fill="black" fill-opacity="0.1"/>
<path d="M15.9993 411.989L64.5408 400L76.5293 448.542L27.9878 460.53L15.9993 411.989ZM66.4414 442.45L58.4489 410.088L26.0872 418.08L34.0797 450.442L66.4414 442.45Z" fill="black" fill-opacity="0.1"/>
<path d="M280.001 230.909L316.745 197L350.654 233.745L313.909 267.654L280.001 230.909ZM338.879 233.272L316.273 208.775L291.776 231.381L314.382 255.879L338.879 233.272Z" fill="black" fill-opacity="0.1"/>
<path d="M268.092 106L317.832 111.091L312.74 160.832L263 155.74L268.092 106ZM305.299 151.693L308.693 118.533L275.533 115.138L272.138 148.299L305.299 151.693Z" fill="black" fill-opacity="0.1"/>
<path d="M390.014 198.262L432.57 172.014L458.818 214.57L416.262 240.818L390.014 198.262ZM447.351 211.852L429.852 183.481L401.481 200.98L418.98 229.351L447.351 211.852Z" fill="black" fill-opacity="0.1"/>
<path d="M214.836 349.731L218.074 299.836L267.969 303.074L264.731 352.969L214.836 349.731ZM259.114 310.849L225.85 308.691L223.691 341.955L256.955 344.114L259.114 310.849Z" fill="black" fill-opacity="0.1"/>
<path d="M351.262 355.283L320.001 316.261L359.023 285L390.284 324.022L351.262 355.283ZM357.73 296.713L331.714 317.555L352.556 343.57L378.571 322.729L357.73 296.713Z" fill="black" fill-opacity="0.1"/>
<path d="M433.032 382.21L424 333.032L473.178 324L482.21 373.177L433.032 382.21ZM466.487 333.701L433.702 339.723L439.723 372.508L472.509 366.487L466.487 333.701Z" fill="black" fill-opacity="0.1"/>
<path d="M398 457.291L416.899 411L463.189 429.899L444.29 476.19L398 457.291ZM452.325 434.464L421.464 421.865L408.864 452.726L439.725 465.325L452.325 434.464Z" fill="black" fill-opacity="0.1"/>
<path d="M270.094 461.371L253.819 414.094L301.096 397.819L317.371 445.096L270.094 461.371ZM295.929 408.41L264.41 419.261L275.26 450.779L306.779 439.929L295.929 408.41Z" fill="black" fill-opacity="0.1"/>
</svg>
