<svg width="500" height="500" viewBox="0 0 500 500" fill="none" xmlns="http://www.w3.org/2000/svg">
<rect width="500" height="500" fill="#8F112F"/>
<path d="M180.753 118.493L182.013 120.383H179.763C179.538 124.448 179.013 128.498 178.263 132.503L176.763 132.263C177.513 128.333 178.023 124.373 178.263 120.383H176.013L177.273 118.493C173.973 117.068 171.513 111.923 171.513 108.383C171.513 106.393 172.303 104.486 173.709 103.079C175.116 101.673 177.024 100.883 179.013 100.883C179.998 100.883 180.973 101.077 181.883 101.453C182.793 101.83 183.62 102.383 184.316 103.079C185.012 103.776 185.565 104.603 185.942 105.512C186.319 106.422 186.513 107.398 186.513 108.383C186.513 111.923 184.053 117.068 180.753 118.493Z" fill="black" fill-opacity="0.12"/>
<path d="M398.693 366.443L399.953 368.333H397.703C397.478 372.398 396.953 376.448 396.203 380.453L394.703 380.213C395.453 376.283 395.963 372.323 396.203 368.333H393.953L395.213 366.443C391.913 365.018 389.453 359.873 389.453 356.333C389.453 354.344 390.243 352.436 391.65 351.03C393.056 349.623 394.964 348.833 396.953 348.833C397.938 348.833 398.913 349.027 399.823 349.404C400.733 349.781 401.56 350.333 402.256 351.03C402.953 351.726 403.505 352.553 403.882 353.463C404.259 354.373 404.453 355.348 404.453 356.333C404.453 359.873 401.993 365.018 398.693 366.443Z" fill="black" fill-opacity="0.12"/>
<path d="M52.6143 97.7937H40.6143C40.0838 97.7937 39.5751 98.0044 39.2 98.3795C38.825 98.7546 38.6143 99.2633 38.6143 99.7937V111.794C38.6143 115.579 39.7573 119.09 42.1283 121.664C42.2433 121.789 42.3613 121.912 42.4823 122.032C42.7413 121.881 43.0423 121.794 43.3643 121.794C43.8143 121.794 44.2413 121.534 44.4613 121.138C44.1574 120.879 43.8695 120.602 43.5993 120.309C41.6373 118.179 40.6143 115.189 40.6143 111.794C40.6143 111.059 40.6623 110.344 40.7573 109.651L50.4813 99.9267C51.1887 99.8365 51.9011 99.7921 52.6143 99.7937C56.3983 99.7937 59.2183 100.96 61.1633 102.805C61.2293 102.798 61.2963 102.794 61.3643 102.794C62.0123 102.794 62.6143 102.253 62.6143 101.544C62.6143 101.506 62.6153 101.468 62.6183 101.43C60.2503 99.1407 56.8863 97.7937 52.6143 97.7937ZM40.6143 99.7937H43.0283L40.6143 102.208V99.7937ZM45.2003 99.7937H47.7863L40.6143 106.966V104.38L45.2003 99.7937ZM52.6143 125.794C50.0943 125.794 47.8903 125.325 46.0193 124.471C46.6178 124.07 47.118 123.538 47.4823 122.917C48.9403 123.479 50.6473 123.794 52.6143 123.794C56.7123 123.794 59.6793 122.426 61.6293 120.309C62.2207 119.664 62.7278 118.946 63.1383 118.174C64.1817 117.954 65.1413 117.443 65.9053 116.699C65.3293 118.562 64.3993 120.253 63.1003 121.664C60.7173 124.252 57.1853 125.794 52.6143 125.794Z" fill="black" fill-opacity="0.12"/>
<path d="M59.4783 109.523C59.8853 108.98 60.4183 108.536 61.0333 108.234C60.9473 108.108 60.8527 107.988 60.7503 107.876C60.1763 107.246 59.3103 106.794 58.1143 106.794C56.9303 106.794 56.0673 107.225 55.4903 107.854C54.9423 108.45 54.7213 109.147 54.6333 109.604C54.6048 109.734 54.6027 109.869 54.6271 110C54.6515 110.131 54.7018 110.256 54.7751 110.367C54.8484 110.478 54.9433 110.574 55.0541 110.648C55.1648 110.722 55.2893 110.773 55.4202 110.799C55.5511 110.824 55.6857 110.823 55.8162 110.795C55.9466 110.768 56.0703 110.715 56.1798 110.639C56.2894 110.563 56.3827 110.466 56.4542 110.353C56.5257 110.241 56.574 110.115 56.5963 109.984C56.6443 109.738 56.7543 109.434 56.9633 109.207C57.1433 109.011 57.4613 108.794 58.1143 108.794C58.7563 108.794 59.0833 109.016 59.2713 109.223C59.3573 109.316 59.4253 109.42 59.4783 109.523ZM66.4353 109.257C65.8182 108.581 65.0099 108.111 64.1183 107.907C63.9273 107.198 63.6723 106.508 63.3563 105.846C63.9781 105.556 64.5315 105.138 64.9803 104.619C65.7133 106.035 66.1953 107.602 66.4353 109.257ZM46.9633 109.206C46.7533 109.434 46.6433 109.738 46.5963 109.985C46.5456 110.245 46.3936 110.475 46.1736 110.623C45.9536 110.771 45.6837 110.826 45.4233 110.776C45.1628 110.725 44.9332 110.573 44.7848 110.353C44.6365 110.133 44.5816 109.863 44.6323 109.603C44.7213 109.147 44.9423 108.45 45.4903 107.854C46.0673 107.225 46.9303 106.794 48.1143 106.794C49.3093 106.794 50.1763 107.246 50.7503 107.876C51.2943 108.473 51.5203 109.168 51.6003 109.623C51.6456 109.884 51.5853 110.153 51.4325 110.37C51.2798 110.587 51.0471 110.734 50.7858 110.779C50.5244 110.825 50.2557 110.764 50.0388 110.611C49.8219 110.459 49.6746 110.226 49.6293 109.965C49.5792 109.69 49.4555 109.433 49.2713 109.223C49.0843 109.016 48.7563 108.794 48.1143 108.794C47.4613 108.794 47.1423 109.011 46.9633 109.206ZM62.6143 99.7937C62.8795 99.7937 63.1338 99.6883 63.3214 99.5008C63.5089 99.3133 63.6143 99.0589 63.6143 98.7937C63.6143 98.5285 63.5089 98.2741 63.3214 98.0866C63.1338 97.8991 62.8795 97.7937 62.6143 97.7937C62.349 97.7937 62.0947 97.8991 61.9072 98.0866C61.7196 98.2741 61.6143 98.5285 61.6143 98.7937C61.6143 99.0589 61.7196 99.3133 61.9072 99.5008C62.0947 99.6883 62.349 99.7937 62.6143 99.7937ZM64.3643 100.794C64.5632 100.794 64.7539 100.873 64.8946 101.013C65.0352 101.154 65.1143 101.345 65.1143 101.544C65.1143 103.742 63.2823 105.294 61.3643 105.294C61.1653 105.294 60.9746 105.215 60.8339 105.074C60.6933 104.933 60.6143 104.743 60.6143 104.544C60.6143 104.345 60.6933 104.154 60.8339 104.013C60.9746 103.873 61.1653 103.794 61.3643 103.794C62.5233 103.794 63.6143 102.846 63.6143 101.544C63.6143 101.345 63.6933 101.154 63.8339 101.013C63.9746 100.873 64.1653 100.794 64.3643 100.794ZM46.3643 119.794C46.5632 119.794 46.7539 119.873 46.8946 120.013C47.0352 120.154 47.1143 120.345 47.1143 120.544C47.1143 122.742 45.2823 124.294 43.3643 124.294C43.1653 124.294 42.9746 124.215 42.8339 124.074C42.6933 123.933 42.6143 123.743 42.6143 123.544C42.6143 123.345 42.6933 123.154 42.8339 123.013C42.9746 122.873 43.1653 122.794 43.3643 122.794C44.5233 122.794 45.6143 121.846 45.6143 120.544C45.6143 120.345 45.6933 120.154 45.8339 120.013C45.9746 119.873 46.1653 119.794 46.3643 119.794ZM63.6143 124.794C63.8795 124.794 64.1338 124.688 64.3214 124.501C64.5089 124.313 64.6143 124.059 64.6143 123.794C64.6143 123.528 64.5089 123.274 64.3214 123.087C64.1338 122.899 63.8795 122.794 63.6143 122.794C63.349 122.794 63.0947 122.899 62.9072 123.087C62.7196 123.274 62.6143 123.528 62.6143 123.794C62.6143 124.059 62.7196 124.313 62.9072 124.501C63.0947 124.688 63.349 124.794 63.6143 124.794ZM46.6143 115.794C46.6143 116.059 46.5089 116.313 46.3214 116.501C46.1338 116.688 45.8795 116.794 45.6143 116.794C45.349 116.794 45.0947 116.688 44.9072 116.501C44.7196 116.313 44.6143 116.059 44.6143 115.794C44.6143 115.528 44.7196 115.274 44.9072 115.087C45.0947 114.899 45.349 114.794 45.6143 114.794C45.8795 114.794 46.1338 114.899 46.3214 115.087C46.5089 115.274 46.6143 115.528 46.6143 115.794ZM62.9353 108.794C62.4991 108.794 62.0673 108.88 61.6644 109.046C61.2614 109.213 60.8953 109.458 60.587 109.766C60.2786 110.075 60.0339 110.441 59.8671 110.844C59.7002 111.247 59.6143 111.679 59.6143 112.115V112.544C59.6143 112.839 59.6725 113.132 59.7855 113.405C59.8986 113.678 60.0643 113.926 60.2733 114.135C60.4822 114.344 60.7302 114.509 61.0032 114.622C61.2762 114.736 61.5688 114.794 61.8643 114.794C62.3284 114.794 62.7735 114.609 63.1017 114.281C63.4299 113.953 63.6143 113.508 63.6143 113.044V112.544C63.6143 112.345 63.5352 112.154 63.3946 112.013C63.2539 111.873 63.0632 111.794 62.8643 111.794C62.6653 111.794 62.4746 111.873 62.3339 112.013C62.1933 112.154 62.1143 112.345 62.1143 112.544V113.044C62.1143 113.11 62.0879 113.174 62.041 113.22C61.9942 113.267 61.9306 113.294 61.8643 113.294C61.6653 113.294 61.4746 113.215 61.3339 113.074C61.1933 112.933 61.1143 112.743 61.1143 112.544V112.115C61.1143 111.109 61.9303 110.294 62.9353 110.294H63.1143C63.6447 110.294 64.1534 110.504 64.5285 110.879C64.9035 111.255 65.1143 111.763 65.1143 112.294V112.655C65.1143 113.487 64.7835 114.286 64.1949 114.874C63.6062 115.463 62.8078 115.794 61.9753 115.794H56.7423C56.8264 115.425 56.8263 115.041 56.7419 114.672C56.6575 114.303 56.4911 113.958 56.2549 113.662C56.0188 113.366 55.719 113.127 55.3778 112.963C55.0366 112.799 54.6629 112.714 54.2843 112.714C54.019 112.714 53.7647 112.819 53.5772 113.007C53.3896 113.194 53.2843 113.448 53.2843 113.714C53.2843 113.979 53.3896 114.233 53.5772 114.421C53.7647 114.608 54.019 114.714 54.2843 114.714C54.3525 114.714 54.4202 114.727 54.4833 114.753C54.5463 114.779 54.6037 114.818 54.652 114.866C54.7002 114.914 54.7385 114.972 54.7647 115.035C54.7908 115.098 54.8043 115.165 54.8043 115.234C54.8043 115.302 54.7908 115.37 54.7647 115.433C54.7385 115.496 54.7002 115.553 54.652 115.601C54.6037 115.65 54.5463 115.688 54.4833 115.714C54.4202 115.74 54.3525 115.754 54.2843 115.754C54.019 115.754 53.7647 115.859 53.5772 116.047C53.3896 116.234 53.2843 116.488 53.2843 116.754C53.2843 117.019 53.3896 117.273 53.5772 117.461C53.7647 117.648 54.019 117.754 54.2843 117.754C54.4222 117.754 54.5544 117.808 54.652 117.906C54.7495 118.004 54.8043 118.136 54.8043 118.274C54.8043 118.412 54.7495 118.544 54.652 118.641C54.5544 118.739 54.4222 118.794 54.2843 118.794C54.019 118.794 53.7647 118.899 53.5772 119.087C53.3896 119.274 53.2843 119.528 53.2843 119.794C53.2843 120.059 53.3896 120.313 53.5772 120.501C53.7647 120.688 54.019 120.794 54.2843 120.794C54.7001 120.794 55.1096 120.691 55.476 120.494C55.8425 120.298 56.1546 120.013 56.3845 119.667C56.6144 119.32 56.755 118.922 56.7937 118.508C56.8324 118.094 56.768 117.677 56.6063 117.294H61.9763C63.2064 117.293 64.3861 116.805 65.2559 115.935C66.1256 115.065 66.6143 113.885 66.6143 112.655V112.294C66.6143 111.365 66.2455 110.475 65.5891 109.819C64.9328 109.162 64.0425 108.794 63.1143 108.794H62.9353Z" fill="black" fill-opacity="0.12"/>
<path d="M168.513 443.213H156.513C155.982 443.213 155.474 443.424 155.098 443.799C154.723 444.174 154.513 444.683 154.513 445.213V457.213C154.513 460.998 155.656 464.509 158.027 467.083C158.142 467.208 158.26 467.331 158.381 467.451C158.64 467.3 158.941 467.213 159.263 467.213C159.713 467.213 160.14 466.953 160.36 466.557C160.056 466.299 159.768 466.022 159.498 465.728C157.536 463.598 156.513 460.608 156.513 457.213C156.513 456.478 156.561 455.763 156.656 455.07L166.38 445.346C167.087 445.256 167.8 445.211 168.513 445.213C172.297 445.213 175.117 446.379 177.062 448.224C177.128 448.217 177.195 448.213 177.263 448.213C177.911 448.213 178.513 447.672 178.513 446.963C178.513 446.925 178.514 446.887 178.517 446.849C176.149 444.56 172.785 443.213 168.513 443.213ZM156.513 445.213H158.927L156.513 447.627V445.213ZM161.099 445.213H163.685L156.513 452.385V449.799L161.099 445.213ZM168.513 471.213C165.993 471.213 163.789 470.744 161.918 469.89C162.516 469.489 163.016 468.958 163.381 468.336C164.839 468.898 166.546 469.213 168.513 469.213C172.611 469.213 175.578 467.845 177.528 465.728C178.119 465.083 178.626 464.366 179.037 463.593C180.08 463.374 181.04 462.862 181.804 462.118C181.228 463.981 180.298 465.672 178.999 467.083C176.616 469.671 173.084 471.213 168.513 471.213Z" fill="black" fill-opacity="0.12"/>
<path d="M175.377 454.942C175.784 454.399 176.317 453.955 176.932 453.653C176.846 453.527 176.751 453.408 176.649 453.295C176.075 452.665 175.209 452.213 174.013 452.213C172.829 452.213 171.966 452.644 171.389 453.273C170.841 453.869 170.62 454.566 170.532 455.023C170.503 455.153 170.501 455.288 170.526 455.419C170.55 455.55 170.6 455.675 170.674 455.786C170.747 455.898 170.842 455.993 170.952 456.067C171.063 456.142 171.188 456.193 171.319 456.218C171.45 456.243 171.584 456.242 171.715 456.215C171.845 456.187 171.969 456.134 172.078 456.058C172.188 455.982 172.281 455.885 172.353 455.773C172.424 455.66 172.472 455.535 172.495 455.403C172.543 455.157 172.653 454.853 172.862 454.626C173.042 454.43 173.36 454.213 174.013 454.213C174.655 454.213 174.982 454.435 175.17 454.642C175.256 454.735 175.324 454.839 175.377 454.942ZM182.334 454.676C181.717 454.001 180.908 453.53 180.017 453.326C179.826 452.617 179.571 451.928 179.255 451.265C179.876 450.975 180.43 450.557 180.879 450.038C181.612 451.454 182.094 453.021 182.334 454.676ZM162.862 454.625C162.652 454.853 162.542 455.157 162.495 455.404C162.444 455.665 162.292 455.894 162.072 456.043C161.852 456.191 161.582 456.246 161.322 456.195C161.061 456.144 160.832 455.992 160.683 455.772C160.535 455.552 160.48 455.283 160.531 455.022C160.62 454.566 160.841 453.869 161.389 453.273C161.966 452.644 162.829 452.213 164.013 452.213C165.208 452.213 166.075 452.665 166.649 453.295C167.193 453.892 167.419 454.587 167.499 455.042C167.544 455.304 167.484 455.572 167.331 455.789C167.178 456.006 166.946 456.153 166.684 456.199C166.423 456.244 166.154 456.184 165.937 456.031C165.72 455.878 165.573 455.646 165.528 455.384C165.478 455.109 165.354 454.853 165.17 454.642C164.983 454.435 164.655 454.213 164.013 454.213C163.36 454.213 163.041 454.43 162.862 454.625ZM178.513 445.213C178.778 445.213 179.032 445.108 179.22 444.92C179.407 444.733 179.513 444.478 179.513 444.213C179.513 443.948 179.407 443.694 179.22 443.506C179.032 443.318 178.778 443.213 178.513 443.213C178.247 443.213 177.993 443.318 177.806 443.506C177.618 443.694 177.513 443.948 177.513 444.213C177.513 444.478 177.618 444.733 177.806 444.92C177.993 445.108 178.247 445.213 178.513 445.213ZM180.263 446.213C180.462 446.213 180.652 446.292 180.793 446.433C180.934 446.573 181.013 446.764 181.013 446.963C181.013 449.161 179.181 450.713 177.263 450.713C177.064 450.713 176.873 450.634 176.732 450.493C176.592 450.353 176.513 450.162 176.513 449.963C176.513 449.764 176.592 449.573 176.732 449.433C176.873 449.292 177.064 449.213 177.263 449.213C178.422 449.213 179.513 448.265 179.513 446.963C179.513 446.764 179.592 446.573 179.732 446.433C179.873 446.292 180.064 446.213 180.263 446.213ZM162.263 465.213C162.462 465.213 162.652 465.292 162.793 465.433C162.934 465.573 163.013 465.764 163.013 465.963C163.013 468.161 161.181 469.713 159.263 469.713C159.064 469.713 158.873 469.634 158.732 469.493C158.592 469.353 158.513 469.162 158.513 468.963C158.513 468.764 158.592 468.573 158.732 468.433C158.873 468.292 159.064 468.213 159.263 468.213C160.422 468.213 161.513 467.265 161.513 465.963C161.513 465.764 161.592 465.573 161.732 465.433C161.873 465.292 162.064 465.213 162.263 465.213ZM179.513 470.213C179.778 470.213 180.032 470.108 180.22 469.92C180.407 469.733 180.513 469.478 180.513 469.213C180.513 468.948 180.407 468.694 180.22 468.506C180.032 468.318 179.778 468.213 179.513 468.213C179.247 468.213 178.993 468.318 178.806 468.506C178.618 468.694 178.513 468.948 178.513 469.213C178.513 469.478 178.618 469.733 178.806 469.92C178.993 470.108 179.247 470.213 179.513 470.213ZM162.513 461.213C162.513 461.478 162.407 461.733 162.22 461.92C162.032 462.108 161.778 462.213 161.513 462.213C161.247 462.213 160.993 462.108 160.806 461.92C160.618 461.733 160.513 461.478 160.513 461.213C160.513 460.948 160.618 460.694 160.806 460.506C160.993 460.318 161.247 460.213 161.513 460.213C161.778 460.213 162.032 460.318 162.22 460.506C162.407 460.694 162.513 460.948 162.513 461.213ZM178.834 454.213C178.398 454.213 177.966 454.299 177.563 454.466C177.16 454.633 176.794 454.877 176.485 455.186C176.177 455.494 175.932 455.86 175.765 456.263C175.599 456.666 175.513 457.098 175.513 457.534V457.963C175.513 458.259 175.571 458.551 175.684 458.824C175.797 459.097 175.963 459.345 176.172 459.554C176.381 459.763 176.629 459.929 176.902 460.042C177.175 460.155 177.467 460.213 177.763 460.213C178.227 460.213 178.672 460.029 179 459.701C179.328 459.372 179.513 458.927 179.513 458.463V457.963C179.513 457.764 179.434 457.573 179.293 457.433C179.152 457.292 178.962 457.213 178.763 457.213C178.564 457.213 178.373 457.292 178.232 457.433C178.092 457.573 178.013 457.764 178.013 457.963V458.463C178.013 458.529 177.986 458.593 177.939 458.64C177.893 458.687 177.829 458.713 177.763 458.713C177.564 458.713 177.373 458.634 177.232 458.493C177.092 458.353 177.013 458.162 177.013 457.963V457.534C177.013 456.528 177.829 455.713 178.834 455.713H179.013C179.543 455.713 180.052 455.924 180.427 456.299C180.802 456.674 181.013 457.183 181.013 457.713V458.074C181.013 458.907 180.682 459.705 180.093 460.294C179.505 460.882 178.706 461.213 177.874 461.213H172.641C172.725 460.844 172.725 460.461 172.64 460.092C172.556 459.722 172.39 459.377 172.153 459.081C171.917 458.785 171.617 458.546 171.276 458.382C170.935 458.218 170.561 458.133 170.183 458.133C169.917 458.133 169.663 458.238 169.476 458.426C169.288 458.614 169.183 458.868 169.183 459.133C169.183 459.398 169.288 459.653 169.476 459.84C169.663 460.028 169.917 460.133 170.183 460.133C170.251 460.133 170.319 460.147 170.382 460.173C170.445 460.199 170.502 460.237 170.55 460.285C170.599 460.334 170.637 460.391 170.663 460.454C170.689 460.517 170.703 460.585 170.703 460.653C170.703 460.721 170.689 460.789 170.663 460.852C170.637 460.915 170.599 460.973 170.55 461.021C170.502 461.069 170.445 461.107 170.382 461.134C170.319 461.16 170.251 461.173 170.183 461.173C169.917 461.173 169.663 461.278 169.476 461.466C169.288 461.654 169.183 461.908 169.183 462.173C169.183 462.438 169.288 462.693 169.476 462.88C169.663 463.068 169.917 463.173 170.183 463.173C170.321 463.173 170.453 463.228 170.55 463.325C170.648 463.423 170.703 463.555 170.703 463.693C170.703 463.831 170.648 463.963 170.55 464.061C170.453 464.158 170.321 464.213 170.183 464.213C169.917 464.213 169.663 464.318 169.476 464.506C169.288 464.694 169.183 464.948 169.183 465.213C169.183 465.478 169.288 465.733 169.476 465.92C169.663 466.108 169.917 466.213 170.183 466.213C170.599 466.213 171.008 466.11 171.374 465.914C171.741 465.717 172.053 465.433 172.283 465.086C172.513 464.74 172.653 464.342 172.692 463.928C172.731 463.513 172.666 463.096 172.505 462.713H177.875C179.105 462.713 180.285 462.224 181.154 461.354C182.024 460.484 182.513 459.304 182.513 458.074V457.713C182.513 456.785 182.144 455.895 181.488 455.238C180.831 454.582 179.941 454.213 179.013 454.213H178.834Z" fill="black" fill-opacity="0.12"/>
<path d="M312.861 105.503H300.861C300.331 105.503 299.822 105.713 299.447 106.088C299.072 106.463 298.861 106.972 298.861 107.503V119.503C298.861 123.288 300.004 126.799 302.375 129.373C302.49 129.498 302.608 129.621 302.729 129.741C302.988 129.59 303.289 129.503 303.611 129.503C304.061 129.503 304.488 129.243 304.708 128.847C304.404 128.588 304.117 128.311 303.846 128.018C301.884 125.888 300.861 122.898 300.861 119.503C300.861 118.768 300.909 118.053 301.004 117.36L310.728 107.636C311.436 107.545 312.148 107.501 312.861 107.503C316.645 107.503 319.465 108.669 321.41 110.514C321.476 110.507 321.543 110.503 321.611 110.503C322.259 110.503 322.861 109.962 322.861 109.253C322.861 109.215 322.862 109.177 322.865 109.139C320.497 106.85 317.133 105.503 312.861 105.503ZM300.861 107.503H303.275L300.861 109.917V107.503ZM305.447 107.503H308.033L300.861 114.675V112.089L305.447 107.503ZM312.861 133.503C310.341 133.503 308.137 133.034 306.266 132.18C306.865 131.778 307.365 131.247 307.729 130.626C309.187 131.188 310.894 131.503 312.861 131.503C316.959 131.503 319.926 130.135 321.876 128.018C322.468 127.373 322.975 126.655 323.385 125.883C324.429 125.663 325.388 125.151 326.152 124.408C325.576 126.271 324.646 127.962 323.347 129.373C320.964 131.961 317.432 133.503 312.861 133.503Z" fill="black" fill-opacity="0.12"/>
<path d="M319.725 117.232C320.132 116.689 320.665 116.245 321.28 115.943C321.194 115.817 321.1 115.697 320.997 115.585C320.423 114.955 319.557 114.503 318.361 114.503C317.177 114.503 316.314 114.934 315.737 115.563C315.189 116.159 314.968 116.856 314.88 117.313C314.852 117.443 314.85 117.577 314.874 117.708C314.899 117.84 314.949 117.964 315.022 118.076C315.096 118.187 315.19 118.283 315.301 118.357C315.412 118.431 315.536 118.482 315.667 118.508C315.798 118.533 315.933 118.532 316.063 118.504C316.194 118.477 316.317 118.424 316.427 118.348C316.536 118.272 316.63 118.175 316.701 118.062C316.773 117.95 316.821 117.824 316.843 117.693C316.891 117.447 317.001 117.143 317.21 116.916C317.39 116.72 317.708 116.503 318.361 116.503C319.003 116.503 319.33 116.725 319.518 116.932C319.604 117.025 319.672 117.129 319.725 117.232ZM326.682 116.966C326.065 116.29 325.257 115.819 324.365 115.616C324.174 114.907 323.919 114.217 323.603 113.555C324.225 113.265 324.779 112.846 325.227 112.328C325.96 113.744 326.442 115.311 326.682 116.966ZM307.21 116.915C307 117.143 306.89 117.447 306.843 117.694C306.793 117.954 306.641 118.184 306.421 118.332C306.201 118.48 305.931 118.535 305.67 118.485C305.41 118.434 305.18 118.282 305.032 118.062C304.884 117.842 304.829 117.572 304.879 117.312C304.968 116.856 305.189 116.159 305.737 115.563C306.314 114.934 307.177 114.503 308.361 114.503C309.556 114.503 310.423 114.955 310.997 115.585C311.541 116.182 311.767 116.877 311.847 117.332C311.893 117.593 311.832 117.862 311.68 118.079C311.527 118.295 311.294 118.443 311.033 118.488C310.771 118.533 310.503 118.473 310.286 118.32C310.069 118.168 309.922 117.935 309.876 117.674C309.826 117.398 309.703 117.142 309.518 116.932C309.331 116.725 309.003 116.503 308.361 116.503C307.708 116.503 307.389 116.72 307.21 116.915ZM322.861 107.503C323.127 107.503 323.381 107.397 323.568 107.21C323.756 107.022 323.861 106.768 323.861 106.503C323.861 106.237 323.756 105.983 323.568 105.795C323.381 105.608 323.127 105.503 322.861 105.503C322.596 105.503 322.342 105.608 322.154 105.795C321.967 105.983 321.861 106.237 321.861 106.503C321.861 106.768 321.967 107.022 322.154 107.21C322.342 107.397 322.596 107.503 322.861 107.503ZM324.611 108.503C324.81 108.503 325.001 108.582 325.142 108.722C325.282 108.863 325.361 109.054 325.361 109.253C325.361 111.451 323.529 113.003 321.611 113.003C321.412 113.003 321.222 112.924 321.081 112.783C320.94 112.642 320.861 112.451 320.861 112.253C320.861 112.054 320.94 111.863 321.081 111.722C321.222 111.582 321.412 111.503 321.611 111.503C322.77 111.503 323.861 110.555 323.861 109.253C323.861 109.054 323.94 108.863 324.081 108.722C324.222 108.582 324.412 108.503 324.611 108.503ZM306.611 127.503C306.81 127.503 307.001 127.582 307.142 127.722C307.282 127.863 307.361 128.054 307.361 128.253C307.361 130.451 305.529 132.003 303.611 132.003C303.412 132.003 303.222 131.924 303.081 131.783C302.94 131.642 302.861 131.451 302.861 131.253C302.861 131.054 302.94 130.863 303.081 130.722C303.222 130.582 303.412 130.503 303.611 130.503C304.77 130.503 305.861 129.555 305.861 128.253C305.861 128.054 305.94 127.863 306.081 127.722C306.222 127.582 306.412 127.503 306.611 127.503ZM323.861 132.503C324.127 132.503 324.381 132.397 324.568 132.21C324.756 132.022 324.861 131.768 324.861 131.503C324.861 131.237 324.756 130.983 324.568 130.795C324.381 130.608 324.127 130.503 323.861 130.503C323.596 130.503 323.342 130.608 323.154 130.795C322.967 130.983 322.861 131.237 322.861 131.503C322.861 131.768 322.967 132.022 323.154 132.21C323.342 132.397 323.596 132.503 323.861 132.503ZM306.861 123.503C306.861 123.768 306.756 124.022 306.568 124.21C306.381 124.397 306.127 124.503 305.861 124.503C305.596 124.503 305.342 124.397 305.154 124.21C304.967 124.022 304.861 123.768 304.861 123.503C304.861 123.237 304.967 122.983 305.154 122.795C305.342 122.608 305.596 122.503 305.861 122.503C306.127 122.503 306.381 122.608 306.568 122.795C306.756 122.983 306.861 123.237 306.861 123.503ZM323.182 116.503C322.746 116.503 322.314 116.588 321.911 116.755C321.509 116.922 321.142 117.167 320.834 117.475C320.526 117.784 320.281 118.15 320.114 118.553C319.947 118.956 319.861 119.387 319.861 119.824V120.253C319.861 120.548 319.92 120.841 320.033 121.114C320.146 121.387 320.311 121.635 320.52 121.844C320.729 122.052 320.977 122.218 321.25 122.331C321.523 122.444 321.816 122.503 322.111 122.503C322.575 122.503 323.021 122.318 323.349 121.99C323.677 121.662 323.861 121.217 323.861 120.753V120.253C323.861 120.054 323.782 119.863 323.642 119.722C323.501 119.582 323.31 119.503 323.111 119.503C322.912 119.503 322.722 119.582 322.581 119.722C322.44 119.863 322.361 120.054 322.361 120.253V120.753C322.361 120.819 322.335 120.882 322.288 120.929C322.241 120.976 322.178 121.003 322.111 121.003C321.912 121.003 321.722 120.924 321.581 120.783C321.44 120.642 321.361 120.451 321.361 120.253V119.824C321.361 118.818 322.177 118.003 323.182 118.003H323.361C323.892 118.003 324.4 118.213 324.776 118.588C325.151 118.963 325.361 119.472 325.361 120.003V120.364C325.361 121.196 325.031 121.994 324.442 122.583C323.853 123.172 323.055 123.503 322.222 123.503H316.989C317.073 123.133 317.073 122.75 316.989 122.381C316.905 122.012 316.738 121.667 316.502 121.371C316.266 121.075 315.966 120.836 315.625 120.672C315.284 120.508 314.91 120.422 314.531 120.423C314.266 120.423 314.012 120.528 313.824 120.715C313.637 120.903 313.531 121.157 313.531 121.423C313.531 121.688 313.637 121.942 313.824 122.13C314.012 122.317 314.266 122.423 314.531 122.423C314.6 122.423 314.667 122.436 314.73 122.462C314.793 122.488 314.851 122.527 314.899 122.575C314.947 122.623 314.986 122.68 315.012 122.744C315.038 122.807 315.051 122.874 315.051 122.943C315.051 123.011 315.038 123.078 315.012 123.142C314.986 123.205 314.947 123.262 314.899 123.31C314.851 123.359 314.793 123.397 314.73 123.423C314.667 123.449 314.6 123.463 314.531 123.463C314.266 123.463 314.012 123.568 313.824 123.755C313.637 123.943 313.531 124.197 313.531 124.463C313.531 124.728 313.637 124.982 313.824 125.17C314.012 125.357 314.266 125.463 314.531 125.463C314.669 125.463 314.802 125.517 314.899 125.615C314.997 125.712 315.051 125.845 315.051 125.983C315.051 126.12 314.997 126.253 314.899 126.35C314.802 126.448 314.669 126.503 314.531 126.503C314.266 126.503 314.012 126.608 313.824 126.795C313.637 126.983 313.531 127.237 313.531 127.503C313.531 127.768 313.637 128.022 313.824 128.21C314.012 128.397 314.266 128.503 314.531 128.503C314.947 128.503 315.357 128.4 315.723 128.203C316.09 128.007 316.402 127.722 316.632 127.376C316.862 127.029 317.002 126.631 317.041 126.217C317.079 125.803 317.015 125.386 316.853 125.003H322.223C323.453 125.002 324.633 124.513 325.503 123.643C326.373 122.774 326.861 121.594 326.861 120.364V120.003C326.861 119.074 326.493 118.184 325.836 117.528C325.18 116.871 324.29 116.503 323.361 116.503H323.182Z" fill="black" fill-opacity="0.12"/>
<path fill-rule="evenodd" clip-rule="evenodd" d="M183.888 340.153C183.888 343.17 182.689 346.063 180.556 348.196C178.423 350.33 175.53 351.528 172.513 351.528C169.496 351.528 166.603 350.33 164.469 348.196C162.336 346.063 161.138 343.17 161.138 340.153C161.138 337.136 162.336 334.243 164.469 332.11C166.603 329.977 169.496 328.778 172.513 328.778C175.53 328.778 178.423 329.977 180.556 332.11C182.689 334.243 183.888 337.136 183.888 340.153ZM186.513 340.153C186.513 343.866 185.038 347.427 182.412 350.053C179.787 352.678 176.226 354.153 172.513 354.153C168.8 354.153 165.239 352.678 162.613 350.053C159.988 347.427 158.513 343.866 158.513 340.153C158.513 336.44 159.988 332.879 162.613 330.254C165.239 327.628 168.8 326.153 172.513 326.153C176.226 326.153 179.787 327.628 182.412 330.254C185.038 332.879 186.513 336.44 186.513 340.153ZM167.704 334.378C168.306 334.031 169.022 333.938 169.694 334.118C170.366 334.299 170.938 334.738 171.286 335.341C171.4 335.542 171.43 335.779 171.37 336.002C171.309 336.225 171.163 336.415 170.963 336.531C170.763 336.646 170.525 336.678 170.302 336.619C170.078 336.56 169.887 336.415 169.77 336.216C169.694 336.083 169.583 335.973 169.451 335.896C169.318 335.819 169.167 335.779 169.014 335.779C168.861 335.779 168.71 335.819 168.577 335.895C168.444 335.971 168.334 336.081 168.257 336.214C168.14 336.415 167.949 336.561 167.724 336.62C167.5 336.68 167.261 336.648 167.061 336.532C166.86 336.415 166.714 336.224 166.654 335.999C166.594 335.775 166.626 335.536 166.743 335.335C166.974 334.937 167.304 334.607 167.704 334.378ZM172.513 347.153C174.369 347.153 176.15 346.416 177.462 345.103C178.775 343.79 179.513 342.01 179.513 340.153H165.513C165.513 342.01 166.25 343.79 167.563 345.103C168.876 346.416 170.656 347.153 172.513 347.153ZM174.704 334.378C175.306 334.031 176.022 333.938 176.694 334.118C177.366 334.299 177.938 334.738 178.286 335.341C178.344 335.44 178.382 335.55 178.398 335.665C178.414 335.779 178.407 335.895 178.377 336.007C178.348 336.118 178.296 336.223 178.226 336.315C178.156 336.406 178.069 336.483 177.969 336.541C177.869 336.599 177.758 336.636 177.644 336.651C177.529 336.666 177.413 336.658 177.302 336.628C177.19 336.597 177.086 336.545 176.995 336.475C176.904 336.404 176.827 336.316 176.77 336.216C176.694 336.083 176.583 335.973 176.451 335.896C176.318 335.819 176.167 335.779 176.014 335.779C175.861 335.779 175.71 335.819 175.577 335.895C175.444 335.971 175.334 336.081 175.257 336.214C175.14 336.415 174.949 336.561 174.724 336.62C174.5 336.68 174.261 336.648 174.061 336.532C173.86 336.415 173.714 336.224 173.654 335.999C173.594 335.775 173.626 335.536 173.743 335.335C173.974 334.937 174.306 334.607 174.705 334.378H174.704Z" fill="black" fill-opacity="0.12"/>
<path fill-rule="evenodd" clip-rule="evenodd" d="M242.853 60.2346C242.853 63.2515 241.654 66.1447 239.521 68.278C237.388 70.4112 234.494 71.6096 231.478 71.6096C228.461 71.6096 225.567 70.4112 223.434 68.278C221.301 66.1447 220.103 63.2515 220.103 60.2346C220.103 57.2178 221.301 54.3245 223.434 52.1913C225.567 50.0581 228.461 48.8596 231.478 48.8596C234.494 48.8596 237.388 50.0581 239.521 52.1913C241.654 54.3245 242.853 57.2178 242.853 60.2346ZM245.478 60.2346C245.478 63.9477 244.003 67.5086 241.377 70.1341C238.752 72.7596 235.191 74.2346 231.478 74.2346C227.765 74.2346 224.204 72.7596 221.578 70.1341C218.953 67.5086 217.478 63.9477 217.478 60.2346C217.478 56.5216 218.953 52.9606 221.578 50.3351C224.204 47.7096 227.765 46.2346 231.478 46.2346C235.191 46.2346 238.752 47.7096 241.377 50.3351C244.003 52.9606 245.478 56.5216 245.478 60.2346ZM226.669 54.4596C227.271 54.1128 227.987 54.0194 228.659 54.1998C229.33 54.3803 229.903 54.8199 230.251 55.4221C230.365 55.623 230.395 55.8609 230.335 56.0839C230.274 56.3068 230.128 56.4968 229.928 56.6124C229.728 56.7279 229.49 56.7596 229.266 56.7005C229.043 56.6415 228.852 56.4964 228.735 56.2971C228.659 56.1644 228.548 56.0542 228.416 55.9776C228.283 55.9009 228.132 55.8605 227.979 55.8603C227.826 55.8601 227.675 55.9002 227.542 55.9766C227.409 56.0529 227.299 56.1629 227.222 56.2954C227.105 56.4961 226.914 56.6423 226.689 56.7019C226.465 56.7615 226.226 56.7295 226.025 56.613C225.825 56.4965 225.678 56.305 225.619 56.0807C225.559 55.8564 225.591 55.6176 225.708 55.4169C225.939 55.0189 226.269 54.6888 226.669 54.4596ZM231.478 67.2346C233.334 67.2346 235.115 66.4971 236.427 65.1844C237.74 63.8716 238.478 62.0911 238.478 60.2346H224.478C224.478 62.0911 225.215 63.8716 226.528 65.1844C227.841 66.4971 229.621 67.2346 231.478 67.2346ZM233.669 54.4596C234.271 54.1128 234.987 54.0194 235.659 54.1998C236.33 54.3803 236.903 54.8199 237.251 55.4221C237.309 55.5217 237.347 55.6318 237.363 55.7461C237.379 55.8604 237.371 55.9767 237.342 56.0883C237.312 56.1999 237.261 56.3045 237.191 56.3962C237.121 56.4878 237.033 56.5647 236.933 56.6224C236.834 56.6801 236.723 56.7175 236.609 56.7323C236.494 56.7472 236.378 56.7393 236.267 56.7091C236.155 56.6788 236.051 56.6269 235.96 56.5562C235.869 56.4855 235.792 56.3974 235.735 56.2971C235.659 56.1644 235.548 56.0542 235.416 55.9776C235.283 55.9009 235.132 55.8605 234.979 55.8603C234.826 55.8601 234.675 55.9002 234.542 55.9766C234.409 56.0529 234.299 56.1629 234.222 56.2954C234.105 56.4961 233.914 56.6423 233.689 56.7019C233.465 56.7615 233.226 56.7295 233.025 56.613C232.825 56.4965 232.678 56.305 232.619 56.0807C232.559 55.8564 232.591 55.6176 232.708 55.4169C232.939 55.0189 233.271 54.6888 233.67 54.4596H233.669Z" fill="black" fill-opacity="0.12"/>
<path fill-rule="evenodd" clip-rule="evenodd" d="M496.787 393.153C496.787 396.17 495.588 399.063 493.455 401.196C491.322 403.33 488.428 404.528 485.412 404.528C482.395 404.528 479.502 403.33 477.368 401.196C475.235 399.063 474.037 396.17 474.037 393.153C474.037 390.136 475.235 387.243 477.368 385.11C479.502 382.977 482.395 381.778 485.412 381.778C488.428 381.778 491.322 382.977 493.455 385.11C495.588 387.243 496.787 390.136 496.787 393.153ZM499.412 393.153C499.412 396.866 497.937 400.427 495.311 403.053C492.686 405.678 489.125 407.153 485.412 407.153C481.699 407.153 478.138 405.678 475.512 403.053C472.887 400.427 471.412 396.866 471.412 393.153C471.412 389.44 472.887 385.879 475.512 383.254C478.138 380.628 481.699 379.153 485.412 379.153C489.125 379.153 492.686 380.628 495.311 383.254C497.937 385.879 499.412 389.44 499.412 393.153ZM480.603 387.378C481.205 387.031 481.921 386.938 482.593 387.118C483.264 387.299 483.837 387.738 484.185 388.341C484.299 388.542 484.329 388.779 484.269 389.002C484.208 389.225 484.062 389.415 483.862 389.531C483.662 389.646 483.424 389.678 483.201 389.619C482.977 389.56 482.786 389.415 482.669 389.216C482.593 389.083 482.482 388.973 482.35 388.896C482.217 388.819 482.066 388.779 481.913 388.779C481.76 388.779 481.609 388.819 481.476 388.895C481.343 388.971 481.233 389.081 481.156 389.214C481.039 389.415 480.848 389.561 480.623 389.62C480.399 389.68 480.16 389.648 479.959 389.532C479.759 389.415 479.613 389.224 479.553 388.999C479.493 388.775 479.525 388.536 479.642 388.335C479.873 387.937 480.203 387.607 480.603 387.378ZM485.412 400.153C487.268 400.153 489.049 399.416 490.361 398.103C491.674 396.79 492.412 395.01 492.412 393.153H478.412C478.412 395.01 479.149 396.79 480.462 398.103C481.775 399.416 483.555 400.153 485.412 400.153ZM487.603 387.378C488.205 387.031 488.921 386.938 489.593 387.118C490.264 387.299 490.837 387.738 491.185 388.341C491.243 388.44 491.281 388.55 491.297 388.665C491.313 388.779 491.305 388.895 491.276 389.007C491.246 389.118 491.195 389.223 491.125 389.315C491.055 389.406 490.967 389.483 490.868 389.541C490.768 389.599 490.657 389.636 490.543 389.651C490.428 389.666 490.312 389.658 490.201 389.628C490.089 389.597 489.985 389.545 489.894 389.475C489.803 389.404 489.726 389.316 489.669 389.216C489.593 389.083 489.482 388.973 489.35 388.896C489.217 388.819 489.066 388.779 488.913 388.779C488.76 388.779 488.609 388.819 488.476 388.895C488.343 388.971 488.233 389.081 488.156 389.214C488.039 389.415 487.848 389.561 487.623 389.62C487.399 389.68 487.16 389.648 486.959 389.532C486.759 389.415 486.613 389.224 486.553 388.999C486.493 388.775 486.525 388.536 486.642 388.335C486.873 387.937 487.205 387.607 487.604 387.378H487.603Z" fill="black" fill-opacity="0.12"/>
<path d="M63.1143 293.833C58.6143 301.333 51.1143 304.333 51.1143 311.833C51.1143 314.833 54.1143 317.833 57.1143 317.833C58.6143 317.833 60.1143 317.833 61.6143 316.333C61.6143 316.333 62.0943 319.333 58.6143 323.833H67.6143C64.6143 319.333 64.6143 316.333 64.6143 316.333C66.1143 317.833 67.6143 317.833 69.1143 317.833C72.1143 317.833 75.1143 314.833 75.1143 311.833C75.1143 304.333 67.6143 301.333 63.1143 293.833Z" fill="black" fill-opacity="0.12"/>
<path d="M443.412 451.398C438.912 458.898 431.412 461.898 431.412 469.398C431.412 472.398 434.412 475.398 437.412 475.398C438.912 475.398 440.412 475.398 441.912 473.898C441.912 473.898 442.392 476.898 438.912 481.398H447.912C444.912 476.898 444.912 473.898 444.912 473.898C446.412 475.398 447.912 475.398 449.412 475.398C452.412 475.398 455.412 472.398 455.412 469.398C455.412 461.898 447.912 458.898 443.412 451.398Z" fill="black" fill-opacity="0.12"/>
<path d="M269.978 208.244C265.478 215.744 257.978 218.744 257.978 226.244C257.978 229.244 260.978 232.244 263.978 232.244C265.478 232.244 266.978 232.244 268.478 230.744C268.478 230.744 268.958 233.744 265.478 238.244H274.478C271.478 233.744 271.478 230.744 271.478 230.744C272.978 232.244 274.478 232.244 275.978 232.244C278.978 232.244 281.978 229.244 281.978 226.244C281.978 218.744 274.478 215.744 269.978 208.244Z" fill="black" fill-opacity="0.12"/>
<path d="M165.468 238.244L161.013 242.744C160.518 243.194 159.858 243.494 159.138 243.494C158.442 243.494 157.774 243.218 157.282 242.726C156.789 242.233 156.513 241.566 156.513 240.869V240.494L158.013 229.424C158.164 227.738 158.94 226.169 160.189 225.025C161.438 223.882 163.069 223.247 164.763 223.244H178.263C181.803 223.244 184.698 225.959 185.013 229.424L186.513 240.494V240.869C186.513 241.566 186.236 242.233 185.744 242.726C185.252 243.218 184.584 243.494 183.888 243.494C183.168 243.494 182.508 243.194 182.013 242.744L177.558 238.244H165.468ZM164.013 226.244V229.244H161.013V230.744H164.013V233.744H165.513V230.744H168.513V229.244H165.513V226.244H164.013ZM178.263 226.244C177.964 226.244 177.678 226.363 177.467 226.574C177.256 226.785 177.138 227.071 177.138 227.369C177.138 227.668 177.256 227.954 177.467 228.165C177.678 228.376 177.964 228.494 178.263 228.494C178.561 228.494 178.847 228.376 179.058 228.165C179.269 227.954 179.388 227.668 179.388 227.369C179.388 227.071 179.269 226.785 179.058 226.574C178.847 226.363 178.561 226.244 178.263 226.244ZM175.638 228.869C175.339 228.869 175.053 228.988 174.842 229.199C174.631 229.41 174.513 229.696 174.513 229.994C174.513 230.293 174.631 230.579 174.842 230.79C175.053 231.001 175.339 231.119 175.638 231.119C175.936 231.119 176.222 231.001 176.433 230.79C176.644 230.579 176.763 230.293 176.763 229.994C176.763 229.696 176.644 229.41 176.433 229.199C176.222 228.988 175.936 228.869 175.638 228.869ZM180.888 228.869C180.589 228.869 180.303 228.988 180.092 229.199C179.881 229.41 179.763 229.696 179.763 229.994C179.763 230.293 179.881 230.579 180.092 230.79C180.303 231.001 180.589 231.119 180.888 231.119C181.186 231.119 181.472 231.001 181.683 230.79C181.894 230.579 182.013 230.293 182.013 229.994C182.013 229.696 181.894 229.41 181.683 229.199C181.472 228.988 181.186 228.869 180.888 228.869ZM178.263 231.494C177.964 231.494 177.678 231.613 177.467 231.824C177.256 232.035 177.138 232.321 177.138 232.619C177.138 232.918 177.256 233.204 177.467 233.415C177.678 233.626 177.964 233.744 178.263 233.744C178.561 233.744 178.847 233.626 179.058 233.415C179.269 233.204 179.388 232.918 179.388 232.619C179.388 232.321 179.269 232.035 179.058 231.824C178.847 231.613 178.561 231.494 178.263 231.494Z" fill="black" fill-opacity="0.12"/>
<path d="M316.696 442.857L312.241 447.357C311.746 447.807 311.086 448.107 310.366 448.107C309.67 448.107 309.002 447.83 308.51 447.338C308.018 446.846 307.741 446.178 307.741 445.482V445.107L309.241 434.037C309.392 432.35 310.169 430.781 311.418 429.638C312.667 428.494 314.298 427.859 315.991 427.857H329.491C333.031 427.857 335.926 430.572 336.241 434.037L337.741 445.107V445.482C337.741 446.178 337.465 446.846 336.972 447.338C336.48 447.83 335.812 448.107 335.116 448.107C334.396 448.107 333.736 447.807 333.241 447.357L328.786 442.857H316.696ZM315.241 430.857V433.857H312.241V435.357H315.241V438.357H316.741V435.357H319.741V433.857H316.741V430.857H315.241ZM329.491 430.857C329.193 430.857 328.907 430.975 328.696 431.186C328.485 431.397 328.366 431.683 328.366 431.982C328.366 432.28 328.485 432.566 328.696 432.777C328.907 432.988 329.193 433.107 329.491 433.107C329.79 433.107 330.076 432.988 330.287 432.777C330.498 432.566 330.616 432.28 330.616 431.982C330.616 431.683 330.498 431.397 330.287 431.186C330.076 430.975 329.79 430.857 329.491 430.857ZM326.866 433.482C326.568 433.482 326.282 433.6 326.071 433.811C325.86 434.022 325.741 434.308 325.741 434.607C325.741 434.905 325.86 435.191 326.071 435.402C326.282 435.613 326.568 435.732 326.866 435.732C327.165 435.732 327.451 435.613 327.662 435.402C327.873 435.191 327.991 434.905 327.991 434.607C327.991 434.308 327.873 434.022 327.662 433.811C327.451 433.6 327.165 433.482 326.866 433.482ZM332.116 433.482C331.818 433.482 331.532 433.6 331.321 433.811C331.11 434.022 330.991 434.308 330.991 434.607C330.991 434.905 331.11 435.191 331.321 435.402C331.532 435.613 331.818 435.732 332.116 435.732C332.415 435.732 332.701 435.613 332.912 435.402C333.123 435.191 333.241 434.905 333.241 434.607C333.241 434.308 333.123 434.022 332.912 433.811C332.701 433.6 332.415 433.482 332.116 433.482ZM329.491 436.107C329.193 436.107 328.907 436.225 328.696 436.436C328.485 436.647 328.366 436.933 328.366 437.232C328.366 437.53 328.485 437.816 328.696 438.027C328.907 438.238 329.193 438.357 329.491 438.357C329.79 438.357 330.076 438.238 330.287 438.027C330.498 437.816 330.616 437.53 330.616 437.232C330.616 436.933 330.498 436.647 330.287 436.436C330.076 436.225 329.79 436.107 329.491 436.107Z" fill="black" fill-opacity="0.12"/>
<path d="M456.367 100.253L451.912 104.753C451.417 105.203 450.757 105.503 450.037 105.503C449.34 105.503 448.673 105.226 448.18 104.734C447.688 104.241 447.412 103.574 447.412 102.878V102.503L448.912 91.4326C449.063 89.746 449.839 88.1769 451.088 87.0335C452.337 85.89 453.968 85.2548 455.662 85.2526H469.162C472.702 85.2526 475.597 87.9676 475.912 91.4326L477.412 102.503V102.878C477.412 103.574 477.135 104.241 476.643 104.734C476.15 105.226 475.483 105.503 474.787 105.503C474.067 105.503 473.407 105.203 472.912 104.753L468.457 100.253H456.367ZM454.912 88.2526V91.2526H451.912V92.7526H454.912V95.7526H456.412V92.7526H459.412V91.2526H456.412V88.2526H454.912ZM469.162 88.2526C468.863 88.2526 468.577 88.3711 468.366 88.5821C468.155 88.793 468.037 89.0792 468.037 89.3776C468.037 89.6759 468.155 89.9621 468.366 90.1731C468.577 90.384 468.863 90.5026 469.162 90.5026C469.46 90.5026 469.746 90.384 469.957 90.1731C470.168 89.9621 470.287 89.6759 470.287 89.3776C470.287 89.0792 470.168 88.793 469.957 88.5821C469.746 88.3711 469.46 88.2526 469.162 88.2526ZM466.537 90.8776C466.238 90.8776 465.952 90.9961 465.741 91.2071C465.53 91.418 465.412 91.7042 465.412 92.0026C465.412 92.3009 465.53 92.5871 465.741 92.7981C465.952 93.009 466.238 93.1276 466.537 93.1276C466.835 93.1276 467.121 93.009 467.332 92.7981C467.543 92.5871 467.662 92.3009 467.662 92.0026C467.662 91.7042 467.543 91.418 467.332 91.2071C467.121 90.9961 466.835 90.8776 466.537 90.8776ZM471.787 90.8776C471.488 90.8776 471.202 90.9961 470.991 91.2071C470.78 91.418 470.662 91.7042 470.662 92.0026C470.662 92.3009 470.78 92.5871 470.991 92.7981C471.202 93.009 471.488 93.1276 471.787 93.1276C472.085 93.1276 472.371 93.009 472.582 92.7981C472.793 92.5871 472.912 92.3009 472.912 92.0026C472.912 91.7042 472.793 91.418 472.582 91.2071C472.371 90.9961 472.085 90.8776 471.787 90.8776ZM469.162 93.5026C468.863 93.5026 468.577 93.6211 468.366 93.8321C468.155 94.043 468.037 94.3292 468.037 94.6276C468.037 94.9259 468.155 95.2121 468.366 95.4231C468.577 95.634 468.863 95.7526 469.162 95.7526C469.46 95.7526 469.746 95.634 469.957 95.4231C470.168 95.2121 470.287 94.9259 470.287 94.6276C470.287 94.3292 470.168 94.043 469.957 93.8321C469.746 93.6211 469.46 93.5026 469.162 93.5026Z" fill="black" fill-opacity="0.12"/>
<path d="M97.6143 200.735C98.4099 200.735 99.173 201.051 99.7356 201.614C100.298 202.176 100.614 202.939 100.614 203.735C100.614 204.95 99.8643 205.985 98.8593 206.465L96.1143 215.96V223.235H81.1143V215.96L78.3693 206.465C77.3643 205.985 76.6143 204.95 76.6143 203.735C76.6143 202.939 76.9303 202.176 77.4929 201.614C78.0555 201.051 78.8186 200.735 79.6143 200.735C80.4099 200.735 81.173 201.051 81.7356 201.614C82.2982 202.176 82.6143 202.939 82.6143 203.735C82.6143 204.485 82.3443 205.16 81.8643 205.685L86.0643 210.26L86.8593 204.665C86.1093 204.125 85.6143 203.24 85.6143 202.235C85.6143 201.439 85.9303 200.676 86.4929 200.114C87.0555 199.551 87.8186 199.235 88.6143 199.235C89.4099 199.235 90.173 199.551 90.7356 200.114C91.2982 200.676 91.6143 201.439 91.6143 202.235C91.6143 203.24 91.1193 204.125 90.3693 204.665L91.1643 210.26L95.3193 205.67C94.8633 205.128 94.6136 204.443 94.6143 203.735C94.6143 202.939 94.9303 202.176 95.4929 201.614C96.0555 201.051 96.8186 200.735 97.6143 200.735ZM78.1143 226.235H99.1143V229.235H78.1143V226.235Z" fill="black" fill-opacity="0.12"/>
<path d="M482.412 239.744C483.207 239.744 483.97 240.06 484.533 240.623C485.096 241.186 485.412 241.949 485.412 242.744C485.412 243.959 484.662 244.994 483.657 245.474L480.912 254.969V262.244H465.912V254.969L463.167 245.474C462.162 244.994 461.412 243.959 461.412 242.744C461.412 241.949 461.728 241.186 462.29 240.623C462.853 240.06 463.616 239.744 464.412 239.744C465.207 239.744 465.97 240.06 466.533 240.623C467.096 241.186 467.412 241.949 467.412 242.744C467.412 243.494 467.142 244.169 466.662 244.694L470.862 249.269L471.657 243.674C470.907 243.134 470.412 242.249 470.412 241.244C470.412 240.449 470.728 239.686 471.29 239.123C471.853 238.56 472.616 238.244 473.412 238.244C474.207 238.244 474.97 238.56 475.533 239.123C476.096 239.686 476.412 240.449 476.412 241.244C476.412 242.249 475.917 243.134 475.167 243.674L475.962 249.269L480.117 244.679C479.661 244.138 479.411 243.452 479.412 242.744C479.412 241.949 479.728 241.186 480.29 240.623C480.853 240.06 481.616 239.744 482.412 239.744ZM462.912 265.244H483.912V268.244H462.912V265.244Z" fill="black" fill-opacity="0.12"/>
<path d="M386.453 17.7346C387.249 17.7346 388.012 18.0507 388.574 18.6133C389.137 19.1759 389.453 19.939 389.453 20.7346C389.453 21.9496 388.703 22.9846 387.698 23.4646L384.953 32.9596V40.2346H369.953V32.9596L367.208 23.4646C366.203 22.9846 365.453 21.9496 365.453 20.7346C365.453 19.939 365.769 19.1759 366.332 18.6133C366.894 18.0507 367.657 17.7346 368.453 17.7346C369.249 17.7346 370.012 18.0507 370.574 18.6133C371.137 19.1759 371.453 19.939 371.453 20.7346C371.453 21.4846 371.183 22.1596 370.703 22.6846L374.903 27.2596L375.698 21.6646C374.948 21.1246 374.453 20.2396 374.453 19.2346C374.453 18.439 374.769 17.6759 375.332 17.1133C375.894 16.5507 376.657 16.2346 377.453 16.2346C378.249 16.2346 379.012 16.5507 379.574 17.1133C380.137 17.6759 380.453 18.439 380.453 19.2346C380.453 20.2396 379.958 21.1246 379.208 21.6646L380.003 27.2596L384.158 22.6696C383.702 22.128 383.452 21.4426 383.453 20.7346C383.453 19.939 383.769 19.1759 384.332 18.6133C384.894 18.0507 385.657 17.7346 386.453 17.7346ZM366.953 43.2346H387.953V46.2346H366.953V43.2346Z" fill="black" fill-opacity="0.12"/>
<path d="M73.7571 419.535H59.4714C57.9 419.535 56.6143 420.821 56.6143 422.392V445.25C56.6143 446.821 57.9 448.107 59.4714 448.107H73.7571C75.3285 448.107 76.6143 446.821 76.6143 445.25V422.392C76.6143 420.821 75.3285 419.535 73.7571 419.535ZM69.1857 438.107C68.6143 438.107 68.0428 437.964 67.4714 437.678L68.7571 440.964H64.4714L65.7571 437.678C65.1857 437.964 64.6143 438.107 64.0428 438.107C62.3285 438.107 60.9 436.678 60.9 434.964C60.9 432.821 62.9 431.107 65.7571 428.392L66.6143 427.678L67.4714 428.392C70.3285 431.107 72.3285 432.821 72.3285 434.964C72.3285 436.821 70.9 438.107 69.1857 438.107Z" fill="black" fill-opacity="0.12"/>
<path d="M112.785 27.8505H98.4997C96.9283 27.8505 95.6426 29.1362 95.6426 30.7076V53.5648C95.6426 55.1362 96.9283 56.4219 98.4997 56.4219H112.785C114.357 56.4219 115.643 55.1362 115.643 53.5648V30.7076C115.643 29.1362 114.357 27.8505 112.785 27.8505ZM108.214 46.4219C107.643 46.4219 107.071 46.279 106.5 45.9933L107.785 49.279H103.5L104.785 45.9933C104.214 46.279 103.643 46.4219 103.071 46.4219C101.357 46.4219 99.9283 44.9933 99.9283 43.279C99.9283 41.1362 101.928 39.4219 104.785 36.7076L105.643 35.9933L106.5 36.7076C109.357 39.4219 111.357 41.1362 111.357 43.279C111.357 45.1362 109.928 46.4219 108.214 46.4219Z" fill="black" fill-opacity="0.12"/>
<path d="M344.004 279.547H329.718C328.147 279.547 326.861 280.833 326.861 282.405V305.262C326.861 306.833 328.147 308.119 329.718 308.119H344.004C345.576 308.119 346.861 306.833 346.861 305.262V282.405C346.861 280.833 345.576 279.547 344.004 279.547ZM339.433 298.119C338.861 298.119 338.29 297.976 337.718 297.69L339.004 300.976H334.718L336.004 297.69C335.433 297.976 334.861 298.119 334.29 298.119C332.576 298.119 331.147 296.69 331.147 294.976C331.147 292.833 333.147 291.119 336.004 288.405L336.861 287.69L337.718 288.405C340.576 291.119 342.576 292.833 342.576 294.976C342.576 296.833 341.147 298.119 339.433 298.119Z" fill="black" fill-opacity="0.12"/>
<path d="M259.755 354.153H279.2C279.936 354.153 280.643 354.446 281.164 354.967C281.685 355.488 281.978 356.194 281.978 356.931V376.375C281.978 377.112 281.685 377.819 281.164 378.34C280.643 378.86 279.936 379.153 279.2 379.153H259.755C259.019 379.153 258.312 378.86 257.791 378.34C257.27 377.819 256.978 377.112 256.978 376.375V356.931C256.978 356.194 257.27 355.488 257.791 354.967C258.312 354.446 259.019 354.153 259.755 354.153ZM262.533 356.931C261.796 356.931 261.09 357.224 260.569 357.745C260.048 358.265 259.755 358.972 259.755 359.709C259.755 360.445 260.048 361.152 260.569 361.673C261.09 362.194 261.796 362.486 262.533 362.486C263.27 362.486 263.976 362.194 264.497 361.673C265.018 361.152 265.311 360.445 265.311 359.709C265.311 358.972 265.018 358.265 264.497 357.745C263.976 357.224 263.27 356.931 262.533 356.931ZM276.422 370.82C275.685 370.82 274.979 371.112 274.458 371.633C273.937 372.154 273.644 372.861 273.644 373.598C273.644 374.334 273.937 375.041 274.458 375.562C274.979 376.083 275.685 376.375 276.422 376.375C277.159 376.375 277.865 376.083 278.386 375.562C278.907 375.041 279.2 374.334 279.2 373.598C279.2 372.861 278.907 372.154 278.386 371.633C277.865 371.112 277.159 370.82 276.422 370.82ZM276.422 363.875C275.685 363.875 274.979 364.168 274.458 364.689C273.937 365.21 273.644 365.916 273.644 366.653C273.644 367.39 273.937 368.096 274.458 368.617C274.979 369.138 275.685 369.431 276.422 369.431C277.159 369.431 277.865 369.138 278.386 368.617C278.907 368.096 279.2 367.39 279.2 366.653C279.2 365.916 278.907 365.21 278.386 364.689C277.865 364.168 277.159 363.875 276.422 363.875ZM276.422 356.931C275.685 356.931 274.979 357.224 274.458 357.745C273.937 358.265 273.644 358.972 273.644 359.709C273.644 360.445 273.937 361.152 274.458 361.673C274.979 362.194 275.685 362.486 276.422 362.486C277.159 362.486 277.865 362.194 278.386 361.673C278.907 361.152 279.2 360.445 279.2 359.709C279.2 358.972 278.907 358.265 278.386 357.745C277.865 357.224 277.159 356.931 276.422 356.931ZM262.533 363.875C261.796 363.875 261.09 364.168 260.569 364.689C260.048 365.21 259.755 365.916 259.755 366.653C259.755 367.39 260.048 368.096 260.569 368.617C261.09 369.138 261.796 369.431 262.533 369.431C263.27 369.431 263.976 369.138 264.497 368.617C265.018 368.096 265.311 367.39 265.311 366.653C265.311 365.916 265.018 365.21 264.497 364.689C263.976 364.168 263.27 363.875 262.533 363.875ZM262.533 370.82C261.796 370.82 261.09 371.112 260.569 371.633C260.048 372.154 259.755 372.861 259.755 373.598C259.755 374.334 260.048 375.041 260.569 375.562C261.09 376.083 261.796 376.375 262.533 376.375C263.27 376.375 263.976 376.083 264.497 375.562C265.018 375.041 265.311 374.334 265.311 373.598C265.311 372.861 265.018 372.154 264.497 371.633C263.976 371.112 263.27 370.82 262.533 370.82Z" fill="black" fill-opacity="0.12"/>
<path d="M367.231 157.054H386.675C387.412 157.054 388.119 157.346 388.64 157.867C389.16 158.388 389.453 159.095 389.453 159.831V179.276C389.453 180.013 389.16 180.719 388.64 181.24C388.119 181.761 387.412 182.054 386.675 182.054H367.231C366.494 182.054 365.788 181.761 365.267 181.24C364.746 180.719 364.453 180.013 364.453 179.276V159.831C364.453 159.095 364.746 158.388 365.267 157.867C365.788 157.346 366.494 157.054 367.231 157.054ZM370.009 159.831C369.272 159.831 368.565 160.124 368.044 160.645C367.524 161.166 367.231 161.873 367.231 162.609C367.231 163.346 367.524 164.053 368.044 164.573C368.565 165.094 369.272 165.387 370.009 165.387C370.745 165.387 371.452 165.094 371.973 164.573C372.494 164.053 372.786 163.346 372.786 162.609C372.786 161.873 372.494 161.166 371.973 160.645C371.452 160.124 370.745 159.831 370.009 159.831ZM383.898 173.72C383.161 173.72 382.454 174.013 381.933 174.534C381.412 175.055 381.12 175.761 381.12 176.498C381.12 177.235 381.412 177.941 381.933 178.462C382.454 178.983 383.161 179.276 383.898 179.276C384.634 179.276 385.341 178.983 385.862 178.462C386.383 177.941 386.675 177.235 386.675 176.498C386.675 175.761 386.383 175.055 385.862 174.534C385.341 174.013 384.634 173.72 383.898 173.72ZM383.898 166.776C383.161 166.776 382.454 167.069 381.933 167.59C381.412 168.11 381.12 168.817 381.12 169.554C381.12 170.29 381.412 170.997 381.933 171.518C382.454 172.039 383.161 172.331 383.898 172.331C384.634 172.331 385.341 172.039 385.862 171.518C386.383 170.997 386.675 170.29 386.675 169.554C386.675 168.817 386.383 168.11 385.862 167.59C385.341 167.069 384.634 166.776 383.898 166.776ZM383.898 159.831C383.161 159.831 382.454 160.124 381.933 160.645C381.412 161.166 381.12 161.873 381.12 162.609C381.12 163.346 381.412 164.053 381.933 164.573C382.454 165.094 383.161 165.387 383.898 165.387C384.634 165.387 385.341 165.094 385.862 164.573C386.383 164.053 386.675 163.346 386.675 162.609C386.675 161.873 386.383 161.166 385.862 160.645C385.341 160.124 384.634 159.831 383.898 159.831ZM370.009 166.776C369.272 166.776 368.565 167.069 368.044 167.59C367.524 168.11 367.231 168.817 367.231 169.554C367.231 170.29 367.524 170.997 368.044 171.518C368.565 172.039 369.272 172.331 370.009 172.331C370.745 172.331 371.452 172.039 371.973 171.518C372.494 170.997 372.786 170.29 372.786 169.554C372.786 168.817 372.494 168.11 371.973 167.59C371.452 167.069 370.745 166.776 370.009 166.776ZM370.009 173.72C369.272 173.72 368.565 174.013 368.044 174.534C367.524 175.055 367.231 175.761 367.231 176.498C367.231 177.235 367.524 177.941 368.044 178.462C368.565 178.983 369.272 179.276 370.009 179.276C370.745 179.276 371.452 178.983 371.973 178.462C372.494 177.941 372.786 177.235 372.786 176.498C372.786 175.761 372.494 175.055 371.973 174.534C371.452 174.013 370.745 173.72 370.009 173.72Z" fill="black" fill-opacity="0.12"/>
</svg>
