<svg width="141" height="187" viewBox="0 0 141 187" fill="none" xmlns="http://www.w3.org/2000/svg">
<path fill-rule="evenodd" clip-rule="evenodd" d="M34.624 10.8957L28.4874 3L20.5918 9.13664L26.7284 17.0324L34.624 10.8957ZM32.2854 10.6025L28.1942 5.33872L22.9304 9.4298L27.0216 14.6936L32.2854 10.6025Z" fill="white" fill-opacity="0.05"/>
<path fill-rule="evenodd" clip-rule="evenodd" d="M54.0861 12.6509L57.2511 3.16502L47.7651 0L44.6001 9.4859L54.0861 12.6509ZM53.0325 10.5424L55.1425 4.2185L48.8187 2.10848L46.7085 8.43242L53.0325 10.5424Z" fill="white" fill-opacity="0.05"/>
<path fill-rule="evenodd" clip-rule="evenodd" d="M14.5244 35.2286L20.6284 27.3078L12.7076 21.2036L6.60352 29.1246L14.5244 35.2286ZM14.2216 32.8912L18.291 27.6106L13.0104 23.5412L8.94102 28.8218L14.2216 32.8912Z" fill="white" fill-opacity="0.05"/>
<path fill-rule="evenodd" clip-rule="evenodd" d="M13.2717 12.9705L11.3703 3.15295L1.55273 5.05437L3.45417 14.872L13.2717 12.9705ZM11.3186 11.6512L10.0509 5.10611L3.50589 6.37373L4.77351 12.9188L11.3186 11.6512Z" fill="white" fill-opacity="0.05"/>
<path fill-rule="evenodd" clip-rule="evenodd" d="M40.3867 36.8944L38.6947 27.0386L28.8389 28.7306L30.5309 38.5864L40.3867 36.8944ZM38.4621 35.5338L37.3341 28.9632L30.7635 30.0912L31.8915 36.6618L38.4621 35.5338Z" fill="white" fill-opacity="0.05"/>
<path fill-rule="evenodd" clip-rule="evenodd" d="M82.9482 15.2558L81.2562 5.40002L71.4004 7.092L73.0924 16.9478L82.9482 15.2558ZM81.0236 13.8952L79.8956 7.32466L73.325 8.45264L74.453 15.0232L81.0236 13.8952Z" fill="white" fill-opacity="0.05"/>
<path fill-rule="evenodd" clip-rule="evenodd" d="M26.2375 85.447L29.2471 75.9106L19.7109 72.901L16.7012 82.4372L26.2375 85.447ZM25.1497 83.356L27.1563 76.9984L20.7987 74.992L18.7923 81.3494L25.1497 83.356Z" fill="white" fill-opacity="0.05"/>
<path fill-rule="evenodd" clip-rule="evenodd" d="M19.5872 63.8263L29.4262 62.039L27.6388 52.2L17.7998 53.9874L19.5872 63.8263ZM20.9292 61.8885L27.4884 60.6969L26.2968 54.1378L19.7376 55.3294L20.9292 61.8885Z" fill="white" fill-opacity="0.05"/>
<path fill-rule="evenodd" clip-rule="evenodd" d="M0 57.3482L9.94822 58.3644L10.9644 48.4162L1.0162 47.4L0 57.3482ZM1.8274 55.8596L8.45956 56.537L9.13702 49.9048L2.50486 49.2274L1.8274 55.8596Z" fill="white" fill-opacity="0.05"/>
<path fill-rule="evenodd" clip-rule="evenodd" d="M2.3977 89.106L12.106 86.7084L9.7083 77L0 79.3978L2.3977 89.106ZM3.61612 87.0884L10.0883 85.4898L8.48986 79.0176L2.01766 80.6162L3.61612 87.0884Z" fill="white" fill-opacity="0.05"/>
<path fill-rule="evenodd" clip-rule="evenodd" d="M59.5816 50.5308L66.9306 43.749L60.1488 36.4L52.7998 43.1818L59.5816 50.5308ZM59.6762 48.1756L64.5754 43.6544L60.0542 38.7552L55.155 43.2764L59.6762 48.1756Z" fill="white" fill-opacity="0.05"/>
<path fill-rule="evenodd" clip-rule="evenodd" d="M49.4004 28.148L59.3484 29.1664L60.3668 19.2182L50.4186 18.2L49.4004 28.148ZM51.2282 26.6598L57.8602 27.3385L58.539 20.7066L51.907 20.0278L51.2282 26.6598Z" fill="white" fill-opacity="0.05"/>
<path fill-rule="evenodd" clip-rule="evenodd" d="M80.0523 45.1636L88.5635 39.914L83.3139 31.4028L74.8027 36.6524L80.0523 45.1636ZM80.5959 42.8702L86.2701 39.3704L82.7703 33.6962L77.0961 37.196L80.5959 42.8702Z" fill="white" fill-opacity="0.05"/>
<path fill-rule="evenodd" clip-rule="evenodd" d="M49.7466 67.5938L50.3942 57.6148L40.4152 56.9672L39.7676 66.9462L49.7466 67.5938ZM48.1914 65.8226L48.623 59.17L41.9704 58.7382L41.5386 65.391L48.1914 65.8226Z" fill="white" fill-opacity="0.05"/>
<path fill-rule="evenodd" clip-rule="evenodd" d="M74.8564 61.8044L68.6042 54L60.7998 60.2522L67.052 68.0566L74.8564 61.8044ZM72.5138 61.5458L68.3456 56.3428L63.1426 60.511L67.3108 65.714L72.5138 61.5458Z" fill="white" fill-opacity="0.05"/>
<path fill-rule="evenodd" clip-rule="evenodd" d="M93.2421 71.6354L91.4355 61.8L81.6001 63.6065L83.4065 73.442L93.2421 71.6354ZM91.3017 70.2974L90.0975 63.7404L83.5405 64.9446L84.7447 71.5016L91.3017 70.2974Z" fill="white" fill-opacity="0.05"/>
<path fill-rule="evenodd" clip-rule="evenodd" d="M85.6586 92.238L89.4384 82.9797L80.1802 79.2L76.4004 88.4581L85.6586 92.238ZM84.7454 90.065L87.2654 83.8927L81.0932 81.3729L78.5734 87.545L84.7454 90.065Z" fill="white" fill-opacity="0.05"/>
<path fill-rule="evenodd" clip-rule="evenodd" d="M60.2744 86.0192L57.0194 76.5638L47.564 79.8188L50.819 89.2742L60.2744 86.0192ZM58.156 84.9858L55.986 78.6822L49.6824 80.8522L51.8524 87.1558L58.156 84.9858Z" fill="white" fill-opacity="0.05"/>
<path fill-rule="evenodd" clip-rule="evenodd" d="M35.624 102.896L29.4874 95L21.5918 101.137L27.7284 109.032L35.624 102.896ZM33.2854 102.602L29.1942 97.3387L23.9304 101.43L28.0216 106.694L33.2854 102.602Z" fill="white" fill-opacity="0.05"/>
<path fill-rule="evenodd" clip-rule="evenodd" d="M55.0861 104.651L58.2511 95.165L48.7651 92L45.6001 101.486L55.0861 104.651ZM54.0325 102.542L56.1425 96.2185L49.8187 94.1085L47.7085 100.432L54.0325 102.542Z" fill="white" fill-opacity="0.05"/>
<path fill-rule="evenodd" clip-rule="evenodd" d="M15.5244 127.229L21.6284 119.308L13.7076 113.204L7.60352 121.125L15.5244 127.229ZM15.2216 124.891L19.291 119.611L14.0104 115.541L9.94102 120.822L15.2216 124.891Z" fill="white" fill-opacity="0.05"/>
<path fill-rule="evenodd" clip-rule="evenodd" d="M14.2717 104.971L12.3703 95.153L2.55273 97.0544L4.45417 106.872L14.2717 104.971ZM12.3186 103.651L11.0509 97.1061L4.50589 98.3737L5.77351 104.919L12.3186 103.651Z" fill="white" fill-opacity="0.05"/>
<path fill-rule="evenodd" clip-rule="evenodd" d="M41.3867 128.894L39.6947 119.039L29.8389 120.731L31.5309 130.586L41.3867 128.894ZM39.4621 127.534L38.3341 120.963L31.7635 122.091L32.8915 128.662L39.4621 127.534Z" fill="white" fill-opacity="0.05"/>
<path fill-rule="evenodd" clip-rule="evenodd" d="M83.9482 107.256L82.2562 97.4L72.4004 99.092L74.0924 108.948L83.9482 107.256ZM82.0236 105.895L80.8956 99.3247L74.325 100.453L75.453 107.023L82.0236 105.895Z" fill="white" fill-opacity="0.05"/>
<path fill-rule="evenodd" clip-rule="evenodd" d="M27.2375 177.447L30.2471 167.911L20.7109 164.901L17.7012 174.437L27.2375 177.447ZM26.1497 175.356L28.1563 168.998L21.7987 166.992L19.7923 173.349L26.1497 175.356Z" fill="white" fill-opacity="0.05"/>
<path fill-rule="evenodd" clip-rule="evenodd" d="M20.5872 155.826L30.4262 154.039L28.6388 144.2L18.7998 145.987L20.5872 155.826ZM21.9292 153.889L28.4884 152.697L27.2968 146.138L20.7376 147.329L21.9292 153.889Z" fill="white" fill-opacity="0.05"/>
<path fill-rule="evenodd" clip-rule="evenodd" d="M1 149.348L10.9482 150.364L11.9644 140.416L2.0162 139.4L1 149.348ZM2.8274 147.86L9.45956 148.537L10.137 141.905L3.50486 141.227L2.8274 147.86Z" fill="white" fill-opacity="0.05"/>
<path fill-rule="evenodd" clip-rule="evenodd" d="M3.3977 181.106L13.106 178.708L10.7083 169L1 171.398L3.3977 181.106ZM4.61612 179.088L11.0883 177.49L9.48986 171.018L3.01766 172.616L4.61612 179.088Z" fill="white" fill-opacity="0.05"/>
<path fill-rule="evenodd" clip-rule="evenodd" d="M60.5816 142.531L67.9306 135.749L61.1488 128.4L53.7998 135.182L60.5816 142.531ZM60.6762 140.176L65.5754 135.654L61.0542 130.755L56.155 135.276L60.6762 140.176Z" fill="white" fill-opacity="0.05"/>
<path fill-rule="evenodd" clip-rule="evenodd" d="M50.4004 120.148L60.3484 121.166L61.3668 111.218L51.4186 110.2L50.4004 120.148ZM52.2282 118.66L58.8602 119.339L59.539 112.707L52.907 112.028L52.2282 118.66Z" fill="white" fill-opacity="0.05"/>
<path fill-rule="evenodd" clip-rule="evenodd" d="M81.0523 137.164L89.5635 131.914L84.3139 123.403L75.8027 128.652L81.0523 137.164ZM81.5959 134.87L87.2701 131.37L83.7703 125.696L78.0961 129.196L81.5959 134.87Z" fill="white" fill-opacity="0.05"/>
<path fill-rule="evenodd" clip-rule="evenodd" d="M50.7466 159.594L51.3942 149.615L41.4152 148.967L40.7676 158.946L50.7466 159.594ZM49.1914 157.823L49.623 151.17L42.9704 150.738L42.5386 157.391L49.1914 157.823Z" fill="white" fill-opacity="0.05"/>
<path fill-rule="evenodd" clip-rule="evenodd" d="M75.8564 153.804L69.6042 146L61.7998 152.252L68.052 160.057L75.8564 153.804ZM73.5138 153.546L69.3456 148.343L64.1426 152.511L68.3108 157.714L73.5138 153.546Z" fill="white" fill-opacity="0.05"/>
<path fill-rule="evenodd" clip-rule="evenodd" d="M94.2421 163.635L92.4355 153.8L82.6001 155.606L84.4065 165.442L94.2421 163.635ZM92.3017 162.297L91.0975 155.74L84.5405 156.945L85.7447 163.502L92.3017 162.297Z" fill="white" fill-opacity="0.05"/>
<path fill-rule="evenodd" clip-rule="evenodd" d="M86.6586 184.238L90.4384 174.98L81.1802 171.2L77.4004 180.458L86.6586 184.238ZM85.7454 182.065L88.2654 175.893L82.0932 173.373L79.5734 179.545L85.7454 182.065Z" fill="white" fill-opacity="0.05"/>
<path fill-rule="evenodd" clip-rule="evenodd" d="M61.2744 178.019L58.0194 168.564L48.564 171.819L51.819 181.274L61.2744 178.019ZM59.156 176.986L56.986 170.682L50.6824 172.852L52.8524 179.156L59.156 176.986Z" fill="white" fill-opacity="0.05"/>
<path fill-rule="evenodd" clip-rule="evenodd" d="M128.624 11.8957L122.487 4L114.592 10.1366L120.728 18.0324L128.624 11.8957ZM126.285 11.6025L122.194 6.33872L116.93 10.4298L121.022 15.6936L126.285 11.6025Z" fill="white" fill-opacity="0.05"/>
<path fill-rule="evenodd" clip-rule="evenodd" d="M108.524 36.2286L114.628 28.3078L106.708 22.2036L100.604 30.1246L108.524 36.2286ZM108.222 33.8912L112.291 28.6106L107.01 24.5412L102.941 29.8218L108.222 33.8912Z" fill="white" fill-opacity="0.05"/>
<path fill-rule="evenodd" clip-rule="evenodd" d="M107.272 13.9705L105.37 4.15295L95.5527 6.05437L97.4542 15.872L107.272 13.9705ZM105.319 12.6512L104.051 6.10611L97.5059 7.37373L98.7735 13.9188L105.319 12.6512Z" fill="white" fill-opacity="0.05"/>
<path fill-rule="evenodd" clip-rule="evenodd" d="M134.387 37.8944L132.695 28.0386L122.839 29.7306L124.531 39.5864L134.387 37.8944ZM132.462 36.5338L131.334 29.9632L124.763 31.0912L125.891 37.6618L132.462 36.5338Z" fill="white" fill-opacity="0.05"/>
<path fill-rule="evenodd" clip-rule="evenodd" d="M120.237 86.447L123.247 76.9106L113.711 73.901L110.701 83.4372L120.237 86.447ZM119.15 84.356L121.156 77.9984L114.799 75.992L112.792 82.3494L119.15 84.356Z" fill="white" fill-opacity="0.05"/>
<path fill-rule="evenodd" clip-rule="evenodd" d="M113.587 64.8263L123.426 63.039L121.639 53.2L111.8 54.9874L113.587 64.8263ZM114.929 62.8885L121.488 61.6969L120.297 55.1378L113.738 56.3294L114.929 62.8885Z" fill="white" fill-opacity="0.05"/>
<path fill-rule="evenodd" clip-rule="evenodd" d="M94 58.3482L103.948 59.3644L104.964 49.4162L95.0162 48.4L94 58.3482ZM95.8274 56.8596L102.46 57.537L103.137 50.9048L96.5049 50.2274L95.8274 56.8596Z" fill="white" fill-opacity="0.05"/>
<path fill-rule="evenodd" clip-rule="evenodd" d="M96.3977 90.106L106.106 87.7084L103.708 78L94 80.3978L96.3977 90.106ZM97.6161 88.0884L104.088 86.4898L102.49 80.0176L96.0177 81.6162L97.6161 88.0884Z" fill="white" fill-opacity="0.05"/>
<path fill-rule="evenodd" clip-rule="evenodd" d="M134.624 107.896L128.487 100L120.592 106.137L126.728 114.032L134.624 107.896ZM132.285 107.602L128.194 102.339L122.93 106.43L127.022 111.694L132.285 107.602Z" fill="white" fill-opacity="0.05"/>
<path fill-rule="evenodd" clip-rule="evenodd" d="M114.524 132.229L120.628 124.308L112.708 118.204L106.604 126.125L114.524 132.229ZM114.222 129.891L118.291 124.611L113.01 120.541L108.941 125.822L114.222 129.891Z" fill="white" fill-opacity="0.05"/>
<path fill-rule="evenodd" clip-rule="evenodd" d="M113.272 109.971L111.37 100.153L101.553 102.054L103.454 111.872L113.272 109.971ZM111.319 108.651L110.051 102.106L103.506 103.374L104.774 109.919L111.319 108.651Z" fill="white" fill-opacity="0.05"/>
<path fill-rule="evenodd" clip-rule="evenodd" d="M140.387 133.894L138.695 124.039L128.839 125.731L130.531 135.586L140.387 133.894ZM138.462 132.534L137.334 125.963L130.763 127.091L131.891 133.662L138.462 132.534Z" fill="white" fill-opacity="0.05"/>
<path fill-rule="evenodd" clip-rule="evenodd" d="M126.237 182.447L129.247 172.911L119.711 169.901L116.701 179.437L126.237 182.447ZM125.15 180.356L127.156 173.998L120.799 171.992L118.792 178.349L125.15 180.356Z" fill="white" fill-opacity="0.05"/>
<path fill-rule="evenodd" clip-rule="evenodd" d="M119.587 160.826L129.426 159.039L127.639 149.2L117.8 150.987L119.587 160.826ZM120.929 158.889L127.488 157.697L126.297 151.138L119.738 152.329L120.929 158.889Z" fill="white" fill-opacity="0.05"/>
<path fill-rule="evenodd" clip-rule="evenodd" d="M100 154.348L109.948 155.364L110.964 145.416L101.016 144.4L100 154.348ZM101.827 152.86L108.46 153.537L109.137 146.905L102.505 146.227L101.827 152.86Z" fill="white" fill-opacity="0.05"/>
<path fill-rule="evenodd" clip-rule="evenodd" d="M102.398 186.106L112.106 183.708L109.708 174L100 176.398L102.398 186.106ZM103.616 184.088L110.088 182.49L108.49 176.018L102.018 177.616L103.616 184.088Z" fill="white" fill-opacity="0.05"/>
</svg>
