<svg width="175" height="125" viewBox="0 0 175 125" fill="none" xmlns="http://www.w3.org/2000/svg">
<rect width="175" height="125" fill="#282828"/>
<path d="M48.2492 27.5175L48.5882 28.0261H47.9828C47.9222 29.12 47.7809 30.2098 47.5791 31.2876L47.1755 31.223C47.3773 30.1654 47.5145 29.0998 47.5791 28.0261H46.9736L47.3127 27.5175C46.4247 27.134 45.7627 25.7495 45.7627 24.7969C45.7627 24.2617 45.9753 23.7483 46.3538 23.3698C46.7323 22.9913 47.2457 22.7787 47.7809 22.7787C48.046 22.7787 48.3084 22.8309 48.5533 22.9323C48.7981 23.0337 49.0206 23.1824 49.208 23.3698C49.3955 23.5572 49.5441 23.7797 49.6455 24.0246C49.747 24.2694 49.7992 24.5319 49.7992 24.7969C49.7992 25.7495 49.1372 27.134 48.2492 27.5175Z" fill="#B87DE8" fill-opacity="0.08"/>
<path d="M106.897 94.2405L107.236 94.7491H106.63C106.57 95.843 106.428 96.9329 106.227 98.0106L105.823 97.946C106.025 96.8885 106.162 95.8228 106.227 94.7491H105.621L105.96 94.2405C105.072 93.8571 104.41 92.4726 104.41 91.5199C104.41 90.9847 104.623 90.4713 105.001 90.0928C105.38 89.7143 105.893 89.5017 106.428 89.5017C106.693 89.5017 106.956 89.5539 107.201 89.6553C107.446 89.7568 107.668 89.9054 107.856 90.0928C108.043 90.2802 108.192 90.5027 108.293 90.7476C108.394 90.9925 108.447 91.2549 108.447 91.5199C108.447 92.4726 107.785 93.8571 106.897 94.2405Z" fill="#B87DE8" fill-opacity="0.08"/>
<path d="M13.7674 21.9474H10.5382C10.3955 21.9474 10.2586 22.0041 10.1576 22.105C10.0567 22.206 10 22.3428 10 22.4856V25.7148C10 26.7333 10.3076 27.6781 10.9456 28.3708C10.9766 28.4044 11.0083 28.4375 11.0409 28.4698C11.1106 28.4292 11.1916 28.4057 11.2782 28.4057C11.3993 28.4057 11.5142 28.3358 11.5734 28.2292C11.4917 28.1596 11.4142 28.0851 11.3415 28.0061C10.8135 27.433 10.5382 26.6284 10.5382 25.7148C10.5382 25.517 10.5511 25.3246 10.5767 25.1381L13.1934 22.5214C13.3837 22.4971 13.5755 22.4851 13.7674 22.4856C14.7856 22.4856 15.5445 22.7994 16.0679 23.2958C16.0857 23.294 16.1037 23.2929 16.122 23.2929C16.2964 23.2929 16.4584 23.1473 16.4584 22.9565C16.4584 22.9463 16.4586 22.9361 16.4594 22.9258C15.8222 22.3099 14.917 21.9474 13.7674 21.9474ZM10.5382 22.4856H11.1878L10.5382 23.1352V22.4856ZM11.7723 22.4856H12.4682L10.5382 24.4156V23.7197L11.7723 22.4856ZM13.7674 29.4821C13.0892 29.4821 12.4962 29.3559 11.9927 29.1261C12.1538 29.0182 12.2883 28.8752 12.3864 28.7079C12.7787 28.8592 13.2381 28.9439 13.7674 28.9439C14.8701 28.9439 15.6686 28.5758 16.1933 28.0061C16.3525 27.8326 16.4889 27.6396 16.5994 27.4316C16.8802 27.3725 17.1384 27.2349 17.344 27.0347C17.189 27.536 16.9387 27.9911 16.5891 28.3708C15.9479 29.0672 14.9974 29.4821 13.7674 29.4821Z" fill="#B87DE8" fill-opacity="0.08"/>
<path d="M15.6142 25.1036C15.7238 24.9575 15.8672 24.838 16.0327 24.7568C16.0096 24.7229 15.9841 24.6908 15.9565 24.6604C15.8021 24.4909 15.569 24.3693 15.2472 24.3693C14.9286 24.3693 14.6964 24.4853 14.5411 24.6545C14.3936 24.8149 14.3341 25.0025 14.3105 25.1254C14.3028 25.1605 14.3023 25.1967 14.3088 25.232C14.3154 25.2673 14.3289 25.3009 14.3486 25.3308C14.3684 25.3608 14.3939 25.3865 14.4237 25.4064C14.4535 25.4264 14.487 25.4402 14.5222 25.447C14.5575 25.4538 14.5937 25.4535 14.6288 25.4461C14.6639 25.4388 14.6972 25.4244 14.7266 25.404C14.7561 25.3836 14.7812 25.3574 14.8005 25.3272C14.8197 25.2969 14.8327 25.2631 14.8387 25.2277C14.8516 25.1615 14.8812 25.0797 14.9375 25.0186C14.9859 24.9659 15.0715 24.9075 15.2472 24.9075C15.42 24.9075 15.508 24.9672 15.5585 25.0229C15.5817 25.0479 15.6 25.0759 15.6142 25.1036ZM17.4864 25.0321C17.3203 24.8504 17.1028 24.7236 16.8629 24.6688C16.8115 24.4781 16.7429 24.2924 16.6578 24.1142C16.8251 24.0362 16.9741 23.9236 17.0948 23.784C17.2921 24.165 17.4218 24.5867 17.4864 25.0321ZM12.2465 25.0183C12.19 25.0797 12.1604 25.1615 12.1477 25.228C12.1341 25.2981 12.0932 25.3599 12.034 25.3998C11.9748 25.4397 11.9022 25.4545 11.8321 25.4408C11.762 25.4272 11.7002 25.3863 11.6603 25.3271C11.6203 25.2679 11.6056 25.1953 11.6192 25.1252C11.6432 25.0025 11.7026 24.8149 11.8501 24.6545C12.0054 24.4853 12.2376 24.3693 12.5562 24.3693C12.8778 24.3693 13.1111 24.4909 13.2656 24.6604C13.4119 24.8211 13.4728 25.0081 13.4943 25.1306C13.5065 25.2009 13.4903 25.2732 13.4492 25.3316C13.408 25.3899 13.3454 25.4296 13.2751 25.4418C13.2048 25.454 13.1325 25.4377 13.0741 25.3966C13.0157 25.3555 12.9761 25.2929 12.9639 25.2226C12.9504 25.1485 12.9171 25.0795 12.8676 25.0229C12.8172 24.9672 12.729 24.9075 12.5562 24.9075C12.3805 24.9075 12.2946 24.9659 12.2465 25.0183ZM16.4581 22.4856C16.5295 22.4856 16.598 22.4572 16.6484 22.4068C16.6989 22.3563 16.7272 22.2879 16.7272 22.2165C16.7272 22.1451 16.6989 22.0767 16.6484 22.0262C16.598 21.9757 16.5295 21.9474 16.4581 21.9474C16.3868 21.9474 16.3183 21.9757 16.2679 22.0262C16.2174 22.0767 16.189 22.1451 16.189 22.2165C16.189 22.2879 16.2174 22.3563 16.2679 22.4068C16.3183 22.4572 16.3868 22.4856 16.4581 22.4856ZM16.9291 22.7547C16.9826 22.7547 17.0339 22.7759 17.0718 22.8138C17.1096 22.8516 17.1309 22.903 17.1309 22.9565C17.1309 23.548 16.6379 23.9656 16.1218 23.9656C16.0682 23.9656 16.0169 23.9444 15.9791 23.9065C15.9412 23.8687 15.9199 23.8173 15.9199 23.7638C15.9199 23.7103 15.9412 23.6589 15.9791 23.6211C16.0169 23.5832 16.0682 23.562 16.1218 23.562C16.4337 23.562 16.7272 23.3069 16.7272 22.9565C16.7272 22.903 16.7485 22.8516 16.7864 22.8138C16.8242 22.7759 16.8755 22.7547 16.9291 22.7547ZM12.0853 27.8676C12.1388 27.8676 12.1902 27.8888 12.228 27.9267C12.2659 27.9645 12.2871 28.0158 12.2871 28.0694C12.2871 28.6609 11.7941 29.0785 11.278 29.0785C11.2245 29.0785 11.1731 29.0572 11.1353 29.0194C11.0974 28.9815 11.0762 28.9302 11.0762 28.8767C11.0762 28.8231 11.0974 28.7718 11.1353 28.734C11.1731 28.6961 11.2245 28.6748 11.278 28.6748C11.5899 28.6748 11.8835 28.4197 11.8835 28.0694C11.8835 28.0158 11.9047 27.9645 11.9426 27.9267C11.9804 27.8888 12.0318 27.8676 12.0853 27.8676ZM16.7272 29.213C16.7986 29.213 16.8671 29.1847 16.9175 29.1342C16.968 29.0838 16.9963 29.0153 16.9963 28.9439C16.9963 28.8726 16.968 28.8041 16.9175 28.7537C16.8671 28.7032 16.7986 28.6748 16.7272 28.6748C16.6559 28.6748 16.5874 28.7032 16.537 28.7537C16.4865 28.8041 16.4581 28.8726 16.4581 28.9439C16.4581 29.0153 16.4865 29.0838 16.537 29.1342C16.5874 29.1847 16.6559 29.213 16.7272 29.213ZM12.1526 26.7912C12.1526 26.8625 12.1242 26.931 12.0737 26.9814C12.0233 27.0319 11.9548 27.0603 11.8835 27.0603C11.8121 27.0603 11.7437 27.0319 11.6932 26.9814C11.6427 26.931 11.6144 26.8625 11.6144 26.7912C11.6144 26.7198 11.6427 26.6513 11.6932 26.6009C11.7437 26.5504 11.8121 26.5221 11.8835 26.5221C11.9548 26.5221 12.0233 26.5504 12.0737 26.6009C12.1242 26.6513 12.1526 26.7198 12.1526 26.7912ZM16.5445 24.9075C16.4272 24.9075 16.311 24.9306 16.2025 24.9755C16.0941 25.0204 15.9956 25.0862 15.9126 25.1692C15.8296 25.2522 15.7638 25.3507 15.7189 25.4592C15.674 25.5676 15.6508 25.6838 15.6508 25.8011V25.9166C15.6508 25.9961 15.6665 26.0748 15.6969 26.1483C15.7274 26.2218 15.772 26.2885 15.8282 26.3447C15.8844 26.4009 15.9512 26.4455 16.0246 26.476C16.0981 26.5064 16.1768 26.5221 16.2563 26.5221C16.3812 26.5221 16.501 26.4724 16.5893 26.3841C16.6776 26.2958 16.7272 26.176 16.7272 26.0511V25.9166C16.7272 25.8631 16.706 25.8117 16.6681 25.7739C16.6303 25.736 16.5789 25.7148 16.5254 25.7148C16.4719 25.7148 16.4206 25.736 16.3827 25.7739C16.3449 25.8117 16.3236 25.8631 16.3236 25.9166V26.0511C16.3236 26.069 16.3165 26.0861 16.3039 26.0987C16.2913 26.1113 16.2742 26.1184 16.2563 26.1184C16.2028 26.1184 16.1515 26.0971 16.1136 26.0593C16.0758 26.0215 16.0545 25.9701 16.0545 25.9166V25.8011C16.0545 25.5304 16.2741 25.3111 16.5445 25.3111H16.5927C16.7354 25.3111 16.8723 25.3678 16.9733 25.4688C17.0742 25.5697 17.1309 25.7066 17.1309 25.8493V25.9465C17.1309 26.1705 17.0419 26.3853 16.8835 26.5438C16.7251 26.7022 16.5102 26.7912 16.2862 26.7912H14.878C14.9006 26.6918 14.9006 26.5887 14.8779 26.4893C14.8552 26.39 14.8104 26.2971 14.7469 26.2175C14.6833 26.1378 14.6026 26.0736 14.5108 26.0294C14.419 25.9852 14.3184 25.9623 14.2165 25.9623C14.1452 25.9623 14.0767 25.9907 14.0263 26.0412C13.9758 26.0916 13.9475 26.1601 13.9475 26.2314C13.9475 26.3028 13.9758 26.3713 14.0263 26.4217C14.0767 26.4722 14.1452 26.5005 14.2165 26.5005C14.2349 26.5005 14.2531 26.5042 14.2701 26.5112C14.2871 26.5182 14.3025 26.5285 14.3155 26.5415C14.3285 26.5545 14.3388 26.5699 14.3458 26.5869C14.3529 26.6039 14.3565 26.6221 14.3565 26.6405C14.3565 26.6588 14.3529 26.677 14.3458 26.694C14.3388 26.711 14.3285 26.7264 14.3155 26.7394C14.3025 26.7524 14.2871 26.7627 14.2701 26.7697C14.2531 26.7768 14.2349 26.7804 14.2165 26.7804C14.1452 26.7804 14.0767 26.8087 14.0263 26.8592C13.9758 26.9097 13.9475 26.9781 13.9475 27.0495C13.9475 27.1209 13.9758 27.1893 14.0263 27.2398C14.0767 27.2902 14.1452 27.3186 14.2165 27.3186C14.2537 27.3186 14.2893 27.3333 14.3155 27.3596C14.3417 27.3858 14.3565 27.4214 14.3565 27.4585C14.3565 27.4956 14.3417 27.5312 14.3155 27.5575C14.2893 27.5837 14.2537 27.5985 14.2165 27.5985C14.1452 27.5985 14.0767 27.6268 14.0263 27.6773C13.9758 27.7277 13.9475 27.7962 13.9475 27.8676C13.9475 27.9389 13.9758 28.0074 14.0263 28.0578C14.0767 28.1083 14.1452 28.1367 14.2165 28.1367C14.3285 28.1367 14.4386 28.109 14.5373 28.0561C14.6359 28.0032 14.7199 27.9267 14.7817 27.8334C14.8436 27.7402 14.8814 27.633 14.8918 27.5216C14.9022 27.4102 14.8849 27.2979 14.8414 27.1948H16.2865C16.6175 27.1947 16.9349 27.0632 17.169 26.8291C17.403 26.595 17.5345 26.2775 17.5345 25.9465V25.8493C17.5345 25.5995 17.4353 25.36 17.2587 25.1833C17.082 25.0067 16.8425 24.9075 16.5927 24.9075H16.5445Z" fill="#B87DE8" fill-opacity="0.08"/>
<path d="M44.9554 114.899H41.7262C41.5834 114.899 41.4466 114.956 41.3456 115.057C41.2447 115.158 41.188 115.295 41.188 115.437V118.667C41.188 119.685 41.4956 120.63 42.1336 121.323C42.1645 121.356 42.1963 121.389 42.2289 121.422C42.2986 121.381 42.3796 121.358 42.4662 121.358C42.5873 121.358 42.7022 121.288 42.7614 121.181C42.6796 121.112 42.6022 121.037 42.5294 120.958C42.0015 120.385 41.7262 119.58 41.7262 118.667C41.7262 118.469 41.7391 118.276 41.7647 118.09L44.3814 115.473C44.5717 115.449 44.7635 115.437 44.9554 115.437C45.9736 115.437 46.7325 115.751 47.2559 116.248C47.2736 116.246 47.2917 116.245 47.31 116.245C47.4844 116.245 47.6463 116.099 47.6463 115.908C47.6463 115.898 47.6466 115.888 47.6474 115.878C47.0102 115.262 46.105 114.899 44.9554 114.899ZM41.7262 115.437H42.3758L41.7262 116.087V115.437ZM42.9603 115.437H43.6562L41.7262 117.367V116.672L42.9603 115.437ZM44.9554 122.434C44.2772 122.434 43.6841 122.308 43.1807 122.078C43.3417 121.97 43.4763 121.827 43.5744 121.66C43.9667 121.811 44.426 121.896 44.9554 121.896C46.0581 121.896 46.8565 121.528 47.3813 120.958C47.5405 120.785 47.6769 120.591 47.7874 120.384C48.0681 120.324 48.3264 120.187 48.532 119.987C48.377 120.488 48.1267 120.943 47.7771 121.323C47.1359 122.019 46.1854 122.434 44.9554 122.434Z" fill="#B87DE8" fill-opacity="0.08"/>
<path d="M46.8022 118.056C46.9118 117.909 47.0552 117.79 47.2207 117.709C47.1976 117.675 47.1721 117.643 47.1445 117.612C46.9901 117.443 46.757 117.321 46.4352 117.321C46.1166 117.321 45.8843 117.437 45.7291 117.606C45.5816 117.767 45.5221 117.954 45.4985 118.077C45.4908 118.112 45.4902 118.149 45.4968 118.184C45.5034 118.219 45.5169 118.253 45.5366 118.283C45.5564 118.313 45.5819 118.338 45.6117 118.358C45.6415 118.378 45.675 118.392 45.7102 118.399C45.7454 118.406 45.7817 118.405 45.8168 118.398C45.8519 118.391 45.8852 118.376 45.9146 118.356C45.9441 118.335 45.9692 118.309 45.9885 118.279C46.0077 118.249 46.0207 118.215 46.0267 118.18C46.0396 118.113 46.0692 118.032 46.1255 117.971C46.1739 117.918 46.2595 117.859 46.4352 117.859C46.6079 117.859 46.6959 117.919 46.7465 117.975C46.7697 118 46.788 118.028 46.8022 118.056ZM48.6744 117.984C48.5083 117.802 48.2908 117.676 48.0509 117.621C47.9995 117.43 47.9308 117.244 47.8458 117.066C48.0131 116.988 48.1621 116.876 48.2828 116.736C48.4801 117.117 48.6098 117.539 48.6744 117.984ZM43.4345 117.97C43.378 118.032 43.3484 118.113 43.3357 118.18C43.3221 118.25 43.2812 118.312 43.222 118.352C43.1628 118.392 43.0901 118.406 43.0201 118.393C42.95 118.379 42.8882 118.338 42.8483 118.279C42.8083 118.22 42.7936 118.147 42.8072 118.077C42.8312 117.954 42.8906 117.767 43.0381 117.606C43.1934 117.437 43.4256 117.321 43.7442 117.321C44.0658 117.321 44.2991 117.443 44.4535 117.612C44.5999 117.773 44.6608 117.96 44.6823 118.082C44.6945 118.153 44.6782 118.225 44.6371 118.283C44.596 118.342 44.5334 118.381 44.4631 118.394C44.3928 118.406 44.3205 118.39 44.2621 118.349C44.2037 118.307 44.1641 118.245 44.1519 118.174C44.1384 118.1 44.1051 118.031 44.0555 117.975C44.0052 117.919 43.917 117.859 43.7442 117.859C43.5685 117.859 43.4826 117.918 43.4345 117.97ZM47.6461 115.437C47.7175 115.437 47.7859 115.409 47.8364 115.359C47.8869 115.308 47.9152 115.24 47.9152 115.168C47.9152 115.097 47.8869 115.029 47.8364 114.978C47.7859 114.928 47.7175 114.899 47.6461 114.899C47.5748 114.899 47.5063 114.928 47.4558 114.978C47.4054 115.029 47.377 115.097 47.377 115.168C47.377 115.24 47.4054 115.308 47.4558 115.359C47.5063 115.409 47.5748 115.437 47.6461 115.437ZM48.117 115.707C48.1706 115.707 48.2219 115.728 48.2598 115.766C48.2976 115.804 48.3189 115.855 48.3189 115.908C48.3189 116.5 47.8259 116.918 47.3098 116.918C47.2562 116.918 47.2049 116.896 47.167 116.858C47.1292 116.821 47.1079 116.769 47.1079 116.716C47.1079 116.662 47.1292 116.611 47.167 116.573C47.2049 116.535 47.2562 116.514 47.3098 116.514C47.6216 116.514 47.9152 116.259 47.9152 115.908C47.9152 115.855 47.9365 115.804 47.9743 115.766C48.0122 115.728 48.0635 115.707 48.117 115.707ZM43.2733 120.819C43.3268 120.819 43.3781 120.841 43.416 120.879C43.4538 120.916 43.4751 120.968 43.4751 121.021C43.4751 121.613 42.9821 122.03 42.466 122.03C42.4125 122.03 42.3611 122.009 42.3233 121.971C42.2854 121.933 42.2642 121.882 42.2642 121.829C42.2642 121.775 42.2854 121.724 42.3233 121.686C42.3611 121.648 42.4125 121.627 42.466 121.627C42.7779 121.627 43.0715 121.372 43.0715 121.021C43.0715 120.968 43.0927 120.916 43.1306 120.879C43.1684 120.841 43.2198 120.819 43.2733 120.819ZM47.9152 122.165C47.9866 122.165 48.055 122.137 48.1055 122.086C48.156 122.036 48.1843 121.967 48.1843 121.896C48.1843 121.824 48.156 121.756 48.1055 121.706C48.055 121.655 47.9866 121.627 47.9152 121.627C47.8439 121.627 47.7754 121.655 47.7249 121.706C47.6745 121.756 47.6461 121.824 47.6461 121.896C47.6461 121.967 47.6745 122.036 47.7249 122.086C47.7754 122.137 47.8439 122.165 47.9152 122.165ZM43.3406 119.743C43.3406 119.814 43.3122 119.883 43.2617 119.933C43.2113 119.984 43.1428 120.012 43.0715 120.012C43.0001 120.012 42.9316 119.984 42.8812 119.933C42.8307 119.883 42.8024 119.814 42.8024 119.743C42.8024 119.672 42.8307 119.603 42.8812 119.553C42.9316 119.502 43.0001 119.474 43.0715 119.474C43.1428 119.474 43.2113 119.502 43.2617 119.553C43.3122 119.603 43.3406 119.672 43.3406 119.743ZM47.7325 117.859C47.6151 117.859 47.4989 117.882 47.3905 117.927C47.2821 117.972 47.1836 118.038 47.1006 118.121C47.0176 118.204 46.9518 118.303 46.9069 118.411C46.8619 118.519 46.8388 118.636 46.8388 118.753V118.868C46.8388 118.948 46.8545 119.027 46.8849 119.1C46.9153 119.174 46.9599 119.24 47.0162 119.297C47.0724 119.353 47.1391 119.397 47.2126 119.428C47.2861 119.458 47.3648 119.474 47.4443 119.474C47.5692 119.474 47.689 119.424 47.7773 119.336C47.8656 119.248 47.9152 119.128 47.9152 119.003V118.868C47.9152 118.815 47.894 118.764 47.8561 118.726C47.8183 118.688 47.7669 118.667 47.7134 118.667C47.6599 118.667 47.6085 118.688 47.5707 118.726C47.5328 118.764 47.5116 118.815 47.5116 118.868V119.003C47.5116 119.021 47.5045 119.038 47.4919 119.051C47.4793 119.063 47.4621 119.07 47.4443 119.07C47.3908 119.07 47.3394 119.049 47.3016 119.011C47.2637 118.973 47.2425 118.922 47.2425 118.868V118.753C47.2425 118.482 47.4621 118.263 47.7325 118.263H47.7807C47.9234 118.263 48.0603 118.32 48.1612 118.421C48.2622 118.522 48.3189 118.658 48.3189 118.801V118.898C48.3189 119.122 48.2299 119.337 48.0715 119.496C47.9131 119.654 47.6982 119.743 47.4742 119.743H46.066C46.0886 119.644 46.0886 119.541 46.0659 119.441C46.0432 119.342 45.9984 119.249 45.9348 119.169C45.8713 119.09 45.7906 119.025 45.6988 118.981C45.607 118.937 45.5064 118.914 45.4045 118.914C45.3332 118.914 45.2647 118.943 45.2143 118.993C45.1638 119.044 45.1354 119.112 45.1354 119.183C45.1354 119.255 45.1638 119.323 45.2143 119.374C45.2647 119.424 45.3332 119.452 45.4045 119.452C45.4229 119.452 45.4411 119.456 45.4581 119.463C45.4751 119.47 45.4905 119.48 45.5035 119.493C45.5165 119.506 45.5268 119.522 45.5338 119.539C45.5408 119.556 45.5445 119.574 45.5445 119.592C45.5445 119.611 45.5408 119.629 45.5338 119.646C45.5268 119.663 45.5165 119.678 45.5035 119.691C45.4905 119.704 45.4751 119.715 45.4581 119.722C45.4411 119.729 45.4229 119.732 45.4045 119.732C45.3332 119.732 45.2647 119.761 45.2143 119.811C45.1638 119.862 45.1354 119.93 45.1354 120.001C45.1354 120.073 45.1638 120.141 45.2143 120.192C45.2647 120.242 45.3332 120.27 45.4045 120.27C45.4417 120.27 45.4772 120.285 45.5035 120.311C45.5297 120.338 45.5445 120.373 45.5445 120.41C45.5445 120.448 45.5297 120.483 45.5035 120.509C45.4772 120.536 45.4417 120.55 45.4045 120.55C45.3332 120.55 45.2647 120.579 45.2143 120.629C45.1638 120.68 45.1354 120.748 45.1354 120.819C45.1354 120.891 45.1638 120.959 45.2143 121.01C45.2647 121.06 45.3332 121.089 45.4045 121.089C45.5165 121.089 45.6266 121.061 45.7252 121.008C45.8239 120.955 45.9078 120.879 45.9697 120.785C46.0316 120.692 46.0694 120.585 46.0798 120.474C46.0902 120.362 46.0729 120.25 46.0294 120.147H47.4744C47.8055 120.147 48.1229 120.015 48.357 119.781C48.591 119.547 48.7225 119.229 48.7225 118.898V118.801C48.7225 118.551 48.6233 118.312 48.4467 118.135C48.27 117.959 48.0305 117.859 47.7807 117.859H47.7325Z" fill="#B87DE8" fill-opacity="0.08"/>
<path d="M83.7996 24.0219H80.5704C80.4277 24.0219 80.2908 24.0786 80.1899 24.1795C80.0889 24.2804 80.0322 24.4173 80.0322 24.56V27.7892C80.0322 28.8078 80.3398 29.7526 80.9778 30.4452C81.0088 30.4789 81.0405 30.512 81.0731 30.5443C81.1428 30.5036 81.2238 30.4802 81.3104 30.4802C81.4315 30.4802 81.5464 30.4102 81.6056 30.3037C81.5239 30.2341 81.4464 30.1596 81.3737 30.0806C80.8457 29.5074 80.5704 28.7028 80.5704 27.7892C80.5704 27.5914 80.5833 27.399 80.6089 27.2126L83.2256 24.5958C83.416 24.5716 83.6077 24.5596 83.7996 24.56C84.8179 24.56 85.5767 24.8738 86.1001 25.3703C86.1179 25.3684 86.1359 25.3673 86.1542 25.3673C86.3286 25.3673 86.4906 25.2218 86.4906 25.031C86.4906 25.0207 86.4909 25.0105 86.4917 25.0003C85.8544 24.3843 84.9492 24.0219 83.7996 24.0219ZM80.5704 24.56H81.22L80.5704 25.2097V24.56ZM81.8045 24.56H82.5004L80.5704 26.49V25.7941L81.8045 24.56ZM83.7996 31.5566C83.1215 31.5566 82.5284 31.4304 82.0249 31.2006C82.186 31.0927 82.3206 30.9497 82.4186 30.7824C82.8109 30.9336 83.2703 31.0184 83.7996 31.0184C84.9024 31.0184 85.7008 30.6503 86.2255 30.0806C86.3847 29.9071 86.5211 29.714 86.6316 29.5061C86.9124 29.447 87.1706 29.3093 87.3762 29.1092C87.2212 29.6105 86.9709 30.0655 86.6214 30.4452C85.9801 31.1417 85.0297 31.5566 83.7996 31.5566Z" fill="#B87DE8" fill-opacity="0.08"/>
<path d="M85.6465 27.1781C85.756 27.032 85.8994 26.9125 86.0649 26.8312C86.0418 26.7974 86.0163 26.7652 85.9888 26.7349C85.8343 26.5654 85.6013 26.4437 85.2794 26.4437C84.9608 26.4437 84.7286 26.5597 84.5733 26.729C84.4258 26.8894 84.3664 27.0769 84.3427 27.1999C84.335 27.235 84.3345 27.2712 84.341 27.3064C84.3476 27.3417 84.3611 27.3753 84.3809 27.4053C84.4006 27.4352 84.4261 27.4609 84.4559 27.4809C84.4857 27.5009 84.5192 27.5146 84.5545 27.5215C84.5897 27.5283 84.6259 27.528 84.661 27.5206C84.6961 27.5132 84.7294 27.4989 84.7589 27.4785C84.7884 27.458 84.8135 27.4319 84.8327 27.4016C84.852 27.3713 84.8649 27.3375 84.8709 27.3022C84.8838 27.236 84.9134 27.1542 84.9697 27.0931C85.0181 27.0403 85.1037 26.9819 85.2794 26.9819C85.4522 26.9819 85.5402 27.0417 85.5908 27.0974C85.6139 27.1224 85.6322 27.1504 85.6465 27.1781ZM87.5186 27.1065C87.3525 26.9248 87.135 26.7981 86.8951 26.7432C86.8437 26.5525 86.7751 26.3669 86.69 26.1886C86.8574 26.1106 87.0063 25.9981 87.1271 25.8584C87.3243 26.2395 87.454 26.6612 87.5186 27.1065ZM82.2787 27.0928C82.2222 27.1542 82.1926 27.236 82.1799 27.3024C82.1663 27.3725 82.1254 27.4343 82.0662 27.4742C82.007 27.5141 81.9344 27.5289 81.8643 27.5153C81.7942 27.5017 81.7324 27.4607 81.6925 27.4015C81.6526 27.3423 81.6378 27.2697 81.6514 27.1996C81.6754 27.0769 81.7349 26.8894 81.8823 26.729C82.0376 26.5597 82.2698 26.4437 82.5884 26.4437C82.91 26.4437 83.1433 26.5654 83.2978 26.7349C83.4442 26.8956 83.505 27.0826 83.5265 27.205C83.5387 27.2754 83.5225 27.3477 83.4814 27.406C83.4403 27.4644 83.3777 27.504 83.3073 27.5162C83.237 27.5284 83.1647 27.5122 83.1063 27.4711C83.048 27.43 83.0083 27.3674 82.9961 27.297C82.9827 27.223 82.9494 27.154 82.8998 27.0974C82.8495 27.0417 82.7612 26.9819 82.5884 26.9819C82.4127 26.9819 82.3269 27.0403 82.2787 27.0928ZM86.4904 24.56C86.5617 24.56 86.6302 24.5317 86.6806 24.4812C86.7311 24.4308 86.7595 24.3623 86.7595 24.2909C86.7595 24.2196 86.7311 24.1511 86.6806 24.1007C86.6302 24.0502 86.5617 24.0219 86.4904 24.0219C86.419 24.0219 86.3506 24.0502 86.3001 24.1007C86.2496 24.1511 86.2213 24.2196 86.2213 24.2909C86.2213 24.3623 86.2496 24.4308 86.3001 24.4812C86.3506 24.5317 86.419 24.56 86.4904 24.56ZM86.9613 24.8291C87.0148 24.8291 87.0661 24.8504 87.104 24.8883C87.1418 24.9261 87.1631 24.9774 87.1631 25.031C87.1631 25.6224 86.6701 26.0401 86.154 26.0401C86.1005 26.0401 86.0491 26.0188 86.0113 25.981C85.9734 25.9431 85.9522 25.8918 85.9522 25.8383C85.9522 25.7847 85.9734 25.7334 86.0113 25.6956C86.0491 25.6577 86.1005 25.6364 86.154 25.6364C86.4659 25.6364 86.7595 25.3813 86.7595 25.031C86.7595 24.9774 86.7807 24.9261 86.8186 24.8883C86.8564 24.8504 86.9078 24.8291 86.9613 24.8291ZM82.1175 29.942C82.171 29.942 82.2224 29.9633 82.2602 30.0011C82.2981 30.039 82.3193 30.0903 82.3193 30.1438C82.3193 30.7353 81.8264 31.153 81.3102 31.153C81.2567 31.153 81.2054 31.1317 81.1675 31.0938C81.1297 31.056 81.1084 31.0047 81.1084 30.9511C81.1084 30.8976 81.1297 30.8463 81.1675 30.8084C81.2054 30.7706 81.2567 30.7493 81.3102 30.7493C81.6221 30.7493 81.9157 30.4942 81.9157 30.1438C81.9157 30.0903 81.937 30.039 81.9748 30.0011C82.0127 29.9633 82.064 29.942 82.1175 29.942ZM86.7595 31.2875C86.8308 31.2875 86.8993 31.2592 86.9497 31.2087C87.0002 31.1582 87.0286 31.0898 87.0286 31.0184C87.0286 30.947 87.0002 30.8786 86.9497 30.8281C86.8993 30.7777 86.8308 30.7493 86.7595 30.7493C86.6881 30.7493 86.6196 30.7777 86.5692 30.8281C86.5187 30.8786 86.4904 30.947 86.4904 31.0184C86.4904 31.0898 86.5187 31.1582 86.5692 31.2087C86.6196 31.2592 86.6881 31.2875 86.7595 31.2875ZM82.1848 28.8656C82.1848 28.937 82.1564 29.0054 82.106 29.0559C82.0555 29.1064 81.9871 29.1347 81.9157 29.1347C81.8443 29.1347 81.7759 29.1064 81.7254 29.0559C81.6749 29.0054 81.6466 28.937 81.6466 28.8656C81.6466 28.7943 81.6749 28.7258 81.7254 28.6753C81.7759 28.6249 81.8443 28.5965 81.9157 28.5965C81.9871 28.5965 82.0555 28.6249 82.106 28.6753C82.1564 28.7258 82.1848 28.7943 82.1848 28.8656ZM86.5767 26.9819C86.4594 26.9819 86.3432 27.005 86.2348 27.05C86.1263 27.0949 86.0278 27.1607 85.9448 27.2437C85.8618 27.3267 85.796 27.4252 85.7511 27.5336C85.7062 27.642 85.6831 27.7582 85.6831 27.8756V27.9911C85.6831 28.0706 85.6987 28.1493 85.7292 28.2228C85.7596 28.2962 85.8042 28.363 85.8604 28.4192C85.9166 28.4754 85.9834 28.52 86.0568 28.5504C86.1303 28.5809 86.209 28.5965 86.2885 28.5965C86.4134 28.5965 86.5332 28.5469 86.6215 28.4586C86.7098 28.3703 86.7595 28.2505 86.7595 28.1256V27.9911C86.7595 27.9375 86.7382 27.8862 86.7004 27.8483C86.6625 27.8105 86.6112 27.7892 86.5576 27.7892C86.5041 27.7892 86.4528 27.8105 86.4149 27.8483C86.3771 27.8862 86.3558 27.9375 86.3558 27.9911V28.1256C86.3558 28.1434 86.3487 28.1606 86.3361 28.1732C86.3235 28.1858 86.3064 28.1929 86.2885 28.1929C86.235 28.1929 86.1837 28.1716 86.1458 28.1338C86.108 28.0959 86.0867 28.0446 86.0867 27.9911V27.8756C86.0867 27.6049 86.3063 27.3856 86.5767 27.3856H86.6249C86.7677 27.3856 86.9045 27.4423 87.0055 27.5432C87.1064 27.6441 87.1631 27.781 87.1631 27.9238V28.0209C87.1631 28.245 87.0741 28.4598 86.9157 28.6182C86.7573 28.7766 86.5424 28.8656 86.3184 28.8656H84.9102C84.9329 28.7663 84.9328 28.6631 84.9101 28.5638C84.8874 28.4645 84.8426 28.3716 84.7791 28.2919C84.7155 28.2123 84.6349 28.148 84.543 28.1038C84.4512 28.0597 84.3507 28.0368 84.2488 28.0368C84.1774 28.0368 84.109 28.0651 84.0585 28.1156C84.008 28.1661 83.9797 28.2345 83.9797 28.3059C83.9797 28.3773 84.008 28.4457 84.0585 28.4962C84.109 28.5466 84.1774 28.575 84.2488 28.575C84.2672 28.575 84.2853 28.5786 84.3023 28.5856C84.3193 28.5927 84.3347 28.603 84.3477 28.616C84.3607 28.629 84.371 28.6444 84.3781 28.6614C84.3851 28.6784 84.3887 28.6966 84.3887 28.7149C84.3887 28.7333 84.3851 28.7515 84.3781 28.7685C84.371 28.7855 84.3607 28.8009 84.3477 28.8139C84.3347 28.8269 84.3193 28.8372 84.3023 28.8442C84.2853 28.8512 84.2672 28.8549 84.2488 28.8549C84.1774 28.8549 84.109 28.8832 84.0585 28.9337C84.008 28.9841 83.9797 29.0526 83.9797 29.124C83.9797 29.1953 84.008 29.2638 84.0585 29.3142C84.109 29.3647 84.1774 29.3931 84.2488 29.3931C84.2859 29.3931 84.3215 29.4078 84.3477 29.434C84.374 29.4603 84.3887 29.4959 84.3887 29.533C84.3887 29.5701 84.374 29.6057 84.3477 29.6319C84.3215 29.6582 84.2859 29.6729 84.2488 29.6729C84.1774 29.6729 84.109 29.7013 84.0585 29.7517C84.008 29.8022 83.9797 29.8706 83.9797 29.942C83.9797 30.0134 84.008 30.0818 84.0585 30.1323C84.109 30.1828 84.1774 30.2111 84.2488 30.2111C84.3607 30.2111 84.4709 30.1834 84.5695 30.1305C84.6681 30.0776 84.7521 30.0011 84.814 29.9079C84.8758 29.8146 84.9136 29.7075 84.9241 29.5961C84.9345 29.4846 84.9171 29.3724 84.8736 29.2693H86.3187C86.6497 29.2692 86.9672 29.1376 87.2012 28.9035C87.4353 28.6694 87.5668 28.352 87.5668 28.0209V27.9238C87.5668 27.674 87.4675 27.4344 87.2909 27.2578C87.1143 27.0812 86.8747 26.9819 86.6249 26.9819H86.5767Z" fill="#B87DE8" fill-opacity="0.08"/>
<path fill-rule="evenodd" clip-rule="evenodd" d="M49.0925 87.1659C49.0925 87.9778 48.77 88.7563 48.196 89.3304C47.6219 89.9044 46.8434 90.2269 46.0315 90.2269C45.2197 90.2269 44.4411 89.9044 43.8671 89.3304C43.293 88.7563 42.9705 87.9778 42.9705 87.1659C42.9705 86.3541 43.293 85.5755 43.8671 85.0015C44.4411 84.4274 45.2197 84.1049 46.0315 84.1049C46.8434 84.1049 47.6219 84.4274 48.196 85.0015C48.77 85.5755 49.0925 86.3541 49.0925 87.1659ZM49.7989 87.1659C49.7989 88.1651 49.402 89.1234 48.6955 89.8299C47.989 90.5364 47.0307 90.9333 46.0315 90.9333C45.0324 90.9333 44.0741 90.5364 43.3676 89.8299C42.6611 89.1234 42.2642 88.1651 42.2642 87.1659C42.2642 86.1668 42.6611 85.2085 43.3676 84.502C44.0741 83.7955 45.0324 83.3986 46.0315 83.3986C47.0307 83.3986 47.989 83.7955 48.6955 84.502C49.402 85.2085 49.7989 86.1668 49.7989 87.1659ZM44.7374 85.6119C44.8997 85.5186 45.0923 85.4934 45.273 85.542C45.4537 85.5905 45.6078 85.7088 45.7014 85.8709C45.7322 85.925 45.7403 85.989 45.724 86.049C45.7077 86.109 45.6683 86.1601 45.6145 86.1912C45.5606 86.2223 45.4967 86.2308 45.4365 86.2149C45.3764 86.199 45.325 86.16 45.2936 86.1064C45.2729 86.0707 45.2433 86.041 45.2075 86.0204C45.1718 85.9997 45.1313 85.9889 45.0901 85.9888C45.0488 85.9888 45.0083 85.9996 44.9725 86.0201C44.9367 86.0406 44.907 86.0702 44.8863 86.1059C44.8549 86.1599 44.8034 86.1993 44.743 86.2153C44.6827 86.2313 44.6184 86.2227 44.5644 86.1914C44.5104 86.16 44.471 86.1085 44.455 86.0481C44.439 85.9878 44.4476 85.9235 44.4789 85.8695C44.5412 85.7624 44.63 85.6736 44.7374 85.6119ZM46.0315 89.0496C46.5311 89.0496 47.0102 88.8512 47.3635 88.4979C47.7168 88.1446 47.9152 87.6655 47.9152 87.1659H44.1478C44.1478 87.6655 44.3463 88.1446 44.6996 88.4979C45.0528 88.8512 45.532 89.0496 46.0315 89.0496ZM46.6211 85.6119C46.7833 85.5186 46.976 85.4934 47.1567 85.542C47.3374 85.5905 47.4915 85.7088 47.5851 85.8709C47.6008 85.8977 47.6111 85.9273 47.6153 85.9581C47.6195 85.9889 47.6176 86.0201 47.6096 86.0502C47.6017 86.0802 47.5879 86.1083 47.569 86.133C47.5502 86.1577 47.5266 86.1784 47.4997 86.1939C47.4728 86.2094 47.4431 86.2195 47.4123 86.2235C47.3815 86.2275 47.3503 86.2254 47.3203 86.2172C47.2903 86.2091 47.2623 86.1951 47.2377 86.1761C47.2132 86.157 47.1926 86.1334 47.1773 86.1064C47.1566 86.0707 47.127 86.041 47.0912 86.0204C47.0555 85.9997 47.015 85.9889 46.9738 85.9888C46.9325 85.9888 46.892 85.9996 46.8562 86.0201C46.8204 86.0406 46.7907 86.0702 46.7699 86.1059C46.7386 86.1599 46.6871 86.1993 46.6267 86.2153C46.5663 86.2313 46.5021 86.2227 46.4481 86.1914C46.3941 86.16 46.3547 86.1085 46.3387 86.0481C46.3226 85.9878 46.3312 85.9235 46.3626 85.8695C46.4249 85.7624 46.5142 85.6736 46.6216 85.6119H46.6211Z" fill="#B87DE8" fill-opacity="0.08"/>
<path fill-rule="evenodd" clip-rule="evenodd" d="M64.9602 11.8403C64.9602 12.6521 64.6377 13.4307 64.0637 14.0047C63.4896 14.5788 62.711 14.9012 61.8992 14.9012C61.0874 14.9012 60.3088 14.5788 59.7348 14.0047C59.1607 13.4307 58.8382 12.6521 58.8382 11.8403C58.8382 11.0284 59.1607 10.2499 59.7348 9.6758C60.3088 9.10176 61.0874 8.77926 61.8992 8.77926C62.711 8.77926 63.4896 9.10176 64.0637 9.6758C64.6377 10.2499 64.9602 11.0284 64.9602 11.8403ZM65.6666 11.8403C65.6666 12.8394 65.2697 13.7977 64.5632 14.5042C63.8566 15.2107 62.8984 15.6076 61.8992 15.6076C60.9 15.6076 59.9418 15.2107 59.2353 14.5042C58.5288 13.7977 58.1318 12.8394 58.1318 11.8403C58.1318 10.8411 58.5288 9.88284 59.2353 9.17632C59.9418 8.46979 60.9 8.07288 61.8992 8.07288C62.8984 8.07288 63.8566 8.46979 64.5632 9.17632C65.2697 9.88284 65.6666 10.8411 65.6666 11.8403ZM60.6051 10.2862C60.7673 10.1929 60.96 10.1677 61.1407 10.2163C61.3214 10.2649 61.4755 10.3832 61.5691 10.5452C61.5998 10.5993 61.6079 10.6633 61.5916 10.7233C61.5754 10.7833 61.536 10.8344 61.4821 10.8655C61.4283 10.8966 61.3643 10.9051 61.3042 10.8892C61.2441 10.8733 61.1927 10.8343 61.1613 10.7807C61.1406 10.745 61.1109 10.7153 61.0752 10.6947C61.0395 10.6741 60.999 10.6632 60.9577 10.6631C60.9165 10.6631 60.876 10.6739 60.8402 10.6944C60.8044 10.715 60.7747 10.7445 60.7539 10.7802C60.7226 10.8342 60.6711 10.8736 60.6107 10.8896C60.5503 10.9056 60.4861 10.897 60.4321 10.8657C60.378 10.8343 60.3387 10.7828 60.3227 10.7224C60.3066 10.6621 60.3152 10.5978 60.3466 10.5438C60.4088 10.4367 60.4977 10.3479 60.6051 10.2862ZM61.8992 13.7239C62.3988 13.7239 62.8779 13.5255 63.2312 13.1722C63.5844 12.819 63.7829 12.3398 63.7829 11.8403H60.0155C60.0155 12.3398 60.214 12.819 60.5672 13.1722C60.9205 13.5255 61.3996 13.7239 61.8992 13.7239ZM62.4888 10.2862C62.651 10.1929 62.8436 10.1677 63.0244 10.2163C63.2051 10.2649 63.3592 10.3832 63.4528 10.5452C63.4685 10.572 63.4787 10.6016 63.4829 10.6324C63.4872 10.6632 63.4852 10.6945 63.4773 10.7245C63.4694 10.7545 63.4556 10.7827 63.4367 10.8073C63.4178 10.832 63.3943 10.8527 63.3674 10.8682C63.3405 10.8837 63.3108 10.8938 63.28 10.8978C63.2492 10.9018 63.2179 10.8997 63.188 10.8915C63.158 10.8834 63.1299 10.8694 63.1054 10.8504C63.0809 10.8314 63.0603 10.8077 63.045 10.7807C63.0243 10.745 62.9946 10.7153 62.9589 10.6947C62.9232 10.6741 62.8827 10.6632 62.8414 10.6631C62.8002 10.6631 62.7596 10.6739 62.7239 10.6944C62.6881 10.715 62.6584 10.7445 62.6376 10.7802C62.6063 10.8342 62.5547 10.8736 62.4944 10.8896C62.434 10.9056 62.3698 10.897 62.3157 10.8657C62.2617 10.8343 62.2224 10.7828 62.2063 10.7224C62.1903 10.6621 62.1989 10.5978 62.2303 10.5438C62.2925 10.4367 62.3819 10.3479 62.4893 10.2862H62.4888Z" fill="#B87DE8" fill-opacity="0.08"/>
<path fill-rule="evenodd" clip-rule="evenodd" d="M133.294 101.428C133.294 102.24 132.971 103.019 132.397 103.593C131.823 104.167 131.045 104.489 130.233 104.489C129.421 104.489 128.642 104.167 128.068 103.593C127.494 103.019 127.172 102.24 127.172 101.428C127.172 100.616 127.494 99.8377 128.068 99.2637C128.642 98.6896 129.421 98.3671 130.233 98.3671C131.045 98.3671 131.823 98.6896 132.397 99.2637C132.971 99.8377 133.294 100.616 133.294 101.428ZM134 101.428C134 102.427 133.603 103.386 132.897 104.092C132.19 104.799 131.232 105.196 130.233 105.196C129.234 105.196 128.275 104.799 127.569 104.092C126.862 103.386 126.465 102.427 126.465 101.428C126.465 100.429 126.862 99.4707 127.569 98.7642C128.275 98.0577 129.234 97.6608 130.233 97.6608C131.232 97.6608 132.19 98.0577 132.897 98.7642C133.603 99.4707 134 100.429 134 101.428ZM128.939 99.8741C129.101 99.7808 129.293 99.7556 129.474 99.8042C129.655 99.8527 129.809 99.971 129.903 100.133C129.933 100.187 129.941 100.251 129.925 100.311C129.909 100.371 129.869 100.422 129.816 100.453C129.762 100.484 129.698 100.493 129.638 100.477C129.578 100.461 129.526 100.422 129.495 100.369C129.474 100.333 129.444 100.303 129.409 100.283C129.373 100.262 129.332 100.251 129.291 100.251C129.25 100.251 129.209 100.262 129.174 100.282C129.138 100.303 129.108 100.332 129.087 100.368C129.056 100.422 129.005 100.461 128.944 100.477C128.884 100.494 128.82 100.485 128.766 100.454C128.712 100.422 128.672 100.371 128.656 100.31C128.64 100.25 128.649 100.186 128.68 100.132C128.742 100.025 128.831 99.9358 128.939 99.8741ZM130.233 103.312C130.732 103.312 131.211 103.113 131.565 102.76C131.918 102.407 132.116 101.928 132.116 101.428H128.349C128.349 101.928 128.547 102.407 128.901 102.76C129.254 103.113 129.733 103.312 130.233 103.312ZM130.822 99.8741C130.985 99.7808 131.177 99.7556 131.358 99.8042C131.539 99.8527 131.693 99.971 131.786 100.133C131.802 100.16 131.812 100.19 131.816 100.22C131.821 100.251 131.819 100.282 131.811 100.312C131.803 100.342 131.789 100.371 131.77 100.395C131.751 100.42 131.728 100.441 131.701 100.456C131.674 100.472 131.644 100.482 131.614 100.486C131.583 100.49 131.551 100.488 131.521 100.479C131.491 100.471 131.463 100.457 131.439 100.438C131.414 100.419 131.394 100.396 131.378 100.369C131.358 100.333 131.328 100.303 131.292 100.283C131.257 100.262 131.216 100.251 131.175 100.251C131.134 100.251 131.093 100.262 131.057 100.282C131.022 100.303 130.992 100.332 130.971 100.368C130.94 100.422 130.888 100.461 130.828 100.477C130.768 100.494 130.703 100.485 130.649 100.454C130.595 100.422 130.556 100.371 130.54 100.31C130.524 100.25 130.532 100.186 130.564 100.132C130.626 100.025 130.715 99.9358 130.823 99.8741H130.822Z" fill="#B87DE8" fill-opacity="0.08"/>
<path d="M16.593 74.7013C15.382 76.7195 13.3638 77.5268 13.3638 79.5451C13.3638 80.3524 14.1711 81.1597 14.9784 81.1597C15.382 81.1597 15.7857 81.1597 16.1893 80.756C16.1893 80.756 16.3185 81.5633 15.382 82.7742H17.8039C16.9966 81.5633 16.9966 80.756 16.9966 80.756C17.4002 81.1597 17.8039 81.1597 18.2075 81.1597C19.0148 81.1597 19.8221 80.3524 19.8221 79.5451C19.8221 77.5268 17.8039 76.7195 16.593 74.7013Z" fill="#B87DE8" fill-opacity="0.08"/>
<path d="M72.2595 51.6696C71.0485 53.6878 69.0303 54.4951 69.0303 56.5133C69.0303 57.3206 69.8376 58.1279 70.6449 58.1279C71.0485 58.1279 71.4522 58.1279 71.8558 57.7243C71.8558 57.7243 71.985 58.5316 71.0485 59.7425H73.4704C72.6631 58.5316 72.6631 57.7243 72.6631 57.7243C73.0667 58.1279 73.4704 58.1279 73.874 58.1279C74.6813 58.1279 75.4886 57.3206 75.4886 56.5133C75.4886 54.4951 73.4704 53.6878 72.2595 51.6696Z" fill="#B87DE8" fill-opacity="0.08"/>
<path d="M44.1363 59.7424L42.9375 60.9534C42.8043 61.0744 42.6267 61.1552 42.4329 61.1552C42.2456 61.1552 42.0659 61.0808 41.9335 60.9483C41.801 60.8158 41.7266 60.6361 41.7266 60.4488V60.3479L42.1302 57.369C42.1709 56.9151 42.3798 56.4929 42.7159 56.1852C43.052 55.8775 43.491 55.7065 43.9466 55.7059H47.5795C48.5321 55.7059 49.3111 56.4365 49.3959 57.369L49.7995 60.3479V60.4488C49.7995 60.6361 49.7251 60.8158 49.5926 60.9483C49.4601 61.0808 49.2805 61.1552 49.0931 61.1552C48.8994 61.1552 48.7218 61.0744 48.5886 60.9534L47.3897 59.7424H44.1363ZM43.7448 56.5132V57.3205H42.9375V57.7242H43.7448V58.5315H44.1484V57.7242H44.9557V57.3205H44.1484V56.5132H43.7448ZM47.5795 56.5132C47.4992 56.5132 47.4222 56.5451 47.3654 56.6019C47.3086 56.6587 47.2767 56.7357 47.2767 56.816C47.2767 56.8963 47.3086 56.9733 47.3654 57.03C47.4222 57.0868 47.4992 57.1187 47.5795 57.1187C47.6597 57.1187 47.7367 57.0868 47.7935 57.03C47.8503 56.9733 47.8822 56.8963 47.8822 56.816C47.8822 56.7357 47.8503 56.6587 47.7935 56.6019C47.7367 56.5451 47.6597 56.5132 47.5795 56.5132ZM46.8731 57.2196C46.7928 57.2196 46.7158 57.2515 46.659 57.3083C46.6022 57.3651 46.5703 57.4421 46.5703 57.5223C46.5703 57.6026 46.6022 57.6796 46.659 57.7364C46.7158 57.7932 46.7928 57.8251 46.8731 57.8251C46.9534 57.8251 47.0304 57.7932 47.0871 57.7364C47.1439 57.6796 47.1758 57.6026 47.1758 57.5223C47.1758 57.4421 47.1439 57.3651 47.0871 57.3083C47.0304 57.2515 46.9534 57.2196 46.8731 57.2196ZM48.2858 57.2196C48.2055 57.2196 48.1285 57.2515 48.0718 57.3083C48.015 57.3651 47.9831 57.4421 47.9831 57.5223C47.9831 57.6026 48.015 57.6796 48.0718 57.7364C48.1285 57.7932 48.2055 57.8251 48.2858 57.8251C48.3661 57.8251 48.4431 57.7932 48.4999 57.7364C48.5567 57.6796 48.5886 57.6026 48.5886 57.5223C48.5886 57.4421 48.5567 57.3651 48.4999 57.3083C48.4431 57.2515 48.3661 57.2196 48.2858 57.2196ZM47.5795 57.926C47.4992 57.926 47.4222 57.9579 47.3654 58.0147C47.3086 58.0714 47.2767 58.1484 47.2767 58.2287C47.2767 58.309 47.3086 58.386 47.3654 58.4428C47.4222 58.4996 47.4992 58.5315 47.5795 58.5315C47.6597 58.5315 47.7367 58.4996 47.7935 58.4428C47.8503 58.386 47.8822 58.309 47.8822 58.2287C47.8822 58.1484 47.8503 58.0714 47.7935 58.0147C47.7367 57.9579 47.6597 57.926 47.5795 57.926Z" fill="#B87DE8" fill-opacity="0.08"/>
<path d="M84.8312 114.803L83.6323 116.014C83.4991 116.135 83.3215 116.216 83.1278 116.216C82.9404 116.216 82.7608 116.142 82.6283 116.009C82.4958 115.877 82.4214 115.697 82.4214 115.51V115.409L82.825 112.43C82.8657 111.976 83.0746 111.554 83.4107 111.246C83.7468 110.938 84.1858 110.767 84.6414 110.767H88.2743C89.2269 110.767 90.0059 111.497 90.0907 112.43L90.4943 115.409V115.51C90.4943 115.697 90.4199 115.877 90.2874 116.009C90.155 116.142 89.9753 116.216 89.788 116.216C89.5942 116.216 89.4166 116.135 89.2834 116.014L88.0846 114.803H84.8312ZM84.4396 111.574V112.381H83.6323V112.785H84.4396V113.592H84.8433V112.785H85.6506V112.381H84.8433V111.574H84.4396ZM88.2743 111.574C88.194 111.574 88.117 111.606 88.0602 111.663C88.0034 111.72 87.9715 111.797 87.9715 111.877C87.9715 111.957 88.0034 112.034 88.0602 112.091C88.117 112.148 88.194 112.18 88.2743 112.18C88.3546 112.18 88.4316 112.148 88.4883 112.091C88.5451 112.034 88.577 111.957 88.577 111.877C88.577 111.797 88.5451 111.72 88.4883 111.663C88.4316 111.606 88.3546 111.574 88.2743 111.574ZM87.5679 112.281C87.4876 112.281 87.4106 112.312 87.3538 112.369C87.2971 112.426 87.2652 112.503 87.2652 112.583C87.2652 112.664 87.2971 112.741 87.3538 112.797C87.4106 112.854 87.4876 112.886 87.5679 112.886C87.6482 112.886 87.7252 112.854 87.782 112.797C87.8387 112.741 87.8706 112.664 87.8706 112.583C87.8706 112.503 87.8387 112.426 87.782 112.369C87.7252 112.312 87.6482 112.281 87.5679 112.281ZM88.9807 112.281C88.9004 112.281 88.8234 112.312 88.7666 112.369C88.7098 112.426 88.6779 112.503 88.6779 112.583C88.6779 112.664 88.7098 112.741 88.7666 112.797C88.8234 112.854 88.9004 112.886 88.9807 112.886C89.061 112.886 89.138 112.854 89.1947 112.797C89.2515 112.741 89.2834 112.664 89.2834 112.583C89.2834 112.503 89.2515 112.426 89.1947 112.369C89.138 112.312 89.061 112.281 88.9807 112.281ZM88.2743 112.987C88.194 112.987 88.117 113.019 88.0602 113.076C88.0034 113.132 87.9715 113.209 87.9715 113.29C87.9715 113.37 88.0034 113.447 88.0602 113.504C88.117 113.56 88.194 113.592 88.2743 113.592C88.3546 113.592 88.4316 113.56 88.4883 113.504C88.5451 113.447 88.577 113.37 88.577 113.29C88.577 113.209 88.5451 113.132 88.4883 113.076C88.4316 113.019 88.3546 112.987 88.2743 112.987Z" fill="#B87DE8" fill-opacity="0.08"/>
<path d="M122.417 22.6091L121.218 23.8201C121.085 23.9411 120.907 24.0219 120.713 24.0219C120.526 24.0219 120.346 23.9475 120.214 23.815C120.081 23.6825 120.007 23.5028 120.007 23.3155V23.2146L120.41 20.2357C120.451 19.7818 120.66 19.3596 120.996 19.0519C121.332 18.7442 121.771 18.5732 122.227 18.5726H125.86C126.812 18.5726 127.591 19.3032 127.676 20.2357L128.08 23.2146V23.3155C128.08 23.5028 128.005 23.6825 127.873 23.815C127.74 23.9475 127.561 24.0219 127.373 24.0219C127.18 24.0219 127.002 23.9411 126.869 23.8201L125.67 22.6091H122.417ZM122.025 19.3799V20.1872H121.218V20.5909H122.025V21.3982H122.429V20.5909H123.236V20.1872H122.429V19.3799H122.025ZM125.86 19.3799C125.779 19.3799 125.702 19.4118 125.646 19.4686C125.589 19.5254 125.557 19.6024 125.557 19.6827C125.557 19.763 125.589 19.84 125.646 19.8967C125.702 19.9535 125.779 19.9854 125.86 19.9854C125.94 19.9854 126.017 19.9535 126.074 19.8967C126.131 19.84 126.162 19.763 126.162 19.6827C126.162 19.6024 126.131 19.5254 126.074 19.4686C126.017 19.4118 125.94 19.3799 125.86 19.3799ZM125.153 20.0863C125.073 20.0863 124.996 20.1182 124.939 20.175C124.883 20.2318 124.851 20.3088 124.851 20.389C124.851 20.4693 124.883 20.5463 124.939 20.6031C124.996 20.6599 125.073 20.6918 125.153 20.6918C125.234 20.6918 125.311 20.6599 125.367 20.6031C125.424 20.5463 125.456 20.4693 125.456 20.389C125.456 20.3088 125.424 20.2318 125.367 20.175C125.311 20.1182 125.234 20.0863 125.153 20.0863ZM126.566 20.0863C126.486 20.0863 126.409 20.1182 126.352 20.175C126.295 20.2318 126.263 20.3088 126.263 20.389C126.263 20.4693 126.295 20.5463 126.352 20.6031C126.409 20.6599 126.486 20.6918 126.566 20.6918C126.646 20.6918 126.723 20.6599 126.78 20.6031C126.837 20.5463 126.869 20.4693 126.869 20.389C126.869 20.3088 126.837 20.2318 126.78 20.175C126.723 20.1182 126.646 20.0863 126.566 20.0863ZM125.86 20.7927C125.779 20.7927 125.702 20.8246 125.646 20.8814C125.589 20.9381 125.557 21.0151 125.557 21.0954C125.557 21.1757 125.589 21.2527 125.646 21.3095C125.702 21.3663 125.779 21.3982 125.86 21.3982C125.94 21.3982 126.017 21.3663 126.074 21.3095C126.131 21.2527 126.162 21.1757 126.162 21.0954C126.162 21.0151 126.131 20.9381 126.074 20.8814C126.017 20.8246 125.94 20.7927 125.86 20.7927Z" fill="#B87DE8" fill-opacity="0.08"/>
<path d="M25.8767 49.6488C26.0908 49.6488 26.2961 49.7338 26.4475 49.8852C26.5989 50.0366 26.6839 50.242 26.6839 50.4561C26.6839 50.783 26.4821 51.0615 26.2117 51.1907L25.473 53.7458V55.7035H21.4365V53.7458L20.6979 51.1907C20.4274 51.0615 20.2256 50.783 20.2256 50.4561C20.2256 50.242 20.3106 50.0366 20.462 49.8852C20.6134 49.7338 20.8188 49.6488 21.0329 49.6488C21.247 49.6488 21.4523 49.7338 21.6037 49.8852C21.7551 50.0366 21.8402 50.242 21.8402 50.4561C21.8402 50.6579 21.7675 50.8395 21.6384 50.9808L22.7686 52.2119L22.9825 50.7063C22.7807 50.561 22.6475 50.3229 22.6475 50.0524C22.6475 49.8383 22.7325 49.633 22.8839 49.4816C23.0353 49.3302 23.2407 49.2451 23.4548 49.2451C23.6689 49.2451 23.8742 49.3302 24.0256 49.4816C24.177 49.633 24.2621 49.8383 24.2621 50.0524C24.2621 50.3229 24.1289 50.561 23.927 50.7063L24.141 52.2119L25.2591 50.9768C25.1364 50.831 25.0692 50.6466 25.0694 50.4561C25.0694 50.242 25.1544 50.0366 25.3058 49.8852C25.4572 49.7338 25.6625 49.6488 25.8767 49.6488ZM20.6292 56.5108H26.2803V57.3181H20.6292V56.5108Z" fill="#B87DE8" fill-opacity="0.08"/>
<path d="M129.425 60.1461C129.639 60.1461 129.844 60.2311 129.996 60.3825C130.147 60.5339 130.232 60.7393 130.232 60.9534C130.232 61.2803 130.03 61.5588 129.76 61.688L129.021 64.2431V66.2008H124.985V64.2431L124.246 61.688C123.976 61.5588 123.774 61.2803 123.774 60.9534C123.774 60.7393 123.859 60.5339 124.01 60.3825C124.162 60.2311 124.367 60.1461 124.581 60.1461C124.795 60.1461 125.001 60.2311 125.152 60.3825C125.303 60.5339 125.389 60.7393 125.389 60.9534C125.389 61.1552 125.316 61.3368 125.187 61.4781L126.317 62.7092L126.531 61.2036C126.329 61.0583 126.196 60.8202 126.196 60.5497C126.196 60.3356 126.281 60.1303 126.432 59.9789C126.584 59.8275 126.789 59.7424 127.003 59.7424C127.217 59.7424 127.423 59.8275 127.574 59.9789C127.725 60.1303 127.81 60.3356 127.81 60.5497C127.81 60.8202 127.677 61.0583 127.475 61.2036L127.689 62.7092L128.807 61.4741C128.685 61.3283 128.618 61.1439 128.618 60.9534C128.618 60.7393 128.703 60.5339 128.854 60.3825C129.006 60.2311 129.211 60.1461 129.425 60.1461ZM124.178 67.0081H129.829V67.8154H124.178V67.0081Z" fill="#B87DE8" fill-opacity="0.08"/>
<path d="M103.603 0.403648C103.817 0.403648 104.023 0.488702 104.174 0.640099C104.325 0.791496 104.411 0.996835 104.411 1.21094C104.411 1.5379 104.209 1.81641 103.938 1.94558L103.2 4.50067V6.45836H99.1631V4.50067L98.4244 1.94558C98.154 1.81641 97.9521 1.5379 97.9521 1.21094C97.9521 0.996835 98.0372 0.791496 98.1886 0.640099C98.34 0.488702 98.5453 0.403648 98.7594 0.403648C98.9736 0.403648 99.1789 0.488702 99.3303 0.640099C99.4817 0.791496 99.5667 0.996835 99.5667 1.21094C99.5667 1.41277 99.4941 1.59441 99.3649 1.73568L100.495 2.96681L100.709 1.4612C100.507 1.31589 100.374 1.07774 100.374 0.807295C100.374 0.593187 100.459 0.387848 100.61 0.236451C100.762 0.085054 100.967 0 101.181 0C101.395 0 101.601 0.085054 101.752 0.236451C101.904 0.387848 101.989 0.593187 101.989 0.807295C101.989 1.07774 101.855 1.31589 101.654 1.4612L101.868 2.96681L102.986 1.73165C102.863 1.5859 102.796 1.40146 102.796 1.21094C102.796 0.996835 102.881 0.791496 103.032 0.640099C103.184 0.488702 103.389 0.403648 103.603 0.403648ZM98.3558 7.26566H104.007V8.07295H98.3558V7.26566Z" fill="#B87DE8" fill-opacity="0.08"/>
<path d="M19.4569 108.528H15.6126C15.1897 108.528 14.8438 108.874 14.8438 109.296V115.447C14.8438 115.87 15.1897 116.216 15.6126 116.216H19.4569C19.8797 116.216 20.2257 115.87 20.2257 115.447V109.296C20.2257 108.874 19.8797 108.528 19.4569 108.528ZM18.2267 113.525C18.0729 113.525 17.9192 113.487 17.7654 113.41L18.1114 114.294H16.9581L17.3041 113.41C17.1503 113.487 16.9965 113.525 16.8428 113.525C16.3815 113.525 15.997 113.141 15.997 112.679C15.997 112.103 16.5352 111.641 17.3041 110.911L17.5347 110.719L17.7654 110.911C18.5342 111.641 19.0724 112.103 19.0724 112.679C19.0724 113.179 18.688 113.525 18.2267 113.525Z" fill="#B87DE8" fill-opacity="0.08"/>
<path d="M29.9593 3.12585H26.115C25.6922 3.12585 25.3462 3.47184 25.3462 3.89471V10.0455C25.3462 10.4684 25.6922 10.8144 26.115 10.8144H29.9593C30.3822 10.8144 30.7282 10.4684 30.7282 10.0455V3.89471C30.7282 3.47184 30.3822 3.12585 29.9593 3.12585ZM28.7291 8.1234C28.5754 8.1234 28.4216 8.08495 28.2678 8.00807L28.6138 8.89225H27.4605L27.8065 8.00807C27.6527 8.08495 27.499 8.1234 27.3452 8.1234C26.8839 8.1234 26.4995 7.73897 26.4995 7.27766C26.4995 6.70102 27.0377 6.23971 27.8065 5.5093L28.0372 5.31708L28.2678 5.5093C29.0367 6.23971 29.5749 6.70102 29.5749 7.27766C29.5749 7.77741 29.1905 8.1234 28.7291 8.1234Z" fill="#B87DE8" fill-opacity="0.08"/>
<path d="M92.18 70.8571H88.3357C87.9129 70.8571 87.5669 71.203 87.5669 71.6259V77.7767C87.5669 78.1996 87.9129 78.5456 88.3357 78.5456H92.18C92.6029 78.5456 92.9489 78.1996 92.9489 77.7767V71.6259C92.9489 71.203 92.6029 70.8571 92.18 70.8571ZM90.9498 75.8546C90.7961 75.8546 90.6423 75.8162 90.4885 75.7393L90.8345 76.6235H89.6812L90.0272 75.7393C89.8735 75.8162 89.7197 75.8546 89.5659 75.8546C89.1046 75.8546 88.7202 75.4702 88.7202 75.0089C88.7202 74.4322 89.2584 73.9709 90.0272 73.2405L90.2579 73.0483L90.4885 73.2405C91.2574 73.9709 91.7956 74.4322 91.7956 75.0089C91.7956 75.5086 91.4112 75.8546 90.9498 75.8546Z" fill="#B87DE8" fill-opacity="0.08"/>
<path d="M69.5087 90.9333H74.7412C74.9394 90.9333 75.1296 91.0121 75.2698 91.1523C75.4099 91.2925 75.4887 91.4826 75.4887 91.6808V96.9133C75.4887 97.1116 75.4099 97.3017 75.2698 97.4419C75.1296 97.5821 74.9394 97.6608 74.7412 97.6608H69.5087C69.3105 97.6608 69.1203 97.5821 68.9802 97.4419C68.84 97.3017 68.7612 97.1116 68.7612 96.9133V91.6808C68.7612 91.4826 68.84 91.2925 68.9802 91.1523C69.1203 91.0121 69.3105 90.9333 69.5087 90.9333ZM70.2562 91.6808C70.058 91.6808 69.8678 91.7596 69.7277 91.8998C69.5875 92.04 69.5087 92.2301 69.5087 92.4283C69.5087 92.6266 69.5875 92.8167 69.7277 92.9569C69.8678 93.0971 70.058 93.1758 70.2562 93.1758C70.4545 93.1758 70.6446 93.0971 70.7848 92.9569C70.925 92.8167 71.0037 92.6266 71.0037 92.4283C71.0037 92.2301 70.925 92.04 70.7848 91.8998C70.6446 91.7596 70.4545 91.6808 70.2562 91.6808ZM73.9937 95.4183C73.7955 95.4183 73.6053 95.4971 73.4651 95.6373C73.325 95.7774 73.2462 95.9676 73.2462 96.1658C73.2462 96.3641 73.325 96.5542 73.4651 96.6944C73.6053 96.8346 73.7955 96.9133 73.9937 96.9133C74.1919 96.9133 74.3821 96.8346 74.5223 96.6944C74.6624 96.5542 74.7412 96.3641 74.7412 96.1658C74.7412 95.9676 74.6624 95.7774 74.5223 95.6373C74.3821 95.4971 74.1919 95.4183 73.9937 95.4183ZM73.9937 93.5496C73.7955 93.5496 73.6053 93.6283 73.4651 93.7685C73.325 93.9087 73.2462 94.0988 73.2462 94.2971C73.2462 94.4953 73.325 94.6855 73.4651 94.8256C73.6053 94.9658 73.7955 95.0446 73.9937 95.0446C74.1919 95.0446 74.3821 94.9658 74.5223 94.8256C74.6624 94.6855 74.7412 94.4953 74.7412 94.2971C74.7412 94.0988 74.6624 93.9087 74.5223 93.7685C74.3821 93.6283 74.1919 93.5496 73.9937 93.5496ZM73.9937 91.6808C73.7955 91.6808 73.6053 91.7596 73.4651 91.8998C73.325 92.04 73.2462 92.2301 73.2462 92.4283C73.2462 92.6266 73.325 92.8167 73.4651 92.9569C73.6053 93.0971 73.7955 93.1758 73.9937 93.1758C74.1919 93.1758 74.3821 93.0971 74.5223 92.9569C74.6624 92.8167 74.7412 92.6266 74.7412 92.4283C74.7412 92.2301 74.6624 92.04 74.5223 91.8998C74.3821 91.7596 74.1919 91.6808 73.9937 91.6808ZM70.2562 93.5496C70.058 93.5496 69.8678 93.6283 69.7277 93.7685C69.5875 93.9087 69.5087 94.0988 69.5087 94.2971C69.5087 94.4953 69.5875 94.6855 69.7277 94.8256C69.8678 94.9658 70.058 95.0446 70.2562 95.0446C70.4545 95.0446 70.6446 94.9658 70.7848 94.8256C70.925 94.6855 71.0037 94.4953 71.0037 94.2971C71.0037 94.0988 70.925 93.9087 70.7848 93.7685C70.6446 93.6283 70.4545 93.5496 70.2562 93.5496ZM70.2562 95.4183C70.058 95.4183 69.8678 95.4971 69.7277 95.6373C69.5875 95.7774 69.5087 95.9676 69.5087 96.1658C69.5087 96.3641 69.5875 96.5542 69.7277 96.6944C69.8678 96.8346 70.058 96.9133 70.2562 96.9133C70.4545 96.9133 70.6446 96.8346 70.7848 96.6944C70.925 96.5542 71.0037 96.3641 71.0037 96.1658C71.0037 95.9676 70.925 95.7774 70.7848 95.6373C70.6446 95.4971 70.4545 95.4183 70.2562 95.4183Z" fill="#B87DE8" fill-opacity="0.08"/>
<path d="M98.4306 37.8942H103.663C103.861 37.8942 104.051 37.9729 104.192 38.1131C104.332 38.2533 104.411 38.4434 104.411 38.6417V43.8741C104.411 44.0724 104.332 44.2625 104.192 44.4027C104.051 44.5429 103.861 44.6216 103.663 44.6216H98.4306C98.2324 44.6216 98.0422 44.5429 97.902 44.4027C97.7619 44.2625 97.6831 44.0724 97.6831 43.8741V38.6417C97.6831 38.4434 97.7619 38.2533 97.902 38.1131C98.0422 37.9729 98.2324 37.8942 98.4306 37.8942ZM99.1781 38.6417C98.9798 38.6417 98.7897 38.7204 98.6495 38.8606C98.5094 39.0008 98.4306 39.1909 98.4306 39.3892C98.4306 39.5874 98.5094 39.7775 98.6495 39.9177C98.7897 40.0579 98.9798 40.1367 99.1781 40.1367C99.3763 40.1367 99.5665 40.0579 99.7067 39.9177C99.8468 39.7775 99.9256 39.5874 99.9256 39.3892C99.9256 39.1909 99.8468 39.0008 99.7067 38.8606C99.5665 38.7204 99.3763 38.6417 99.1781 38.6417ZM102.916 42.3791C102.717 42.3791 102.527 42.4579 102.387 42.5981C102.247 42.7383 102.168 42.9284 102.168 43.1266C102.168 43.3249 102.247 43.515 102.387 43.6552C102.527 43.7954 102.717 43.8741 102.916 43.8741C103.114 43.8741 103.304 43.7954 103.444 43.6552C103.584 43.515 103.663 43.3249 103.663 43.1266C103.663 42.9284 103.584 42.7383 103.444 42.5981C103.304 42.4579 103.114 42.3791 102.916 42.3791ZM102.916 40.5104C102.717 40.5104 102.527 40.5892 102.387 40.7293C102.247 40.8695 102.168 41.0596 102.168 41.2579C102.168 41.4561 102.247 41.6463 102.387 41.7865C102.527 41.9266 102.717 42.0054 102.916 42.0054C103.114 42.0054 103.304 41.9266 103.444 41.7865C103.584 41.6463 103.663 41.4561 103.663 41.2579C103.663 41.0596 103.584 40.8695 103.444 40.7293C103.304 40.5892 103.114 40.5104 102.916 40.5104ZM102.916 38.6417C102.717 38.6417 102.527 38.7204 102.387 38.8606C102.247 39.0008 102.168 39.1909 102.168 39.3892C102.168 39.5874 102.247 39.7775 102.387 39.9177C102.527 40.0579 102.717 40.1367 102.916 40.1367C103.114 40.1367 103.304 40.0579 103.444 39.9177C103.584 39.7775 103.663 39.5874 103.663 39.3892C103.663 39.1909 103.584 39.0008 103.444 38.8606C103.304 38.7204 103.114 38.6417 102.916 38.6417ZM99.1781 40.5104C98.9798 40.5104 98.7897 40.5892 98.6495 40.7293C98.5094 40.8695 98.4306 41.0596 98.4306 41.2579C98.4306 41.4561 98.5094 41.6463 98.6495 41.7865C98.7897 41.9266 98.9798 42.0054 99.1781 42.0054C99.3763 42.0054 99.5665 41.9266 99.7067 41.7865C99.8468 41.6463 99.9256 41.4561 99.9256 41.2579C99.9256 41.0596 99.8468 40.8695 99.7067 40.7293C99.5665 40.5892 99.3763 40.5104 99.1781 40.5104ZM99.1781 42.3791C98.9798 42.3791 98.7897 42.4579 98.6495 42.5981C98.5094 42.7383 98.4306 42.9284 98.4306 43.1266C98.4306 43.3249 98.5094 43.515 98.6495 43.6552C98.7897 43.7954 98.9798 43.8741 99.1781 43.8741C99.3763 43.8741 99.5665 43.7954 99.7067 43.6552C99.8468 43.515 99.9256 43.3249 99.9256 43.1266C99.9256 42.9284 99.8468 42.7383 99.7067 42.5981C99.5665 42.4579 99.3763 42.3791 99.1781 42.3791Z" fill="#B87DE8" fill-opacity="0.08"/>
<path d="M151.767 24.8215H148.538C148.395 24.8215 148.259 24.8782 148.158 24.9792C148.057 25.0801 148 25.217 148 25.3597V28.5889C148 29.6074 148.308 30.5523 148.946 31.2449C148.977 31.2785 149.008 31.3116 149.041 31.3439C149.111 31.3033 149.192 31.2799 149.278 31.2799C149.399 31.2799 149.514 31.2099 149.573 31.1034C149.492 31.0338 149.414 30.9593 149.341 30.8803C148.813 30.3071 148.538 29.5025 148.538 28.5889C148.538 28.3911 148.551 28.1987 148.577 28.0122L151.193 25.3955C151.384 25.3712 151.575 25.3593 151.767 25.3597C152.786 25.3597 153.545 25.6735 154.068 26.17C154.086 26.1681 154.104 26.167 154.122 26.167C154.296 26.167 154.458 26.0214 154.458 25.8307C154.458 25.8204 154.459 25.8102 154.459 25.8C153.822 25.184 152.917 24.8215 151.767 24.8215ZM148.538 25.3597H149.188L148.538 26.0093V25.3597ZM149.772 25.3597H150.468L148.538 27.2897V26.5938L149.772 25.3597ZM151.767 32.3563C151.089 32.3563 150.496 32.2301 149.993 32.0003C150.154 31.8923 150.288 31.7494 150.386 31.5821C150.779 31.7333 151.238 31.8181 151.767 31.8181C152.87 31.8181 153.669 31.45 154.193 30.8803C154.352 30.7068 154.489 30.5137 154.599 30.3058C154.88 30.2467 155.138 30.109 155.344 29.9088C155.189 30.4102 154.939 30.8652 154.589 31.2449C153.948 31.9413 152.997 32.3563 151.767 32.3563Z" fill="#B87DE8" fill-opacity="0.08"/>
<path d="M153.614 27.9778C153.724 27.8317 153.867 27.7122 154.033 27.6309C154.01 27.5971 153.984 27.5649 153.957 27.5346C153.802 27.3651 153.569 27.2434 153.247 27.2434C152.929 27.2434 152.696 27.3594 152.541 27.5287C152.394 27.689 152.334 27.8766 152.31 27.9996C152.303 28.0346 152.302 28.0709 152.309 28.1061C152.315 28.1414 152.329 28.175 152.349 28.205C152.368 28.2349 152.394 28.2606 152.424 28.2806C152.454 28.3005 152.487 28.3143 152.522 28.3211C152.557 28.328 152.594 28.3277 152.629 28.3203C152.664 28.3129 152.697 28.2986 152.727 28.2781C152.756 28.2577 152.781 28.2316 152.8 28.2013C152.82 28.171 152.833 28.1372 152.839 28.1018C152.852 28.0356 152.881 27.9538 152.937 27.8928C152.986 27.84 153.071 27.7816 153.247 27.7816C153.42 27.7816 153.508 27.8414 153.559 27.8971C153.582 27.9221 153.6 27.9501 153.614 27.9778ZM155.486 27.9062C155.32 27.7245 155.103 27.5978 154.863 27.5429C154.811 27.3522 154.743 27.1666 154.658 26.9883C154.825 26.9103 154.974 26.7978 155.095 26.6581C155.292 27.0392 155.422 27.4609 155.486 27.9062ZM150.246 27.8925C150.19 27.9538 150.16 28.0356 150.148 28.1021C150.134 28.1722 150.093 28.234 150.034 28.2739C149.975 28.3138 149.902 28.3286 149.832 28.315C149.762 28.3013 149.7 28.2604 149.66 28.2012C149.62 28.142 149.606 28.0694 149.619 27.9993C149.643 27.8766 149.703 27.689 149.85 27.5287C150.005 27.3594 150.238 27.2434 150.556 27.2434C150.878 27.2434 151.111 27.3651 151.266 27.5346C151.412 27.6952 151.473 27.8823 151.494 28.0047C151.506 28.075 151.49 28.1473 151.449 28.2057C151.408 28.2641 151.345 28.3037 151.275 28.3159C151.205 28.3281 151.132 28.3119 151.074 28.2708C151.016 28.2297 150.976 28.1671 150.964 28.0967C150.95 28.0227 150.917 27.9537 150.868 27.8971C150.817 27.8414 150.729 27.7816 150.556 27.7816C150.38 27.7816 150.295 27.84 150.246 27.8925ZM154.458 25.3597C154.53 25.3597 154.598 25.3314 154.648 25.2809C154.699 25.2304 154.727 25.162 154.727 25.0906C154.727 25.0193 154.699 24.9508 154.648 24.9004C154.598 24.8499 154.53 24.8215 154.458 24.8215C154.387 24.8215 154.318 24.8499 154.268 24.9004C154.217 24.9508 154.189 25.0193 154.189 25.0906C154.189 25.162 154.217 25.2304 154.268 25.2809C154.318 25.3314 154.387 25.3597 154.458 25.3597ZM154.929 25.6288C154.983 25.6288 155.034 25.6501 155.072 25.6879C155.11 25.7258 155.131 25.7771 155.131 25.8307C155.131 26.4221 154.638 26.8398 154.122 26.8398C154.068 26.8398 154.017 26.8185 153.979 26.7807C153.941 26.7428 153.92 26.6915 153.92 26.6379C153.92 26.5844 153.941 26.5331 153.979 26.4952C154.017 26.4574 154.068 26.4361 154.122 26.4361C154.434 26.4361 154.727 26.181 154.727 25.8307C154.727 25.7771 154.749 25.7258 154.786 25.6879C154.824 25.6501 154.876 25.6288 154.929 25.6288ZM150.085 30.7417C150.139 30.7417 150.19 30.763 150.228 30.8008C150.266 30.8387 150.287 30.89 150.287 30.9435C150.287 31.535 149.794 31.9526 149.278 31.9526C149.224 31.9526 149.173 31.9314 149.135 31.8935C149.097 31.8557 149.076 31.8043 149.076 31.7508C149.076 31.6973 149.097 31.646 149.135 31.6081C149.173 31.5703 149.224 31.549 149.278 31.549C149.59 31.549 149.883 31.2939 149.883 30.9435C149.883 30.89 149.905 30.8387 149.943 30.8008C149.98 30.763 150.032 30.7417 150.085 30.7417ZM154.727 32.0872C154.799 32.0872 154.867 32.0588 154.918 32.0084C154.968 31.9579 154.996 31.8895 154.996 31.8181C154.996 31.7467 154.968 31.6783 154.918 31.6278C154.867 31.5773 154.799 31.549 154.727 31.549C154.656 31.549 154.587 31.5773 154.537 31.6278C154.486 31.6783 154.458 31.7467 154.458 31.8181C154.458 31.8895 154.486 31.9579 154.537 32.0084C154.587 32.0588 154.656 32.0872 154.727 32.0872ZM150.153 29.6653C150.153 29.7367 150.124 29.8051 150.074 29.8556C150.023 29.9061 149.955 29.9344 149.883 29.9344C149.812 29.9344 149.744 29.9061 149.693 29.8556C149.643 29.8051 149.614 29.7367 149.614 29.6653C149.614 29.5939 149.643 29.5255 149.693 29.475C149.744 29.4246 149.812 29.3962 149.883 29.3962C149.955 29.3962 150.023 29.4246 150.074 29.475C150.124 29.5255 150.153 29.5939 150.153 29.6653ZM154.545 27.7816C154.427 27.7816 154.311 27.8047 154.203 27.8496C154.094 27.8946 153.996 27.9604 153.913 28.0434C153.83 28.1264 153.764 28.2249 153.719 28.3333C153.674 28.4417 153.651 28.5579 153.651 28.6753V28.7907C153.651 28.8702 153.667 28.949 153.697 29.0224C153.727 29.0959 153.772 29.1626 153.828 29.2189C153.884 29.2751 153.951 29.3197 154.025 29.3501C154.098 29.3805 154.177 29.3962 154.256 29.3962C154.381 29.3962 154.501 29.3466 154.589 29.2583C154.678 29.17 154.727 29.0502 154.727 28.9253V28.7907C154.727 28.7372 154.706 28.6859 154.668 28.648C154.63 28.6102 154.579 28.5889 154.525 28.5889C154.472 28.5889 154.421 28.6102 154.383 28.648C154.345 28.6859 154.324 28.7372 154.324 28.7907V28.9253C154.324 28.9431 154.317 28.9602 154.304 28.9729C154.291 28.9855 154.274 28.9926 154.256 28.9926C154.203 28.9926 154.151 28.9713 154.114 28.9334C154.076 28.8956 154.054 28.8443 154.054 28.7907V28.6753C154.054 28.4046 154.274 28.1853 154.545 28.1853H154.593C154.735 28.1853 154.872 28.242 154.973 28.3429C155.074 28.4438 155.131 28.5807 155.131 28.7235V28.8206C155.131 29.0446 155.042 29.2595 154.883 29.4179C154.725 29.5763 154.51 29.6653 154.286 29.6653H152.878C152.901 29.566 152.901 29.4628 152.878 29.3635C152.855 29.2642 152.81 29.1712 152.747 29.0916C152.683 29.012 152.603 28.9477 152.511 28.9035C152.419 28.8594 152.318 28.8364 152.217 28.8365C152.145 28.8365 152.077 28.8648 152.026 28.9153C151.976 28.9658 151.947 29.0342 151.947 29.1056C151.947 29.1769 151.976 29.2454 152.026 29.2959C152.077 29.3463 152.145 29.3747 152.217 29.3747C152.235 29.3747 152.253 29.3783 152.27 29.3853C152.287 29.3924 152.303 29.4027 152.315 29.4157C152.328 29.4287 152.339 29.4441 152.346 29.4611C152.353 29.478 152.356 29.4962 152.356 29.5146C152.356 29.533 152.353 29.5512 152.346 29.5682C152.339 29.5851 152.328 29.6006 152.315 29.6136C152.303 29.6265 152.287 29.6369 152.27 29.6439C152.253 29.6509 152.235 29.6545 152.217 29.6545C152.145 29.6545 152.077 29.6829 152.026 29.7334C151.976 29.7838 151.947 29.8523 151.947 29.9236C151.947 29.995 151.976 30.0635 152.026 30.1139C152.077 30.1644 152.145 30.1927 152.217 30.1927C152.254 30.1927 152.289 30.2075 152.315 30.2337C152.342 30.26 152.356 30.2956 152.356 30.3327C152.356 30.3698 152.342 30.4054 152.315 30.4316C152.289 30.4579 152.254 30.4726 152.217 30.4726C152.145 30.4726 152.077 30.501 152.026 30.5514C151.976 30.6019 151.947 30.6703 151.947 30.7417C151.947 30.8131 151.976 30.8815 152.026 30.932C152.077 30.9824 152.145 31.0108 152.217 31.0108C152.328 31.0108 152.439 30.9831 152.537 30.9302C152.636 30.8773 152.72 30.8008 152.782 30.7076C152.844 30.6143 152.881 30.5072 152.892 30.3958C152.902 30.2843 152.885 30.1721 152.841 30.069H154.286C154.617 30.0689 154.935 29.9373 155.169 29.7032C155.403 29.4691 155.535 29.1516 155.535 28.8206V28.7235C155.535 28.4737 155.435 28.2341 155.259 28.0575C155.082 27.8808 154.842 27.7816 154.593 27.7816H154.545Z" fill="#B87DE8" fill-opacity="0.08"/>
<path d="M154.593 77.5754C153.382 79.5937 151.364 80.401 151.364 82.4192C151.364 83.2265 152.171 84.0338 152.978 84.0338C153.382 84.0338 153.786 84.0338 154.189 83.6302C154.189 83.6302 154.318 84.4374 153.382 85.6484H155.804C154.997 84.4374 154.997 83.6302 154.997 83.6302C155.4 84.0338 155.804 84.0338 156.208 84.0338C157.015 84.0338 157.822 83.2265 157.822 82.4192C157.822 80.401 155.804 79.5937 154.593 77.5754Z" fill="#B87DE8" fill-opacity="0.08"/>
<path d="M163.877 52.5229C164.091 52.5229 164.296 52.608 164.447 52.7594C164.599 52.9108 164.684 53.1161 164.684 53.3302C164.684 53.6572 164.482 53.9357 164.212 54.0648L163.473 56.6199V58.5776H159.437V56.6199L158.698 54.0648C158.427 53.9357 158.226 53.6572 158.226 53.3302C158.226 53.1161 158.311 52.9108 158.462 52.7594C158.613 52.608 158.819 52.5229 159.033 52.5229C159.247 52.5229 159.452 52.608 159.604 52.7594C159.755 52.9108 159.84 53.1161 159.84 53.3302C159.84 53.532 159.768 53.7137 159.638 53.8549L160.769 55.0861L160.982 53.5805C160.781 53.4352 160.647 53.197 160.647 52.9266C160.647 52.7124 160.733 52.5071 160.884 52.3557C161.035 52.2043 161.241 52.1193 161.455 52.1193C161.669 52.1193 161.874 52.2043 162.026 52.3557C162.177 52.5071 162.262 52.7124 162.262 52.9266C162.262 53.197 162.129 53.4352 161.927 53.5805L162.141 55.0861L163.259 53.8509C163.136 53.7052 163.069 53.5207 163.069 53.3302C163.069 53.1161 163.154 52.9108 163.306 52.7594C163.457 52.608 163.663 52.5229 163.877 52.5229ZM158.629 59.3849H164.28V60.1922H158.629V59.3849Z" fill="#B87DE8" fill-opacity="0.08"/>
<path d="M157.457 111.402H153.613C153.19 111.402 152.844 111.748 152.844 112.171V118.321C152.844 118.744 153.19 119.09 153.613 119.09H157.457C157.88 119.09 158.226 118.744 158.226 118.321V112.171C158.226 111.748 157.88 111.402 157.457 111.402ZM156.227 116.399C156.073 116.399 155.919 116.361 155.765 116.284L156.111 117.168H154.958L155.304 116.284C155.15 116.361 154.997 116.399 154.843 116.399C154.381 116.399 153.997 116.015 153.997 115.554C153.997 114.977 154.535 114.516 155.304 113.785L155.535 113.593L155.765 113.785C156.534 114.516 157.072 114.977 157.072 115.554C157.072 116.053 156.688 116.399 156.227 116.399Z" fill="#B87DE8" fill-opacity="0.08"/>
<path d="M167.959 6H164.115C163.692 6 163.346 6.34598 163.346 6.76885V12.9197C163.346 13.3425 163.692 13.6885 164.115 13.6885H167.959C168.382 13.6885 168.728 13.3425 168.728 12.9197V6.76885C168.728 6.34598 168.382 6 167.959 6ZM166.729 10.9975C166.575 10.9975 166.422 10.9591 166.268 10.8822L166.614 11.7664H165.461L165.807 10.8822C165.653 10.9591 165.499 10.9975 165.345 10.9975C164.884 10.9975 164.499 10.6131 164.499 10.1518C164.499 9.57516 165.038 9.11385 165.807 8.38344L166.037 8.19123L166.268 8.38344C167.037 9.11385 167.575 9.57516 167.575 10.1518C167.575 10.6516 167.19 10.9975 166.729 10.9975Z" fill="#B87DE8" fill-opacity="0.08"/>
</svg>
