<svg width="165" height="126" viewBox="0 0 165 126" fill="none" xmlns="http://www.w3.org/2000/svg">
<path d="M66.4032 0.608387C64.0307 0.831597 61.7434 1.56688 59.3529 1.75726C56.8492 2.20697 54.1488 3.31481 51.6468 4.05502C51.2254 4.17975 50.7368 4.22571 50.3351 4.38327C47.8904 5.3434 45.4146 6.43975 42.9569 7.50164C38.3414 9.49576 34.0096 12.2662 29.8532 15.0645C25.6968 17.8645 22.4487 20.9681 18.8137 24.6938C15.1787 28.4194 12.7636 31.8332 9.87791 36.2646C6.99385 40.6976 5.35916 45.3095 3.43099 50.4909C1.50118 55.6707 1.6235 56 0.327222 62C-0.376953 66.5 0.294429 70.099 0.1649 71.0197C0.0353718 71.9405 0.243602 73.1878 0.327222 74.1365C0.381329 74.7454 0.599396 75.3198 0.655142 75.9418C1.3077 78.7467 2.20949 81.5861 3.27851 84.3122C8.38423 97.3323 20.2402 107.897 32.1355 114.675C39.8236 119.056 48.9955 122.48 57.7133 123.866C60.1186 124.249 62.5928 124.761 64.9276 125.179C67.564 125.358 70.2956 126 72.9616 126C77.7164 126 82.4713 126 87.2262 126C88.2017 126 89.0527 125.856 90.0135 125.836C98.141 125.673 107.115 123.154 114.609 120.914C122.104 118.672 127.918 115.166 134.611 111.393C136.563 110.292 138.241 108.634 140.185 107.454C143.965 104.157 147.991 100.625 151.335 96.7857C157.962 87.8672 164.124 77.7866 164.124 66.2584C164.124 64.1248 164.124 61.9912 164.124 59.8576C164.124 49.8705 159.251 40.8223 153.958 32.7769C153.235 31.9136 152.484 31.0733 151.826 30.1509C151.31 29.5683 150.831 28.9544 150.351 28.3455C148.96 26.8405 147.367 25.3585 145.924 23.9142C140.813 19.5419 136.472 16.3381 130.361 13.397C124.248 10.4575 117.941 8.92297 111.44 6.24116C104.937 3.55936 98.1279 1.90662 90.8333 0.772512C83.5387 -0.361593 73.9208 -0.0973513 66.4032 0.608387ZM81.3236 2.24964C82.9484 2.24964 85.3209 2.13967 86.7343 2.74201C86.8162 2.74201 86.9802 2.74201 87.0622 2.74201C89.7183 2.74201 92.6811 3.47729 95.2602 3.89089C97.8393 4.30449 100.345 5.02992 102.802 5.86039C103.086 5.95558 103.521 5.99005 103.622 6.35277C99.6871 6.35277 95.7521 6.35277 91.817 6.35277C89.679 6.35277 87.7049 6.84514 85.5865 6.84514C84.0732 6.99121 82.3893 7.41794 80.8317 7.66577C77.6033 8.17948 74.3487 8.9361 71.2859 9.92741C68.2215 10.9171 65.0177 11.3455 62.1402 12.7536C60.276 13.6662 58.3216 14.3063 56.4016 15.0514C56.118 15.1614 55.8622 15.2779 55.5818 15.3797C52.1354 17.2819 48.3315 18.9822 45.2523 21.6164C44.139 22.7308 44.0636 24.336 46.0721 23.75C54.5997 20.0228 62.6829 14.4852 71.9778 12.7536C75.0505 11.8066 78.2378 10.9729 81.4875 10.4559C81.9893 10.3755 82.4303 10.3115 82.9632 10.2918C87.7066 9.37595 93.4353 8.84255 98.3754 8.81464C103.316 8.78674 108.879 9.82566 113.46 10.62C118.041 11.4144 121.059 13.7515 124.773 16.2003C125.755 16.8469 126.665 17.4279 127.56 18.1698C127.837 18.3339 127.992 18.4685 128.216 18.6622C129.321 19.6206 130.489 20.566 131.659 21.4523C131.814 21.5688 132.004 21.6689 132.151 21.7805C133.048 22.46 133.994 23.4333 134.734 24.2834C135.473 25.1336 136.745 25.8689 137.234 26.8684C137.267 26.9341 137.234 27.0325 137.234 27.0325C137.234 27.1146 137.234 27.1967 137.234 27.1967C140.051 29.606 142.069 33.1725 143.956 36.2235C144.673 37.3823 145.239 38.6099 145.76 39.8343C148.183 45.5212 150.39 50.8274 150.843 57.2316C151.295 63.6374 150.475 71.4694 148.551 77.2581C146.627 83.0485 143.95 87.0498 140.677 92.0261C139.828 93.3161 138.78 94.3403 137.726 95.4727C137.662 95.5778 137.623 95.7009 137.562 95.801C136.337 97.8164 133.648 99.9845 131.823 101.381C131.771 101.421 131.659 101.381 131.659 101.381C130.843 102.55 129.393 103.613 128.216 104.335C122.232 108.005 116.293 111.99 109.525 114.019C108.73 114.257 107.833 114.556 107.065 114.839C106.182 115.166 105.308 115.632 104.278 115.824C103.186 116.156 102.038 116.674 100.835 116.809C99.8921 117.068 98.9214 117.464 97.8836 117.63C97.0703 117.851 96.1866 118.261 95.2602 118.286C95.1782 118.288 95.0143 118.284 94.9323 118.286C94.2584 118.609 93.5878 118.665 92.8008 118.778C91.6006 118.951 90.4119 119.131 89.1937 119.271C88.1132 119.502 86.9507 119.714 85.7505 119.763C83.8158 120.215 81.4957 120.297 79.3561 120.42C77.2164 120.543 74.6537 120.815 72.4697 120.584C70.2858 120.352 67.9854 120.349 65.9113 119.927C63.1174 119.688 60.299 119.253 57.5493 118.778C50.7007 117.597 43.5931 115.227 37.2691 112.657C30.9435 110.085 26.433 106.394 20.8223 102.694C18.7498 101.329 16.7019 99.0096 15.0836 97.114C13.7211 95.517 12.4373 93.7724 11.3126 92.0261C9.44997 89.1358 7.83168 86.1685 6.55771 82.9992C3.4851 75.3477 2.73416 66.7869 3.93435 58.3804C4.06224 57.481 4.16553 56.5554 4.42623 55.7544C4.45738 55.4721 4.541 55.0799 4.59019 54.7697C4.74267 53.8079 5.15585 52.8527 5.40999 51.9796C5.63625 50.3957 6.39047 48.8924 6.88563 47.3841C7.11682 46.6783 7.38899 46.0546 7.70543 45.4146C9.27617 40.5056 12.8128 35.9609 15.6985 31.7511C18.5842 27.543 22.4291 24.1045 26.2707 20.6694C30.1122 17.2343 34.7982 14.3768 39.1858 11.7689C43.5734 9.16095 48.3643 7.49015 53.1224 5.86039C60.0284 3.49535 67.7624 2.24964 75.257 2.24964C77.1639 2.06418 79.4282 2.06582 81.3236 2.24964ZM142.153 24.7348C142.789 25.1205 143.366 25.7064 143.956 26.2119C145.07 27.1638 146.049 28.3061 147.072 29.3303C149.108 31.0717 150.641 33.2135 152.195 35.3619C153.75 37.5119 155.33 40.0116 156.38 42.4981C157.429 44.9829 159.315 47.9224 159.533 50.6666C160.223 53.0382 160.761 55.4951 161.008 58.0522C161.036 58.341 161.167 58.8039 161.172 59.2011C161.177 59.5293 161.172 59.8576 161.172 60.1858C161.333 61.8369 161.331 63.7982 161.172 65.4378C161.172 66.4554 161.064 67.3745 161.008 68.3921C160.941 69.6247 160.616 70.8129 160.352 72.0028C159.01 78.0689 156.773 83.4522 153.466 88.7436C150.92 94.1351 145.899 98.2875 141.661 102.53C140.5 103.692 139.231 104.782 137.89 105.648C136.532 106.525 135.347 107.638 133.955 108.439C127.555 112.123 122.004 115.683 114.824 117.846C107.644 120.011 99.2461 122.783 91.4891 123.046C91.3252 123.051 91.1612 123.046 90.9972 123.046C89.2314 123.433 87.3278 123.435 85.4226 123.538C81.6351 123.743 77.6115 123.729 73.9454 123.374C67.0754 123.374 60.1399 121.8 53.6143 120.256C52.7371 120.047 51.8484 119.898 50.9909 119.599C51.8484 119.314 53.0847 119.87 53.9422 120.091C60.8499 121.7 68.4986 122.333 75.7489 122.389C82.9993 122.445 90.4791 121.057 97.2638 119.799C104.048 118.544 109.251 116.139 115.591 113.855C119.056 112.606 122.44 110.339 125.631 108.476C128.821 106.614 131.454 104.17 134.324 101.751C137.193 99.3313 139.443 96.8136 141.874 93.8807C144.307 90.9478 146.024 88.0231 147.942 84.5272C149.859 81.0297 150.997 77.3599 152.143 73.3043C153.287 69.2472 153.279 63.79 153.63 59.3652C153.399 56.9755 153.032 54.4053 152.646 51.9796C152.487 50.9817 152.151 50.0314 151.99 49.0253C151.231 46.2614 150.193 43.3334 149.039 40.6549C148.615 39.9246 148.228 39.1548 147.891 38.3572C147.336 37.036 146.549 35.6409 145.76 34.4182C145.432 33.9094 145.162 33.4876 144.94 32.941C141.003 26.8339 135.558 21.3029 129.856 16.6927C134.284 18.6605 138.519 21.4129 142.153 24.7348Z" fill="#9147C6"/>
</svg>
