<svg width="75" height="75" viewBox="0 0 75 75" fill="none" xmlns="http://www.w3.org/2000/svg">
<path d="M66.6672 16.6992H8.33398L37.5006 74.9674L66.6672 16.6992Z" fill="#E23F3F"/>
<path d="M8.33331 16.6992H0L37.4999 74.9674L8.33331 16.6992Z" fill="#CB3030"/>
<path d="M8.33331 16.6994H0L4.16666 8.36621L8.33331 16.6994Z" fill="#F92222"/>
<path d="M16.666 0.0322266L4.16602 8.36554L8.33267 16.7194L16.666 0.0322266Z" fill="#FF2D2D"/>
<path d="M58.334 0.0322266L70.834 8.36554L66.6673 16.7194L58.334 0.0322266Z" fill="#FF2D2D"/>
<path d="M16.6673 0L8.33398 16.7195L37.5839 0H16.6673Z" fill="#FE5454"/>
<path d="M58.3327 0L66.666 16.7195L37.4161 0H58.3327Z" fill="#FE5454"/>
<path d="M74.9993 16.6994H66.666L70.8327 8.36621L74.9993 16.6994Z" fill="#F92222"/>
<path d="M66.6672 16.6994H8.33398L37.5006 0.00585938L66.6672 16.6994Z" fill="#E93131"/>
<path d="M66.6667 16.6992H75L37.5001 74.9674L66.6667 16.6992Z" fill="#CB3030"/>
</svg>
